<?xml version="1.0" encoding="UTF-8" standalone="no"?>
<!-- Created with Inkscape (http://www.inkscape.org/) -->

<svg
   width="95.069717mm"
   height="35.323387mm"
   viewBox="0 0 95.069716 35.323388"
   version="1.1"
   id="svg12889"
   sodipodi:docname="gauss gesetz strahlensatz.svg"
   inkscape:version="1.2.2 (b0a8486, 2022-12-01)"
   xmlns:inkscape="http://www.inkscape.org/namespaces/inkscape"
   xmlns:sodipodi="http://sodipodi.sourceforge.net/DTD/sodipodi-0.dtd"
   xmlns="http://www.w3.org/2000/svg"
   xmlns:svg="http://www.w3.org/2000/svg"
   xmlns:ns2="http://www.iki.fi/pav/software/textext/">
  <sodipodi:namedview
     id="namedview12891"
     pagecolor="#ffffff"
     bordercolor="#000000"
     borderopacity="0.25"
     inkscape:showpageshadow="2"
     inkscape:pageopacity="0.0"
     inkscape:pagecheckerboard="0"
     inkscape:deskcolor="#d1d1d1"
     inkscape:document-units="mm"
     showgrid="false"
     inkscape:zoom="2.0636608"
     inkscape:cx="158.94085"
     inkscape:cy="76.078394"
     inkscape:window-width="1440"
     inkscape:window-height="778"
     inkscape:window-x="0"
     inkscape:window-y="23"
     inkscape:window-maximized="0"
     inkscape:current-layer="layer1" />
  <defs
     id="defs12886" />
  <g
     inkscape:label="Layer 1"
     inkscape:groupmode="layer"
     id="layer1"
     transform="translate(-18.8707, -44.0267)">
    <path
       style="display:inline;fill:none;stroke:#000000;stroke-width:0.377953;stroke-dasharray:0.377953, 0.377953;stroke-dashoffset:0"
       d="m 388.59323,223.99492 85.42629,-0.12461"
       id="path16436"
       transform="matrix(0.77515825,0,0,0.4685359,-268.53673,-49.699599)"
       sodipodi:nodetypes="cc" />
    <path
       style="display:inline;fill:none;stroke:#ff00ff;stroke-width:0.389201;stroke-dasharray:none;stroke-dashoffset:0"
       d="m 461.55648,218.70657 -72.96325,5.28835"
       id="path16768"
       transform="matrix(0.90998973,0,0,0.90998973,-321.10824,-148.64139)"
       inkscape:label="lila Linie 2"
       sodipodi:nodetypes="cc" />
    <path
       style="display:inline;fill:none;stroke:#ff00ff;stroke-width:0.389201;stroke-dasharray:none;stroke-dashoffset:0"
       d="m 461.55648,229.28325 -72.96325,-5.28833"
       id="path16770"
       transform="matrix(0.90998973,0,0,0.90998973,-321.10824,-148.64139)"
       inkscape:label="lila Linie"
       sodipodi:nodetypes="cc" />
    <ellipse
       style="display:inline;fill:#ff00ff;fill-opacity:0.349153;stroke:#ff00ff;stroke-width:0.389201;stroke-dasharray:none;stroke-dashoffset:0"
       id="path16702"
       cx="458.54239"
       cy="223.85158"
       transform="matrix(0.90998973,0,0,0.90998973,-318.36545,-148.51096)"
       rx="1.8958606"
       ry="5.2883406"
       inkscape:label="Ausschnitt Einheitskreis (pink)" />
    <ellipse
       style="display:inline;fill:#0000ff;fill-opacity:0.386441;stroke:#000080;stroke-width:0.66662;stroke-dasharray:none;stroke-dashoffset:0"
       id="ellipse19002"
       cx="458.54239"
       cy="223.85158"
       transform="matrix(0.53129047,0,0,0.53129047,-172.3469,-63.738531)"
       rx="1.8958606"
       ry="5.2883406"
       inkscape:label="Ausschnitt Volumen senkrecht (blau)" />
    <circle
       style="display:inline;fill:#ff0000;fill-opacity:1;stroke:none;stroke-width:1.13386;stroke-dasharray:none;stroke-dashoffset:0"
       id="path15873"
       cx="390.06152"
       cy="226.35098"
       r="1.1528913"
       transform="matrix(0.85266368,0,0,0.85266368,-300.08369,-137.80958)"
       inkscape:label="Ladung" />
    <path
       style="fill:#000080;fill-opacity:0.20678;stroke:#000000;stroke-width:0.377953"
       d="m 101.33043,38.828677 -5e-5,-5.996647"
       id="path440"
       transform="matrix(0.4685359,0,0,0.4685359,23.795351,36.999049)" />
    <g
       transform="matrix(0.352778,0,0,0.352778,65.248138,72.083645)"
       ns2:version="1.8.2"
       ns2:texconverter="pdflatex"
       ns2:pdfconverter="inkscape"
       ns2:text="$1$"
       ns2:preamble="/Users/hendrik/Library/Application Support/org.inkscape.Inkscape/config/inkscape/extensions/textext/default_packages.tex"
       ns2:scale="1.0"
       ns2:alignment="middle center"
       ns2:stroke-to-path="0"
       ns2:inkscapeversion="1.2.2"
       ns2:jacobian_sqrt="0.352778"
       id="g9579">
      <defs
         id="id-f67fa11e-2b22-41fa-ace6-1b88db355bd8">
        <g
           id="id-c4c03120-5211-4c85-a8db-51f12f51b573">
          <g
             id="id-3fa00bee-2532-495c-b213-a5990b1af068" />
          <g
             id="id-5855f0c6-5629-4e2f-9a9d-e48dc9c5e4b0">
            <path
               d="m 2.9375,-6.375 c 0,-0.25 0,-0.265625 -0.234375,-0.265625 C 2.078125,-6 1.203125,-6 0.890625,-6 v 0.3125 c 0.203125,0 0.78125,0 1.296875,-0.265625 v 5.171875 c 0,0.359375 -0.03125,0.46875 -0.921875,0.46875 h -0.3125 V 0 c 0.34375,-0.03125 1.203125,-0.03125 1.609375,-0.03125 0.390625,0 1.265625,0 1.609375,0.03125 v -0.3125 h -0.3125 c -0.90625,0 -0.921875,-0.109375 -0.921875,-0.46875 z m 0,0"
               id="id-0c38ac79-240e-47e2-aec1-90739c91e0f0" />
          </g>
        </g>
      </defs>
      <g
         fill="#000000"
         fill-opacity="1"
         id="id-8ad9fdaa-3d47-4977-989c-2155b37aefeb"
         transform="translate(-149.603,-128.124)">
        <g
           transform="translate(148.712,134.765)"
           id="g9576">
          <path
             d="m 2.9375,-6.375 c 0,-0.25 0,-0.265625 -0.234375,-0.265625 C 2.078125,-6 1.203125,-6 0.890625,-6 v 0.3125 c 0.203125,0 0.78125,0 1.296875,-0.265625 v 5.171875 c 0,0.359375 -0.03125,0.46875 -0.921875,0.46875 h -0.3125 V 0 c 0.34375,-0.03125 1.203125,-0.03125 1.609375,-0.03125 0.390625,0 1.265625,0 1.609375,0.03125 v -0.3125 h -0.3125 c -0.90625,0 -0.921875,-0.109375 -0.921875,-0.46875 z m 0,0"
             id="id-309823d5-76de-4eeb-9c48-fe4c1dd4c790" />
        </g>
      </g>
    </g>
    <g
       transform="matrix(0.352778,0,0,0.352778,51.889998,63.306052)"
       ns2:version="1.8.2"
       ns2:texconverter="pdflatex"
       ns2:pdfconverter="inkscape"
       ns2:text="$r$"
       ns2:preamble="/Users/hendrik/Library/Application Support/org.inkscape.Inkscape/config/inkscape/extensions/textext/default_packages.tex"
       ns2:scale="1.0"
       ns2:alignment="middle center"
       ns2:stroke-to-path="0"
       ns2:inkscapeversion="1.2.2"
       ns2:jacobian_sqrt="0.352778"
       id="g10562">
      <defs
         id="id-c07a40e2-5bfd-4e29-b3db-d0083f4e95a0">
        <g
           id="id-76903977-7b37-4999-82e6-fd5f16a18ef8">
          <g
             id="id-5a75208c-0ca3-4492-996b-5bedefa8606d" />
          <g
             id="id-d9c253c5-0c55-4fe4-9d4d-0de26bf17f62">
            <path
               d="m 0.875,-0.59375 c -0.03125,0.15625 -0.09375,0.390625 -0.09375,0.4375 0,0.171875 0.140625,0.265625 0.296875,0.265625 0.125,0 0.296875,-0.078125 0.375,-0.28125 C 1.46875,-0.203125 1.796875,-1.5625 1.84375,-1.75 c 0.078125,-0.328125 0.265625,-1.015625 0.3125,-1.296875 0.046875,-0.125 0.328125,-0.59375 0.5625,-0.8125 0.078125,-0.0625 0.375,-0.328125 0.796875,-0.328125 0.265625,0 0.40625,0.125 0.421875,0.125 -0.296875,0.046875 -0.515625,0.28125 -0.515625,0.546875 0,0.15625 0.109375,0.34375 0.375,0.34375 0.265625,0 0.546875,-0.234375 0.546875,-0.59375 0,-0.34375 -0.3125,-0.640625 -0.828125,-0.640625 C 2.875,-4.40625 2.4375,-3.921875 2.25,-3.640625 2.15625,-4.09375 1.796875,-4.40625 1.328125,-4.40625 0.875,-4.40625 0.6875,-4.015625 0.59375,-3.84375 0.421875,-3.5 0.296875,-2.90625 0.296875,-2.875 c 0,0.109375 0.09375,0.109375 0.109375,0.109375 0.109375,0 0.109375,-0.015625 0.171875,-0.234375 0.171875,-0.703125 0.375,-1.1875 0.734375,-1.1875 0.15625,0 0.296875,0.078125 0.296875,0.453125 0,0.21875 -0.03125,0.328125 -0.15625,0.84375 z m 0,0"
               id="id-649b04b9-54a8-4a8f-8128-921f8954cbc1" />
          </g>
        </g>
      </defs>
      <g
         fill="#000000"
         fill-opacity="1"
         id="id-152f9c0e-3411-445a-9dc9-4b74954f802b"
         transform="translate(-149.009,-130.359)">
        <g
           transform="translate(148.712,134.765)"
           id="g10559">
          <path
             d="m 0.875,-0.59375 c -0.03125,0.15625 -0.09375,0.390625 -0.09375,0.4375 0,0.171875 0.140625,0.265625 0.296875,0.265625 0.125,0 0.296875,-0.078125 0.375,-0.28125 C 1.46875,-0.203125 1.796875,-1.5625 1.84375,-1.75 c 0.078125,-0.328125 0.265625,-1.015625 0.3125,-1.296875 0.046875,-0.125 0.328125,-0.59375 0.5625,-0.8125 0.078125,-0.0625 0.375,-0.328125 0.796875,-0.328125 0.265625,0 0.40625,0.125 0.421875,0.125 -0.296875,0.046875 -0.515625,0.28125 -0.515625,0.546875 0,0.15625 0.109375,0.34375 0.375,0.34375 0.265625,0 0.546875,-0.234375 0.546875,-0.59375 0,-0.34375 -0.3125,-0.640625 -0.828125,-0.640625 C 2.875,-4.40625 2.4375,-3.921875 2.25,-3.640625 2.15625,-4.09375 1.796875,-4.40625 1.328125,-4.40625 0.875,-4.40625 0.6875,-4.015625 0.59375,-3.84375 0.421875,-3.5 0.296875,-2.90625 0.296875,-2.875 c 0,0.109375 0.09375,0.109375 0.109375,0.109375 0.109375,0 0.109375,-0.015625 0.171875,-0.234375 0.171875,-0.703125 0.375,-1.1875 0.734375,-1.1875 0.15625,0 0.296875,0.078125 0.296875,0.453125 0,0.21875 -0.03125,0.328125 -0.15625,0.84375 z m 0,0"
             id="id-a863cf92-8294-4715-a931-4086cf329a82" />
        </g>
      </g>
    </g>
    <g
       id="g11683"
       transform="translate(3.2056294,0.10990059)">
      <path
         style="fill:#000000;fill-opacity:0.20678;stroke:#000000;stroke-width:0.428819;stroke-dasharray:none"
         d="M 18.594648,38.828674 H 101.33043"
         id="path5167"
         transform="matrix(0.46853601,0,0,0.46853601,20.589717,44.385721)" />
      <path
         style="fill:#000000;fill-opacity:0.20678;stroke:#000000;stroke-width:0.755906;stroke-dasharray:none"
         d="m 189.66442,65.352254 v 7.558"
         id="path10707"
         transform="matrix(0.26458333,0,0,0.26458333,17.884628,44.287376)" />
      <path
         style="fill:#000000;fill-opacity:0.20678;stroke:#000000;stroke-width:0.755906;stroke-dasharray:none"
         d="m 189.66442,65.352254 v 7.558"
         id="path10707-6"
         transform="matrix(0.26458333,0,0,0.26458333,-20.880065,44.287376)" />
    </g>
    <path
       style="fill:#000000;fill-opacity:0.20678;stroke:#000000;stroke-width:0.427183;stroke-dasharray:none"
       d="M 18.594648,38.828674 H 160.51751"
       transform="matrix(0.46783019,0,0,0.46853591,23.808474,52.929278)"
       id="path5214"
       sodipodi:nodetypes="cc" />
    <path
       style="fill:#000000;fill-opacity:0.20678;stroke:#000000;stroke-width:0.755906;stroke-dasharray:none"
       d="m 189.66442,65.352254 v 7.558"
       id="path10707-2"
       transform="matrix(0.26458333,0,0,0.26458333,-17.674432,52.830929)" />
    <path
       style="fill:#000000;fill-opacity:0.20678;stroke:#000000;stroke-width:0.755906;stroke-dasharray:none"
       d="m 189.66442,65.352254 v 7.558"
       id="path10707-2-5"
       transform="matrix(0.26458333,0,0,0.26458333,48.721369,52.830929)" />
    <path
       style="fill:none;fill-opacity:0.454225;stroke:#800080;stroke-width:0.755906;stroke-dasharray:none"
       d="M 290.37008,41.78299 V 23.594635"
       id="path11685"
       transform="matrix(0.26458333,0,0,0.26458333,22.07633,44.136595)" />
    <g
       transform="matrix(0.352778,0,0,0.352778,29.132367,52.785604)"
       ns2:version="1.8.2"
       ns2:texconverter="pdflatex"
       ns2:pdfconverter="inkscape"
       ns2:text="$q$"
       ns2:preamble="/Users/hendrik/Library/Application Support/org.inkscape.Inkscape/config/inkscape/extensions/textext/default_packages.tex"
       ns2:scale="1.0"
       ns2:alignment="middle center"
       ns2:stroke-to-path="0"
       ns2:inkscapeversion="1.2.2"
       ns2:jacobian_sqrt="0.352778"
       id="g12171"
       style="fill:#ff0000">
      <defs
         id="id-53475839-e6bc-4c66-bc23-b7b78ddb3542">
        <g
           id="id-8ea43aa3-ec6c-4082-a91b-ecc1b1a37498">
          <g
             id="id-5ce04c5e-c2ba-48a5-afbf-f127d8f40e81" />
          <g
             id="id-8eb66115-4c0b-4850-b49d-b051ef7322c4">
            <path
               d="m 4.5,-4.296875 c 0,-0.046875 -0.03125,-0.09375 -0.09375,-0.09375 -0.109375,0 -0.515625,0.390625 -0.671875,0.6875 C 3.515625,-4.25 3.125,-4.40625 2.796875,-4.40625 c -1.171875,0 -2.390625,1.46875 -2.390625,2.921875 0,0.96875 0.578125,1.59375 1.3125,1.59375 0.421875,0 0.8125,-0.234375 1.171875,-0.59375 -0.09375,0.34375 -0.421875,1.6875 -0.453125,1.78125 -0.078125,0.28125 -0.15625,0.3125 -0.71875,0.328125 -0.125,0 -0.21875,0 -0.21875,0.203125 0,0 0,0.109375 0.125,0.109375 0.3125,0 0.671875,-0.03125 1,-0.03125 0.328125,0 0.6875,0.03125 1.03125,0.03125 0.046875,0 0.171875,0 0.171875,-0.203125 C 3.828125,1.625 3.734375,1.625 3.5625,1.625 3.09375,1.625 3.09375,1.5625 3.09375,1.46875 3.09375,1.390625 3.109375,1.328125 3.125,1.25 Z m -2.75,4.1875 c -0.609375,0 -0.640625,-0.765625 -0.640625,-0.9375 0,-0.484375 0.28125,-1.5625 0.453125,-1.984375 0.3125,-0.734375 0.828125,-1.15625 1.234375,-1.15625 0.65625,0 0.796875,0.8125 0.796875,0.875 0,0.0625 -0.546875,2.25 -0.578125,2.28125 C 2.859375,-0.75 2.296875,-0.109375 1.75,-0.109375 Z m 0,0"
               id="id-12ba20e9-0a84-449f-af2d-2ec793eb3022" />
          </g>
        </g>
      </defs>
      <g
         fill="#000000"
         fill-opacity="1"
         id="id-56617bc0-521d-4c27-b1ef-433a6420f695"
         transform="translate(-149.118,-130.359)"
         style="fill:#ff0000">
        <g
           transform="translate(148.712,134.765)"
           id="g12168"
           style="fill:#ff0000">
          <path
             d="m 4.5,-4.296875 c 0,-0.046875 -0.03125,-0.09375 -0.09375,-0.09375 -0.109375,0 -0.515625,0.390625 -0.671875,0.6875 C 3.515625,-4.25 3.125,-4.40625 2.796875,-4.40625 c -1.171875,0 -2.390625,1.46875 -2.390625,2.921875 0,0.96875 0.578125,1.59375 1.3125,1.59375 0.421875,0 0.8125,-0.234375 1.171875,-0.59375 -0.09375,0.34375 -0.421875,1.6875 -0.453125,1.78125 -0.078125,0.28125 -0.15625,0.3125 -0.71875,0.328125 -0.125,0 -0.21875,0 -0.21875,0.203125 0,0 0,0.109375 0.125,0.109375 0.3125,0 0.671875,-0.03125 1,-0.03125 0.328125,0 0.6875,0.03125 1.03125,0.03125 0.046875,0 0.171875,0 0.171875,-0.203125 C 3.828125,1.625 3.734375,1.625 3.5625,1.625 3.09375,1.625 3.09375,1.5625 3.09375,1.46875 3.09375,1.390625 3.109375,1.328125 3.125,1.25 Z m -2.75,4.1875 c -0.609375,0 -0.640625,-0.765625 -0.640625,-0.9375 0,-0.484375 0.28125,-1.5625 0.453125,-1.984375 0.3125,-0.734375 0.828125,-1.15625 1.234375,-1.15625 0.65625,0 0.796875,0.8125 0.796875,0.875 0,0.0625 -0.546875,2.25 -0.578125,2.28125 C 2.859375,-0.75 2.296875,-0.109375 1.75,-0.109375 Z m 0,0"
             id="id-bf605fa3-8fc3-4d2c-9e90-b2542aa53bbe"
             style="fill:#ff0000" />
        </g>
      </g>
    </g>
    <g
       transform="matrix(0.352778 0 0 0.352778 74.0812 52.5597)"
       ns2:version="1.8.2"
       ns2:texconverter="pdflatex"
       ns2:pdfconverter="inkscape"
       ns2:text="$r_{\\text{d}A_\\perp}$"
       ns2:preamble="/Users/hendrik/Library/Application Support/org.inkscape.Inkscape/config/inkscape/extensions/textext/default_packages.tex"
       ns2:scale="1.0"
       ns2:alignment="middle center"
       ns2:stroke-to-path="0"
       ns2:inkscapeversion="1.2.2"
       ns2:jacobian_sqrt="0.352778"
       style="fill:#000000;stroke-width:0"
       id="g9347">
      <defs
         id="id-a51d2298-5223-4ccc-8dee-abcf1a9534f5"
         style="fill:#000000;stroke-width:0">
        <g
           id="id-e9488ba8-4790-4dd4-a6a5-5251ac17bc91"
           style="fill:#000000;stroke-width:0">
          <g
             id="id-816e92c4-7a10-4888-b54b-4d138f83f7e2"
             style="fill:#000000;stroke-width:0" />
          <g
             id="id-77ea3a56-6b3e-45b2-80bd-aa45074d8f7e"
             style="fill:#000000;stroke-width:0">
            <path
               d="m 0.875,-0.59375 c -0.03125,0.15625 -0.09375,0.390625 -0.09375,0.4375 0,0.171875 0.140625,0.265625 0.296875,0.265625 0.125,0 0.296875,-0.078125 0.375,-0.28125 C 1.46875,-0.203125 1.796875,-1.5625 1.84375,-1.75 c 0.078125,-0.328125 0.265625,-1.015625 0.3125,-1.296875 0.046875,-0.125 0.328125,-0.59375 0.5625,-0.8125 0.078125,-0.0625 0.375,-0.328125 0.796875,-0.328125 0.265625,0 0.40625,0.125 0.421875,0.125 -0.296875,0.046875 -0.515625,0.28125 -0.515625,0.546875 0,0.15625 0.109375,0.34375 0.375,0.34375 0.265625,0 0.546875,-0.234375 0.546875,-0.59375 0,-0.34375 -0.3125,-0.640625 -0.828125,-0.640625 C 2.875,-4.40625 2.4375,-3.921875 2.25,-3.640625 2.15625,-4.09375 1.796875,-4.40625 1.328125,-4.40625 0.875,-4.40625 0.6875,-4.015625 0.59375,-3.84375 0.421875,-3.5 0.296875,-2.90625 0.296875,-2.875 c 0,0.109375 0.09375,0.109375 0.109375,0.109375 0.109375,0 0.109375,-0.015625 0.171875,-0.234375 0.171875,-0.703125 0.375,-1.1875 0.734375,-1.1875 0.15625,0 0.296875,0.078125 0.296875,0.453125 0,0.21875 -0.03125,0.328125 -0.15625,0.84375 z m 0,0"
               id="id-a39f609a-0823-4219-955f-e76bcc469e97"
               style="fill:#000000;stroke-width:0" />
          </g>
          <g
             id="id-92c37488-df1f-4b78-a367-ff2870c2860e"
             style="fill:#000000;stroke-width:0" />
          <g
             id="id-0cfe8cd8-4bf1-419b-bf14-e3a7d0210f21"
             style="fill:#000000;stroke-width:0">
            <path
               d="m 2.484375,-4.765625 v 0.25 C 2.953125,-4.515625 3,-4.453125 3,-4.125 v 1.453125 c -0.25,-0.25 -0.59375,-0.40625 -0.96875,-0.40625 -0.9375,0 -1.703125,0.703125 -1.703125,1.578125 0,0.875 0.734375,1.5625 1.609375,1.5625 0.578125,0 0.921875,-0.296875 1.03125,-0.421875 V 0.0625 L 4.046875,0 V -0.25 C 3.578125,-0.25 3.53125,-0.296875 3.53125,-0.640625 V -4.84375 Z m 0.484375,4.03125 C 2.796875,-0.40625 2.4375,-0.125 1.984375,-0.125 1.59375,-0.125 1.3125,-0.359375 1.171875,-0.5625 1.03125,-0.765625 0.953125,-1.046875 0.953125,-1.484375 c 0,-0.171875 0,-0.6875 0.28125,-1.015625 0.28125,-0.3125 0.625,-0.375 0.828125,-0.375 0.328125,0 0.640625,0.15625 0.828125,0.40625 0.078125,0.109375 0.078125,0.109375 0.078125,0.25 z m 0,0"
               id="id-22a02d28-0eaf-4601-9780-4edbef7b7e1f"
               style="fill:#000000;stroke-width:0" />
          </g>
          <g
             id="id-3c227c9d-9d2c-4808-835e-f115c44a05b5"
             style="fill:#000000;stroke-width:0" />
          <g
             id="id-97c0c298-bf61-48ba-9f23-a8ae4e77d3e5"
             style="fill:#000000;stroke-width:0">
            <path
               d="m 1.4375,-0.84375 c -0.25,0.390625 -0.46875,0.5625 -0.875,0.59375 -0.078125,0 -0.171875,0 -0.171875,0.140625 C 0.390625,-0.03125 0.453125,0 0.5,0 0.671875,0 0.90625,-0.03125 1.09375,-0.03125 1.3125,-0.03125 1.609375,0 1.8125,0 1.84375,0 1.953125,0 1.953125,-0.15625 1.953125,-0.25 1.859375,-0.25 1.828125,-0.25 1.78125,-0.265625 1.53125,-0.265625 1.53125,-0.453125 c 0,-0.09375 0.0625,-0.203125 0.09375,-0.265625 l 0.5625,-0.875 h 2 L 4.34375,-0.4375 C 4.328125,-0.359375 4.28125,-0.25 3.875,-0.25 c -0.09375,0 -0.1875,0 -0.1875,0.15625 C 3.6875,-0.0625 3.703125,0 3.796875,0 4,0 4.5,-0.03125 4.703125,-0.03125 c 0.125,0 0.28125,0.015625 0.40625,0.015625 C 5.234375,-0.015625 5.375,0 5.5,0 5.59375,0 5.640625,-0.0625 5.640625,-0.140625 5.640625,-0.25 5.5625,-0.25 5.453125,-0.25 c -0.40625,0 -0.421875,-0.0625 -0.4375,-0.21875 l -0.625,-4.3125 C 4.375,-4.921875 4.359375,-4.96875 4.234375,-4.96875 4.09375,-4.96875 4.0625,-4.90625 4,-4.8125 Z m 0.921875,-1 L 3.8125,-4.125 4.140625,-1.84375 Z m 0,0"
               id="id-72f45455-9819-43de-ade9-5386ed1cde87"
               style="fill:#000000;stroke-width:0" />
          </g>
          <g
             id="id-19fde0b7-4fb6-4438-afd9-a553b5c8a5cd"
             style="fill:#000000;stroke-width:0" />
          <g
             id="id-9d5c74b9-2638-4ee0-a6a5-2fc6a47f0273"
             style="fill:#000000;stroke-width:0">
            <path
               d="m 2.84375,-3.25 c 0,-0.078125 0,-0.203125 -0.140625,-0.203125 C 2.5625,-3.453125 2.5625,-3.3125 2.5625,-3.25 v 2.96875 H 0.84375 c -0.078125,0 -0.21875,0 -0.21875,0.140625 C 0.625,0 0.765625,0 0.84375,0 H 4.5625 C 4.640625,0 4.78125,0 4.78125,-0.140625 4.78125,-0.28125 4.640625,-0.28125 4.5625,-0.28125 H 2.84375 Z m 0,0"
               id="id-71a71beb-5353-402a-9126-6aaba093d781"
               style="fill:#000000;stroke-width:0" />
          </g>
        </g>
      </defs>
      <g
         fill-opacity="1"
         id="id-cd9534b0-829e-44d8-afe6-83f1fa51748d"
         transform="translate(-149.009, -130.359)"
         style="fill:#000000;stroke-width:0">
        <g
           transform="translate(148.712, 134.765)"
           style="fill:#000000;stroke-width:0"
           id="g4130">
          <path
             d="m 0.875,-0.59375 c -0.03125,0.15625 -0.09375,0.390625 -0.09375,0.4375 0,0.171875 0.140625,0.265625 0.296875,0.265625 0.125,0 0.296875,-0.078125 0.375,-0.28125 C 1.46875,-0.203125 1.796875,-1.5625 1.84375,-1.75 c 0.078125,-0.328125 0.265625,-1.015625 0.3125,-1.296875 0.046875,-0.125 0.328125,-0.59375 0.5625,-0.8125 0.078125,-0.0625 0.375,-0.328125 0.796875,-0.328125 0.265625,0 0.40625,0.125 0.421875,0.125 -0.296875,0.046875 -0.515625,0.28125 -0.515625,0.546875 0,0.15625 0.109375,0.34375 0.375,0.34375 0.265625,0 0.546875,-0.234375 0.546875,-0.59375 0,-0.34375 -0.3125,-0.640625 -0.828125,-0.640625 C 2.875,-4.40625 2.4375,-3.921875 2.25,-3.640625 2.15625,-4.09375 1.796875,-4.40625 1.328125,-4.40625 0.875,-4.40625 0.6875,-4.015625 0.59375,-3.84375 0.421875,-3.5 0.296875,-2.90625 0.296875,-2.875 c 0,0.109375 0.09375,0.109375 0.109375,0.109375 0.109375,0 0.109375,-0.015625 0.171875,-0.234375 0.171875,-0.703125 0.375,-1.1875 0.734375,-1.1875 0.15625,0 0.296875,0.078125 0.296875,0.453125 0,0.21875 -0.03125,0.328125 -0.15625,0.84375 z m 0,0"
             id="id-fb102da6-9859-40b6-aaf8-67aa7e0d763d"
             style="fill:#000000;stroke-width:0" />
        </g>
      </g>
      <g
         fill-opacity="1"
         id="id-da187591-3312-4d3d-b96e-b956c0d16d0a"
         transform="translate(-149.009, -130.359)"
         style="fill:#000000;stroke-width:0">
        <g
           transform="translate(153.207, 136.259)"
           style="fill:#000000;stroke-width:0"
           id="g4134">
          <path
             d="m 2.484375,-4.765625 v 0.25 C 2.953125,-4.515625 3,-4.453125 3,-4.125 v 1.453125 c -0.25,-0.25 -0.59375,-0.40625 -0.96875,-0.40625 -0.9375,0 -1.703125,0.703125 -1.703125,1.578125 0,0.875 0.734375,1.5625 1.609375,1.5625 0.578125,0 0.921875,-0.296875 1.03125,-0.421875 V 0.0625 L 4.046875,0 V -0.25 C 3.578125,-0.25 3.53125,-0.296875 3.53125,-0.640625 V -4.84375 Z m 0.484375,4.03125 C 2.796875,-0.40625 2.4375,-0.125 1.984375,-0.125 1.59375,-0.125 1.3125,-0.359375 1.171875,-0.5625 1.03125,-0.765625 0.953125,-1.046875 0.953125,-1.484375 c 0,-0.171875 0,-0.6875 0.28125,-1.015625 0.28125,-0.3125 0.625,-0.375 0.828125,-0.375 0.328125,0 0.640625,0.15625 0.828125,0.40625 0.078125,0.109375 0.078125,0.109375 0.078125,0.25 z m 0,0"
             id="id-644fcf73-62d0-4771-a0c2-b8939476464b"
             style="fill:#000000;stroke-width:0" />
        </g>
      </g>
      <g
         fill-opacity="1"
         id="id-fb36bdfd-fc28-4cfc-9423-c6f96cac2173"
         transform="translate(-149.009, -130.359)"
         style="fill:#000000;stroke-width:0">
        <g
           transform="translate(157.607, 136.259)"
           style="fill:#000000;stroke-width:0"
           id="g4138">
          <path
             d="m 1.4375,-0.84375 c -0.25,0.390625 -0.46875,0.5625 -0.875,0.59375 -0.078125,0 -0.171875,0 -0.171875,0.140625 C 0.390625,-0.03125 0.453125,0 0.5,0 0.671875,0 0.90625,-0.03125 1.09375,-0.03125 1.3125,-0.03125 1.609375,0 1.8125,0 1.84375,0 1.953125,0 1.953125,-0.15625 1.953125,-0.25 1.859375,-0.25 1.828125,-0.25 1.78125,-0.265625 1.53125,-0.265625 1.53125,-0.453125 c 0,-0.09375 0.0625,-0.203125 0.09375,-0.265625 l 0.5625,-0.875 h 2 L 4.34375,-0.4375 C 4.328125,-0.359375 4.28125,-0.25 3.875,-0.25 c -0.09375,0 -0.1875,0 -0.1875,0.15625 C 3.6875,-0.0625 3.703125,0 3.796875,0 4,0 4.5,-0.03125 4.703125,-0.03125 c 0.125,0 0.28125,0.015625 0.40625,0.015625 C 5.234375,-0.015625 5.375,0 5.5,0 5.59375,0 5.640625,-0.0625 5.640625,-0.140625 5.640625,-0.25 5.5625,-0.25 5.453125,-0.25 c -0.40625,0 -0.421875,-0.0625 -0.4375,-0.21875 l -0.625,-4.3125 C 4.375,-4.921875 4.359375,-4.96875 4.234375,-4.96875 4.09375,-4.96875 4.0625,-4.90625 4,-4.8125 Z m 0.921875,-1 L 3.8125,-4.125 4.140625,-1.84375 Z m 0,0"
             id="id-fb9bfb48-4b18-43aa-b69a-f59fe467deb4"
             style="fill:#000000;stroke-width:0" />
        </g>
      </g>
      <g
         fill-opacity="1"
         id="id-3c423a1b-0920-4031-a9c4-f097b037946e"
         transform="translate(-149.009, -130.359)"
         style="fill:#000000;stroke-width:0">
        <g
           transform="translate(163.599, 137.316)"
           style="fill:#000000;stroke-width:0"
           id="g4142">
          <path
             d="m 2.84375,-3.25 c 0,-0.078125 0,-0.203125 -0.140625,-0.203125 C 2.5625,-3.453125 2.5625,-3.3125 2.5625,-3.25 v 2.96875 H 0.84375 c -0.078125,0 -0.21875,0 -0.21875,0.140625 C 0.625,0 0.765625,0 0.84375,0 H 4.5625 C 4.640625,0 4.78125,0 4.78125,-0.140625 4.78125,-0.28125 4.640625,-0.28125 4.5625,-0.28125 H 2.84375 Z m 0,0"
             id="id-a9fc28ee-4f32-4cd2-9d68-f186c2b5fc3c"
             style="fill:#000000;stroke-width:0" />
        </g>
      </g>
    </g>
    <g
       transform="matrix(0.352778 0 0 0.352778 102.618 51.737)"
       ns2:version="1.8.2"
       ns2:texconverter="pdflatex"
       ns2:pdfconverter="inkscape"
       ns2:text="$r_{\\text{d}\\Omega}$"
       ns2:preamble="/Users/hendrik/Library/Application Support/org.inkscape.Inkscape/config/inkscape/extensions/textext/default_packages.tex"
       ns2:scale="1.0"
       ns2:alignment="middle center"
       ns2:stroke-to-path="0"
       ns2:inkscapeversion="1.2.2"
       ns2:jacobian_sqrt="0.352778"
       style="fill:#800080;stroke-width:0"
       id="g9162">
      <defs
         id="id-60fbb747-86ae-4505-b174-89e5800ca48c"
         style="fill:#800080;stroke-width:0">
        <g
           id="id-51f4a8d4-9ba3-47d8-9ff4-daaf28efb20f"
           style="fill:#800080;stroke-width:0">
          <g
             id="id-37e1e81d-5c69-4383-8185-aa65227c6332"
             style="fill:#800080;stroke-width:0" />
          <g
             id="id-6db7cc14-1b93-48ea-8c03-62d06bb481f1"
             style="fill:#800080;stroke-width:0">
            <path
               d="m 0.875,-0.59375 c -0.03125,0.15625 -0.09375,0.390625 -0.09375,0.4375 0,0.171875 0.140625,0.265625 0.296875,0.265625 0.125,0 0.296875,-0.078125 0.375,-0.28125 C 1.46875,-0.203125 1.796875,-1.5625 1.84375,-1.75 c 0.078125,-0.328125 0.265625,-1.015625 0.3125,-1.296875 0.046875,-0.125 0.328125,-0.59375 0.5625,-0.8125 0.078125,-0.0625 0.375,-0.328125 0.796875,-0.328125 0.265625,0 0.40625,0.125 0.421875,0.125 -0.296875,0.046875 -0.515625,0.28125 -0.515625,0.546875 0,0.15625 0.109375,0.34375 0.375,0.34375 0.265625,0 0.546875,-0.234375 0.546875,-0.59375 0,-0.34375 -0.3125,-0.640625 -0.828125,-0.640625 C 2.875,-4.40625 2.4375,-3.921875 2.25,-3.640625 2.15625,-4.09375 1.796875,-4.40625 1.328125,-4.40625 0.875,-4.40625 0.6875,-4.015625 0.59375,-3.84375 0.421875,-3.5 0.296875,-2.90625 0.296875,-2.875 c 0,0.109375 0.09375,0.109375 0.109375,0.109375 0.109375,0 0.109375,-0.015625 0.171875,-0.234375 0.171875,-0.703125 0.375,-1.1875 0.734375,-1.1875 0.15625,0 0.296875,0.078125 0.296875,0.453125 0,0.21875 -0.03125,0.328125 -0.15625,0.84375 z m 0,0"
               id="id-55a79619-76e4-4a48-9553-86238c2707b4"
               style="fill:#800080;stroke-width:0" />
          </g>
          <g
             id="id-910735c4-fd21-4da4-86bc-31f97b16efe2"
             style="fill:#800080;stroke-width:0" />
          <g
             id="id-dcbfd9e4-0d20-406d-978f-e4cb1146ca6d"
             style="fill:#800080;stroke-width:0">
            <path
               d="m 2.484375,-4.765625 v 0.25 C 2.953125,-4.515625 3,-4.453125 3,-4.125 v 1.453125 c -0.25,-0.25 -0.59375,-0.40625 -0.96875,-0.40625 -0.9375,0 -1.703125,0.703125 -1.703125,1.578125 0,0.875 0.734375,1.5625 1.609375,1.5625 0.578125,0 0.921875,-0.296875 1.03125,-0.421875 V 0.0625 L 4.046875,0 V -0.25 C 3.578125,-0.25 3.53125,-0.296875 3.53125,-0.640625 V -4.84375 Z m 0.484375,4.03125 C 2.796875,-0.40625 2.4375,-0.125 1.984375,-0.125 1.59375,-0.125 1.3125,-0.359375 1.171875,-0.5625 1.03125,-0.765625 0.953125,-1.046875 0.953125,-1.484375 c 0,-0.171875 0,-0.6875 0.28125,-1.015625 0.28125,-0.3125 0.625,-0.375 0.828125,-0.375 0.328125,0 0.640625,0.15625 0.828125,0.40625 0.078125,0.109375 0.078125,0.109375 0.078125,0.25 z m 0,0"
               id="id-5e8bd7b5-50d6-4f68-9ab3-85935c254d4a"
               style="fill:#800080;stroke-width:0" />
          </g>
          <g
             id="id-912aef8f-fd89-41d7-b328-df6ad6cb16b3"
             style="fill:#800080;stroke-width:0">
            <path
               d="m 5.28125,-1.171875 h -0.25 c 0,0.015625 -0.0625,0.34375 -0.125,0.515625 C 4.875,-0.546875 4.84375,-0.5 4.421875,-0.5 H 3.828125 C 3.9375,-0.890625 4.140625,-1.15625 4.53125,-1.671875 4.875,-2.140625 5.1875,-2.59375 5.1875,-3.15625 c 0,-0.953125 -1.015625,-1.75 -2.34375,-1.75 -1.34375,0 -2.359375,0.796875 -2.359375,1.75 0,0.609375 0.34375,1.0625 0.828125,1.71875 0.203125,0.265625 0.421875,0.578125 0.53125,0.9375 H 1.25 C 0.84375,-0.5 0.8125,-0.546875 0.78125,-0.625 0.71875,-0.765625 0.640625,-1.15625 0.640625,-1.171875 h -0.25 L 0.640625,0 H 1.90625 c 0.140625,0 0.1875,0 0.1875,-0.15625 0,-0.5 -0.25,-1.09375 -0.40625,-1.4375 -0.265625,-0.609375 -0.453125,-1.0625 -0.453125,-1.578125 0,-0.984375 0.78125,-1.53125 1.609375,-1.53125 0.8125,0 1.59375,0.546875 1.59375,1.53125 0,0.53125 -0.203125,1 -0.4375,1.546875 C 3.84375,-1.28125 3.578125,-0.65625 3.578125,-0.15625 3.578125,0 3.609375,0 3.78125,0 h 1.25 z m 0,0"
               id="id-17a7bf9a-70ba-438a-9bfe-00abefd6cea6"
               style="fill:#800080;stroke-width:0" />
          </g>
        </g>
      </defs>
      <g
         fill-opacity="1"
         id="id-5409f742-5725-44bc-8924-349a5698768f"
         transform="translate(-149.009, -130.359)"
         style="fill:#800080;stroke-width:0">
        <g
           transform="translate(148.712, 134.765)"
           style="fill:#800080;stroke-width:0"
           id="g4351">
          <path
             d="m 0.875,-0.59375 c -0.03125,0.15625 -0.09375,0.390625 -0.09375,0.4375 0,0.171875 0.140625,0.265625 0.296875,0.265625 0.125,0 0.296875,-0.078125 0.375,-0.28125 C 1.46875,-0.203125 1.796875,-1.5625 1.84375,-1.75 c 0.078125,-0.328125 0.265625,-1.015625 0.3125,-1.296875 0.046875,-0.125 0.328125,-0.59375 0.5625,-0.8125 0.078125,-0.0625 0.375,-0.328125 0.796875,-0.328125 0.265625,0 0.40625,0.125 0.421875,0.125 -0.296875,0.046875 -0.515625,0.28125 -0.515625,0.546875 0,0.15625 0.109375,0.34375 0.375,0.34375 0.265625,0 0.546875,-0.234375 0.546875,-0.59375 0,-0.34375 -0.3125,-0.640625 -0.828125,-0.640625 C 2.875,-4.40625 2.4375,-3.921875 2.25,-3.640625 2.15625,-4.09375 1.796875,-4.40625 1.328125,-4.40625 0.875,-4.40625 0.6875,-4.015625 0.59375,-3.84375 0.421875,-3.5 0.296875,-2.90625 0.296875,-2.875 c 0,0.109375 0.09375,0.109375 0.109375,0.109375 0.109375,0 0.109375,-0.015625 0.171875,-0.234375 0.171875,-0.703125 0.375,-1.1875 0.734375,-1.1875 0.15625,0 0.296875,0.078125 0.296875,0.453125 0,0.21875 -0.03125,0.328125 -0.15625,0.84375 z m 0,0"
             id="id-050d356f-5031-4d9f-ac4e-56d7bd2f899d"
             style="fill:#800080;stroke-width:0" />
        </g>
      </g>
      <g
         fill-opacity="1"
         id="id-a86058f2-8043-4978-b3ed-7bed2170fe6d"
         transform="translate(-149.009, -130.359)"
         style="fill:#800080;stroke-width:0">
        <g
           transform="translate(153.207, 136.259)"
           style="fill:#800080;stroke-width:0"
           id="g4355">
          <path
             d="m 2.484375,-4.765625 v 0.25 C 2.953125,-4.515625 3,-4.453125 3,-4.125 v 1.453125 c -0.25,-0.25 -0.59375,-0.40625 -0.96875,-0.40625 -0.9375,0 -1.703125,0.703125 -1.703125,1.578125 0,0.875 0.734375,1.5625 1.609375,1.5625 0.578125,0 0.921875,-0.296875 1.03125,-0.421875 V 0.0625 L 4.046875,0 V -0.25 C 3.578125,-0.25 3.53125,-0.296875 3.53125,-0.640625 V -4.84375 Z m 0.484375,4.03125 C 2.796875,-0.40625 2.4375,-0.125 1.984375,-0.125 1.59375,-0.125 1.3125,-0.359375 1.171875,-0.5625 1.03125,-0.765625 0.953125,-1.046875 0.953125,-1.484375 c 0,-0.171875 0,-0.6875 0.28125,-1.015625 0.28125,-0.3125 0.625,-0.375 0.828125,-0.375 0.328125,0 0.640625,0.15625 0.828125,0.40625 0.078125,0.109375 0.078125,0.109375 0.078125,0.25 z m 0,0"
             id="id-2793d67b-9744-4325-a57d-5509d00159a5"
             style="fill:#800080;stroke-width:0" />
        </g>
        <g
           transform="translate(157.607, 136.259)"
           style="fill:#800080;stroke-width:0"
           id="g4358">
          <path
             d="m 5.28125,-1.171875 h -0.25 c 0,0.015625 -0.0625,0.34375 -0.125,0.515625 C 4.875,-0.546875 4.84375,-0.5 4.421875,-0.5 H 3.828125 C 3.9375,-0.890625 4.140625,-1.15625 4.53125,-1.671875 4.875,-2.140625 5.1875,-2.59375 5.1875,-3.15625 c 0,-0.953125 -1.015625,-1.75 -2.34375,-1.75 -1.34375,0 -2.359375,0.796875 -2.359375,1.75 0,0.609375 0.34375,1.0625 0.828125,1.71875 0.203125,0.265625 0.421875,0.578125 0.53125,0.9375 H 1.25 C 0.84375,-0.5 0.8125,-0.546875 0.78125,-0.625 0.71875,-0.765625 0.640625,-1.15625 0.640625,-1.171875 h -0.25 L 0.640625,0 H 1.90625 c 0.140625,0 0.1875,0 0.1875,-0.15625 0,-0.5 -0.25,-1.09375 -0.40625,-1.4375 -0.265625,-0.609375 -0.453125,-1.0625 -0.453125,-1.578125 0,-0.984375 0.78125,-1.53125 1.609375,-1.53125 0.8125,0 1.59375,0.546875 1.59375,1.53125 0,0.53125 -0.203125,1 -0.4375,1.546875 C 3.84375,-1.28125 3.578125,-0.65625 3.578125,-0.15625 3.578125,0 3.609375,0 3.78125,0 h 1.25 z m 0,0"
             id="id-14f3ae40-85de-40a6-98e1-23037ffbd3e0"
             style="fill:#800080;stroke-width:0" />
        </g>
      </g>
    </g>
  </g>
</svg>
