<?xml version="1.0" encoding="UTF-8" standalone="no"?>
<!-- Created with Inkscape (http://www.inkscape.org/) -->

<svg
   width="59.244366mm"
   height="29.061239mm"
   viewBox="0 0 59.244366 29.061239"
   version="1.1"
   id="svg5"
   inkscape:version="1.2.2 (b0a8486, 2022-12-01)"
   sodipodi:docname="gauss gesetz außerhalb.svg"
   inkscape:export-filename="gausssches gesetz.svg"
   inkscape:export-xdpi="96"
   inkscape:export-ydpi="96"
   xmlns:inkscape="http://www.inkscape.org/namespaces/inkscape"
   xmlns:sodipodi="http://sodipodi.sourceforge.net/DTD/sodipodi-0.dtd"
   xmlns="http://www.w3.org/2000/svg"
   xmlns:svg="http://www.w3.org/2000/svg"
   xmlns:ns2="http://www.iki.fi/pav/software/textext/">
  <sodipodi:namedview
     id="namedview7"
     pagecolor="#ffffff"
     bordercolor="#000000"
     borderopacity="0.25"
     inkscape:showpageshadow="2"
     inkscape:pageopacity="0.0"
     inkscape:pagecheckerboard="0"
     inkscape:deskcolor="#d1d1d1"
     inkscape:document-units="mm"
     showgrid="false"
     inkscape:zoom="3.2394477"
     inkscape:cx="115.76047"
     inkscape:cy="45.06941"
     inkscape:window-width="1440"
     inkscape:window-height="778"
     inkscape:window-x="0"
     inkscape:window-y="23"
     inkscape:window-maximized="0"
     inkscape:current-layer="layer2"
     showguides="false">
    <inkscape:grid
       type="xygrid"
       id="grid16648"
       originx="-96.276989"
       originy="-44.834441" />
  </sodipodi:namedview>
  <defs
     id="defs2">
    <marker
       style="overflow:visible"
       id="marker5961"
       refX="0"
       refY="0"
       orient="auto-start-reverse"
       inkscape:stockid="Arrow1L"
       markerWidth="8.75"
       markerHeight="5"
       viewBox="0 0 8.75 5"
       inkscape:isstock="true"
       inkscape:collect="always"
       preserveAspectRatio="xMidYMid">
      <path
         style="fill:context-stroke;fill-rule:evenodd;stroke:none"
         d="M 0,0 5,-5 -12.5,0 5,5 Z"
         id="path5959"
         transform="scale(-0.5)" />
    </marker>
    <g
       id="id-97d97cc0-3ff8-4c16-ad57-54486137de8e">
      <g
         id="id-e5b8c9fa-efc4-4e3e-bfa4-ae0facecd3c1" />
      <g
         id="id-31e36f04-352f-4a7f-8b60-3241eef56b9a">
        <path
           d="m 3.78125,-0.546875 v 0.65625 L 5.25,0 v -0.3125 c -0.6875,0 -0.78125,-0.0625 -0.78125,-0.5625 V -6.921875 L 3.046875,-6.8125 V -6.5 c 0.6875,0 0.765625,0.0625 0.765625,0.5625 v 2.15625 c -0.28125,-0.359375 -0.71875,-0.625 -1.25,-0.625 -1.171875,0 -2.21875,0.984375 -2.21875,2.265625 0,1.265625 0.96875,2.25 2.109375,2.25 0.640625,0 1.078125,-0.34375 1.328125,-0.65625 z m 0,-2.671875 v 2.046875 c 0,0.171875 0,0.1875 -0.109375,0.359375 C 3.375,-0.328125 2.9375,-0.109375 2.5,-0.109375 2.046875,-0.109375 1.6875,-0.375 1.453125,-0.75 1.203125,-1.15625 1.171875,-1.71875 1.171875,-2.140625 1.171875,-2.5 1.1875,-3.09375 1.46875,-3.546875 1.6875,-3.859375 2.0625,-4.1875 2.609375,-4.1875 c 0.34375,0 0.765625,0.15625 1.0625,0.59375 0.109375,0.171875 0.109375,0.1875 0.109375,0.375 z m 0,0"
           id="id-09c7fb07-55fc-4e54-a210-a827afc75251" />
      </g>
      <g
         id="id-4c2c086e-d2bc-4ae5-9abb-07c2531a2b45">
        <path
           d="M 6.75,-1.609375 H 6.5 c -0.046875,0.25 -0.09375,0.484375 -0.1875,0.71875 -0.046875,0.15625 -0.078125,0.25 -0.65625,0.25 H 4.859375 C 5,-1.203125 5.296875,-1.6875 5.75,-2.34375 c 0.46875,-0.703125 0.875,-1.390625 0.875,-2.1875 0,-1.375 -1.34375,-2.5 -3.03125,-2.5 -1.703125,0 -3.03125,1.140625 -3.03125,2.5 0,0.796875 0.40625,1.484375 0.875,2.1875 0.4375,0.65625 0.75,1.140625 0.890625,1.703125 H 1.53125 C 0.953125,-0.640625 0.921875,-0.734375 0.875,-0.875 0.78125,-1.109375 0.734375,-1.359375 0.6875,-1.609375 h -0.25 L 0.765625,0 h 1.59375 c 0.21875,0 0.25,0 0.25,-0.203125 0,-0.703125 -0.3125,-1.578125 -0.53125,-2.21875 -0.21875,-0.578125 -0.5,-1.359375 -0.5,-2.109375 0,-1.59375 1.109375,-2.28125 2.015625,-2.28125 0.953125,0 2.015625,0.71875 2.015625,2.28125 0,0.75 -0.28125,1.5 -0.5625,2.3125 -0.15625,0.421875 -0.46875,1.328125 -0.46875,2.015625 C 4.578125,0 4.609375,0 4.828125,0 h 1.59375 z m 0,0"
           id="id-8c8da76d-71f4-4a9a-afd7-4ed5f772ac84" />
      </g>
      <g
         id="id-aaf036f4-a4b5-481f-812c-c4652f94f8ec" />
      <g
         id="id-9689266e-b237-4526-9afb-a27ca3ad6a51">
        <path
           d="m 5.359375,-5.9375 c -0.140625,0.140625 -0.46875,0.421875 -0.46875,0.59375 0,0.09375 0.09375,0.203125 0.1875,0.203125 0.09375,0 0.140625,-0.078125 0.203125,-0.140625 C 5.390625,-5.421875 5.625,-5.703125 6.0625,-5.921875 6.125,-5.96875 6.234375,-6.015625 6.234375,-6.125 6.234375,-6.234375 6.15625,-6.28125 6.09375,-6.328125 5.875,-6.484375 5.765625,-6.65625 5.6875,-6.890625 5.65625,-6.984375 5.625,-7.125 5.484375,-7.125 c -0.140625,0 -0.203125,0.140625 -0.203125,0.21875 0,0.046875 0.078125,0.359375 0.234375,0.578125 H 2.15625 c -0.15625,0 -0.34375,0 -0.34375,0.203125 0,0.1875 0.1875,0.1875 0.34375,0.1875 z m 0,0"
           id="id-1073fbff-ca25-4fe8-8852-50ed17da7456" />
      </g>
    </g>
    <g
       id="g2233">
      <g
         id="g2217" />
      <g
         id="g2221">
        <path
           d="m 3.78125,-0.546875 v 0.65625 L 5.25,0 v -0.3125 c -0.6875,0 -0.78125,-0.0625 -0.78125,-0.5625 V -6.921875 L 3.046875,-6.8125 V -6.5 c 0.6875,0 0.765625,0.0625 0.765625,0.5625 v 2.15625 c -0.28125,-0.359375 -0.71875,-0.625 -1.25,-0.625 -1.171875,0 -2.21875,0.984375 -2.21875,2.265625 0,1.265625 0.96875,2.25 2.109375,2.25 0.640625,0 1.078125,-0.34375 1.328125,-0.65625 z m 0,-2.671875 v 2.046875 c 0,0.171875 0,0.1875 -0.109375,0.359375 C 3.375,-0.328125 2.9375,-0.109375 2.5,-0.109375 2.046875,-0.109375 1.6875,-0.375 1.453125,-0.75 1.203125,-1.15625 1.171875,-1.71875 1.171875,-2.140625 1.171875,-2.5 1.1875,-3.09375 1.46875,-3.546875 1.6875,-3.859375 2.0625,-4.1875 2.609375,-4.1875 c 0.34375,0 0.765625,0.15625 1.0625,0.59375 0.109375,0.171875 0.109375,0.1875 0.109375,0.375 z m 0,0"
           id="path2219" />
      </g>
      <g
         id="g2225">
        <path
           d="M 6.75,-1.609375 H 6.5 c -0.046875,0.25 -0.09375,0.484375 -0.1875,0.71875 -0.046875,0.15625 -0.078125,0.25 -0.65625,0.25 H 4.859375 C 5,-1.203125 5.296875,-1.6875 5.75,-2.34375 c 0.46875,-0.703125 0.875,-1.390625 0.875,-2.1875 0,-1.375 -1.34375,-2.5 -3.03125,-2.5 -1.703125,0 -3.03125,1.140625 -3.03125,2.5 0,0.796875 0.40625,1.484375 0.875,2.1875 0.4375,0.65625 0.75,1.140625 0.890625,1.703125 H 1.53125 C 0.953125,-0.640625 0.921875,-0.734375 0.875,-0.875 0.78125,-1.109375 0.734375,-1.359375 0.6875,-1.609375 h -0.25 L 0.765625,0 h 1.59375 c 0.21875,0 0.25,0 0.25,-0.203125 0,-0.703125 -0.3125,-1.578125 -0.53125,-2.21875 -0.21875,-0.578125 -0.5,-1.359375 -0.5,-2.109375 0,-1.59375 1.109375,-2.28125 2.015625,-2.28125 0.953125,0 2.015625,0.71875 2.015625,2.28125 0,0.75 -0.28125,1.5 -0.5625,2.3125 -0.15625,0.421875 -0.46875,1.328125 -0.46875,2.015625 C 4.578125,0 4.609375,0 4.828125,0 h 1.59375 z m 0,0"
           id="path2223" />
      </g>
      <g
         id="g2227" />
      <g
         id="g2231">
        <path
           d="m 5.359375,-5.9375 c -0.140625,0.140625 -0.46875,0.421875 -0.46875,0.59375 0,0.09375 0.09375,0.203125 0.1875,0.203125 0.09375,0 0.140625,-0.078125 0.203125,-0.140625 C 5.390625,-5.421875 5.625,-5.703125 6.0625,-5.921875 6.125,-5.96875 6.234375,-6.015625 6.234375,-6.125 6.234375,-6.234375 6.15625,-6.28125 6.09375,-6.328125 5.875,-6.484375 5.765625,-6.65625 5.6875,-6.890625 5.65625,-6.984375 5.625,-7.125 5.484375,-7.125 c -0.140625,0 -0.203125,0.140625 -0.203125,0.21875 0,0.046875 0.078125,0.359375 0.234375,0.578125 H 2.15625 c -0.15625,0 -0.34375,0 -0.34375,0.203125 0,0.1875 0.1875,0.1875 0.34375,0.1875 z m 0,0"
           id="path2229" />
      </g>
    </g>
    <g
       id="id-527e0e4e-041e-449a-9355-037325c7685b">
      <g
         id="id-81747265-a006-44a2-bc2e-bdd3ae14dd9f" />
      <g
         id="id-8a44f7d6-2065-4820-af3c-4abeabb29bd7">
        <path
           d="m 3.78125,-0.546875 v 0.65625 L 5.25,0 v -0.3125 c -0.6875,0 -0.78125,-0.0625 -0.78125,-0.5625 V -6.921875 L 3.046875,-6.8125 V -6.5 c 0.6875,0 0.765625,0.0625 0.765625,0.5625 v 2.15625 c -0.28125,-0.359375 -0.71875,-0.625 -1.25,-0.625 -1.171875,0 -2.21875,0.984375 -2.21875,2.265625 0,1.265625 0.96875,2.25 2.109375,2.25 0.640625,0 1.078125,-0.34375 1.328125,-0.65625 z m 0,-2.671875 v 2.046875 c 0,0.171875 0,0.1875 -0.109375,0.359375 C 3.375,-0.328125 2.9375,-0.109375 2.5,-0.109375 2.046875,-0.109375 1.6875,-0.375 1.453125,-0.75 1.203125,-1.15625 1.171875,-1.71875 1.171875,-2.140625 1.171875,-2.5 1.1875,-3.09375 1.46875,-3.546875 1.6875,-3.859375 2.0625,-4.1875 2.609375,-4.1875 c 0.34375,0 0.765625,0.15625 1.0625,0.59375 0.109375,0.171875 0.109375,0.1875 0.109375,0.375 z m 0,0"
           id="id-57cdff4f-3544-4536-a622-31aaf71e9deb" />
      </g>
      <g
         id="id-360be313-9895-4e78-ac06-15ddfa207c1c">
        <path
           d="M 6.75,-1.609375 H 6.5 c -0.046875,0.25 -0.09375,0.484375 -0.1875,0.71875 -0.046875,0.15625 -0.078125,0.25 -0.65625,0.25 H 4.859375 C 5,-1.203125 5.296875,-1.6875 5.75,-2.34375 c 0.46875,-0.703125 0.875,-1.390625 0.875,-2.1875 0,-1.375 -1.34375,-2.5 -3.03125,-2.5 -1.703125,0 -3.03125,1.140625 -3.03125,2.5 0,0.796875 0.40625,1.484375 0.875,2.1875 0.4375,0.65625 0.75,1.140625 0.890625,1.703125 H 1.53125 C 0.953125,-0.640625 0.921875,-0.734375 0.875,-0.875 0.78125,-1.109375 0.734375,-1.359375 0.6875,-1.609375 h -0.25 L 0.765625,0 h 1.59375 c 0.21875,0 0.25,0 0.25,-0.203125 0,-0.703125 -0.3125,-1.578125 -0.53125,-2.21875 -0.21875,-0.578125 -0.5,-1.359375 -0.5,-2.109375 0,-1.59375 1.109375,-2.28125 2.015625,-2.28125 0.953125,0 2.015625,0.71875 2.015625,2.28125 0,0.75 -0.28125,1.5 -0.5625,2.3125 -0.15625,0.421875 -0.46875,1.328125 -0.46875,2.015625 C 4.578125,0 4.609375,0 4.828125,0 h 1.59375 z m 0,0"
           id="id-2c5f7f5f-e68d-4430-86e7-13b1b70bff6b" />
      </g>
      <g
         id="id-1d7f13e1-5e4b-41cb-84fd-31bc971eb06c" />
      <g
         id="id-1fcd4d53-dd2e-4538-8898-a34001dd129b">
        <path
           d="m 3.28125,-4.5625 c 0,-0.109375 0,-0.28125 -0.171875,-0.28125 -0.171875,0 -0.171875,0.171875 -0.171875,0.28125 v 4.21875 h -2.125 c -0.109375,0 -0.28125,0 -0.28125,0.171875 C 0.53125,0 0.703125,0 0.8125,0 H 5.40625 C 5.515625,0 5.6875,0 5.6875,-0.171875 5.6875,-0.34375 5.53125,-0.34375 5.40625,-0.34375 h -2.125 z m 0,0"
           id="id-a5d1dd67-0ee4-4c50-ae7f-ebf416860086" />
      </g>
    </g>
    <g
       id="id-8cb4180e-2b9d-4835-8630-aed2d0333c0c-6">
      <g
         id="id-95ecb303-765f-4587-86fc-9f5f8e468b99-0" />
      <g
         id="id-427c843c-6dec-4d02-ab8b-01252e2e548b-4">
        <path
           d="m 3.78125,-0.546875 v 0.65625 L 5.25,0 v -0.3125 c -0.6875,0 -0.78125,-0.0625 -0.78125,-0.5625 V -6.921875 L 3.046875,-6.8125 V -6.5 c 0.6875,0 0.765625,0.0625 0.765625,0.5625 v 2.15625 c -0.28125,-0.359375 -0.71875,-0.625 -1.25,-0.625 -1.171875,0 -2.21875,0.984375 -2.21875,2.265625 0,1.265625 0.96875,2.25 2.109375,2.25 0.640625,0 1.078125,-0.34375 1.328125,-0.65625 z m 0,-2.671875 v 2.046875 c 0,0.171875 0,0.1875 -0.109375,0.359375 C 3.375,-0.328125 2.9375,-0.109375 2.5,-0.109375 2.046875,-0.109375 1.6875,-0.375 1.453125,-0.75 1.203125,-1.15625 1.171875,-1.71875 1.171875,-2.140625 1.171875,-2.5 1.1875,-3.09375 1.46875,-3.546875 1.6875,-3.859375 2.0625,-4.1875 2.609375,-4.1875 c 0.34375,0 0.765625,0.15625 1.0625,0.59375 0.109375,0.171875 0.109375,0.1875 0.109375,0.375 z m 0,0"
           id="id-48141ddc-70e1-4af0-a9c9-ad2a4ca6b68b-0" />
      </g>
      <g
         id="id-21e515ea-e08e-4824-b597-eea17d76c3fa-9" />
      <g
         id="id-4ef6c6ba-0e7b-4c67-94a6-634316399345-2">
        <path
           d="M 1.78125,-1.140625 C 1.390625,-0.484375 1,-0.34375 0.5625,-0.3125 0.4375,-0.296875 0.34375,-0.296875 0.34375,-0.109375 0.34375,-0.046875 0.40625,0 0.484375,0 0.75,0 1.0625,-0.03125 1.328125,-0.03125 c 0.34375,0 0.6875,0.03125 1,0.03125 0.0625,0 0.1875,0 0.1875,-0.1875 0,-0.109375 -0.078125,-0.125 -0.15625,-0.125 -0.21875,-0.015625 -0.46875,-0.09375 -0.46875,-0.34375 0,-0.125 0.0625,-0.234375 0.140625,-0.375 l 0.765625,-1.265625 h 2.5 c 0.015625,0.203125 0.15625,1.5625 0.15625,1.65625 0,0.296875 -0.515625,0.328125 -0.71875,0.328125 C 4.59375,-0.3125 4.5,-0.3125 4.5,-0.109375 4.5,0 4.609375,0 4.640625,0 5.046875,0 5.46875,-0.03125 5.875,-0.03125 6.125,-0.03125 6.765625,0 7.015625,0 7.0625,0 7.1875,0 7.1875,-0.203125 7.1875,-0.3125 7.09375,-0.3125 6.953125,-0.3125 6.34375,-0.3125 6.34375,-0.375 6.3125,-0.671875 l -0.609375,-6.21875 c -0.015625,-0.203125 -0.015625,-0.25 -0.1875,-0.25 -0.15625,0 -0.203125,0.078125 -0.265625,0.171875 z M 2.984375,-2.609375 4.9375,-5.90625 5.265625,-2.609375 Z m 0,0"
           id="id-57d6563e-cc6b-4c48-b12a-7ccb4ad0108a-4" />
      </g>
    </g>
    <g
       id="id-c930452a-d205-4e41-a6b9-06c246153d36-0">
      <g
         id="id-4f9006ce-996c-47fb-99fa-adb91fde0e13-3" />
      <g
         id="id-6c612150-f80d-4538-8604-fb33ab6ce64e-0">
        <path
           d="m 4.5,-4.296875 c 0,-0.046875 -0.03125,-0.09375 -0.09375,-0.09375 -0.109375,0 -0.515625,0.390625 -0.671875,0.6875 C 3.515625,-4.25 3.125,-4.40625 2.796875,-4.40625 c -1.171875,0 -2.390625,1.46875 -2.390625,2.921875 0,0.96875 0.578125,1.59375 1.3125,1.59375 0.421875,0 0.8125,-0.234375 1.171875,-0.59375 -0.09375,0.34375 -0.421875,1.6875 -0.453125,1.78125 -0.078125,0.28125 -0.15625,0.3125 -0.71875,0.328125 -0.125,0 -0.21875,0 -0.21875,0.203125 0,0 0,0.109375 0.125,0.109375 0.3125,0 0.671875,-0.03125 1,-0.03125 0.328125,0 0.6875,0.03125 1.03125,0.03125 0.046875,0 0.171875,0 0.171875,-0.203125 C 3.828125,1.625 3.734375,1.625 3.5625,1.625 3.09375,1.625 3.09375,1.5625 3.09375,1.46875 3.09375,1.390625 3.109375,1.328125 3.125,1.25 Z m -2.75,4.1875 c -0.609375,0 -0.640625,-0.765625 -0.640625,-0.9375 0,-0.484375 0.28125,-1.5625 0.453125,-1.984375 0.3125,-0.734375 0.828125,-1.15625 1.234375,-1.15625 0.65625,0 0.796875,0.8125 0.796875,0.875 0,0.0625 -0.546875,2.25 -0.578125,2.28125 C 2.859375,-0.75 2.296875,-0.109375 1.75,-0.109375 Z m 0,0"
           id="id-49a9980a-8ba0-446c-b611-fb578ed42e98-1" />
      </g>
    </g>
    <g
       id="id-92a9d3b4-a698-4363-8d2a-abf0310b8f6b-1">
      <g
         id="id-6580b2bd-cfc0-4d8d-aab1-fa3e89d2089c-6" />
      <g
         id="id-5f3e1ee8-bad0-4551-b842-8f60fb064829-4">
        <path
           d="m 5.359375,-5.9375 c -0.140625,0.140625 -0.46875,0.421875 -0.46875,0.59375 0,0.09375 0.09375,0.203125 0.1875,0.203125 0.09375,0 0.140625,-0.078125 0.203125,-0.140625 C 5.390625,-5.421875 5.625,-5.703125 6.0625,-5.921875 6.125,-5.96875 6.234375,-6.015625 6.234375,-6.125 6.234375,-6.234375 6.15625,-6.28125 6.09375,-6.328125 5.875,-6.484375 5.765625,-6.65625 5.6875,-6.890625 5.65625,-6.984375 5.625,-7.125 5.484375,-7.125 c -0.140625,0 -0.203125,0.140625 -0.203125,0.21875 0,0.046875 0.078125,0.359375 0.234375,0.578125 H 2.15625 c -0.15625,0 -0.34375,0 -0.34375,0.203125 0,0.1875 0.1875,0.1875 0.34375,0.1875 z m 0,0"
           id="id-7d966c5a-e083-43ca-93c9-b0366f1beda1-4" />
      </g>
      <g
         id="id-b64d895e-3c5e-48f1-8ff0-aa3826cb614a-8">
        <path
           d="M 7.0625,-2.328125 C 7.078125,-2.375 7.109375,-2.4375 7.109375,-2.46875 c 0,0 0,-0.109375 -0.125,-0.109375 -0.09375,0 -0.109375,0.0625 -0.125,0.125 C 6.203125,-0.984375 5.84375,-0.3125 4.140625,-0.3125 H 2.6875 c -0.140625,0 -0.171875,0 -0.21875,0 -0.109375,-0.015625 -0.140625,-0.03125 -0.140625,-0.109375 0,-0.03125 0,-0.046875 0.046875,-0.21875 L 3.0625,-3.375 h 0.984375 c 0.84375,0 0.84375,0.21875 0.84375,0.46875 0,0.0625 0,0.1875 -0.0625,0.484375 C 4.8125,-2.375 4.796875,-2.34375 4.796875,-2.3125 c 0,0.046875 0.03125,0.109375 0.125,0.109375 C 5,-2.203125 5.03125,-2.25 5.078125,-2.40625 l 0.5625,-2.328125 c 0,-0.0625 -0.046875,-0.109375 -0.125,-0.109375 -0.078125,0 -0.109375,0.0625 -0.125,0.171875 -0.21875,0.765625 -0.390625,1 -1.3125,1 h -0.9375 l 0.59375,-2.40625 C 3.828125,-6.4375 3.84375,-6.46875 4.28125,-6.46875 H 5.6875 c 1.203125,0 1.515625,0.28125 1.515625,1.109375 0,0.234375 0,0.25 -0.046875,0.53125 0,0.046875 -0.015625,0.125 -0.015625,0.171875 0,0.046875 0.03125,0.125 0.125,0.125 0.109375,0 0.125,-0.0625 0.140625,-0.25 L 7.609375,-6.515625 C 7.640625,-6.78125 7.59375,-6.78125 7.34375,-6.78125 H 2.296875 c -0.1875,0 -0.296875,0 -0.296875,0.203125 0,0.109375 0.09375,0.109375 0.28125,0.109375 0.375,0 0.65625,0 0.65625,0.171875 0,0.046875 0,0.0625 -0.0625,0.25 L 1.5625,-0.78125 c -0.09375,0.390625 -0.109375,0.46875 -0.90625,0.46875 -0.171875,0 -0.28125,0 -0.28125,0.1875 C 0.375,0 0.46875,0 0.65625,0 h 5.171875 c 0.234375,0 0.25,-0.015625 0.3125,-0.171875 z m 0,0"
           id="id-d82944a6-f889-45d8-8f21-8f255c7fd3cf-6" />
      </g>
      <g
         id="id-fcf18769-cb9c-46e9-bcb5-c63952af8b88-1">
        <path
           d="m 4.609375,-3.375 c -0.09375,-0.625 -0.5,-1.1875 -1.28125,-1.1875 -0.609375,0 -1.25,0.171875 -2.03125,0.9375 -0.828125,0.828125 -0.890625,1.765625 -0.890625,2.0625 0,0.625 0.4375,1.78125 1.828125,1.78125 2.375,0 3.40625,-3.34375 3.40625,-4.78125 0,-1.578125 -0.921875,-2.578125 -2.15625,-2.578125 -1.4375,0 -1.90625,1.296875 -1.90625,1.578125 0,0.140625 0.09375,0.34375 0.390625,0.34375 0.328125,0 0.53125,-0.296875 0.53125,-0.515625 0,-0.359375 -0.3125,-0.359375 -0.46875,-0.359375 0.4375,-0.734375 1.15625,-0.796875 1.4375,-0.796875 0.734375,0 1.421875,0.515625 1.421875,1.8125 0,0.390625 -0.0625,0.890625 -0.265625,1.703125 z m -2.34375,3.3125 c -1.09375,0 -1.09375,-1.03125 -1.09375,-1.125 0,-0.265625 0.25,-1.65625 0.65625,-2.265625 0.390625,-0.5625 0.890625,-0.890625 1.5,-0.890625 1.09375,0 1.109375,1.125 1.109375,1.328125 0,0.71875 -0.640625,2.953125 -2.171875,2.953125 z m 0,0"
           id="id-517aafe5-192f-4a7b-9725-4570aba674ba-4" />
      </g>
      <g
         id="id-0d9caf2f-fb48-4f33-837a-fb8ce6c6d227-0" />
      <g
         id="id-ed7ac69e-510b-4d70-ba30-45ee49f0b071-8">
        <path
           d="m 3.296875,2.390625 c 0,-0.03125 0,-0.046875 -0.171875,-0.21875 C 1.890625,0.921875 1.5625,-0.96875 1.5625,-2.5 c 0,-1.734375 0.375,-3.46875 1.609375,-4.703125 0.125,-0.125 0.125,-0.140625 0.125,-0.171875 0,-0.078125 -0.03125,-0.109375 -0.09375,-0.109375 -0.109375,0 -1,0.6875 -1.59375,1.953125 -0.5,1.09375 -0.625,2.203125 -0.625,3.03125 0,0.78125 0.109375,1.984375 0.65625,3.125 C 2.25,1.84375 3.09375,2.5 3.203125,2.5 c 0.0625,0 0.09375,-0.03125 0.09375,-0.109375 z m 0,0"
           id="id-624c7377-95d8-4e3c-ac65-53b25b95caf8-1" />
      </g>
      <g
         id="id-8ed499b9-2c87-49a6-903b-95ff150b7461-0">
        <path
           d="M 6.75,-1.609375 H 6.5 c -0.046875,0.25 -0.09375,0.484375 -0.1875,0.71875 -0.046875,0.15625 -0.078125,0.25 -0.65625,0.25 H 4.859375 C 5,-1.203125 5.296875,-1.6875 5.75,-2.34375 c 0.46875,-0.703125 0.875,-1.390625 0.875,-2.1875 0,-1.375 -1.34375,-2.5 -3.03125,-2.5 -1.703125,0 -3.03125,1.140625 -3.03125,2.5 0,0.796875 0.40625,1.484375 0.875,2.1875 0.4375,0.65625 0.75,1.140625 0.890625,1.703125 H 1.53125 C 0.953125,-0.640625 0.921875,-0.734375 0.875,-0.875 0.78125,-1.109375 0.734375,-1.359375 0.6875,-1.609375 h -0.25 L 0.765625,0 h 1.59375 c 0.21875,0 0.25,0 0.25,-0.203125 0,-0.703125 -0.3125,-1.578125 -0.53125,-2.21875 -0.21875,-0.578125 -0.5,-1.359375 -0.5,-2.109375 0,-1.59375 1.109375,-2.28125 2.015625,-2.28125 0.953125,0 2.015625,0.71875 2.015625,2.28125 0,0.75 -0.28125,1.5 -0.5625,2.3125 -0.15625,0.421875 -0.46875,1.328125 -0.46875,2.015625 C 4.578125,0 4.609375,0 4.828125,0 h 1.59375 z m 0,0"
           id="id-f7e290f0-e9a8-4df7-8764-84d828eb765d-3" />
      </g>
      <g
         id="id-93baa8bb-713f-4b20-90bb-7be0bcecbcdd-1">
        <path
           d="m 2.875,-2.5 c 0,-0.765625 -0.109375,-1.96875 -0.65625,-3.109375 -0.59375,-1.21875 -1.453125,-1.875 -1.546875,-1.875 -0.0625,0 -0.109375,0.046875 -0.109375,0.109375 0,0.03125 0,0.046875 0.1875,0.234375 0.984375,0.984375 1.546875,2.5625 1.546875,4.640625 0,1.71875 -0.359375,3.46875 -1.59375,4.71875 C 0.5625,2.34375 0.5625,2.359375 0.5625,2.390625 0.5625,2.453125 0.609375,2.5 0.671875,2.5 0.765625,2.5 1.671875,1.8125 2.25,0.546875 2.765625,-0.546875 2.875,-1.65625 2.875,-2.5 Z m 0,0"
           id="id-4ef72886-719f-47bf-8188-5c58b64e4f85-1" />
      </g>
    </g>
  </defs>
  <g
     inkscape:label="Volumen"
     inkscape:groupmode="layer"
     id="layer1"
     style="display:inline"
     transform="translate(-96.276988,-44.83444)">
    <path
       style="display:inline;fill:#e6e6e6;stroke:none;stroke-width:1.13386;stroke-dasharray:none;stroke-dashoffset:0"
       d="m 393.56813,200.09078 c -35.94542,-8.23689 -57.52809,43.3716 -38.33974,43.3716 18.43831,0 13.31887,19.14291 44.53578,22.74027 71.07786,8.19083 52.07094,-31.70947 40.59192,-50.90207 -14.74492,-26.34226 -26.52249,-10.56597 -46.78796,-15.2098 z"
       id="path16454"
       sodipodi:nodetypes="ssscs"
       inkscape:label="Umriss Füllung"
       transform="matrix(0.23898639,0,0,0.23898639,27.767685,4.739099)" />
    <path
       style="display:inline;fill:none;stroke:#b3b3b3;stroke-width:0.836868;stroke-dasharray:20.0848, 0.836868;stroke-dashoffset:0"
       d="m 349.01608,228.97114 c 0,0 0.0984,7.32426 11.30685,9.16171 11.20841,1.83744 28.84788,-1.6537 32.33902,3.67489 3.49115,5.32859 57.069,-2.37817 55.96653,-9.91169"
       id="path16153"
       transform="matrix(0.23898639,0,0,0.23898639,27.767685,4.739099)"
       sodipodi:nodetypes="cssc"
       inkscape:label="Umriss vorne horizontal" />
    <path
       style="display:inline;fill:none;stroke:#b3b3b3;stroke-width:0.836868;stroke-dasharray:20.0848, 0.836868;stroke-dashoffset:0"
       d="m 398.48085,200.86397 c -10.28969,15.06704 -4.53269,27.53042 -2.87898,42.59747 1.6537,15.06704 -4.62949,21.10963 -4.62949,21.10963"
       id="path16155"
       transform="matrix(0.23898639,0,0,0.23898639,27.767685,4.739099)"
       sodipodi:nodetypes="csc"
       inkscape:label="Umriss vorne vertikal" />
    <path
       style="display:inline;fill:none;stroke:#808080;stroke-width:0.836868;stroke-dasharray:none;stroke-dashoffset:0"
       d="m 393.56813,200.09078 c -35.94542,-8.23689 -57.52809,43.3716 -38.33974,43.3716 18.43831,0 13.31887,19.14291 44.53578,22.74027 71.07786,8.19083 52.07094,-31.70947 40.59192,-50.90207 -14.74492,-26.34226 -26.52249,-10.56597 -46.78796,-15.2098 z"
       id="path9565"
       sodipodi:nodetypes="ssscs"
       transform="matrix(0.23898639,0,0,0.23898639,27.767685,4.739099)"
       inkscape:label="Umriss" />
    <path
       style="display:inline;fill:none;stroke:#000000;stroke-width:0.377953;stroke-dasharray:0.377953, 0.377953;stroke-dashoffset:0"
       d="m 388.59323,223.99492 h 85.19808"
       id="path16436"
       transform="matrix(0.43773369,0,0,0.26458333,-67.285057,0.03296919)" />
  </g>
  <g
     inkscape:groupmode="layer"
     id="layer5"
     inkscape:label="Einheitskreis"
     style="display:inline"
     transform="translate(-96.276988,-44.83444)">
    <circle
       style="display:inline;fill:none;stroke:#800080;stroke-width:0.552574;stroke-dasharray:none;stroke-dashoffset:0"
       id="path16211"
       cx="391.54099"
       cy="225.14781"
       r="109.9887"
       transform="matrix(0.37740168,0,0,0.37740168,-45.007424,-25.705841)"
       inkscape:label="Einheitskreis (lila)" />
    <path
       style="display:inline;fill:none;stroke:#ff00ff;stroke-width:0.389201;stroke-dasharray:none;stroke-dashoffset:0"
       d="m 461.55649,218.70658 -72.96326,5.28834"
       id="path16768"
       transform="matrix(0.51387335,0,0,0.51387335,-96.972316,-55.839699)"
       inkscape:label="lila Linie 2" />
    <path
       style="display:inline;fill:none;stroke:#ff00ff;stroke-width:0.389201;stroke-dasharray:none;stroke-dashoffset:0"
       d="m 461.55649,229.28326 -72.96326,-5.28834"
       id="path16770"
       transform="matrix(0.51387335,0,0,0.51387335,-96.972316,-55.839699)"
       inkscape:label="lila Linie" />
    <ellipse
       style="display:inline;fill:#ff00ff;fill-opacity:0.349153;stroke:#ff00ff;stroke-width:0.389201;stroke-dasharray:none;stroke-dashoffset:0"
       id="path16702"
       cx="458.54239"
       cy="223.85158"
       transform="matrix(0.51387335,0,0,0.51387335,-95.42345,-55.76604)"
       rx="1.8958606"
       ry="5.2883406"
       inkscape:label="Ausschnitt Einheitskreis (pink)" />
    <ellipse
       style="display:inline;fill:#008000;fill-opacity:0.257627;stroke:#008000;stroke-width:0.545493;stroke-dasharray:none;stroke-dashoffset:0"
       id="ellipse19004"
       cx="458.54239"
       cy="223.85158"
       transform="matrix(0.39924783,-0.26960387,0.25499123,0.42212733,-107.63718,88.465568)"
       rx="1.8958606"
       ry="4.8871222"
       inkscape:label="Ausschnitt Volumen (grün)" />
    <ellipse
       style="display:inline;fill:#008000;fill-opacity:0.257627;stroke:#008000;stroke-width:0.814555;stroke-dasharray:none;stroke-dashoffset:0"
       id="ellipse17153"
       cx="458.54239"
       cy="223.85158"
       transform="matrix(0.20574826,0.13627538,-0.16343896,0.1847585,57.85609,-44.632483)"
       rx="1.8958606"
       ry="4.8871222"
       inkscape:label="Ausschnitt Volumen (grün)" />
  </g>
  <path
     style="display:inline;fill:#ff0000;stroke:#008000;stroke-width:0.159671;stroke-dasharray:none;stroke-dashoffset:0;marker-start:url(#marker5961)"
     d="m 139.72652,78.860515 2.69154,-3.534763"
     id="path17211"
     transform="matrix(0,1.252575,-1.252575,0,113.71346,-163.91938)" />
  <g
     inkscape:groupmode="layer"
     id="layer2"
     inkscape:label="Schrift"
     transform="translate(-96.277, -44.8344)">
    <g
       transform="matrix(0.352778,0,0,0.352778,99.769797,57.591324)"
       ns2:version="1.8.2"
       ns2:texconverter="pdflatex"
       ns2:pdfconverter="inkscape"
       ns2:text="$q$"
       ns2:preamble="/Users/hendrik/Library/Application Support/org.inkscape.Inkscape/config/inkscape/extensions/textext/default_packages.tex"
       ns2:scale="1.0"
       ns2:alignment="middle center"
       ns2:stroke-to-path="0"
       ns2:inkscapeversion="1.2.2"
       ns2:jacobian_sqrt="0.352778"
       id="g2685"
       style="fill:#ff0000">
      <defs
         id="id-0ad90293-bc41-4284-8bae-07d95dfbfc71">
        <g
           id="id-c930452a-d205-4e41-a6b9-06c246153d36">
          <g
             id="id-4f9006ce-996c-47fb-99fa-adb91fde0e13" />
          <g
             id="id-6c612150-f80d-4538-8604-fb33ab6ce64e">
            <path
               d="m 4.5,-4.296875 c 0,-0.046875 -0.03125,-0.09375 -0.09375,-0.09375 -0.109375,0 -0.515625,0.390625 -0.671875,0.6875 C 3.515625,-4.25 3.125,-4.40625 2.796875,-4.40625 c -1.171875,0 -2.390625,1.46875 -2.390625,2.921875 0,0.96875 0.578125,1.59375 1.3125,1.59375 0.421875,0 0.8125,-0.234375 1.171875,-0.59375 -0.09375,0.34375 -0.421875,1.6875 -0.453125,1.78125 -0.078125,0.28125 -0.15625,0.3125 -0.71875,0.328125 -0.125,0 -0.21875,0 -0.21875,0.203125 0,0 0,0.109375 0.125,0.109375 0.3125,0 0.671875,-0.03125 1,-0.03125 0.328125,0 0.6875,0.03125 1.03125,0.03125 0.046875,0 0.171875,0 0.171875,-0.203125 C 3.828125,1.625 3.734375,1.625 3.5625,1.625 3.09375,1.625 3.09375,1.5625 3.09375,1.46875 3.09375,1.390625 3.109375,1.328125 3.125,1.25 Z m -2.75,4.1875 c -0.609375,0 -0.640625,-0.765625 -0.640625,-0.9375 0,-0.484375 0.28125,-1.5625 0.453125,-1.984375 0.3125,-0.734375 0.828125,-1.15625 1.234375,-1.15625 0.65625,0 0.796875,0.8125 0.796875,0.875 0,0.0625 -0.546875,2.25 -0.578125,2.28125 C 2.859375,-0.75 2.296875,-0.109375 1.75,-0.109375 Z m 0,0"
               id="id-49a9980a-8ba0-446c-b611-fb578ed42e98" />
          </g>
        </g>
      </defs>
      <g
         fill="#000000"
         fill-opacity="1"
         id="id-6cc1d0f7-93af-4375-b531-0520217a0b80"
         transform="translate(-149.118,-130.359)"
         style="fill:#ff0000">
        <g
           transform="translate(148.712,134.765)"
           id="g2682"
           style="fill:#ff0000">
          <path
             d="m 4.5,-4.296875 c 0,-0.046875 -0.03125,-0.09375 -0.09375,-0.09375 -0.109375,0 -0.515625,0.390625 -0.671875,0.6875 C 3.515625,-4.25 3.125,-4.40625 2.796875,-4.40625 c -1.171875,0 -2.390625,1.46875 -2.390625,2.921875 0,0.96875 0.578125,1.59375 1.3125,1.59375 0.421875,0 0.8125,-0.234375 1.171875,-0.59375 -0.09375,0.34375 -0.421875,1.6875 -0.453125,1.78125 -0.078125,0.28125 -0.15625,0.3125 -0.71875,0.328125 -0.125,0 -0.21875,0 -0.21875,0.203125 0,0 0,0.109375 0.125,0.109375 0.3125,0 0.671875,-0.03125 1,-0.03125 0.328125,0 0.6875,0.03125 1.03125,0.03125 0.046875,0 0.171875,0 0.171875,-0.203125 C 3.828125,1.625 3.734375,1.625 3.5625,1.625 3.09375,1.625 3.09375,1.5625 3.09375,1.46875 3.09375,1.390625 3.109375,1.328125 3.125,1.25 Z m -2.75,4.1875 c -0.609375,0 -0.640625,-0.765625 -0.640625,-0.9375 0,-0.484375 0.28125,-1.5625 0.453125,-1.984375 0.3125,-0.734375 0.828125,-1.15625 1.234375,-1.15625 0.65625,0 0.796875,0.8125 0.796875,0.875 0,0.0625 -0.546875,2.25 -0.578125,2.28125 C 2.859375,-0.75 2.296875,-0.109375 1.75,-0.109375 Z m 0,0"
             id="id-65411593-79f8-42e8-a579-7d07e6b28900"
             style="fill:#ff0000" />
        </g>
      </g>
    </g>
    <g
       transform="matrix(0.352778,0,0,0.352778,117.17958,53.782758)"
       ns2:version="1.8.2"
       ns2:texconverter="pdflatex"
       ns2:pdfconverter="inkscape"
       ns2:text="$\\vec{E}_1$"
       ns2:preamble="/Users/hendrik/Library/Application Support/org.inkscape.Inkscape/config/inkscape/extensions/textext/default_packages.tex"
       ns2:scale="1.0"
       ns2:alignment="middle center"
       ns2:stroke-to-path="0"
       ns2:inkscapeversion="1.2.2"
       ns2:jacobian_sqrt="0.352778"
       id="g22482"
       style="fill:#ff0000">
      <defs
         id="id-2394905b-f37e-49e0-8e4c-b68c44c1d695">
        <g
           id="id-26afc9e2-3ec8-44b1-80f7-3666822077d6">
          <g
             id="id-b4a8293f-c765-448b-8bb0-f3b419877548" />
          <g
             id="id-75191e4f-d9b6-42ec-bdd8-469c82ef1f2e">
            <path
               d="m 5.359375,-5.9375 c -0.140625,0.140625 -0.46875,0.421875 -0.46875,0.59375 0,0.09375 0.09375,0.203125 0.1875,0.203125 0.09375,0 0.140625,-0.078125 0.203125,-0.140625 C 5.390625,-5.421875 5.625,-5.703125 6.0625,-5.921875 6.125,-5.96875 6.234375,-6.015625 6.234375,-6.125 6.234375,-6.234375 6.15625,-6.28125 6.09375,-6.328125 5.875,-6.484375 5.765625,-6.65625 5.6875,-6.890625 5.65625,-6.984375 5.625,-7.125 5.484375,-7.125 c -0.140625,0 -0.203125,0.140625 -0.203125,0.21875 0,0.046875 0.078125,0.359375 0.234375,0.578125 H 2.15625 c -0.15625,0 -0.34375,0 -0.34375,0.203125 0,0.1875 0.1875,0.1875 0.34375,0.1875 z m 0,0"
               id="id-b94989a8-ff85-402c-b854-04543a4fb4a5" />
          </g>
          <g
             id="id-388e6b06-cb85-49ca-beb1-b4d21ba652de">
            <path
               d="M 7.0625,-2.328125 C 7.078125,-2.375 7.109375,-2.4375 7.109375,-2.46875 c 0,0 0,-0.109375 -0.125,-0.109375 -0.09375,0 -0.109375,0.0625 -0.125,0.125 C 6.203125,-0.984375 5.84375,-0.3125 4.140625,-0.3125 H 2.6875 c -0.140625,0 -0.171875,0 -0.21875,0 -0.109375,-0.015625 -0.140625,-0.03125 -0.140625,-0.109375 0,-0.03125 0,-0.046875 0.046875,-0.21875 L 3.0625,-3.375 h 0.984375 c 0.84375,0 0.84375,0.21875 0.84375,0.46875 0,0.0625 0,0.1875 -0.0625,0.484375 C 4.8125,-2.375 4.796875,-2.34375 4.796875,-2.3125 c 0,0.046875 0.03125,0.109375 0.125,0.109375 C 5,-2.203125 5.03125,-2.25 5.078125,-2.40625 l 0.5625,-2.328125 c 0,-0.0625 -0.046875,-0.109375 -0.125,-0.109375 -0.078125,0 -0.109375,0.0625 -0.125,0.171875 -0.21875,0.765625 -0.390625,1 -1.3125,1 h -0.9375 l 0.59375,-2.40625 C 3.828125,-6.4375 3.84375,-6.46875 4.28125,-6.46875 H 5.6875 c 1.203125,0 1.515625,0.28125 1.515625,1.109375 0,0.234375 0,0.25 -0.046875,0.53125 0,0.046875 -0.015625,0.125 -0.015625,0.171875 0,0.046875 0.03125,0.125 0.125,0.125 0.109375,0 0.125,-0.0625 0.140625,-0.25 L 7.609375,-6.515625 C 7.640625,-6.78125 7.59375,-6.78125 7.34375,-6.78125 H 2.296875 c -0.1875,0 -0.296875,0 -0.296875,0.203125 0,0.109375 0.09375,0.109375 0.28125,0.109375 0.375,0 0.65625,0 0.65625,0.171875 0,0.046875 0,0.0625 -0.0625,0.25 L 1.5625,-0.78125 c -0.09375,0.390625 -0.109375,0.46875 -0.90625,0.46875 -0.171875,0 -0.28125,0 -0.28125,0.1875 C 0.375,0 0.46875,0 0.65625,0 h 5.171875 c 0.234375,0 0.25,-0.015625 0.3125,-0.171875 z m 0,0"
               id="id-d589b5e8-7a52-4ce9-9828-ef133d15c3a5" />
          </g>
          <g
             id="id-420393ad-1fe9-4a44-94ab-dae390a24e81" />
          <g
             id="id-bb620c3a-0d0a-42b5-9f5a-39f1319b9fa2">
            <path
               d="m 2.328125,-4.4375 c 0,-0.1875 0,-0.1875 -0.203125,-0.1875 -0.453125,0.4375 -1.078125,0.4375 -1.359375,0.4375 v 0.25 c 0.15625,0 0.625,0 1,-0.1875 v 3.546875 c 0,0.234375 0,0.328125 -0.6875,0.328125 H 0.8125 V 0 c 0.125,0 0.984375,-0.03125 1.234375,-0.03125 0.21875,0 1.09375,0.03125 1.25,0.03125 V -0.25 H 3.03125 c -0.703125,0 -0.703125,-0.09375 -0.703125,-0.328125 z m 0,0"
               id="id-4c61a7c8-e878-4905-8bce-4e46bee67f8c" />
          </g>
        </g>
      </defs>
      <g
         fill="#000000"
         fill-opacity="1"
         id="id-e74a3427-e83e-43cd-9f03-9faf9cd35778"
         transform="translate(-149.087,-125.121)"
         style="fill:#ff0000">
        <g
           transform="translate(150.25,132.246)"
           id="g22471"
           style="fill:#ff0000">
          <path
             d="m 5.359375,-5.9375 c -0.140625,0.140625 -0.46875,0.421875 -0.46875,0.59375 0,0.09375 0.09375,0.203125 0.1875,0.203125 0.09375,0 0.140625,-0.078125 0.203125,-0.140625 C 5.390625,-5.421875 5.625,-5.703125 6.0625,-5.921875 6.125,-5.96875 6.234375,-6.015625 6.234375,-6.125 6.234375,-6.234375 6.15625,-6.28125 6.09375,-6.328125 5.875,-6.484375 5.765625,-6.65625 5.6875,-6.890625 5.65625,-6.984375 5.625,-7.125 5.484375,-7.125 c -0.140625,0 -0.203125,0.140625 -0.203125,0.21875 0,0.046875 0.078125,0.359375 0.234375,0.578125 H 2.15625 c -0.15625,0 -0.34375,0 -0.34375,0.203125 0,0.1875 0.1875,0.1875 0.34375,0.1875 z m 0,0"
             id="id-d93f7ae6-28bf-43a5-9606-4b633ab040a6"
             style="fill:#ff0000" />
        </g>
      </g>
      <g
         fill="#000000"
         fill-opacity="1"
         id="id-efaa8fee-4f04-4602-ab36-a55941daca0d"
         transform="translate(-149.087,-125.121)"
         style="fill:#ff0000">
        <g
           transform="translate(148.712,134.765)"
           id="g22475"
           style="fill:#ff0000">
          <path
             d="M 7.0625,-2.328125 C 7.078125,-2.375 7.109375,-2.4375 7.109375,-2.46875 c 0,0 0,-0.109375 -0.125,-0.109375 -0.09375,0 -0.109375,0.0625 -0.125,0.125 C 6.203125,-0.984375 5.84375,-0.3125 4.140625,-0.3125 H 2.6875 c -0.140625,0 -0.171875,0 -0.21875,0 -0.109375,-0.015625 -0.140625,-0.03125 -0.140625,-0.109375 0,-0.03125 0,-0.046875 0.046875,-0.21875 L 3.0625,-3.375 h 0.984375 c 0.84375,0 0.84375,0.21875 0.84375,0.46875 0,0.0625 0,0.1875 -0.0625,0.484375 C 4.8125,-2.375 4.796875,-2.34375 4.796875,-2.3125 c 0,0.046875 0.03125,0.109375 0.125,0.109375 C 5,-2.203125 5.03125,-2.25 5.078125,-2.40625 l 0.5625,-2.328125 c 0,-0.0625 -0.046875,-0.109375 -0.125,-0.109375 -0.078125,0 -0.109375,0.0625 -0.125,0.171875 -0.21875,0.765625 -0.390625,1 -1.3125,1 h -0.9375 l 0.59375,-2.40625 C 3.828125,-6.4375 3.84375,-6.46875 4.28125,-6.46875 H 5.6875 c 1.203125,0 1.515625,0.28125 1.515625,1.109375 0,0.234375 0,0.25 -0.046875,0.53125 0,0.046875 -0.015625,0.125 -0.015625,0.171875 0,0.046875 0.03125,0.125 0.125,0.125 0.109375,0 0.125,-0.0625 0.140625,-0.25 L 7.609375,-6.515625 C 7.640625,-6.78125 7.59375,-6.78125 7.34375,-6.78125 H 2.296875 c -0.1875,0 -0.296875,0 -0.296875,0.203125 0,0.109375 0.09375,0.109375 0.28125,0.109375 0.375,0 0.65625,0 0.65625,0.171875 0,0.046875 0,0.0625 -0.0625,0.25 L 1.5625,-0.78125 c -0.09375,0.390625 -0.109375,0.46875 -0.90625,0.46875 -0.171875,0 -0.28125,0 -0.28125,0.1875 C 0.375,0 0.46875,0 0.65625,0 h 5.171875 c 0.234375,0 0.25,-0.015625 0.3125,-0.171875 z m 0,0"
             id="id-c02aef1f-687b-4a73-9b53-6f8d4bd856ef"
             style="fill:#ff0000" />
        </g>
      </g>
      <g
         fill="#000000"
         fill-opacity="1"
         id="id-d4ee5d4d-bd2d-47fa-a075-971c37615a13"
         transform="translate(-149.087,-125.121)"
         style="fill:#ff0000">
        <g
           transform="translate(156.067,136.259)"
           id="g22479"
           style="fill:#ff0000">
          <path
             d="m 2.328125,-4.4375 c 0,-0.1875 0,-0.1875 -0.203125,-0.1875 -0.453125,0.4375 -1.078125,0.4375 -1.359375,0.4375 v 0.25 c 0.15625,0 0.625,0 1,-0.1875 v 3.546875 c 0,0.234375 0,0.328125 -0.6875,0.328125 H 0.8125 V 0 c 0.125,0 0.984375,-0.03125 1.234375,-0.03125 0.21875,0 1.09375,0.03125 1.25,0.03125 V -0.25 H 3.03125 c -0.703125,0 -0.703125,-0.09375 -0.703125,-0.328125 z m 0,0"
             id="id-ded338dc-bea5-4c3a-ac05-88ecbc9dea26"
             style="fill:#ff0000" />
        </g>
      </g>
    </g>
    <g
       transform="matrix(0.352778,0,0,0.352778,134.87563,59.811766)"
       ns2:version="1.8.2"
       ns2:texconverter="pdflatex"
       ns2:pdfconverter="inkscape"
       ns2:text="$\\vec{E}_2$"
       ns2:preamble="/Users/hendrik/Library/Application Support/org.inkscape.Inkscape/config/inkscape/extensions/textext/default_packages.tex"
       ns2:scale="1.0"
       ns2:alignment="middle center"
       ns2:stroke-to-path="0"
       ns2:inkscapeversion="1.2.2"
       ns2:jacobian_sqrt="0.352778"
       id="g22906"
       style="fill:#800000">
      <defs
         id="id-db850fb5-706c-46b7-a108-ca9d4b970006">
        <g
           id="id-c5ba1ce1-a138-4192-b8a9-f78f3cfcaa77">
          <g
             id="id-8ee4243f-8b95-405c-a904-61f22e4c2c58" />
          <g
             id="id-92991ab3-c0f5-4bd2-a904-28cbf09e4cea">
            <path
               d="m 5.359375,-5.9375 c -0.140625,0.140625 -0.46875,0.421875 -0.46875,0.59375 0,0.09375 0.09375,0.203125 0.1875,0.203125 0.09375,0 0.140625,-0.078125 0.203125,-0.140625 C 5.390625,-5.421875 5.625,-5.703125 6.0625,-5.921875 6.125,-5.96875 6.234375,-6.015625 6.234375,-6.125 6.234375,-6.234375 6.15625,-6.28125 6.09375,-6.328125 5.875,-6.484375 5.765625,-6.65625 5.6875,-6.890625 5.65625,-6.984375 5.625,-7.125 5.484375,-7.125 c -0.140625,0 -0.203125,0.140625 -0.203125,0.21875 0,0.046875 0.078125,0.359375 0.234375,0.578125 H 2.15625 c -0.15625,0 -0.34375,0 -0.34375,0.203125 0,0.1875 0.1875,0.1875 0.34375,0.1875 z m 0,0"
               id="id-4758211b-092e-4806-886b-aa5d5b58c4bb" />
          </g>
          <g
             id="id-dcc5bcb1-cf49-4282-b7c9-e42ad8e031a9">
            <path
               d="M 7.0625,-2.328125 C 7.078125,-2.375 7.109375,-2.4375 7.109375,-2.46875 c 0,0 0,-0.109375 -0.125,-0.109375 -0.09375,0 -0.109375,0.0625 -0.125,0.125 C 6.203125,-0.984375 5.84375,-0.3125 4.140625,-0.3125 H 2.6875 c -0.140625,0 -0.171875,0 -0.21875,0 -0.109375,-0.015625 -0.140625,-0.03125 -0.140625,-0.109375 0,-0.03125 0,-0.046875 0.046875,-0.21875 L 3.0625,-3.375 h 0.984375 c 0.84375,0 0.84375,0.21875 0.84375,0.46875 0,0.0625 0,0.1875 -0.0625,0.484375 C 4.8125,-2.375 4.796875,-2.34375 4.796875,-2.3125 c 0,0.046875 0.03125,0.109375 0.125,0.109375 C 5,-2.203125 5.03125,-2.25 5.078125,-2.40625 l 0.5625,-2.328125 c 0,-0.0625 -0.046875,-0.109375 -0.125,-0.109375 -0.078125,0 -0.109375,0.0625 -0.125,0.171875 -0.21875,0.765625 -0.390625,1 -1.3125,1 h -0.9375 l 0.59375,-2.40625 C 3.828125,-6.4375 3.84375,-6.46875 4.28125,-6.46875 H 5.6875 c 1.203125,0 1.515625,0.28125 1.515625,1.109375 0,0.234375 0,0.25 -0.046875,0.53125 0,0.046875 -0.015625,0.125 -0.015625,0.171875 0,0.046875 0.03125,0.125 0.125,0.125 0.109375,0 0.125,-0.0625 0.140625,-0.25 L 7.609375,-6.515625 C 7.640625,-6.78125 7.59375,-6.78125 7.34375,-6.78125 H 2.296875 c -0.1875,0 -0.296875,0 -0.296875,0.203125 0,0.109375 0.09375,0.109375 0.28125,0.109375 0.375,0 0.65625,0 0.65625,0.171875 0,0.046875 0,0.0625 -0.0625,0.25 L 1.5625,-0.78125 c -0.09375,0.390625 -0.109375,0.46875 -0.90625,0.46875 -0.171875,0 -0.28125,0 -0.28125,0.1875 C 0.375,0 0.46875,0 0.65625,0 h 5.171875 c 0.234375,0 0.25,-0.015625 0.3125,-0.171875 z m 0,0"
               id="id-04ece14a-b552-42af-8352-a9e0a45b2c45" />
          </g>
          <g
             id="id-ef28bfff-2bd8-4322-994a-0abbd2ce6bbc" />
          <g
             id="id-db46a41d-ac83-48f1-8905-de10072e6e47">
            <path
               d="M 3.515625,-1.265625 H 3.28125 c -0.015625,0.15625 -0.09375,0.5625 -0.1875,0.625 C 3.046875,-0.59375 2.515625,-0.59375 2.40625,-0.59375 H 1.125 c 0.734375,-0.640625 0.984375,-0.84375 1.390625,-1.171875 0.515625,-0.40625 1,-0.84375 1,-1.5 0,-0.84375 -0.734375,-1.359375 -1.625,-1.359375 -0.859375,0 -1.453125,0.609375 -1.453125,1.25 0,0.34375 0.296875,0.390625 0.375,0.390625 0.15625,0 0.359375,-0.125 0.359375,-0.375 0,-0.125 -0.046875,-0.375 -0.40625,-0.375 C 0.984375,-4.21875 1.453125,-4.375 1.78125,-4.375 c 0.703125,0 1.0625,0.546875 1.0625,1.109375 0,0.609375 -0.4375,1.078125 -0.65625,1.328125 L 0.515625,-0.265625 C 0.4375,-0.203125 0.4375,-0.1875 0.4375,0 h 2.875 z m 0,0"
               id="id-4bf976d3-3355-44e4-8e15-75ea0a1544dd" />
          </g>
        </g>
      </defs>
      <g
         fill="#000000"
         fill-opacity="1"
         id="id-3128aa2a-e0eb-43c0-a5a5-bf07efbb31cb"
         transform="translate(-149.087,-125.121)"
         style="fill:#800000">
        <g
           transform="translate(150.25,132.246)"
           id="g22895"
           style="fill:#800000">
          <path
             d="m 5.359375,-5.9375 c -0.140625,0.140625 -0.46875,0.421875 -0.46875,0.59375 0,0.09375 0.09375,0.203125 0.1875,0.203125 0.09375,0 0.140625,-0.078125 0.203125,-0.140625 C 5.390625,-5.421875 5.625,-5.703125 6.0625,-5.921875 6.125,-5.96875 6.234375,-6.015625 6.234375,-6.125 6.234375,-6.234375 6.15625,-6.28125 6.09375,-6.328125 5.875,-6.484375 5.765625,-6.65625 5.6875,-6.890625 5.65625,-6.984375 5.625,-7.125 5.484375,-7.125 c -0.140625,0 -0.203125,0.140625 -0.203125,0.21875 0,0.046875 0.078125,0.359375 0.234375,0.578125 H 2.15625 c -0.15625,0 -0.34375,0 -0.34375,0.203125 0,0.1875 0.1875,0.1875 0.34375,0.1875 z m 0,0"
             id="id-e7b6ccc6-b770-448b-9383-7c83a4b306b6"
             style="fill:#800000" />
        </g>
      </g>
      <g
         fill="#000000"
         fill-opacity="1"
         id="id-43fe86a6-c428-453f-9e89-6cc325e838a0"
         transform="translate(-149.087,-125.121)"
         style="fill:#800000">
        <g
           transform="translate(148.712,134.765)"
           id="g22899"
           style="fill:#800000">
          <path
             d="M 7.0625,-2.328125 C 7.078125,-2.375 7.109375,-2.4375 7.109375,-2.46875 c 0,0 0,-0.109375 -0.125,-0.109375 -0.09375,0 -0.109375,0.0625 -0.125,0.125 C 6.203125,-0.984375 5.84375,-0.3125 4.140625,-0.3125 H 2.6875 c -0.140625,0 -0.171875,0 -0.21875,0 -0.109375,-0.015625 -0.140625,-0.03125 -0.140625,-0.109375 0,-0.03125 0,-0.046875 0.046875,-0.21875 L 3.0625,-3.375 h 0.984375 c 0.84375,0 0.84375,0.21875 0.84375,0.46875 0,0.0625 0,0.1875 -0.0625,0.484375 C 4.8125,-2.375 4.796875,-2.34375 4.796875,-2.3125 c 0,0.046875 0.03125,0.109375 0.125,0.109375 C 5,-2.203125 5.03125,-2.25 5.078125,-2.40625 l 0.5625,-2.328125 c 0,-0.0625 -0.046875,-0.109375 -0.125,-0.109375 -0.078125,0 -0.109375,0.0625 -0.125,0.171875 -0.21875,0.765625 -0.390625,1 -1.3125,1 h -0.9375 l 0.59375,-2.40625 C 3.828125,-6.4375 3.84375,-6.46875 4.28125,-6.46875 H 5.6875 c 1.203125,0 1.515625,0.28125 1.515625,1.109375 0,0.234375 0,0.25 -0.046875,0.53125 0,0.046875 -0.015625,0.125 -0.015625,0.171875 0,0.046875 0.03125,0.125 0.125,0.125 0.109375,0 0.125,-0.0625 0.140625,-0.25 L 7.609375,-6.515625 C 7.640625,-6.78125 7.59375,-6.78125 7.34375,-6.78125 H 2.296875 c -0.1875,0 -0.296875,0 -0.296875,0.203125 0,0.109375 0.09375,0.109375 0.28125,0.109375 0.375,0 0.65625,0 0.65625,0.171875 0,0.046875 0,0.0625 -0.0625,0.25 L 1.5625,-0.78125 c -0.09375,0.390625 -0.109375,0.46875 -0.90625,0.46875 -0.171875,0 -0.28125,0 -0.28125,0.1875 C 0.375,0 0.46875,0 0.65625,0 h 5.171875 c 0.234375,0 0.25,-0.015625 0.3125,-0.171875 z m 0,0"
             id="id-4117fe4e-56ca-45cf-92ff-70d08d508327"
             style="fill:#800000" />
        </g>
      </g>
      <g
         fill="#000000"
         fill-opacity="1"
         id="id-c002f1df-4cdd-4fc0-a1d2-463658fc8aa7"
         transform="translate(-149.087,-125.121)"
         style="fill:#800000">
        <g
           transform="translate(156.067,136.259)"
           id="g22903"
           style="fill:#800000">
          <path
             d="M 3.515625,-1.265625 H 3.28125 c -0.015625,0.15625 -0.09375,0.5625 -0.1875,0.625 C 3.046875,-0.59375 2.515625,-0.59375 2.40625,-0.59375 H 1.125 c 0.734375,-0.640625 0.984375,-0.84375 1.390625,-1.171875 0.515625,-0.40625 1,-0.84375 1,-1.5 0,-0.84375 -0.734375,-1.359375 -1.625,-1.359375 -0.859375,0 -1.453125,0.609375 -1.453125,1.25 0,0.34375 0.296875,0.390625 0.375,0.390625 0.15625,0 0.359375,-0.125 0.359375,-0.375 0,-0.125 -0.046875,-0.375 -0.40625,-0.375 C 0.984375,-4.21875 1.453125,-4.375 1.78125,-4.375 c 0.703125,0 1.0625,0.546875 1.0625,1.109375 0,0.609375 -0.4375,1.078125 -0.65625,1.328125 L 0.515625,-0.265625 C 0.4375,-0.203125 0.4375,-0.1875 0.4375,0 h 2.875 z m 0,0"
             id="id-825befc9-5a0d-4719-81e7-4eaa582bcd0e"
             style="fill:#800000" />
        </g>
      </g>
    </g>
    <g
       transform="matrix(0.352778,0,0,0.352778,145.33078,58.16118)"
       ns2:version="1.8.2"
       ns2:texconverter="pdflatex"
       ns2:pdfconverter="inkscape"
       ns2:text="$\\text{d}\\Omega$"
       ns2:preamble="/Users/hendrik/Library/Application Support/org.inkscape.Inkscape/config/inkscape/extensions/textext/default_packages.tex"
       ns2:scale="1.0"
       ns2:alignment="middle center"
       ns2:stroke-to-path="0"
       ns2:inkscapeversion="1.2.2"
       ns2:jacobian_sqrt="0.352778"
       id="g2311"
       style="fill:#ff00ff">
      <defs
         id="id-3b89bd2b-f5a3-45d0-9b38-00785d2ad1d7">
        <g
           id="id-16098f60-597a-4953-ae76-e3007e92c072">
          <g
             id="id-81b97b1d-56fb-41e8-a1ac-f92e5aaa2a0a" />
          <g
             id="id-13c41c40-b3f8-4446-9a9a-76995af96aa4">
            <path
               d="m 3.78125,-0.546875 v 0.65625 L 5.25,0 v -0.3125 c -0.6875,0 -0.78125,-0.0625 -0.78125,-0.5625 V -6.921875 L 3.046875,-6.8125 V -6.5 c 0.6875,0 0.765625,0.0625 0.765625,0.5625 v 2.15625 c -0.28125,-0.359375 -0.71875,-0.625 -1.25,-0.625 -1.171875,0 -2.21875,0.984375 -2.21875,2.265625 0,1.265625 0.96875,2.25 2.109375,2.25 0.640625,0 1.078125,-0.34375 1.328125,-0.65625 z m 0,-2.671875 v 2.046875 c 0,0.171875 0,0.1875 -0.109375,0.359375 C 3.375,-0.328125 2.9375,-0.109375 2.5,-0.109375 2.046875,-0.109375 1.6875,-0.375 1.453125,-0.75 1.203125,-1.15625 1.171875,-1.71875 1.171875,-2.140625 1.171875,-2.5 1.1875,-3.09375 1.46875,-3.546875 1.6875,-3.859375 2.0625,-4.1875 2.609375,-4.1875 c 0.34375,0 0.765625,0.15625 1.0625,0.59375 0.109375,0.171875 0.109375,0.1875 0.109375,0.375 z m 0,0"
               id="id-a7e76da4-ed1f-4875-b1ee-4b5970a1c06a" />
          </g>
          <g
             id="id-a50b87f3-2c6a-4405-90f9-52f9afa55798">
            <path
               d="M 6.75,-1.609375 H 6.5 c -0.046875,0.25 -0.09375,0.484375 -0.1875,0.71875 -0.046875,0.15625 -0.078125,0.25 -0.65625,0.25 H 4.859375 C 5,-1.203125 5.296875,-1.6875 5.75,-2.34375 c 0.46875,-0.703125 0.875,-1.390625 0.875,-2.1875 0,-1.375 -1.34375,-2.5 -3.03125,-2.5 -1.703125,0 -3.03125,1.140625 -3.03125,2.5 0,0.796875 0.40625,1.484375 0.875,2.1875 0.4375,0.65625 0.75,1.140625 0.890625,1.703125 H 1.53125 C 0.953125,-0.640625 0.921875,-0.734375 0.875,-0.875 0.78125,-1.109375 0.734375,-1.359375 0.6875,-1.609375 h -0.25 L 0.765625,0 h 1.59375 c 0.21875,0 0.25,0 0.25,-0.203125 0,-0.703125 -0.3125,-1.578125 -0.53125,-2.21875 -0.21875,-0.578125 -0.5,-1.359375 -0.5,-2.109375 0,-1.59375 1.109375,-2.28125 2.015625,-2.28125 0.953125,0 2.015625,0.71875 2.015625,2.28125 0,0.75 -0.28125,1.5 -0.5625,2.3125 -0.15625,0.421875 -0.46875,1.328125 -0.46875,2.015625 C 4.578125,0 4.609375,0 4.828125,0 h 1.59375 z m 0,0"
               id="id-092c5507-b445-4bc2-b1cc-51eff1fc15c7" />
          </g>
        </g>
      </defs>
      <g
         fill="#000000"
         fill-opacity="1"
         id="id-d8f42541-3214-4e6a-87de-68e42cce205f"
         transform="translate(-149.056,-127.734)"
         style="fill:#ff00ff">
        <g
           transform="translate(148.712,134.765)"
           id="g2305"
           style="fill:#ff00ff">
          <path
             d="m 3.78125,-0.546875 v 0.65625 L 5.25,0 v -0.3125 c -0.6875,0 -0.78125,-0.0625 -0.78125,-0.5625 V -6.921875 L 3.046875,-6.8125 V -6.5 c 0.6875,0 0.765625,0.0625 0.765625,0.5625 v 2.15625 c -0.28125,-0.359375 -0.71875,-0.625 -1.25,-0.625 -1.171875,0 -2.21875,0.984375 -2.21875,2.265625 0,1.265625 0.96875,2.25 2.109375,2.25 0.640625,0 1.078125,-0.34375 1.328125,-0.65625 z m 0,-2.671875 v 2.046875 c 0,0.171875 0,0.1875 -0.109375,0.359375 C 3.375,-0.328125 2.9375,-0.109375 2.5,-0.109375 2.046875,-0.109375 1.6875,-0.375 1.453125,-0.75 1.203125,-1.15625 1.171875,-1.71875 1.171875,-2.140625 1.171875,-2.5 1.1875,-3.09375 1.46875,-3.546875 1.6875,-3.859375 2.0625,-4.1875 2.609375,-4.1875 c 0.34375,0 0.765625,0.15625 1.0625,0.59375 0.109375,0.171875 0.109375,0.1875 0.109375,0.375 z m 0,0"
             id="id-5cf42a55-ac00-4c86-a97f-a61156e7beb2"
             style="fill:#ff00ff" />
        </g>
        <g
           transform="translate(154.247,134.765)"
           id="g2308"
           style="fill:#ff00ff">
          <path
             d="M 6.75,-1.609375 H 6.5 c -0.046875,0.25 -0.09375,0.484375 -0.1875,0.71875 -0.046875,0.15625 -0.078125,0.25 -0.65625,0.25 H 4.859375 C 5,-1.203125 5.296875,-1.6875 5.75,-2.34375 c 0.46875,-0.703125 0.875,-1.390625 0.875,-2.1875 0,-1.375 -1.34375,-2.5 -3.03125,-2.5 -1.703125,0 -3.03125,1.140625 -3.03125,2.5 0,0.796875 0.40625,1.484375 0.875,2.1875 0.4375,0.65625 0.75,1.140625 0.890625,1.703125 H 1.53125 C 0.953125,-0.640625 0.921875,-0.734375 0.875,-0.875 0.78125,-1.109375 0.734375,-1.359375 0.6875,-1.609375 h -0.25 L 0.765625,0 h 1.59375 c 0.21875,0 0.25,0 0.25,-0.203125 0,-0.703125 -0.3125,-1.578125 -0.53125,-2.21875 -0.21875,-0.578125 -0.5,-1.359375 -0.5,-2.109375 0,-1.59375 1.109375,-2.28125 2.015625,-2.28125 0.953125,0 2.015625,0.71875 2.015625,2.28125 0,0.75 -0.28125,1.5 -0.5625,2.3125 -0.15625,0.421875 -0.46875,1.328125 -0.46875,2.015625 C 4.578125,0 4.609375,0 4.828125,0 h 1.59375 z m 0,0"
             id="id-f7ecb1c8-e9f7-4a1d-81e5-ae1738192dfb"
             style="fill:#ff00ff" />
        </g>
      </g>
    </g>
    <g
       transform="matrix(0.352778,0,0,0.352778,107.2873,50.578301)"
       ns2:version="1.8.2"
       ns2:texconverter="pdflatex"
       ns2:pdfconverter="inkscape"
       ns2:text="$\\text{d}\\vec{A}_1$"
       ns2:preamble="/Users/hendrik/Library/Application Support/org.inkscape.Inkscape/config/inkscape/extensions/textext/default_packages.tex"
       ns2:scale="1.0"
       ns2:alignment="middle center"
       ns2:stroke-to-path="0"
       ns2:inkscapeversion="1.2.2"
       ns2:jacobian_sqrt="0.352778"
       id="g2746"
       style="fill:#008000">
      <defs
         id="id-eac71c19-6f89-460e-9e00-725fa927e6bc">
        <g
           id="id-214dc5dc-71d6-428b-9c4b-94b17a89ba3a">
          <g
             id="id-e814ba9a-4094-46c0-8857-2a544d83feb0" />
          <g
             id="id-a36bb754-6248-4ea0-9804-6647b2106025">
            <path
               d="m 3.78125,-0.546875 v 0.65625 L 5.25,0 v -0.3125 c -0.6875,0 -0.78125,-0.0625 -0.78125,-0.5625 V -6.921875 L 3.046875,-6.8125 V -6.5 c 0.6875,0 0.765625,0.0625 0.765625,0.5625 v 2.15625 c -0.28125,-0.359375 -0.71875,-0.625 -1.25,-0.625 -1.171875,0 -2.21875,0.984375 -2.21875,2.265625 0,1.265625 0.96875,2.25 2.109375,2.25 0.640625,0 1.078125,-0.34375 1.328125,-0.65625 z m 0,-2.671875 v 2.046875 c 0,0.171875 0,0.1875 -0.109375,0.359375 C 3.375,-0.328125 2.9375,-0.109375 2.5,-0.109375 2.046875,-0.109375 1.6875,-0.375 1.453125,-0.75 1.203125,-1.15625 1.171875,-1.71875 1.171875,-2.140625 1.171875,-2.5 1.1875,-3.09375 1.46875,-3.546875 1.6875,-3.859375 2.0625,-4.1875 2.609375,-4.1875 c 0.34375,0 0.765625,0.15625 1.0625,0.59375 0.109375,0.171875 0.109375,0.1875 0.109375,0.375 z m 0,0"
               id="id-7bff06a0-80d2-46f4-96e4-feae90a034d9" />
          </g>
          <g
             id="id-522e2499-2f49-4697-9174-702e1b52a65d" />
          <g
             id="id-f25c98b1-a5ae-4b50-9265-0efc36dbf99e">
            <path
               d="m 5.359375,-5.9375 c -0.140625,0.140625 -0.46875,0.421875 -0.46875,0.59375 0,0.09375 0.09375,0.203125 0.1875,0.203125 0.09375,0 0.140625,-0.078125 0.203125,-0.140625 C 5.390625,-5.421875 5.625,-5.703125 6.0625,-5.921875 6.125,-5.96875 6.234375,-6.015625 6.234375,-6.125 6.234375,-6.234375 6.15625,-6.28125 6.09375,-6.328125 5.875,-6.484375 5.765625,-6.65625 5.6875,-6.890625 5.65625,-6.984375 5.625,-7.125 5.484375,-7.125 c -0.140625,0 -0.203125,0.140625 -0.203125,0.21875 0,0.046875 0.078125,0.359375 0.234375,0.578125 H 2.15625 c -0.15625,0 -0.34375,0 -0.34375,0.203125 0,0.1875 0.1875,0.1875 0.34375,0.1875 z m 0,0"
               id="id-f0a6ee60-0b31-4c9f-85a4-4a0c9622a672" />
          </g>
          <g
             id="id-12aa1b9f-4e88-4615-8e66-1146bb64a5fd">
            <path
               d="M 1.78125,-1.140625 C 1.390625,-0.484375 1,-0.34375 0.5625,-0.3125 0.4375,-0.296875 0.34375,-0.296875 0.34375,-0.109375 0.34375,-0.046875 0.40625,0 0.484375,0 0.75,0 1.0625,-0.03125 1.328125,-0.03125 c 0.34375,0 0.6875,0.03125 1,0.03125 0.0625,0 0.1875,0 0.1875,-0.1875 0,-0.109375 -0.078125,-0.125 -0.15625,-0.125 -0.21875,-0.015625 -0.46875,-0.09375 -0.46875,-0.34375 0,-0.125 0.0625,-0.234375 0.140625,-0.375 l 0.765625,-1.265625 h 2.5 c 0.015625,0.203125 0.15625,1.5625 0.15625,1.65625 0,0.296875 -0.515625,0.328125 -0.71875,0.328125 C 4.59375,-0.3125 4.5,-0.3125 4.5,-0.109375 4.5,0 4.609375,0 4.640625,0 5.046875,0 5.46875,-0.03125 5.875,-0.03125 6.125,-0.03125 6.765625,0 7.015625,0 7.0625,0 7.1875,0 7.1875,-0.203125 7.1875,-0.3125 7.09375,-0.3125 6.953125,-0.3125 6.34375,-0.3125 6.34375,-0.375 6.3125,-0.671875 l -0.609375,-6.21875 c -0.015625,-0.203125 -0.015625,-0.25 -0.1875,-0.25 -0.15625,0 -0.203125,0.078125 -0.265625,0.171875 z M 2.984375,-2.609375 4.9375,-5.90625 5.265625,-2.609375 Z m 0,0"
               id="id-1e539e28-d0be-48e5-81be-160f90633893" />
          </g>
          <g
             id="id-5ad16637-6bdd-4dc2-8339-b44987c0ed70" />
          <g
             id="id-1c5264cb-3c04-4ca7-ae3e-50bf8a198613">
            <path
               d="m 2.328125,-4.4375 c 0,-0.1875 0,-0.1875 -0.203125,-0.1875 -0.453125,0.4375 -1.078125,0.4375 -1.359375,0.4375 v 0.25 c 0.15625,0 0.625,0 1,-0.1875 v 3.546875 c 0,0.234375 0,0.328125 -0.6875,0.328125 H 0.8125 V 0 c 0.125,0 0.984375,-0.03125 1.234375,-0.03125 0.21875,0 1.09375,0.03125 1.25,0.03125 V -0.25 H 3.03125 c -0.703125,0 -0.703125,-0.09375 -0.703125,-0.328125 z m 0,0"
               id="id-48945ce3-a799-45c8-a659-ea3ab11f6f91" />
          </g>
        </g>
      </defs>
      <g
         fill="#000000"
         fill-opacity="1"
         id="id-dacda72e-f90d-48e0-bfe5-39c4ef9636d2"
         transform="translate(-149.056,-125.121)"
         style="fill:#008000">
        <g
           transform="translate(148.712,134.765)"
           id="g2731"
           style="fill:#008000">
          <path
             d="m 3.78125,-0.546875 v 0.65625 L 5.25,0 v -0.3125 c -0.6875,0 -0.78125,-0.0625 -0.78125,-0.5625 V -6.921875 L 3.046875,-6.8125 V -6.5 c 0.6875,0 0.765625,0.0625 0.765625,0.5625 v 2.15625 c -0.28125,-0.359375 -0.71875,-0.625 -1.25,-0.625 -1.171875,0 -2.21875,0.984375 -2.21875,2.265625 0,1.265625 0.96875,2.25 2.109375,2.25 0.640625,0 1.078125,-0.34375 1.328125,-0.65625 z m 0,-2.671875 v 2.046875 c 0,0.171875 0,0.1875 -0.109375,0.359375 C 3.375,-0.328125 2.9375,-0.109375 2.5,-0.109375 2.046875,-0.109375 1.6875,-0.375 1.453125,-0.75 1.203125,-1.15625 1.171875,-1.71875 1.171875,-2.140625 1.171875,-2.5 1.1875,-3.09375 1.46875,-3.546875 1.6875,-3.859375 2.0625,-4.1875 2.609375,-4.1875 c 0.34375,0 0.765625,0.15625 1.0625,0.59375 0.109375,0.171875 0.109375,0.1875 0.109375,0.375 z m 0,0"
             id="id-509ca184-b9ec-4fe2-a130-2ee5f81da57f"
             style="fill:#008000" />
        </g>
      </g>
      <g
         fill="#000000"
         fill-opacity="1"
         id="id-abb28d39-0cff-4038-a87b-410552400b6b"
         transform="translate(-149.056,-125.121)"
         style="fill:#008000">
        <g
           transform="translate(156.11,132.246)"
           id="g2735"
           style="fill:#008000">
          <path
             d="m 5.359375,-5.9375 c -0.140625,0.140625 -0.46875,0.421875 -0.46875,0.59375 0,0.09375 0.09375,0.203125 0.1875,0.203125 0.09375,0 0.140625,-0.078125 0.203125,-0.140625 C 5.390625,-5.421875 5.625,-5.703125 6.0625,-5.921875 6.125,-5.96875 6.234375,-6.015625 6.234375,-6.125 6.234375,-6.234375 6.15625,-6.28125 6.09375,-6.328125 5.875,-6.484375 5.765625,-6.65625 5.6875,-6.890625 5.65625,-6.984375 5.625,-7.125 5.484375,-7.125 c -0.140625,0 -0.203125,0.140625 -0.203125,0.21875 0,0.046875 0.078125,0.359375 0.234375,0.578125 H 2.15625 c -0.15625,0 -0.34375,0 -0.34375,0.203125 0,0.1875 0.1875,0.1875 0.34375,0.1875 z m 0,0"
             id="id-684ec22d-62a6-4c04-9870-cf32005e4a86"
             style="fill:#008000" />
        </g>
      </g>
      <g
         fill="#000000"
         fill-opacity="1"
         id="id-aa7bf0ad-6d79-436e-ab74-93f811a01268"
         transform="translate(-149.056,-125.121)"
         style="fill:#008000">
        <g
           transform="translate(154.247,134.765)"
           id="g2739"
           style="fill:#008000">
          <path
             d="M 1.78125,-1.140625 C 1.390625,-0.484375 1,-0.34375 0.5625,-0.3125 0.4375,-0.296875 0.34375,-0.296875 0.34375,-0.109375 0.34375,-0.046875 0.40625,0 0.484375,0 0.75,0 1.0625,-0.03125 1.328125,-0.03125 c 0.34375,0 0.6875,0.03125 1,0.03125 0.0625,0 0.1875,0 0.1875,-0.1875 0,-0.109375 -0.078125,-0.125 -0.15625,-0.125 -0.21875,-0.015625 -0.46875,-0.09375 -0.46875,-0.34375 0,-0.125 0.0625,-0.234375 0.140625,-0.375 l 0.765625,-1.265625 h 2.5 c 0.015625,0.203125 0.15625,1.5625 0.15625,1.65625 0,0.296875 -0.515625,0.328125 -0.71875,0.328125 C 4.59375,-0.3125 4.5,-0.3125 4.5,-0.109375 4.5,0 4.609375,0 4.640625,0 5.046875,0 5.46875,-0.03125 5.875,-0.03125 6.125,-0.03125 6.765625,0 7.015625,0 7.0625,0 7.1875,0 7.1875,-0.203125 7.1875,-0.3125 7.09375,-0.3125 6.953125,-0.3125 6.34375,-0.3125 6.34375,-0.375 6.3125,-0.671875 l -0.609375,-6.21875 c -0.015625,-0.203125 -0.015625,-0.25 -0.1875,-0.25 -0.15625,0 -0.203125,0.078125 -0.265625,0.171875 z M 2.984375,-2.609375 4.9375,-5.90625 5.265625,-2.609375 Z m 0,0"
             id="id-4ff451e4-2140-45b7-87e3-846b727dbec4"
             style="fill:#008000" />
        </g>
      </g>
      <g
         fill="#000000"
         fill-opacity="1"
         id="id-acfb6087-03b1-4d71-8d1e-d8644808f4be"
         transform="translate(-149.056,-125.121)"
         style="fill:#008000">
        <g
           transform="translate(161.719,136.259)"
           id="g2743"
           style="fill:#008000">
          <path
             d="m 2.328125,-4.4375 c 0,-0.1875 0,-0.1875 -0.203125,-0.1875 -0.453125,0.4375 -1.078125,0.4375 -1.359375,0.4375 v 0.25 c 0.15625,0 0.625,0 1,-0.1875 v 3.546875 c 0,0.234375 0,0.328125 -0.6875,0.328125 H 0.8125 V 0 c 0.125,0 0.984375,-0.03125 1.234375,-0.03125 0.21875,0 1.09375,0.03125 1.25,0.03125 V -0.25 H 3.03125 c -0.703125,0 -0.703125,-0.09375 -0.703125,-0.328125 z m 0,0"
             id="id-8149a9e5-a382-43df-ac7f-c5b7b4ded39a"
             style="fill:#008000" />
        </g>
      </g>
    </g>
    <g
       transform="matrix(0.352778,0,0,0.352778,132.69121,49.553368)"
       ns2:version="1.8.2"
       ns2:texconverter="pdflatex"
       ns2:pdfconverter="inkscape"
       ns2:text="$\\text{d}\\vec{A}_2$"
       ns2:preamble="/Users/hendrik/Library/Application Support/org.inkscape.Inkscape/config/inkscape/extensions/textext/default_packages.tex"
       ns2:scale="1.0"
       ns2:alignment="middle center"
       ns2:stroke-to-path="0"
       ns2:inkscapeversion="1.2.2"
       ns2:jacobian_sqrt="0.352778"
       id="g3226"
       style="fill:#008000">
      <defs
         id="id-56938725-0fa3-4706-b153-af7c9d5464e0">
        <g
           id="id-5cc76520-a43f-4d7d-8e3b-d520ecff8994">
          <g
             id="id-d033d654-edd6-4f2c-97a3-f4bf1080cd01" />
          <g
             id="id-3e1a001f-b6ef-4bc2-95f2-26dfc4805566">
            <path
               d="m 3.78125,-0.546875 v 0.65625 L 5.25,0 v -0.3125 c -0.6875,0 -0.78125,-0.0625 -0.78125,-0.5625 V -6.921875 L 3.046875,-6.8125 V -6.5 c 0.6875,0 0.765625,0.0625 0.765625,0.5625 v 2.15625 c -0.28125,-0.359375 -0.71875,-0.625 -1.25,-0.625 -1.171875,0 -2.21875,0.984375 -2.21875,2.265625 0,1.265625 0.96875,2.25 2.109375,2.25 0.640625,0 1.078125,-0.34375 1.328125,-0.65625 z m 0,-2.671875 v 2.046875 c 0,0.171875 0,0.1875 -0.109375,0.359375 C 3.375,-0.328125 2.9375,-0.109375 2.5,-0.109375 2.046875,-0.109375 1.6875,-0.375 1.453125,-0.75 1.203125,-1.15625 1.171875,-1.71875 1.171875,-2.140625 1.171875,-2.5 1.1875,-3.09375 1.46875,-3.546875 1.6875,-3.859375 2.0625,-4.1875 2.609375,-4.1875 c 0.34375,0 0.765625,0.15625 1.0625,0.59375 0.109375,0.171875 0.109375,0.1875 0.109375,0.375 z m 0,0"
               id="id-7874fbfa-ca7c-4324-a369-299221b6e6ff" />
          </g>
          <g
             id="id-773a72f8-e629-482a-8def-6aafc49e4315" />
          <g
             id="id-8f609d3c-9aef-4d70-bdcc-3be3c4b2f3cf">
            <path
               d="m 5.359375,-5.9375 c -0.140625,0.140625 -0.46875,0.421875 -0.46875,0.59375 0,0.09375 0.09375,0.203125 0.1875,0.203125 0.09375,0 0.140625,-0.078125 0.203125,-0.140625 C 5.390625,-5.421875 5.625,-5.703125 6.0625,-5.921875 6.125,-5.96875 6.234375,-6.015625 6.234375,-6.125 6.234375,-6.234375 6.15625,-6.28125 6.09375,-6.328125 5.875,-6.484375 5.765625,-6.65625 5.6875,-6.890625 5.65625,-6.984375 5.625,-7.125 5.484375,-7.125 c -0.140625,0 -0.203125,0.140625 -0.203125,0.21875 0,0.046875 0.078125,0.359375 0.234375,0.578125 H 2.15625 c -0.15625,0 -0.34375,0 -0.34375,0.203125 0,0.1875 0.1875,0.1875 0.34375,0.1875 z m 0,0"
               id="id-a1b236a1-75d8-4a2e-941d-4803e25a4ff6" />
          </g>
          <g
             id="id-91e64754-b46e-4883-bab6-c7fc13d00873">
            <path
               d="M 1.78125,-1.140625 C 1.390625,-0.484375 1,-0.34375 0.5625,-0.3125 0.4375,-0.296875 0.34375,-0.296875 0.34375,-0.109375 0.34375,-0.046875 0.40625,0 0.484375,0 0.75,0 1.0625,-0.03125 1.328125,-0.03125 c 0.34375,0 0.6875,0.03125 1,0.03125 0.0625,0 0.1875,0 0.1875,-0.1875 0,-0.109375 -0.078125,-0.125 -0.15625,-0.125 -0.21875,-0.015625 -0.46875,-0.09375 -0.46875,-0.34375 0,-0.125 0.0625,-0.234375 0.140625,-0.375 l 0.765625,-1.265625 h 2.5 c 0.015625,0.203125 0.15625,1.5625 0.15625,1.65625 0,0.296875 -0.515625,0.328125 -0.71875,0.328125 C 4.59375,-0.3125 4.5,-0.3125 4.5,-0.109375 4.5,0 4.609375,0 4.640625,0 5.046875,0 5.46875,-0.03125 5.875,-0.03125 6.125,-0.03125 6.765625,0 7.015625,0 7.0625,0 7.1875,0 7.1875,-0.203125 7.1875,-0.3125 7.09375,-0.3125 6.953125,-0.3125 6.34375,-0.3125 6.34375,-0.375 6.3125,-0.671875 l -0.609375,-6.21875 c -0.015625,-0.203125 -0.015625,-0.25 -0.1875,-0.25 -0.15625,0 -0.203125,0.078125 -0.265625,0.171875 z M 2.984375,-2.609375 4.9375,-5.90625 5.265625,-2.609375 Z m 0,0"
               id="id-5c8dd8cb-48d4-4182-b5ab-5caf918954b7" />
          </g>
          <g
             id="id-b1b8c5fc-2054-4350-a034-59ba581fab4c" />
          <g
             id="id-d2d27862-e7ae-4e24-a7f6-2382b691f696">
            <path
               d="M 3.515625,-1.265625 H 3.28125 c -0.015625,0.15625 -0.09375,0.5625 -0.1875,0.625 C 3.046875,-0.59375 2.515625,-0.59375 2.40625,-0.59375 H 1.125 c 0.734375,-0.640625 0.984375,-0.84375 1.390625,-1.171875 0.515625,-0.40625 1,-0.84375 1,-1.5 0,-0.84375 -0.734375,-1.359375 -1.625,-1.359375 -0.859375,0 -1.453125,0.609375 -1.453125,1.25 0,0.34375 0.296875,0.390625 0.375,0.390625 0.15625,0 0.359375,-0.125 0.359375,-0.375 0,-0.125 -0.046875,-0.375 -0.40625,-0.375 C 0.984375,-4.21875 1.453125,-4.375 1.78125,-4.375 c 0.703125,0 1.0625,0.546875 1.0625,1.109375 0,0.609375 -0.4375,1.078125 -0.65625,1.328125 L 0.515625,-0.265625 C 0.4375,-0.203125 0.4375,-0.1875 0.4375,0 h 2.875 z m 0,0"
               id="id-66aab985-651e-4012-a428-7cba540cadc9" />
          </g>
        </g>
      </defs>
      <g
         fill="#000000"
         fill-opacity="1"
         id="id-4113123b-01c8-4a64-92ec-1b832e2abf4e"
         transform="translate(-149.056,-125.121)"
         style="fill:#008000">
        <g
           transform="translate(148.712,134.765)"
           id="g3211"
           style="fill:#008000">
          <path
             d="m 3.78125,-0.546875 v 0.65625 L 5.25,0 v -0.3125 c -0.6875,0 -0.78125,-0.0625 -0.78125,-0.5625 V -6.921875 L 3.046875,-6.8125 V -6.5 c 0.6875,0 0.765625,0.0625 0.765625,0.5625 v 2.15625 c -0.28125,-0.359375 -0.71875,-0.625 -1.25,-0.625 -1.171875,0 -2.21875,0.984375 -2.21875,2.265625 0,1.265625 0.96875,2.25 2.109375,2.25 0.640625,0 1.078125,-0.34375 1.328125,-0.65625 z m 0,-2.671875 v 2.046875 c 0,0.171875 0,0.1875 -0.109375,0.359375 C 3.375,-0.328125 2.9375,-0.109375 2.5,-0.109375 2.046875,-0.109375 1.6875,-0.375 1.453125,-0.75 1.203125,-1.15625 1.171875,-1.71875 1.171875,-2.140625 1.171875,-2.5 1.1875,-3.09375 1.46875,-3.546875 1.6875,-3.859375 2.0625,-4.1875 2.609375,-4.1875 c 0.34375,0 0.765625,0.15625 1.0625,0.59375 0.109375,0.171875 0.109375,0.1875 0.109375,0.375 z m 0,0"
             id="id-101b805a-1e00-4f1e-93ad-8bd3d1a458bd"
             style="fill:#008000" />
        </g>
      </g>
      <g
         fill="#000000"
         fill-opacity="1"
         id="id-2a686a98-15b9-41d5-945f-e8ddf250c559"
         transform="translate(-149.056,-125.121)"
         style="fill:#008000">
        <g
           transform="translate(156.11,132.246)"
           id="g3215"
           style="fill:#008000">
          <path
             d="m 5.359375,-5.9375 c -0.140625,0.140625 -0.46875,0.421875 -0.46875,0.59375 0,0.09375 0.09375,0.203125 0.1875,0.203125 0.09375,0 0.140625,-0.078125 0.203125,-0.140625 C 5.390625,-5.421875 5.625,-5.703125 6.0625,-5.921875 6.125,-5.96875 6.234375,-6.015625 6.234375,-6.125 6.234375,-6.234375 6.15625,-6.28125 6.09375,-6.328125 5.875,-6.484375 5.765625,-6.65625 5.6875,-6.890625 5.65625,-6.984375 5.625,-7.125 5.484375,-7.125 c -0.140625,0 -0.203125,0.140625 -0.203125,0.21875 0,0.046875 0.078125,0.359375 0.234375,0.578125 H 2.15625 c -0.15625,0 -0.34375,0 -0.34375,0.203125 0,0.1875 0.1875,0.1875 0.34375,0.1875 z m 0,0"
             id="id-e8f7d6bb-f29a-414f-a180-ae3fb26125f2"
             style="fill:#008000" />
        </g>
      </g>
      <g
         fill="#000000"
         fill-opacity="1"
         id="id-be241d17-3578-4086-b09f-d4826f519979"
         transform="translate(-149.056,-125.121)"
         style="fill:#008000">
        <g
           transform="translate(154.247,134.765)"
           id="g3219"
           style="fill:#008000">
          <path
             d="M 1.78125,-1.140625 C 1.390625,-0.484375 1,-0.34375 0.5625,-0.3125 0.4375,-0.296875 0.34375,-0.296875 0.34375,-0.109375 0.34375,-0.046875 0.40625,0 0.484375,0 0.75,0 1.0625,-0.03125 1.328125,-0.03125 c 0.34375,0 0.6875,0.03125 1,0.03125 0.0625,0 0.1875,0 0.1875,-0.1875 0,-0.109375 -0.078125,-0.125 -0.15625,-0.125 -0.21875,-0.015625 -0.46875,-0.09375 -0.46875,-0.34375 0,-0.125 0.0625,-0.234375 0.140625,-0.375 l 0.765625,-1.265625 h 2.5 c 0.015625,0.203125 0.15625,1.5625 0.15625,1.65625 0,0.296875 -0.515625,0.328125 -0.71875,0.328125 C 4.59375,-0.3125 4.5,-0.3125 4.5,-0.109375 4.5,0 4.609375,0 4.640625,0 5.046875,0 5.46875,-0.03125 5.875,-0.03125 6.125,-0.03125 6.765625,0 7.015625,0 7.0625,0 7.1875,0 7.1875,-0.203125 7.1875,-0.3125 7.09375,-0.3125 6.953125,-0.3125 6.34375,-0.3125 6.34375,-0.375 6.3125,-0.671875 l -0.609375,-6.21875 c -0.015625,-0.203125 -0.015625,-0.25 -0.1875,-0.25 -0.15625,0 -0.203125,0.078125 -0.265625,0.171875 z M 2.984375,-2.609375 4.9375,-5.90625 5.265625,-2.609375 Z m 0,0"
             id="id-7fb2513b-c7df-46e2-a237-36dc396e7d5f"
             style="fill:#008000" />
        </g>
      </g>
      <g
         fill="#000000"
         fill-opacity="1"
         id="id-8afe152d-7605-4e43-87ab-50418d4ef95d"
         transform="translate(-149.056,-125.121)"
         style="fill:#008000">
        <g
           transform="translate(161.719,136.259)"
           id="g3223"
           style="fill:#008000">
          <path
             d="M 3.515625,-1.265625 H 3.28125 c -0.015625,0.15625 -0.09375,0.5625 -0.1875,0.625 C 3.046875,-0.59375 2.515625,-0.59375 2.40625,-0.59375 H 1.125 c 0.734375,-0.640625 0.984375,-0.84375 1.390625,-1.171875 0.515625,-0.40625 1,-0.84375 1,-1.5 0,-0.84375 -0.734375,-1.359375 -1.625,-1.359375 -0.859375,0 -1.453125,0.609375 -1.453125,1.25 0,0.34375 0.296875,0.390625 0.375,0.390625 0.15625,0 0.359375,-0.125 0.359375,-0.375 0,-0.125 -0.046875,-0.375 -0.40625,-0.375 C 0.984375,-4.21875 1.453125,-4.375 1.78125,-4.375 c 0.703125,0 1.0625,0.546875 1.0625,1.109375 0,0.609375 -0.4375,1.078125 -0.65625,1.328125 L 0.515625,-0.265625 C 0.4375,-0.203125 0.4375,-0.1875 0.4375,0 h 2.875 z m 0,0"
             id="id-badac34b-4fdd-4231-9eeb-2a6d68ebc316"
             style="fill:#008000" />
        </g>
      </g>
    </g>
  </g>
  <circle
     style="display:inline;fill:#ff0000;stroke:none;stroke-width:1.13386;stroke-dasharray:none;stroke-dashoffset:0"
     id="path15873"
     cx="390.06152"
     cy="226.35098"
     r="1.1528913"
     transform="matrix(0.48150119,0,0,0.48150119,-181.27678,-94.557385)"
     inkscape:label="Ladung" />
  <path
     style="display:inline;fill:#ff0000;stroke:#008000;stroke-width:0.0471711;stroke-dasharray:none;stroke-dashoffset:0;marker-start:url(#marker5961)"
     d="m 140.76236,76.306891 1.6557,-0.981139"
     id="path17276"
     transform="matrix(-4.2398832,0,0,-4.2398832,640.07401,333.87258)"
     sodipodi:nodetypes="cc" />
  <path
     style="fill:none;stroke:#ff0000;stroke-width:0.755906;stroke-dasharray:none;stroke-dashoffset:0;marker-end:url(#marker5961)"
     d="m 73.18037,54.689467 42.48924,0.01355"
     id="path22170"
     transform="scale(0.26458333)"
     sodipodi:nodetypes="cc" />
  <path
     style="fill:none;stroke:#800000;stroke-width:0.755906;stroke-dasharray:none;stroke-dashoffset:0;marker-end:url(#marker5961)"
     d="M 73.18037,54.689467 105.7112,54.564853"
     id="path22190"
     transform="matrix(0.26458333,0,0,0.26458333,16.937086,-0.00607027)"
     sodipodi:nodetypes="cc" />
</svg>
