<?xml version="1.0" encoding="UTF-8" standalone="no"?>
<!-- Created with Inkscape (http://www.inkscape.org/) -->

<svg
   width="33.033768mm"
   height="19.791718mm"
   viewBox="0 0 33.033768 19.791718"
   version="1.1"
   id="svg5"
   sodipodi:docname="knotenregel vektor_dark.svg"
   inkscape:version="1.2.2 (b0a8486, 2022-12-01)"
   xmlns:inkscape="http://www.inkscape.org/namespaces/inkscape"
   xmlns:sodipodi="http://sodipodi.sourceforge.net/DTD/sodipodi-0.dtd"
   xmlns="http://www.w3.org/2000/svg"
   xmlns:svg="http://www.w3.org/2000/svg"
   xmlns:ns3="http://www.iki.fi/pav/software/textext/">
  <sodipodi:namedview
     id="namedview7"
     pagecolor="#333333"
     bordercolor="#000000"
     borderopacity="0.25"
     inkscape:showpageshadow="2"
     inkscape:pageopacity="0"
     inkscape:pagecheckerboard="0"
     inkscape:deskcolor="#d1d1d1"
     inkscape:document-units="mm"
     showgrid="false"
     inkscape:zoom="3.5376475"
     inkscape:cx="36.182237"
     inkscape:cy="32.648815"
     inkscape:window-width="1440"
     inkscape:window-height="777"
     inkscape:window-x="0"
     inkscape:window-y="23"
     inkscape:window-maximized="0"
     inkscape:current-layer="layer2" />
  <defs
     id="defs2" />
  <g
     inkscape:label="Layer 1"
     inkscape:groupmode="layer"
     id="layer1"
     transform="translate(-66.164512,-26.919225)">
    <path
       style="fill:none;stroke:#ffffff;stroke-width:0.755906;stroke-dasharray:none;stroke-dashoffset:0"
       d="m 342.94621,96.26452 h 3.82835 v 3.7666"
       id="path956-9"
       transform="matrix(0.00137109,-0.26457978,0.26457978,0.00137109,45.227955,121.64956)"
       inkscape:transform-center-x="-0.49566243"
       inkscape:transform-center-y="0.50646552" />
    <path
       style="fill:none;stroke:#ffffff;stroke-width:0.755906;stroke-dasharray:none;stroke-dashoffset:0"
       d="m 295.8707,145.41266 -35.74874,9.88898"
       id="path1014"
       transform="matrix(0.13229167,0.22913589,-0.22913589,0.13229167,72.346265,-50.116392)"
       sodipodi:nodetypes="cc" />
    <path
       style="fill:#0000ff;stroke:#00ff00;stroke-width:0.755906;stroke-dasharray:none;stroke-dashoffset:0"
       d="m 295.439,145.71062 v -6.18903"
       id="path4821"
       transform="matrix(0.26458333,0,0,0.26458333,3.088316e-7,-0.81875617)"
       sodipodi:nodetypes="cc" />
    <g
       transform="matrix(0.352778 0 0 0.352778 68.9677 32.9457)"
       ns3:version="1.8.2"
       ns3:texconverter="pdflatex"
       ns3:pdfconverter="inkscape"
       ns3:text="$\\vec{j}_i$"
       ns3:preamble="/Users/hendrik/Library/Application Support/org.inkscape.Inkscape/config/inkscape/extensions/textext/default_packages.tex"
       ns3:scale="1.0000000283464388"
       ns3:alignment="middle center"
       ns3:stroke-to-path="0"
       ns3:inkscapeversion="1.2.2"
       ns3:jacobian_sqrt="0.352778"
       style="fill:#ffffff;stroke-width:0"
       id="g1173">
      <defs
         id="id-8d5e360d-bb37-44bc-b899-0c641c3a5438"
         style="fill:#ffffff;stroke-width:0">
        <g
           id="id-b0d33a7d-ff55-476a-998b-beb16d8aec22"
           style="fill:#ffffff;stroke-width:0">
          <g
             id="id-3fcce804-5d41-48fe-aeb8-d4bb29858c8b"
             style="fill:#ffffff;stroke-width:0" />
          <g
             id="id-b2683004-ff53-4f9f-9f53-32e36a3235d3"
             style="fill:#ffffff;stroke-width:0">
            <path
               d="m 5.359375,-5.9375 c -0.140625,0.140625 -0.46875,0.421875 -0.46875,0.59375 0,0.09375 0.09375,0.203125 0.1875,0.203125 0.09375,0 0.140625,-0.078125 0.203125,-0.140625 C 5.390625,-5.421875 5.625,-5.703125 6.0625,-5.921875 6.125,-5.96875 6.234375,-6.015625 6.234375,-6.125 6.234375,-6.234375 6.15625,-6.28125 6.09375,-6.328125 5.875,-6.484375 5.765625,-6.65625 5.6875,-6.890625 5.65625,-6.984375 5.625,-7.125 5.484375,-7.125 c -0.140625,0 -0.203125,0.140625 -0.203125,0.21875 0,0.046875 0.078125,0.359375 0.234375,0.578125 H 2.15625 c -0.15625,0 -0.34375,0 -0.34375,0.203125 0,0.1875 0.1875,0.1875 0.34375,0.1875 z m 0,0"
               id="id-acfb9df2-96cd-473c-bd37-76ec9cb1741f"
               style="fill:#ffffff;stroke-width:0" />
          </g>
          <g
             id="id-4f7d064f-94f4-4bf1-91fa-076f1c3978d3"
             style="fill:#ffffff;stroke-width:0">
            <path
               d="m 3.953125,-6.234375 c 0,-0.1875 -0.140625,-0.359375 -0.375,-0.359375 -0.234375,0 -0.53125,0.234375 -0.53125,0.53125 0,0.203125 0.140625,0.359375 0.375,0.359375 0.265625,0 0.53125,-0.265625 0.53125,-0.53125 z m -2,6.734375 c -0.1875,0.75 -0.671875,1.328125 -1.21875,1.328125 -0.0625,0 -0.21875,0 -0.390625,-0.09375 0.296875,-0.0625 0.4375,-0.328125 0.4375,-0.53125 0,-0.15625 -0.109375,-0.34375 -0.375,-0.34375 -0.25,0 -0.53125,0.203125 -0.53125,0.5625 0,0.40625 0.390625,0.625 0.875,0.625 0.703125,0 1.625,-0.53125 1.875,-1.515625 L 3.53125,-3.125 c 0.0625,-0.1875 0.0625,-0.328125 0.0625,-0.359375 0,-0.578125 -0.421875,-0.921875 -0.921875,-0.921875 -1.015625,0 -1.578125,1.453125 -1.578125,1.53125 0,0.109375 0.09375,0.109375 0.109375,0.109375 0.09375,0 0.109375,-0.015625 0.1875,-0.203125 0.25,-0.609375 0.703125,-1.21875 1.25,-1.21875 0.140625,0 0.3125,0.046875 0.3125,0.453125 0,0.234375 -0.015625,0.34375 -0.0625,0.515625 z m 0,0"
               id="id-90cdc23a-efaa-4a31-8050-ce284e6730c4"
               style="fill:#ffffff;stroke-width:0" />
          </g>
          <g
             id="id-6c7a0407-6eff-432b-9d05-29cc5ca9ee61"
             style="fill:#ffffff;stroke-width:0" />
          <g
             id="id-d22cd297-1fcc-4fef-b3b8-99d3f4b778a3"
             style="fill:#ffffff;stroke-width:0">
            <path
               d="m 2.265625,-4.359375 c 0,-0.109375 -0.09375,-0.265625 -0.28125,-0.265625 -0.1875,0 -0.390625,0.1875 -0.390625,0.390625 0,0.109375 0.078125,0.265625 0.28125,0.265625 0.1875,0 0.390625,-0.203125 0.390625,-0.390625 z M 0.84375,-0.8125 c -0.03125,0.09375 -0.0625,0.171875 -0.0625,0.296875 0,0.328125 0.265625,0.578125 0.65625,0.578125 0.6875,0 1,-0.953125 1,-1.0625 0,-0.09375 -0.09375,-0.09375 -0.109375,-0.09375 -0.09375,0 -0.109375,0.046875 -0.140625,0.125 -0.15625,0.5625 -0.453125,0.84375 -0.734375,0.84375 -0.140625,0 -0.171875,-0.09375 -0.171875,-0.25 0,-0.15625 0.046875,-0.28125 0.109375,-0.4375 C 1.46875,-1 1.546875,-1.1875 1.609375,-1.375 1.671875,-1.546875 1.9375,-2.171875 1.953125,-2.265625 1.984375,-2.328125 2,-2.40625 2,-2.484375 2,-2.8125 1.71875,-3.078125 1.34375,-3.078125 0.640625,-3.078125 0.328125,-2.125 0.328125,-2 c 0,0.078125 0.09375,0.078125 0.125,0.078125 0.09375,0 0.09375,-0.03125 0.125,-0.109375 C 0.75,-2.625 1.0625,-2.875 1.3125,-2.875 c 0.109375,0 0.171875,0.046875 0.171875,0.234375 0,0.171875 -0.03125,0.265625 -0.203125,0.703125 z m 0,0"
               id="id-08f86fba-d302-4f77-a34f-92b4fdbe1e71"
               style="fill:#ffffff;stroke-width:0" />
          </g>
        </g>
      </defs>
      <g
         fill-opacity="1"
         id="id-882901f4-85e5-4f48-868d-288ec2eec913"
         transform="translate(-148.587, -125.358)"
         style="fill:#ffffff;stroke-width:0">
        <g
           transform="translate(147.792, 132.483)"
           style="fill:#ffffff;stroke-width:0"
           id="g409">
          <path
             d="m 5.359375,-5.9375 c -0.140625,0.140625 -0.46875,0.421875 -0.46875,0.59375 0,0.09375 0.09375,0.203125 0.1875,0.203125 0.09375,0 0.140625,-0.078125 0.203125,-0.140625 C 5.390625,-5.421875 5.625,-5.703125 6.0625,-5.921875 6.125,-5.96875 6.234375,-6.015625 6.234375,-6.125 6.234375,-6.234375 6.15625,-6.28125 6.09375,-6.328125 5.875,-6.484375 5.765625,-6.65625 5.6875,-6.890625 5.65625,-6.984375 5.625,-7.125 5.484375,-7.125 c -0.140625,0 -0.203125,0.140625 -0.203125,0.21875 0,0.046875 0.078125,0.359375 0.234375,0.578125 H 2.15625 c -0.15625,0 -0.34375,0 -0.34375,0.203125 0,0.1875 0.1875,0.1875 0.34375,0.1875 z m 0,0"
             id="id-86f0aad7-406b-47c0-aca2-e31299cfcdc0"
             style="fill:#ffffff;stroke-width:0" />
        </g>
      </g>
      <g
         fill-opacity="1"
         id="id-51480c82-489a-49c1-bba6-fb9fc73fc2e6"
         transform="translate(-148.587, -125.358)"
         style="fill:#ffffff;stroke-width:0">
        <g
           transform="translate(148.712, 134.765)"
           style="fill:#ffffff;stroke-width:0"
           id="g413">
          <path
             d="m 3.953125,-6.234375 c 0,-0.1875 -0.140625,-0.359375 -0.375,-0.359375 -0.234375,0 -0.53125,0.234375 -0.53125,0.53125 0,0.203125 0.140625,0.359375 0.375,0.359375 0.265625,0 0.53125,-0.265625 0.53125,-0.53125 z m -2,6.734375 c -0.1875,0.75 -0.671875,1.328125 -1.21875,1.328125 -0.0625,0 -0.21875,0 -0.390625,-0.09375 0.296875,-0.0625 0.4375,-0.328125 0.4375,-0.53125 0,-0.15625 -0.109375,-0.34375 -0.375,-0.34375 -0.25,0 -0.53125,0.203125 -0.53125,0.5625 0,0.40625 0.390625,0.625 0.875,0.625 0.703125,0 1.625,-0.53125 1.875,-1.515625 L 3.53125,-3.125 c 0.0625,-0.1875 0.0625,-0.328125 0.0625,-0.359375 0,-0.578125 -0.421875,-0.921875 -0.921875,-0.921875 -1.015625,0 -1.578125,1.453125 -1.578125,1.53125 0,0.109375 0.09375,0.109375 0.109375,0.109375 0.09375,0 0.109375,-0.015625 0.1875,-0.203125 0.25,-0.609375 0.703125,-1.21875 1.25,-1.21875 0.140625,0 0.3125,0.046875 0.3125,0.453125 0,0.234375 -0.015625,0.34375 -0.0625,0.515625 z m 0,0"
             id="id-889bd1ba-8867-43b2-92a6-cf799c118e64"
             style="fill:#ffffff;stroke-width:0" />
        </g>
      </g>
      <g
         fill-opacity="1"
         id="id-73f31bb2-3c5a-4cea-855c-a11386fea8f4"
         transform="translate(-148.587, -125.358)"
         style="fill:#ffffff;stroke-width:0">
        <g
           transform="translate(152.815, 136.259)"
           style="fill:#ffffff;stroke-width:0"
           id="g417">
          <path
             d="m 2.265625,-4.359375 c 0,-0.109375 -0.09375,-0.265625 -0.28125,-0.265625 -0.1875,0 -0.390625,0.1875 -0.390625,0.390625 0,0.109375 0.078125,0.265625 0.28125,0.265625 0.1875,0 0.390625,-0.203125 0.390625,-0.390625 z M 0.84375,-0.8125 c -0.03125,0.09375 -0.0625,0.171875 -0.0625,0.296875 0,0.328125 0.265625,0.578125 0.65625,0.578125 0.6875,0 1,-0.953125 1,-1.0625 0,-0.09375 -0.09375,-0.09375 -0.109375,-0.09375 -0.09375,0 -0.109375,0.046875 -0.140625,0.125 -0.15625,0.5625 -0.453125,0.84375 -0.734375,0.84375 -0.140625,0 -0.171875,-0.09375 -0.171875,-0.25 0,-0.15625 0.046875,-0.28125 0.109375,-0.4375 C 1.46875,-1 1.546875,-1.1875 1.609375,-1.375 1.671875,-1.546875 1.9375,-2.171875 1.953125,-2.265625 1.984375,-2.328125 2,-2.40625 2,-2.484375 2,-2.8125 1.71875,-3.078125 1.34375,-3.078125 0.640625,-3.078125 0.328125,-2.125 0.328125,-2 c 0,0.078125 0.09375,0.078125 0.125,0.078125 0.09375,0 0.09375,-0.03125 0.125,-0.109375 C 0.75,-2.625 1.0625,-2.875 1.3125,-2.875 c 0.109375,0 0.171875,0.046875 0.171875,0.234375 0,0.171875 -0.03125,0.265625 -0.203125,0.703125 z m 0,0"
             id="id-0b4f2aaa-c878-4a52-8dae-61ecc95b0625"
             style="fill:#ffffff;stroke-width:0" />
        </g>
      </g>
    </g>
  </g>
  <g
     inkscape:groupmode="layer"
     id="layer2"
     inkscape:label="Volumen"
     transform="translate(-66.164512,-26.919225)">
    <path
       style="fill:none;stroke:#0000ff;stroke-width:0.755906;stroke-dasharray:none;stroke-dashoffset:0"
       id="path4497"
       sodipodi:type="arc"
       sodipodi:cx="295.8707"
       sodipodi:cy="145.41266"
       sodipodi:rx="21.868586"
       sodipodi:ry="21.868586"
       sodipodi:start="2.8886288"
       sodipodi:end="5.2384457"
       sodipodi:arc-type="arc"
       d="m 274.69808,150.88581 a 21.868586,21.868586 0 0 1 7.95805,-22.89756 21.868586,21.868586 0 0 1 24.19538,-1.48741"
       sodipodi:open="true"
       inkscape:label="path4497"
       transform="matrix(0.13229167,0.22913589,-0.22913589,0.13229167,72.346265,-50.116392)" />
    <path
       style="display:inline;fill:#ffffff;stroke:#00ff00;stroke-width:0.755906;stroke-dasharray:none;stroke-dashoffset:0"
       d="m 295.54981,145.80878 40.6584,23.47414"
       id="path846"
       transform="matrix(-0.22913589,0.13229167,-0.13229167,-0.22913589,177.60032,31.226331)"
       sodipodi:nodetypes="cc" />
    <path
       style="fill:none;stroke:#00ff00;stroke-width:0.755906;stroke-dasharray:none;stroke-dashoffset:0"
       d="m 342.94621,96.26452 h 3.82835 v 3.7666"
       id="path956"
       transform="matrix(0.18708867,0.18708868,-0.18708868,0.18708867,43.685778,-45.993634)"
       inkscape:transform-center-x="0.35812211"
       inkscape:transform-center-y="-0.0057755637" />
    <g
       transform="matrix(0.352778,0,0,0.352778,79.602435,32.719816)"
       ns3:version="1.8.2"
       ns3:texconverter="pdflatex"
       ns3:pdfconverter="inkscape"
       ns3:text="$\\theta$"
       ns3:preamble="/Users/hendrik/Library/Application Support/org.inkscape.Inkscape/config/inkscape/extensions/textext/default_packages.tex"
       ns3:scale="1.0000000283464388"
       ns3:alignment="middle center"
       ns3:stroke-to-path="0"
       ns3:inkscapeversion="1.2.2"
       ns3:jacobian_sqrt="0.352778"
       id="g4702"
       style="fill:#0000ff">
      <defs
         id="id-20239359-792b-4f7f-8fb5-da5ac80cdbb6">
        <g
           id="id-4231a46f-eb68-4a20-9616-73020306d81a">
          <g
             id="id-7efa3732-26ed-4e4d-8043-e39c00693fd3" />
          <g
             id="id-78f301c1-de87-45dd-b704-ee90c050a2c4">
            <path
               d="m 4.53125,-4.984375 c 0,-0.65625 -0.171875,-2.046875 -1.1875,-2.046875 -1.390625,0 -2.921875,2.8125 -2.921875,5.09375 0,0.9375 0.28125,2.046875 1.1875,2.046875 1.40625,0 2.921875,-2.859375 2.921875,-5.09375 z M 1.46875,-3.625 C 1.640625,-4.25 1.84375,-5.046875 2.25,-5.765625 2.515625,-6.25 2.875,-6.8125 3.328125,-6.8125 c 0.484375,0 0.546875,0.640625 0.546875,1.203125 0,0.5 -0.078125,1 -0.3125,1.984375 z m 2,0.328125 C 3.359375,-2.84375 3.15625,-2 2.765625,-1.28125 c -0.34375,0.6875 -0.71875,1.171875 -1.15625,1.171875 -0.328125,0 -0.53125,-0.296875 -0.53125,-1.21875 0,-0.421875 0.0625,-1 0.3125,-1.96875 z m 0,0"
               id="id-d323e4c2-d308-4a3c-9f89-41411f1336e1" />
          </g>
        </g>
      </defs>
      <g
         fill="#000000"
         fill-opacity="1"
         id="id-a0a0d37b-0991-40c4-a519-733f65398da5"
         transform="translate(-149.134,-127.734)"
         style="fill:#0000ff">
        <g
           transform="translate(148.712,134.765)"
           id="g4699"
           style="fill:#0000ff">
          <path
             d="m 4.53125,-4.984375 c 0,-0.65625 -0.171875,-2.046875 -1.1875,-2.046875 -1.390625,0 -2.921875,2.8125 -2.921875,5.09375 0,0.9375 0.28125,2.046875 1.1875,2.046875 1.40625,0 2.921875,-2.859375 2.921875,-5.09375 z M 1.46875,-3.625 C 1.640625,-4.25 1.84375,-5.046875 2.25,-5.765625 2.515625,-6.25 2.875,-6.8125 3.328125,-6.8125 c 0.484375,0 0.546875,0.640625 0.546875,1.203125 0,0.5 -0.078125,1 -0.3125,1.984375 z m 2,0.328125 C 3.359375,-2.84375 3.15625,-2 2.765625,-1.28125 c -0.34375,0.6875 -0.71875,1.171875 -1.15625,1.171875 -0.328125,0 -0.53125,-0.296875 -0.53125,-1.21875 0,-0.421875 0.0625,-1 0.3125,-1.96875 z m 0,0"
             id="id-6844853f-e81f-4e22-8e3d-c3c177a841ab"
             style="fill:#0000ff" />
        </g>
      </g>
    </g>
    <path
       style="fill:none;stroke:#ff0000;stroke-width:0.755906;stroke-dasharray:none;stroke-dashoffset:0"
       id="path5091"
       transform="matrix(0.26458333,0,0,0.26458333,63.688333,26.847942)"
       sodipodi:type="arc"
       sodipodi:cx="20.615305"
       sodipodi:cy="38.049042"
       sodipodi:rx="34.250496"
       sodipodi:ry="34.250496"
       sodipodi:start="0.088736768"
       sodipodi:end="6.1931875"
       sodipodi:arc-type="arc"
       d="M 54.731041,41.084333 A 34.250496,34.250496 0 0 1 19.106952,72.266308 34.250496,34.250496 0 0 1 -13.635184,38.070637 34.250496,34.250496 0 0 1 19.063803,3.8337043 34.250496,34.250496 0 0 1 54.727187,34.970732"
       sodipodi:open="true" />
    <g
       transform="matrix(0.352778 0 0 0.352778 87.9264 37.9368)"
       ns3:version="1.8.2"
       ns3:texconverter="pdflatex"
       ns3:pdfconverter="inkscape"
       ns3:text="$\\text{d}\\vec{A}_i$"
       ns3:preamble="/Users/hendrik/Library/Application Support/org.inkscape.Inkscape/config/inkscape/extensions/textext/default_packages.tex"
       ns3:scale="1.0000000566928784"
       ns3:alignment="middle center"
       ns3:stroke-to-path="0"
       ns3:inkscapeversion="1.2.2"
       ns3:jacobian_sqrt="0.352778"
       style="fill:#00ff00;stroke-width:0"
       id="g1078">
      <defs
         id="id-f5778fc3-8006-4b34-93e2-2ae18b97ac3c"
         style="fill:#00ff00;stroke-width:0">
        <g
           id="id-0a220c45-94af-42c3-8beb-4951d16ba50f"
           style="fill:#00ff00;stroke-width:0">
          <g
             id="id-19556000-910b-4833-80da-270208022be4"
             style="fill:#00ff00;stroke-width:0" />
          <g
             id="id-3144f550-6381-4b9c-983a-4d7f30bc8dae"
             style="fill:#00ff00;stroke-width:0">
            <path
               d="m 3.78125,-0.546875 v 0.65625 L 5.25,0 v -0.3125 c -0.6875,0 -0.78125,-0.0625 -0.78125,-0.5625 V -6.921875 L 3.046875,-6.8125 V -6.5 c 0.6875,0 0.765625,0.0625 0.765625,0.5625 v 2.15625 c -0.28125,-0.359375 -0.71875,-0.625 -1.25,-0.625 -1.171875,0 -2.21875,0.984375 -2.21875,2.265625 0,1.265625 0.96875,2.25 2.109375,2.25 0.640625,0 1.078125,-0.34375 1.328125,-0.65625 z m 0,-2.671875 v 2.046875 c 0,0.171875 0,0.1875 -0.109375,0.359375 C 3.375,-0.328125 2.9375,-0.109375 2.5,-0.109375 2.046875,-0.109375 1.6875,-0.375 1.453125,-0.75 1.203125,-1.15625 1.171875,-1.71875 1.171875,-2.140625 1.171875,-2.5 1.1875,-3.09375 1.46875,-3.546875 1.6875,-3.859375 2.0625,-4.1875 2.609375,-4.1875 c 0.34375,0 0.765625,0.15625 1.0625,0.59375 0.109375,0.171875 0.109375,0.1875 0.109375,0.375 z m 0,0"
               id="id-8ec23f7f-2159-40b5-abb3-c951b5df39a1"
               style="fill:#00ff00;stroke-width:0" />
          </g>
          <g
             id="id-195d17d2-4c7e-4fa4-bef5-d9436cd64d6d"
             style="fill:#00ff00;stroke-width:0" />
          <g
             id="id-627a80a7-9709-406d-a0fd-72daa0eb2497"
             style="fill:#00ff00;stroke-width:0">
            <path
               d="m 5.359375,-5.9375 c -0.140625,0.140625 -0.46875,0.421875 -0.46875,0.59375 0,0.09375 0.09375,0.203125 0.1875,0.203125 0.09375,0 0.140625,-0.078125 0.203125,-0.140625 C 5.390625,-5.421875 5.625,-5.703125 6.0625,-5.921875 6.125,-5.96875 6.234375,-6.015625 6.234375,-6.125 6.234375,-6.234375 6.15625,-6.28125 6.09375,-6.328125 5.875,-6.484375 5.765625,-6.65625 5.6875,-6.890625 5.65625,-6.984375 5.625,-7.125 5.484375,-7.125 c -0.140625,0 -0.203125,0.140625 -0.203125,0.21875 0,0.046875 0.078125,0.359375 0.234375,0.578125 H 2.15625 c -0.15625,0 -0.34375,0 -0.34375,0.203125 0,0.1875 0.1875,0.1875 0.34375,0.1875 z m 0,0"
               id="id-cc4c82c7-ddcc-4193-a7cd-2bac525fb6f7"
               style="fill:#00ff00;stroke-width:0" />
          </g>
          <g
             id="id-c7b9396e-b1b3-48cf-9913-bc884b8a5eec"
             style="fill:#00ff00;stroke-width:0">
            <path
               d="M 1.78125,-1.140625 C 1.390625,-0.484375 1,-0.34375 0.5625,-0.3125 0.4375,-0.296875 0.34375,-0.296875 0.34375,-0.109375 0.34375,-0.046875 0.40625,0 0.484375,0 0.75,0 1.0625,-0.03125 1.328125,-0.03125 c 0.34375,0 0.6875,0.03125 1,0.03125 0.0625,0 0.1875,0 0.1875,-0.1875 0,-0.109375 -0.078125,-0.125 -0.15625,-0.125 -0.21875,-0.015625 -0.46875,-0.09375 -0.46875,-0.34375 0,-0.125 0.0625,-0.234375 0.140625,-0.375 l 0.765625,-1.265625 h 2.5 c 0.015625,0.203125 0.15625,1.5625 0.15625,1.65625 0,0.296875 -0.515625,0.328125 -0.71875,0.328125 C 4.59375,-0.3125 4.5,-0.3125 4.5,-0.109375 4.5,0 4.609375,0 4.640625,0 5.046875,0 5.46875,-0.03125 5.875,-0.03125 6.125,-0.03125 6.765625,0 7.015625,0 7.0625,0 7.1875,0 7.1875,-0.203125 7.1875,-0.3125 7.09375,-0.3125 6.953125,-0.3125 6.34375,-0.3125 6.34375,-0.375 6.3125,-0.671875 l -0.609375,-6.21875 c -0.015625,-0.203125 -0.015625,-0.25 -0.1875,-0.25 -0.15625,0 -0.203125,0.078125 -0.265625,0.171875 z M 2.984375,-2.609375 4.9375,-5.90625 5.265625,-2.609375 Z m 0,0"
               id="id-395529c6-fa68-48e1-8ade-40bd77888403"
               style="fill:#00ff00;stroke-width:0" />
          </g>
          <g
             id="id-3c1a1002-ea86-45fb-a703-56431bb2b829"
             style="fill:#00ff00;stroke-width:0" />
          <g
             id="id-dd030797-d3c5-49cb-bea6-c039bf4645c8"
             style="fill:#00ff00;stroke-width:0">
            <path
               d="m 2.265625,-4.359375 c 0,-0.109375 -0.09375,-0.265625 -0.28125,-0.265625 -0.1875,0 -0.390625,0.1875 -0.390625,0.390625 0,0.109375 0.078125,0.265625 0.28125,0.265625 0.1875,0 0.390625,-0.203125 0.390625,-0.390625 z M 0.84375,-0.8125 c -0.03125,0.09375 -0.0625,0.171875 -0.0625,0.296875 0,0.328125 0.265625,0.578125 0.65625,0.578125 0.6875,0 1,-0.953125 1,-1.0625 0,-0.09375 -0.09375,-0.09375 -0.109375,-0.09375 -0.09375,0 -0.109375,0.046875 -0.140625,0.125 -0.15625,0.5625 -0.453125,0.84375 -0.734375,0.84375 -0.140625,0 -0.171875,-0.09375 -0.171875,-0.25 0,-0.15625 0.046875,-0.28125 0.109375,-0.4375 C 1.46875,-1 1.546875,-1.1875 1.609375,-1.375 1.671875,-1.546875 1.9375,-2.171875 1.953125,-2.265625 1.984375,-2.328125 2,-2.40625 2,-2.484375 2,-2.8125 1.71875,-3.078125 1.34375,-3.078125 0.640625,-3.078125 0.328125,-2.125 0.328125,-2 c 0,0.078125 0.09375,0.078125 0.125,0.078125 0.09375,0 0.09375,-0.03125 0.125,-0.109375 C 0.75,-2.625 1.0625,-2.875 1.3125,-2.875 c 0.109375,0 0.171875,0.046875 0.171875,0.234375 0,0.171875 -0.03125,0.265625 -0.203125,0.703125 z m 0,0"
               id="id-b6406e28-72de-40d7-baa1-0fca9d55d7e6"
               style="fill:#00ff00;stroke-width:0" />
          </g>
        </g>
      </defs>
      <g
         fill-opacity="1"
         id="id-580d558f-040b-4ffa-840d-d115415c0dc0"
         transform="translate(-149.056, -125.121)"
         style="fill:#00ff00;stroke-width:0">
        <g
           transform="translate(148.712, 134.765)"
           style="fill:#00ff00;stroke-width:0"
           id="g591">
          <path
             d="m 3.78125,-0.546875 v 0.65625 L 5.25,0 v -0.3125 c -0.6875,0 -0.78125,-0.0625 -0.78125,-0.5625 V -6.921875 L 3.046875,-6.8125 V -6.5 c 0.6875,0 0.765625,0.0625 0.765625,0.5625 v 2.15625 c -0.28125,-0.359375 -0.71875,-0.625 -1.25,-0.625 -1.171875,0 -2.21875,0.984375 -2.21875,2.265625 0,1.265625 0.96875,2.25 2.109375,2.25 0.640625,0 1.078125,-0.34375 1.328125,-0.65625 z m 0,-2.671875 v 2.046875 c 0,0.171875 0,0.1875 -0.109375,0.359375 C 3.375,-0.328125 2.9375,-0.109375 2.5,-0.109375 2.046875,-0.109375 1.6875,-0.375 1.453125,-0.75 1.203125,-1.15625 1.171875,-1.71875 1.171875,-2.140625 1.171875,-2.5 1.1875,-3.09375 1.46875,-3.546875 1.6875,-3.859375 2.0625,-4.1875 2.609375,-4.1875 c 0.34375,0 0.765625,0.15625 1.0625,0.59375 0.109375,0.171875 0.109375,0.1875 0.109375,0.375 z m 0,0"
             id="id-5da0c4f4-9799-432a-9edc-1e185907b111"
             style="fill:#00ff00;stroke-width:0" />
        </g>
      </g>
      <g
         fill-opacity="1"
         id="id-f559a069-f8ad-4fc6-afca-39d89555e848"
         transform="translate(-149.056, -125.121)"
         style="fill:#00ff00;stroke-width:0">
        <g
           transform="translate(156.11, 132.246)"
           style="fill:#00ff00;stroke-width:0"
           id="g595">
          <path
             d="m 5.359375,-5.9375 c -0.140625,0.140625 -0.46875,0.421875 -0.46875,0.59375 0,0.09375 0.09375,0.203125 0.1875,0.203125 0.09375,0 0.140625,-0.078125 0.203125,-0.140625 C 5.390625,-5.421875 5.625,-5.703125 6.0625,-5.921875 6.125,-5.96875 6.234375,-6.015625 6.234375,-6.125 6.234375,-6.234375 6.15625,-6.28125 6.09375,-6.328125 5.875,-6.484375 5.765625,-6.65625 5.6875,-6.890625 5.65625,-6.984375 5.625,-7.125 5.484375,-7.125 c -0.140625,0 -0.203125,0.140625 -0.203125,0.21875 0,0.046875 0.078125,0.359375 0.234375,0.578125 H 2.15625 c -0.15625,0 -0.34375,0 -0.34375,0.203125 0,0.1875 0.1875,0.1875 0.34375,0.1875 z m 0,0"
             id="id-682d28ed-8d87-47cf-b37c-68ec56845304"
             style="fill:#00ff00;stroke-width:0" />
        </g>
      </g>
      <g
         fill-opacity="1"
         id="id-99cc25cb-6b21-41dd-98db-b82c7382548c"
         transform="translate(-149.056, -125.121)"
         style="fill:#00ff00;stroke-width:0">
        <g
           transform="translate(154.247, 134.765)"
           style="fill:#00ff00;stroke-width:0"
           id="g599">
          <path
             d="M 1.78125,-1.140625 C 1.390625,-0.484375 1,-0.34375 0.5625,-0.3125 0.4375,-0.296875 0.34375,-0.296875 0.34375,-0.109375 0.34375,-0.046875 0.40625,0 0.484375,0 0.75,0 1.0625,-0.03125 1.328125,-0.03125 c 0.34375,0 0.6875,0.03125 1,0.03125 0.0625,0 0.1875,0 0.1875,-0.1875 0,-0.109375 -0.078125,-0.125 -0.15625,-0.125 -0.21875,-0.015625 -0.46875,-0.09375 -0.46875,-0.34375 0,-0.125 0.0625,-0.234375 0.140625,-0.375 l 0.765625,-1.265625 h 2.5 c 0.015625,0.203125 0.15625,1.5625 0.15625,1.65625 0,0.296875 -0.515625,0.328125 -0.71875,0.328125 C 4.59375,-0.3125 4.5,-0.3125 4.5,-0.109375 4.5,0 4.609375,0 4.640625,0 5.046875,0 5.46875,-0.03125 5.875,-0.03125 6.125,-0.03125 6.765625,0 7.015625,0 7.0625,0 7.1875,0 7.1875,-0.203125 7.1875,-0.3125 7.09375,-0.3125 6.953125,-0.3125 6.34375,-0.3125 6.34375,-0.375 6.3125,-0.671875 l -0.609375,-6.21875 c -0.015625,-0.203125 -0.015625,-0.25 -0.1875,-0.25 -0.15625,0 -0.203125,0.078125 -0.265625,0.171875 z M 2.984375,-2.609375 4.9375,-5.90625 5.265625,-2.609375 Z m 0,0"
             id="id-b1ccb6f3-3687-4bb1-8748-cb4b9f3e196f"
             style="fill:#00ff00;stroke-width:0" />
        </g>
      </g>
      <g
         fill-opacity="1"
         id="id-3e928083-03d8-43c8-ab12-3cf1a40ea4ed"
         transform="translate(-149.056, -125.121)"
         style="fill:#00ff00;stroke-width:0">
        <g
           transform="translate(161.719, 136.259)"
           style="fill:#00ff00;stroke-width:0"
           id="g603">
          <path
             d="m 2.265625,-4.359375 c 0,-0.109375 -0.09375,-0.265625 -0.28125,-0.265625 -0.1875,0 -0.390625,0.1875 -0.390625,0.390625 0,0.109375 0.078125,0.265625 0.28125,0.265625 0.1875,0 0.390625,-0.203125 0.390625,-0.390625 z M 0.84375,-0.8125 c -0.03125,0.09375 -0.0625,0.171875 -0.0625,0.296875 0,0.328125 0.265625,0.578125 0.65625,0.578125 0.6875,0 1,-0.953125 1,-1.0625 0,-0.09375 -0.09375,-0.09375 -0.109375,-0.09375 -0.09375,0 -0.109375,0.046875 -0.140625,0.125 -0.15625,0.5625 -0.453125,0.84375 -0.734375,0.84375 -0.140625,0 -0.171875,-0.09375 -0.171875,-0.25 0,-0.15625 0.046875,-0.28125 0.109375,-0.4375 C 1.46875,-1 1.546875,-1.1875 1.609375,-1.375 1.671875,-1.546875 1.9375,-2.171875 1.953125,-2.265625 1.984375,-2.328125 2,-2.40625 2,-2.484375 2,-2.8125 1.71875,-3.078125 1.34375,-3.078125 0.640625,-3.078125 0.328125,-2.125 0.328125,-2 c 0,0.078125 0.09375,0.078125 0.125,0.078125 0.09375,0 0.09375,-0.03125 0.125,-0.109375 C 0.75,-2.625 1.0625,-2.875 1.3125,-2.875 c 0.109375,0 0.171875,0.046875 0.171875,0.234375 0,0.171875 -0.03125,0.265625 -0.203125,0.703125 z m 0,0"
             id="id-e163e22c-bcb3-4699-862c-c8c972e3c453"
             style="fill:#00ff00;stroke-width:0" />
        </g>
      </g>
    </g>
  </g>
</svg>
