<?xml version="1.0" encoding="UTF-8" standalone="no"?>
<!-- Created with Inkscape (http://www.inkscape.org/) -->

<svg
   width="41.768597mm"
   height="42.170776mm"
   viewBox="0 0 41.768596 42.170776"
   version="1.1"
   id="svg5"
   inkscape:version="1.2.2 (b0a8486, 2022-12-01)"
   sodipodi:docname="kugelkondensator.svg"
   xmlns:inkscape="http://www.inkscape.org/namespaces/inkscape"
   xmlns:sodipodi="http://sodipodi.sourceforge.net/DTD/sodipodi-0.dtd"
   xmlns="http://www.w3.org/2000/svg"
   xmlns:svg="http://www.w3.org/2000/svg"
   xmlns:ns2="http://www.iki.fi/pav/software/textext/">
  <sodipodi:namedview
     id="namedview7"
     pagecolor="#ffffff"
     bordercolor="#000000"
     borderopacity="0.25"
     inkscape:showpageshadow="2"
     inkscape:pageopacity="0.0"
     inkscape:pagecheckerboard="0"
     inkscape:deskcolor="#d1d1d1"
     inkscape:document-units="mm"
     showgrid="false"
     inkscape:zoom="2.7700012"
     inkscape:cx="44.043302"
     inkscape:cy="63.898889"
     inkscape:window-width="1440"
     inkscape:window-height="780"
     inkscape:window-x="0"
     inkscape:window-y="23"
     inkscape:window-maximized="0"
     inkscape:current-layer="layer1" />
  <defs
     id="defs2" />
  <g
     inkscape:label="Layer 1"
     inkscape:groupmode="layer"
     id="layer1"
     transform="translate(-59.461563,-30.285941)">
    <circle
       style="display:inline;fill:none;stroke:#000000;stroke-width:1.41974;stroke-dasharray:none"
       id="circle3817"
       transform="matrix(0.20454823,0,0,0.20454823,18.24217,10.859364)"
       r="34.485001"
       cy="180.88356"
       cx="303.85837" />
    <circle
       style="display:inline;fill:none;stroke:#0000ff;stroke-width:0.94649;stroke-dasharray:none"
       id="path1753"
       transform="matrix(0.21130699,0,0,0.21130699,16.188463,9.6368147)"
       r="34.485001"
       cy="180.88356"
       cx="303.85837" />
    <circle
       style="display:inline;fill:none;stroke:#000000;stroke-width:0.831268;stroke-dasharray:none"
       id="circle3821"
       transform="matrix(0.36784357,0,0,0.36784357,-31.376484,-18.678077)"
       r="34.485001"
       cy="180.88356"
       cx="303.85837" />
    <circle
       style="display:inline;fill:none;stroke:#ff0000;stroke-width:0.554179;stroke-dasharray:none"
       id="circle2361"
       transform="matrix(0.36089441,0,0,0.36089441,-29.264925,-17.42109)"
       r="34.485001"
       cy="180.88356"
       cx="303.85837" />
    <g
       id="g4034">
      <path
         style="fill:none;stroke:#00ff00;stroke-width:0.755906;stroke-dasharray:none"
         d="m 331.39949,180.88356 h 19.11882"
         id="path3878"
         transform="scale(0.26458333)"
         sodipodi:nodetypes="cc" />
      <path
         style="fill:none;stroke:#00ff00;stroke-width:0.755906;stroke-dasharray:none"
         d="m 340.52981,172.61697 h 3.7734 v 3.76632"
         id="path3934"
         transform="matrix(0.18708867,0.18708867,-0.18708867,0.18708867,60.620754,-48.851133)"
         inkscape:transform-center-x="0.35297944"
         inkscape:transform-center-y="-0.00066103539" />
    </g>
    <g
       id="g4040"
       transform="matrix(-1,0,0,1,160.79172,6.9520519e-7)">
      <path
         style="fill:none;stroke:#00ff00;stroke-width:0.755906;stroke-dasharray:none"
         d="m 331.39949,180.88356 h 19.11882"
         id="path4036"
         transform="scale(0.26458333)"
         sodipodi:nodetypes="cc" />
      <path
         style="fill:none;stroke:#00ff00;stroke-width:0.755906;stroke-dasharray:none"
         d="m 340.52981,172.61697 h 3.7734 v 3.76632"
         id="path4038"
         transform="matrix(0.18708867,0.18708867,-0.18708867,0.18708867,60.620754,-48.851133)"
         inkscape:transform-center-x="0.35297944"
         inkscape:transform-center-y="-0.00066103539" />
    </g>
    <g
       id="g4046"
       transform="matrix(0,-1,-1,0,128.25463,128.25463)">
      <path
         style="fill:none;stroke:#00ff00;stroke-width:0.755906;stroke-dasharray:none"
         d="m 331.39949,180.88356 h 19.11882"
         id="path4042"
         transform="scale(0.26458333)"
         sodipodi:nodetypes="cc" />
      <path
         style="fill:none;stroke:#00ff00;stroke-width:0.755906;stroke-dasharray:none"
         d="m 340.52981,172.61697 h 3.7734 v 3.76632"
         id="path4044"
         transform="matrix(0.18708867,0.18708867,-0.18708867,0.18708867,60.620754,-48.851133)"
         inkscape:transform-center-x="0.35297944"
         inkscape:transform-center-y="-0.00066103539" />
    </g>
    <g
       id="g4052"
       transform="rotate(90,80.395859,47.858776)">
      <path
         style="fill:none;stroke:#00ff00;stroke-width:0.755906;stroke-dasharray:none"
         d="m 331.39949,180.88356 h 19.11882"
         id="path4048"
         transform="scale(0.26458333)"
         sodipodi:nodetypes="cc" />
      <path
         style="fill:none;stroke:#00ff00;stroke-width:0.755906;stroke-dasharray:none"
         d="m 340.52981,172.61697 h 3.7734 v 3.76632"
         id="path4050"
         transform="matrix(0.18708867,0.18708867,-0.18708867,0.18708867,60.620754,-48.851133)"
         inkscape:transform-center-x="0.35297944"
         inkscape:transform-center-y="-0.00066103539" />
    </g>
    <g
       id="g4058"
       transform="rotate(135,80.427092,47.932075)">
      <path
         style="fill:none;stroke:#00ff00;stroke-width:0.755906;stroke-dasharray:none"
         d="m 331.39949,180.88356 h 19.11882"
         id="path4054"
         transform="scale(0.26458333)"
         sodipodi:nodetypes="cc" />
      <path
         style="fill:none;stroke:#00ff00;stroke-width:0.755906;stroke-dasharray:none"
         d="m 340.52981,172.61697 h 3.7734 v 3.76632"
         id="path4056"
         transform="matrix(0.18708867,0.18708867,-0.18708867,0.18708867,60.620754,-48.851133)"
         inkscape:transform-center-x="0.35297944"
         inkscape:transform-center-y="-0.00066103539" />
    </g>
    <g
       id="g4066"
       transform="rotate(-45,80.574692,47.786811)">
      <path
         style="fill:none;stroke:#00ff00;stroke-width:0.755906;stroke-dasharray:none"
         d="m 331.39949,180.88356 h 19.11882"
         id="path4062"
         transform="scale(0.26458333)"
         sodipodi:nodetypes="cc" />
      <path
         style="fill:none;stroke:#00ff00;stroke-width:0.755906;stroke-dasharray:none"
         d="m 340.52981,172.61697 h 3.7734 v 3.76632"
         id="path4064"
         transform="matrix(0.18708867,0.18708867,-0.18708867,0.18708867,60.620754,-48.851133)"
         inkscape:transform-center-x="0.35297944"
         inkscape:transform-center-y="-0.00066103539" />
    </g>
    <g
       id="g4084"
       transform="rotate(45,80.574301,47.930593)"
       inkscape:transform-center-x="-7.0441333"
       inkscape:transform-center-y="6.835945">
      <path
         style="fill:none;stroke:#00ff00;stroke-width:0.755906;stroke-dasharray:none"
         d="m 331.39949,180.88356 h 19.11882"
         id="path4080"
         transform="scale(0.26458333)"
         sodipodi:nodetypes="cc" />
      <path
         style="fill:none;stroke:#00ff00;stroke-width:0.755906;stroke-dasharray:none"
         d="m 340.52981,172.61697 h 3.7734 v 3.76632"
         id="path4082"
         transform="matrix(0.18708867,0.18708867,-0.18708867,0.18708867,60.620754,-48.851133)"
         inkscape:transform-center-x="0.35297944"
         inkscape:transform-center-y="-0.00066103539" />
    </g>
    <g
       id="g4090"
       transform="rotate(-135,80.427162,47.785321)"
       inkscape:transform-center-x="6.835716"
       inkscape:transform-center-y="-7.0443519">
      <path
         style="fill:none;stroke:#00ff00;stroke-width:0.755906;stroke-dasharray:none"
         d="m 331.39949,180.88356 h 19.11882"
         id="path4086"
         transform="scale(0.26458333)"
         sodipodi:nodetypes="cc" />
      <path
         style="fill:none;stroke:#00ff00;stroke-width:0.755906;stroke-dasharray:none"
         d="m 340.52981,172.61697 h 3.7734 v 3.76632"
         id="path4088"
         transform="matrix(0.18708867,0.18708867,-0.18708867,0.18708867,60.620754,-48.851133)"
         inkscape:transform-center-x="0.35297944"
         inkscape:transform-center-y="-0.00066103539" />
    </g>
    <g
       transform="matrix(0.352778,0,0,0.352778,82.868915,62.775692)"
       ns2:version="1.8.2"
       ns2:texconverter="pdflatex"
       ns2:pdfconverter="inkscape"
       ns2:text="$r_i$"
       ns2:preamble="/Users/hendrik/Library/Application Support/org.inkscape.Inkscape/config/inkscape/extensions/textext/default_packages.tex"
       ns2:scale="1.0000000850393187"
       ns2:alignment="middle center"
       ns2:stroke-to-path="0"
       ns2:inkscapeversion="1.2.2"
       ns2:jacobian_sqrt="0.352778"
       id="g4992">
      <defs
         id="id-8738b062-88c7-4f7d-9803-4be0649514d9">
        <g
           id="id-b935b9d3-8cfd-4cb4-9c23-ab007b81fb50">
          <g
             id="id-fc7a4405-3fdd-4c45-8ab0-17114027722b" />
          <g
             id="id-df663b56-ac42-44d3-a988-422de7fa93e5">
            <path
               d="m 0.875,-0.59375 c -0.03125,0.15625 -0.09375,0.390625 -0.09375,0.4375 0,0.171875 0.140625,0.265625 0.296875,0.265625 0.125,0 0.296875,-0.078125 0.375,-0.28125 C 1.46875,-0.203125 1.796875,-1.5625 1.84375,-1.75 c 0.078125,-0.328125 0.265625,-1.015625 0.3125,-1.296875 0.046875,-0.125 0.328125,-0.59375 0.5625,-0.8125 0.078125,-0.0625 0.375,-0.328125 0.796875,-0.328125 0.265625,0 0.40625,0.125 0.421875,0.125 -0.296875,0.046875 -0.515625,0.28125 -0.515625,0.546875 0,0.15625 0.109375,0.34375 0.375,0.34375 0.265625,0 0.546875,-0.234375 0.546875,-0.59375 0,-0.34375 -0.3125,-0.640625 -0.828125,-0.640625 C 2.875,-4.40625 2.4375,-3.921875 2.25,-3.640625 2.15625,-4.09375 1.796875,-4.40625 1.328125,-4.40625 0.875,-4.40625 0.6875,-4.015625 0.59375,-3.84375 0.421875,-3.5 0.296875,-2.90625 0.296875,-2.875 c 0,0.109375 0.09375,0.109375 0.109375,0.109375 0.109375,0 0.109375,-0.015625 0.171875,-0.234375 0.171875,-0.703125 0.375,-1.1875 0.734375,-1.1875 0.15625,0 0.296875,0.078125 0.296875,0.453125 0,0.21875 -0.03125,0.328125 -0.15625,0.84375 z m 0,0"
               id="id-571f797a-1044-4af2-abca-5fa8184bdb0b" />
          </g>
          <g
             id="id-6f0d5685-c3de-42d5-bbf7-a9ba5e8ea526" />
          <g
             id="id-49f1f23f-90fd-4df5-82e9-de9951dd25dc">
            <path
               d="m 2.265625,-4.359375 c 0,-0.109375 -0.09375,-0.265625 -0.28125,-0.265625 -0.1875,0 -0.390625,0.1875 -0.390625,0.390625 0,0.109375 0.078125,0.265625 0.28125,0.265625 0.1875,0 0.390625,-0.203125 0.390625,-0.390625 z M 0.84375,-0.8125 c -0.03125,0.09375 -0.0625,0.171875 -0.0625,0.296875 0,0.328125 0.265625,0.578125 0.65625,0.578125 0.6875,0 1,-0.953125 1,-1.0625 0,-0.09375 -0.09375,-0.09375 -0.109375,-0.09375 -0.09375,0 -0.109375,0.046875 -0.140625,0.125 -0.15625,0.5625 -0.453125,0.84375 -0.734375,0.84375 -0.140625,0 -0.171875,-0.09375 -0.171875,-0.25 0,-0.15625 0.046875,-0.28125 0.109375,-0.4375 C 1.46875,-1 1.546875,-1.1875 1.609375,-1.375 1.671875,-1.546875 1.9375,-2.171875 1.953125,-2.265625 1.984375,-2.328125 2,-2.40625 2,-2.484375 2,-2.8125 1.71875,-3.078125 1.34375,-3.078125 0.640625,-3.078125 0.328125,-2.125 0.328125,-2 c 0,0.078125 0.09375,0.078125 0.125,0.078125 0.09375,0 0.09375,-0.03125 0.125,-0.109375 C 0.75,-2.625 1.0625,-2.875 1.3125,-2.875 c 0.109375,0 0.171875,0.046875 0.171875,0.234375 0,0.171875 -0.03125,0.265625 -0.203125,0.703125 z m 0,0"
               id="id-dce70b4a-83b2-4c47-8ee5-f0fff9d4afef" />
          </g>
        </g>
      </defs>
      <g
         fill="#000000"
         fill-opacity="1"
         id="id-8c7e7d07-aeb3-4070-ac5d-1e419b5d11f0"
         transform="translate(-149.009,-130.359)">
        <g
           transform="translate(148.712,134.765)"
           id="g4985">
          <path
             d="m 0.875,-0.59375 c -0.03125,0.15625 -0.09375,0.390625 -0.09375,0.4375 0,0.171875 0.140625,0.265625 0.296875,0.265625 0.125,0 0.296875,-0.078125 0.375,-0.28125 C 1.46875,-0.203125 1.796875,-1.5625 1.84375,-1.75 c 0.078125,-0.328125 0.265625,-1.015625 0.3125,-1.296875 0.046875,-0.125 0.328125,-0.59375 0.5625,-0.8125 0.078125,-0.0625 0.375,-0.328125 0.796875,-0.328125 0.265625,0 0.40625,0.125 0.421875,0.125 -0.296875,0.046875 -0.515625,0.28125 -0.515625,0.546875 0,0.15625 0.109375,0.34375 0.375,0.34375 0.265625,0 0.546875,-0.234375 0.546875,-0.59375 0,-0.34375 -0.3125,-0.640625 -0.828125,-0.640625 C 2.875,-4.40625 2.4375,-3.921875 2.25,-3.640625 2.15625,-4.09375 1.796875,-4.40625 1.328125,-4.40625 0.875,-4.40625 0.6875,-4.015625 0.59375,-3.84375 0.421875,-3.5 0.296875,-2.90625 0.296875,-2.875 c 0,0.109375 0.09375,0.109375 0.109375,0.109375 0.109375,0 0.109375,-0.015625 0.171875,-0.234375 0.171875,-0.703125 0.375,-1.1875 0.734375,-1.1875 0.15625,0 0.296875,0.078125 0.296875,0.453125 0,0.21875 -0.03125,0.328125 -0.15625,0.84375 z m 0,0"
             id="id-3cc76b95-850d-47e9-a964-8e0e16a8d4d0" />
        </g>
      </g>
      <g
         fill="#000000"
         fill-opacity="1"
         id="id-a810c9af-ac45-4641-9be9-f3316e28406b"
         transform="translate(-149.009,-130.359)">
        <g
           transform="translate(153.207,136.259)"
           id="g4989">
          <path
             d="m 2.265625,-4.359375 c 0,-0.109375 -0.09375,-0.265625 -0.28125,-0.265625 -0.1875,0 -0.390625,0.1875 -0.390625,0.390625 0,0.109375 0.078125,0.265625 0.28125,0.265625 0.1875,0 0.390625,-0.203125 0.390625,-0.390625 z M 0.84375,-0.8125 c -0.03125,0.09375 -0.0625,0.171875 -0.0625,0.296875 0,0.328125 0.265625,0.578125 0.65625,0.578125 0.6875,0 1,-0.953125 1,-1.0625 0,-0.09375 -0.09375,-0.09375 -0.109375,-0.09375 -0.09375,0 -0.109375,0.046875 -0.140625,0.125 -0.15625,0.5625 -0.453125,0.84375 -0.734375,0.84375 -0.140625,0 -0.171875,-0.09375 -0.171875,-0.25 0,-0.15625 0.046875,-0.28125 0.109375,-0.4375 C 1.46875,-1 1.546875,-1.1875 1.609375,-1.375 1.671875,-1.546875 1.9375,-2.171875 1.953125,-2.265625 1.984375,-2.328125 2,-2.40625 2,-2.484375 2,-2.8125 1.71875,-3.078125 1.34375,-3.078125 0.640625,-3.078125 0.328125,-2.125 0.328125,-2 c 0,0.078125 0.09375,0.078125 0.125,0.078125 0.09375,0 0.09375,-0.03125 0.125,-0.109375 C 0.75,-2.625 1.0625,-2.875 1.3125,-2.875 c 0.109375,0 0.171875,0.046875 0.171875,0.234375 0,0.171875 -0.03125,0.265625 -0.203125,0.703125 z m 0,0"
             id="id-aab8454a-9776-4dbd-b483-ea68c10dcd9b" />
        </g>
      </g>
    </g>
    <g
       transform="matrix(0.352778,0,0,0.352778,85.175323,67.219455)"
       ns2:version="1.8.2"
       ns2:texconverter="pdflatex"
       ns2:pdfconverter="inkscape"
       ns2:text="$r_a$"
       ns2:preamble="/Users/hendrik/Library/Application Support/org.inkscape.Inkscape/config/inkscape/extensions/textext/default_packages.tex"
       ns2:scale="1.0000000850393187"
       ns2:alignment="middle center"
       ns2:stroke-to-path="0"
       ns2:inkscapeversion="1.2.2"
       ns2:jacobian_sqrt="0.352778"
       id="g5086">
      <defs
         id="id-c256e91b-72e8-4b3c-b39e-656bf4b6d076">
        <g
           id="id-d313e1a6-4e1b-46c3-a9f4-20e47dc92737">
          <g
             id="id-e6a07bae-80f4-456b-b057-c6d03ee32bc8" />
          <g
             id="id-943d4f6f-9170-4488-9cac-dda3618f1746">
            <path
               d="m 0.875,-0.59375 c -0.03125,0.15625 -0.09375,0.390625 -0.09375,0.4375 0,0.171875 0.140625,0.265625 0.296875,0.265625 0.125,0 0.296875,-0.078125 0.375,-0.28125 C 1.46875,-0.203125 1.796875,-1.5625 1.84375,-1.75 c 0.078125,-0.328125 0.265625,-1.015625 0.3125,-1.296875 0.046875,-0.125 0.328125,-0.59375 0.5625,-0.8125 0.078125,-0.0625 0.375,-0.328125 0.796875,-0.328125 0.265625,0 0.40625,0.125 0.421875,0.125 -0.296875,0.046875 -0.515625,0.28125 -0.515625,0.546875 0,0.15625 0.109375,0.34375 0.375,0.34375 0.265625,0 0.546875,-0.234375 0.546875,-0.59375 0,-0.34375 -0.3125,-0.640625 -0.828125,-0.640625 C 2.875,-4.40625 2.4375,-3.921875 2.25,-3.640625 2.15625,-4.09375 1.796875,-4.40625 1.328125,-4.40625 0.875,-4.40625 0.6875,-4.015625 0.59375,-3.84375 0.421875,-3.5 0.296875,-2.90625 0.296875,-2.875 c 0,0.109375 0.09375,0.109375 0.109375,0.109375 0.109375,0 0.109375,-0.015625 0.171875,-0.234375 0.171875,-0.703125 0.375,-1.1875 0.734375,-1.1875 0.15625,0 0.296875,0.078125 0.296875,0.453125 0,0.21875 -0.03125,0.328125 -0.15625,0.84375 z m 0,0"
               id="id-04d1390e-0928-466a-98f6-b1ee31962056" />
          </g>
          <g
             id="id-0f042e7d-70d7-4d37-a574-6624080ece67" />
          <g
             id="id-938d9834-c27b-4433-b6b0-d0c48ff9b159">
            <path
               d="m 2.9375,-2.65625 c -0.140625,-0.234375 -0.375,-0.421875 -0.71875,-0.421875 -0.890625,0 -1.796875,0.984375 -1.796875,1.984375 0,0.6875 0.453125,1.15625 1.0625,1.15625 0.375,0 0.703125,-0.203125 0.984375,-0.484375 C 2.59375,0 3,0.0625 3.1875,0.0625 c 0.25,0 0.421875,-0.140625 0.546875,-0.359375 0.15625,-0.28125 0.25,-0.671875 0.25,-0.703125 0,-0.09375 -0.09375,-0.09375 -0.109375,-0.09375 -0.109375,0 -0.109375,0.03125 -0.15625,0.21875 C 3.625,-0.53125 3.5,-0.125 3.203125,-0.125 3.03125,-0.125 2.96875,-0.28125 2.96875,-0.46875 c 0,-0.109375 0.0625,-0.375 0.109375,-0.546875 0.046875,-0.1875 0.125,-0.46875 0.15625,-0.625 L 3.375,-2.171875 C 3.421875,-2.359375 3.5,-2.6875 3.5,-2.71875 3.5,-2.875 3.375,-2.9375 3.265625,-2.9375 c -0.125,0 -0.28125,0.078125 -0.328125,0.28125 z M 2.5,-0.875 C 2.453125,-0.671875 2.296875,-0.53125 2.140625,-0.40625 2.078125,-0.34375 1.796875,-0.125 1.5,-0.125 c -0.265625,0 -0.515625,-0.1875 -0.515625,-0.671875 0,-0.375 0.203125,-1.140625 0.375,-1.421875 0.3125,-0.5625 0.671875,-0.65625 0.859375,-0.65625 0.484375,0 0.625,0.53125 0.625,0.609375 0,0.015625 -0.015625,0.078125 -0.015625,0.09375 z m 0,0"
               id="id-54ba39b3-7ead-4e6e-919b-bc1f9fbf5515" />
          </g>
        </g>
      </defs>
      <g
         fill="#000000"
         fill-opacity="1"
         id="id-f7fe9f8d-2a77-4209-b968-780cb8c827bd"
         transform="translate(-149.009,-130.359)">
        <g
           transform="translate(148.712,134.765)"
           id="g5204">
          <path
             d="m 0.875,-0.59375 c -0.03125,0.15625 -0.09375,0.390625 -0.09375,0.4375 0,0.171875 0.140625,0.265625 0.296875,0.265625 0.125,0 0.296875,-0.078125 0.375,-0.28125 C 1.46875,-0.203125 1.796875,-1.5625 1.84375,-1.75 c 0.078125,-0.328125 0.265625,-1.015625 0.3125,-1.296875 0.046875,-0.125 0.328125,-0.59375 0.5625,-0.8125 0.078125,-0.0625 0.375,-0.328125 0.796875,-0.328125 0.265625,0 0.40625,0.125 0.421875,0.125 -0.296875,0.046875 -0.515625,0.28125 -0.515625,0.546875 0,0.15625 0.109375,0.34375 0.375,0.34375 0.265625,0 0.546875,-0.234375 0.546875,-0.59375 0,-0.34375 -0.3125,-0.640625 -0.828125,-0.640625 C 2.875,-4.40625 2.4375,-3.921875 2.25,-3.640625 2.15625,-4.09375 1.796875,-4.40625 1.328125,-4.40625 0.875,-4.40625 0.6875,-4.015625 0.59375,-3.84375 0.421875,-3.5 0.296875,-2.90625 0.296875,-2.875 c 0,0.109375 0.09375,0.109375 0.109375,0.109375 0.109375,0 0.109375,-0.015625 0.171875,-0.234375 0.171875,-0.703125 0.375,-1.1875 0.734375,-1.1875 0.15625,0 0.296875,0.078125 0.296875,0.453125 0,0.21875 -0.03125,0.328125 -0.15625,0.84375 z m 0,0"
             id="id-a18b4231-fc40-467e-97ff-c345bc5edecb" />
        </g>
      </g>
      <g
         fill="#000000"
         fill-opacity="1"
         id="id-4756e0d3-5024-4c3b-a754-a4844dccb1dd"
         transform="translate(-149.009,-130.359)">
        <g
           transform="translate(153.207,136.259)"
           id="g5208">
          <path
             d="m 2.9375,-2.65625 c -0.140625,-0.234375 -0.375,-0.421875 -0.71875,-0.421875 -0.890625,0 -1.796875,0.984375 -1.796875,1.984375 0,0.6875 0.453125,1.15625 1.0625,1.15625 0.375,0 0.703125,-0.203125 0.984375,-0.484375 C 2.59375,0 3,0.0625 3.1875,0.0625 c 0.25,0 0.421875,-0.140625 0.546875,-0.359375 0.15625,-0.28125 0.25,-0.671875 0.25,-0.703125 0,-0.09375 -0.09375,-0.09375 -0.109375,-0.09375 -0.109375,0 -0.109375,0.03125 -0.15625,0.21875 C 3.625,-0.53125 3.5,-0.125 3.203125,-0.125 3.03125,-0.125 2.96875,-0.28125 2.96875,-0.46875 c 0,-0.109375 0.0625,-0.375 0.109375,-0.546875 0.046875,-0.1875 0.125,-0.46875 0.15625,-0.625 L 3.375,-2.171875 C 3.421875,-2.359375 3.5,-2.6875 3.5,-2.71875 3.5,-2.875 3.375,-2.9375 3.265625,-2.9375 c -0.125,0 -0.28125,0.078125 -0.328125,0.28125 z M 2.5,-0.875 C 2.453125,-0.671875 2.296875,-0.53125 2.140625,-0.40625 2.078125,-0.34375 1.796875,-0.125 1.5,-0.125 c -0.265625,0 -0.515625,-0.1875 -0.515625,-0.671875 0,-0.375 0.203125,-1.140625 0.375,-1.421875 0.3125,-0.5625 0.671875,-0.65625 0.859375,-0.65625 0.484375,0 0.625,0.53125 0.625,0.609375 0,0.015625 -0.015625,0.078125 -0.015625,0.09375 z m 0,0"
             id="id-64ab64a8-c105-435e-a533-237d6519580b" />
        </g>
      </g>
    </g>
    <g
       transform="matrix(0.352778,0,0,0.352778,63.0105,48.3803)"
       ns2:version="1.8.2"
       ns2:texconverter="pdflatex"
       ns2:pdfconverter="inkscape"
       ns2:text="$\\phi_a$"
       ns2:preamble="/Users/hendrik/Library/Application Support/org.inkscape.Inkscape/config/inkscape/extensions/textext/default_packages.tex"
       ns2:scale="1.0000000850393187"
       ns2:alignment="middle center"
       ns2:stroke-to-path="0"
       ns2:inkscapeversion="1.2.2"
       ns2:jacobian_sqrt="0.352778"
       style="fill:#ff0000;stroke-width:0"
       id="g5367">
      <defs
         id="id-cacd1bea-7efd-4662-9b31-e85802456fea"
         style="fill:#0000ff;stroke-width:0">
        <g
           id="id-6fdfe5cf-2e8d-4b4c-bed8-2b6b16ade85f"
           style="fill:#0000ff;stroke-width:0">
          <g
             id="id-2bff2c44-21d5-419e-9366-d84d96f72996"
             style="fill:#0000ff;stroke-width:0" />
          <g
             id="id-b32596c8-381a-4756-8ffa-cc68ad6fabf8"
             style="fill:#0000ff;stroke-width:0">
            <path
               d="m 4.359375,-6.671875 c 0,-0.03125 0.03125,-0.140625 0.03125,-0.140625 0,-0.015625 0,-0.109375 -0.125,-0.109375 -0.09375,0 -0.109375,0.03125 -0.15625,0.203125 L 3.53125,-4.421875 c -1.578125,0.0625 -3.046875,1.375 -3.046875,2.734375 0,0.953125 0.703125,1.734375 1.921875,1.8125 C 2.328125,0.421875 2.25,0.75 2.171875,1.0625 c -0.125,0.46875 -0.21875,0.84375 -0.21875,0.875 0,0.09375 0.078125,0.109375 0.125,0.109375 C 2.125,2.046875 2.140625,2.03125 2.171875,2 2.1875,1.984375 2.25,1.75 2.28125,1.609375 L 2.65625,0.125 c 1.609375,-0.0625 3.0625,-1.40625 3.0625,-2.734375 0,-0.796875 -0.53125,-1.703125 -1.921875,-1.8125 z m -1.90625,6.578125 c -0.59375,-0.03125 -1.3125,-0.390625 -1.3125,-1.375 0,-1.203125 0.859375,-2.59375 2.34375,-2.734375 z m 1.28125,-4.109375 c 0.765625,0.046875 1.328125,0.5 1.328125,1.375 0,1.1875 -0.859375,2.609375 -2.34375,2.734375 z m 0,0"
               id="id-776badfd-b469-471e-a341-6936be48d5a8"
               style="fill:#0000ff;stroke-width:0" />
          </g>
          <g
             id="id-23a02a92-ea05-438e-8899-1c96dcffb167"
             style="fill:#0000ff;stroke-width:0" />
          <g
             id="id-163e3d40-a3fc-4aac-82b7-6a247e46c79d"
             style="fill:#0000ff;stroke-width:0">
            <path
               d="m 2.9375,-2.65625 c -0.140625,-0.234375 -0.375,-0.421875 -0.71875,-0.421875 -0.890625,0 -1.796875,0.984375 -1.796875,1.984375 0,0.6875 0.453125,1.15625 1.0625,1.15625 0.375,0 0.703125,-0.203125 0.984375,-0.484375 C 2.59375,0 3,0.0625 3.1875,0.0625 c 0.25,0 0.421875,-0.140625 0.546875,-0.359375 0.15625,-0.28125 0.25,-0.671875 0.25,-0.703125 0,-0.09375 -0.09375,-0.09375 -0.109375,-0.09375 -0.109375,0 -0.109375,0.03125 -0.15625,0.21875 C 3.625,-0.53125 3.5,-0.125 3.203125,-0.125 3.03125,-0.125 2.96875,-0.28125 2.96875,-0.46875 c 0,-0.109375 0.0625,-0.375 0.109375,-0.546875 0.046875,-0.1875 0.125,-0.46875 0.15625,-0.625 L 3.375,-2.171875 C 3.421875,-2.359375 3.5,-2.6875 3.5,-2.71875 3.5,-2.875 3.375,-2.9375 3.265625,-2.9375 c -0.125,0 -0.28125,0.078125 -0.328125,0.28125 z M 2.5,-0.875 C 2.453125,-0.671875 2.296875,-0.53125 2.140625,-0.40625 2.078125,-0.34375 1.796875,-0.125 1.5,-0.125 c -0.265625,0 -0.515625,-0.1875 -0.515625,-0.671875 0,-0.375 0.203125,-1.140625 0.375,-1.421875 0.3125,-0.5625 0.671875,-0.65625 0.859375,-0.65625 0.484375,0 0.625,0.53125 0.625,0.609375 0,0.015625 -0.015625,0.078125 -0.015625,0.09375 z m 0,0"
               id="id-2f1db71f-3ca0-4afd-815a-fec4103fbf43"
               style="fill:#0000ff;stroke-width:0" />
          </g>
        </g>
      </defs>
      <g
         fill-opacity="1"
         id="id-ac86fac2-36ec-409a-883b-144ed8cae62b"
         transform="translate(-149.196,-127.843)"
         style="fill:#ff0000;stroke-width:0">
        <g
           transform="translate(148.712,134.765)"
           style="fill:#ff0000;stroke-width:0"
           id="g5609">
          <path
             d="m 4.359375,-6.671875 c 0,-0.03125 0.03125,-0.140625 0.03125,-0.140625 0,-0.015625 0,-0.109375 -0.125,-0.109375 -0.09375,0 -0.109375,0.03125 -0.15625,0.203125 L 3.53125,-4.421875 c -1.578125,0.0625 -3.046875,1.375 -3.046875,2.734375 0,0.953125 0.703125,1.734375 1.921875,1.8125 C 2.328125,0.421875 2.25,0.75 2.171875,1.0625 c -0.125,0.46875 -0.21875,0.84375 -0.21875,0.875 0,0.09375 0.078125,0.109375 0.125,0.109375 C 2.125,2.046875 2.140625,2.03125 2.171875,2 2.1875,1.984375 2.25,1.75 2.28125,1.609375 L 2.65625,0.125 c 1.609375,-0.0625 3.0625,-1.40625 3.0625,-2.734375 0,-0.796875 -0.53125,-1.703125 -1.921875,-1.8125 z m -1.90625,6.578125 c -0.59375,-0.03125 -1.3125,-0.390625 -1.3125,-1.375 0,-1.203125 0.859375,-2.59375 2.34375,-2.734375 z m 1.28125,-4.109375 c 0.765625,0.046875 1.328125,0.5 1.328125,1.375 0,1.1875 -0.859375,2.609375 -2.34375,2.734375 z m 0,0"
             id="id-e35654d6-8b74-4031-b277-ec63232f811d"
             style="fill:#ff0000;stroke-width:0" />
        </g>
      </g>
      <g
         fill-opacity="1"
         id="id-a43ad4f5-050f-4cd4-ba30-f3dd28266651"
         transform="translate(-149.196,-127.843)"
         style="fill:#ff0000;stroke-width:0">
        <g
           transform="translate(154.648,136.259)"
           style="fill:#ff0000;stroke-width:0"
           id="g5613">
          <path
             d="m 2.9375,-2.65625 c -0.140625,-0.234375 -0.375,-0.421875 -0.71875,-0.421875 -0.890625,0 -1.796875,0.984375 -1.796875,1.984375 0,0.6875 0.453125,1.15625 1.0625,1.15625 0.375,0 0.703125,-0.203125 0.984375,-0.484375 C 2.59375,0 3,0.0625 3.1875,0.0625 c 0.25,0 0.421875,-0.140625 0.546875,-0.359375 0.15625,-0.28125 0.25,-0.671875 0.25,-0.703125 0,-0.09375 -0.09375,-0.09375 -0.109375,-0.09375 -0.109375,0 -0.109375,0.03125 -0.15625,0.21875 C 3.625,-0.53125 3.5,-0.125 3.203125,-0.125 3.03125,-0.125 2.96875,-0.28125 2.96875,-0.46875 c 0,-0.109375 0.0625,-0.375 0.109375,-0.546875 0.046875,-0.1875 0.125,-0.46875 0.15625,-0.625 L 3.375,-2.171875 C 3.421875,-2.359375 3.5,-2.6875 3.5,-2.71875 3.5,-2.875 3.375,-2.9375 3.265625,-2.9375 c -0.125,0 -0.28125,0.078125 -0.328125,0.28125 z M 2.5,-0.875 C 2.453125,-0.671875 2.296875,-0.53125 2.140625,-0.40625 2.078125,-0.34375 1.796875,-0.125 1.5,-0.125 c -0.265625,0 -0.515625,-0.1875 -0.515625,-0.671875 0,-0.375 0.203125,-1.140625 0.375,-1.421875 0.3125,-0.5625 0.671875,-0.65625 0.859375,-0.65625 0.484375,0 0.625,0.53125 0.625,0.609375 0,0.015625 -0.015625,0.078125 -0.015625,0.09375 z m 0,0"
             id="id-604f2e6f-0392-4195-ad34-aca3f35f8b91"
             style="fill:#ff0000;stroke-width:0" />
        </g>
      </g>
    </g>
    <g
       id="g5828"
       transform="translate(0,0.52916667)">
      <path
         style="fill:#ff0000;stroke:#000000;stroke-width:0.377953;stroke-dasharray:none"
         d="m 303.85838,180.88357 h 27.54111"
         id="path5765"
         transform="matrix(0.26458333,0,0,0.26458333,0,13.758336)" />
      <path
         style="fill:#ff0000;stroke:#000000;stroke-width:0.377953;stroke-dasharray:none"
         d="m 331.39949,230.43763 v 3.79597"
         id="path5821"
         transform="matrix(0.26458333,0,0,0.26458333,0,0.1449826)" />
      <path
         style="fill:#ff0000;stroke:#000000;stroke-width:0.377953;stroke-dasharray:none"
         d="m 331.39949,230.43763 v 3.79597"
         id="path5823"
         transform="matrix(0.26458333,0,0,0.26458333,-7.2869186,0.1449826)" />
    </g>
    <g
       id="g5859"
       transform="translate(0,0.52916667)">
      <path
         style="fill:#ff0000;stroke:#000000;stroke-width:0.377953;stroke-dasharray:none"
         d="m 303.85837,180.88356 h 47.0379"
         id="path5830"
         transform="matrix(0.26458333,0,0,0.26458333,0,17.991672)" />
      <path
         style="fill:#ff0000;stroke:#000000;stroke-width:0.377953;stroke-dasharray:none"
         d="m 302.06648,247.82143 v 3.78218"
         id="path5832"
         transform="matrix(0.26458333,0,0,0.26458333,0.47410422,-0.21932344)" />
      <path
         style="fill:#ff0000;stroke:#000000;stroke-width:0.377953;stroke-dasharray:none"
         d="m 302.06648,247.82143 v 3.78218"
         id="path5832-6"
         transform="matrix(0.26458333,0,0,0.26458333,12.919548,-0.21932344)" />
    </g>
    <g
       transform="matrix(0.352778,0,0,0.352778,75.692,48.3803)"
       ns2:version="1.8.2"
       ns2:texconverter="pdflatex"
       ns2:pdfconverter="inkscape"
       ns2:text="$\\phi_i$"
       ns2:preamble="/Users/hendrik/Library/Application Support/org.inkscape.Inkscape/config/inkscape/extensions/textext/default_packages.tex"
       ns2:scale="1.0000000850393187"
       ns2:alignment="middle center"
       ns2:stroke-to-path="0"
       ns2:inkscapeversion="1.2.2"
       ns2:jacobian_sqrt="0.352778"
       style="fill:#0000ff;stroke-width:0"
       id="g5974">
      <defs
         id="id-5ef872c1-3fa6-4b0b-98d5-26e675193446"
         style="fill:#ff0000;stroke-width:0">
        <g
           id="id-c088949d-7e9a-4ebf-99df-b4783136d01c"
           style="fill:#ff0000;stroke-width:0">
          <g
             id="id-fdb50eeb-a97b-44e7-9c26-4bcd0c8bfc89"
             style="fill:#ff0000;stroke-width:0" />
          <g
             id="id-27eb0674-6a65-48ce-aa1a-f0fa22681741"
             style="fill:#ff0000;stroke-width:0">
            <path
               d="m 4.359375,-6.671875 c 0,-0.03125 0.03125,-0.140625 0.03125,-0.140625 0,-0.015625 0,-0.109375 -0.125,-0.109375 -0.09375,0 -0.109375,0.03125 -0.15625,0.203125 L 3.53125,-4.421875 c -1.578125,0.0625 -3.046875,1.375 -3.046875,2.734375 0,0.953125 0.703125,1.734375 1.921875,1.8125 C 2.328125,0.421875 2.25,0.75 2.171875,1.0625 c -0.125,0.46875 -0.21875,0.84375 -0.21875,0.875 0,0.09375 0.078125,0.109375 0.125,0.109375 C 2.125,2.046875 2.140625,2.03125 2.171875,2 2.1875,1.984375 2.25,1.75 2.28125,1.609375 L 2.65625,0.125 c 1.609375,-0.0625 3.0625,-1.40625 3.0625,-2.734375 0,-0.796875 -0.53125,-1.703125 -1.921875,-1.8125 z m -1.90625,6.578125 c -0.59375,-0.03125 -1.3125,-0.390625 -1.3125,-1.375 0,-1.203125 0.859375,-2.59375 2.34375,-2.734375 z m 1.28125,-4.109375 c 0.765625,0.046875 1.328125,0.5 1.328125,1.375 0,1.1875 -0.859375,2.609375 -2.34375,2.734375 z m 0,0"
               id="id-5925cc31-a299-40fa-bde9-bae705667a92"
               style="fill:#ff0000;stroke-width:0" />
          </g>
          <g
             id="id-98969af6-98c5-487f-b67d-ee452c5b3441"
             style="fill:#ff0000;stroke-width:0" />
          <g
             id="id-4233effe-3ad0-4506-8cfe-b16673fb1e80"
             style="fill:#ff0000;stroke-width:0">
            <path
               d="m 2.265625,-4.359375 c 0,-0.109375 -0.09375,-0.265625 -0.28125,-0.265625 -0.1875,0 -0.390625,0.1875 -0.390625,0.390625 0,0.109375 0.078125,0.265625 0.28125,0.265625 0.1875,0 0.390625,-0.203125 0.390625,-0.390625 z M 0.84375,-0.8125 c -0.03125,0.09375 -0.0625,0.171875 -0.0625,0.296875 0,0.328125 0.265625,0.578125 0.65625,0.578125 0.6875,0 1,-0.953125 1,-1.0625 0,-0.09375 -0.09375,-0.09375 -0.109375,-0.09375 -0.09375,0 -0.109375,0.046875 -0.140625,0.125 -0.15625,0.5625 -0.453125,0.84375 -0.734375,0.84375 -0.140625,0 -0.171875,-0.09375 -0.171875,-0.25 0,-0.15625 0.046875,-0.28125 0.109375,-0.4375 C 1.46875,-1 1.546875,-1.1875 1.609375,-1.375 1.671875,-1.546875 1.9375,-2.171875 1.953125,-2.265625 1.984375,-2.328125 2,-2.40625 2,-2.484375 2,-2.8125 1.71875,-3.078125 1.34375,-3.078125 0.640625,-3.078125 0.328125,-2.125 0.328125,-2 c 0,0.078125 0.09375,0.078125 0.125,0.078125 0.09375,0 0.09375,-0.03125 0.125,-0.109375 C 0.75,-2.625 1.0625,-2.875 1.3125,-2.875 c 0.109375,0 0.171875,0.046875 0.171875,0.234375 0,0.171875 -0.03125,0.265625 -0.203125,0.703125 z m 0,0"
               id="id-89e680c2-3a63-40b0-9828-67cc323f9ce2"
               style="fill:#ff0000;stroke-width:0" />
          </g>
        </g>
      </defs>
      <g
         fill-opacity="1"
         id="id-ce5cd4d4-fc26-4164-9003-94463fba001e"
         transform="translate(-149.196,-127.843)"
         style="fill:#0000ff;stroke-width:0">
        <g
           transform="translate(148.712,134.765)"
           style="fill:#0000ff;stroke-width:0"
           id="g6168">
          <path
             d="m 4.359375,-6.671875 c 0,-0.03125 0.03125,-0.140625 0.03125,-0.140625 0,-0.015625 0,-0.109375 -0.125,-0.109375 -0.09375,0 -0.109375,0.03125 -0.15625,0.203125 L 3.53125,-4.421875 c -1.578125,0.0625 -3.046875,1.375 -3.046875,2.734375 0,0.953125 0.703125,1.734375 1.921875,1.8125 C 2.328125,0.421875 2.25,0.75 2.171875,1.0625 c -0.125,0.46875 -0.21875,0.84375 -0.21875,0.875 0,0.09375 0.078125,0.109375 0.125,0.109375 C 2.125,2.046875 2.140625,2.03125 2.171875,2 2.1875,1.984375 2.25,1.75 2.28125,1.609375 L 2.65625,0.125 c 1.609375,-0.0625 3.0625,-1.40625 3.0625,-2.734375 0,-0.796875 -0.53125,-1.703125 -1.921875,-1.8125 z m -1.90625,6.578125 c -0.59375,-0.03125 -1.3125,-0.390625 -1.3125,-1.375 0,-1.203125 0.859375,-2.59375 2.34375,-2.734375 z m 1.28125,-4.109375 c 0.765625,0.046875 1.328125,0.5 1.328125,1.375 0,1.1875 -0.859375,2.609375 -2.34375,2.734375 z m 0,0"
             id="id-3c816dc8-4a06-477d-b211-2f19b7367148"
             style="fill:#0000ff;stroke-width:0" />
        </g>
      </g>
      <g
         fill-opacity="1"
         id="id-6fc958ef-a8be-40a7-bdcd-ebcc17288f0e"
         transform="translate(-149.196,-127.843)"
         style="fill:#0000ff;stroke-width:0">
        <g
           transform="translate(154.648,136.259)"
           style="fill:#0000ff;stroke-width:0"
           id="g6172">
          <path
             d="m 2.265625,-4.359375 c 0,-0.109375 -0.09375,-0.265625 -0.28125,-0.265625 -0.1875,0 -0.390625,0.1875 -0.390625,0.390625 0,0.109375 0.078125,0.265625 0.28125,0.265625 0.1875,0 0.390625,-0.203125 0.390625,-0.390625 z M 0.84375,-0.8125 c -0.03125,0.09375 -0.0625,0.171875 -0.0625,0.296875 0,0.328125 0.265625,0.578125 0.65625,0.578125 0.6875,0 1,-0.953125 1,-1.0625 0,-0.09375 -0.09375,-0.09375 -0.109375,-0.09375 -0.09375,0 -0.109375,0.046875 -0.140625,0.125 -0.15625,0.5625 -0.453125,0.84375 -0.734375,0.84375 -0.140625,0 -0.171875,-0.09375 -0.171875,-0.25 0,-0.15625 0.046875,-0.28125 0.109375,-0.4375 C 1.46875,-1 1.546875,-1.1875 1.609375,-1.375 1.671875,-1.546875 1.9375,-2.171875 1.953125,-2.265625 1.984375,-2.328125 2,-2.40625 2,-2.484375 2,-2.8125 1.71875,-3.078125 1.34375,-3.078125 0.640625,-3.078125 0.328125,-2.125 0.328125,-2 c 0,0.078125 0.09375,0.078125 0.125,0.078125 0.09375,0 0.09375,-0.03125 0.125,-0.109375 C 0.75,-2.625 1.0625,-2.875 1.3125,-2.875 c 0.109375,0 0.171875,0.046875 0.171875,0.234375 0,0.171875 -0.03125,0.265625 -0.203125,0.703125 z m 0,0"
             id="id-c1b308fc-4fb8-4455-9a61-ec47f2c3121c"
             style="fill:#0000ff;stroke-width:0" />
        </g>
      </g>
    </g>
    <g
       transform="matrix(0.352778,0,0,0.352778,75.449987,36.828918)"
       ns2:version="1.8.2"
       ns2:texconverter="pdflatex"
       ns2:pdfconverter="inkscape"
       ns2:text="$\\vec{E}$"
       ns2:preamble="/Users/hendrik/Library/Application Support/org.inkscape.Inkscape/config/inkscape/extensions/textext/default_packages.tex"
       ns2:scale="1.0000000850393187"
       ns2:alignment="middle center"
       ns2:stroke-to-path="0"
       ns2:inkscapeversion="1.2.2"
       ns2:jacobian_sqrt="0.352778"
       id="g7232"
       style="fill:#00ff00">
      <defs
         id="id-9ea4aecf-7de3-492a-b062-29e9d8b9c3a9">
        <g
           id="id-e0b5bdd5-c486-4cf4-8736-9d5a412f5633">
          <g
             id="id-c5fb5312-f120-4930-86bc-22eeafe7f989" />
          <g
             id="id-5201ba0c-2567-4022-bbcf-d1055cca9e5d">
            <path
               d="m 5.359375,-5.9375 c -0.140625,0.140625 -0.46875,0.421875 -0.46875,0.59375 0,0.09375 0.09375,0.203125 0.1875,0.203125 0.09375,0 0.140625,-0.078125 0.203125,-0.140625 C 5.390625,-5.421875 5.625,-5.703125 6.0625,-5.921875 6.125,-5.96875 6.234375,-6.015625 6.234375,-6.125 6.234375,-6.234375 6.15625,-6.28125 6.09375,-6.328125 5.875,-6.484375 5.765625,-6.65625 5.6875,-6.890625 5.65625,-6.984375 5.625,-7.125 5.484375,-7.125 c -0.140625,0 -0.203125,0.140625 -0.203125,0.21875 0,0.046875 0.078125,0.359375 0.234375,0.578125 H 2.15625 c -0.15625,0 -0.34375,0 -0.34375,0.203125 0,0.1875 0.1875,0.1875 0.34375,0.1875 z m 0,0"
               id="id-f44aafb9-8553-4737-8633-7a551004ff8a" />
          </g>
          <g
             id="id-e76aa13c-9d03-46a1-b224-ede142bcdda8">
            <path
               d="M 7.0625,-2.328125 C 7.078125,-2.375 7.109375,-2.4375 7.109375,-2.46875 c 0,0 0,-0.109375 -0.125,-0.109375 -0.09375,0 -0.109375,0.0625 -0.125,0.125 C 6.203125,-0.984375 5.84375,-0.3125 4.140625,-0.3125 H 2.6875 c -0.140625,0 -0.171875,0 -0.21875,0 -0.109375,-0.015625 -0.140625,-0.03125 -0.140625,-0.109375 0,-0.03125 0,-0.046875 0.046875,-0.21875 L 3.0625,-3.375 h 0.984375 c 0.84375,0 0.84375,0.21875 0.84375,0.46875 0,0.0625 0,0.1875 -0.0625,0.484375 C 4.8125,-2.375 4.796875,-2.34375 4.796875,-2.3125 c 0,0.046875 0.03125,0.109375 0.125,0.109375 C 5,-2.203125 5.03125,-2.25 5.078125,-2.40625 l 0.5625,-2.328125 c 0,-0.0625 -0.046875,-0.109375 -0.125,-0.109375 -0.078125,0 -0.109375,0.0625 -0.125,0.171875 -0.21875,0.765625 -0.390625,1 -1.3125,1 h -0.9375 l 0.59375,-2.40625 C 3.828125,-6.4375 3.84375,-6.46875 4.28125,-6.46875 H 5.6875 c 1.203125,0 1.515625,0.28125 1.515625,1.109375 0,0.234375 0,0.25 -0.046875,0.53125 0,0.046875 -0.015625,0.125 -0.015625,0.171875 0,0.046875 0.03125,0.125 0.125,0.125 0.109375,0 0.125,-0.0625 0.140625,-0.25 L 7.609375,-6.515625 C 7.640625,-6.78125 7.59375,-6.78125 7.34375,-6.78125 H 2.296875 c -0.1875,0 -0.296875,0 -0.296875,0.203125 0,0.109375 0.09375,0.109375 0.28125,0.109375 0.375,0 0.65625,0 0.65625,0.171875 0,0.046875 0,0.0625 -0.0625,0.25 L 1.5625,-0.78125 c -0.09375,0.390625 -0.109375,0.46875 -0.90625,0.46875 -0.171875,0 -0.28125,0 -0.28125,0.1875 C 0.375,0 0.46875,0 0.65625,0 h 5.171875 c 0.234375,0 0.25,-0.015625 0.3125,-0.171875 z m 0,0"
               id="id-ac73b710-3b54-475c-969b-e1e2e446cb09" />
          </g>
        </g>
      </defs>
      <g
         fill="#000000"
         fill-opacity="1"
         id="id-002e77d0-823d-4f27-80c8-bfe0de8cbfff"
         transform="translate(-149.087,-125.121)"
         style="fill:#00ff00">
        <g
           transform="translate(150.25,132.246)"
           id="g7225"
           style="fill:#00ff00">
          <path
             d="m 5.359375,-5.9375 c -0.140625,0.140625 -0.46875,0.421875 -0.46875,0.59375 0,0.09375 0.09375,0.203125 0.1875,0.203125 0.09375,0 0.140625,-0.078125 0.203125,-0.140625 C 5.390625,-5.421875 5.625,-5.703125 6.0625,-5.921875 6.125,-5.96875 6.234375,-6.015625 6.234375,-6.125 6.234375,-6.234375 6.15625,-6.28125 6.09375,-6.328125 5.875,-6.484375 5.765625,-6.65625 5.6875,-6.890625 5.65625,-6.984375 5.625,-7.125 5.484375,-7.125 c -0.140625,0 -0.203125,0.140625 -0.203125,0.21875 0,0.046875 0.078125,0.359375 0.234375,0.578125 H 2.15625 c -0.15625,0 -0.34375,0 -0.34375,0.203125 0,0.1875 0.1875,0.1875 0.34375,0.1875 z m 0,0"
             id="id-2c6633d0-1973-4588-adaa-e5bc142aad15"
             style="fill:#00ff00" />
        </g>
      </g>
      <g
         fill="#000000"
         fill-opacity="1"
         id="id-7f8d2bea-8a20-430c-ad8d-a2ef4d95ffbb"
         transform="translate(-149.087,-125.121)"
         style="fill:#00ff00">
        <g
           transform="translate(148.712,134.765)"
           id="g7229"
           style="fill:#00ff00">
          <path
             d="M 7.0625,-2.328125 C 7.078125,-2.375 7.109375,-2.4375 7.109375,-2.46875 c 0,0 0,-0.109375 -0.125,-0.109375 -0.09375,0 -0.109375,0.0625 -0.125,0.125 C 6.203125,-0.984375 5.84375,-0.3125 4.140625,-0.3125 H 2.6875 c -0.140625,0 -0.171875,0 -0.21875,0 -0.109375,-0.015625 -0.140625,-0.03125 -0.140625,-0.109375 0,-0.03125 0,-0.046875 0.046875,-0.21875 L 3.0625,-3.375 h 0.984375 c 0.84375,0 0.84375,0.21875 0.84375,0.46875 0,0.0625 0,0.1875 -0.0625,0.484375 C 4.8125,-2.375 4.796875,-2.34375 4.796875,-2.3125 c 0,0.046875 0.03125,0.109375 0.125,0.109375 C 5,-2.203125 5.03125,-2.25 5.078125,-2.40625 l 0.5625,-2.328125 c 0,-0.0625 -0.046875,-0.109375 -0.125,-0.109375 -0.078125,0 -0.109375,0.0625 -0.125,0.171875 -0.21875,0.765625 -0.390625,1 -1.3125,1 h -0.9375 l 0.59375,-2.40625 C 3.828125,-6.4375 3.84375,-6.46875 4.28125,-6.46875 H 5.6875 c 1.203125,0 1.515625,0.28125 1.515625,1.109375 0,0.234375 0,0.25 -0.046875,0.53125 0,0.046875 -0.015625,0.125 -0.015625,0.171875 0,0.046875 0.03125,0.125 0.125,0.125 0.109375,0 0.125,-0.0625 0.140625,-0.25 L 7.609375,-6.515625 C 7.640625,-6.78125 7.59375,-6.78125 7.34375,-6.78125 H 2.296875 c -0.1875,0 -0.296875,0 -0.296875,0.203125 0,0.109375 0.09375,0.109375 0.28125,0.109375 0.375,0 0.65625,0 0.65625,0.171875 0,0.046875 0,0.0625 -0.0625,0.25 L 1.5625,-0.78125 c -0.09375,0.390625 -0.109375,0.46875 -0.90625,0.46875 -0.171875,0 -0.28125,0 -0.28125,0.1875 C 0.375,0 0.46875,0 0.65625,0 h 5.171875 c 0.234375,0 0.25,-0.015625 0.3125,-0.171875 z m 0,0"
             id="id-649b19e5-f434-42d2-bc47-828b4946e038"
             style="fill:#00ff00" />
        </g>
      </g>
    </g>
  </g>
</svg>
