<?xml version="1.0" encoding="UTF-8" standalone="no"?>
<!-- Created with Inkscape (http://www.inkscape.org/) -->

<svg
   width="59.008869mm"
   height="37.615257mm"
   viewBox="0 0 59.008869 37.615257"
   version="1.1"
   id="svg5"
   inkscape:version="1.2.2 (b0a8486, 2022-12-01)"
   sodipodi:docname="ohm.svg"
   xmlns:inkscape="http://www.inkscape.org/namespaces/inkscape"
   xmlns:sodipodi="http://sodipodi.sourceforge.net/DTD/sodipodi-0.dtd"
   xmlns="http://www.w3.org/2000/svg"
   xmlns:svg="http://www.w3.org/2000/svg"
   xmlns:ns2="http://www.iki.fi/pav/software/textext/">
  <sodipodi:namedview
     id="namedview7"
     pagecolor="#ffffff"
     bordercolor="#000000"
     borderopacity="0.25"
     inkscape:showpageshadow="2"
     inkscape:pageopacity="0.0"
     inkscape:pagecheckerboard="0"
     inkscape:deskcolor="#d1d1d1"
     inkscape:document-units="mm"
     showgrid="false"
     showguides="true"
     inkscape:zoom="2.8073996"
     inkscape:cx="97.064915"
     inkscape:cy="66.075382"
     inkscape:window-width="1440"
     inkscape:window-height="777"
     inkscape:window-x="0"
     inkscape:window-y="23"
     inkscape:window-maximized="0"
     inkscape:current-layer="layer1" />
  <defs
     id="defs2">
    <marker
       style="overflow:visible"
       id="Arrow1L"
       refX="0"
       refY="0"
       orient="auto-start-reverse"
       inkscape:stockid="Arrow1L"
       markerWidth="8.75"
       markerHeight="5"
       viewBox="0 0 8.75 5"
       inkscape:isstock="true"
       inkscape:collect="always"
       preserveAspectRatio="xMidYMid">
      <path
         style="fill:context-stroke;fill-rule:evenodd;stroke:none"
         d="M 0,0 5,-5 -12.5,0 5,5 Z"
         id="arrow1L"
         transform="scale(-0.5)" />
    </marker>
  </defs>
  <g
     inkscape:label="Layer 1"
     inkscape:groupmode="layer"
     id="layer1"
     transform="translate(-68.793081,-24.874921)">
    <path
       style="display:inline;fill:#00ffff;stroke:none;stroke-width:2.2081;stroke-dasharray:none"
       d="m 318.61337,192.77335 c 41.49992,-25.43544 10.7084,-57.56347 -11.38026,-95.716616 -3.33329,-3.233226 -6.32603,-4.585823 -8.99548,-4.583295 -13.99406,0.01326 -19.065,37.662551 -16.43144,42.736811 13.06892,23.62458 3.87057,58.5689 16.04728,63.74008 4.03587,1.71501 10.42433,0.15772 20.7599,-6.17698 z"
       transform="matrix(0.13586329,0,0,0.13586329,39.782422,18.795133)"
       id="path3483-0"
       inkscape:label="draht oben vorne"
       sodipodi:nodetypes="sccccs" />
    <path
       style="fill:none;stroke:#000000;stroke-width:1.13386;stroke-dasharray:none"
       d="M 303.30467,117.95482 H 422.93875"
       id="path2355"
       transform="matrix(0.26458333,0,0,0.26458333,0.05311734,0.1499996)" />
    <path
       style="fill:none;stroke:#000000;stroke-width:1.13386;stroke-dasharray:none"
       d="m 305.24912,173.52918 119.46687,0.002"
       id="path2359"
       transform="scale(0.26458333)"
       sodipodi:nodetypes="cc" />
    <path
       style="fill:none;stroke:#000000;stroke-width:1.47207;stroke-dasharray:1.47207, 1.47207;stroke-dashoffset:0"
       d="m 298.23389,92.473443 c -13.99781,0.01326 -19.06875,37.662557 -16.43519,42.736817 13.06892,23.62458 3.87057,58.5689 16.05103,63.74007"
       transform="matrix(0.13586329,0,0,0.13586329,71.436403,18.797647)"
       id="path2361" />
    <path
       style="fill:none;stroke:#ff0000;stroke-width:0.755906;stroke-dasharray:none;stroke-dashoffset:0"
       d="M 447.79548,126.60957 H 275.05684"
       id="path2434"
       transform="matrix(0.26458333,0,0,0.26458333,1.0583333,0)" />
    <path
       style="fill:none;stroke:#ff0000;stroke-width:0.755906;stroke-dasharray:none;stroke-dashoffset:0"
       d="M 447.79548,126.60957 H 275.05684"
       id="path3190"
       transform="matrix(0.26458333,0,0,0.26458333,1.0583333,3.1750001)" />
    <path
       style="fill:none;stroke:#ff0000;stroke-width:0.755906;stroke-dasharray:none;stroke-dashoffset:0"
       d="M 447.79548,126.60957 H 275.05684"
       id="path3194"
       transform="matrix(0.26458333,0,0,0.26458333,1.0583333,6.3500003)" />
    <path
       style="fill:none;stroke:#ff0000;stroke-width:0.755906;stroke-dasharray:none;stroke-dashoffset:0"
       d="M 447.79548,126.60957 H 275.05684"
       id="path3198"
       transform="matrix(0.26458333,0,0,0.26458333,1.0583333,9.5250005)" />
    <path
       style="fill:none;stroke:#000000;stroke-width:2.2081;stroke-dasharray:none;stroke-dashoffset:0"
       d="m 298.23389,92.473443 c -13.99781,0.01326 -19.06875,37.662557 -16.43519,42.736817 13.06892,23.62458 3.87057,58.5689 16.05103,63.74007"
       transform="matrix(0.13586329,0,0,0.13586329,39.783439,18.795132)"
       id="path3481" />
    <path
       style="fill:none;stroke:#000000;stroke-width:0.377953;stroke-dasharray:none"
       d="m 305.24912,173.52918 119.46687,0.002"
       id="path3558"
       transform="matrix(0.26458333,0,0,0.26458333,0,3.7041668)"
       sodipodi:nodetypes="cc" />
    <path
       style="fill:none;stroke:#000000;stroke-width:0.377953;stroke-dasharray:none;stroke-dashoffset:0"
       d="m 305.24912,191.29313 v -7.5279"
       id="path3560"
       transform="scale(0.26458333)"
       sodipodi:nodetypes="cc" />
    <path
       style="fill:none;stroke:#000000;stroke-width:0.377953;stroke-dasharray:none;stroke-dashoffset:0"
       d="m 305.24912,191.29313 v -7.5279"
       id="path3570"
       transform="matrix(0.26458333,0,0,0.26458333,31.608943,2.6476333e-4)"
       sodipodi:nodetypes="cc" />
    <g
       transform="matrix(0.352778,0,0,0.352778,95.507342,50.582819)"
       ns2:version="1.8.2"
       ns2:texconverter="pdflatex"
       ns2:pdfconverter="inkscape"
       ns2:text="$L$"
       ns2:preamble="/Users/hendrik/Library/Application Support/org.inkscape.Inkscape/config/inkscape/extensions/textext/default_packages.tex"
       ns2:scale="1.0"
       ns2:alignment="middle center"
       ns2:stroke-to-path="0"
       ns2:inkscapeversion="1.2.2"
       ns2:jacobian_sqrt="0.352778"
       id="g3611">
      <defs
         id="id-d009c89b-7dfd-4f4e-a7f2-029a4ee17025">
        <g
           id="id-2e2fc5cf-33f7-4eb5-9611-eb2f7ef01f42">
          <g
             id="id-50fc5fe0-a16e-49d1-87be-c2288af10580" />
          <g
             id="id-77f87fde-4c76-4dcd-b397-513dae4cc464">
            <path
               d="M 3.734375,-6.03125 C 3.8125,-6.390625 3.84375,-6.5 4.78125,-6.5 c 0.296875,0 0.375,0 0.375,-0.1875 0,-0.125 -0.109375,-0.125 -0.15625,-0.125 -0.328125,0 -1.140625,0.03125 -1.46875,0.03125 -0.296875,0 -1.03125,-0.03125 -1.328125,-0.03125 -0.0625,0 -0.1875,0 -0.1875,0.203125 0,0.109375 0.09375,0.109375 0.28125,0.109375 0.015625,0 0.203125,0 0.375,0.015625 0.171875,0.03125 0.265625,0.03125 0.265625,0.171875 0,0.03125 0,0.0625 -0.03125,0.1875 L 1.5625,-0.78125 c -0.09375,0.390625 -0.109375,0.46875 -0.90625,0.46875 -0.171875,0 -0.265625,0 -0.265625,0.203125 C 0.390625,0 0.484375,0 0.65625,0 h 4.625 C 5.515625,0 5.515625,0 5.578125,-0.171875 L 6.375,-2.328125 c 0.03125,-0.109375 0.03125,-0.125 0.03125,-0.140625 0,-0.03125 -0.03125,-0.109375 -0.109375,-0.109375 -0.09375,0 -0.109375,0.0625 -0.171875,0.21875 -0.34375,0.90625 -0.78125,2.046875 -2.5,2.046875 H 2.6875 c -0.140625,0 -0.171875,0 -0.21875,0 -0.109375,-0.015625 -0.140625,-0.03125 -0.140625,-0.109375 0,-0.03125 0,-0.046875 0.046875,-0.21875 z m 0,0"
               id="id-04b14674-375d-4c59-84e1-11be5649d7e1" />
          </g>
        </g>
      </defs>
      <g
         fill="#000000"
         fill-opacity="1"
         id="id-59411829-2049-4146-8d3c-63614a42143c"
         transform="translate(-149.103,-127.953)">
        <g
           transform="translate(148.712,134.765)"
           id="g3608">
          <path
             d="M 3.734375,-6.03125 C 3.8125,-6.390625 3.84375,-6.5 4.78125,-6.5 c 0.296875,0 0.375,0 0.375,-0.1875 0,-0.125 -0.109375,-0.125 -0.15625,-0.125 -0.328125,0 -1.140625,0.03125 -1.46875,0.03125 -0.296875,0 -1.03125,-0.03125 -1.328125,-0.03125 -0.0625,0 -0.1875,0 -0.1875,0.203125 0,0.109375 0.09375,0.109375 0.28125,0.109375 0.015625,0 0.203125,0 0.375,0.015625 0.171875,0.03125 0.265625,0.03125 0.265625,0.171875 0,0.03125 0,0.0625 -0.03125,0.1875 L 1.5625,-0.78125 c -0.09375,0.390625 -0.109375,0.46875 -0.90625,0.46875 -0.171875,0 -0.265625,0 -0.265625,0.203125 C 0.390625,0 0.484375,0 0.65625,0 h 4.625 C 5.515625,0 5.515625,0 5.578125,-0.171875 L 6.375,-2.328125 c 0.03125,-0.109375 0.03125,-0.125 0.03125,-0.140625 0,-0.03125 -0.03125,-0.109375 -0.109375,-0.109375 -0.09375,0 -0.109375,0.0625 -0.171875,0.21875 -0.34375,0.90625 -0.78125,2.046875 -2.5,2.046875 H 2.6875 c -0.140625,0 -0.171875,0 -0.21875,0 -0.109375,-0.015625 -0.140625,-0.03125 -0.140625,-0.109375 0,-0.03125 0,-0.046875 0.046875,-0.21875 z m 0,0"
             id="id-7de968aa-13da-4b0e-83ce-4aa674d251d6" />
        </g>
      </g>
    </g>
    <g
       transform="matrix(0.352778,0,0,0.352778,75.564383,28.83969)"
       ns2:version="1.8.2"
       ns2:texconverter="pdflatex"
       ns2:pdfconverter="inkscape"
       ns2:text="$A$"
       ns2:preamble="/Users/hendrik/Library/Application Support/org.inkscape.Inkscape/config/inkscape/extensions/textext/default_packages.tex"
       ns2:scale="1.0"
       ns2:alignment="middle center"
       ns2:stroke-to-path="0"
       ns2:inkscapeversion="1.2.2"
       ns2:jacobian_sqrt="0.352778"
       id="g3744"
       style="fill:#00ffff">
      <defs
         id="id-cd2ece6f-df4a-483e-80be-8cf7c0583865">
        <g
           id="id-84c57940-5052-48af-a0f0-063af032be51">
          <g
             id="id-4f95ef38-f0df-4a21-aeba-89d5bd5bad0f" />
          <g
             id="id-43e346f3-71bd-460c-8493-0603ccd78c40">
            <path
               d="M 1.78125,-1.140625 C 1.390625,-0.484375 1,-0.34375 0.5625,-0.3125 0.4375,-0.296875 0.34375,-0.296875 0.34375,-0.109375 0.34375,-0.046875 0.40625,0 0.484375,0 0.75,0 1.0625,-0.03125 1.328125,-0.03125 c 0.34375,0 0.6875,0.03125 1,0.03125 0.0625,0 0.1875,0 0.1875,-0.1875 0,-0.109375 -0.078125,-0.125 -0.15625,-0.125 -0.21875,-0.015625 -0.46875,-0.09375 -0.46875,-0.34375 0,-0.125 0.0625,-0.234375 0.140625,-0.375 l 0.765625,-1.265625 h 2.5 c 0.015625,0.203125 0.15625,1.5625 0.15625,1.65625 0,0.296875 -0.515625,0.328125 -0.71875,0.328125 C 4.59375,-0.3125 4.5,-0.3125 4.5,-0.109375 4.5,0 4.609375,0 4.640625,0 5.046875,0 5.46875,-0.03125 5.875,-0.03125 6.125,-0.03125 6.765625,0 7.015625,0 7.0625,0 7.1875,0 7.1875,-0.203125 7.1875,-0.3125 7.09375,-0.3125 6.953125,-0.3125 6.34375,-0.3125 6.34375,-0.375 6.3125,-0.671875 l -0.609375,-6.21875 c -0.015625,-0.203125 -0.015625,-0.25 -0.1875,-0.25 -0.15625,0 -0.203125,0.078125 -0.265625,0.171875 z M 2.984375,-2.609375 4.9375,-5.90625 5.265625,-2.609375 Z m 0,0"
               id="id-ee5a9fa9-955b-42f0-a1c0-e6462c8f67dd" />
          </g>
        </g>
      </defs>
      <g
         fill="#000000"
         fill-opacity="1"
         id="id-c8775f39-f8b4-4ec2-a700-b93495283d6a"
         transform="translate(-149.056,-127.624)"
         style="fill:#00ffff">
        <g
           transform="translate(148.712,134.765)"
           id="g3741"
           style="fill:#00ffff">
          <path
             d="M 1.78125,-1.140625 C 1.390625,-0.484375 1,-0.34375 0.5625,-0.3125 0.4375,-0.296875 0.34375,-0.296875 0.34375,-0.109375 0.34375,-0.046875 0.40625,0 0.484375,0 0.75,0 1.0625,-0.03125 1.328125,-0.03125 c 0.34375,0 0.6875,0.03125 1,0.03125 0.0625,0 0.1875,0 0.1875,-0.1875 0,-0.109375 -0.078125,-0.125 -0.15625,-0.125 -0.21875,-0.015625 -0.46875,-0.09375 -0.46875,-0.34375 0,-0.125 0.0625,-0.234375 0.140625,-0.375 l 0.765625,-1.265625 h 2.5 c 0.015625,0.203125 0.15625,1.5625 0.15625,1.65625 0,0.296875 -0.515625,0.328125 -0.71875,0.328125 C 4.59375,-0.3125 4.5,-0.3125 4.5,-0.109375 4.5,0 4.609375,0 4.640625,0 5.046875,0 5.46875,-0.03125 5.875,-0.03125 6.125,-0.03125 6.765625,0 7.015625,0 7.0625,0 7.1875,0 7.1875,-0.203125 7.1875,-0.3125 7.09375,-0.3125 6.953125,-0.3125 6.34375,-0.3125 6.34375,-0.375 6.3125,-0.671875 l -0.609375,-6.21875 c -0.015625,-0.203125 -0.015625,-0.25 -0.1875,-0.25 -0.15625,0 -0.203125,0.078125 -0.265625,0.171875 z M 2.984375,-2.609375 4.9375,-5.90625 5.265625,-2.609375 Z m 0,0"
             id="id-a4cc9ebc-6513-4c1f-9748-69260cce7531"
             style="fill:#00ffff" />
        </g>
      </g>
    </g>
    <g
       transform="matrix(0.352778,0,0,0.352778,121.40593,36.573782)"
       ns2:version="1.8.2"
       ns2:texconverter="pdflatex"
       ns2:pdfconverter="inkscape"
       ns2:text="$\\vec{E}$"
       ns2:preamble="/Users/hendrik/Library/Application Support/org.inkscape.Inkscape/config/inkscape/extensions/textext/default_packages.tex"
       ns2:scale="1.0"
       ns2:alignment="middle center"
       ns2:stroke-to-path="0"
       ns2:inkscapeversion="1.2.2"
       ns2:jacobian_sqrt="0.352778"
       id="g3842"
       style="fill:#ff0000">
      <defs
         id="id-65a67364-51f5-4966-9394-6c1a90f000cc">
        <g
           id="id-101654ae-f6f7-47f8-9c8c-63be6d1be17a">
          <g
             id="id-d6c4f3a9-67da-4136-9de4-d8a941cbfab0" />
          <g
             id="id-a079cc9d-2928-4ef0-8f78-94abba8b31b3">
            <path
               d="m 5.359375,-5.9375 c -0.140625,0.140625 -0.46875,0.421875 -0.46875,0.59375 0,0.09375 0.09375,0.203125 0.1875,0.203125 0.09375,0 0.140625,-0.078125 0.203125,-0.140625 C 5.390625,-5.421875 5.625,-5.703125 6.0625,-5.921875 6.125,-5.96875 6.234375,-6.015625 6.234375,-6.125 6.234375,-6.234375 6.15625,-6.28125 6.09375,-6.328125 5.875,-6.484375 5.765625,-6.65625 5.6875,-6.890625 5.65625,-6.984375 5.625,-7.125 5.484375,-7.125 c -0.140625,0 -0.203125,0.140625 -0.203125,0.21875 0,0.046875 0.078125,0.359375 0.234375,0.578125 H 2.15625 c -0.15625,0 -0.34375,0 -0.34375,0.203125 0,0.1875 0.1875,0.1875 0.34375,0.1875 z m 0,0"
               id="id-1d9dc7fd-2f8b-4888-8853-602dce133144" />
          </g>
          <g
             id="id-920571e1-ffde-43b6-adca-1cb2dac16346">
            <path
               d="M 7.0625,-2.328125 C 7.078125,-2.375 7.109375,-2.4375 7.109375,-2.46875 c 0,0 0,-0.109375 -0.125,-0.109375 -0.09375,0 -0.109375,0.0625 -0.125,0.125 C 6.203125,-0.984375 5.84375,-0.3125 4.140625,-0.3125 H 2.6875 c -0.140625,0 -0.171875,0 -0.21875,0 -0.109375,-0.015625 -0.140625,-0.03125 -0.140625,-0.109375 0,-0.03125 0,-0.046875 0.046875,-0.21875 L 3.0625,-3.375 h 0.984375 c 0.84375,0 0.84375,0.21875 0.84375,0.46875 0,0.0625 0,0.1875 -0.0625,0.484375 C 4.8125,-2.375 4.796875,-2.34375 4.796875,-2.3125 c 0,0.046875 0.03125,0.109375 0.125,0.109375 C 5,-2.203125 5.03125,-2.25 5.078125,-2.40625 l 0.5625,-2.328125 c 0,-0.0625 -0.046875,-0.109375 -0.125,-0.109375 -0.078125,0 -0.109375,0.0625 -0.125,0.171875 -0.21875,0.765625 -0.390625,1 -1.3125,1 h -0.9375 l 0.59375,-2.40625 C 3.828125,-6.4375 3.84375,-6.46875 4.28125,-6.46875 H 5.6875 c 1.203125,0 1.515625,0.28125 1.515625,1.109375 0,0.234375 0,0.25 -0.046875,0.53125 0,0.046875 -0.015625,0.125 -0.015625,0.171875 0,0.046875 0.03125,0.125 0.125,0.125 0.109375,0 0.125,-0.0625 0.140625,-0.25 L 7.609375,-6.515625 C 7.640625,-6.78125 7.59375,-6.78125 7.34375,-6.78125 H 2.296875 c -0.1875,0 -0.296875,0 -0.296875,0.203125 0,0.109375 0.09375,0.109375 0.28125,0.109375 0.375,0 0.65625,0 0.65625,0.171875 0,0.046875 0,0.0625 -0.0625,0.25 L 1.5625,-0.78125 c -0.09375,0.390625 -0.109375,0.46875 -0.90625,0.46875 -0.171875,0 -0.28125,0 -0.28125,0.1875 C 0.375,0 0.46875,0 0.65625,0 h 5.171875 c 0.234375,0 0.25,-0.015625 0.3125,-0.171875 z m 0,0"
               id="id-fd62a6b2-ef2c-44fa-9c4d-faf12d60b31e" />
          </g>
        </g>
      </defs>
      <g
         fill="#000000"
         fill-opacity="1"
         id="id-48061ae5-fba8-4873-b622-b1233c36eefb"
         transform="translate(-149.087,-125.121)"
         style="fill:#ff0000">
        <g
           transform="translate(150.25,132.246)"
           id="g3835"
           style="fill:#ff0000">
          <path
             d="m 5.359375,-5.9375 c -0.140625,0.140625 -0.46875,0.421875 -0.46875,0.59375 0,0.09375 0.09375,0.203125 0.1875,0.203125 0.09375,0 0.140625,-0.078125 0.203125,-0.140625 C 5.390625,-5.421875 5.625,-5.703125 6.0625,-5.921875 6.125,-5.96875 6.234375,-6.015625 6.234375,-6.125 6.234375,-6.234375 6.15625,-6.28125 6.09375,-6.328125 5.875,-6.484375 5.765625,-6.65625 5.6875,-6.890625 5.65625,-6.984375 5.625,-7.125 5.484375,-7.125 c -0.140625,0 -0.203125,0.140625 -0.203125,0.21875 0,0.046875 0.078125,0.359375 0.234375,0.578125 H 2.15625 c -0.15625,0 -0.34375,0 -0.34375,0.203125 0,0.1875 0.1875,0.1875 0.34375,0.1875 z m 0,0"
             id="id-7bb4e3ad-e692-4eaf-9e41-b91795264e07"
             style="fill:#ff0000" />
        </g>
      </g>
      <g
         fill="#000000"
         fill-opacity="1"
         id="id-001b61db-5f51-4553-813d-65c92122f298"
         transform="translate(-149.087,-125.121)"
         style="fill:#ff0000">
        <g
           transform="translate(148.712,134.765)"
           id="g3839"
           style="fill:#ff0000">
          <path
             d="M 7.0625,-2.328125 C 7.078125,-2.375 7.109375,-2.4375 7.109375,-2.46875 c 0,0 0,-0.109375 -0.125,-0.109375 -0.09375,0 -0.109375,0.0625 -0.125,0.125 C 6.203125,-0.984375 5.84375,-0.3125 4.140625,-0.3125 H 2.6875 c -0.140625,0 -0.171875,0 -0.21875,0 -0.109375,-0.015625 -0.140625,-0.03125 -0.140625,-0.109375 0,-0.03125 0,-0.046875 0.046875,-0.21875 L 3.0625,-3.375 h 0.984375 c 0.84375,0 0.84375,0.21875 0.84375,0.46875 0,0.0625 0,0.1875 -0.0625,0.484375 C 4.8125,-2.375 4.796875,-2.34375 4.796875,-2.3125 c 0,0.046875 0.03125,0.109375 0.125,0.109375 C 5,-2.203125 5.03125,-2.25 5.078125,-2.40625 l 0.5625,-2.328125 c 0,-0.0625 -0.046875,-0.109375 -0.125,-0.109375 -0.078125,0 -0.109375,0.0625 -0.125,0.171875 -0.21875,0.765625 -0.390625,1 -1.3125,1 h -0.9375 l 0.59375,-2.40625 C 3.828125,-6.4375 3.84375,-6.46875 4.28125,-6.46875 H 5.6875 c 1.203125,0 1.515625,0.28125 1.515625,1.109375 0,0.234375 0,0.25 -0.046875,0.53125 0,0.046875 -0.015625,0.125 -0.015625,0.171875 0,0.046875 0.03125,0.125 0.125,0.125 0.109375,0 0.125,-0.0625 0.140625,-0.25 L 7.609375,-6.515625 C 7.640625,-6.78125 7.59375,-6.78125 7.34375,-6.78125 H 2.296875 c -0.1875,0 -0.296875,0 -0.296875,0.203125 0,0.109375 0.09375,0.109375 0.28125,0.109375 0.375,0 0.65625,0 0.65625,0.171875 0,0.046875 0,0.0625 -0.0625,0.25 L 1.5625,-0.78125 c -0.09375,0.390625 -0.109375,0.46875 -0.90625,0.46875 -0.171875,0 -0.28125,0 -0.28125,0.1875 C 0.375,0 0.46875,0 0.65625,0 h 5.171875 c 0.234375,0 0.25,-0.015625 0.3125,-0.171875 z m 0,0"
             id="id-fb7bc2d7-655a-4959-a127-3b73075da67c"
             style="fill:#ff0000" />
        </g>
      </g>
    </g>
    <g
       id="g4026"
       transform="matrix(-1,0,0,1,194.1164,0.79846525)"
       style="stroke-width:0.2;stroke-dasharray:none">
      <path
         style="fill:#ff0000;stroke:#ff0000;stroke-width:0.755906;stroke-dasharray:none;stroke-dashoffset:0"
         d="m 365.42616,126.60957 2.68234,-2.68235"
         id="path3966"
         transform="matrix(0.26458333,0,0,0.26458333,0.03535541,-0.79846525)" />
      <path
         style="fill:#ff0000;stroke:#ff0000;stroke-width:0.755906;stroke-dasharray:none;stroke-dashoffset:0"
         d="m 365.42616,126.60957 2.68234,-2.68235"
         id="path4022"
         transform="matrix(0.26458333,0,0,-0.26458333,0.03535541,66.199098)" />
    </g>
    <g
       id="g4032"
       transform="matrix(-1,0,0,1,194.1164,3.9734654)"
       style="stroke-width:0.2;stroke-dasharray:none">
      <path
         style="fill:#ff0000;stroke:#ff0000;stroke-width:0.755906;stroke-dasharray:none;stroke-dashoffset:0"
         d="m 365.42616,126.60957 2.68234,-2.68235"
         id="path4028"
         transform="matrix(0.26458333,0,0,0.26458333,0.03535541,-0.79846525)" />
      <path
         style="fill:#ff0000;stroke:#ff0000;stroke-width:0.755906;stroke-dasharray:none;stroke-dashoffset:0"
         d="m 365.42616,126.60957 2.68234,-2.68235"
         id="path4030"
         transform="matrix(0.26458333,0,0,-0.26458333,0.03535541,66.199098)" />
    </g>
    <g
       id="g4038"
       transform="matrix(-1,0,0,1,194.1164,7.1484656)"
       style="stroke-width:0.2;stroke-dasharray:none">
      <path
         style="fill:#ff0000;stroke:#ff0000;stroke-width:0.755906;stroke-dasharray:none;stroke-dashoffset:0"
         d="m 365.42616,126.60957 2.68234,-2.68235"
         id="path4034"
         transform="matrix(0.26458333,0,0,0.26458333,0.03535541,-0.79846525)" />
      <path
         style="fill:#ff0000;stroke:#ff0000;stroke-width:0.755906;stroke-dasharray:none;stroke-dashoffset:0"
         d="m 365.42616,126.60957 2.68234,-2.68235"
         id="path4036"
         transform="matrix(0.26458333,0,0,-0.26458333,0.03535541,66.199098)" />
    </g>
    <g
       id="g4044"
       transform="matrix(-1,0,0,1,194.1164,10.323466)"
       style="stroke-width:0.2;stroke-dasharray:none">
      <path
         style="fill:#ff0000;stroke:#ff0000;stroke-width:0.755906;stroke-dasharray:none;stroke-dashoffset:0"
         d="m 365.42616,126.60957 2.68234,-2.68235"
         id="path4040"
         transform="matrix(0.26458333,0,0,0.26458333,0.03535541,-0.79846525)" />
      <path
         style="fill:#ff0000;stroke:#ff0000;stroke-width:0.755906;stroke-dasharray:none;stroke-dashoffset:0"
         d="m 365.42616,126.60957 2.68234,-2.68235"
         id="path4042"
         transform="matrix(0.26458333,0,0,-0.26458333,0.03535541,66.199098)" />
    </g>
    <path
       style="fill:none;stroke:#000080;stroke-width:0.755906;stroke-dasharray:none;marker-end:url(#Arrow1L)"
       d="m 305.24912,173.52918 119.46687,0.002"
       id="path13546"
       transform="matrix(0.26458333,0,0,0.26458333,0,10.054167)"
       sodipodi:nodetypes="cc" />
    <g
       transform="matrix(0.352778,0,0,0.352778,95.350157,56.910949)"
       ns2:version="1.8.2"
       ns2:texconverter="pdflatex"
       ns2:pdfconverter="inkscape"
       ns2:text="$U$"
       ns2:preamble="/Users/hendrik/Library/Application Support/org.inkscape.Inkscape/config/inkscape/extensions/textext/default_packages.tex"
       ns2:scale="1.0"
       ns2:alignment="middle center"
       ns2:stroke-to-path="0"
       ns2:inkscapeversion="1.2.2"
       ns2:jacobian_sqrt="0.352778"
       id="g13586"
       style="fill:#000080">
      <defs
         id="id-2cc069dd-b594-48f5-a596-ae517ef87402">
        <g
           id="id-c2b6c5b5-361e-4786-9477-5c8e1d4fef0e">
          <g
             id="id-feb8fb33-1e7d-49f4-ae75-15c8d8824f20" />
          <g
             id="id-857d6385-e6bd-48df-98fd-e02debc52179">
            <path
               d="M 6.328125,-5.765625 C 6.4375,-6.171875 6.609375,-6.46875 7.40625,-6.5 c 0.046875,0 0.171875,-0.015625 0.171875,-0.203125 0,0 0,-0.109375 -0.125,-0.109375 -0.328125,0 -0.6875,0.03125 -1.015625,0.03125 -0.34375,0 -0.71875,-0.03125 -1.046875,-0.03125 -0.0625,0 -0.171875,0 -0.171875,0.203125 C 5.21875,-6.5 5.3125,-6.5 5.390625,-6.5 c 0.578125,0.015625 0.6875,0.21875 0.6875,0.4375 0,0.03125 -0.03125,0.1875 -0.03125,0.203125 l -0.90625,3.5625 C 4.8125,-0.953125 3.65625,-0.09375 2.65625,-0.09375 c -0.671875,0 -1.203125,-0.4375 -1.203125,-1.296875 0,-0.015625 0,-0.328125 0.109375,-0.765625 L 2.515625,-6.046875 C 2.609375,-6.40625 2.625,-6.5 3.359375,-6.5 c 0.265625,0 0.34375,0 0.34375,-0.203125 0,-0.109375 -0.109375,-0.109375 -0.140625,-0.109375 -0.28125,0 -1,0.03125 -1.28125,0.03125 -0.28125,0 -1,-0.03125 -1.28125,-0.03125 -0.078125,0 -0.1875,0 -0.1875,0.203125 C 0.8125,-6.5 0.890625,-6.5 1.09375,-6.5 c 0.015625,0 0.203125,0 0.375,0.015625 0.171875,0.03125 0.265625,0.03125 0.265625,0.171875 0,0.046875 -0.109375,0.46875 -0.171875,0.703125 l -0.21875,0.875 C 1.25,-4.34375 0.78125,-2.46875 0.734375,-2.265625 0.671875,-2 0.671875,-1.84375 0.671875,-1.6875 c 0,1.203125 0.90625,1.90625 1.953125,1.90625 1.25,0 2.484375,-1.125 2.8125,-2.4375 z m 0,0"
               id="id-3748c1bd-8c78-487c-94c2-fbfbd77f3d37" />
          </g>
        </g>
      </defs>
      <g
         fill="#000000"
         fill-opacity="1"
         id="id-3404dcac-b29f-4dc7-a4c5-baeaac586763"
         transform="translate(-149.384,-127.953)"
         style="fill:#000080">
        <g
           transform="translate(148.712,134.765)"
           id="g13729"
           style="fill:#000080">
          <path
             d="M 6.328125,-5.765625 C 6.4375,-6.171875 6.609375,-6.46875 7.40625,-6.5 c 0.046875,0 0.171875,-0.015625 0.171875,-0.203125 0,0 0,-0.109375 -0.125,-0.109375 -0.328125,0 -0.6875,0.03125 -1.015625,0.03125 -0.34375,0 -0.71875,-0.03125 -1.046875,-0.03125 -0.0625,0 -0.171875,0 -0.171875,0.203125 C 5.21875,-6.5 5.3125,-6.5 5.390625,-6.5 c 0.578125,0.015625 0.6875,0.21875 0.6875,0.4375 0,0.03125 -0.03125,0.1875 -0.03125,0.203125 l -0.90625,3.5625 C 4.8125,-0.953125 3.65625,-0.09375 2.65625,-0.09375 c -0.671875,0 -1.203125,-0.4375 -1.203125,-1.296875 0,-0.015625 0,-0.328125 0.109375,-0.765625 L 2.515625,-6.046875 C 2.609375,-6.40625 2.625,-6.5 3.359375,-6.5 c 0.265625,0 0.34375,0 0.34375,-0.203125 0,-0.109375 -0.109375,-0.109375 -0.140625,-0.109375 -0.28125,0 -1,0.03125 -1.28125,0.03125 -0.28125,0 -1,-0.03125 -1.28125,-0.03125 -0.078125,0 -0.1875,0 -0.1875,0.203125 C 0.8125,-6.5 0.890625,-6.5 1.09375,-6.5 c 0.015625,0 0.203125,0 0.375,0.015625 0.171875,0.03125 0.265625,0.03125 0.265625,0.171875 0,0.046875 -0.109375,0.46875 -0.171875,0.703125 l -0.21875,0.875 C 1.25,-4.34375 0.78125,-2.46875 0.734375,-2.265625 0.671875,-2 0.671875,-1.84375 0.671875,-1.6875 c 0,1.203125 0.90625,1.90625 1.953125,1.90625 1.25,0 2.484375,-1.125 2.8125,-2.4375 z m 0,0"
             id="id-6c140827-6803-4e62-8715-da4936830b05"
             style="fill:#000080" />
        </g>
      </g>
    </g>
  </g>
  <path
     style="fill:none;stroke:#000000;stroke-width:2.2081;stroke-dasharray:none"
     d="m 297.84973,198.95033 c 4.03961,1.71501 10.42807,0.15772 20.76364,-6.17698 41.49992,-25.43544 10.7084,-57.56347 -11.38026,-95.716616 -3.33329,-3.233226 -6.32603,-4.585823 -8.99922,-4.583291"
     transform="matrix(0.13586329,0,0,0.13586329,2.6425253,-6.0797876)"
     id="path2432"
     inkscape:label="draht oben hinten" />
  <path
     style="display:inline;fill:none;stroke:#000000;stroke-width:2.2081;stroke-dasharray:none"
     d="m 297.84973,198.95033 c 4.03961,1.71501 10.42807,0.15772 20.76364,-6.17698 41.49992,-25.43544 10.7084,-57.56347 -11.38026,-95.716616 -3.33329,-3.233226 -6.32603,-4.585823 -8.99922,-4.583291"
     transform="matrix(0.13586329,0,0,0.13586329,-29.010659,-6.0797876)"
     id="path3483"
     inkscape:label="draht oben vorne" />
</svg>
