<?xml version="1.0" encoding="UTF-8" standalone="no"?>
<!-- Created with Inkscape (http://www.inkscape.org/) -->

<svg
   width="35.648952mm"
   height="50.537804mm"
   viewBox="0 0 35.648952 50.537804"
   version="1.1"
   id="svg5"
   sodipodi:docname="pillendose.svg"
   inkscape:version="1.2.2 (b0a8486, 2022-12-01)"
   xmlns:inkscape="http://www.inkscape.org/namespaces/inkscape"
   xmlns:sodipodi="http://sodipodi.sourceforge.net/DTD/sodipodi-0.dtd"
   xmlns="http://www.w3.org/2000/svg"
   xmlns:svg="http://www.w3.org/2000/svg"
   xmlns:ns1="http://www.iki.fi/pav/software/textext/">
  <sodipodi:namedview
     id="namedview7"
     pagecolor="#ffffff"
     bordercolor="#000000"
     borderopacity="0.25"
     inkscape:showpageshadow="2"
     inkscape:pageopacity="0.0"
     inkscape:pagecheckerboard="0"
     inkscape:deskcolor="#d1d1d1"
     inkscape:document-units="mm"
     showgrid="false"
     inkscape:zoom="2.8340597"
     inkscape:cx="-2.2935297"
     inkscape:cy="95.798969"
     inkscape:window-width="1440"
     inkscape:window-height="777"
     inkscape:window-x="0"
     inkscape:window-y="23"
     inkscape:window-maximized="0"
     inkscape:current-layer="layer1"
     showguides="false" />
  <defs
     id="defs2" />
  <g
     inkscape:label="Layer 1"
     inkscape:groupmode="layer"
     id="layer1"
     transform="translate(-81.166101,-67.032153)">
    <g
       id="g6022"
       transform="matrix(-1,0,0,1,193.8425,-1.7954102e-4)"
       style="display:inline;stroke:#0000ff"
       inkscape:label="A2 vector">
      <path
         style="fill:#575757;fill-opacity:0.711864;stroke:#0000ff;stroke-width:0.755906;stroke-linejoin:miter;stroke-dasharray:none;stroke-dashoffset:0"
         d="m 375.25545,356.67542 h 13.01044"
         id="path6018"
         transform="scale(0.26458333)" />
      <path
         style="fill:none;fill-opacity:0.711864;stroke:#0000ff;stroke-width:0.755906;stroke-linejoin:miter;stroke-dasharray:none;stroke-dashoffset:0"
         d="m 413.65057,351.76305 v 3.76129 h -3.76326"
         id="path6020"
         transform="matrix(0.18708867,-0.18708867,0.18708867,0.18708867,-41.175229,105.24513)" />
    </g>
    <path
       style="display:inline;fill:#0000ff;fill-opacity:0.569492;stroke:none;stroke-width:0.377953;stroke-linejoin:round;stroke-dasharray:0.377953, 1.13386;stroke-dashoffset:0"
       d="m 367.40444,341.90171 15.64211,-15.6421 0.0599,45.18954 -15.6421,15.64209 z"
       id="path3119"
       transform="matrix(0.26458333,0,0,0.26458333,-4.7301684,4.0028363e-6)"
       inkscape:label="A2 Fläche" />
    <g
       id="g1135"
       style="display:inline">
      <path
         style="display:inline;fill:none;fill-opacity:0.461017;stroke:#000000;stroke-width:0.755906;stroke-dasharray:none;stroke-dashoffset:0"
         d="m 374.10766,326.25961 h 8.9389"
         id="path1118"
         transform="matrix(-0.26458333,0,0,-0.26458333,193.84251,188.74075)" />
      <path
         style="display:inline;fill:none;fill-opacity:0.461017;stroke:#000000;stroke-width:0.755906;stroke-dasharray:none;stroke-dashoffset:0"
         d="m 374.10766,326.25961 h 8.9389"
         id="path1120"
         transform="matrix(-0.26458333,0,0,-0.26458333,193.82666,176.78435)" />
      <path
         style="display:inline;fill:none;fill-opacity:0.461017;stroke:#000000;stroke-width:0.755906;stroke-dasharray:none;stroke-dashoffset:0"
         d="m 374.10766,326.25961 h 8.9389"
         id="path1122"
         transform="matrix(-0.26458333,0,0,-0.26458333,197.9653,172.64571)"
         sodipodi:nodetypes="cc" />
      <path
         style="display:inline;fill:none;fill-opacity:0.461017;stroke:#000000;stroke-width:0.755906;stroke-dasharray:none;stroke-dashoffset:0"
         d="m 374.10766,326.25961 h 8.9389"
         id="path1124"
         transform="matrix(-0.26458333,0,0,-0.26458333,197.98115,184.60211)" />
      <path
         style="display:inline;fill:none;fill-opacity:0.461017;stroke:#000000;stroke-width:0.755906;stroke-linejoin:round;stroke-dasharray:none;stroke-dashoffset:0"
         d="m 367.46437,387.09125 15.6421,-15.6421 -0.0599,-45.18954 -15.64211,15.6421 z"
         id="path1126"
         transform="matrix(-0.26458333,0,0,-0.26458333,193.84251,188.74075)"
         sodipodi:nodetypes="ccccc" />
    </g>
    <g
       id="g6608"
       style="display:inline">
      <path
         style="display:inline;fill:#000000;fill-opacity:0;stroke:#000000;stroke-width:0.377953;stroke-linejoin:round;stroke-dasharray:0.377953, 1.13386;stroke-dashoffset:0"
         d="m 373.91867,326.25962 9.12788,-10e-6"
         id="path6470"
         transform="matrix(0.26458333,0,0,0.26458333,-2.3650834,-1.556307)"
         sodipodi:nodetypes="cc" />
      <path
         style="display:inline;fill:#434343;fill-opacity:0.79322;stroke:#000000;stroke-width:0.377953;stroke-linejoin:round;stroke-dasharray:none;stroke-dashoffset:0"
         d="m 398.86085,309.85096 v 3.76422"
         id="path6472"
         transform="matrix(0.26458333,0,0,0.26458333,-8.9143685,2.2871746)" />
    </g>
    <g
       transform="matrix(0.35277801,0,0,0.35277801,95.53949,75.107146)"
       ns1:version="1.8.2"
       ns1:texconverter="pdflatex"
       ns1:pdfconverter="inkscape"
       ns1:text="$\\varepsilon_B$"
       ns1:preamble="/Users/hendrik/Library/Application Support/org.inkscape.Inkscape/config/inkscape/extensions/textext/default_packages.tex"
       ns1:scale="1.0000000283464388"
       ns1:alignment="middle center"
       ns1:stroke-to-path="0"
       ns1:inkscapeversion="1.2.2"
       ns1:jacobian_sqrt="0.352778"
       id="g8443"
       style="display:inline">
      <defs
         id="id-1e1b00a5-5c49-4be7-933d-db50cfb6ed60">
        <g
           id="id-c3a379b9-076c-4791-8999-554428e1777a">
          <g
             id="id-91760969-f0f4-4afa-b39e-88a8e1d6e434" />
          <g
             id="id-495c26fd-252a-4e96-9f33-5192e798e444">
            <path
               d="M 1.40625,-2.265625 C 1.734375,-2.125 2.03125,-2.125 2.265625,-2.125 c 0.25,0 0.8125,0 0.8125,-0.3125 0,-0.234375 -0.359375,-0.265625 -0.734375,-0.265625 -0.203125,0 -0.5625,0.015625 -0.921875,0.1875 C 1.1875,-2.625 1.015625,-2.828125 1.015625,-3.09375 c 0,-0.609375 0.984375,-0.96875 1.875,-0.96875 0.15625,0 0.515625,0 0.921875,0.28125 0.109375,0.078125 0.125,0.109375 0.1875,0.109375 0.140625,0 0.28125,-0.140625 0.28125,-0.28125 0,-0.1875 -0.609375,-0.5625 -1.296875,-0.5625 -1.140625,0 -2.21875,0.671875 -2.21875,1.421875 0,0.4375 0.359375,0.6875 0.40625,0.71875 -0.59375,0.328125 -0.90625,0.875 -0.90625,1.34375 0,0.640625 0.5625,1.25 1.625,1.25 1.3125,0 1.875,-0.875 1.875,-1.03125 0,-0.0625 -0.0625,-0.09375 -0.109375,-0.09375 -0.0625,0 -0.09375,0.03125 -0.109375,0.0625 -0.140625,0.234375 -0.375,0.609375 -1.578125,0.609375 -0.609375,0 -1.453125,-0.15625 -1.453125,-0.859375 0,-0.34375 0.28125,-0.875 0.890625,-1.171875 z m 0.328125,-0.125 c 0.234375,-0.078125 0.4375,-0.09375 0.609375,-0.09375 0.25,0 0.28125,0.015625 0.46875,0.0625 -0.15625,0.0625 -0.171875,0.078125 -0.546875,0.078125 -0.21875,0 -0.34375,0 -0.53125,-0.046875 z m 0,0"
               id="id-4f156dc0-dbb5-4810-80a3-f3280b4ca663" />
          </g>
          <g
             id="id-526b7aff-ee7e-4da6-a308-9350946f463f" />
          <g
             id="id-a0b8fefe-3014-496e-aac2-aa2b07cbea45">
            <path
               d="M 1.328125,-0.546875 C 1.265625,-0.3125 1.25,-0.25 0.703125,-0.25 0.59375,-0.25 0.5,-0.25 0.5,-0.109375 0.5,0 0.578125,0 0.703125,0 H 3.40625 c 1.171875,0 2.078125,-0.796875 2.078125,-1.484375 0,-0.5 -0.453125,-0.921875 -1.203125,-1 0.84375,-0.15625 1.546875,-0.6875 1.546875,-1.28125 0,-0.53125 -0.53125,-1 -1.4375,-1 h -2.53125 c -0.140625,0 -0.234375,0 -0.234375,0.15625 0,0.09375 0.09375,0.09375 0.234375,0.09375 0,0 0.140625,0 0.265625,0.015625 0.140625,0.015625 0.15625,0.03125 0.15625,0.109375 0,0 0,0.046875 -0.03125,0.140625 z m 1.109375,-2.03125 0.421875,-1.6875 c 0.0625,-0.21875 0.0625,-0.25 0.359375,-0.25 h 1.0625 c 0.703125,0 0.875,0.46875 0.875,0.734375 0,0.5625 -0.640625,1.203125 -1.578125,1.203125 z M 2.109375,-0.25 C 1.890625,-0.25 1.875,-0.265625 1.875,-0.328125 c 0,0 0,-0.03125 0.03125,-0.140625 L 2.390625,-2.375 H 3.875 c 0.640625,0 0.90625,0.4375 0.90625,0.828125 0,0.703125 -0.71875,1.296875 -1.5625,1.296875 z m 0,0"
               id="id-a5214539-87af-4dee-bdaf-024f0c3054cb" />
          </g>
        </g>
      </defs>
      <g
         fill="#000000"
         fill-opacity="1"
         id="id-a103a555-d43b-48de-95be-5728d1bd1548"
         transform="translate(-148.978,-130.249)">
        <g
           transform="translate(148.712,134.765)"
           id="g8655">
          <path
             d="M 1.40625,-2.265625 C 1.734375,-2.125 2.03125,-2.125 2.265625,-2.125 c 0.25,0 0.8125,0 0.8125,-0.3125 0,-0.234375 -0.359375,-0.265625 -0.734375,-0.265625 -0.203125,0 -0.5625,0.015625 -0.921875,0.1875 C 1.1875,-2.625 1.015625,-2.828125 1.015625,-3.09375 c 0,-0.609375 0.984375,-0.96875 1.875,-0.96875 0.15625,0 0.515625,0 0.921875,0.28125 0.109375,0.078125 0.125,0.109375 0.1875,0.109375 0.140625,0 0.28125,-0.140625 0.28125,-0.28125 0,-0.1875 -0.609375,-0.5625 -1.296875,-0.5625 -1.140625,0 -2.21875,0.671875 -2.21875,1.421875 0,0.4375 0.359375,0.6875 0.40625,0.71875 -0.59375,0.328125 -0.90625,0.875 -0.90625,1.34375 0,0.640625 0.5625,1.25 1.625,1.25 1.3125,0 1.875,-0.875 1.875,-1.03125 0,-0.0625 -0.0625,-0.09375 -0.109375,-0.09375 -0.0625,0 -0.09375,0.03125 -0.109375,0.0625 -0.140625,0.234375 -0.375,0.609375 -1.578125,0.609375 -0.609375,0 -1.453125,-0.15625 -1.453125,-0.859375 0,-0.34375 0.28125,-0.875 0.890625,-1.171875 z m 0.328125,-0.125 c 0.234375,-0.078125 0.4375,-0.09375 0.609375,-0.09375 0.25,0 0.28125,0.015625 0.46875,0.0625 -0.15625,0.0625 -0.171875,0.078125 -0.546875,0.078125 -0.21875,0 -0.34375,0 -0.53125,-0.046875 z m 0,0"
             id="id-c8de1a41-f6c9-4d38-b9c9-46634cb4aad7" />
        </g>
      </g>
      <g
         fill="#000000"
         fill-opacity="1"
         id="id-c363221c-5bd7-41b8-947e-a58f925559ee"
         transform="translate(-148.978,-130.249)">
        <g
           transform="translate(153.358,136.259)"
           id="g8659">
          <path
             d="M 1.328125,-0.546875 C 1.265625,-0.3125 1.25,-0.25 0.703125,-0.25 0.59375,-0.25 0.5,-0.25 0.5,-0.109375 0.5,0 0.578125,0 0.703125,0 H 3.40625 c 1.171875,0 2.078125,-0.796875 2.078125,-1.484375 0,-0.5 -0.453125,-0.921875 -1.203125,-1 0.84375,-0.15625 1.546875,-0.6875 1.546875,-1.28125 0,-0.53125 -0.53125,-1 -1.4375,-1 h -2.53125 c -0.140625,0 -0.234375,0 -0.234375,0.15625 0,0.09375 0.09375,0.09375 0.234375,0.09375 0,0 0.140625,0 0.265625,0.015625 0.140625,0.015625 0.15625,0.03125 0.15625,0.109375 0,0 0,0.046875 -0.03125,0.140625 z m 1.109375,-2.03125 0.421875,-1.6875 c 0.0625,-0.21875 0.0625,-0.25 0.359375,-0.25 h 1.0625 c 0.703125,0 0.875,0.46875 0.875,0.734375 0,0.5625 -0.640625,1.203125 -1.578125,1.203125 z M 2.109375,-0.25 C 1.890625,-0.25 1.875,-0.265625 1.875,-0.328125 c 0,0 0,-0.03125 0.03125,-0.140625 L 2.390625,-2.375 H 3.875 c 0.640625,0 0.90625,0.4375 0.90625,0.828125 0,0.703125 -0.71875,1.296875 -1.5625,1.296875 z m 0,0"
             id="id-4a18f46c-788f-4f5a-86cc-43b341988dab" />
        </g>
      </g>
    </g>
    <path
       style="display:inline;fill:#575757;fill-opacity:0.711864;stroke:none;stroke-width:0.377953;stroke-linejoin:round;stroke-dasharray:0.377953, 1.13386;stroke-dashoffset:0"
       d="m 367.40444,341.90171 15.64211,-15.64211 -1e-5,32.87738 -15.6421,15.6421 z"
       id="path5635"
       transform="matrix(0.9414047,0,0,0.9414047,-256.05814,-238.23053)"
       sodipodi:nodetypes="ccccc"
       inkscape:label="wand"
       sodipodi:insensitive="true" />
    <path
       style="display:inline;fill:none;fill-opacity:0.461017;stroke:#000000;stroke-width:0.755906;stroke-dasharray:none"
       d="m 374.10766,326.25961 h 8.9389"
       id="path1110"
       transform="matrix(0.26458333,0,0,0.26458333,0.01585232,11.9564)" />
    <path
       style="display:inline;fill:none;fill-opacity:0.376271;stroke:#000000;stroke-width:0.75590552;stroke-linejoin:round;stroke-dasharray:0.75590551,0.75590551;stroke-dashoffset:0"
       d="M 67.398054,118.09928 51.755938,133.74139 51.696032,88.551847 67.338136,72.909743 Z"
       id="path1095"
       inkscape:label="path1095"
       transform="matrix(0.26458333,0,0,0.26458333,81.166101,67.032153)" />
    <path
       style="display:inline;fill:#ff0000;fill-opacity:0.569492;stroke:none;stroke-width:0.377953;stroke-linejoin:round;stroke-dasharray:0.377953, 1.13386;stroke-dashoffset:0"
       d="m 367.40444,341.90171 15.64211,-15.6421 0.0599,45.18954 -15.6421,15.64209 z"
       id="path2785"
       transform="scale(0.26458333)"
       inkscape:label="A1 Fläche" />
    <path
       style="display:inline;fill:none;fill-opacity:0.461017;stroke:#000000;stroke-width:0.755906;stroke-dasharray:none"
       d="m 374.10766,326.25961 h 8.9389"
       id="path1108"
       transform="scale(0.26458333)" />
    <path
       style="display:inline;fill:none;fill-opacity:0.461017;stroke:#000000;stroke-width:0.755906;stroke-dasharray:none"
       d="m 374.10766,326.25961 h 8.9389"
       id="path1112"
       transform="matrix(0.26458333,0,0,0.26458333,-4.1227875,16.09504)" />
    <path
       style="display:inline;fill:none;fill-opacity:0.461017;stroke:#000000;stroke-width:0.755906;stroke-dasharray:none"
       d="m 374.10766,326.25961 h 8.9389"
       id="path1114"
       transform="matrix(0.26458333,0,0,0.26458333,-4.1386398,4.1386397)" />
    <path
       style="display:inline;fill:none;fill-opacity:0.461017;stroke:#000000;stroke-width:0.755906;stroke-linejoin:round;stroke-dasharray:none"
       d="m 367.46437,387.09125 15.6421,-15.6421 -0.0599,-45.18954 -15.64211,15.6421 z"
       id="path1116"
       transform="matrix(0.26458333,0,0,0.26458333,-3.3178269e-6,-4.3599881e-7)" />
    <path
       style="display:inline;fill:#000000;fill-opacity:0;stroke:#000000;stroke-width:0.377953;stroke-linejoin:round;stroke-dasharray:none;stroke-dashoffset:0"
       d="m 373.91867,326.25962 9.12788,-10e-6"
       id="path1204"
       transform="matrix(0.26458333,0,0,0.26458333,0.05000153,-1.5563096)"
       sodipodi:nodetypes="cc" />
    <path
       style="display:inline;fill:#434343;fill-opacity:0.79322;stroke:#000000;stroke-width:0.377953;stroke-linejoin:round;stroke-dasharray:none;stroke-dashoffset:0"
       d="m 398.86085,309.85096 v 3.76422"
       id="path1206"
       transform="matrix(0.26458333,0,0,0.26458333,-4.1841986,2.287172)" />
    <g
       transform="matrix(0.352778,0,0,0.352778,98.12004,81.375784)"
       ns1:version="1.8.2"
       ns1:texconverter="pdflatex"
       ns1:pdfconverter="inkscape"
       ns1:text="$h$"
       ns1:preamble="/Users/hendrik/Library/Application Support/org.inkscape.Inkscape/config/inkscape/extensions/textext/default_packages.tex"
       ns1:scale="1.0"
       ns1:alignment="middle center"
       ns1:stroke-to-path="0"
       ns1:jacobian_sqrt="0.352778"
       id="g1376"
       style="display:inline;fill:#000000">
      <defs
         id="id-3673e889-e3b6-4d9d-80df-a150cc52cdaf">
        <g
           id="id-0a6f09f1-bd4a-4b2e-9712-4a6e4d3287d8">
          <g
             id="id-f5f8199e-0055-45de-90a7-c7f0478e0d9e" />
          <g
             id="id-cebd74f3-b116-49ca-b58a-820e4325832c">
            <path
               d="m 2.859375,-6.8125 c 0,0 0,-0.109375 -0.125,-0.109375 -0.234375,0 -0.953125,0.078125 -1.21875,0.109375 -0.078125,0 -0.1875,0.015625 -0.1875,0.1875 0,0.125 0.09375,0.125 0.234375,0.125 0.484375,0 0.5,0.0625 0.5,0.171875 L 2.03125,-6.125 0.59375,-0.390625 c -0.046875,0.140625 -0.046875,0.15625 -0.046875,0.21875 0,0.234375 0.203125,0.28125 0.296875,0.28125 0.15625,0 0.3125,-0.125 0.359375,-0.265625 l 0.1875,-0.75 0.21875,-0.890625 C 1.671875,-2.03125 1.734375,-2.25 1.78125,-2.46875 1.796875,-2.53125 1.890625,-2.859375 1.890625,-2.921875 1.921875,-3.015625 2.234375,-3.5625 2.578125,-3.84375 2.796875,-4 3.09375,-4.1875 3.53125,-4.1875 c 0.421875,0 0.53125,0.34375 0.53125,0.703125 0,0.53125 -0.375,1.625 -0.609375,2.234375 C 3.375,-1.03125 3.3125,-0.90625 3.3125,-0.703125 c 0,0.46875 0.359375,0.8125 0.828125,0.8125 0.9375,0 1.296875,-1.453125 1.296875,-1.53125 0,-0.109375 -0.078125,-0.109375 -0.109375,-0.109375 -0.109375,0 -0.109375,0.03125 -0.15625,0.1875 -0.140625,0.53125 -0.46875,1.234375 -1.015625,1.234375 -0.171875,0 -0.234375,-0.09375 -0.234375,-0.328125 0,-0.25 0.078125,-0.484375 0.171875,-0.703125 0.15625,-0.4375 0.609375,-1.625 0.609375,-2.203125 0,-0.640625 -0.390625,-1.0625 -1.140625,-1.0625 -0.625,0 -1.109375,0.3125 -1.484375,0.765625 z m 0,0"
               id="id-4a213eb5-8958-460e-937f-2c3573d8bc05" />
          </g>
        </g>
      </defs>
      <g
         fill="#000000"
         fill-opacity="1"
         id="id-5e4aaf7d-6f0a-4f29-9ded-52926dd0c8e5"
         transform="translate(-149.259,-127.843)"
         style="fill:#000000">
        <g
           transform="translate(148.712,134.765)"
           id="g1373"
           style="fill:#000000">
          <path
             d="m 2.859375,-6.8125 c 0,0 0,-0.109375 -0.125,-0.109375 -0.234375,0 -0.953125,0.078125 -1.21875,0.109375 -0.078125,0 -0.1875,0.015625 -0.1875,0.1875 0,0.125 0.09375,0.125 0.234375,0.125 0.484375,0 0.5,0.0625 0.5,0.171875 L 2.03125,-6.125 0.59375,-0.390625 c -0.046875,0.140625 -0.046875,0.15625 -0.046875,0.21875 0,0.234375 0.203125,0.28125 0.296875,0.28125 0.15625,0 0.3125,-0.125 0.359375,-0.265625 l 0.1875,-0.75 0.21875,-0.890625 C 1.671875,-2.03125 1.734375,-2.25 1.78125,-2.46875 1.796875,-2.53125 1.890625,-2.859375 1.890625,-2.921875 1.921875,-3.015625 2.234375,-3.5625 2.578125,-3.84375 2.796875,-4 3.09375,-4.1875 3.53125,-4.1875 c 0.421875,0 0.53125,0.34375 0.53125,0.703125 0,0.53125 -0.375,1.625 -0.609375,2.234375 C 3.375,-1.03125 3.3125,-0.90625 3.3125,-0.703125 c 0,0.46875 0.359375,0.8125 0.828125,0.8125 0.9375,0 1.296875,-1.453125 1.296875,-1.53125 0,-0.109375 -0.078125,-0.109375 -0.109375,-0.109375 -0.109375,0 -0.109375,0.03125 -0.15625,0.1875 -0.140625,0.53125 -0.46875,1.234375 -1.015625,1.234375 -0.171875,0 -0.234375,-0.09375 -0.234375,-0.328125 0,-0.25 0.078125,-0.484375 0.171875,-0.703125 0.15625,-0.4375 0.609375,-1.625 0.609375,-2.203125 0,-0.640625 -0.390625,-1.0625 -1.140625,-1.0625 -0.625,0 -1.109375,0.3125 -1.484375,0.765625 z m 0,0"
             id="id-aabbad60-db77-4aa4-8531-d4f4f180ab24"
             style="fill:#000000" />
        </g>
      </g>
    </g>
    <g
       id="g6016"
       inkscape:label="roter vektor">
      <path
         style="fill:#575757;fill-opacity:0.711864;stroke:#ff0000;stroke-width:0.755906;stroke-linejoin:miter;stroke-dasharray:none;stroke-dashoffset:0"
         d="m 375.25545,356.67542 h 13.01044"
         id="path5902"
         transform="scale(0.26458333)" />
      <path
         style="display:inline;fill:none;fill-opacity:0.711864;stroke:#ff0000;stroke-width:0.755906;stroke-linejoin:miter;stroke-dasharray:none;stroke-dashoffset:0"
         d="m 413.65057,351.76305 v 3.76129 h -3.76326"
         id="path5958"
         transform="matrix(0.18708867,-0.18708867,0.18708867,0.18708867,-41.175229,105.24513)" />
    </g>
    <g
       transform="matrix(0.352778,0,0,0.352778,104.89516,92.30575)"
       ns1:version="1.8.2"
       ns1:texconverter="pdflatex"
       ns1:pdfconverter="inkscape"
       ns1:text="$\\vec{A}_1$"
       ns1:preamble="/Users/hendrik/Library/Application Support/org.inkscape.Inkscape/config/inkscape/extensions/textext/default_packages.tex"
       ns1:scale="1.0"
       ns1:alignment="middle center"
       ns1:stroke-to-path="0"
       ns1:inkscapeversion="1.2.2"
       ns1:jacobian_sqrt="0.352778"
       style="display:inline;fill:#ff0000;stroke-width:0"
       id="g1467"
       inkscape:label="A1">
      <defs
         id="id-9bd9fd75-a961-44f0-90e9-d02ae2a5d9fb"
         style="fill:#ff0000;stroke-width:0">
        <g
           id="id-0fdbffd8-411f-4bbf-960c-5bdc2ae9b554"
           style="fill:#ff0000;stroke-width:0">
          <g
             id="id-cd0775d3-34dc-4275-a2a1-37948f4a5baa"
             style="fill:#ff0000;stroke-width:0" />
          <g
             id="id-bfb9438c-19ae-4629-bb59-d553dde3091d"
             style="fill:#ff0000;stroke-width:0">
            <path
               d="m 5.359375,-5.9375 c -0.140625,0.140625 -0.46875,0.421875 -0.46875,0.59375 0,0.09375 0.09375,0.203125 0.1875,0.203125 0.09375,0 0.140625,-0.078125 0.203125,-0.140625 C 5.390625,-5.421875 5.625,-5.703125 6.0625,-5.921875 6.125,-5.96875 6.234375,-6.015625 6.234375,-6.125 6.234375,-6.234375 6.15625,-6.28125 6.09375,-6.328125 5.875,-6.484375 5.765625,-6.65625 5.6875,-6.890625 5.65625,-6.984375 5.625,-7.125 5.484375,-7.125 c -0.140625,0 -0.203125,0.140625 -0.203125,0.21875 0,0.046875 0.078125,0.359375 0.234375,0.578125 H 2.15625 c -0.15625,0 -0.34375,0 -0.34375,0.203125 0,0.1875 0.1875,0.1875 0.34375,0.1875 z m 0,0"
               id="id-76a43500-3f17-4fcc-a766-8680218f9f21"
               style="fill:#ff0000;stroke-width:0" />
          </g>
          <g
             id="id-c27845f5-d799-40c5-bb1b-6366ae32e4fd"
             style="fill:#ff0000;stroke-width:0">
            <path
               d="M 1.78125,-1.140625 C 1.390625,-0.484375 1,-0.34375 0.5625,-0.3125 0.4375,-0.296875 0.34375,-0.296875 0.34375,-0.109375 0.34375,-0.046875 0.40625,0 0.484375,0 0.75,0 1.0625,-0.03125 1.328125,-0.03125 c 0.34375,0 0.6875,0.03125 1,0.03125 0.0625,0 0.1875,0 0.1875,-0.1875 0,-0.109375 -0.078125,-0.125 -0.15625,-0.125 -0.21875,-0.015625 -0.46875,-0.09375 -0.46875,-0.34375 0,-0.125 0.0625,-0.234375 0.140625,-0.375 l 0.765625,-1.265625 h 2.5 c 0.015625,0.203125 0.15625,1.5625 0.15625,1.65625 0,0.296875 -0.515625,0.328125 -0.71875,0.328125 C 4.59375,-0.3125 4.5,-0.3125 4.5,-0.109375 4.5,0 4.609375,0 4.640625,0 5.046875,0 5.46875,-0.03125 5.875,-0.03125 6.125,-0.03125 6.765625,0 7.015625,0 7.0625,0 7.1875,0 7.1875,-0.203125 7.1875,-0.3125 7.09375,-0.3125 6.953125,-0.3125 6.34375,-0.3125 6.34375,-0.375 6.3125,-0.671875 l -0.609375,-6.21875 c -0.015625,-0.203125 -0.015625,-0.25 -0.1875,-0.25 -0.15625,0 -0.203125,0.078125 -0.265625,0.171875 z M 2.984375,-2.609375 4.9375,-5.90625 5.265625,-2.609375 Z m 0,0"
               id="id-348142c4-3494-419d-a22b-cb9eb4123498"
               style="fill:#ff0000;stroke-width:0" />
          </g>
          <g
             id="id-85edb236-c56f-4093-804b-6c49ccf27a51"
             style="fill:#ff0000;stroke-width:0" />
          <g
             id="id-196ed45b-83c1-4157-b827-4ee043eb25b4"
             style="fill:#ff0000;stroke-width:0">
            <path
               d="m 2.328125,-4.4375 c 0,-0.1875 0,-0.1875 -0.203125,-0.1875 -0.453125,0.4375 -1.078125,0.4375 -1.359375,0.4375 v 0.25 c 0.15625,0 0.625,0 1,-0.1875 v 3.546875 c 0,0.234375 0,0.328125 -0.6875,0.328125 H 0.8125 V 0 c 0.125,0 0.984375,-0.03125 1.234375,-0.03125 0.21875,0 1.09375,0.03125 1.25,0.03125 V -0.25 H 3.03125 c -0.703125,0 -0.703125,-0.09375 -0.703125,-0.328125 z m 0,0"
               id="id-eb328fd7-c18b-478f-afdf-0f06a3e83c85"
               style="fill:#ff0000;stroke-width:0" />
          </g>
        </g>
      </defs>
      <g
         fill-opacity="1"
         id="id-84dd7eac-4d2a-4364-9327-b682ff13fe53"
         transform="translate(-149.056,-125.121)"
         style="fill:#ff0000;stroke-width:0">
        <g
           transform="translate(150.575,132.246)"
           style="fill:#ff0000;stroke-width:0"
           id="g6164">
          <path
             d="m 5.359375,-5.9375 c -0.140625,0.140625 -0.46875,0.421875 -0.46875,0.59375 0,0.09375 0.09375,0.203125 0.1875,0.203125 0.09375,0 0.140625,-0.078125 0.203125,-0.140625 C 5.390625,-5.421875 5.625,-5.703125 6.0625,-5.921875 6.125,-5.96875 6.234375,-6.015625 6.234375,-6.125 6.234375,-6.234375 6.15625,-6.28125 6.09375,-6.328125 5.875,-6.484375 5.765625,-6.65625 5.6875,-6.890625 5.65625,-6.984375 5.625,-7.125 5.484375,-7.125 c -0.140625,0 -0.203125,0.140625 -0.203125,0.21875 0,0.046875 0.078125,0.359375 0.234375,0.578125 H 2.15625 c -0.15625,0 -0.34375,0 -0.34375,0.203125 0,0.1875 0.1875,0.1875 0.34375,0.1875 z m 0,0"
             id="id-fe072480-e0c6-43ec-968a-3831750ff59c"
             style="fill:#ff0000;stroke-width:0" />
        </g>
      </g>
      <g
         fill-opacity="1"
         id="id-b2813a5f-aa50-450d-bc7f-55e27746796c"
         transform="translate(-149.056,-125.121)"
         style="fill:#ff0000;stroke-width:0">
        <g
           transform="translate(148.712,134.765)"
           style="fill:#ff0000;stroke-width:0"
           id="g6168">
          <path
             d="M 1.78125,-1.140625 C 1.390625,-0.484375 1,-0.34375 0.5625,-0.3125 0.4375,-0.296875 0.34375,-0.296875 0.34375,-0.109375 0.34375,-0.046875 0.40625,0 0.484375,0 0.75,0 1.0625,-0.03125 1.328125,-0.03125 c 0.34375,0 0.6875,0.03125 1,0.03125 0.0625,0 0.1875,0 0.1875,-0.1875 0,-0.109375 -0.078125,-0.125 -0.15625,-0.125 -0.21875,-0.015625 -0.46875,-0.09375 -0.46875,-0.34375 0,-0.125 0.0625,-0.234375 0.140625,-0.375 l 0.765625,-1.265625 h 2.5 c 0.015625,0.203125 0.15625,1.5625 0.15625,1.65625 0,0.296875 -0.515625,0.328125 -0.71875,0.328125 C 4.59375,-0.3125 4.5,-0.3125 4.5,-0.109375 4.5,0 4.609375,0 4.640625,0 5.046875,0 5.46875,-0.03125 5.875,-0.03125 6.125,-0.03125 6.765625,0 7.015625,0 7.0625,0 7.1875,0 7.1875,-0.203125 7.1875,-0.3125 7.09375,-0.3125 6.953125,-0.3125 6.34375,-0.3125 6.34375,-0.375 6.3125,-0.671875 l -0.609375,-6.21875 c -0.015625,-0.203125 -0.015625,-0.25 -0.1875,-0.25 -0.15625,0 -0.203125,0.078125 -0.265625,0.171875 z M 2.984375,-2.609375 4.9375,-5.90625 5.265625,-2.609375 Z m 0,0"
             id="id-c3c51935-c145-4389-98de-fb390be431d8"
             style="fill:#ff0000;stroke-width:0" />
        </g>
      </g>
      <g
         fill-opacity="1"
         id="id-ef1a6763-e36a-4022-886b-2669a4f3337f"
         transform="translate(-149.056,-125.121)"
         style="fill:#ff0000;stroke-width:0">
        <g
           transform="translate(156.184,136.259)"
           style="fill:#ff0000;stroke-width:0"
           id="g6172">
          <path
             d="m 2.328125,-4.4375 c 0,-0.1875 0,-0.1875 -0.203125,-0.1875 -0.453125,0.4375 -1.078125,0.4375 -1.359375,0.4375 v 0.25 c 0.15625,0 0.625,0 1,-0.1875 v 3.546875 c 0,0.234375 0,0.328125 -0.6875,0.328125 H 0.8125 V 0 c 0.125,0 0.984375,-0.03125 1.234375,-0.03125 0.21875,0 1.09375,0.03125 1.25,0.03125 V -0.25 H 3.03125 c -0.703125,0 -0.703125,-0.09375 -0.703125,-0.328125 z m 0,0"
             id="id-f8e5a6e4-9738-4f0a-800f-9c7cc1be0781"
             style="fill:#ff0000;stroke-width:0" />
        </g>
      </g>
    </g>
    <g
       transform="matrix(0.352778,0,0,0.352778,85.54194,92.30557)"
       ns1:version="1.8.2"
       ns1:texconverter="pdflatex"
       ns1:pdfconverter="inkscape"
       ns1:text="$\\vec{A}_2$"
       ns1:preamble="/Users/hendrik/Library/Application Support/org.inkscape.Inkscape/config/inkscape/extensions/textext/default_packages.tex"
       ns1:scale="1.0000000283464388"
       ns1:alignment="middle center"
       ns1:stroke-to-path="0"
       ns1:inkscapeversion="1.2.2"
       ns1:jacobian_sqrt="0.352778"
       style="display:inline;fill:#0000ff;stroke-width:0"
       id="g1594"
       inkscape:label="A2">
      <defs
         id="id-b8236a93-0ce9-44c7-ba08-6aca0f1774c0"
         style="fill:#0000ff;stroke-width:0">
        <g
           id="id-93a13cb0-d299-4632-9c9d-aa4b059b51bb"
           style="fill:#0000ff;stroke-width:0">
          <g
             id="id-a11f5515-5325-45c3-a2cd-db5591cd1f2e"
             style="fill:#0000ff;stroke-width:0" />
          <g
             id="id-1abf0a9f-3173-488a-ac5d-87b98e52ad3c"
             style="fill:#0000ff;stroke-width:0">
            <path
               d="m 5.359375,-5.9375 c -0.140625,0.140625 -0.46875,0.421875 -0.46875,0.59375 0,0.09375 0.09375,0.203125 0.1875,0.203125 0.09375,0 0.140625,-0.078125 0.203125,-0.140625 C 5.390625,-5.421875 5.625,-5.703125 6.0625,-5.921875 6.125,-5.96875 6.234375,-6.015625 6.234375,-6.125 6.234375,-6.234375 6.15625,-6.28125 6.09375,-6.328125 5.875,-6.484375 5.765625,-6.65625 5.6875,-6.890625 5.65625,-6.984375 5.625,-7.125 5.484375,-7.125 c -0.140625,0 -0.203125,0.140625 -0.203125,0.21875 0,0.046875 0.078125,0.359375 0.234375,0.578125 H 2.15625 c -0.15625,0 -0.34375,0 -0.34375,0.203125 0,0.1875 0.1875,0.1875 0.34375,0.1875 z m 0,0"
               id="id-67a3bab2-c3a4-4045-95a0-9fcf60f21ab6"
               style="fill:#0000ff;stroke-width:0" />
          </g>
          <g
             id="id-9d0909d6-21dc-4985-ad6e-754bdd384da1"
             style="fill:#0000ff;stroke-width:0">
            <path
               d="M 1.78125,-1.140625 C 1.390625,-0.484375 1,-0.34375 0.5625,-0.3125 0.4375,-0.296875 0.34375,-0.296875 0.34375,-0.109375 0.34375,-0.046875 0.40625,0 0.484375,0 0.75,0 1.0625,-0.03125 1.328125,-0.03125 c 0.34375,0 0.6875,0.03125 1,0.03125 0.0625,0 0.1875,0 0.1875,-0.1875 0,-0.109375 -0.078125,-0.125 -0.15625,-0.125 -0.21875,-0.015625 -0.46875,-0.09375 -0.46875,-0.34375 0,-0.125 0.0625,-0.234375 0.140625,-0.375 l 0.765625,-1.265625 h 2.5 c 0.015625,0.203125 0.15625,1.5625 0.15625,1.65625 0,0.296875 -0.515625,0.328125 -0.71875,0.328125 C 4.59375,-0.3125 4.5,-0.3125 4.5,-0.109375 4.5,0 4.609375,0 4.640625,0 5.046875,0 5.46875,-0.03125 5.875,-0.03125 6.125,-0.03125 6.765625,0 7.015625,0 7.0625,0 7.1875,0 7.1875,-0.203125 7.1875,-0.3125 7.09375,-0.3125 6.953125,-0.3125 6.34375,-0.3125 6.34375,-0.375 6.3125,-0.671875 l -0.609375,-6.21875 c -0.015625,-0.203125 -0.015625,-0.25 -0.1875,-0.25 -0.15625,0 -0.203125,0.078125 -0.265625,0.171875 z M 2.984375,-2.609375 4.9375,-5.90625 5.265625,-2.609375 Z m 0,0"
               id="id-51698e9d-935e-4d40-991d-77aba66f0d79"
               style="fill:#0000ff;stroke-width:0" />
          </g>
          <g
             id="id-5394240a-3345-4a36-bc35-548ab06bfb63"
             style="fill:#0000ff;stroke-width:0" />
          <g
             id="id-3aef35f4-51c2-4a56-91c3-88a0b9188878"
             style="fill:#0000ff;stroke-width:0">
            <path
               d="M 3.515625,-1.265625 H 3.28125 c -0.015625,0.15625 -0.09375,0.5625 -0.1875,0.625 C 3.046875,-0.59375 2.515625,-0.59375 2.40625,-0.59375 H 1.125 c 0.734375,-0.640625 0.984375,-0.84375 1.390625,-1.171875 0.515625,-0.40625 1,-0.84375 1,-1.5 0,-0.84375 -0.734375,-1.359375 -1.625,-1.359375 -0.859375,0 -1.453125,0.609375 -1.453125,1.25 0,0.34375 0.296875,0.390625 0.375,0.390625 0.15625,0 0.359375,-0.125 0.359375,-0.375 0,-0.125 -0.046875,-0.375 -0.40625,-0.375 C 0.984375,-4.21875 1.453125,-4.375 1.78125,-4.375 c 0.703125,0 1.0625,0.546875 1.0625,1.109375 0,0.609375 -0.4375,1.078125 -0.65625,1.328125 L 0.515625,-0.265625 C 0.4375,-0.203125 0.4375,-0.1875 0.4375,0 h 2.875 z m 0,0"
               id="id-bb76151c-7a63-4212-a91c-f9bfc5d6dd7f"
               style="fill:#0000ff;stroke-width:0" />
          </g>
        </g>
      </defs>
      <g
         fill-opacity="1"
         id="id-20ce7cf9-3b88-482c-9d58-72e6b3131873"
         transform="translate(-149.056,-125.121)"
         style="fill:#0000ff;stroke-width:0">
        <g
           transform="translate(150.575,132.246)"
           style="fill:#0000ff;stroke-width:0"
           id="g6345">
          <path
             d="m 5.359375,-5.9375 c -0.140625,0.140625 -0.46875,0.421875 -0.46875,0.59375 0,0.09375 0.09375,0.203125 0.1875,0.203125 0.09375,0 0.140625,-0.078125 0.203125,-0.140625 C 5.390625,-5.421875 5.625,-5.703125 6.0625,-5.921875 6.125,-5.96875 6.234375,-6.015625 6.234375,-6.125 6.234375,-6.234375 6.15625,-6.28125 6.09375,-6.328125 5.875,-6.484375 5.765625,-6.65625 5.6875,-6.890625 5.65625,-6.984375 5.625,-7.125 5.484375,-7.125 c -0.140625,0 -0.203125,0.140625 -0.203125,0.21875 0,0.046875 0.078125,0.359375 0.234375,0.578125 H 2.15625 c -0.15625,0 -0.34375,0 -0.34375,0.203125 0,0.1875 0.1875,0.1875 0.34375,0.1875 z m 0,0"
             id="id-b2d92098-e6e1-4c12-9e33-b1ed6174c55d"
             style="fill:#0000ff;stroke-width:0" />
        </g>
      </g>
      <g
         fill-opacity="1"
         id="id-ad08b2ff-1f41-4219-a097-98f4678f261a"
         transform="translate(-149.056,-125.121)"
         style="fill:#0000ff;stroke-width:0">
        <g
           transform="translate(148.712,134.765)"
           style="fill:#0000ff;stroke-width:0"
           id="g6349">
          <path
             d="M 1.78125,-1.140625 C 1.390625,-0.484375 1,-0.34375 0.5625,-0.3125 0.4375,-0.296875 0.34375,-0.296875 0.34375,-0.109375 0.34375,-0.046875 0.40625,0 0.484375,0 0.75,0 1.0625,-0.03125 1.328125,-0.03125 c 0.34375,0 0.6875,0.03125 1,0.03125 0.0625,0 0.1875,0 0.1875,-0.1875 0,-0.109375 -0.078125,-0.125 -0.15625,-0.125 -0.21875,-0.015625 -0.46875,-0.09375 -0.46875,-0.34375 0,-0.125 0.0625,-0.234375 0.140625,-0.375 l 0.765625,-1.265625 h 2.5 c 0.015625,0.203125 0.15625,1.5625 0.15625,1.65625 0,0.296875 -0.515625,0.328125 -0.71875,0.328125 C 4.59375,-0.3125 4.5,-0.3125 4.5,-0.109375 4.5,0 4.609375,0 4.640625,0 5.046875,0 5.46875,-0.03125 5.875,-0.03125 6.125,-0.03125 6.765625,0 7.015625,0 7.0625,0 7.1875,0 7.1875,-0.203125 7.1875,-0.3125 7.09375,-0.3125 6.953125,-0.3125 6.34375,-0.3125 6.34375,-0.375 6.3125,-0.671875 l -0.609375,-6.21875 c -0.015625,-0.203125 -0.015625,-0.25 -0.1875,-0.25 -0.15625,0 -0.203125,0.078125 -0.265625,0.171875 z M 2.984375,-2.609375 4.9375,-5.90625 5.265625,-2.609375 Z m 0,0"
             id="id-bcc1d61d-42de-4fc1-a901-e146e7eaa89a"
             style="fill:#0000ff;stroke-width:0" />
        </g>
      </g>
      <g
         fill-opacity="1"
         id="id-65d0b53d-d7cc-43fc-b50d-dd8d6aa61dc1"
         transform="translate(-149.056,-125.121)"
         style="fill:#0000ff;stroke-width:0">
        <g
           transform="translate(156.184,136.259)"
           style="fill:#0000ff;stroke-width:0"
           id="g6353">
          <path
             d="M 3.515625,-1.265625 H 3.28125 c -0.015625,0.15625 -0.09375,0.5625 -0.1875,0.625 C 3.046875,-0.59375 2.515625,-0.59375 2.40625,-0.59375 H 1.125 c 0.734375,-0.640625 0.984375,-0.84375 1.390625,-1.171875 0.515625,-0.40625 1,-0.84375 1,-1.5 0,-0.84375 -0.734375,-1.359375 -1.625,-1.359375 -0.859375,0 -1.453125,0.609375 -1.453125,1.25 0,0.34375 0.296875,0.390625 0.375,0.390625 0.15625,0 0.359375,-0.125 0.359375,-0.375 0,-0.125 -0.046875,-0.375 -0.40625,-0.375 C 0.984375,-4.21875 1.453125,-4.375 1.78125,-4.375 c 0.703125,0 1.0625,0.546875 1.0625,1.109375 0,0.609375 -0.4375,1.078125 -0.65625,1.328125 L 0.515625,-0.265625 C 0.4375,-0.203125 0.4375,-0.1875 0.4375,0 h 2.875 z m 0,0"
             id="id-e984fd11-5fae-467c-8c66-28abfcf4706a"
             style="fill:#0000ff;stroke-width:0" />
        </g>
      </g>
    </g>
    <g
       transform="matrix(0.352778,0,0,0.352778,105.08295,75.107037)"
       ns1:version="1.8.2"
       ns1:texconverter="pdflatex"
       ns1:pdfconverter="inkscape"
       ns1:text="$\\varepsilon_A$"
       ns1:preamble="/Users/hendrik/Library/Application Support/org.inkscape.Inkscape/config/inkscape/extensions/textext/default_packages.tex"
       ns1:scale="1.0000000283464388"
       ns1:alignment="middle center"
       ns1:stroke-to-path="0"
       ns1:inkscapeversion="1.2.2"
       ns1:jacobian_sqrt="0.352778"
       id="g8396"
       style="display:inline">
      <defs
         id="id-bc9bf766-d7d7-404a-bcdc-856b442c3592">
        <g
           id="id-dd46e6aa-6b34-438e-a896-44496cbb3fa5">
          <g
             id="id-bb9bb676-e115-4a88-9135-24c045d3cd10" />
          <g
             id="id-d4a92024-8349-47c8-8306-c7ffa176afb6">
            <path
               d="M 1.40625,-2.265625 C 1.734375,-2.125 2.03125,-2.125 2.265625,-2.125 c 0.25,0 0.8125,0 0.8125,-0.3125 0,-0.234375 -0.359375,-0.265625 -0.734375,-0.265625 -0.203125,0 -0.5625,0.015625 -0.921875,0.1875 C 1.1875,-2.625 1.015625,-2.828125 1.015625,-3.09375 c 0,-0.609375 0.984375,-0.96875 1.875,-0.96875 0.15625,0 0.515625,0 0.921875,0.28125 0.109375,0.078125 0.125,0.109375 0.1875,0.109375 0.140625,0 0.28125,-0.140625 0.28125,-0.28125 0,-0.1875 -0.609375,-0.5625 -1.296875,-0.5625 -1.140625,0 -2.21875,0.671875 -2.21875,1.421875 0,0.4375 0.359375,0.6875 0.40625,0.71875 -0.59375,0.328125 -0.90625,0.875 -0.90625,1.34375 0,0.640625 0.5625,1.25 1.625,1.25 1.3125,0 1.875,-0.875 1.875,-1.03125 0,-0.0625 -0.0625,-0.09375 -0.109375,-0.09375 -0.0625,0 -0.09375,0.03125 -0.109375,0.0625 -0.140625,0.234375 -0.375,0.609375 -1.578125,0.609375 -0.609375,0 -1.453125,-0.15625 -1.453125,-0.859375 0,-0.34375 0.28125,-0.875 0.890625,-1.171875 z m 0.328125,-0.125 c 0.234375,-0.078125 0.4375,-0.09375 0.609375,-0.09375 0.25,0 0.28125,0.015625 0.46875,0.0625 -0.15625,0.0625 -0.171875,0.078125 -0.546875,0.078125 -0.21875,0 -0.34375,0 -0.53125,-0.046875 z m 0,0"
               id="id-63c9cc8a-15bc-48ed-ba55-26200bc2a248" />
          </g>
          <g
             id="id-b7b800bc-7ea8-4ea1-830d-39f04c4d3e58" />
          <g
             id="id-1d5b2ffc-4d5a-4f39-9195-4edbf759cfe7">
            <path
               d="m 1.4375,-0.84375 c -0.25,0.390625 -0.46875,0.5625 -0.875,0.59375 -0.078125,0 -0.171875,0 -0.171875,0.140625 C 0.390625,-0.03125 0.453125,0 0.5,0 0.671875,0 0.90625,-0.03125 1.09375,-0.03125 1.3125,-0.03125 1.609375,0 1.8125,0 1.84375,0 1.953125,0 1.953125,-0.15625 1.953125,-0.25 1.859375,-0.25 1.828125,-0.25 1.78125,-0.265625 1.53125,-0.265625 1.53125,-0.453125 c 0,-0.09375 0.0625,-0.203125 0.09375,-0.265625 l 0.5625,-0.875 h 2 L 4.34375,-0.4375 C 4.328125,-0.359375 4.28125,-0.25 3.875,-0.25 c -0.09375,0 -0.1875,0 -0.1875,0.15625 C 3.6875,-0.0625 3.703125,0 3.796875,0 4,0 4.5,-0.03125 4.703125,-0.03125 c 0.125,0 0.28125,0.015625 0.40625,0.015625 C 5.234375,-0.015625 5.375,0 5.5,0 5.59375,0 5.640625,-0.0625 5.640625,-0.140625 5.640625,-0.25 5.5625,-0.25 5.453125,-0.25 c -0.40625,0 -0.421875,-0.0625 -0.4375,-0.21875 l -0.625,-4.3125 C 4.375,-4.921875 4.359375,-4.96875 4.234375,-4.96875 4.09375,-4.96875 4.0625,-4.90625 4,-4.8125 Z m 0.921875,-1 L 3.8125,-4.125 4.140625,-1.84375 Z m 0,0"
               id="id-8237d6ac-6949-43e8-84e1-f29770742074" />
          </g>
        </g>
      </defs>
      <g
         fill="#000000"
         fill-opacity="1"
         id="id-dcb76897-d6df-42f2-b772-203fb1a54473"
         transform="translate(-148.978,-130.249)">
        <g
           transform="translate(148.712,134.765)"
           id="g8389">
          <path
             d="M 1.40625,-2.265625 C 1.734375,-2.125 2.03125,-2.125 2.265625,-2.125 c 0.25,0 0.8125,0 0.8125,-0.3125 0,-0.234375 -0.359375,-0.265625 -0.734375,-0.265625 -0.203125,0 -0.5625,0.015625 -0.921875,0.1875 C 1.1875,-2.625 1.015625,-2.828125 1.015625,-3.09375 c 0,-0.609375 0.984375,-0.96875 1.875,-0.96875 0.15625,0 0.515625,0 0.921875,0.28125 0.109375,0.078125 0.125,0.109375 0.1875,0.109375 0.140625,0 0.28125,-0.140625 0.28125,-0.28125 0,-0.1875 -0.609375,-0.5625 -1.296875,-0.5625 -1.140625,0 -2.21875,0.671875 -2.21875,1.421875 0,0.4375 0.359375,0.6875 0.40625,0.71875 -0.59375,0.328125 -0.90625,0.875 -0.90625,1.34375 0,0.640625 0.5625,1.25 1.625,1.25 1.3125,0 1.875,-0.875 1.875,-1.03125 0,-0.0625 -0.0625,-0.09375 -0.109375,-0.09375 -0.0625,0 -0.09375,0.03125 -0.109375,0.0625 -0.140625,0.234375 -0.375,0.609375 -1.578125,0.609375 -0.609375,0 -1.453125,-0.15625 -1.453125,-0.859375 0,-0.34375 0.28125,-0.875 0.890625,-1.171875 z m 0.328125,-0.125 c 0.234375,-0.078125 0.4375,-0.09375 0.609375,-0.09375 0.25,0 0.28125,0.015625 0.46875,0.0625 -0.15625,0.0625 -0.171875,0.078125 -0.546875,0.078125 -0.21875,0 -0.34375,0 -0.53125,-0.046875 z m 0,0"
             id="id-5ec7557b-3f04-472b-ad4e-ff7457452b1e" />
        </g>
      </g>
      <g
         fill="#000000"
         fill-opacity="1"
         id="id-72f6b4ac-5eb2-4ba3-941a-a1d7ca3546d2"
         transform="translate(-148.978,-130.249)">
        <g
           transform="translate(153.358,136.259)"
           id="g8393">
          <path
             d="m 1.4375,-0.84375 c -0.25,0.390625 -0.46875,0.5625 -0.875,0.59375 -0.078125,0 -0.171875,0 -0.171875,0.140625 C 0.390625,-0.03125 0.453125,0 0.5,0 0.671875,0 0.90625,-0.03125 1.09375,-0.03125 1.3125,-0.03125 1.609375,0 1.8125,0 1.84375,0 1.953125,0 1.953125,-0.15625 1.953125,-0.25 1.859375,-0.25 1.828125,-0.25 1.78125,-0.265625 1.53125,-0.265625 1.53125,-0.453125 c 0,-0.09375 0.0625,-0.203125 0.09375,-0.265625 l 0.5625,-0.875 h 2 L 4.34375,-0.4375 C 4.328125,-0.359375 4.28125,-0.25 3.875,-0.25 c -0.09375,0 -0.1875,0 -0.1875,0.15625 C 3.6875,-0.0625 3.703125,0 3.796875,0 4,0 4.5,-0.03125 4.703125,-0.03125 c 0.125,0 0.28125,0.015625 0.40625,0.015625 C 5.234375,-0.015625 5.375,0 5.5,0 5.59375,0 5.640625,-0.0625 5.640625,-0.140625 5.640625,-0.25 5.5625,-0.25 5.453125,-0.25 c -0.40625,0 -0.421875,-0.0625 -0.4375,-0.21875 l -0.625,-4.3125 C 4.375,-4.921875 4.359375,-4.96875 4.234375,-4.96875 4.09375,-4.96875 4.0625,-4.90625 4,-4.8125 Z m 0.921875,-1 L 3.8125,-4.125 4.140625,-1.84375 Z m 0,0"
             id="id-87558e42-1115-4922-b7a7-4c4539525b23" />
        </g>
      </g>
    </g>
  </g>
</svg>
