<?xml version="1.0" encoding="UTF-8" standalone="no"?>
<!-- Created with Inkscape (http://www.inkscape.org/) -->

<svg
   width="81.428314mm"
   height="41.1735mm"
   viewBox="0 0 81.428314 41.1735"
   version="1.1"
   id="svg5"
   inkscape:version="1.2.2 (b0a8486, 2022-12-01)"
   sodipodi:docname="Pillendose.svg"
   xmlns:inkscape="http://www.inkscape.org/namespaces/inkscape"
   xmlns:sodipodi="http://sodipodi.sourceforge.net/DTD/sodipodi-0.dtd"
   xmlns="http://www.w3.org/2000/svg"
   xmlns:svg="http://www.w3.org/2000/svg"
   xmlns:ns2="http://www.iki.fi/pav/software/textext/">
  <sodipodi:namedview
     id="namedview7"
     pagecolor="#ffffff"
     bordercolor="#000000"
     borderopacity="0.25"
     inkscape:showpageshadow="2"
     inkscape:pageopacity="0.0"
     inkscape:pagecheckerboard="0"
     inkscape:deskcolor="#d1d1d1"
     inkscape:document-units="mm"
     showgrid="false"
     inkscape:zoom="1.9783866"
     inkscape:cx="145.32044"
     inkscape:cy="61.666412"
     inkscape:window-width="1440"
     inkscape:window-height="782"
     inkscape:window-x="0"
     inkscape:window-y="23"
     inkscape:window-maximized="0"
     inkscape:current-layer="layer2" />
  <defs
     id="defs2">
    <marker
       style="overflow:visible"
       id="TriangleStart"
       refX="0"
       refY="0"
       orient="auto-start-reverse"
       inkscape:stockid="TriangleStart"
       markerWidth="4"
       markerHeight="4"
       viewBox="0 0 5.3244081 6.1553851"
       inkscape:isstock="true"
       inkscape:collect="always"
       preserveAspectRatio="xMidYMid">
      <path
         transform="scale(0.5)"
         style="fill:context-stroke;fill-rule:evenodd;stroke:context-stroke;stroke-width:1pt"
         d="M 5.77,0 -2.88,5 V -5 Z"
         id="path135" />
    </marker>
  </defs>
  <g
     inkscape:groupmode="layer"
     id="layer2"
     inkscape:label="Layer 2"
     style="display:inline"
     transform="translate(-45.359988,-42.808372)">
    <path
       style="fill:none;stroke:#000000;stroke-width:0.944882;stroke-linecap:butt;stroke-linejoin:round;stroke-dasharray:none"
       d="m 344.63407,214.79963 -41.0506,41.05059 v 0 h -67.01748 l 41.0506,-41.05059 z"
       id="path1148"
       transform="matrix(0.26458333,0,0,0.26458333,9.1862225,-2.2792883)"
       sodipodi:nodetypes="ccccccc" />
    <path
       style="fill:none;stroke:#000000;stroke-width:0.944882;stroke-linecap:butt;stroke-linejoin:round;stroke-dasharray:none"
       d="m 271.28557,247.23558 v 8.43807"
       id="path1201"
       transform="matrix(0.26458333,0,0,0.26458333,4.0739862e-7,1.8379512e-6)" />
    <path
       style="fill:none;stroke:#000000;stroke-width:0.944882;stroke-linecap:butt;stroke-linejoin:round;stroke-dasharray:none"
       d="m 271.28557,247.23558 v 8.43807"
       id="path1203"
       transform="matrix(0.26458333,0,0,0.26458333,17.731708,1.8379512e-6)" />
    <path
       style="fill:none;stroke:#000000;stroke-width:0.944882;stroke-linecap:butt;stroke-linejoin:round;stroke-dasharray:none"
       d="m 271.28557,247.23558 v 8.43807"
       id="path1213"
       transform="matrix(0.26458333,0,0,0.26458333,28.593013,-10.8613)" />
    <path
       style="fill:none;stroke:#000000;stroke-width:0.944882;stroke-linecap:round;stroke-linejoin:round;stroke-dasharray:none"
       d="m 271.28557,255.67365 h 67.01748 l 41.0506,-41.05059"
       id="path1215"
       transform="scale(0.26458333)" />
    <path
       style="fill:none;stroke:#000000;stroke-width:0.944882;stroke-linecap:butt;stroke-linejoin:round;stroke-dasharray:0.944882, 0.944882;stroke-dashoffset:0"
       d="m 271.28557,247.23558 0,8.43807"
       id="path1219"
       transform="matrix(0.26458333,0,0,-0.26458351,17.731709,135.29402)"
       sodipodi:nodetypes="cc" />
    <path
       style="fill:none;stroke:#000000;stroke-width:0.944882;stroke-linecap:butt;stroke-linejoin:miter;stroke-dasharray:0.944882, 0.944882;stroke-dashoffset:0"
       d="m 271.28557,247.23558 v 8.43807 c -13.68354,13.68352 -27.36707,27.36705 -41.0506,41.05058 h -67.01748 v -8.43807"
       id="path1219-1"
       transform="matrix(0.26458333,0,0,0.26458333,28.593013,-8.6287273)"
       sodipodi:nodetypes="ccccc" />
    <path
       style="fill:none;stroke:#000000;stroke-width:0.944882;stroke-linecap:butt;stroke-linejoin:miter;stroke-dasharray:0.944882, 0.944882;stroke-dashoffset:0"
       d="m 379.35365,223.06113 h -67.01748 l -41.0506,41.05058"
       id="path1264"
       transform="scale(0.26458333)"
       sodipodi:nodetypes="ccc" />
    <path
       style="fill:none;fill-opacity:0.474403;stroke:#000000;stroke-width:0.944882;stroke-linecap:butt;stroke-linejoin:round;stroke-dasharray:0.944882, 0.944882;stroke-dashoffset:0"
       d="m 271.28557,255.67364 41.0506,-41.05058 h 67.01748"
       id="path1781"
       transform="scale(0.26458333)"
       sodipodi:nodetypes="ccc" />
    <g
       transform="matrix(0.352778,0,0,0.352778,50.508329,69.557232)"
       ns2:version="1.8.2"
       ns2:texconverter="pdflatex"
       ns2:pdfconverter="inkscape"
       ns2:text="$\\varepsilon_A$"
       ns2:preamble="/Users/hendrik/Library/Application Support/org.inkscape.Inkscape/config/inkscape/extensions/textext/default_packages.tex"
       ns2:scale="1.0"
       ns2:alignment="middle center"
       ns2:stroke-to-path="0"
       ns2:inkscapeversion="1.2.2"
       ns2:jacobian_sqrt="0.352778"
       id="g2012">
      <defs
         id="id-bb747818-80ce-4d85-8a9d-7f817a788295">
        <g
           id="id-0e1c2c6c-969b-4822-afb4-66ce4ec25d28">
          <g
             id="id-521efd22-7241-4f8c-8bed-f3902c2a34fa" />
          <g
             id="id-f7a0bda8-2d22-4e8a-9002-d8c956ad7706">
            <path
               d="M 1.40625,-2.265625 C 1.734375,-2.125 2.03125,-2.125 2.265625,-2.125 c 0.25,0 0.8125,0 0.8125,-0.3125 0,-0.234375 -0.359375,-0.265625 -0.734375,-0.265625 -0.203125,0 -0.5625,0.015625 -0.921875,0.1875 C 1.1875,-2.625 1.015625,-2.828125 1.015625,-3.09375 c 0,-0.609375 0.984375,-0.96875 1.875,-0.96875 0.15625,0 0.515625,0 0.921875,0.28125 0.109375,0.078125 0.125,0.109375 0.1875,0.109375 0.140625,0 0.28125,-0.140625 0.28125,-0.28125 0,-0.1875 -0.609375,-0.5625 -1.296875,-0.5625 -1.140625,0 -2.21875,0.671875 -2.21875,1.421875 0,0.4375 0.359375,0.6875 0.40625,0.71875 -0.59375,0.328125 -0.90625,0.875 -0.90625,1.34375 0,0.640625 0.5625,1.25 1.625,1.25 1.3125,0 1.875,-0.875 1.875,-1.03125 0,-0.0625 -0.0625,-0.09375 -0.109375,-0.09375 -0.0625,0 -0.09375,0.03125 -0.109375,0.0625 -0.140625,0.234375 -0.375,0.609375 -1.578125,0.609375 -0.609375,0 -1.453125,-0.15625 -1.453125,-0.859375 0,-0.34375 0.28125,-0.875 0.890625,-1.171875 z m 0.328125,-0.125 c 0.234375,-0.078125 0.4375,-0.09375 0.609375,-0.09375 0.25,0 0.28125,0.015625 0.46875,0.0625 -0.15625,0.0625 -0.171875,0.078125 -0.546875,0.078125 -0.21875,0 -0.34375,0 -0.53125,-0.046875 z m 0,0"
               id="id-1327703e-8c77-434c-b02d-eb5a089997a2" />
          </g>
          <g
             id="id-2dd83a3a-5927-489d-8961-d03a0cf88dfd" />
          <g
             id="id-72519f96-cb46-4aa1-a134-39dacc6b3b18">
            <path
               d="m 1.4375,-0.84375 c -0.25,0.390625 -0.46875,0.5625 -0.875,0.59375 -0.078125,0 -0.171875,0 -0.171875,0.140625 C 0.390625,-0.03125 0.453125,0 0.5,0 0.671875,0 0.90625,-0.03125 1.09375,-0.03125 1.3125,-0.03125 1.609375,0 1.8125,0 1.84375,0 1.953125,0 1.953125,-0.15625 1.953125,-0.25 1.859375,-0.25 1.828125,-0.25 1.78125,-0.265625 1.53125,-0.265625 1.53125,-0.453125 c 0,-0.09375 0.0625,-0.203125 0.09375,-0.265625 l 0.5625,-0.875 h 2 L 4.34375,-0.4375 C 4.328125,-0.359375 4.28125,-0.25 3.875,-0.25 c -0.09375,0 -0.1875,0 -0.1875,0.15625 C 3.6875,-0.0625 3.703125,0 3.796875,0 4,0 4.5,-0.03125 4.703125,-0.03125 c 0.125,0 0.28125,0.015625 0.40625,0.015625 C 5.234375,-0.015625 5.375,0 5.5,0 5.59375,0 5.640625,-0.0625 5.640625,-0.140625 5.640625,-0.25 5.5625,-0.25 5.453125,-0.25 c -0.40625,0 -0.421875,-0.0625 -0.4375,-0.21875 l -0.625,-4.3125 C 4.375,-4.921875 4.359375,-4.96875 4.234375,-4.96875 4.09375,-4.96875 4.0625,-4.90625 4,-4.8125 Z m 0.921875,-1 L 3.8125,-4.125 4.140625,-1.84375 Z m 0,0"
               id="id-4f01f22a-789e-4e5a-acb1-1421c2285957" />
          </g>
        </g>
      </defs>
      <g
         fill="#000000"
         fill-opacity="1"
         id="id-90553ae5-a14b-4a65-928d-e9a542739c6b"
         transform="translate(-147.76438,-134.99099)">
        <g
           transform="translate(148.712,134.765)"
           id="g2005">
          <path
             d="M 1.40625,-2.265625 C 1.734375,-2.125 2.03125,-2.125 2.265625,-2.125 c 0.25,0 0.8125,0 0.8125,-0.3125 0,-0.234375 -0.359375,-0.265625 -0.734375,-0.265625 -0.203125,0 -0.5625,0.015625 -0.921875,0.1875 C 1.1875,-2.625 1.015625,-2.828125 1.015625,-3.09375 c 0,-0.609375 0.984375,-0.96875 1.875,-0.96875 0.15625,0 0.515625,0 0.921875,0.28125 0.109375,0.078125 0.125,0.109375 0.1875,0.109375 0.140625,0 0.28125,-0.140625 0.28125,-0.28125 0,-0.1875 -0.609375,-0.5625 -1.296875,-0.5625 -1.140625,0 -2.21875,0.671875 -2.21875,1.421875 0,0.4375 0.359375,0.6875 0.40625,0.71875 -0.59375,0.328125 -0.90625,0.875 -0.90625,1.34375 0,0.640625 0.5625,1.25 1.625,1.25 1.3125,0 1.875,-0.875 1.875,-1.03125 0,-0.0625 -0.0625,-0.09375 -0.109375,-0.09375 -0.0625,0 -0.09375,0.03125 -0.109375,0.0625 -0.140625,0.234375 -0.375,0.609375 -1.578125,0.609375 -0.609375,0 -1.453125,-0.15625 -1.453125,-0.859375 0,-0.34375 0.28125,-0.875 0.890625,-1.171875 z m 0.328125,-0.125 c 0.234375,-0.078125 0.4375,-0.09375 0.609375,-0.09375 0.25,0 0.28125,0.015625 0.46875,0.0625 -0.15625,0.0625 -0.171875,0.078125 -0.546875,0.078125 -0.21875,0 -0.34375,0 -0.53125,-0.046875 z m 0,0"
             id="id-6255aae1-5dc5-40ba-8bbc-3ccaf13af661" />
        </g>
      </g>
      <g
         fill="#000000"
         fill-opacity="1"
         id="id-401acec2-80b6-4eec-81f9-6af4064309c0"
         transform="translate(-147.76438,-134.99099)">
        <g
           transform="translate(153.358,136.259)"
           id="g2009">
          <path
             d="m 1.4375,-0.84375 c -0.25,0.390625 -0.46875,0.5625 -0.875,0.59375 -0.078125,0 -0.171875,0 -0.171875,0.140625 C 0.390625,-0.03125 0.453125,0 0.5,0 0.671875,0 0.90625,-0.03125 1.09375,-0.03125 1.3125,-0.03125 1.609375,0 1.8125,0 1.84375,0 1.953125,0 1.953125,-0.15625 1.953125,-0.25 1.859375,-0.25 1.828125,-0.25 1.78125,-0.265625 1.53125,-0.265625 1.53125,-0.453125 c 0,-0.09375 0.0625,-0.203125 0.09375,-0.265625 l 0.5625,-0.875 h 2 L 4.34375,-0.4375 C 4.328125,-0.359375 4.28125,-0.25 3.875,-0.25 c -0.09375,0 -0.1875,0 -0.1875,0.15625 C 3.6875,-0.0625 3.703125,0 3.796875,0 4,0 4.5,-0.03125 4.703125,-0.03125 c 0.125,0 0.28125,0.015625 0.40625,0.015625 C 5.234375,-0.015625 5.375,0 5.5,0 5.59375,0 5.640625,-0.0625 5.640625,-0.140625 5.640625,-0.25 5.5625,-0.25 5.453125,-0.25 c -0.40625,0 -0.421875,-0.0625 -0.4375,-0.21875 l -0.625,-4.3125 C 4.375,-4.921875 4.359375,-4.96875 4.234375,-4.96875 4.09375,-4.96875 4.0625,-4.90625 4,-4.8125 Z m 0.921875,-1 L 3.8125,-4.125 4.140625,-1.84375 Z m 0,0"
             id="id-3148735a-8d50-4297-956e-c9547f3c0165" />
        </g>
      </g>
    </g>
    <g
       transform="matrix(0.352778,0,0,0.352778,50.818904,78.037362)"
       ns2:version="1.8.2"
       ns2:texconverter="pdflatex"
       ns2:pdfconverter="inkscape"
       ns2:text="$\\varepsilon_B$"
       ns2:preamble="/Users/hendrik/Library/Application Support/org.inkscape.Inkscape/config/inkscape/extensions/textext/default_packages.tex"
       ns2:scale="1.0"
       ns2:alignment="middle center"
       ns2:stroke-to-path="0"
       ns2:inkscapeversion="1.2.2"
       ns2:jacobian_sqrt="0.352778"
       id="g2109">
      <defs
         id="id-b759b4af-9160-47ae-80aa-845e5304715c">
        <g
           id="id-ac60b8e7-5583-4430-a49b-5d546ed3b81d">
          <g
             id="id-6685c5d2-0056-49fb-8cd1-fb87e8d8972a" />
          <g
             id="id-ab8c5a31-3e87-4968-99f7-f81b723b1685">
            <path
               d="M 1.40625,-2.265625 C 1.734375,-2.125 2.03125,-2.125 2.265625,-2.125 c 0.25,0 0.8125,0 0.8125,-0.3125 0,-0.234375 -0.359375,-0.265625 -0.734375,-0.265625 -0.203125,0 -0.5625,0.015625 -0.921875,0.1875 C 1.1875,-2.625 1.015625,-2.828125 1.015625,-3.09375 c 0,-0.609375 0.984375,-0.96875 1.875,-0.96875 0.15625,0 0.515625,0 0.921875,0.28125 0.109375,0.078125 0.125,0.109375 0.1875,0.109375 0.140625,0 0.28125,-0.140625 0.28125,-0.28125 0,-0.1875 -0.609375,-0.5625 -1.296875,-0.5625 -1.140625,0 -2.21875,0.671875 -2.21875,1.421875 0,0.4375 0.359375,0.6875 0.40625,0.71875 -0.59375,0.328125 -0.90625,0.875 -0.90625,1.34375 0,0.640625 0.5625,1.25 1.625,1.25 1.3125,0 1.875,-0.875 1.875,-1.03125 0,-0.0625 -0.0625,-0.09375 -0.109375,-0.09375 -0.0625,0 -0.09375,0.03125 -0.109375,0.0625 -0.140625,0.234375 -0.375,0.609375 -1.578125,0.609375 -0.609375,0 -1.453125,-0.15625 -1.453125,-0.859375 0,-0.34375 0.28125,-0.875 0.890625,-1.171875 z m 0.328125,-0.125 c 0.234375,-0.078125 0.4375,-0.09375 0.609375,-0.09375 0.25,0 0.28125,0.015625 0.46875,0.0625 -0.15625,0.0625 -0.171875,0.078125 -0.546875,0.078125 -0.21875,0 -0.34375,0 -0.53125,-0.046875 z m 0,0"
               id="id-b9bcc74c-0992-44dc-9b64-b2a55627b190" />
          </g>
          <g
             id="id-9cb603db-2e4b-4f2b-8ed7-a55f4564d939" />
          <g
             id="id-b2cb63c1-b8a5-4afb-99e2-a7664f336db0">
            <path
               d="M 1.328125,-0.546875 C 1.265625,-0.3125 1.25,-0.25 0.703125,-0.25 0.59375,-0.25 0.5,-0.25 0.5,-0.109375 0.5,0 0.578125,0 0.703125,0 H 3.40625 c 1.171875,0 2.078125,-0.796875 2.078125,-1.484375 0,-0.5 -0.453125,-0.921875 -1.203125,-1 0.84375,-0.15625 1.546875,-0.6875 1.546875,-1.28125 0,-0.53125 -0.53125,-1 -1.4375,-1 h -2.53125 c -0.140625,0 -0.234375,0 -0.234375,0.15625 0,0.09375 0.09375,0.09375 0.234375,0.09375 0,0 0.140625,0 0.265625,0.015625 0.140625,0.015625 0.15625,0.03125 0.15625,0.109375 0,0 0,0.046875 -0.03125,0.140625 z m 1.109375,-2.03125 0.421875,-1.6875 c 0.0625,-0.21875 0.0625,-0.25 0.359375,-0.25 h 1.0625 c 0.703125,0 0.875,0.46875 0.875,0.734375 0,0.5625 -0.640625,1.203125 -1.578125,1.203125 z M 2.109375,-0.25 C 1.890625,-0.25 1.875,-0.265625 1.875,-0.328125 c 0,0 0,-0.03125 0.03125,-0.140625 L 2.390625,-2.375 H 3.875 c 0.640625,0 0.90625,0.4375 0.90625,0.828125 0,0.703125 -0.71875,1.296875 -1.5625,1.296875 z m 0,0"
               id="id-463b9890-65f8-4e7d-aa95-4c23878ca744" />
          </g>
        </g>
      </defs>
      <g
         fill="#000000"
         fill-opacity="1"
         id="id-edffdc66-888a-44df-934c-6a91cac24bef"
         transform="translate(-148.978,-130.249)">
        <g
           transform="translate(148.712,134.765)"
           id="g2102">
          <path
             d="M 1.40625,-2.265625 C 1.734375,-2.125 2.03125,-2.125 2.265625,-2.125 c 0.25,0 0.8125,0 0.8125,-0.3125 0,-0.234375 -0.359375,-0.265625 -0.734375,-0.265625 -0.203125,0 -0.5625,0.015625 -0.921875,0.1875 C 1.1875,-2.625 1.015625,-2.828125 1.015625,-3.09375 c 0,-0.609375 0.984375,-0.96875 1.875,-0.96875 0.15625,0 0.515625,0 0.921875,0.28125 0.109375,0.078125 0.125,0.109375 0.1875,0.109375 0.140625,0 0.28125,-0.140625 0.28125,-0.28125 0,-0.1875 -0.609375,-0.5625 -1.296875,-0.5625 -1.140625,0 -2.21875,0.671875 -2.21875,1.421875 0,0.4375 0.359375,0.6875 0.40625,0.71875 -0.59375,0.328125 -0.90625,0.875 -0.90625,1.34375 0,0.640625 0.5625,1.25 1.625,1.25 1.3125,0 1.875,-0.875 1.875,-1.03125 0,-0.0625 -0.0625,-0.09375 -0.109375,-0.09375 -0.0625,0 -0.09375,0.03125 -0.109375,0.0625 -0.140625,0.234375 -0.375,0.609375 -1.578125,0.609375 -0.609375,0 -1.453125,-0.15625 -1.453125,-0.859375 0,-0.34375 0.28125,-0.875 0.890625,-1.171875 z m 0.328125,-0.125 c 0.234375,-0.078125 0.4375,-0.09375 0.609375,-0.09375 0.25,0 0.28125,0.015625 0.46875,0.0625 -0.15625,0.0625 -0.171875,0.078125 -0.546875,0.078125 -0.21875,0 -0.34375,0 -0.53125,-0.046875 z m 0,0"
             id="id-6dbbe63d-c497-4353-9438-8527d4c285d2" />
        </g>
      </g>
      <g
         fill="#000000"
         fill-opacity="1"
         id="id-780e0c81-933b-4248-8fa8-393b4bf0c13a"
         transform="translate(-148.978,-130.249)">
        <g
           transform="translate(153.358,136.259)"
           id="g2106">
          <path
             d="M 1.328125,-0.546875 C 1.265625,-0.3125 1.25,-0.25 0.703125,-0.25 0.59375,-0.25 0.5,-0.25 0.5,-0.109375 0.5,0 0.578125,0 0.703125,0 H 3.40625 c 1.171875,0 2.078125,-0.796875 2.078125,-1.484375 0,-0.5 -0.453125,-0.921875 -1.203125,-1 0.84375,-0.15625 1.546875,-0.6875 1.546875,-1.28125 0,-0.53125 -0.53125,-1 -1.4375,-1 h -2.53125 c -0.140625,0 -0.234375,0 -0.234375,0.15625 0,0.09375 0.09375,0.09375 0.234375,0.09375 0,0 0.140625,0 0.265625,0.015625 0.140625,0.015625 0.15625,0.03125 0.15625,0.109375 0,0 0,0.046875 -0.03125,0.140625 z m 1.109375,-2.03125 0.421875,-1.6875 c 0.0625,-0.21875 0.0625,-0.25 0.359375,-0.25 h 1.0625 c 0.703125,0 0.875,0.46875 0.875,0.734375 0,0.5625 -0.640625,1.203125 -1.578125,1.203125 z M 2.109375,-0.25 C 1.890625,-0.25 1.875,-0.265625 1.875,-0.328125 c 0,0 0,-0.03125 0.03125,-0.140625 L 2.390625,-2.375 H 3.875 c 0.640625,0 0.90625,0.4375 0.90625,0.828125 0,0.703125 -0.71875,1.296875 -1.5625,1.296875 z m 0,0"
             id="id-c13bc1a7-8b8a-49d0-8c9f-8061ee29a33d" />
        </g>
      </g>
    </g>
    <path
       style="fill:none;fill-opacity:0.474403;stroke:#000000;stroke-width:0.944882;stroke-linecap:butt;stroke-linejoin:miter;stroke-dasharray:0.944882, 0.944882;stroke-dashoffset:0"
       d="m 312.33617,206.18499 v 8.43807"
       id="path2912"
       transform="scale(0.26458333)" />
    <path
       style="fill:none;fill-opacity:0.474403;stroke:#000000;stroke-width:0.944882;stroke-linecap:butt;stroke-linejoin:miter;stroke-dasharray:0.944882, 0.944882;stroke-dashoffset:0"
       d="m 312.33617,223.06113 v -8.43807"
       id="path2914"
       transform="scale(0.26458333)" />
    <g
       transform="matrix(0.352778,0,0,0.352778,89.761899,50.448541)"
       ns2:version="1.8.2"
       ns2:texconverter="pdflatex"
       ns2:pdfconverter="inkscape"
       ns2:text="$A_1$"
       ns2:preamble="/Users/hendrik/Library/Application Support/org.inkscape.Inkscape/config/inkscape/extensions/textext/default_packages.tex"
       ns2:scale="1.0"
       ns2:alignment="middle center"
       ns2:stroke-to-path="0"
       ns2:inkscapeversion="1.2.2"
       ns2:jacobian_sqrt="0.352778"
       id="g3024"
       style="fill:#000080">
      <defs
         id="id-db336570-aaf1-4119-896a-0a6ec4aa1ba3">
        <g
           id="id-f5b998e6-1c27-4ec7-8198-ae3dfadf1e39">
          <g
             id="id-46089016-3286-4026-bfc3-0fcdbfc81639" />
          <g
             id="id-57c299eb-22ba-4819-9f15-686c73c13fbb">
            <path
               d="M 1.78125,-1.140625 C 1.390625,-0.484375 1,-0.34375 0.5625,-0.3125 0.4375,-0.296875 0.34375,-0.296875 0.34375,-0.109375 0.34375,-0.046875 0.40625,0 0.484375,0 0.75,0 1.0625,-0.03125 1.328125,-0.03125 c 0.34375,0 0.6875,0.03125 1,0.03125 0.0625,0 0.1875,0 0.1875,-0.1875 0,-0.109375 -0.078125,-0.125 -0.15625,-0.125 -0.21875,-0.015625 -0.46875,-0.09375 -0.46875,-0.34375 0,-0.125 0.0625,-0.234375 0.140625,-0.375 l 0.765625,-1.265625 h 2.5 c 0.015625,0.203125 0.15625,1.5625 0.15625,1.65625 0,0.296875 -0.515625,0.328125 -0.71875,0.328125 C 4.59375,-0.3125 4.5,-0.3125 4.5,-0.109375 4.5,0 4.609375,0 4.640625,0 5.046875,0 5.46875,-0.03125 5.875,-0.03125 6.125,-0.03125 6.765625,0 7.015625,0 7.0625,0 7.1875,0 7.1875,-0.203125 7.1875,-0.3125 7.09375,-0.3125 6.953125,-0.3125 6.34375,-0.3125 6.34375,-0.375 6.3125,-0.671875 l -0.609375,-6.21875 c -0.015625,-0.203125 -0.015625,-0.25 -0.1875,-0.25 -0.15625,0 -0.203125,0.078125 -0.265625,0.171875 z M 2.984375,-2.609375 4.9375,-5.90625 5.265625,-2.609375 Z m 0,0"
               id="id-9c9e2d32-7c0e-4f95-b47c-ae50f616cc38" />
          </g>
          <g
             id="id-ec6d46a9-f04a-4b6d-88c7-cdd53ffa95c6" />
          <g
             id="id-612374a4-a5a4-49d1-9df9-829b8b0ef37e">
            <path
               d="m 2.328125,-4.4375 c 0,-0.1875 0,-0.1875 -0.203125,-0.1875 -0.453125,0.4375 -1.078125,0.4375 -1.359375,0.4375 v 0.25 c 0.15625,0 0.625,0 1,-0.1875 v 3.546875 c 0,0.234375 0,0.328125 -0.6875,0.328125 H 0.8125 V 0 c 0.125,0 0.984375,-0.03125 1.234375,-0.03125 0.21875,0 1.09375,0.03125 1.25,0.03125 V -0.25 H 3.03125 c -0.703125,0 -0.703125,-0.09375 -0.703125,-0.328125 z m 0,0"
               id="id-2f4cd4f6-be67-4c71-ac7e-b46c6775eeea" />
          </g>
        </g>
      </defs>
      <g
         fill="#000000"
         fill-opacity="1"
         id="id-4ab5cfaa-55c3-4ef7-85e8-f1ead2579613"
         transform="translate(-149.056,-127.624)"
         style="fill:#000080">
        <g
           transform="translate(148.712,134.765)"
           id="g3017"
           style="fill:#000080">
          <path
             d="M 1.78125,-1.140625 C 1.390625,-0.484375 1,-0.34375 0.5625,-0.3125 0.4375,-0.296875 0.34375,-0.296875 0.34375,-0.109375 0.34375,-0.046875 0.40625,0 0.484375,0 0.75,0 1.0625,-0.03125 1.328125,-0.03125 c 0.34375,0 0.6875,0.03125 1,0.03125 0.0625,0 0.1875,0 0.1875,-0.1875 0,-0.109375 -0.078125,-0.125 -0.15625,-0.125 -0.21875,-0.015625 -0.46875,-0.09375 -0.46875,-0.34375 0,-0.125 0.0625,-0.234375 0.140625,-0.375 l 0.765625,-1.265625 h 2.5 c 0.015625,0.203125 0.15625,1.5625 0.15625,1.65625 0,0.296875 -0.515625,0.328125 -0.71875,0.328125 C 4.59375,-0.3125 4.5,-0.3125 4.5,-0.109375 4.5,0 4.609375,0 4.640625,0 5.046875,0 5.46875,-0.03125 5.875,-0.03125 6.125,-0.03125 6.765625,0 7.015625,0 7.0625,0 7.1875,0 7.1875,-0.203125 7.1875,-0.3125 7.09375,-0.3125 6.953125,-0.3125 6.34375,-0.3125 6.34375,-0.375 6.3125,-0.671875 l -0.609375,-6.21875 c -0.015625,-0.203125 -0.015625,-0.25 -0.1875,-0.25 -0.15625,0 -0.203125,0.078125 -0.265625,0.171875 z M 2.984375,-2.609375 4.9375,-5.90625 5.265625,-2.609375 Z m 0,0"
             id="id-c9e54c73-88ee-4282-9465-0130e43781f5"
             style="fill:#000080" />
        </g>
      </g>
      <g
         fill="#000000"
         fill-opacity="1"
         id="id-bd560e50-7d6a-413b-a24b-7db56f5b8ac2"
         transform="translate(-149.056,-127.624)"
         style="fill:#000080">
        <g
           transform="translate(156.184,136.259)"
           id="g3021"
           style="fill:#000080">
          <path
             d="m 2.328125,-4.4375 c 0,-0.1875 0,-0.1875 -0.203125,-0.1875 -0.453125,0.4375 -1.078125,0.4375 -1.359375,0.4375 v 0.25 c 0.15625,0 0.625,0 1,-0.1875 v 3.546875 c 0,0.234375 0,0.328125 -0.6875,0.328125 H 0.8125 V 0 c 0.125,0 0.984375,-0.03125 1.234375,-0.03125 0.21875,0 1.09375,0.03125 1.25,0.03125 V -0.25 H 3.03125 c -0.703125,0 -0.703125,-0.09375 -0.703125,-0.328125 z m 0,0"
             id="id-537e6ca3-6b86-40a0-9808-532074e9af6b"
             style="fill:#000080" />
        </g>
      </g>
    </g>
    <g
       transform="matrix(0.352778,0,0,0.352778,78.912765,71.406293)"
       ns2:version="1.8.2"
       ns2:texconverter="pdflatex"
       ns2:pdfconverter="inkscape"
       ns2:text="$A_2$"
       ns2:preamble="/Users/hendrik/Library/Application Support/org.inkscape.Inkscape/config/inkscape/extensions/textext/default_packages.tex"
       ns2:scale="1.0"
       ns2:alignment="middle center"
       ns2:stroke-to-path="0"
       ns2:inkscapeversion="1.2.2"
       ns2:jacobian_sqrt="0.352778"
       id="g3211"
       style="fill:#800000">
      <defs
         id="id-af7eda5e-c72e-4f2b-8b63-bb6416f79f91">
        <g
           id="id-acb67e71-a4e4-4620-8959-a54da0ad875e">
          <g
             id="id-e53b9325-afcb-44c8-8a4d-4f644fdc19e9" />
          <g
             id="id-bfd7f59d-db60-445a-9d8a-90dbd0e2266d">
            <path
               d="M 1.78125,-1.140625 C 1.390625,-0.484375 1,-0.34375 0.5625,-0.3125 0.4375,-0.296875 0.34375,-0.296875 0.34375,-0.109375 0.34375,-0.046875 0.40625,0 0.484375,0 0.75,0 1.0625,-0.03125 1.328125,-0.03125 c 0.34375,0 0.6875,0.03125 1,0.03125 0.0625,0 0.1875,0 0.1875,-0.1875 0,-0.109375 -0.078125,-0.125 -0.15625,-0.125 -0.21875,-0.015625 -0.46875,-0.09375 -0.46875,-0.34375 0,-0.125 0.0625,-0.234375 0.140625,-0.375 l 0.765625,-1.265625 h 2.5 c 0.015625,0.203125 0.15625,1.5625 0.15625,1.65625 0,0.296875 -0.515625,0.328125 -0.71875,0.328125 C 4.59375,-0.3125 4.5,-0.3125 4.5,-0.109375 4.5,0 4.609375,0 4.640625,0 5.046875,0 5.46875,-0.03125 5.875,-0.03125 6.125,-0.03125 6.765625,0 7.015625,0 7.0625,0 7.1875,0 7.1875,-0.203125 7.1875,-0.3125 7.09375,-0.3125 6.953125,-0.3125 6.34375,-0.3125 6.34375,-0.375 6.3125,-0.671875 l -0.609375,-6.21875 c -0.015625,-0.203125 -0.015625,-0.25 -0.1875,-0.25 -0.15625,0 -0.203125,0.078125 -0.265625,0.171875 z M 2.984375,-2.609375 4.9375,-5.90625 5.265625,-2.609375 Z m 0,0"
               id="id-8979e8fe-66fe-498d-8f95-427f665963b1" />
          </g>
          <g
             id="id-1169a249-e04e-4d65-9640-12f715257ee6" />
          <g
             id="id-466d5a9a-e2d5-4797-836c-94b5037c6464">
            <path
               d="M 3.515625,-1.265625 H 3.28125 c -0.015625,0.15625 -0.09375,0.5625 -0.1875,0.625 C 3.046875,-0.59375 2.515625,-0.59375 2.40625,-0.59375 H 1.125 c 0.734375,-0.640625 0.984375,-0.84375 1.390625,-1.171875 0.515625,-0.40625 1,-0.84375 1,-1.5 0,-0.84375 -0.734375,-1.359375 -1.625,-1.359375 -0.859375,0 -1.453125,0.609375 -1.453125,1.25 0,0.34375 0.296875,0.390625 0.375,0.390625 0.15625,0 0.359375,-0.125 0.359375,-0.375 0,-0.125 -0.046875,-0.375 -0.40625,-0.375 C 0.984375,-4.21875 1.453125,-4.375 1.78125,-4.375 c 0.703125,0 1.0625,0.546875 1.0625,1.109375 0,0.609375 -0.4375,1.078125 -0.65625,1.328125 L 0.515625,-0.265625 C 0.4375,-0.203125 0.4375,-0.1875 0.4375,0 h 2.875 z m 0,0"
               id="id-4fda73b6-24e4-4e6c-bdc5-731f1e2285f5" />
          </g>
        </g>
      </defs>
      <g
         fill="#000000"
         fill-opacity="1"
         id="id-ceb4afb2-7f8b-4c4f-982e-9ab2801c96b2"
         transform="translate(-149.056,-127.624)"
         style="fill:#800000">
        <g
           transform="translate(148.712,134.765)"
           id="g3204"
           style="fill:#800000">
          <path
             d="M 1.78125,-1.140625 C 1.390625,-0.484375 1,-0.34375 0.5625,-0.3125 0.4375,-0.296875 0.34375,-0.296875 0.34375,-0.109375 0.34375,-0.046875 0.40625,0 0.484375,0 0.75,0 1.0625,-0.03125 1.328125,-0.03125 c 0.34375,0 0.6875,0.03125 1,0.03125 0.0625,0 0.1875,0 0.1875,-0.1875 0,-0.109375 -0.078125,-0.125 -0.15625,-0.125 -0.21875,-0.015625 -0.46875,-0.09375 -0.46875,-0.34375 0,-0.125 0.0625,-0.234375 0.140625,-0.375 l 0.765625,-1.265625 h 2.5 c 0.015625,0.203125 0.15625,1.5625 0.15625,1.65625 0,0.296875 -0.515625,0.328125 -0.71875,0.328125 C 4.59375,-0.3125 4.5,-0.3125 4.5,-0.109375 4.5,0 4.609375,0 4.640625,0 5.046875,0 5.46875,-0.03125 5.875,-0.03125 6.125,-0.03125 6.765625,0 7.015625,0 7.0625,0 7.1875,0 7.1875,-0.203125 7.1875,-0.3125 7.09375,-0.3125 6.953125,-0.3125 6.34375,-0.3125 6.34375,-0.375 6.3125,-0.671875 l -0.609375,-6.21875 c -0.015625,-0.203125 -0.015625,-0.25 -0.1875,-0.25 -0.15625,0 -0.203125,0.078125 -0.265625,0.171875 z M 2.984375,-2.609375 4.9375,-5.90625 5.265625,-2.609375 Z m 0,0"
             id="id-ba56f8f9-308b-42e5-adae-5ed0181c748b"
             style="fill:#800000" />
        </g>
      </g>
      <g
         fill="#000000"
         fill-opacity="1"
         id="id-44834b30-41f7-4b24-8467-e7cedf13775d"
         transform="translate(-149.056,-127.624)"
         style="fill:#800000">
        <g
           transform="translate(156.184,136.259)"
           id="g3208"
           style="fill:#800000">
          <path
             d="M 3.515625,-1.265625 H 3.28125 c -0.015625,0.15625 -0.09375,0.5625 -0.1875,0.625 C 3.046875,-0.59375 2.515625,-0.59375 2.40625,-0.59375 H 1.125 c 0.734375,-0.640625 0.984375,-0.84375 1.390625,-1.171875 0.515625,-0.40625 1,-0.84375 1,-1.5 0,-0.84375 -0.734375,-1.359375 -1.625,-1.359375 -0.859375,0 -1.453125,0.609375 -1.453125,1.25 0,0.34375 0.296875,0.390625 0.375,0.390625 0.15625,0 0.359375,-0.125 0.359375,-0.375 0,-0.125 -0.046875,-0.375 -0.40625,-0.375 C 0.984375,-4.21875 1.453125,-4.375 1.78125,-4.375 c 0.703125,0 1.0625,0.546875 1.0625,1.109375 0,0.609375 -0.4375,1.078125 -0.65625,1.328125 L 0.515625,-0.265625 C 0.4375,-0.203125 0.4375,-0.1875 0.4375,0 h 2.875 z m 0,0"
             id="id-0485689b-8d9d-4d04-b2b0-07ea5e2a075f"
             style="fill:#800000" />
        </g>
      </g>
    </g>
  </g>
  <g
     inkscape:label="Layer 1"
     inkscape:groupmode="layer"
     id="layer1"
     style="display:inline"
     transform="translate(-45.359988,-42.808372)">
    <path
       style="display:inline;fill:#4d4d4d;fill-opacity:0.474403;stroke:none;stroke-width:1.88976;stroke-linecap:butt;stroke-linejoin:round;stroke-dasharray:none;stroke-dashoffset:0"
       d="m 271.28557,255.67365 h 67.01748 l 41.0506,-41.05059 v -8.43807 h -67.01748 l -41.0506,41.05059 20.98972,-64.32639 H 462.84224 L 358.36389,287.38751 H 187.79695 L 292.2753,182.9092 271.28557,247.23559 Z"
       id="path1338"
       transform="scale(0.26458333)"
       sodipodi:nodetypes="ccccccccccccc" />
    <path
       style="display:inline;fill:#000080;fill-opacity:0.474403;stroke:none;stroke-width:0.566929;stroke-linecap:butt;stroke-linejoin:miter;stroke-dasharray:0.944882, 0.944882;stroke-dashoffset:0"
       d="m 271.28557,247.23558 41.0506,-41.05059 h 67.01748 l -41.0506,41.05059 z"
       id="path3286"
       transform="scale(0.26458333)" />
    <path
       style="display:inline;fill:#800000;fill-opacity:0.474403;stroke:none;stroke-width:0.566929;stroke-linecap:butt;stroke-linejoin:miter;stroke-dasharray:0.944882, 0.944882;stroke-dashoffset:0"
       d="m 271.28557,264.11171 41.0506,-41.05058 h 67.01748 l -41.0506,41.05058 z"
       id="path3284"
       transform="scale(0.26458333)" />
    <path
       style="fill:#000080;fill-opacity:0.474403;stroke:#000000;stroke-width:0.566929;stroke-linecap:butt;stroke-linejoin:miter;stroke-dasharray:none;stroke-dashoffset:0;marker-start:url(#TriangleStart);marker-end:url(#TriangleStart)"
       d="m 379.35365,206.18499 v 16.87614"
       id="path4155"
       transform="matrix(0.26458333,0,0,0.26458333,2.1166667,0)" />
    <g
       transform="matrix(0.352778,0,0,0.352778,103.3451,55.545405)"
       ns2:version="1.8.2"
       ns2:texconverter="pdflatex"
       ns2:pdfconverter="inkscape"
       ns2:text="$h$"
       ns2:preamble="/Users/hendrik/Library/Application Support/org.inkscape.Inkscape/config/inkscape/extensions/textext/default_packages.tex"
       ns2:scale="1.0"
       ns2:alignment="middle center"
       ns2:stroke-to-path="0"
       ns2:inkscapeversion="1.2.2"
       ns2:jacobian_sqrt="0.352778"
       id="g5371">
      <defs
         id="id-d35d6032-f5f2-485a-9cec-618c9ba2250a">
        <g
           id="id-4d596043-6e5c-4d31-a632-3fd09142df6c">
          <g
             id="id-11d0ab6e-a3b5-40b7-b7dd-db8e9d6ab087" />
          <g
             id="id-55f0fb7f-ee44-4f35-8617-15af66160626">
            <path
               d="m 2.859375,-6.8125 c 0,0 0,-0.109375 -0.125,-0.109375 -0.234375,0 -0.953125,0.078125 -1.21875,0.109375 -0.078125,0 -0.1875,0.015625 -0.1875,0.1875 0,0.125 0.09375,0.125 0.234375,0.125 0.484375,0 0.5,0.0625 0.5,0.171875 L 2.03125,-6.125 0.59375,-0.390625 c -0.046875,0.140625 -0.046875,0.15625 -0.046875,0.21875 0,0.234375 0.203125,0.28125 0.296875,0.28125 0.15625,0 0.3125,-0.125 0.359375,-0.265625 l 0.1875,-0.75 0.21875,-0.890625 C 1.671875,-2.03125 1.734375,-2.25 1.78125,-2.46875 1.796875,-2.53125 1.890625,-2.859375 1.890625,-2.921875 1.921875,-3.015625 2.234375,-3.5625 2.578125,-3.84375 2.796875,-4 3.09375,-4.1875 3.53125,-4.1875 c 0.421875,0 0.53125,0.34375 0.53125,0.703125 0,0.53125 -0.375,1.625 -0.609375,2.234375 C 3.375,-1.03125 3.3125,-0.90625 3.3125,-0.703125 c 0,0.46875 0.359375,0.8125 0.828125,0.8125 0.9375,0 1.296875,-1.453125 1.296875,-1.53125 0,-0.109375 -0.078125,-0.109375 -0.109375,-0.109375 -0.109375,0 -0.109375,0.03125 -0.15625,0.1875 -0.140625,0.53125 -0.46875,1.234375 -1.015625,1.234375 -0.171875,0 -0.234375,-0.09375 -0.234375,-0.328125 0,-0.25 0.078125,-0.484375 0.171875,-0.703125 0.15625,-0.4375 0.609375,-1.625 0.609375,-2.203125 0,-0.640625 -0.390625,-1.0625 -1.140625,-1.0625 -0.625,0 -1.109375,0.3125 -1.484375,0.765625 z m 0,0"
               id="id-22d76b5a-fdf4-4fcd-be79-e49d5382a3a0" />
          </g>
        </g>
      </defs>
      <g
         fill="#000000"
         fill-opacity="1"
         id="id-b69737ab-693a-4fd8-809e-19b76d4e678d"
         transform="translate(-149.259,-127.843)">
        <g
           transform="translate(148.712,134.765)"
           id="g5368">
          <path
             d="m 2.859375,-6.8125 c 0,0 0,-0.109375 -0.125,-0.109375 -0.234375,0 -0.953125,0.078125 -1.21875,0.109375 -0.078125,0 -0.1875,0.015625 -0.1875,0.1875 0,0.125 0.09375,0.125 0.234375,0.125 0.484375,0 0.5,0.0625 0.5,0.171875 L 2.03125,-6.125 0.59375,-0.390625 c -0.046875,0.140625 -0.046875,0.15625 -0.046875,0.21875 0,0.234375 0.203125,0.28125 0.296875,0.28125 0.15625,0 0.3125,-0.125 0.359375,-0.265625 l 0.1875,-0.75 0.21875,-0.890625 C 1.671875,-2.03125 1.734375,-2.25 1.78125,-2.46875 1.796875,-2.53125 1.890625,-2.859375 1.890625,-2.921875 1.921875,-3.015625 2.234375,-3.5625 2.578125,-3.84375 2.796875,-4 3.09375,-4.1875 3.53125,-4.1875 c 0.421875,0 0.53125,0.34375 0.53125,0.703125 0,0.53125 -0.375,1.625 -0.609375,2.234375 C 3.375,-1.03125 3.3125,-0.90625 3.3125,-0.703125 c 0,0.46875 0.359375,0.8125 0.828125,0.8125 0.9375,0 1.296875,-1.453125 1.296875,-1.53125 0,-0.109375 -0.078125,-0.109375 -0.109375,-0.109375 -0.109375,0 -0.109375,0.03125 -0.15625,0.1875 -0.140625,0.53125 -0.46875,1.234375 -1.015625,1.234375 -0.171875,0 -0.234375,-0.09375 -0.234375,-0.328125 0,-0.25 0.078125,-0.484375 0.171875,-0.703125 0.15625,-0.4375 0.609375,-1.625 0.609375,-2.203125 0,-0.640625 -0.390625,-1.0625 -1.140625,-1.0625 -0.625,0 -1.109375,0.3125 -1.484375,0.765625 z m 0,0"
             id="id-7a214b5b-71ff-431d-86b5-18c45c74e2ef" />
        </g>
      </g>
    </g>
    <path
       style="fill:none;fill-opacity:0.474403;stroke:#000000;stroke-width:0.944882;stroke-linecap:butt;stroke-linejoin:miter;stroke-dasharray:none;stroke-dashoffset:0"
       d="M 187.79695,287.38751 H 358.36389 L 462.84223,182.90919 H 292.27529 Z"
       id="path5485"
       transform="scale(0.26458333)" />
  </g>
</svg>
