<?xml version="1.0" encoding="UTF-8" standalone="no"?>
<!-- Created with Inkscape (http://www.inkscape.org/) -->

<svg
   inkscape:version="1.2.2 (b0a8486, 2022-12-01)"
   sodipodi:docname="plattenkondensator.svg"
   id="svg10808"
   version="1.1"
   viewBox="0 0 22.97687 35.544098"
   height="35.544098mm"
   width="22.97687mm"
   xmlns:inkscape="http://www.inkscape.org/namespaces/inkscape"
   xmlns:sodipodi="http://sodipodi.sourceforge.net/DTD/sodipodi-0.dtd"
   xmlns="http://www.w3.org/2000/svg"
   xmlns:svg="http://www.w3.org/2000/svg"
   xmlns:ns2="http://www.iki.fi/pav/software/textext/">
  <sodipodi:namedview
     id="namedview10810"
     pagecolor="#ffffff"
     bordercolor="#000000"
     borderopacity="0.25"
     inkscape:showpageshadow="2"
     inkscape:pageopacity="0.0"
     inkscape:pagecheckerboard="0"
     inkscape:deskcolor="#d1d1d1"
     inkscape:document-units="mm"
     showgrid="false"
     inkscape:zoom="3.0602064"
     inkscape:cx="39.866592"
     inkscape:cy="60.126664"
     inkscape:window-width="1440"
     inkscape:window-height="780"
     inkscape:window-x="0"
     inkscape:window-y="23"
     inkscape:window-maximized="0"
     inkscape:current-layer="layer1" />
  <defs
     id="defs10805" />
  <g
     inkscape:label="Layer 1"
     inkscape:groupmode="layer"
     id="layer1"
     transform="translate(-55.1951, -44.308)">
    <rect
       style="fill:#00ff00;fill-opacity:0.464407;stroke:none;stroke-width:1.13386;stroke-dasharray:none"
       id="rect13224"
       width="8"
       height="64.67749"
       x="237.12187"
       y="211.59805"
       transform="matrix(0.3286715,0,0,0.3286715,-18.028097,-17.999276)" />
    <rect
       style="fill:#00ff00;fill-opacity:0.464407;stroke:none;stroke-width:1.13386;stroke-dasharray:none"
       id="rect13226"
       width="8.000001"
       height="64.67749"
       x="265.79037"
       y="211.59805"
       transform="matrix(0.3286715,0,0,0.3286715,-16.713411,-17.999276)" />
    <path
       style="fill:#000000;fill-opacity:0.464407;stroke:#0000ff;stroke-width:0.912766;stroke-dasharray:none"
       d="m 245.12188,211.59805 0,64.67749"
       id="path11709"
       transform="matrix(0.3286715,0,0,0.3286715,-18.028097,-17.999276)"
       sodipodi:nodetypes="cc" />
    <path
       style="fill:#000000;fill-opacity:0.464407;stroke:#ff0000;stroke-width:0.912766;stroke-dasharray:none"
       d="m 245.12188,211.59805 v 64.67749"
       id="path12901"
       transform="matrix(0.3286715,0,0,0.3286715,-9.9202625,-17.999276)"
       sodipodi:nodetypes="cc" />
    <path
       style="fill:#000000;fill-opacity:0.464407;stroke:#000000;stroke-width:0.60851;stroke-dasharray:none"
       d="m 245.12188,211.59805 v 64.67749"
       id="path13116"
       transform="matrix(0.3286715,0,0,0.3286715,-20.657469,-17.999276)"
       sodipodi:nodetypes="cc" />
    <path
       style="fill:#000000;fill-opacity:0.464407;stroke:#000000;stroke-width:0.60851;stroke-dasharray:none"
       d="m 245.12188,211.59805 v 64.67749"
       id="path13118"
       transform="matrix(0.3286715,0,0,0.3286715,-7.2908903,-17.999276)"
       sodipodi:nodetypes="cc" />
    <g
       id="g13352"
       transform="matrix(-1.242223,0,0,1.1387499,149.93282,-11.320954)"
       style="stroke-width:0.168157;stroke-dasharray:none">
      <path
         style="fill:#00ff00;fill-opacity:0.464407;stroke:#000000;stroke-width:0.635556;stroke-dasharray:none"
         d="M 265.79038,211.59805 H 241.6888"
         id="path13284"
         transform="scale(0.26458333)"
         sodipodi:nodetypes="cc" />
      <path
         style="fill:none;fill-opacity:0.464407;stroke:#000000;stroke-width:0.635556;stroke-dasharray:none"
         d="m 248.66954,198.83709 h 3.77768 v 3.77767"
         id="path13342"
         transform="matrix(-0.18708842,-0.18708891,0.18708891,-0.18708842,73.976564,140.41551)"
         inkscape:transform-center-x="-0.35337716"
         inkscape:transform-center-y="2.1584894e-06" />
    </g>
    <g
       id="g13358"
       transform="matrix(-1.242223,0,0,1.1387499,149.93283,8.1659995)"
       style="stroke-width:0.168157;stroke-dasharray:none">
      <path
         style="fill:#00ff00;fill-opacity:0.464407;stroke:#000000;stroke-width:0.635556;stroke-dasharray:none"
         d="M 265.79038,211.59805 H 241.6888"
         id="path13354"
         transform="scale(0.26458333)"
         sodipodi:nodetypes="cc" />
      <path
         style="fill:none;fill-opacity:0.464407;stroke:#000000;stroke-width:0.635556;stroke-dasharray:none"
         d="m 248.66954,198.83709 h 3.77768 v 3.77767"
         id="path13356"
         transform="matrix(-0.18708842,-0.18708891,0.18708891,-0.18708842,73.976564,140.41551)"
         inkscape:transform-center-x="-0.35337716"
         inkscape:transform-center-y="2.1584894e-06" />
    </g>
    <g
       id="g13420"
       transform="matrix(-1.242223,0,0,1.1387499,149.93282,-1.5774759)"
       style="stroke-width:0.168157;stroke-dasharray:none">
      <path
         style="fill:#00ff00;fill-opacity:0.464407;stroke:#000000;stroke-width:0.635556;stroke-dasharray:none"
         d="M 265.79038,211.59805 H 241.6888"
         id="path13416"
         transform="scale(0.26458333)"
         sodipodi:nodetypes="cc" />
      <path
         style="fill:none;fill-opacity:0.464407;stroke:#000000;stroke-width:0.635556;stroke-dasharray:none"
         d="m 248.66954,198.83709 h 3.77768 v 3.77767"
         id="path13418"
         transform="matrix(-0.18708842,-0.18708891,0.18708891,-0.18708842,73.976564,140.41551)"
         inkscape:transform-center-x="-0.35337716"
         inkscape:transform-center-y="2.1584894e-06" />
    </g>
    <g
       id="g13426"
       transform="matrix(-1.242223,0,0,1.1387499,149.93282,-6.4471975)"
       style="stroke-width:0.168157;stroke-dasharray:none">
      <path
         style="fill:#00ff00;fill-opacity:0.464407;stroke:#000000;stroke-width:0.635556;stroke-dasharray:none"
         d="M 265.79038,211.59805 H 241.6888"
         id="path13422"
         transform="scale(0.26458333)"
         sodipodi:nodetypes="cc" />
      <path
         style="fill:none;fill-opacity:0.464407;stroke:#000000;stroke-width:0.635556;stroke-dasharray:none"
         d="m 248.66954,198.83709 h 3.77768 v 3.77767"
         id="path13424"
         transform="matrix(-0.18708842,-0.18708891,0.18708891,-0.18708842,73.976564,140.41551)"
         inkscape:transform-center-x="-0.35337716"
         inkscape:transform-center-y="2.1584894e-06" />
    </g>
    <g
       id="g13432"
       transform="matrix(-1.242223,0,0,1.1387499,149.93282,3.2916569)"
       style="stroke-width:0.168157;stroke-dasharray:none">
      <path
         style="fill:#00ff00;fill-opacity:0.464407;stroke:#000000;stroke-width:0.635556;stroke-dasharray:none"
         d="M 265.79038,211.59805 H 241.6888"
         id="path13428"
         transform="scale(0.26458333)"
         sodipodi:nodetypes="cc" />
      <path
         style="fill:none;fill-opacity:0.464407;stroke:#000000;stroke-width:0.635556;stroke-dasharray:none"
         d="m 248.66954,198.83709 h 3.77768 v 3.77767"
         id="path13430"
         transform="matrix(-0.18708842,-0.18708891,0.18708891,-0.18708842,73.976564,140.41551)"
         inkscape:transform-center-x="-0.35337716"
         inkscape:transform-center-y="2.1584894e-06" />
    </g>
    <g
       transform="matrix(0.352778,0,0,0.352778,60.006228,46.070458)"
       ns2:version="1.8.2"
       ns2:texconverter="pdflatex"
       ns2:pdfconverter="inkscape"
       ns2:text="$Q$"
       ns2:preamble="/Users/hendrik/Library/Application Support/org.inkscape.Inkscape/config/inkscape/extensions/textext/default_packages.tex"
       ns2:scale="1.0000000850393187"
       ns2:alignment="middle center"
       ns2:stroke-to-path="0"
       ns2:jacobian_sqrt="0.352778"
       style="fill:#0000ff;stroke-width:0"
       id="g12929">
      <defs
         id="id-f06807ca-f53a-4ab2-8986-9929a3e3fd8f"
         style="fill:#0000ff;stroke-width:0">
        <g
           id="id-cddc3b88-a203-4ab9-b1f2-f735aaa46e54"
           style="fill:#0000ff;stroke-width:0">
          <g
             id="id-f2286557-db6c-4fa6-9250-4759139891c7"
             style="fill:#0000ff;stroke-width:0" />
          <g
             id="id-7fdff871-1880-45fa-9dea-419a684026c5"
             style="fill:#0000ff;stroke-width:0">
            <path
               d="M 4.359375,-0.0625 C 5.90625,-0.640625 7.375,-2.421875 7.375,-4.34375 c 0,-1.609375 -1.0625,-2.6875 -2.546875,-2.6875 -2.140625,0 -4.34375,2.265625 -4.34375,4.59375 0,1.65625 1.125,2.65625 2.5625,2.65625 0.25,0 0.578125,-0.046875 0.96875,-0.15625 -0.03125,0.625 -0.03125,0.640625 -0.03125,0.78125 0,0.3125 0,1.09375 0.828125,1.09375 1.171875,0 1.65625,-1.828125 1.65625,-1.9375 0,-0.0625 -0.0625,-0.09375 -0.109375,-0.09375 -0.078125,0 -0.09375,0.046875 -0.125,0.109375 C 6,0.71875 5.421875,0.96875 5.078125,0.96875 c -0.46875,0 -0.609375,-0.265625 -0.71875,-1.03125 z m -1.875,-0.078125 c -0.78125,-0.3125 -1.125,-1.078125 -1.125,-1.984375 0,-0.6875 0.265625,-2.109375 1.015625,-3.171875 C 3.109375,-6.3125 4.046875,-6.78125 4.78125,-6.78125 5.765625,-6.78125 6.5,-6 6.5,-4.671875 c 0,1 -0.515625,3.34375 -2.1875,4.265625 -0.046875,-0.34375 -0.140625,-1.0625 -0.875,-1.0625 -0.53125,0 -1.015625,0.484375 -1.015625,1.015625 0,0.1875 0.0625,0.296875 0.0625,0.3125 z M 3.09375,-0.03125 c -0.140625,0 -0.453125,0 -0.453125,-0.421875 0,-0.40625 0.375,-0.796875 0.796875,-0.796875 0.421875,0 0.609375,0.234375 0.609375,0.84375 0,0.140625 -0.015625,0.15625 -0.109375,0.203125 C 3.671875,-0.09375 3.375,-0.03125 3.09375,-0.03125 Z m 0,0"
               id="id-c9d95cd5-bc1b-423d-9bcf-fe582302c8ff"
               style="fill:#0000ff;stroke-width:0" />
          </g>
        </g>
      </defs>
      <g
         fill-opacity="1"
         id="id-a058b6d9-4cc6-4ea1-b5f7-1e3e414a5073"
         transform="translate(-149.196,-127.734)"
         style="fill:#0000ff;stroke-width:0">
        <g
           transform="translate(148.712,134.765)"
           style="fill:#0000ff;stroke-width:0"
           id="g14289">
          <path
             d="M 4.359375,-0.0625 C 5.90625,-0.640625 7.375,-2.421875 7.375,-4.34375 c 0,-1.609375 -1.0625,-2.6875 -2.546875,-2.6875 -2.140625,0 -4.34375,2.265625 -4.34375,4.59375 0,1.65625 1.125,2.65625 2.5625,2.65625 0.25,0 0.578125,-0.046875 0.96875,-0.15625 -0.03125,0.625 -0.03125,0.640625 -0.03125,0.78125 0,0.3125 0,1.09375 0.828125,1.09375 1.171875,0 1.65625,-1.828125 1.65625,-1.9375 0,-0.0625 -0.0625,-0.09375 -0.109375,-0.09375 -0.078125,0 -0.09375,0.046875 -0.125,0.109375 C 6,0.71875 5.421875,0.96875 5.078125,0.96875 c -0.46875,0 -0.609375,-0.265625 -0.71875,-1.03125 z m -1.875,-0.078125 c -0.78125,-0.3125 -1.125,-1.078125 -1.125,-1.984375 0,-0.6875 0.265625,-2.109375 1.015625,-3.171875 C 3.109375,-6.3125 4.046875,-6.78125 4.78125,-6.78125 5.765625,-6.78125 6.5,-6 6.5,-4.671875 c 0,1 -0.515625,3.34375 -2.1875,4.265625 -0.046875,-0.34375 -0.140625,-1.0625 -0.875,-1.0625 -0.53125,0 -1.015625,0.484375 -1.015625,1.015625 0,0.1875 0.0625,0.296875 0.0625,0.3125 z M 3.09375,-0.03125 c -0.140625,0 -0.453125,0 -0.453125,-0.421875 0,-0.40625 0.375,-0.796875 0.796875,-0.796875 0.421875,0 0.609375,0.234375 0.609375,0.84375 0,0.140625 -0.015625,0.15625 -0.109375,0.203125 C 3.671875,-0.09375 3.375,-0.03125 3.09375,-0.03125 Z m 0,0"
             id="id-6d4021ed-8bd5-4733-96fe-1bf2bb8e1e90"
             style="fill:#0000ff;stroke-width:0" />
        </g>
      </g>
    </g>
    <g
       transform="matrix(0.352778,0,0,0.352778,68.122631,46.070458)"
       ns2:version="1.8.2"
       ns2:texconverter="pdflatex"
       ns2:pdfconverter="inkscape"
       ns2:text="$-Q$"
       ns2:preamble="/Users/hendrik/Library/Application Support/org.inkscape.Inkscape/config/inkscape/extensions/textext/default_packages.tex"
       ns2:scale="1.0000000850393187"
       ns2:alignment="middle center"
       ns2:stroke-to-path="0"
       ns2:jacobian_sqrt="0.352778"
       style="fill:#ff0000;stroke-width:0"
       id="g12976">
      <defs
         id="id-a6ecaf04-6afb-4ed3-9e58-067434c79793"
         style="fill:#ff0000;stroke-width:0">
        <g
           id="id-33d55abb-a813-4bdc-bc1f-084738ce07d7"
           style="fill:#ff0000;stroke-width:0">
          <g
             id="id-3bc1f329-743d-4f07-832f-5578700312fe"
             style="fill:#ff0000;stroke-width:0" />
          <g
             id="id-0f8f634e-45a9-450c-8d89-82f491475ea6"
             style="fill:#ff0000;stroke-width:0">
            <path
               d="m 6.5625,-2.296875 c 0.171875,0 0.359375,0 0.359375,-0.203125 0,-0.1875 -0.1875,-0.1875 -0.359375,-0.1875 H 1.171875 c -0.171875,0 -0.34375,0 -0.34375,0.1875 0,0.203125 0.171875,0.203125 0.34375,0.203125 z m 0,0"
               id="id-4f1c75e7-68c9-4957-a73f-301f83e6f687"
               style="fill:#ff0000;stroke-width:0" />
          </g>
          <g
             id="id-844d747c-3a05-4ae2-b373-562c8e077c26"
             style="fill:#ff0000;stroke-width:0" />
          <g
             id="id-2478649e-17e2-49f6-8731-96e76e2b014b"
             style="fill:#ff0000;stroke-width:0">
            <path
               d="M 4.359375,-0.0625 C 5.90625,-0.640625 7.375,-2.421875 7.375,-4.34375 c 0,-1.609375 -1.0625,-2.6875 -2.546875,-2.6875 -2.140625,0 -4.34375,2.265625 -4.34375,4.59375 0,1.65625 1.125,2.65625 2.5625,2.65625 0.25,0 0.578125,-0.046875 0.96875,-0.15625 -0.03125,0.625 -0.03125,0.640625 -0.03125,0.78125 0,0.3125 0,1.09375 0.828125,1.09375 1.171875,0 1.65625,-1.828125 1.65625,-1.9375 0,-0.0625 -0.0625,-0.09375 -0.109375,-0.09375 -0.078125,0 -0.09375,0.046875 -0.125,0.109375 C 6,0.71875 5.421875,0.96875 5.078125,0.96875 c -0.46875,0 -0.609375,-0.265625 -0.71875,-1.03125 z m -1.875,-0.078125 c -0.78125,-0.3125 -1.125,-1.078125 -1.125,-1.984375 0,-0.6875 0.265625,-2.109375 1.015625,-3.171875 C 3.109375,-6.3125 4.046875,-6.78125 4.78125,-6.78125 5.765625,-6.78125 6.5,-6 6.5,-4.671875 c 0,1 -0.515625,3.34375 -2.1875,4.265625 -0.046875,-0.34375 -0.140625,-1.0625 -0.875,-1.0625 -0.53125,0 -1.015625,0.484375 -1.015625,1.015625 0,0.1875 0.0625,0.296875 0.0625,0.3125 z M 3.09375,-0.03125 c -0.140625,0 -0.453125,0 -0.453125,-0.421875 0,-0.40625 0.375,-0.796875 0.796875,-0.796875 0.421875,0 0.609375,0.234375 0.609375,0.84375 0,0.140625 -0.015625,0.15625 -0.109375,0.203125 C 3.671875,-0.09375 3.375,-0.03125 3.09375,-0.03125 Z m 0,0"
               id="id-f16d30b0-72b2-4b7e-80fb-ab58d878ec2b"
               style="fill:#ff0000;stroke-width:0" />
          </g>
        </g>
      </defs>
      <g
         fill-opacity="1"
         id="id-c7f47654-3c96-434f-9288-d4f84facde67"
         transform="translate(-149.54,-127.734)"
         style="fill:#ff0000;stroke-width:0">
        <g
           transform="translate(148.712,134.765)"
           style="fill:#ff0000;stroke-width:0"
           id="g14394">
          <path
             d="m 6.5625,-2.296875 c 0.171875,0 0.359375,0 0.359375,-0.203125 0,-0.1875 -0.1875,-0.1875 -0.359375,-0.1875 H 1.171875 c -0.171875,0 -0.34375,0 -0.34375,0.1875 0,0.203125 0.171875,0.203125 0.34375,0.203125 z m 0,0"
             id="id-ddae811a-e1b7-435a-bc3c-f5700184c624"
             style="fill:#ff0000;stroke-width:0" />
        </g>
      </g>
      <g
         fill-opacity="1"
         id="id-6c9c50ae-197c-4811-bbc7-a2e3c98441f0"
         transform="translate(-149.54,-127.734)"
         style="fill:#ff0000;stroke-width:0">
        <g
           transform="translate(156.461,134.765)"
           style="fill:#ff0000;stroke-width:0"
           id="g14398">
          <path
             d="M 4.359375,-0.0625 C 5.90625,-0.640625 7.375,-2.421875 7.375,-4.34375 c 0,-1.609375 -1.0625,-2.6875 -2.546875,-2.6875 -2.140625,0 -4.34375,2.265625 -4.34375,4.59375 0,1.65625 1.125,2.65625 2.5625,2.65625 0.25,0 0.578125,-0.046875 0.96875,-0.15625 -0.03125,0.625 -0.03125,0.640625 -0.03125,0.78125 0,0.3125 0,1.09375 0.828125,1.09375 1.171875,0 1.65625,-1.828125 1.65625,-1.9375 0,-0.0625 -0.0625,-0.09375 -0.109375,-0.09375 -0.078125,0 -0.09375,0.046875 -0.125,0.109375 C 6,0.71875 5.421875,0.96875 5.078125,0.96875 c -0.46875,0 -0.609375,-0.265625 -0.71875,-1.03125 z m -1.875,-0.078125 c -0.78125,-0.3125 -1.125,-1.078125 -1.125,-1.984375 0,-0.6875 0.265625,-2.109375 1.015625,-3.171875 C 3.109375,-6.3125 4.046875,-6.78125 4.78125,-6.78125 5.765625,-6.78125 6.5,-6 6.5,-4.671875 c 0,1 -0.515625,3.34375 -2.1875,4.265625 -0.046875,-0.34375 -0.140625,-1.0625 -0.875,-1.0625 -0.53125,0 -1.015625,0.484375 -1.015625,1.015625 0,0.1875 0.0625,0.296875 0.0625,0.3125 z M 3.09375,-0.03125 c -0.140625,0 -0.453125,0 -0.453125,-0.421875 0,-0.40625 0.375,-0.796875 0.796875,-0.796875 0.421875,0 0.609375,0.234375 0.609375,0.84375 0,0.140625 -0.015625,0.15625 -0.109375,0.203125 C 3.671875,-0.09375 3.375,-0.03125 3.09375,-0.03125 Z m 0,0"
             id="id-99980265-0db2-4245-8ae3-da0172f8bc73"
             style="fill:#ff0000;stroke-width:0" />
        </g>
      </g>
    </g>
    <g
       id="g15162"
       transform="translate(0,2.1166667)">
      <path
         style="fill:none;fill-opacity:0.464407;stroke:#000000;stroke-width:0.377953;stroke-dasharray:none"
         d="m 236.35835,275.16707 h 30.64377"
         id="path15145"
         transform="matrix(0.26458333,0,0,0.26458333,-3.3584097e-7,0.5003606)"
         sodipodi:nodetypes="cc" />
      <path
         style="fill:none;fill-opacity:0.464407;stroke:#000000;stroke-width:0.377953;stroke-dasharray:none"
         d="m 234.0217,281.97376 v 3.78225"
         id="path15147"
         transform="matrix(0.26458333,0,0,0.26458333,0.6182383,-1.8009363)" />
      <path
         style="fill:none;fill-opacity:0.464407;stroke:#000000;stroke-width:0.377953;stroke-dasharray:none"
         d="m 234.0217,281.97376 v 3.78225"
         id="path15149"
         transform="matrix(0.26458333,0,0,0.26458333,8.7260695,-1.8009352)" />
    </g>
    <g
       transform="matrix(0.352778,0,0,0.352778,65.755214,76.000771)"
       ns2:version="1.8.2"
       ns2:texconverter="pdflatex"
       ns2:pdfconverter="inkscape"
       ns2:text="$d$"
       ns2:preamble="/Users/hendrik/Library/Application Support/org.inkscape.Inkscape/config/inkscape/extensions/textext/default_packages.tex"
       ns2:scale="1.0000000850393187"
       ns2:alignment="middle center"
       ns2:stroke-to-path="0"
       ns2:jacobian_sqrt="0.352778"
       id="g15277">
      <defs
         id="id-17fc52f2-cd56-4e0b-b16a-b5e2ee4957b9">
        <g
           id="id-65627a9b-57cc-46c1-ae47-274603561e17">
          <g
             id="id-14bdcefe-3cb8-4f76-97a4-4411bd3273b9" />
          <g
             id="id-ad6376c3-1a7b-4755-b163-c27118b70e87">
            <path
               d="m 5.140625,-6.8125 c 0,0 0,-0.109375 -0.125,-0.109375 -0.15625,0 -1.09375,0.09375 -1.265625,0.109375 -0.078125,0.015625 -0.140625,0.0625 -0.140625,0.1875 0,0.125 0.09375,0.125 0.234375,0.125 0.484375,0 0.5,0.0625 0.5,0.171875 L 4.3125,-6.125 3.71875,-3.765625 C 3.53125,-4.140625 3.25,-4.40625 2.796875,-4.40625 c -1.15625,0 -2.390625,1.46875 -2.390625,2.921875 0,0.9375 0.546875,1.59375 1.3125,1.59375 0.203125,0 0.703125,-0.046875 1.296875,-0.75 0.078125,0.421875 0.4375,0.75 0.90625,0.75 0.359375,0 0.578125,-0.234375 0.75,-0.546875 0.15625,-0.359375 0.296875,-0.96875 0.296875,-0.984375 0,-0.109375 -0.09375,-0.109375 -0.125,-0.109375 -0.09375,0 -0.109375,0.046875 -0.140625,0.1875 -0.171875,0.640625 -0.34375,1.234375 -0.75,1.234375 -0.28125,0 -0.296875,-0.265625 -0.296875,-0.453125 0,-0.25 0.015625,-0.3125 0.046875,-0.484375 z m -2.0625,5.625 C 3.015625,-1 3.015625,-0.984375 2.875,-0.8125 2.4375,-0.265625 2.03125,-0.109375 1.75,-0.109375 c -0.5,0 -0.640625,-0.546875 -0.640625,-0.9375 0,-0.5 0.3125,-1.71875 0.546875,-2.1875 0.3125,-0.578125 0.75,-0.953125 1.15625,-0.953125 0.640625,0 0.78125,0.8125 0.78125,0.875 0,0.0625 -0.015625,0.125 -0.03125,0.171875 z m 0,0"
               id="id-ed27809b-6cf5-43dc-8512-ed31ad11150e" />
          </g>
        </g>
      </defs>
      <g
         fill="#000000"
         fill-opacity="1"
         id="id-94c56482-c185-42de-877b-05cb98aa26b7"
         transform="translate(-149.118,-127.843)">
        <g
           transform="translate(148.712,134.765)"
           id="g15274">
          <path
             d="m 5.140625,-6.8125 c 0,0 0,-0.109375 -0.125,-0.109375 -0.15625,0 -1.09375,0.09375 -1.265625,0.109375 -0.078125,0.015625 -0.140625,0.0625 -0.140625,0.1875 0,0.125 0.09375,0.125 0.234375,0.125 0.484375,0 0.5,0.0625 0.5,0.171875 L 4.3125,-6.125 3.71875,-3.765625 C 3.53125,-4.140625 3.25,-4.40625 2.796875,-4.40625 c -1.15625,0 -2.390625,1.46875 -2.390625,2.921875 0,0.9375 0.546875,1.59375 1.3125,1.59375 0.203125,0 0.703125,-0.046875 1.296875,-0.75 0.078125,0.421875 0.4375,0.75 0.90625,0.75 0.359375,0 0.578125,-0.234375 0.75,-0.546875 0.15625,-0.359375 0.296875,-0.96875 0.296875,-0.984375 0,-0.109375 -0.09375,-0.109375 -0.125,-0.109375 -0.09375,0 -0.109375,0.046875 -0.140625,0.1875 -0.171875,0.640625 -0.34375,1.234375 -0.75,1.234375 -0.28125,0 -0.296875,-0.265625 -0.296875,-0.453125 0,-0.25 0.015625,-0.3125 0.046875,-0.484375 z m -2.0625,5.625 C 3.015625,-1 3.015625,-0.984375 2.875,-0.8125 2.4375,-0.265625 2.03125,-0.109375 1.75,-0.109375 c -0.5,0 -0.640625,-0.546875 -0.640625,-0.9375 0,-0.5 0.3125,-1.71875 0.546875,-2.1875 0.3125,-0.578125 0.75,-0.953125 1.15625,-0.953125 0.640625,0 0.78125,0.8125 0.78125,0.875 0,0.0625 -0.015625,0.125 -0.03125,0.171875 z m 0,0"
             id="id-6ce185a3-8cb9-4380-9c91-89a383e10ba8" />
        </g>
      </g>
    </g>
    <g
       transform="matrix(0.352778,0,0,0.352778,65.065851,58.039842)"
       ns2:version="1.8.2"
       ns2:texconverter="pdflatex"
       ns2:pdfconverter="inkscape"
       ns2:text="$\\vec{E}$"
       ns2:preamble="/Users/hendrik/Library/Application Support/org.inkscape.Inkscape/config/inkscape/extensions/textext/default_packages.tex"
       ns2:scale="1.0000000850393187"
       ns2:alignment="middle center"
       ns2:stroke-to-path="0"
       ns2:inkscapeversion="1.2.2"
       ns2:jacobian_sqrt="0.352778"
       id="g16957">
      <defs
         id="id-8942afef-8add-432a-8473-b7feab23bec2">
        <g
           id="id-8d1175c3-0374-4add-bc72-ba68f8db65ad">
          <g
             id="id-3ffcb9a0-8194-4695-9b67-12682c15ce00" />
          <g
             id="id-f36e0369-98a3-4a08-bb87-55adb5ee348d">
            <path
               d="m 5.359375,-5.9375 c -0.140625,0.140625 -0.46875,0.421875 -0.46875,0.59375 0,0.09375 0.09375,0.203125 0.1875,0.203125 0.09375,0 0.140625,-0.078125 0.203125,-0.140625 C 5.390625,-5.421875 5.625,-5.703125 6.0625,-5.921875 6.125,-5.96875 6.234375,-6.015625 6.234375,-6.125 6.234375,-6.234375 6.15625,-6.28125 6.09375,-6.328125 5.875,-6.484375 5.765625,-6.65625 5.6875,-6.890625 5.65625,-6.984375 5.625,-7.125 5.484375,-7.125 c -0.140625,0 -0.203125,0.140625 -0.203125,0.21875 0,0.046875 0.078125,0.359375 0.234375,0.578125 H 2.15625 c -0.15625,0 -0.34375,0 -0.34375,0.203125 0,0.1875 0.1875,0.1875 0.34375,0.1875 z m 0,0"
               id="id-119db31c-2c6b-4a3b-976e-65b009b5c933" />
          </g>
          <g
             id="id-16e160f0-b461-4795-af91-83e75af9b967">
            <path
               d="M 7.0625,-2.328125 C 7.078125,-2.375 7.109375,-2.4375 7.109375,-2.46875 c 0,0 0,-0.109375 -0.125,-0.109375 -0.09375,0 -0.109375,0.0625 -0.125,0.125 C 6.203125,-0.984375 5.84375,-0.3125 4.140625,-0.3125 H 2.6875 c -0.140625,0 -0.171875,0 -0.21875,0 -0.109375,-0.015625 -0.140625,-0.03125 -0.140625,-0.109375 0,-0.03125 0,-0.046875 0.046875,-0.21875 L 3.0625,-3.375 h 0.984375 c 0.84375,0 0.84375,0.21875 0.84375,0.46875 0,0.0625 0,0.1875 -0.0625,0.484375 C 4.8125,-2.375 4.796875,-2.34375 4.796875,-2.3125 c 0,0.046875 0.03125,0.109375 0.125,0.109375 C 5,-2.203125 5.03125,-2.25 5.078125,-2.40625 l 0.5625,-2.328125 c 0,-0.0625 -0.046875,-0.109375 -0.125,-0.109375 -0.078125,0 -0.109375,0.0625 -0.125,0.171875 -0.21875,0.765625 -0.390625,1 -1.3125,1 h -0.9375 l 0.59375,-2.40625 C 3.828125,-6.4375 3.84375,-6.46875 4.28125,-6.46875 H 5.6875 c 1.203125,0 1.515625,0.28125 1.515625,1.109375 0,0.234375 0,0.25 -0.046875,0.53125 0,0.046875 -0.015625,0.125 -0.015625,0.171875 0,0.046875 0.03125,0.125 0.125,0.125 0.109375,0 0.125,-0.0625 0.140625,-0.25 L 7.609375,-6.515625 C 7.640625,-6.78125 7.59375,-6.78125 7.34375,-6.78125 H 2.296875 c -0.1875,0 -0.296875,0 -0.296875,0.203125 0,0.109375 0.09375,0.109375 0.28125,0.109375 0.375,0 0.65625,0 0.65625,0.171875 0,0.046875 0,0.0625 -0.0625,0.25 L 1.5625,-0.78125 c -0.09375,0.390625 -0.109375,0.46875 -0.90625,0.46875 -0.171875,0 -0.28125,0 -0.28125,0.1875 C 0.375,0 0.46875,0 0.65625,0 h 5.171875 c 0.234375,0 0.25,-0.015625 0.3125,-0.171875 z m 0,0"
               id="id-9c293c75-db0a-40f6-81b3-1c26c35d439d" />
          </g>
        </g>
      </defs>
      <g
         fill="#000000"
         fill-opacity="1"
         id="id-4a19a795-8ae8-46c8-ae9c-409125224f7a"
         transform="translate(-149.087,-125.121)">
        <g
           transform="translate(150.25,132.246)"
           id="g16950">
          <path
             d="m 5.359375,-5.9375 c -0.140625,0.140625 -0.46875,0.421875 -0.46875,0.59375 0,0.09375 0.09375,0.203125 0.1875,0.203125 0.09375,0 0.140625,-0.078125 0.203125,-0.140625 C 5.390625,-5.421875 5.625,-5.703125 6.0625,-5.921875 6.125,-5.96875 6.234375,-6.015625 6.234375,-6.125 6.234375,-6.234375 6.15625,-6.28125 6.09375,-6.328125 5.875,-6.484375 5.765625,-6.65625 5.6875,-6.890625 5.65625,-6.984375 5.625,-7.125 5.484375,-7.125 c -0.140625,0 -0.203125,0.140625 -0.203125,0.21875 0,0.046875 0.078125,0.359375 0.234375,0.578125 H 2.15625 c -0.15625,0 -0.34375,0 -0.34375,0.203125 0,0.1875 0.1875,0.1875 0.34375,0.1875 z m 0,0"
             id="id-88ad62e3-a4b1-4c7c-b8f0-edd7ef66a86c" />
        </g>
      </g>
      <g
         fill="#000000"
         fill-opacity="1"
         id="id-6bb2f8bc-b373-4efe-8d91-0cb83d34c00a"
         transform="translate(-149.087,-125.121)">
        <g
           transform="translate(148.712,134.765)"
           id="g16954">
          <path
             d="M 7.0625,-2.328125 C 7.078125,-2.375 7.109375,-2.4375 7.109375,-2.46875 c 0,0 0,-0.109375 -0.125,-0.109375 -0.09375,0 -0.109375,0.0625 -0.125,0.125 C 6.203125,-0.984375 5.84375,-0.3125 4.140625,-0.3125 H 2.6875 c -0.140625,0 -0.171875,0 -0.21875,0 -0.109375,-0.015625 -0.140625,-0.03125 -0.140625,-0.109375 0,-0.03125 0,-0.046875 0.046875,-0.21875 L 3.0625,-3.375 h 0.984375 c 0.84375,0 0.84375,0.21875 0.84375,0.46875 0,0.0625 0,0.1875 -0.0625,0.484375 C 4.8125,-2.375 4.796875,-2.34375 4.796875,-2.3125 c 0,0.046875 0.03125,0.109375 0.125,0.109375 C 5,-2.203125 5.03125,-2.25 5.078125,-2.40625 l 0.5625,-2.328125 c 0,-0.0625 -0.046875,-0.109375 -0.125,-0.109375 -0.078125,0 -0.109375,0.0625 -0.125,0.171875 -0.21875,0.765625 -0.390625,1 -1.3125,1 h -0.9375 l 0.59375,-2.40625 C 3.828125,-6.4375 3.84375,-6.46875 4.28125,-6.46875 H 5.6875 c 1.203125,0 1.515625,0.28125 1.515625,1.109375 0,0.234375 0,0.25 -0.046875,0.53125 0,0.046875 -0.015625,0.125 -0.015625,0.171875 0,0.046875 0.03125,0.125 0.125,0.125 0.109375,0 0.125,-0.0625 0.140625,-0.25 L 7.609375,-6.515625 C 7.640625,-6.78125 7.59375,-6.78125 7.34375,-6.78125 H 2.296875 c -0.1875,0 -0.296875,0 -0.296875,0.203125 0,0.109375 0.09375,0.109375 0.28125,0.109375 0.375,0 0.65625,0 0.65625,0.171875 0,0.046875 0,0.0625 -0.0625,0.25 L 1.5625,-0.78125 c -0.09375,0.390625 -0.109375,0.46875 -0.90625,0.46875 -0.171875,0 -0.28125,0 -0.28125,0.1875 C 0.375,0 0.46875,0 0.65625,0 h 5.171875 c 0.234375,0 0.25,-0.015625 0.3125,-0.171875 z m 0,0"
             id="id-f12bbd76-c5f0-4a7d-b73d-6e93b8df2b2a" />
        </g>
      </g>
    </g>
    <g
       transform="matrix(0.352778,0,0,0.352778,58.363834,75.421603)"
       ns2:version="1.8.2"
       ns2:texconverter="pdflatex"
       ns2:pdfconverter="inkscape"
       ns2:text="$\\phi_1$"
       ns2:preamble="/Users/hendrik/Library/Application Support/org.inkscape.Inkscape/config/inkscape/extensions/textext/default_packages.tex"
       ns2:scale="1.0000000850393187"
       ns2:alignment="middle center"
       ns2:stroke-to-path="0"
       ns2:inkscapeversion="1.2.2"
       ns2:jacobian_sqrt="0.352778"
       id="g19750"
       style="fill:#0000ff">
      <defs
         id="defs19736">
        <g
           id="g19734">
          <g
             id="g19722" />
          <g
             id="g19726">
            <path
               d="m 4.359375,-6.671875 c 0,-0.03125 0.03125,-0.140625 0.03125,-0.140625 0,-0.015625 0,-0.109375 -0.125,-0.109375 -0.09375,0 -0.109375,0.03125 -0.15625,0.203125 L 3.53125,-4.421875 c -1.578125,0.0625 -3.046875,1.375 -3.046875,2.734375 0,0.953125 0.703125,1.734375 1.921875,1.8125 C 2.328125,0.421875 2.25,0.75 2.171875,1.0625 c -0.125,0.46875 -0.21875,0.84375 -0.21875,0.875 0,0.09375 0.078125,0.109375 0.125,0.109375 C 2.125,2.046875 2.140625,2.03125 2.171875,2 2.1875,1.984375 2.25,1.75 2.28125,1.609375 L 2.65625,0.125 c 1.609375,-0.0625 3.0625,-1.40625 3.0625,-2.734375 0,-0.796875 -0.53125,-1.703125 -1.921875,-1.8125 z m -1.90625,6.578125 c -0.59375,-0.03125 -1.3125,-0.390625 -1.3125,-1.375 0,-1.203125 0.859375,-2.59375 2.34375,-2.734375 z m 1.28125,-4.109375 c 0.765625,0.046875 1.328125,0.5 1.328125,1.375 0,1.1875 -0.859375,2.609375 -2.34375,2.734375 z m 0,0"
               id="path19724" />
          </g>
          <g
             id="g19728" />
          <g
             id="g19732">
            <path
               d="m 2.328125,-4.4375 c 0,-0.1875 0,-0.1875 -0.203125,-0.1875 -0.453125,0.4375 -1.078125,0.4375 -1.359375,0.4375 v 0.25 c 0.15625,0 0.625,0 1,-0.1875 v 3.546875 c 0,0.234375 0,0.328125 -0.6875,0.328125 H 0.8125 V 0 c 0.125,0 0.984375,-0.03125 1.234375,-0.03125 0.21875,0 1.09375,0.03125 1.25,0.03125 V -0.25 H 3.03125 c -0.703125,0 -0.703125,-0.09375 -0.703125,-0.328125 z m 0,0"
               id="path19730" />
          </g>
        </g>
      </defs>
      <g
         fill="#000000"
         fill-opacity="1"
         id="g19742"
         transform="translate(-149.196,-127.843)"
         style="fill:#0000ff">
        <g
           transform="translate(148.712,134.765)"
           id="g19740"
           style="fill:#0000ff">
          <path
             d="m 4.359375,-6.671875 c 0,-0.03125 0.03125,-0.140625 0.03125,-0.140625 0,-0.015625 0,-0.109375 -0.125,-0.109375 -0.09375,0 -0.109375,0.03125 -0.15625,0.203125 L 3.53125,-4.421875 c -1.578125,0.0625 -3.046875,1.375 -3.046875,2.734375 0,0.953125 0.703125,1.734375 1.921875,1.8125 C 2.328125,0.421875 2.25,0.75 2.171875,1.0625 c -0.125,0.46875 -0.21875,0.84375 -0.21875,0.875 0,0.09375 0.078125,0.109375 0.125,0.109375 C 2.125,2.046875 2.140625,2.03125 2.171875,2 2.1875,1.984375 2.25,1.75 2.28125,1.609375 L 2.65625,0.125 c 1.609375,-0.0625 3.0625,-1.40625 3.0625,-2.734375 0,-0.796875 -0.53125,-1.703125 -1.921875,-1.8125 z m -1.90625,6.578125 c -0.59375,-0.03125 -1.3125,-0.390625 -1.3125,-1.375 0,-1.203125 0.859375,-2.59375 2.34375,-2.734375 z m 1.28125,-4.109375 c 0.765625,0.046875 1.328125,0.5 1.328125,1.375 0,1.1875 -0.859375,2.609375 -2.34375,2.734375 z m 0,0"
             id="path19738"
             style="fill:#0000ff" />
        </g>
      </g>
      <g
         fill="#000000"
         fill-opacity="1"
         id="g19748"
         transform="translate(-149.196,-127.843)"
         style="fill:#0000ff">
        <g
           transform="translate(154.648,136.259)"
           id="g19746"
           style="fill:#0000ff">
          <path
             d="m 2.328125,-4.4375 c 0,-0.1875 0,-0.1875 -0.203125,-0.1875 -0.453125,0.4375 -1.078125,0.4375 -1.359375,0.4375 v 0.25 c 0.15625,0 0.625,0 1,-0.1875 v 3.546875 c 0,0.234375 0,0.328125 -0.6875,0.328125 H 0.8125 V 0 c 0.125,0 0.984375,-0.03125 1.234375,-0.03125 0.21875,0 1.09375,0.03125 1.25,0.03125 V -0.25 H 3.03125 c -0.703125,0 -0.703125,-0.09375 -0.703125,-0.328125 z m 0,0"
             id="path19744"
             style="fill:#0000ff" />
        </g>
      </g>
    </g>
    <g
       transform="matrix(0.352778,0,0,0.352778,71.6919,75.421596)"
       ns2:version="1.8.2"
       ns2:texconverter="pdflatex"
       ns2:pdfconverter="inkscape"
       ns2:text="$\\phi_2$"
       ns2:preamble="/Users/hendrik/Library/Application Support/org.inkscape.Inkscape/config/inkscape/extensions/textext/default_packages.tex"
       ns2:scale="1.0000000850393187"
       ns2:alignment="middle center"
       ns2:stroke-to-path="0"
       ns2:inkscapeversion="1.2.2"
       ns2:jacobian_sqrt="0.352778"
       style="fill:#ff0000;stroke-width:0"
       id="g18904">
      <defs
         id="id-8222283b-e7b7-4ce0-b26d-63c613494fb5"
         style="fill:#ff0000;stroke-width:0">
        <g
           id="id-482123e6-c35c-489e-907d-690bef4d1344"
           style="fill:#ff0000;stroke-width:0">
          <g
             id="id-3e516ec7-8df0-404f-88a1-993b4b89ecba"
             style="fill:#ff0000;stroke-width:0" />
          <g
             id="id-17c3bea5-a902-41be-9d52-a6f7b36a7414"
             style="fill:#ff0000;stroke-width:0">
            <path
               d="m 4.359375,-6.671875 c 0,-0.03125 0.03125,-0.140625 0.03125,-0.140625 0,-0.015625 0,-0.109375 -0.125,-0.109375 -0.09375,0 -0.109375,0.03125 -0.15625,0.203125 L 3.53125,-4.421875 c -1.578125,0.0625 -3.046875,1.375 -3.046875,2.734375 0,0.953125 0.703125,1.734375 1.921875,1.8125 C 2.328125,0.421875 2.25,0.75 2.171875,1.0625 c -0.125,0.46875 -0.21875,0.84375 -0.21875,0.875 0,0.09375 0.078125,0.109375 0.125,0.109375 C 2.125,2.046875 2.140625,2.03125 2.171875,2 2.1875,1.984375 2.25,1.75 2.28125,1.609375 L 2.65625,0.125 c 1.609375,-0.0625 3.0625,-1.40625 3.0625,-2.734375 0,-0.796875 -0.53125,-1.703125 -1.921875,-1.8125 z m -1.90625,6.578125 c -0.59375,-0.03125 -1.3125,-0.390625 -1.3125,-1.375 0,-1.203125 0.859375,-2.59375 2.34375,-2.734375 z m 1.28125,-4.109375 c 0.765625,0.046875 1.328125,0.5 1.328125,1.375 0,1.1875 -0.859375,2.609375 -2.34375,2.734375 z m 0,0"
               id="id-f562806a-bb65-4293-8133-c7a6fb2ebff2"
               style="fill:#ff0000;stroke-width:0" />
          </g>
          <g
             id="id-784e2f19-218d-4bdb-8225-4eeaa0e14fe9"
             style="fill:#ff0000;stroke-width:0" />
          <g
             id="id-bf186470-af3c-4d89-a76a-4d924f5a8c15"
             style="fill:#ff0000;stroke-width:0">
            <path
               d="M 3.515625,-1.265625 H 3.28125 c -0.015625,0.15625 -0.09375,0.5625 -0.1875,0.625 C 3.046875,-0.59375 2.515625,-0.59375 2.40625,-0.59375 H 1.125 c 0.734375,-0.640625 0.984375,-0.84375 1.390625,-1.171875 0.515625,-0.40625 1,-0.84375 1,-1.5 0,-0.84375 -0.734375,-1.359375 -1.625,-1.359375 -0.859375,0 -1.453125,0.609375 -1.453125,1.25 0,0.34375 0.296875,0.390625 0.375,0.390625 0.15625,0 0.359375,-0.125 0.359375,-0.375 0,-0.125 -0.046875,-0.375 -0.40625,-0.375 C 0.984375,-4.21875 1.453125,-4.375 1.78125,-4.375 c 0.703125,0 1.0625,0.546875 1.0625,1.109375 0,0.609375 -0.4375,1.078125 -0.65625,1.328125 L 0.515625,-0.265625 C 0.4375,-0.203125 0.4375,-0.1875 0.4375,0 h 2.875 z m 0,0"
               id="id-af40460d-e191-4e3e-a8ba-99551d0ad372"
               style="fill:#ff0000;stroke-width:0" />
          </g>
        </g>
      </defs>
      <g
         fill-opacity="1"
         id="id-7997dbff-7c90-4486-80bb-92153ba15f63"
         transform="translate(-149.196,-127.843)"
         style="fill:#ff0000;stroke-width:0">
        <g
           transform="translate(148.712,134.765)"
           style="fill:#ff0000;stroke-width:0"
           id="g21637">
          <path
             d="m 4.359375,-6.671875 c 0,-0.03125 0.03125,-0.140625 0.03125,-0.140625 0,-0.015625 0,-0.109375 -0.125,-0.109375 -0.09375,0 -0.109375,0.03125 -0.15625,0.203125 L 3.53125,-4.421875 c -1.578125,0.0625 -3.046875,1.375 -3.046875,2.734375 0,0.953125 0.703125,1.734375 1.921875,1.8125 C 2.328125,0.421875 2.25,0.75 2.171875,1.0625 c -0.125,0.46875 -0.21875,0.84375 -0.21875,0.875 0,0.09375 0.078125,0.109375 0.125,0.109375 C 2.125,2.046875 2.140625,2.03125 2.171875,2 2.1875,1.984375 2.25,1.75 2.28125,1.609375 L 2.65625,0.125 c 1.609375,-0.0625 3.0625,-1.40625 3.0625,-2.734375 0,-0.796875 -0.53125,-1.703125 -1.921875,-1.8125 z m -1.90625,6.578125 c -0.59375,-0.03125 -1.3125,-0.390625 -1.3125,-1.375 0,-1.203125 0.859375,-2.59375 2.34375,-2.734375 z m 1.28125,-4.109375 c 0.765625,0.046875 1.328125,0.5 1.328125,1.375 0,1.1875 -0.859375,2.609375 -2.34375,2.734375 z m 0,0"
             id="id-305c1be7-fe0b-458a-8e9b-9e18e25a528b"
             style="fill:#ff0000;stroke-width:0" />
        </g>
      </g>
      <g
         fill-opacity="1"
         id="id-0638b82e-3205-4cdc-8cda-87ef8336ff6b"
         transform="translate(-149.196,-127.843)"
         style="fill:#ff0000;stroke-width:0">
        <g
           transform="translate(154.648,136.259)"
           style="fill:#ff0000;stroke-width:0"
           id="g21641">
          <path
             d="M 3.515625,-1.265625 H 3.28125 c -0.015625,0.15625 -0.09375,0.5625 -0.1875,0.625 C 3.046875,-0.59375 2.515625,-0.59375 2.40625,-0.59375 H 1.125 c 0.734375,-0.640625 0.984375,-0.84375 1.390625,-1.171875 0.515625,-0.40625 1,-0.84375 1,-1.5 0,-0.84375 -0.734375,-1.359375 -1.625,-1.359375 -0.859375,0 -1.453125,0.609375 -1.453125,1.25 0,0.34375 0.296875,0.390625 0.375,0.390625 0.15625,0 0.359375,-0.125 0.359375,-0.375 0,-0.125 -0.046875,-0.375 -0.40625,-0.375 C 0.984375,-4.21875 1.453125,-4.375 1.78125,-4.375 c 0.703125,0 1.0625,0.546875 1.0625,1.109375 0,0.609375 -0.4375,1.078125 -0.65625,1.328125 L 0.515625,-0.265625 C 0.4375,-0.203125 0.4375,-0.1875 0.4375,0 h 2.875 z m 0,0"
             id="id-fe9e0ca3-6b59-4073-957a-f8900e2b2f8d"
             style="fill:#ff0000;stroke-width:0" />
        </g>
      </g>
    </g>
    <path
       style="fill:#000000;fill-opacity:1;stroke:none;stroke-width:0.378316;stroke-dasharray:none"
       id="path441"
       transform="matrix(0.08649721,0,0,0.08649721,59.25115,48.651251)"
       sodipodi:type="arc"
       sodipodi:cx="22.778042"
       sodipodi:cy="27.3599"
       sodipodi:rx="1.1539735"
       sodipodi:ry="1.1539735"
       sodipodi:start="0.088736768"
       sodipodi:end="6.1931875"
       sodipodi:open="true"
       sodipodi:arc-type="arc"
       d="m 23.927475,27.462165 a 1.1539735,1.1539735 0 0 1 -1.200253,1.050588 1.1539735,1.1539735 0 0 1 -1.103153,-1.152126 1.1539735,1.1539735 0 0 1 1.101699,-1.153516 1.1539735,1.1539735 0 0 1 1.201577,1.049074" />
    <path
       style="fill:#000000;fill-opacity:1;stroke:none;stroke-width:0.378316;stroke-dasharray:none"
       id="path1313"
       transform="matrix(0.08649721,0,0,0.08649721,59.25115,48.122084)"
       sodipodi:type="arc"
       sodipodi:cx="22.778042"
       sodipodi:cy="27.3599"
       sodipodi:rx="1.1539735"
       sodipodi:ry="1.1539735"
       sodipodi:start="0.088736768"
       sodipodi:end="6.1931875"
       sodipodi:open="true"
       sodipodi:arc-type="arc"
       d="m 23.927475,27.462165 a 1.1539735,1.1539735 0 0 1 -1.200253,1.050588 1.1539735,1.1539735 0 0 1 -1.103153,-1.152126 1.1539735,1.1539735 0 0 1 1.101699,-1.153516 1.1539735,1.1539735 0 0 1 1.201577,1.049074" />
    <path
       style="fill:#000000;fill-opacity:1;stroke:none;stroke-width:0.378316;stroke-dasharray:none"
       id="path1315"
       transform="matrix(0.08649721,0,0,0.08649721,59.25115,47.592917)"
       sodipodi:type="arc"
       sodipodi:cx="22.778042"
       sodipodi:cy="27.3599"
       sodipodi:rx="1.1539735"
       sodipodi:ry="1.1539735"
       sodipodi:start="0.088736768"
       sodipodi:end="6.1931875"
       sodipodi:open="true"
       sodipodi:arc-type="arc"
       d="m 23.927475,27.462165 a 1.1539735,1.1539735 0 0 1 -1.200253,1.050588 1.1539735,1.1539735 0 0 1 -1.103153,-1.152126 1.1539735,1.1539735 0 0 1 1.101699,-1.153516 1.1539735,1.1539735 0 0 1 1.201577,1.049074" />
    <path
       style="fill:#000000;fill-opacity:1;stroke:none;stroke-width:0.378316;stroke-dasharray:none"
       id="path1317"
       transform="matrix(0.08649721,0,0,0.08649721,69.988956,48.651251)"
       sodipodi:type="arc"
       sodipodi:cx="22.778042"
       sodipodi:cy="27.3599"
       sodipodi:rx="1.1539735"
       sodipodi:ry="1.1539735"
       sodipodi:start="0.088736768"
       sodipodi:end="6.1931875"
       sodipodi:open="true"
       sodipodi:arc-type="arc"
       d="m 23.927475,27.462165 a 1.1539735,1.1539735 0 0 1 -1.200253,1.050588 1.1539735,1.1539735 0 0 1 -1.103153,-1.152126 1.1539735,1.1539735 0 0 1 1.101699,-1.153516 1.1539735,1.1539735 0 0 1 1.201577,1.049074" />
    <path
       style="fill:#000000;fill-opacity:1;stroke:none;stroke-width:0.378316;stroke-dasharray:none"
       id="path1319"
       transform="matrix(0.08649721,0,0,0.08649721,69.988956,48.122084)"
       sodipodi:type="arc"
       sodipodi:cx="22.778042"
       sodipodi:cy="27.3599"
       sodipodi:rx="1.1539735"
       sodipodi:ry="1.1539735"
       sodipodi:start="0.088736768"
       sodipodi:end="6.1931875"
       sodipodi:open="true"
       sodipodi:arc-type="arc"
       d="m 23.927475,27.462165 a 1.1539735,1.1539735 0 0 1 -1.200253,1.050588 1.1539735,1.1539735 0 0 1 -1.103153,-1.152126 1.1539735,1.1539735 0 0 1 1.101699,-1.153516 1.1539735,1.1539735 0 0 1 1.201577,1.049074" />
    <path
       style="fill:#000000;fill-opacity:1;stroke:none;stroke-width:0.378316;stroke-dasharray:none"
       id="path1321"
       transform="matrix(0.08649721,0,0,0.08649721,69.988956,47.592917)"
       sodipodi:type="arc"
       sodipodi:cx="22.778042"
       sodipodi:cy="27.3599"
       sodipodi:rx="1.1539735"
       sodipodi:ry="1.1539735"
       sodipodi:start="0.088736768"
       sodipodi:end="6.1931875"
       sodipodi:open="true"
       sodipodi:arc-type="arc"
       d="m 23.927475,27.462165 a 1.1539735,1.1539735 0 0 1 -1.200253,1.050588 1.1539735,1.1539735 0 0 1 -1.103153,-1.152126 1.1539735,1.1539735 0 0 1 1.101699,-1.153516 1.1539735,1.1539735 0 0 1 1.201577,1.049074" />
    <path
       style="fill:#000000;fill-opacity:1;stroke:none;stroke-width:0.378316;stroke-dasharray:none"
       id="path1323"
       transform="matrix(0.08649721,0,0,0.08649721,59.25175,72.025567)"
       sodipodi:type="arc"
       sodipodi:cx="22.778042"
       sodipodi:cy="27.3599"
       sodipodi:rx="1.1539735"
       sodipodi:ry="1.1539735"
       sodipodi:start="0.088736768"
       sodipodi:end="6.1931875"
       sodipodi:open="true"
       sodipodi:arc-type="arc"
       d="m 23.927475,27.462165 a 1.1539735,1.1539735 0 0 1 -1.200253,1.050588 1.1539735,1.1539735 0 0 1 -1.103153,-1.152126 1.1539735,1.1539735 0 0 1 1.101699,-1.153516 1.1539735,1.1539735 0 0 1 1.201577,1.049074" />
    <path
       style="fill:#000000;fill-opacity:1;stroke:none;stroke-width:0.378316;stroke-dasharray:none"
       id="path1325"
       transform="matrix(0.08649721,0,0,0.08649721,59.25175,71.4964)"
       sodipodi:type="arc"
       sodipodi:cx="22.778042"
       sodipodi:cy="27.3599"
       sodipodi:rx="1.1539735"
       sodipodi:ry="1.1539735"
       sodipodi:start="0.088736768"
       sodipodi:end="6.1931875"
       sodipodi:open="true"
       sodipodi:arc-type="arc"
       d="m 23.927475,27.462165 a 1.1539735,1.1539735 0 0 1 -1.200253,1.050588 1.1539735,1.1539735 0 0 1 -1.103153,-1.152126 1.1539735,1.1539735 0 0 1 1.101699,-1.153516 1.1539735,1.1539735 0 0 1 1.201577,1.049074" />
    <path
       style="fill:#000000;fill-opacity:1;stroke:none;stroke-width:0.378316;stroke-dasharray:none"
       id="path1327"
       transform="matrix(0.08649721,0,0,0.08649721,59.25175,70.967233)"
       sodipodi:type="arc"
       sodipodi:cx="22.778042"
       sodipodi:cy="27.3599"
       sodipodi:rx="1.1539735"
       sodipodi:ry="1.1539735"
       sodipodi:start="0.088736768"
       sodipodi:end="6.1931875"
       sodipodi:open="true"
       sodipodi:arc-type="arc"
       d="m 23.927475,27.462165 a 1.1539735,1.1539735 0 0 1 -1.200253,1.050588 1.1539735,1.1539735 0 0 1 -1.103153,-1.152126 1.1539735,1.1539735 0 0 1 1.101699,-1.153516 1.1539735,1.1539735 0 0 1 1.201577,1.049074" />
    <path
       style="fill:#000000;fill-opacity:1;stroke:none;stroke-width:0.378316;stroke-dasharray:none"
       id="path1329"
       transform="matrix(0.08649721,0,0,0.08649721,69.989556,72.025567)"
       sodipodi:type="arc"
       sodipodi:cx="22.778042"
       sodipodi:cy="27.3599"
       sodipodi:rx="1.1539735"
       sodipodi:ry="1.1539735"
       sodipodi:start="0.088736768"
       sodipodi:end="6.1931875"
       sodipodi:open="true"
       sodipodi:arc-type="arc"
       d="m 23.927475,27.462165 a 1.1539735,1.1539735 0 0 1 -1.200253,1.050588 1.1539735,1.1539735 0 0 1 -1.103153,-1.152126 1.1539735,1.1539735 0 0 1 1.101699,-1.153516 1.1539735,1.1539735 0 0 1 1.201577,1.049074" />
    <path
       style="fill:#000000;fill-opacity:1;stroke:none;stroke-width:0.378316;stroke-dasharray:none"
       id="path1331"
       transform="matrix(0.08649721,0,0,0.08649721,69.989556,71.4964)"
       sodipodi:type="arc"
       sodipodi:cx="22.778042"
       sodipodi:cy="27.3599"
       sodipodi:rx="1.1539735"
       sodipodi:ry="1.1539735"
       sodipodi:start="0.088736768"
       sodipodi:end="6.1931875"
       sodipodi:open="true"
       sodipodi:arc-type="arc"
       d="m 23.927475,27.462165 a 1.1539735,1.1539735 0 0 1 -1.200253,1.050588 1.1539735,1.1539735 0 0 1 -1.103153,-1.152126 1.1539735,1.1539735 0 0 1 1.101699,-1.153516 1.1539735,1.1539735 0 0 1 1.201577,1.049074" />
    <path
       style="fill:#000000;fill-opacity:1;stroke:none;stroke-width:0.378316;stroke-dasharray:none"
       id="path1333"
       transform="matrix(0.08649721,0,0,0.08649721,69.989556,70.967233)"
       sodipodi:type="arc"
       sodipodi:cx="22.778042"
       sodipodi:cy="27.3599"
       sodipodi:rx="1.1539735"
       sodipodi:ry="1.1539735"
       sodipodi:start="0.088736768"
       sodipodi:end="6.1931875"
       sodipodi:open="true"
       sodipodi:arc-type="arc"
       d="m 23.927475,27.462165 a 1.1539735,1.1539735 0 0 1 -1.200253,1.050588 1.1539735,1.1539735 0 0 1 -1.103153,-1.152126 1.1539735,1.1539735 0 0 1 1.101699,-1.153516 1.1539735,1.1539735 0 0 1 1.201577,1.049074" />
  </g>
</svg>
