<?xml version="1.0" encoding="UTF-8" standalone="no"?>
<!-- Created with Inkscape (http://www.inkscape.org/) -->

<svg
   width="60.622162mm"
   height="39.624229mm"
   viewBox="0 0 60.622162 39.624229"
   version="1.1"
   id="svg5"
   inkscape:version="1.2.2 (b0a8486, 2022-12-01)"
   sodipodi:docname="platte.svg"
   xmlns:inkscape="http://www.inkscape.org/namespaces/inkscape"
   xmlns:sodipodi="http://sodipodi.sourceforge.net/DTD/sodipodi-0.dtd"
   xmlns="http://www.w3.org/2000/svg"
   xmlns:svg="http://www.w3.org/2000/svg"
   xmlns:ns1="http://www.iki.fi/pav/software/textext/">
  <sodipodi:namedview
     id="namedview7"
     pagecolor="#ffffff"
     bordercolor="#000000"
     borderopacity="0.25"
     inkscape:showpageshadow="2"
     inkscape:pageopacity="0.0"
     inkscape:pagecheckerboard="0"
     inkscape:deskcolor="#d1d1d1"
     inkscape:document-units="mm"
     showgrid="false"
     inkscape:zoom="4.8650822"
     inkscape:cx="135.35229"
     inkscape:cy="112.43387"
     inkscape:window-width="1440"
     inkscape:window-height="780"
     inkscape:window-x="0"
     inkscape:window-y="23"
     inkscape:window-maximized="0"
     inkscape:current-layer="layer1" />
  <defs
     id="defs2" />
  <g
     inkscape:label="Layer 1"
     inkscape:groupmode="layer"
     id="layer1"
     transform="translate(-80.9764, -35.3285)">
    <g
       id="g4717"
       transform="matrix(-1,0,0,1,220.33657,-1.058334)">
      <path
         style="fill:#0000ff;fill-opacity:0.464407;stroke:#0000ff;stroke-width:0.755906;stroke-dasharray:none;stroke-dashoffset:0"
         d="m 463.47856,208.40558 h 23.88945"
         id="path4713"
         transform="scale(0.26458333)" />
      <path
         style="fill:none;fill-opacity:0.464407;stroke:#0000ff;stroke-width:0.755906;stroke-dasharray:none;stroke-dashoffset:0"
         d="m 497.25452,198.14079 h 3.77049 v 3.77049"
         id="path4715"
         transform="matrix(0.18708867,0.18708867,-0.18708867,0.18708867,72.283245,-75.665357)"
         inkscape:transform-center-x="0.35270706"
         inkscape:transform-center-y="2.2844894e-06" />
    </g>
    <g
       id="g5416">
      <g
         id="g5170"
         style="stroke:#ff0000"
         transform="matrix(-1,0,0,1,220.32838,-0.10000358)">
        <path
           style="fill:#0000ff;fill-opacity:0.464407;stroke:#ff0000;stroke-width:0.755906;stroke-dasharray:none;stroke-dashoffset:0"
           d="m 510.54402,208.40558 h 16.82402"
           id="path5166"
           transform="matrix(0.26458333,0,0,0.26458333,-12.464232,0.10000324)"
           sodipodi:nodetypes="cc" />
        <path
           style="fill:none;fill-opacity:0.464407;stroke:#ff0000;stroke-width:0.755906;stroke-dasharray:none;stroke-dashoffset:0"
           d="m 497.25452,198.14079 h 3.77049 v 3.77049"
           id="path5168"
           transform="matrix(0.18708867,0.18708867,-0.18708867,0.18708867,70.402353,-75.565354)"
           inkscape:transform-center-x="0.35270706"
           inkscape:transform-center-y="2.2844894e-06" />
      </g>
      <g
         id="g5176"
         style="stroke:#ff0000"
         transform="matrix(-1,0,0,1,220.32838,-2.745837)">
        <path
           style="fill:#0000ff;fill-opacity:0.464407;stroke:#ff0000;stroke-width:0.755906;stroke-dasharray:none;stroke-dashoffset:0"
           d="m 510.54049,208.40558 h 16.82755"
           id="path5172"
           transform="matrix(0.26458333,0,0,0.26458333,-12.464232,0.10000324)"
           sodipodi:nodetypes="cc" />
        <path
           style="fill:none;fill-opacity:0.464407;stroke:#ff0000;stroke-width:0.755906;stroke-dasharray:none;stroke-dashoffset:0"
           d="m 497.25452,198.14079 h 3.77049 v 3.77049"
           id="path5174"
           transform="matrix(0.18708867,0.18708867,-0.18708867,0.18708867,70.402353,-75.565354)"
           inkscape:transform-center-x="0.35270706"
           inkscape:transform-center-y="2.2844894e-06" />
      </g>
      <g
         id="g5182"
         style="stroke:#ff0000"
         transform="matrix(-1,0,0,1,220.32838,2.5458298)">
        <path
           style="fill:#0000ff;fill-opacity:0.464407;stroke:#ff0000;stroke-width:0.755906;stroke-dasharray:none;stroke-dashoffset:0"
           d="m 510.54756,208.40558 h 16.82048"
           id="path5178"
           transform="matrix(0.26458333,0,0,0.26458333,-12.464232,0.10000324)"
           sodipodi:nodetypes="cc" />
        <path
           style="fill:none;fill-opacity:0.464407;stroke:#ff0000;stroke-width:0.755906;stroke-dasharray:none;stroke-dashoffset:0"
           d="m 497.25452,198.14079 h 3.77049 v 3.77049"
           id="path5180"
           transform="matrix(0.18708867,0.18708867,-0.18708867,0.18708867,70.402353,-75.565354)"
           inkscape:transform-center-x="0.35270706"
           inkscape:transform-center-y="2.2844894e-06" />
      </g>
    </g>
    <path
       style="fill:#0000ff;fill-opacity:0.464407;stroke:none;stroke-width:1.73731;stroke-dasharray:none"
       id="path4597"
       transform="matrix(0.11512057,0,0,0.11512057,49.780804,31.105361)"
       sodipodi:type="arc"
       sodipodi:cx="416.36966"
       sodipodi:cy="208.78354"
       sodipodi:rx="19.519257"
       sodipodi:ry="57.483086"
       sodipodi:start="0.088736768"
       sodipodi:end="6.1931875"
       sodipodi:open="true"
       sodipodi:arc-type="chord"
       d="m 435.81212,213.87771 a 19.519257,57.483086 0 0 1 -20.30207,52.33315 19.519257,57.483086 0 0 1 -18.65964,-57.39108 19.519257,57.483086 0 0 1 18.63505,-57.46032 19.519257,57.483086 0 0 1 20.32446,52.25771 z" />
    <g
       id="g5437">
      <path
         style="fill:#ff0000;fill-opacity:1;stroke:#ff0000;stroke-width:0.755906;stroke-dasharray:none;stroke-dashoffset:0"
         d="m 369.30561,198.40558 h 47.06191"
         id="path5428"
         transform="scale(0.26458333)" />
      <path
         style="fill:#ff0000;fill-opacity:1;stroke:#ff0000;stroke-width:0.755906;stroke-dasharray:none;stroke-dashoffset:0"
         d="m 369.28958,208.40557 47.07794,10e-6"
         id="path5430"
         transform="scale(0.26458333)" />
      <path
         style="fill:#ff0000;fill-opacity:1;stroke:#ff0000;stroke-width:0.755906;stroke-dasharray:none;stroke-dashoffset:0"
         d="m 369.29854,218.40558 h 47.06898"
         id="path5432"
         transform="scale(0.26458333)" />
    </g>
    <path
       style="display:inline;fill:#0000ff;fill-opacity:0.464407;stroke:#000000;stroke-width:0.755906;stroke-dasharray:0.755906, 0.755906;stroke-dashoffset:0"
       d="M 416.36753,183.39461 H 397.14704"
       id="path2064"
       transform="scale(0.26458333)"
       sodipodi:nodetypes="cc" />
    <path
       style="fill:#0000ff;fill-opacity:0.464407;stroke:#000000;stroke-width:0.755906;stroke-dasharray:0.755906, 0.755906;stroke-dashoffset:0"
       d="M 416.36964,233.41655 H 397.14703"
       id="path2066"
       transform="scale(0.26458333)"
       sodipodi:nodetypes="cc" />
    <path
       style="display:inline;fill:#00ff00;fill-opacity:0.464407;stroke:none;stroke-width:0.963131;stroke-dasharray:none;stroke-dashoffset:0"
       d="m 391.87732,171.5552 48.98467,-48.98468 -10e-6,123.44137 -48.98467,48.98468 z"
       id="path4426"
       transform="matrix(0.2076561,0,0,0.2076561,23.70277,11.885469)" />
    <path
       style="fill:none;fill-opacity:0.464407;stroke:#000000;stroke-width:0.963131;stroke-dasharray:none"
       d="m 440.86198,240.16949 10e-6,5.8424 -48.98468,48.98468 10e-6,-123.44137 48.98468,-48.98468 v 53.86392"
       id="path186"
       transform="matrix(0.2076561,0,0,0.2076561,23.70277,11.885469)"
       sodipodi:nodetypes="cccccc" />
    <path
       style="fill:#0000ff;fill-opacity:0.464407;stroke:#000000;stroke-width:1.73731;stroke-dasharray:none"
       id="path1890"
       transform="matrix(0.11512057,0,0,0.11512057,74.69599,31.105364)"
       sodipodi:type="arc"
       sodipodi:cx="416.36966"
       sodipodi:cy="208.78354"
       sodipodi:rx="19.519257"
       sodipodi:ry="57.483086"
       sodipodi:start="0.088736768"
       sodipodi:end="6.1931875"
       sodipodi:open="true"
       sodipodi:arc-type="chord"
       d="m 435.81212,213.87771 a 19.519257,57.483086 0 0 1 -20.30207,52.33315 19.519257,57.483086 0 0 1 -18.65964,-57.39108 19.519257,57.483086 0 0 1 18.63505,-57.46032 19.519257,57.483086 0 0 1 20.32446,52.25771 z" />
    <path
       style="fill:none;fill-opacity:0.464407;stroke:#000000;stroke-width:0.755906;stroke-dasharray:none"
       d="m 416.36965,233.41655 h 47.10891"
       id="path1896"
       transform="scale(0.26458333)"
       sodipodi:nodetypes="cc" />
    <path
       style="fill:none;fill-opacity:0.464407;stroke:#000000;stroke-width:0.755906;stroke-dasharray:none"
       d="m 416.36754,183.39461 h 47.11102"
       id="path1894"
       sodipodi:nodetypes="cc"
       transform="scale(0.26458333)" />
    <g
       id="g3681">
      <path
         style="fill:none;fill-opacity:0.464407;stroke:#000000;stroke-width:1.73731;stroke-dasharray:none"
         id="path1892"
         transform="matrix(0.11512057,0,0,0.11512057,49.776383,31.105364)"
         d="m 416.36966,266.26662 a 19.519257,57.483086 0 0 1 -16.90417,-28.74154 19.519257,57.483086 0 0 1 0,-57.48308 19.519257,57.483086 0 0 1 16.90417,-28.74155"
         sodipodi:type="arc"
         sodipodi:arc-type="arc"
         sodipodi:start="1.5707963"
         sodipodi:end="4.712389"
         sodipodi:ry="57.483086"
         sodipodi:rx="19.519257"
         sodipodi:cy="208.78354"
         sodipodi:cx="416.36966"
         sodipodi:open="true" />
      <path
         style="fill:none;fill-opacity:0.464407;stroke:#000000;stroke-width:1.73731;stroke-dasharray:1.73731, 1.73731;stroke-dashoffset:0"
         id="path2062"
         transform="matrix(-0.11512057,0,0,0.11512057,145.64181,31.105362)"
         d="m 416.36966,266.26662 a 19.519257,57.483086 0 0 1 -16.90417,-28.74154 19.519257,57.483086 0 0 1 0,-57.48308 19.519257,57.483086 0 0 1 16.90417,-28.74155"
         sodipodi:type="arc"
         sodipodi:arc-type="arc"
         sodipodi:start="1.5707963"
         sodipodi:end="4.712389"
         sodipodi:ry="57.483086"
         sodipodi:rx="19.519257"
         sodipodi:cy="208.78354"
         sodipodi:cx="416.36966"
         sodipodi:open="true" />
    </g>
    <path
       style="fill:none;fill-opacity:0.464407;stroke:#000000;stroke-width:0.755906;stroke-dasharray:none;stroke-dashoffset:0"
       d="M 397.14704,183.39461 H 369.29423"
       id="path2068"
       transform="scale(0.26458333)"
       sodipodi:nodetypes="cc" />
    <path
       style="fill:none;fill-opacity:0.464407;stroke:#000000;stroke-width:0.755906;stroke-dasharray:none;stroke-dashoffset:0"
       d="m 369.29422,233.41655 h 27.85281"
       id="path2126"
       transform="scale(0.26458333)"
       sodipodi:nodetypes="cc" />
    <path
       style="fill:none;fill-opacity:0.464407;stroke:#000000;stroke-width:1.73731;stroke-dasharray:none"
       id="path2854"
       transform="matrix(0.11512057,0,0,0.11512057,62.231195,31.105362)"
       d="m 416.36966,266.26662 a 19.519257,57.483086 0 0 1 -16.90417,-28.74154 19.519257,57.483086 0 0 1 0,-57.48308 19.519257,57.483086 0 0 1 16.90417,-28.74155"
       sodipodi:type="arc"
       sodipodi:arc-type="arc"
       sodipodi:start="1.5707963"
       sodipodi:end="4.712389"
       sodipodi:ry="57.483086"
       sodipodi:rx="19.519257"
       sodipodi:cy="208.78354"
       sodipodi:cx="416.36966"
       sodipodi:open="true" />
    <path
       style="fill:none;fill-opacity:0.464407;stroke:#000000;stroke-width:1.73731;stroke-dasharray:1.73731, 1.73731;stroke-dashoffset:0"
       id="path2856"
       transform="matrix(-0.11512057,0,0,0.11512057,158.09662,31.105362)"
       d="m 416.36966,266.26662 a 19.519257,57.483086 0 0 1 -16.90417,-28.74154 19.519257,57.483086 0 0 1 0,-57.48308 19.519257,57.483086 0 0 1 16.90417,-28.74155"
       sodipodi:type="arc"
       sodipodi:arc-type="arc"
       sodipodi:start="1.5707963"
       sodipodi:end="4.712389"
       sodipodi:ry="57.483086"
       sodipodi:rx="19.519257"
       sodipodi:cy="208.78354"
       sodipodi:cx="416.36966"
       sodipodi:open="true" />
    <path
       style="fill:none;fill-opacity:0.464407;stroke:#000000;stroke-width:0.96313087;stroke-dasharray:0.96313087,0.96313087;stroke-dashoffset:0"
       d="m 440.86199,176.43444 v 63.73505"
       id="path2918"
       transform="matrix(0.2076561,0,0,0.2076561,23.70277,11.885469)"
       sodipodi:nodetypes="cc" />
    <g
       id="g3862"
       style="stroke:#000000"
       transform="translate(4.2333335)">
      <path
         style="fill:#0000ff;fill-opacity:0.464407;stroke:#000000;stroke-width:0.755906;stroke-dasharray:none;stroke-dashoffset:0"
         d="m 463.47856,208.40558 h 23.88945"
         id="path3858"
         transform="scale(0.26458333)" />
      <path
         style="fill:none;fill-opacity:0.464407;stroke:#000000;stroke-width:0.755906;stroke-dasharray:none;stroke-dashoffset:0"
         d="m 497.25452,198.14079 h 3.77049 v 3.77049"
         id="path3860"
         transform="matrix(0.18708867,0.18708867,-0.18708867,0.18708867,72.283245,-75.665357)"
         inkscape:transform-center-x="0.35270706"
         inkscape:transform-center-y="2.2844894e-06" />
    </g>
    <path
       style="fill:none;fill-opacity:0.464407;stroke:#000000;stroke-width:0.755906;stroke-dasharray:none;stroke-dashoffset:0"
       d="m 479.47855,208.40558 h -16.0167"
       id="path3864"
       transform="scale(0.26458333)" />
    <g
       id="g4711"
       transform="translate(0,-1.0583333)">
      <path
         style="fill:#0000ff;fill-opacity:0.464407;stroke:#0000ff;stroke-width:0.755906;stroke-dasharray:none;stroke-dashoffset:0"
         d="m 463.47856,208.40558 h 23.88945"
         id="path3713"
         transform="scale(0.26458333)" />
      <path
         style="fill:none;fill-opacity:0.464407;stroke:#0000ff;stroke-width:0.755906;stroke-dasharray:none;stroke-dashoffset:0"
         d="m 497.25452,198.14079 h 3.77049 v 3.77049"
         id="path3715"
         transform="matrix(0.18708867,0.18708867,-0.18708867,0.18708867,72.283245,-75.665357)"
         inkscape:transform-center-x="0.35270706"
         inkscape:transform-center-y="2.2844894e-06" />
    </g>
    <g
       transform="matrix(0.352778,0,0,0.352778,106.88492,65.629736)"
       ns1:version="1.8.2"
       ns1:texconverter="pdflatex"
       ns1:pdfconverter="inkscape"
       ns1:text="$\\sigma$"
       ns1:preamble="/Users/hendrik/Library/Application Support/org.inkscape.Inkscape/config/inkscape/extensions/textext/default_packages.tex"
       ns1:scale="1.0000000850393187"
       ns1:alignment="middle center"
       ns1:stroke-to-path="0"
       ns1:inkscapeversion="1.2.2"
       ns1:jacobian_sqrt="0.352778"
       id="g3845">
      <defs
         id="id-111aff59-910c-4d2b-a12e-9bb70afc694c">
        <g
           id="id-452c9f5b-b515-42b7-9c1d-1891135ef58c">
          <g
             id="id-b475f6a2-54e9-493a-9a6f-79526130f156" />
          <g
             id="id-3910d745-25eb-4a0d-91e2-502140bb5f84">
            <path
               d="m 5.15625,-3.71875 c 0.140625,0 0.5,0 0.5,-0.34375 0,-0.234375 -0.21875,-0.234375 -0.390625,-0.234375 h -2.28125 c -1.5,0 -2.609375,1.640625 -2.609375,2.828125 0,0.875 0.59375,1.578125 1.5,1.578125 1.171875,0 2.5,-1.203125 2.5,-2.734375 0,-0.171875 0,-0.65625 -0.3125,-1.09375 z M 1.890625,-0.109375 C 1.390625,-0.109375 1,-0.46875 1,-1.1875 c 0,-0.296875 0.109375,-1.109375 0.46875,-1.703125 0.421875,-0.6875 1.015625,-0.828125 1.359375,-0.828125 0.828125,0 0.90625,0.65625 0.90625,0.96875 0,0.46875 -0.203125,1.28125 -0.53125,1.796875 -0.390625,0.578125 -0.9375,0.84375 -1.3125,0.84375 z m 0,0"
               id="id-0dee9958-b3b0-4183-b8c7-d63bb9ce8132" />
          </g>
        </g>
      </defs>
      <g
         fill="#000000"
         fill-opacity="1"
         id="id-14f225b6-79d3-438f-a11c-81ccec3a5ab3"
         transform="translate(-149.087,-130.468)">
        <g
           transform="translate(148.712,134.765)"
           id="g3842">
          <path
             d="m 5.15625,-3.71875 c 0.140625,0 0.5,0 0.5,-0.34375 0,-0.234375 -0.21875,-0.234375 -0.390625,-0.234375 h -2.28125 c -1.5,0 -2.609375,1.640625 -2.609375,2.828125 0,0.875 0.59375,1.578125 1.5,1.578125 1.171875,0 2.5,-1.203125 2.5,-2.734375 0,-0.171875 0,-0.65625 -0.3125,-1.09375 z M 1.890625,-0.109375 C 1.390625,-0.109375 1,-0.46875 1,-1.1875 c 0,-0.296875 0.109375,-1.109375 0.46875,-1.703125 0.421875,-0.6875 1.015625,-0.828125 1.359375,-0.828125 0.828125,0 0.90625,0.65625 0.90625,0.96875 0,0.46875 -0.203125,1.28125 -0.53125,1.796875 -0.390625,0.578125 -0.9375,0.84375 -1.3125,0.84375 z m 0,0"
             id="id-a8baf195-4594-4ac5-9dc6-1568e2623c80" />
        </g>
      </g>
    </g>
    <g
       transform="matrix(0.352778,0,0,0.352778,133.66367,54.244224)"
       ns1:version="1.8.2"
       ns1:texconverter="pdflatex"
       ns1:pdfconverter="inkscape"
       ns1:text="$z$"
       ns1:preamble="/Users/hendrik/Library/Application Support/org.inkscape.Inkscape/config/inkscape/extensions/textext/default_packages.tex"
       ns1:scale="1.0000000850393187"
       ns1:alignment="middle center"
       ns1:stroke-to-path="0"
       ns1:inkscapeversion="1.2.2"
       ns1:jacobian_sqrt="0.352778"
       id="g3966">
      <defs
         id="id-883f914e-46c2-4c79-8689-914be1b3379d">
        <g
           id="id-743213d9-9e0a-46c6-84b9-c9ed83dd36c4">
          <g
             id="id-6735dc38-1233-4e93-a352-14080276f19d" />
          <g
             id="id-3c4dfeb2-7a64-44f3-b804-af980d758809">
            <path
               d="m 1.328125,-0.828125 c 0.53125,-0.578125 0.828125,-0.828125 1.1875,-1.140625 0,0 0.609375,-0.53125 0.96875,-0.890625 C 4.4375,-3.78125 4.65625,-4.265625 4.65625,-4.3125 c 0,-0.09375 -0.09375,-0.09375 -0.109375,-0.09375 -0.078125,0 -0.09375,0.015625 -0.15625,0.109375 -0.296875,0.484375 -0.5,0.640625 -0.734375,0.640625 -0.25,0 -0.359375,-0.15625 -0.515625,-0.328125 -0.1875,-0.21875 -0.359375,-0.421875 -0.6875,-0.421875 -0.75,0 -1.203125,0.921875 -1.203125,1.140625 0,0.046875 0.03125,0.109375 0.109375,0.109375 0.09375,0 0.109375,-0.046875 0.140625,-0.109375 0.1875,-0.46875 0.765625,-0.46875 0.84375,-0.46875 0.203125,0 0.390625,0.0625 0.625,0.140625 0.40625,0.15625 0.515625,0.15625 0.765625,0.15625 -0.359375,0.421875 -1.1875,1.140625 -1.375,1.296875 l -0.90625,0.84375 C 0.78125,-0.625 0.421875,-0.0625 0.421875,0.015625 c 0,0.09375 0.109375,0.09375 0.125,0.09375 0.078125,0 0.09375,-0.015625 0.15625,-0.125 0.234375,-0.359375 0.53125,-0.625 0.859375,-0.625 0.21875,0 0.328125,0.09375 0.578125,0.375 0.15625,0.21875 0.34375,0.375 0.625,0.375 1,0 1.578125,-1.265625 1.578125,-1.53125 0,-0.046875 -0.046875,-0.109375 -0.125,-0.109375 -0.09375,0 -0.109375,0.0625 -0.140625,0.140625 C 3.84375,-0.75 3.203125,-0.5625 2.875,-0.5625 c -0.1875,0 -0.375,-0.0625 -0.578125,-0.125 -0.34375,-0.125 -0.5,-0.171875 -0.703125,-0.171875 -0.015625,0 -0.171875,0 -0.265625,0.03125 z m 0,0"
               id="id-5d8caec8-ef76-4d50-9368-6362c6c8051e" />
          </g>
        </g>
      </defs>
      <g
         fill="#000000"
         fill-opacity="1"
         id="id-69d27b8e-92fc-4618-a558-aed68b9cedd4"
         transform="translate(-149.134,-130.359)">
        <g
           transform="translate(148.712,134.765)"
           id="g3963">
          <path
             d="m 1.328125,-0.828125 c 0.53125,-0.578125 0.828125,-0.828125 1.1875,-1.140625 0,0 0.609375,-0.53125 0.96875,-0.890625 C 4.4375,-3.78125 4.65625,-4.265625 4.65625,-4.3125 c 0,-0.09375 -0.09375,-0.09375 -0.109375,-0.09375 -0.078125,0 -0.09375,0.015625 -0.15625,0.109375 -0.296875,0.484375 -0.5,0.640625 -0.734375,0.640625 -0.25,0 -0.359375,-0.15625 -0.515625,-0.328125 -0.1875,-0.21875 -0.359375,-0.421875 -0.6875,-0.421875 -0.75,0 -1.203125,0.921875 -1.203125,1.140625 0,0.046875 0.03125,0.109375 0.109375,0.109375 0.09375,0 0.109375,-0.046875 0.140625,-0.109375 0.1875,-0.46875 0.765625,-0.46875 0.84375,-0.46875 0.203125,0 0.390625,0.0625 0.625,0.140625 0.40625,0.15625 0.515625,0.15625 0.765625,0.15625 -0.359375,0.421875 -1.1875,1.140625 -1.375,1.296875 l -0.90625,0.84375 C 0.78125,-0.625 0.421875,-0.0625 0.421875,0.015625 c 0,0.09375 0.109375,0.09375 0.125,0.09375 0.078125,0 0.09375,-0.015625 0.15625,-0.125 0.234375,-0.359375 0.53125,-0.625 0.859375,-0.625 0.21875,0 0.328125,0.09375 0.578125,0.375 0.15625,0.21875 0.34375,0.375 0.625,0.375 1,0 1.578125,-1.265625 1.578125,-1.53125 0,-0.046875 -0.046875,-0.109375 -0.125,-0.109375 -0.09375,0 -0.109375,0.0625 -0.140625,0.140625 C 3.84375,-0.75 3.203125,-0.5625 2.875,-0.5625 c -0.1875,0 -0.375,-0.0625 -0.578125,-0.125 -0.34375,-0.125 -0.5,-0.171875 -0.703125,-0.171875 -0.015625,0 -0.171875,0 -0.265625,0.03125 z m 0,0"
             id="id-2200383d-394f-424c-976a-1813f16dc73c" />
        </g>
      </g>
    </g>
    <g
       transform="matrix(0.352778,0,0,0.352778,128.56301,50.321132)"
       ns1:version="1.8.2"
       ns1:texconverter="pdflatex"
       ns1:pdfconverter="inkscape"
       ns1:text="$A\\vec{e}_z$"
       ns1:preamble="/Users/hendrik/Library/Application Support/org.inkscape.Inkscape/config/inkscape/extensions/textext/default_packages.tex"
       ns1:scale="1.0000000850393187"
       ns1:alignment="middle center"
       ns1:stroke-to-path="0"
       ns1:inkscapeversion="1.2.2"
       ns1:jacobian_sqrt="0.352778"
       id="g4105"
       style="fill:#0000ff">
      <defs
         id="id-ad9eca8f-c003-45f8-8d93-11341b12e608">
        <g
           id="id-4068c181-e859-4825-9cac-316f7f694cba">
          <g
             id="id-63031291-75d0-473a-9840-c1b08dc9bf0c" />
          <g
             id="id-4f497aff-1a42-46a4-ade7-9576fb35b2f4">
            <path
               d="M 1.78125,-1.140625 C 1.390625,-0.484375 1,-0.34375 0.5625,-0.3125 0.4375,-0.296875 0.34375,-0.296875 0.34375,-0.109375 0.34375,-0.046875 0.40625,0 0.484375,0 0.75,0 1.0625,-0.03125 1.328125,-0.03125 c 0.34375,0 0.6875,0.03125 1,0.03125 0.0625,0 0.1875,0 0.1875,-0.1875 0,-0.109375 -0.078125,-0.125 -0.15625,-0.125 -0.21875,-0.015625 -0.46875,-0.09375 -0.46875,-0.34375 0,-0.125 0.0625,-0.234375 0.140625,-0.375 l 0.765625,-1.265625 h 2.5 c 0.015625,0.203125 0.15625,1.5625 0.15625,1.65625 0,0.296875 -0.515625,0.328125 -0.71875,0.328125 C 4.59375,-0.3125 4.5,-0.3125 4.5,-0.109375 4.5,0 4.609375,0 4.640625,0 5.046875,0 5.46875,-0.03125 5.875,-0.03125 6.125,-0.03125 6.765625,0 7.015625,0 7.0625,0 7.1875,0 7.1875,-0.203125 7.1875,-0.3125 7.09375,-0.3125 6.953125,-0.3125 6.34375,-0.3125 6.34375,-0.375 6.3125,-0.671875 l -0.609375,-6.21875 c -0.015625,-0.203125 -0.015625,-0.25 -0.1875,-0.25 -0.15625,0 -0.203125,0.078125 -0.265625,0.171875 z M 2.984375,-2.609375 4.9375,-5.90625 5.265625,-2.609375 Z m 0,0"
               id="id-9d284ddd-f7c3-4548-8d5c-d295d363905e" />
          </g>
          <g
             id="id-21f0d1be-98b9-4094-99ae-2025936e0dc8">
            <path
               d="m 5.359375,-5.9375 c -0.140625,0.140625 -0.46875,0.421875 -0.46875,0.59375 0,0.09375 0.09375,0.203125 0.1875,0.203125 0.09375,0 0.140625,-0.078125 0.203125,-0.140625 C 5.390625,-5.421875 5.625,-5.703125 6.0625,-5.921875 6.125,-5.96875 6.234375,-6.015625 6.234375,-6.125 6.234375,-6.234375 6.15625,-6.28125 6.09375,-6.328125 5.875,-6.484375 5.765625,-6.65625 5.6875,-6.890625 5.65625,-6.984375 5.625,-7.125 5.484375,-7.125 c -0.140625,0 -0.203125,0.140625 -0.203125,0.21875 0,0.046875 0.078125,0.359375 0.234375,0.578125 H 2.15625 c -0.15625,0 -0.34375,0 -0.34375,0.203125 0,0.1875 0.1875,0.1875 0.34375,0.1875 z m 0,0"
               id="id-6c78e841-62a7-42bf-bf85-2d0d96997a0e" />
          </g>
          <g
             id="id-d54c1064-f577-47e3-bcd6-c558df497b64">
            <path
               d="m 1.859375,-2.296875 c 0.296875,0 1.03125,-0.03125 1.53125,-0.234375 0.703125,-0.296875 0.75,-0.890625 0.75,-1.03125 0,-0.4375 -0.375,-0.84375 -1.0625,-0.84375 -1.109375,0 -2.625,0.96875 -2.625,2.71875 0,1.015625 0.59375,1.796875 1.578125,1.796875 1.421875,0 2.25,-1.0625 2.25,-1.171875 0,-0.0625 -0.046875,-0.140625 -0.109375,-0.140625 -0.0625,0 -0.078125,0.03125 -0.140625,0.109375 -0.78125,0.984375 -1.875,0.984375 -1.984375,0.984375 -0.78125,0 -0.875,-0.84375 -0.875,-1.15625 0,-0.125 0.015625,-0.421875 0.15625,-1.03125 z m -0.46875,-0.21875 C 1.78125,-4.03125 2.8125,-4.1875 3.078125,-4.1875 c 0.453125,0 0.734375,0.296875 0.734375,0.625 0,1.046875 -1.59375,1.046875 -2.015625,1.046875 z m 0,0"
               id="id-30d465f4-43b0-405f-af1f-47ae687c62b8" />
          </g>
          <g
             id="id-045ba0b5-26ac-487e-ab52-a54d45970b77" />
          <g
             id="id-d88113b4-13a7-416c-8d94-9f559c0a9ade">
            <path
               d="m 1.171875,-0.609375 c 0.1875,-0.1875 0.3125,-0.3125 0.890625,-0.796875 0.15625,-0.109375 0.671875,-0.53125 0.875,-0.71875 0.421875,-0.421875 0.6875,-0.78125 0.6875,-0.859375 0,-0.09375 -0.078125,-0.09375 -0.109375,-0.09375 -0.0625,0 -0.09375,0.015625 -0.125,0.078125 -0.21875,0.3125 -0.359375,0.421875 -0.53125,0.421875 -0.078125,0 -0.1875,0 -0.390625,-0.203125 -0.234375,-0.25 -0.390625,-0.296875 -0.546875,-0.296875 -0.5625,0 -0.9375,0.609375 -0.9375,0.8125 0,0.078125 0.0625,0.09375 0.109375,0.09375 0.09375,0 0.109375,-0.015625 0.125,-0.09375 0.109375,-0.25 0.5,-0.265625 0.609375,-0.265625 0.171875,0 0.34375,0.046875 0.4375,0.0625 0.390625,0.078125 0.4375,0.078125 0.609375,0.078125 -0.171875,0.203125 -0.296875,0.328125 -0.96875,0.84375 -0.546875,0.4375 -0.734375,0.609375 -0.859375,0.75 -0.421875,0.40625 -0.625,0.71875 -0.625,0.78125 0,0.078125 0.09375,0.078125 0.125,0.078125 0.0625,0 0.078125,0 0.109375,-0.0625 0.1875,-0.265625 0.40625,-0.421875 0.640625,-0.421875 0.09375,0 0.1875,0 0.375,0.171875 0.21875,0.21875 0.359375,0.3125 0.59375,0.3125 C 3,0.0625 3.46875,-0.78125 3.46875,-1.015625 3.46875,-1.09375 3.390625,-1.09375 3.359375,-1.09375 3.265625,-1.09375 3.25,-1.0625 3.21875,-0.984375 3.09375,-0.640625 2.6875,-0.46875 2.34375,-0.46875 2.1875,-0.46875 2,-0.515625 1.828125,-0.546875 1.515625,-0.625 1.453125,-0.625 1.328125,-0.625 c -0.015625,0 -0.109375,0 -0.15625,0.015625 z m 0,0"
               id="id-40e46877-cb82-4cf2-9448-c2b2b69e45ec" />
          </g>
        </g>
      </defs>
      <g
         fill="#000000"
         fill-opacity="1"
         id="id-e6d56100-3e1e-40ad-9b8e-0d8d5101ce4c"
         transform="translate(-149.056,-127.624)"
         style="fill:#0000ff">
        <g
           transform="translate(148.712,134.765)"
           id="g4090"
           style="fill:#0000ff">
          <path
             d="M 1.78125,-1.140625 C 1.390625,-0.484375 1,-0.34375 0.5625,-0.3125 0.4375,-0.296875 0.34375,-0.296875 0.34375,-0.109375 0.34375,-0.046875 0.40625,0 0.484375,0 0.75,0 1.0625,-0.03125 1.328125,-0.03125 c 0.34375,0 0.6875,0.03125 1,0.03125 0.0625,0 0.1875,0 0.1875,-0.1875 0,-0.109375 -0.078125,-0.125 -0.15625,-0.125 -0.21875,-0.015625 -0.46875,-0.09375 -0.46875,-0.34375 0,-0.125 0.0625,-0.234375 0.140625,-0.375 l 0.765625,-1.265625 h 2.5 c 0.015625,0.203125 0.15625,1.5625 0.15625,1.65625 0,0.296875 -0.515625,0.328125 -0.71875,0.328125 C 4.59375,-0.3125 4.5,-0.3125 4.5,-0.109375 4.5,0 4.609375,0 4.640625,0 5.046875,0 5.46875,-0.03125 5.875,-0.03125 6.125,-0.03125 6.765625,0 7.015625,0 7.0625,0 7.1875,0 7.1875,-0.203125 7.1875,-0.3125 7.09375,-0.3125 6.953125,-0.3125 6.34375,-0.3125 6.34375,-0.375 6.3125,-0.671875 l -0.609375,-6.21875 c -0.015625,-0.203125 -0.015625,-0.25 -0.1875,-0.25 -0.15625,0 -0.203125,0.078125 -0.265625,0.171875 z M 2.984375,-2.609375 4.9375,-5.90625 5.265625,-2.609375 Z m 0,0"
             id="id-c62689e6-6369-49e2-b69f-13c9f920cb32"
             style="fill:#0000ff" />
        </g>
      </g>
      <g
         fill="#000000"
         fill-opacity="1"
         id="id-02b8db5d-002e-4465-ac56-43ef9ed687ae"
         transform="translate(-149.056,-127.624)"
         style="fill:#0000ff">
        <g
           transform="translate(155.795,134.765)"
           id="g4094"
           style="fill:#0000ff">
          <path
             d="m 5.359375,-5.9375 c -0.140625,0.140625 -0.46875,0.421875 -0.46875,0.59375 0,0.09375 0.09375,0.203125 0.1875,0.203125 0.09375,0 0.140625,-0.078125 0.203125,-0.140625 C 5.390625,-5.421875 5.625,-5.703125 6.0625,-5.921875 6.125,-5.96875 6.234375,-6.015625 6.234375,-6.125 6.234375,-6.234375 6.15625,-6.28125 6.09375,-6.328125 5.875,-6.484375 5.765625,-6.65625 5.6875,-6.890625 5.65625,-6.984375 5.625,-7.125 5.484375,-7.125 c -0.140625,0 -0.203125,0.140625 -0.203125,0.21875 0,0.046875 0.078125,0.359375 0.234375,0.578125 H 2.15625 c -0.15625,0 -0.34375,0 -0.34375,0.203125 0,0.1875 0.1875,0.1875 0.34375,0.1875 z m 0,0"
             id="id-afd533ae-ffa3-419e-8972-abe9202f518e"
             style="fill:#0000ff" />
        </g>
      </g>
      <g
         fill="#000000"
         fill-opacity="1"
         id="id-d94ec14a-e699-48c8-9bc4-6719dd89b36e"
         transform="translate(-149.056,-127.624)"
         style="fill:#0000ff">
        <g
           transform="translate(156.184,134.765)"
           id="g4098"
           style="fill:#0000ff">
          <path
             d="m 1.859375,-2.296875 c 0.296875,0 1.03125,-0.03125 1.53125,-0.234375 0.703125,-0.296875 0.75,-0.890625 0.75,-1.03125 0,-0.4375 -0.375,-0.84375 -1.0625,-0.84375 -1.109375,0 -2.625,0.96875 -2.625,2.71875 0,1.015625 0.59375,1.796875 1.578125,1.796875 1.421875,0 2.25,-1.0625 2.25,-1.171875 0,-0.0625 -0.046875,-0.140625 -0.109375,-0.140625 -0.0625,0 -0.078125,0.03125 -0.140625,0.109375 -0.78125,0.984375 -1.875,0.984375 -1.984375,0.984375 -0.78125,0 -0.875,-0.84375 -0.875,-1.15625 0,-0.125 0.015625,-0.421875 0.15625,-1.03125 z m -0.46875,-0.21875 C 1.78125,-4.03125 2.8125,-4.1875 3.078125,-4.1875 c 0.453125,0 0.734375,0.296875 0.734375,0.625 0,1.046875 -1.59375,1.046875 -2.015625,1.046875 z m 0,0"
             id="id-af8d2f53-a5ea-49d1-941a-369ae1880978"
             style="fill:#0000ff" />
        </g>
      </g>
      <g
         fill="#000000"
         fill-opacity="1"
         id="id-e1c0c86a-a6f7-4bf1-8e1a-9a74bae206c7"
         transform="translate(-149.056,-127.624)"
         style="fill:#0000ff">
        <g
           transform="translate(160.823,136.259)"
           id="g4102"
           style="fill:#0000ff">
          <path
             d="m 1.171875,-0.609375 c 0.1875,-0.1875 0.3125,-0.3125 0.890625,-0.796875 0.15625,-0.109375 0.671875,-0.53125 0.875,-0.71875 0.421875,-0.421875 0.6875,-0.78125 0.6875,-0.859375 0,-0.09375 -0.078125,-0.09375 -0.109375,-0.09375 -0.0625,0 -0.09375,0.015625 -0.125,0.078125 -0.21875,0.3125 -0.359375,0.421875 -0.53125,0.421875 -0.078125,0 -0.1875,0 -0.390625,-0.203125 -0.234375,-0.25 -0.390625,-0.296875 -0.546875,-0.296875 -0.5625,0 -0.9375,0.609375 -0.9375,0.8125 0,0.078125 0.0625,0.09375 0.109375,0.09375 0.09375,0 0.109375,-0.015625 0.125,-0.09375 0.109375,-0.25 0.5,-0.265625 0.609375,-0.265625 0.171875,0 0.34375,0.046875 0.4375,0.0625 0.390625,0.078125 0.4375,0.078125 0.609375,0.078125 -0.171875,0.203125 -0.296875,0.328125 -0.96875,0.84375 -0.546875,0.4375 -0.734375,0.609375 -0.859375,0.75 -0.421875,0.40625 -0.625,0.71875 -0.625,0.78125 0,0.078125 0.09375,0.078125 0.125,0.078125 0.0625,0 0.078125,0 0.109375,-0.0625 0.1875,-0.265625 0.40625,-0.421875 0.640625,-0.421875 0.09375,0 0.1875,0 0.375,0.171875 0.21875,0.21875 0.359375,0.3125 0.59375,0.3125 C 3,0.0625 3.46875,-0.78125 3.46875,-1.015625 3.46875,-1.09375 3.390625,-1.09375 3.359375,-1.09375 3.265625,-1.09375 3.25,-1.0625 3.21875,-0.984375 3.09375,-0.640625 2.6875,-0.46875 2.34375,-0.46875 2.1875,-0.46875 2,-0.515625 1.828125,-0.546875 1.515625,-0.625 1.453125,-0.625 1.328125,-0.625 c -0.015625,0 -0.109375,0 -0.15625,0.015625 z m 0,0"
             id="id-b4978518-f96f-4294-97b5-fa342df20aa9"
             style="fill:#0000ff" />
        </g>
      </g>
    </g>
    <g
       transform="matrix(0.352778,0,0,0.352778,82.584459,50.321132)"
       ns1:version="1.8.2"
       ns1:texconverter="pdflatex"
       ns1:pdfconverter="inkscape"
       ns1:text="$-A\\vec{e}_z$"
       ns1:preamble="/Users/hendrik/Library/Application Support/org.inkscape.Inkscape/config/inkscape/extensions/textext/default_packages.tex"
       ns1:scale="1.0000000850393187"
       ns1:alignment="middle center"
       ns1:stroke-to-path="0"
       ns1:inkscapeversion="1.2.2"
       ns1:jacobian_sqrt="0.352778"
       style="fill:#0000ff;stroke-width:0"
       id="g4182">
      <defs
         id="id-c8ae9e07-80dc-4509-b995-e50444d2177c"
         style="fill:#0000ff;stroke-width:0">
        <g
           id="id-0e359515-98e6-4d7b-ae16-d078ccfb2d02"
           style="fill:#0000ff;stroke-width:0">
          <g
             id="id-8afba387-7b86-4b99-bd6e-cba129be1503"
             style="fill:#0000ff;stroke-width:0" />
          <g
             id="id-68dc197d-29e7-4b34-ba12-a41dadcd2ea4"
             style="fill:#0000ff;stroke-width:0">
            <path
               d="m 6.5625,-2.296875 c 0.171875,0 0.359375,0 0.359375,-0.203125 0,-0.1875 -0.1875,-0.1875 -0.359375,-0.1875 H 1.171875 c -0.171875,0 -0.34375,0 -0.34375,0.1875 0,0.203125 0.171875,0.203125 0.34375,0.203125 z m 0,0"
               id="id-f9f560fb-bd8b-4fe1-aa0c-b9ed235e3856"
               style="fill:#0000ff;stroke-width:0" />
          </g>
          <g
             id="id-1a31b56a-9379-4b42-9f5f-d84342f9bf9d"
             style="fill:#0000ff;stroke-width:0" />
          <g
             id="id-0394e713-4235-4499-bdab-032b44fc9fac"
             style="fill:#0000ff;stroke-width:0">
            <path
               d="M 1.78125,-1.140625 C 1.390625,-0.484375 1,-0.34375 0.5625,-0.3125 0.4375,-0.296875 0.34375,-0.296875 0.34375,-0.109375 0.34375,-0.046875 0.40625,0 0.484375,0 0.75,0 1.0625,-0.03125 1.328125,-0.03125 c 0.34375,0 0.6875,0.03125 1,0.03125 0.0625,0 0.1875,0 0.1875,-0.1875 0,-0.109375 -0.078125,-0.125 -0.15625,-0.125 -0.21875,-0.015625 -0.46875,-0.09375 -0.46875,-0.34375 0,-0.125 0.0625,-0.234375 0.140625,-0.375 l 0.765625,-1.265625 h 2.5 c 0.015625,0.203125 0.15625,1.5625 0.15625,1.65625 0,0.296875 -0.515625,0.328125 -0.71875,0.328125 C 4.59375,-0.3125 4.5,-0.3125 4.5,-0.109375 4.5,0 4.609375,0 4.640625,0 5.046875,0 5.46875,-0.03125 5.875,-0.03125 6.125,-0.03125 6.765625,0 7.015625,0 7.0625,0 7.1875,0 7.1875,-0.203125 7.1875,-0.3125 7.09375,-0.3125 6.953125,-0.3125 6.34375,-0.3125 6.34375,-0.375 6.3125,-0.671875 l -0.609375,-6.21875 c -0.015625,-0.203125 -0.015625,-0.25 -0.1875,-0.25 -0.15625,0 -0.203125,0.078125 -0.265625,0.171875 z M 2.984375,-2.609375 4.9375,-5.90625 5.265625,-2.609375 Z m 0,0"
               id="id-8533a93b-c44c-4b3a-a0c9-6ce9bd4e782a"
               style="fill:#0000ff;stroke-width:0" />
          </g>
          <g
             id="id-c044e1e5-b985-49c4-ab73-55469c12d2f9"
             style="fill:#0000ff;stroke-width:0">
            <path
               d="m 5.359375,-5.9375 c -0.140625,0.140625 -0.46875,0.421875 -0.46875,0.59375 0,0.09375 0.09375,0.203125 0.1875,0.203125 0.09375,0 0.140625,-0.078125 0.203125,-0.140625 C 5.390625,-5.421875 5.625,-5.703125 6.0625,-5.921875 6.125,-5.96875 6.234375,-6.015625 6.234375,-6.125 6.234375,-6.234375 6.15625,-6.28125 6.09375,-6.328125 5.875,-6.484375 5.765625,-6.65625 5.6875,-6.890625 5.65625,-6.984375 5.625,-7.125 5.484375,-7.125 c -0.140625,0 -0.203125,0.140625 -0.203125,0.21875 0,0.046875 0.078125,0.359375 0.234375,0.578125 H 2.15625 c -0.15625,0 -0.34375,0 -0.34375,0.203125 0,0.1875 0.1875,0.1875 0.34375,0.1875 z m 0,0"
               id="id-670fb893-f157-4d7e-9818-8b44479d7ff2"
               style="fill:#0000ff;stroke-width:0" />
          </g>
          <g
             id="id-a4f5e974-e8c1-4668-9435-616bc31fbf64"
             style="fill:#0000ff;stroke-width:0">
            <path
               d="m 1.859375,-2.296875 c 0.296875,0 1.03125,-0.03125 1.53125,-0.234375 0.703125,-0.296875 0.75,-0.890625 0.75,-1.03125 0,-0.4375 -0.375,-0.84375 -1.0625,-0.84375 -1.109375,0 -2.625,0.96875 -2.625,2.71875 0,1.015625 0.59375,1.796875 1.578125,1.796875 1.421875,0 2.25,-1.0625 2.25,-1.171875 0,-0.0625 -0.046875,-0.140625 -0.109375,-0.140625 -0.0625,0 -0.078125,0.03125 -0.140625,0.109375 -0.78125,0.984375 -1.875,0.984375 -1.984375,0.984375 -0.78125,0 -0.875,-0.84375 -0.875,-1.15625 0,-0.125 0.015625,-0.421875 0.15625,-1.03125 z m -0.46875,-0.21875 C 1.78125,-4.03125 2.8125,-4.1875 3.078125,-4.1875 c 0.453125,0 0.734375,0.296875 0.734375,0.625 0,1.046875 -1.59375,1.046875 -2.015625,1.046875 z m 0,0"
               id="id-6fe2cce0-1f7f-47c7-b776-52fdbcd9132a"
               style="fill:#0000ff;stroke-width:0" />
          </g>
          <g
             id="id-9af826a0-9904-4649-8ae2-0bd704158e64"
             style="fill:#0000ff;stroke-width:0" />
          <g
             id="id-a9032c99-496c-4e81-95fe-86a1cd078ced"
             style="fill:#0000ff;stroke-width:0">
            <path
               d="m 1.171875,-0.609375 c 0.1875,-0.1875 0.3125,-0.3125 0.890625,-0.796875 0.15625,-0.109375 0.671875,-0.53125 0.875,-0.71875 0.421875,-0.421875 0.6875,-0.78125 0.6875,-0.859375 0,-0.09375 -0.078125,-0.09375 -0.109375,-0.09375 -0.0625,0 -0.09375,0.015625 -0.125,0.078125 -0.21875,0.3125 -0.359375,0.421875 -0.53125,0.421875 -0.078125,0 -0.1875,0 -0.390625,-0.203125 -0.234375,-0.25 -0.390625,-0.296875 -0.546875,-0.296875 -0.5625,0 -0.9375,0.609375 -0.9375,0.8125 0,0.078125 0.0625,0.09375 0.109375,0.09375 0.09375,0 0.109375,-0.015625 0.125,-0.09375 0.109375,-0.25 0.5,-0.265625 0.609375,-0.265625 0.171875,0 0.34375,0.046875 0.4375,0.0625 0.390625,0.078125 0.4375,0.078125 0.609375,0.078125 -0.171875,0.203125 -0.296875,0.328125 -0.96875,0.84375 -0.546875,0.4375 -0.734375,0.609375 -0.859375,0.75 -0.421875,0.40625 -0.625,0.71875 -0.625,0.78125 0,0.078125 0.09375,0.078125 0.125,0.078125 0.0625,0 0.078125,0 0.109375,-0.0625 0.1875,-0.265625 0.40625,-0.421875 0.640625,-0.421875 0.09375,0 0.1875,0 0.375,0.171875 0.21875,0.21875 0.359375,0.3125 0.59375,0.3125 C 3,0.0625 3.46875,-0.78125 3.46875,-1.015625 3.46875,-1.09375 3.390625,-1.09375 3.359375,-1.09375 3.265625,-1.09375 3.25,-1.0625 3.21875,-0.984375 3.09375,-0.640625 2.6875,-0.46875 2.34375,-0.46875 2.1875,-0.46875 2,-0.515625 1.828125,-0.546875 1.515625,-0.625 1.453125,-0.625 1.328125,-0.625 c -0.015625,0 -0.109375,0 -0.15625,0.015625 z m 0,0"
               id="id-d824d380-021f-4836-ac9f-823ea5ba59e8"
               style="fill:#0000ff;stroke-width:0" />
          </g>
        </g>
      </defs>
      <g
         fill-opacity="1"
         id="id-2ee4db22-b88f-4cce-878d-6856309c9daf"
         transform="translate(-149.54,-127.624)"
         style="fill:#0000ff;stroke-width:0">
        <g
           transform="translate(148.712,134.765)"
           style="fill:#0000ff;stroke-width:0"
           id="g4373">
          <path
             d="m 6.5625,-2.296875 c 0.171875,0 0.359375,0 0.359375,-0.203125 0,-0.1875 -0.1875,-0.1875 -0.359375,-0.1875 H 1.171875 c -0.171875,0 -0.34375,0 -0.34375,0.1875 0,0.203125 0.171875,0.203125 0.34375,0.203125 z m 0,0"
             id="id-0e8290b3-1878-4b16-8996-8c5e2767bcd7"
             style="fill:#0000ff;stroke-width:0" />
        </g>
      </g>
      <g
         fill-opacity="1"
         id="id-2466cab7-1abc-4d3e-a163-b02c45dc0f1b"
         transform="translate(-149.54,-127.624)"
         style="fill:#0000ff;stroke-width:0">
        <g
           transform="translate(156.461,134.765)"
           style="fill:#0000ff;stroke-width:0"
           id="g4377">
          <path
             d="M 1.78125,-1.140625 C 1.390625,-0.484375 1,-0.34375 0.5625,-0.3125 0.4375,-0.296875 0.34375,-0.296875 0.34375,-0.109375 0.34375,-0.046875 0.40625,0 0.484375,0 0.75,0 1.0625,-0.03125 1.328125,-0.03125 c 0.34375,0 0.6875,0.03125 1,0.03125 0.0625,0 0.1875,0 0.1875,-0.1875 0,-0.109375 -0.078125,-0.125 -0.15625,-0.125 -0.21875,-0.015625 -0.46875,-0.09375 -0.46875,-0.34375 0,-0.125 0.0625,-0.234375 0.140625,-0.375 l 0.765625,-1.265625 h 2.5 c 0.015625,0.203125 0.15625,1.5625 0.15625,1.65625 0,0.296875 -0.515625,0.328125 -0.71875,0.328125 C 4.59375,-0.3125 4.5,-0.3125 4.5,-0.109375 4.5,0 4.609375,0 4.640625,0 5.046875,0 5.46875,-0.03125 5.875,-0.03125 6.125,-0.03125 6.765625,0 7.015625,0 7.0625,0 7.1875,0 7.1875,-0.203125 7.1875,-0.3125 7.09375,-0.3125 6.953125,-0.3125 6.34375,-0.3125 6.34375,-0.375 6.3125,-0.671875 l -0.609375,-6.21875 c -0.015625,-0.203125 -0.015625,-0.25 -0.1875,-0.25 -0.15625,0 -0.203125,0.078125 -0.265625,0.171875 z M 2.984375,-2.609375 4.9375,-5.90625 5.265625,-2.609375 Z m 0,0"
             id="id-944354e3-1c7a-464d-b802-b6731eae6da2"
             style="fill:#0000ff;stroke-width:0" />
        </g>
      </g>
      <g
         fill-opacity="1"
         id="id-ab96a9c2-b0b4-4e14-8d28-eb391100b658"
         transform="translate(-149.54,-127.624)"
         style="fill:#0000ff;stroke-width:0">
        <g
           transform="translate(163.544,134.765)"
           style="fill:#0000ff;stroke-width:0"
           id="g4381">
          <path
             d="m 5.359375,-5.9375 c -0.140625,0.140625 -0.46875,0.421875 -0.46875,0.59375 0,0.09375 0.09375,0.203125 0.1875,0.203125 0.09375,0 0.140625,-0.078125 0.203125,-0.140625 C 5.390625,-5.421875 5.625,-5.703125 6.0625,-5.921875 6.125,-5.96875 6.234375,-6.015625 6.234375,-6.125 6.234375,-6.234375 6.15625,-6.28125 6.09375,-6.328125 5.875,-6.484375 5.765625,-6.65625 5.6875,-6.890625 5.65625,-6.984375 5.625,-7.125 5.484375,-7.125 c -0.140625,0 -0.203125,0.140625 -0.203125,0.21875 0,0.046875 0.078125,0.359375 0.234375,0.578125 H 2.15625 c -0.15625,0 -0.34375,0 -0.34375,0.203125 0,0.1875 0.1875,0.1875 0.34375,0.1875 z m 0,0"
             id="id-4faef380-88e5-4d8a-8b45-56e5fede91a3"
             style="fill:#0000ff;stroke-width:0" />
        </g>
      </g>
      <g
         fill-opacity="1"
         id="id-8e05f93f-1bb5-46db-a148-3da1011f675d"
         transform="translate(-149.54,-127.624)"
         style="fill:#0000ff;stroke-width:0">
        <g
           transform="translate(163.933,134.765)"
           style="fill:#0000ff;stroke-width:0"
           id="g4385">
          <path
             d="m 1.859375,-2.296875 c 0.296875,0 1.03125,-0.03125 1.53125,-0.234375 0.703125,-0.296875 0.75,-0.890625 0.75,-1.03125 0,-0.4375 -0.375,-0.84375 -1.0625,-0.84375 -1.109375,0 -2.625,0.96875 -2.625,2.71875 0,1.015625 0.59375,1.796875 1.578125,1.796875 1.421875,0 2.25,-1.0625 2.25,-1.171875 0,-0.0625 -0.046875,-0.140625 -0.109375,-0.140625 -0.0625,0 -0.078125,0.03125 -0.140625,0.109375 -0.78125,0.984375 -1.875,0.984375 -1.984375,0.984375 -0.78125,0 -0.875,-0.84375 -0.875,-1.15625 0,-0.125 0.015625,-0.421875 0.15625,-1.03125 z m -0.46875,-0.21875 C 1.78125,-4.03125 2.8125,-4.1875 3.078125,-4.1875 c 0.453125,0 0.734375,0.296875 0.734375,0.625 0,1.046875 -1.59375,1.046875 -2.015625,1.046875 z m 0,0"
             id="id-19fb2fc3-9d4c-4905-bb12-0a23c08ae600"
             style="fill:#0000ff;stroke-width:0" />
        </g>
      </g>
      <g
         fill-opacity="1"
         id="id-55a481e7-98a9-4d47-94ac-edb2c0fc64ff"
         transform="translate(-149.54,-127.624)"
         style="fill:#0000ff;stroke-width:0">
        <g
           transform="translate(168.572,136.259)"
           style="fill:#0000ff;stroke-width:0"
           id="g4389">
          <path
             d="m 1.171875,-0.609375 c 0.1875,-0.1875 0.3125,-0.3125 0.890625,-0.796875 0.15625,-0.109375 0.671875,-0.53125 0.875,-0.71875 0.421875,-0.421875 0.6875,-0.78125 0.6875,-0.859375 0,-0.09375 -0.078125,-0.09375 -0.109375,-0.09375 -0.0625,0 -0.09375,0.015625 -0.125,0.078125 -0.21875,0.3125 -0.359375,0.421875 -0.53125,0.421875 -0.078125,0 -0.1875,0 -0.390625,-0.203125 -0.234375,-0.25 -0.390625,-0.296875 -0.546875,-0.296875 -0.5625,0 -0.9375,0.609375 -0.9375,0.8125 0,0.078125 0.0625,0.09375 0.109375,0.09375 0.09375,0 0.109375,-0.015625 0.125,-0.09375 0.109375,-0.25 0.5,-0.265625 0.609375,-0.265625 0.171875,0 0.34375,0.046875 0.4375,0.0625 0.390625,0.078125 0.4375,0.078125 0.609375,0.078125 -0.171875,0.203125 -0.296875,0.328125 -0.96875,0.84375 -0.546875,0.4375 -0.734375,0.609375 -0.859375,0.75 -0.421875,0.40625 -0.625,0.71875 -0.625,0.78125 0,0.078125 0.09375,0.078125 0.125,0.078125 0.0625,0 0.078125,0 0.109375,-0.0625 0.1875,-0.265625 0.40625,-0.421875 0.640625,-0.421875 0.09375,0 0.1875,0 0.375,0.171875 0.21875,0.21875 0.359375,0.3125 0.59375,0.3125 C 3,0.0625 3.46875,-0.78125 3.46875,-1.015625 3.46875,-1.09375 3.390625,-1.09375 3.359375,-1.09375 3.265625,-1.09375 3.25,-1.0625 3.21875,-0.984375 3.09375,-0.640625 2.6875,-0.46875 2.34375,-0.46875 2.1875,-0.46875 2,-0.515625 1.828125,-0.546875 1.515625,-0.625 1.453125,-0.625 1.328125,-0.625 c -0.015625,0 -0.109375,0 -0.15625,0.015625 z m 0,0"
             id="id-38c29e13-49b3-4fae-b06f-d14f2d7d9422"
             style="fill:#0000ff;stroke-width:0" />
        </g>
      </g>
    </g>
    <g
       id="g4895"
       style="stroke:#ff0000"
       transform="translate(-5.6126483e-4,-0.10000359)">
      <path
         style="fill:#0000ff;fill-opacity:0.464407;stroke:#ff0000;stroke-width:0.755906;stroke-dasharray:none;stroke-dashoffset:0"
         d="m 463.47856,208.40558 h 63.88948"
         id="path4885"
         transform="matrix(0.26458333,0,0,0.26458333,-12.464232,0.10000324)"
         sodipodi:nodetypes="cc" />
      <path
         style="fill:none;fill-opacity:0.464407;stroke:#ff0000;stroke-width:0.755906;stroke-dasharray:none;stroke-dashoffset:0"
         d="m 497.25452,198.14079 h 3.77049 v 3.77049"
         id="path4887"
         transform="matrix(0.18708867,0.18708867,-0.18708867,0.18708867,70.402353,-75.565354)"
         inkscape:transform-center-x="0.35270706"
         inkscape:transform-center-y="2.2844894e-06" />
    </g>
    <g
       id="g4901"
       style="stroke:#ff0000"
       transform="translate(-5.6126483e-4,-2.745837)">
      <path
         style="fill:#0000ff;fill-opacity:0.464407;stroke:#ff0000;stroke-width:0.755906;stroke-dasharray:none;stroke-dashoffset:0"
         d="m 463.47856,208.40558 h 63.88948"
         id="path4897"
         transform="matrix(0.26458333,0,0,0.26458333,-12.464232,0.10000324)"
         sodipodi:nodetypes="cc" />
      <path
         style="fill:none;fill-opacity:0.464407;stroke:#ff0000;stroke-width:0.755906;stroke-dasharray:none;stroke-dashoffset:0"
         d="m 497.25452,198.14079 h 3.77049 v 3.77049"
         id="path4899"
         transform="matrix(0.18708867,0.18708867,-0.18708867,0.18708867,70.402353,-75.565354)"
         inkscape:transform-center-x="0.35270706"
         inkscape:transform-center-y="2.2844894e-06" />
    </g>
    <g
       id="g4907"
       style="stroke:#ff0000"
       transform="translate(-5.6126483e-4,2.5458298)">
      <path
         style="fill:#0000ff;fill-opacity:0.464407;stroke:#ff0000;stroke-width:0.755906;stroke-dasharray:none;stroke-dashoffset:0"
         d="m 463.47856,208.40558 h 63.88948"
         id="path4903"
         transform="matrix(0.26458333,0,0,0.26458333,-12.464232,0.10000324)"
         sodipodi:nodetypes="cc" />
      <path
         style="fill:none;fill-opacity:0.464407;stroke:#ff0000;stroke-width:0.755906;stroke-dasharray:none;stroke-dashoffset:0"
         d="m 497.25452,198.14079 h 3.77049 v 3.77049"
         id="path4905"
         transform="matrix(0.18708867,0.18708867,-0.18708867,0.18708867,70.402353,-75.565354)"
         inkscape:transform-center-x="0.35270706"
         inkscape:transform-center-y="2.2844894e-06" />
    </g>
    <g
       transform="matrix(0.352778,0,0,0.352778,125.56369,59.482568)"
       ns1:version="1.8.2"
       ns1:texconverter="pdflatex"
       ns1:pdfconverter="inkscape"
       ns1:text="$\\vec{E}$"
       ns1:preamble="/Users/hendrik/Library/Application Support/org.inkscape.Inkscape/config/inkscape/extensions/textext/default_packages.tex"
       ns1:scale="1.0000000850393187"
       ns1:alignment="middle center"
       ns1:stroke-to-path="0"
       ns1:inkscapeversion="1.2.2"
       ns1:jacobian_sqrt="0.352778"
       id="g5148"
       style="fill:#ff0000">
      <defs
         id="id-47a6df73-b557-402b-b03d-043e82f8b7ea">
        <g
           id="id-5aa83291-c472-4c3c-b375-157ca9d1d1f7">
          <g
             id="id-942f1375-fb8d-4618-9bfa-a19297289775" />
          <g
             id="id-d2e1683d-036f-4aa0-a562-88dc9732ad1f">
            <path
               d="m 5.359375,-5.9375 c -0.140625,0.140625 -0.46875,0.421875 -0.46875,0.59375 0,0.09375 0.09375,0.203125 0.1875,0.203125 0.09375,0 0.140625,-0.078125 0.203125,-0.140625 C 5.390625,-5.421875 5.625,-5.703125 6.0625,-5.921875 6.125,-5.96875 6.234375,-6.015625 6.234375,-6.125 6.234375,-6.234375 6.15625,-6.28125 6.09375,-6.328125 5.875,-6.484375 5.765625,-6.65625 5.6875,-6.890625 5.65625,-6.984375 5.625,-7.125 5.484375,-7.125 c -0.140625,0 -0.203125,0.140625 -0.203125,0.21875 0,0.046875 0.078125,0.359375 0.234375,0.578125 H 2.15625 c -0.15625,0 -0.34375,0 -0.34375,0.203125 0,0.1875 0.1875,0.1875 0.34375,0.1875 z m 0,0"
               id="id-bb5c5de3-63fb-4fd9-ba9e-9fda95cd4943" />
          </g>
          <g
             id="id-3489e9d9-a56f-41ba-b13a-efaef44e85a5">
            <path
               d="M 7.0625,-2.328125 C 7.078125,-2.375 7.109375,-2.4375 7.109375,-2.46875 c 0,0 0,-0.109375 -0.125,-0.109375 -0.09375,0 -0.109375,0.0625 -0.125,0.125 C 6.203125,-0.984375 5.84375,-0.3125 4.140625,-0.3125 H 2.6875 c -0.140625,0 -0.171875,0 -0.21875,0 -0.109375,-0.015625 -0.140625,-0.03125 -0.140625,-0.109375 0,-0.03125 0,-0.046875 0.046875,-0.21875 L 3.0625,-3.375 h 0.984375 c 0.84375,0 0.84375,0.21875 0.84375,0.46875 0,0.0625 0,0.1875 -0.0625,0.484375 C 4.8125,-2.375 4.796875,-2.34375 4.796875,-2.3125 c 0,0.046875 0.03125,0.109375 0.125,0.109375 C 5,-2.203125 5.03125,-2.25 5.078125,-2.40625 l 0.5625,-2.328125 c 0,-0.0625 -0.046875,-0.109375 -0.125,-0.109375 -0.078125,0 -0.109375,0.0625 -0.125,0.171875 -0.21875,0.765625 -0.390625,1 -1.3125,1 h -0.9375 l 0.59375,-2.40625 C 3.828125,-6.4375 3.84375,-6.46875 4.28125,-6.46875 H 5.6875 c 1.203125,0 1.515625,0.28125 1.515625,1.109375 0,0.234375 0,0.25 -0.046875,0.53125 0,0.046875 -0.015625,0.125 -0.015625,0.171875 0,0.046875 0.03125,0.125 0.125,0.125 0.109375,0 0.125,-0.0625 0.140625,-0.25 L 7.609375,-6.515625 C 7.640625,-6.78125 7.59375,-6.78125 7.34375,-6.78125 H 2.296875 c -0.1875,0 -0.296875,0 -0.296875,0.203125 0,0.109375 0.09375,0.109375 0.28125,0.109375 0.375,0 0.65625,0 0.65625,0.171875 0,0.046875 0,0.0625 -0.0625,0.25 L 1.5625,-0.78125 c -0.09375,0.390625 -0.109375,0.46875 -0.90625,0.46875 -0.171875,0 -0.28125,0 -0.28125,0.1875 C 0.375,0 0.46875,0 0.65625,0 h 5.171875 c 0.234375,0 0.25,-0.015625 0.3125,-0.171875 z m 0,0"
               id="id-d5159355-82a0-4d58-969f-5401551797cd" />
          </g>
        </g>
      </defs>
      <g
         fill="#000000"
         fill-opacity="1"
         id="id-7e60a3be-43c0-4dc0-be1c-2918f847fa00"
         transform="translate(-149.087,-125.121)"
         style="fill:#ff0000">
        <g
           transform="translate(150.25,132.246)"
           id="g5141"
           style="fill:#ff0000">
          <path
             d="m 5.359375,-5.9375 c -0.140625,0.140625 -0.46875,0.421875 -0.46875,0.59375 0,0.09375 0.09375,0.203125 0.1875,0.203125 0.09375,0 0.140625,-0.078125 0.203125,-0.140625 C 5.390625,-5.421875 5.625,-5.703125 6.0625,-5.921875 6.125,-5.96875 6.234375,-6.015625 6.234375,-6.125 6.234375,-6.234375 6.15625,-6.28125 6.09375,-6.328125 5.875,-6.484375 5.765625,-6.65625 5.6875,-6.890625 5.65625,-6.984375 5.625,-7.125 5.484375,-7.125 c -0.140625,0 -0.203125,0.140625 -0.203125,0.21875 0,0.046875 0.078125,0.359375 0.234375,0.578125 H 2.15625 c -0.15625,0 -0.34375,0 -0.34375,0.203125 0,0.1875 0.1875,0.1875 0.34375,0.1875 z m 0,0"
             id="id-de81dc9d-d693-40ac-b1df-a5091b89659e"
             style="fill:#ff0000" />
        </g>
      </g>
      <g
         fill="#000000"
         fill-opacity="1"
         id="id-7af1ec9e-2400-4c95-a875-a957078e126f"
         transform="translate(-149.087,-125.121)"
         style="fill:#ff0000">
        <g
           transform="translate(148.712,134.765)"
           id="g5145"
           style="fill:#ff0000">
          <path
             d="M 7.0625,-2.328125 C 7.078125,-2.375 7.109375,-2.4375 7.109375,-2.46875 c 0,0 0,-0.109375 -0.125,-0.109375 -0.09375,0 -0.109375,0.0625 -0.125,0.125 C 6.203125,-0.984375 5.84375,-0.3125 4.140625,-0.3125 H 2.6875 c -0.140625,0 -0.171875,0 -0.21875,0 -0.109375,-0.015625 -0.140625,-0.03125 -0.140625,-0.109375 0,-0.03125 0,-0.046875 0.046875,-0.21875 L 3.0625,-3.375 h 0.984375 c 0.84375,0 0.84375,0.21875 0.84375,0.46875 0,0.0625 0,0.1875 -0.0625,0.484375 C 4.8125,-2.375 4.796875,-2.34375 4.796875,-2.3125 c 0,0.046875 0.03125,0.109375 0.125,0.109375 C 5,-2.203125 5.03125,-2.25 5.078125,-2.40625 l 0.5625,-2.328125 c 0,-0.0625 -0.046875,-0.109375 -0.125,-0.109375 -0.078125,0 -0.109375,0.0625 -0.125,0.171875 -0.21875,0.765625 -0.390625,1 -1.3125,1 h -0.9375 l 0.59375,-2.40625 C 3.828125,-6.4375 3.84375,-6.46875 4.28125,-6.46875 H 5.6875 c 1.203125,0 1.515625,0.28125 1.515625,1.109375 0,0.234375 0,0.25 -0.046875,0.53125 0,0.046875 -0.015625,0.125 -0.015625,0.171875 0,0.046875 0.03125,0.125 0.125,0.125 0.109375,0 0.125,-0.0625 0.140625,-0.25 L 7.609375,-6.515625 C 7.640625,-6.78125 7.59375,-6.78125 7.34375,-6.78125 H 2.296875 c -0.1875,0 -0.296875,0 -0.296875,0.203125 0,0.109375 0.09375,0.109375 0.28125,0.109375 0.375,0 0.65625,0 0.65625,0.171875 0,0.046875 0,0.0625 -0.0625,0.25 L 1.5625,-0.78125 c -0.09375,0.390625 -0.109375,0.46875 -0.90625,0.46875 -0.171875,0 -0.28125,0 -0.28125,0.1875 C 0.375,0 0.46875,0 0.65625,0 h 5.171875 c 0.234375,0 0.25,-0.015625 0.3125,-0.171875 z m 0,0"
             id="id-1cd2e58e-de94-4c09-b20d-2c991c7026b0"
             style="fill:#ff0000" />
        </g>
      </g>
    </g>
    <g
       transform="matrix(0.352778,0,0,0.352778,92.852027,59.482568)"
       ns1:version="1.8.2"
       ns1:texconverter="pdflatex"
       ns1:pdfconverter="inkscape"
       ns1:text="$\\vec{E}$"
       ns1:preamble="/Users/hendrik/Library/Application Support/org.inkscape.Inkscape/config/inkscape/extensions/textext/default_packages.tex"
       ns1:scale="1.0000000850393187"
       ns1:alignment="middle center"
       ns1:stroke-to-path="0"
       ns1:inkscapeversion="1.2.2"
       ns1:jacobian_sqrt="0.352778"
       id="g5487"
       style="fill:#ff0000">
      <defs
         id="defs5473">
        <g
           id="g5471">
          <g
             id="g5461" />
          <g
             id="g5465">
            <path
               d="m 5.359375,-5.9375 c -0.140625,0.140625 -0.46875,0.421875 -0.46875,0.59375 0,0.09375 0.09375,0.203125 0.1875,0.203125 0.09375,0 0.140625,-0.078125 0.203125,-0.140625 C 5.390625,-5.421875 5.625,-5.703125 6.0625,-5.921875 6.125,-5.96875 6.234375,-6.015625 6.234375,-6.125 6.234375,-6.234375 6.15625,-6.28125 6.09375,-6.328125 5.875,-6.484375 5.765625,-6.65625 5.6875,-6.890625 5.65625,-6.984375 5.625,-7.125 5.484375,-7.125 c -0.140625,0 -0.203125,0.140625 -0.203125,0.21875 0,0.046875 0.078125,0.359375 0.234375,0.578125 H 2.15625 c -0.15625,0 -0.34375,0 -0.34375,0.203125 0,0.1875 0.1875,0.1875 0.34375,0.1875 z m 0,0"
               id="path5463" />
          </g>
          <g
             id="g5469">
            <path
               d="M 7.0625,-2.328125 C 7.078125,-2.375 7.109375,-2.4375 7.109375,-2.46875 c 0,0 0,-0.109375 -0.125,-0.109375 -0.09375,0 -0.109375,0.0625 -0.125,0.125 C 6.203125,-0.984375 5.84375,-0.3125 4.140625,-0.3125 H 2.6875 c -0.140625,0 -0.171875,0 -0.21875,0 -0.109375,-0.015625 -0.140625,-0.03125 -0.140625,-0.109375 0,-0.03125 0,-0.046875 0.046875,-0.21875 L 3.0625,-3.375 h 0.984375 c 0.84375,0 0.84375,0.21875 0.84375,0.46875 0,0.0625 0,0.1875 -0.0625,0.484375 C 4.8125,-2.375 4.796875,-2.34375 4.796875,-2.3125 c 0,0.046875 0.03125,0.109375 0.125,0.109375 C 5,-2.203125 5.03125,-2.25 5.078125,-2.40625 l 0.5625,-2.328125 c 0,-0.0625 -0.046875,-0.109375 -0.125,-0.109375 -0.078125,0 -0.109375,0.0625 -0.125,0.171875 -0.21875,0.765625 -0.390625,1 -1.3125,1 h -0.9375 l 0.59375,-2.40625 C 3.828125,-6.4375 3.84375,-6.46875 4.28125,-6.46875 H 5.6875 c 1.203125,0 1.515625,0.28125 1.515625,1.109375 0,0.234375 0,0.25 -0.046875,0.53125 0,0.046875 -0.015625,0.125 -0.015625,0.171875 0,0.046875 0.03125,0.125 0.125,0.125 0.109375,0 0.125,-0.0625 0.140625,-0.25 L 7.609375,-6.515625 C 7.640625,-6.78125 7.59375,-6.78125 7.34375,-6.78125 H 2.296875 c -0.1875,0 -0.296875,0 -0.296875,0.203125 0,0.109375 0.09375,0.109375 0.28125,0.109375 0.375,0 0.65625,0 0.65625,0.171875 0,0.046875 0,0.0625 -0.0625,0.25 L 1.5625,-0.78125 c -0.09375,0.390625 -0.109375,0.46875 -0.90625,0.46875 -0.171875,0 -0.28125,0 -0.28125,0.1875 C 0.375,0 0.46875,0 0.65625,0 h 5.171875 c 0.234375,0 0.25,-0.015625 0.3125,-0.171875 z m 0,0"
               id="path5467" />
          </g>
        </g>
      </defs>
      <g
         fill="#000000"
         fill-opacity="1"
         id="g5479"
         transform="translate(-149.087,-125.121)"
         style="fill:#ff0000">
        <g
           transform="translate(150.25,132.246)"
           id="g5477"
           style="fill:#ff0000">
          <path
             d="m 5.359375,-5.9375 c -0.140625,0.140625 -0.46875,0.421875 -0.46875,0.59375 0,0.09375 0.09375,0.203125 0.1875,0.203125 0.09375,0 0.140625,-0.078125 0.203125,-0.140625 C 5.390625,-5.421875 5.625,-5.703125 6.0625,-5.921875 6.125,-5.96875 6.234375,-6.015625 6.234375,-6.125 6.234375,-6.234375 6.15625,-6.28125 6.09375,-6.328125 5.875,-6.484375 5.765625,-6.65625 5.6875,-6.890625 5.65625,-6.984375 5.625,-7.125 5.484375,-7.125 c -0.140625,0 -0.203125,0.140625 -0.203125,0.21875 0,0.046875 0.078125,0.359375 0.234375,0.578125 H 2.15625 c -0.15625,0 -0.34375,0 -0.34375,0.203125 0,0.1875 0.1875,0.1875 0.34375,0.1875 z m 0,0"
             id="path5475"
             style="fill:#ff0000" />
        </g>
      </g>
      <g
         fill="#000000"
         fill-opacity="1"
         id="g5485"
         transform="translate(-149.087,-125.121)"
         style="fill:#ff0000">
        <g
           transform="translate(148.712,134.765)"
           id="g5483"
           style="fill:#ff0000">
          <path
             d="M 7.0625,-2.328125 C 7.078125,-2.375 7.109375,-2.4375 7.109375,-2.46875 c 0,0 0,-0.109375 -0.125,-0.109375 -0.09375,0 -0.109375,0.0625 -0.125,0.125 C 6.203125,-0.984375 5.84375,-0.3125 4.140625,-0.3125 H 2.6875 c -0.140625,0 -0.171875,0 -0.21875,0 -0.109375,-0.015625 -0.140625,-0.03125 -0.140625,-0.109375 0,-0.03125 0,-0.046875 0.046875,-0.21875 L 3.0625,-3.375 h 0.984375 c 0.84375,0 0.84375,0.21875 0.84375,0.46875 0,0.0625 0,0.1875 -0.0625,0.484375 C 4.8125,-2.375 4.796875,-2.34375 4.796875,-2.3125 c 0,0.046875 0.03125,0.109375 0.125,0.109375 C 5,-2.203125 5.03125,-2.25 5.078125,-2.40625 l 0.5625,-2.328125 c 0,-0.0625 -0.046875,-0.109375 -0.125,-0.109375 -0.078125,0 -0.109375,0.0625 -0.125,0.171875 -0.21875,0.765625 -0.390625,1 -1.3125,1 h -0.9375 l 0.59375,-2.40625 C 3.828125,-6.4375 3.84375,-6.46875 4.28125,-6.46875 H 5.6875 c 1.203125,0 1.515625,0.28125 1.515625,1.109375 0,0.234375 0,0.25 -0.046875,0.53125 0,0.046875 -0.015625,0.125 -0.015625,0.171875 0,0.046875 0.03125,0.125 0.125,0.125 0.109375,0 0.125,-0.0625 0.140625,-0.25 L 7.609375,-6.515625 C 7.640625,-6.78125 7.59375,-6.78125 7.34375,-6.78125 H 2.296875 c -0.1875,0 -0.296875,0 -0.296875,0.203125 0,0.109375 0.09375,0.109375 0.28125,0.109375 0.375,0 0.65625,0 0.65625,0.171875 0,0.046875 0,0.0625 -0.0625,0.25 L 1.5625,-0.78125 c -0.09375,0.390625 -0.109375,0.46875 -0.90625,0.46875 -0.171875,0 -0.28125,0 -0.28125,0.1875 C 0.375,0 0.46875,0 0.65625,0 h 5.171875 c 0.234375,0 0.25,-0.015625 0.3125,-0.171875 z m 0,0"
             id="path5481"
             style="fill:#ff0000" />
        </g>
      </g>
    </g>
    <path
       style="fill:none;fill-opacity:1;stroke:#000000;stroke-width:0.377953;stroke-dasharray:none;stroke-dashoffset:0"
       d="m 110.31726,99.891402 47.10892,6e-6"
       id="path6520"
       transform="matrix(0.26458333,0,0,0.26458333,80.97636,37.974363)" />
    <path
       style="fill:none;fill-opacity:1;stroke:#000000;stroke-width:0.377953;stroke-dasharray:none;stroke-dashoffset:0"
       d="m 159.23899,127.6343 v 3.78683"
       id="path6522"
       transform="matrix(0.26458333,0,0,0.26458333,80.496721,30.133089)" />
    <path
       style="fill:none;fill-opacity:1;stroke:#000000;stroke-width:0.377953;stroke-dasharray:none;stroke-dashoffset:0"
       d="m 159.23899,127.6343 v 3.78683"
       id="path6522-1"
       transform="matrix(0.26458333,0,0,0.26458333,68.032486,30.133089)" />
    <g
       transform="matrix(0.352778,0,0,0.352778,115.53398,64.879319)"
       ns1:version="1.8.2"
       ns1:texconverter="pdflatex"
       ns1:pdfconverter="inkscape"
       ns1:text="$h$"
       ns1:preamble="/Users/hendrik/Library/Application Support/org.inkscape.Inkscape/config/inkscape/extensions/textext/default_packages.tex"
       ns1:scale="1.0000000850393187"
       ns1:alignment="middle center"
       ns1:stroke-to-path="0"
       ns1:inkscapeversion="1.2.2"
       ns1:jacobian_sqrt="0.352778"
       id="g6869">
      <defs
         id="id-75e56dbf-94a9-479e-821b-606d53b4c74f">
        <g
           id="id-3bf7b93f-eff9-4154-9a7a-fb13d1d7eadc">
          <g
             id="id-89b916c4-8a86-4877-af76-656d83b8ec9f" />
          <g
             id="id-e5089aff-d075-4f1a-95bf-47680768e00b">
            <path
               d="m 2.859375,-6.8125 c 0,0 0,-0.109375 -0.125,-0.109375 -0.234375,0 -0.953125,0.078125 -1.21875,0.109375 -0.078125,0 -0.1875,0.015625 -0.1875,0.1875 0,0.125 0.09375,0.125 0.234375,0.125 0.484375,0 0.5,0.0625 0.5,0.171875 L 2.03125,-6.125 0.59375,-0.390625 c -0.046875,0.140625 -0.046875,0.15625 -0.046875,0.21875 0,0.234375 0.203125,0.28125 0.296875,0.28125 0.15625,0 0.3125,-0.125 0.359375,-0.265625 l 0.1875,-0.75 0.21875,-0.890625 C 1.671875,-2.03125 1.734375,-2.25 1.78125,-2.46875 1.796875,-2.53125 1.890625,-2.859375 1.890625,-2.921875 1.921875,-3.015625 2.234375,-3.5625 2.578125,-3.84375 2.796875,-4 3.09375,-4.1875 3.53125,-4.1875 c 0.421875,0 0.53125,0.34375 0.53125,0.703125 0,0.53125 -0.375,1.625 -0.609375,2.234375 C 3.375,-1.03125 3.3125,-0.90625 3.3125,-0.703125 c 0,0.46875 0.359375,0.8125 0.828125,0.8125 0.9375,0 1.296875,-1.453125 1.296875,-1.53125 0,-0.109375 -0.078125,-0.109375 -0.109375,-0.109375 -0.109375,0 -0.109375,0.03125 -0.15625,0.1875 -0.140625,0.53125 -0.46875,1.234375 -1.015625,1.234375 -0.171875,0 -0.234375,-0.09375 -0.234375,-0.328125 0,-0.25 0.078125,-0.484375 0.171875,-0.703125 0.15625,-0.4375 0.609375,-1.625 0.609375,-2.203125 0,-0.640625 -0.390625,-1.0625 -1.140625,-1.0625 -0.625,0 -1.109375,0.3125 -1.484375,0.765625 z m 0,0"
               id="id-e1c29e4c-67d1-4207-9d2b-d04c159b0eed" />
          </g>
        </g>
      </defs>
      <g
         fill="#000000"
         fill-opacity="1"
         id="id-35fa0768-0164-4738-917c-b4a68f4fbf07"
         transform="translate(-149.259,-127.843)">
        <g
           transform="translate(148.712,134.765)"
           id="g6866">
          <path
             d="m 2.859375,-6.8125 c 0,0 0,-0.109375 -0.125,-0.109375 -0.234375,0 -0.953125,0.078125 -1.21875,0.109375 -0.078125,0 -0.1875,0.015625 -0.1875,0.1875 0,0.125 0.09375,0.125 0.234375,0.125 0.484375,0 0.5,0.0625 0.5,0.171875 L 2.03125,-6.125 0.59375,-0.390625 c -0.046875,0.140625 -0.046875,0.15625 -0.046875,0.21875 0,0.234375 0.203125,0.28125 0.296875,0.28125 0.15625,0 0.3125,-0.125 0.359375,-0.265625 l 0.1875,-0.75 0.21875,-0.890625 C 1.671875,-2.03125 1.734375,-2.25 1.78125,-2.46875 1.796875,-2.53125 1.890625,-2.859375 1.890625,-2.921875 1.921875,-3.015625 2.234375,-3.5625 2.578125,-3.84375 2.796875,-4 3.09375,-4.1875 3.53125,-4.1875 c 0.421875,0 0.53125,0.34375 0.53125,0.703125 0,0.53125 -0.375,1.625 -0.609375,2.234375 C 3.375,-1.03125 3.3125,-0.90625 3.3125,-0.703125 c 0,0.46875 0.359375,0.8125 0.828125,0.8125 0.9375,0 1.296875,-1.453125 1.296875,-1.53125 0,-0.109375 -0.078125,-0.109375 -0.109375,-0.109375 -0.109375,0 -0.109375,0.03125 -0.15625,0.1875 -0.140625,0.53125 -0.46875,1.234375 -1.015625,1.234375 -0.171875,0 -0.234375,-0.09375 -0.234375,-0.328125 0,-0.25 0.078125,-0.484375 0.171875,-0.703125 0.15625,-0.4375 0.609375,-1.625 0.609375,-2.203125 0,-0.640625 -0.390625,-1.0625 -1.140625,-1.0625 -0.625,0 -1.109375,0.3125 -1.484375,0.765625 z m 0,0"
             id="id-c6401b53-b225-4b56-9e76-339c7016bb87" />
        </g>
      </g>
    </g>
  </g>
</svg>
