<?xml version="1.0" encoding="UTF-8" standalone="no"?>
<!-- Created with Inkscape (http://www.inkscape.org/) -->

<svg
   width="35.648952mm"
   height="50.537804mm"
   viewBox="0 0 35.648952 50.537804"
   version="1.1"
   id="svg5"
   sodipodi:docname="schleife.svg"
   inkscape:version="1.2.2 (b0a8486, 2022-12-01)"
   xmlns:inkscape="http://www.inkscape.org/namespaces/inkscape"
   xmlns:sodipodi="http://sodipodi.sourceforge.net/DTD/sodipodi-0.dtd"
   xmlns="http://www.w3.org/2000/svg"
   xmlns:svg="http://www.w3.org/2000/svg"
   xmlns:ns1="http://www.iki.fi/pav/software/textext/">
  <sodipodi:namedview
     id="namedview7"
     pagecolor="#ffffff"
     bordercolor="#000000"
     borderopacity="0.25"
     inkscape:showpageshadow="2"
     inkscape:pageopacity="0.0"
     inkscape:pagecheckerboard="0"
     inkscape:deskcolor="#d1d1d1"
     inkscape:document-units="mm"
     showgrid="false"
     inkscape:zoom="5.9409759"
     inkscape:cx="57.229654"
     inkscape:cy="18.431315"
     inkscape:window-width="1440"
     inkscape:window-height="777"
     inkscape:window-x="0"
     inkscape:window-y="23"
     inkscape:window-maximized="0"
     inkscape:current-layer="layer1"
     showguides="false" />
  <defs
     id="defs2" />
  <g
     inkscape:label="Layer 1"
     inkscape:groupmode="layer"
     id="layer1"
     transform="translate(-81.1661, -67.0322)">
    <path
       style="display:inline;fill:#5a5a5a;fill-opacity:0.718644;stroke:none;stroke-width:0.377953;stroke-dasharray:none;stroke-dashoffset:0"
       d="M 60.528395,34.931788 32.700573,62.75961 v 116.97982 l 27.827804,-27.8278 z"
       id="path4776"
       transform="matrix(0.26458333,0,0,0.26458333,88.528878,59.669422)"
       inkscape:label="wand hinten"
       sodipodi:insensitive="true" />
    <g
       transform="matrix(0.35277801,0,0,0.35277801,96.597824,73.519645)"
       ns1:version="1.8.2"
       ns1:texconverter="pdflatex"
       ns1:pdfconverter="inkscape"
       ns1:text="$\\varepsilon_B$"
       ns1:preamble="/Users/hendrik/Library/Application Support/org.inkscape.Inkscape/config/inkscape/extensions/textext/default_packages.tex"
       ns1:scale="1.0000000283464388"
       ns1:alignment="middle center"
       ns1:stroke-to-path="0"
       ns1:inkscapeversion="1.2.2"
       ns1:jacobian_sqrt="0.352778"
       id="g8443"
       style="display:inline">
      <defs
         id="id-1e1b00a5-5c49-4be7-933d-db50cfb6ed60">
        <g
           id="id-c3a379b9-076c-4791-8999-554428e1777a">
          <g
             id="id-91760969-f0f4-4afa-b39e-88a8e1d6e434" />
          <g
             id="id-495c26fd-252a-4e96-9f33-5192e798e444">
            <path
               d="M 1.40625,-2.265625 C 1.734375,-2.125 2.03125,-2.125 2.265625,-2.125 c 0.25,0 0.8125,0 0.8125,-0.3125 0,-0.234375 -0.359375,-0.265625 -0.734375,-0.265625 -0.203125,0 -0.5625,0.015625 -0.921875,0.1875 C 1.1875,-2.625 1.015625,-2.828125 1.015625,-3.09375 c 0,-0.609375 0.984375,-0.96875 1.875,-0.96875 0.15625,0 0.515625,0 0.921875,0.28125 0.109375,0.078125 0.125,0.109375 0.1875,0.109375 0.140625,0 0.28125,-0.140625 0.28125,-0.28125 0,-0.1875 -0.609375,-0.5625 -1.296875,-0.5625 -1.140625,0 -2.21875,0.671875 -2.21875,1.421875 0,0.4375 0.359375,0.6875 0.40625,0.71875 -0.59375,0.328125 -0.90625,0.875 -0.90625,1.34375 0,0.640625 0.5625,1.25 1.625,1.25 1.3125,0 1.875,-0.875 1.875,-1.03125 0,-0.0625 -0.0625,-0.09375 -0.109375,-0.09375 -0.0625,0 -0.09375,0.03125 -0.109375,0.0625 -0.140625,0.234375 -0.375,0.609375 -1.578125,0.609375 -0.609375,0 -1.453125,-0.15625 -1.453125,-0.859375 0,-0.34375 0.28125,-0.875 0.890625,-1.171875 z m 0.328125,-0.125 c 0.234375,-0.078125 0.4375,-0.09375 0.609375,-0.09375 0.25,0 0.28125,0.015625 0.46875,0.0625 -0.15625,0.0625 -0.171875,0.078125 -0.546875,0.078125 -0.21875,0 -0.34375,0 -0.53125,-0.046875 z m 0,0"
               id="id-4f156dc0-dbb5-4810-80a3-f3280b4ca663" />
          </g>
          <g
             id="id-526b7aff-ee7e-4da6-a308-9350946f463f" />
          <g
             id="id-a0b8fefe-3014-496e-aac2-aa2b07cbea45">
            <path
               d="M 1.328125,-0.546875 C 1.265625,-0.3125 1.25,-0.25 0.703125,-0.25 0.59375,-0.25 0.5,-0.25 0.5,-0.109375 0.5,0 0.578125,0 0.703125,0 H 3.40625 c 1.171875,0 2.078125,-0.796875 2.078125,-1.484375 0,-0.5 -0.453125,-0.921875 -1.203125,-1 0.84375,-0.15625 1.546875,-0.6875 1.546875,-1.28125 0,-0.53125 -0.53125,-1 -1.4375,-1 h -2.53125 c -0.140625,0 -0.234375,0 -0.234375,0.15625 0,0.09375 0.09375,0.09375 0.234375,0.09375 0,0 0.140625,0 0.265625,0.015625 0.140625,0.015625 0.15625,0.03125 0.15625,0.109375 0,0 0,0.046875 -0.03125,0.140625 z m 1.109375,-2.03125 0.421875,-1.6875 c 0.0625,-0.21875 0.0625,-0.25 0.359375,-0.25 h 1.0625 c 0.703125,0 0.875,0.46875 0.875,0.734375 0,0.5625 -0.640625,1.203125 -1.578125,1.203125 z M 2.109375,-0.25 C 1.890625,-0.25 1.875,-0.265625 1.875,-0.328125 c 0,0 0,-0.03125 0.03125,-0.140625 L 2.390625,-2.375 H 3.875 c 0.640625,0 0.90625,0.4375 0.90625,0.828125 0,0.703125 -0.71875,1.296875 -1.5625,1.296875 z m 0,0"
               id="id-a5214539-87af-4dee-bdaf-024f0c3054cb" />
          </g>
        </g>
      </defs>
      <g
         fill="#000000"
         fill-opacity="1"
         id="id-a103a555-d43b-48de-95be-5728d1bd1548"
         transform="translate(-148.978,-130.249)">
        <g
           transform="translate(148.712,134.765)"
           id="g8655">
          <path
             d="M 1.40625,-2.265625 C 1.734375,-2.125 2.03125,-2.125 2.265625,-2.125 c 0.25,0 0.8125,0 0.8125,-0.3125 0,-0.234375 -0.359375,-0.265625 -0.734375,-0.265625 -0.203125,0 -0.5625,0.015625 -0.921875,0.1875 C 1.1875,-2.625 1.015625,-2.828125 1.015625,-3.09375 c 0,-0.609375 0.984375,-0.96875 1.875,-0.96875 0.15625,0 0.515625,0 0.921875,0.28125 0.109375,0.078125 0.125,0.109375 0.1875,0.109375 0.140625,0 0.28125,-0.140625 0.28125,-0.28125 0,-0.1875 -0.609375,-0.5625 -1.296875,-0.5625 -1.140625,0 -2.21875,0.671875 -2.21875,1.421875 0,0.4375 0.359375,0.6875 0.40625,0.71875 -0.59375,0.328125 -0.90625,0.875 -0.90625,1.34375 0,0.640625 0.5625,1.25 1.625,1.25 1.3125,0 1.875,-0.875 1.875,-1.03125 0,-0.0625 -0.0625,-0.09375 -0.109375,-0.09375 -0.0625,0 -0.09375,0.03125 -0.109375,0.0625 -0.140625,0.234375 -0.375,0.609375 -1.578125,0.609375 -0.609375,0 -1.453125,-0.15625 -1.453125,-0.859375 0,-0.34375 0.28125,-0.875 0.890625,-1.171875 z m 0.328125,-0.125 c 0.234375,-0.078125 0.4375,-0.09375 0.609375,-0.09375 0.25,0 0.28125,0.015625 0.46875,0.0625 -0.15625,0.0625 -0.171875,0.078125 -0.546875,0.078125 -0.21875,0 -0.34375,0 -0.53125,-0.046875 z m 0,0"
             id="id-c8de1a41-f6c9-4d38-b9c9-46634cb4aad7" />
        </g>
      </g>
      <g
         fill="#000000"
         fill-opacity="1"
         id="id-c363221c-5bd7-41b8-947e-a58f925559ee"
         transform="translate(-148.978,-130.249)">
        <g
           transform="translate(153.358,136.259)"
           id="g8659">
          <path
             d="M 1.328125,-0.546875 C 1.265625,-0.3125 1.25,-0.25 0.703125,-0.25 0.59375,-0.25 0.5,-0.25 0.5,-0.109375 0.5,0 0.578125,0 0.703125,0 H 3.40625 c 1.171875,0 2.078125,-0.796875 2.078125,-1.484375 0,-0.5 -0.453125,-0.921875 -1.203125,-1 0.84375,-0.15625 1.546875,-0.6875 1.546875,-1.28125 0,-0.53125 -0.53125,-1 -1.4375,-1 h -2.53125 c -0.140625,0 -0.234375,0 -0.234375,0.15625 0,0.09375 0.09375,0.09375 0.234375,0.09375 0,0 0.140625,0 0.265625,0.015625 0.140625,0.015625 0.15625,0.03125 0.15625,0.109375 0,0 0,0.046875 -0.03125,0.140625 z m 1.109375,-2.03125 0.421875,-1.6875 c 0.0625,-0.21875 0.0625,-0.25 0.359375,-0.25 h 1.0625 c 0.703125,0 0.875,0.46875 0.875,0.734375 0,0.5625 -0.640625,1.203125 -1.578125,1.203125 z M 2.109375,-0.25 C 1.890625,-0.25 1.875,-0.265625 1.875,-0.328125 c 0,0 0,-0.03125 0.03125,-0.140625 L 2.390625,-2.375 H 3.875 c 0.640625,0 0.90625,0.4375 0.90625,0.828125 0,0.703125 -0.71875,1.296875 -1.5625,1.296875 z m 0,0"
             id="id-4a18f46c-788f-4f5a-86cc-43b341988dab" />
        </g>
      </g>
    </g>
    <path
       style="display:inline;fill:none;fill-opacity:0.711864;stroke:#ff0000;stroke-width:0.755906;stroke-dasharray:0.755906, 2.26772;stroke-dashoffset:0"
       d="m 65.8609,68.841396 11.963943,3.215035 v 52.000029 l -11.963946,-3.21503"
       id="path1380"
       transform="matrix(-0.26458333,0,0,-0.26458333,114.6066,116.84348)"
       sodipodi:nodetypes="cccc" />
    <path
       style="fill:none;fill-opacity:0.711864;stroke:#ff0000;stroke-width:0.755906;stroke-dasharray:none;stroke-dashoffset:0"
       d="m 75.157501,95.389103 2.667341,2.667341 v 0 l 2.664571,-2.664571"
       id="path1539"
       transform="matrix(-0.26458333,0,0,-0.26458333,114.6066,116.84348)"
       sodipodi:nodetypes="cccc" />
    <path
       style="fill:none;fill-opacity:0.711864;stroke:#ff0000;stroke-width:0.755906;stroke-dasharray:none;stroke-dashoffset:0"
       d="m 75.157501,95.389103 2.667341,2.667341 v 0 l 2.664571,-2.664571"
       id="path1584"
       transform="matrix(0.0684792,-0.25556788,0.25556788,0.0684792,67.180315,98.209462)"
       sodipodi:nodetypes="cccc"
       inkscape:transform-center-x="0.43217271"
       inkscape:transform-center-y="-0.18220936" />
    <g
       id="g1801"
       transform="translate(-1.1666666e-6,1.5874999)"
       style="display:inline">
      <path
         style="fill:none;fill-opacity:0.711864;stroke:#000000;stroke-width:0.377953;stroke-dasharray:none;stroke-dashoffset:0"
         d="M 72.492333,70.636881 V 66.87494"
         id="path1791"
         transform="matrix(0.26458333,0,0,0.26458333,74.835181,61.626698)" />
      <path
         style="fill:none;fill-opacity:0.711864;stroke:#000000;stroke-width:0.377953;stroke-dasharray:0.377953, 1.13386;stroke-dashoffset:0"
         d="m 48.564445,48.325843 11.237289,3.029622"
         id="path1797"
         transform="matrix(0.26458333,0,0,0.26458333,81.166101,67.032153)" />
    </g>
    <g
       id="g3057"
       transform="translate(-11.176034,-1.525194)">
      <g
         id="g3055"
         transform="translate(-0.26235393)">
        <text
           xml:space="preserve"
           style="font-size:5.33333px;fill:#ff0000;fill-opacity:1;stroke:none;stroke-width:0.377953;stroke-dasharray:none;stroke-dashoffset:0"
           x="79.933144"
           y="88.095329"
           id="text3051"
           transform="matrix(0.26458333,0,0,0.26458333,81.413075,69.948227)"><tspan
             sodipodi:role="line"
             id="tspan3049"
             x="79.933144"
             y="88.095329"
             style="font-size:5.33333px;fill:#ff0000;fill-opacity:1;stroke:none">3</tspan></text>
        <circle
           style="fill:none;fill-opacity:0.711864;stroke:#ff0000;stroke-width:0.377953;stroke-dasharray:none;stroke-dashoffset:0"
           id="circle3053"
           cx="82.64003"
           cy="97.171219"
           r="3.1207359"
           transform="matrix(0.26458333,0,0,0.26458333,81.1661,67.0322)" />
      </g>
    </g>
    <g
       id="g3065"
       transform="translate(-5.8244185,-5.9296107)">
      <text
         xml:space="preserve"
         style="font-size:5.33333px;fill:#ff0000;fill-opacity:1;stroke:none;stroke-width:0.377953;stroke-dasharray:none;stroke-dashoffset:0"
         x="79.933144"
         y="88.095329"
         id="text3061"
         transform="matrix(0.26458333,0,0,0.26458333,81.413075,69.948227)"><tspan
           sodipodi:role="line"
           id="tspan3059"
           x="79.933144"
           y="88.095329"
           style="font-size:5.33333px;fill:#ff0000;fill-opacity:1;stroke:none">4</tspan></text>
      <circle
         style="fill:none;fill-opacity:0.711864;stroke:#ff0000;stroke-width:0.377953;stroke-dasharray:none;stroke-dashoffset:0"
         id="circle3063"
         cx="82.64003"
         cy="97.171219"
         r="3.1207359"
         transform="matrix(0.26458333,0,0,0.26458333,81.1661,67.0322)" />
    </g>
    <g
       transform="matrix(0.352778,0,0,0.352778,105.08295,73.519536)"
       ns1:version="1.8.2"
       ns1:texconverter="pdflatex"
       ns1:pdfconverter="inkscape"
       ns1:text="$\\varepsilon_A$"
       ns1:preamble="/Users/hendrik/Library/Application Support/org.inkscape.Inkscape/config/inkscape/extensions/textext/default_packages.tex"
       ns1:scale="1.0000000283464388"
       ns1:alignment="middle center"
       ns1:stroke-to-path="0"
       ns1:inkscapeversion="1.2.2"
       ns1:jacobian_sqrt="0.352778"
       id="g8396">
      <defs
         id="id-bc9bf766-d7d7-404a-bcdc-856b442c3592">
        <g
           id="id-dd46e6aa-6b34-438e-a896-44496cbb3fa5">
          <g
             id="id-bb9bb676-e115-4a88-9135-24c045d3cd10" />
          <g
             id="id-d4a92024-8349-47c8-8306-c7ffa176afb6">
            <path
               d="M 1.40625,-2.265625 C 1.734375,-2.125 2.03125,-2.125 2.265625,-2.125 c 0.25,0 0.8125,0 0.8125,-0.3125 0,-0.234375 -0.359375,-0.265625 -0.734375,-0.265625 -0.203125,0 -0.5625,0.015625 -0.921875,0.1875 C 1.1875,-2.625 1.015625,-2.828125 1.015625,-3.09375 c 0,-0.609375 0.984375,-0.96875 1.875,-0.96875 0.15625,0 0.515625,0 0.921875,0.28125 0.109375,0.078125 0.125,0.109375 0.1875,0.109375 0.140625,0 0.28125,-0.140625 0.28125,-0.28125 0,-0.1875 -0.609375,-0.5625 -1.296875,-0.5625 -1.140625,0 -2.21875,0.671875 -2.21875,1.421875 0,0.4375 0.359375,0.6875 0.40625,0.71875 -0.59375,0.328125 -0.90625,0.875 -0.90625,1.34375 0,0.640625 0.5625,1.25 1.625,1.25 1.3125,0 1.875,-0.875 1.875,-1.03125 0,-0.0625 -0.0625,-0.09375 -0.109375,-0.09375 -0.0625,0 -0.09375,0.03125 -0.109375,0.0625 -0.140625,0.234375 -0.375,0.609375 -1.578125,0.609375 -0.609375,0 -1.453125,-0.15625 -1.453125,-0.859375 0,-0.34375 0.28125,-0.875 0.890625,-1.171875 z m 0.328125,-0.125 c 0.234375,-0.078125 0.4375,-0.09375 0.609375,-0.09375 0.25,0 0.28125,0.015625 0.46875,0.0625 -0.15625,0.0625 -0.171875,0.078125 -0.546875,0.078125 -0.21875,0 -0.34375,0 -0.53125,-0.046875 z m 0,0"
               id="id-63c9cc8a-15bc-48ed-ba55-26200bc2a248" />
          </g>
          <g
             id="id-b7b800bc-7ea8-4ea1-830d-39f04c4d3e58" />
          <g
             id="id-1d5b2ffc-4d5a-4f39-9195-4edbf759cfe7">
            <path
               d="m 1.4375,-0.84375 c -0.25,0.390625 -0.46875,0.5625 -0.875,0.59375 -0.078125,0 -0.171875,0 -0.171875,0.140625 C 0.390625,-0.03125 0.453125,0 0.5,0 0.671875,0 0.90625,-0.03125 1.09375,-0.03125 1.3125,-0.03125 1.609375,0 1.8125,0 1.84375,0 1.953125,0 1.953125,-0.15625 1.953125,-0.25 1.859375,-0.25 1.828125,-0.25 1.78125,-0.265625 1.53125,-0.265625 1.53125,-0.453125 c 0,-0.09375 0.0625,-0.203125 0.09375,-0.265625 l 0.5625,-0.875 h 2 L 4.34375,-0.4375 C 4.328125,-0.359375 4.28125,-0.25 3.875,-0.25 c -0.09375,0 -0.1875,0 -0.1875,0.15625 C 3.6875,-0.0625 3.703125,0 3.796875,0 4,0 4.5,-0.03125 4.703125,-0.03125 c 0.125,0 0.28125,0.015625 0.40625,0.015625 C 5.234375,-0.015625 5.375,0 5.5,0 5.59375,0 5.640625,-0.0625 5.640625,-0.140625 5.640625,-0.25 5.5625,-0.25 5.453125,-0.25 c -0.40625,0 -0.421875,-0.0625 -0.4375,-0.21875 l -0.625,-4.3125 C 4.375,-4.921875 4.359375,-4.96875 4.234375,-4.96875 4.09375,-4.96875 4.0625,-4.90625 4,-4.8125 Z m 0.921875,-1 L 3.8125,-4.125 4.140625,-1.84375 Z m 0,0"
               id="id-8237d6ac-6949-43e8-84e1-f29770742074" />
          </g>
        </g>
      </defs>
      <g
         fill="#000000"
         fill-opacity="1"
         id="id-dcb76897-d6df-42f2-b772-203fb1a54473"
         transform="translate(-148.978,-130.249)">
        <g
           transform="translate(148.712,134.765)"
           id="g8389">
          <path
             d="M 1.40625,-2.265625 C 1.734375,-2.125 2.03125,-2.125 2.265625,-2.125 c 0.25,0 0.8125,0 0.8125,-0.3125 0,-0.234375 -0.359375,-0.265625 -0.734375,-0.265625 -0.203125,0 -0.5625,0.015625 -0.921875,0.1875 C 1.1875,-2.625 1.015625,-2.828125 1.015625,-3.09375 c 0,-0.609375 0.984375,-0.96875 1.875,-0.96875 0.15625,0 0.515625,0 0.921875,0.28125 0.109375,0.078125 0.125,0.109375 0.1875,0.109375 0.140625,0 0.28125,-0.140625 0.28125,-0.28125 0,-0.1875 -0.609375,-0.5625 -1.296875,-0.5625 -1.140625,0 -2.21875,0.671875 -2.21875,1.421875 0,0.4375 0.359375,0.6875 0.40625,0.71875 -0.59375,0.328125 -0.90625,0.875 -0.90625,1.34375 0,0.640625 0.5625,1.25 1.625,1.25 1.3125,0 1.875,-0.875 1.875,-1.03125 0,-0.0625 -0.0625,-0.09375 -0.109375,-0.09375 -0.0625,0 -0.09375,0.03125 -0.109375,0.0625 -0.140625,0.234375 -0.375,0.609375 -1.578125,0.609375 -0.609375,0 -1.453125,-0.15625 -1.453125,-0.859375 0,-0.34375 0.28125,-0.875 0.890625,-1.171875 z m 0.328125,-0.125 c 0.234375,-0.078125 0.4375,-0.09375 0.609375,-0.09375 0.25,0 0.28125,0.015625 0.46875,0.0625 -0.15625,0.0625 -0.171875,0.078125 -0.546875,0.078125 -0.21875,0 -0.34375,0 -0.53125,-0.046875 z m 0,0"
             id="id-5ec7557b-3f04-472b-ad4e-ff7457452b1e" />
        </g>
      </g>
      <g
         fill="#000000"
         fill-opacity="1"
         id="id-72f6b4ac-5eb2-4ba3-941a-a1d7ca3546d2"
         transform="translate(-148.978,-130.249)">
        <g
           transform="translate(153.358,136.259)"
           id="g8393">
          <path
             d="m 1.4375,-0.84375 c -0.25,0.390625 -0.46875,0.5625 -0.875,0.59375 -0.078125,0 -0.171875,0 -0.171875,0.140625 C 0.390625,-0.03125 0.453125,0 0.5,0 0.671875,0 0.90625,-0.03125 1.09375,-0.03125 1.3125,-0.03125 1.609375,0 1.8125,0 1.84375,0 1.953125,0 1.953125,-0.15625 1.953125,-0.25 1.859375,-0.25 1.828125,-0.25 1.78125,-0.265625 1.53125,-0.265625 1.53125,-0.453125 c 0,-0.09375 0.0625,-0.203125 0.09375,-0.265625 l 0.5625,-0.875 h 2 L 4.34375,-0.4375 C 4.328125,-0.359375 4.28125,-0.25 3.875,-0.25 c -0.09375,0 -0.1875,0 -0.1875,0.15625 C 3.6875,-0.0625 3.703125,0 3.796875,0 4,0 4.5,-0.03125 4.703125,-0.03125 c 0.125,0 0.28125,0.015625 0.40625,0.015625 C 5.234375,-0.015625 5.375,0 5.5,0 5.59375,0 5.640625,-0.0625 5.640625,-0.140625 5.640625,-0.25 5.5625,-0.25 5.453125,-0.25 c -0.40625,0 -0.421875,-0.0625 -0.4375,-0.21875 l -0.625,-4.3125 C 4.375,-4.921875 4.359375,-4.96875 4.234375,-4.96875 4.09375,-4.96875 4.0625,-4.90625 4,-4.8125 Z m 0.921875,-1 L 3.8125,-4.125 4.140625,-1.84375 Z m 0,0"
             id="id-87558e42-1115-4922-b7a7-4c4539525b23" />
        </g>
      </g>
    </g>
    <path
       style="fill:none;fill-opacity:0.711864;stroke:#ff0000;stroke-width:0.755906;stroke-dasharray:none;stroke-dashoffset:0"
       d="m 65.860899,68.841403 11.963944,3.215028 v 52.000029 l -11.963938,-3.21503"
       id="path1370"
       transform="matrix(0.26458333,0,0,0.26458333,79.755208,66.656564)"
       sodipodi:nodetypes="cccc" />
    <path
       style="fill:none;fill-opacity:0.711864;stroke:#ff0000;stroke-width:0.755906;stroke-dasharray:none;stroke-dashoffset:0"
       d="m 75.157501,95.389103 2.667341,2.667341 v 0 l 2.664571,-2.664571"
       id="path1535"
       transform="matrix(0.26458333,0,0,0.26458333,79.755208,66.656564)"
       sodipodi:nodetypes="cccc" />
    <path
       style="fill:none;fill-opacity:0.711864;stroke:#ff0000;stroke-width:0.755906;stroke-dasharray:none;stroke-dashoffset:0"
       d="m 75.157501,95.389103 2.667341,2.667341 v 0 l 2.664571,-2.664571"
       id="path1582"
       transform="matrix(-0.04872448,0.26005819,-0.26005819,-0.04872448,126.1027,83.05144)"
       sodipodi:nodetypes="cccc"
       inkscape:transform-center-x="-0.41181719"
       inkscape:transform-center-y="0.12953597" />
    <g
       id="g1805"
       transform="translate(0,1.5875)">
      <path
         style="fill:none;fill-opacity:0.711864;stroke:#000000;stroke-width:0.377953;stroke-dasharray:none;stroke-dashoffset:0"
         d="M 72.492333,70.636881 V 66.87494"
         id="path1787"
         transform="matrix(0.26458333,0,0,0.26458333,81.166101,63.327984)" />
      <path
         style="fill:none;fill-opacity:0.711864;stroke:#000000;stroke-width:0.377953;stroke-dasharray:none;stroke-dashoffset:0"
         d="M 72.492332,54.755901 59.801734,51.355465"
         id="path1795"
         transform="matrix(0.26458333,0,0,0.26458333,81.166101,67.032153)" />
    </g>
    <g
       transform="matrix(0.352778,0,0,0.352778,96.688848,78.928351)"
       ns1:version="1.8.2"
       ns1:texconverter="pdflatex"
       ns1:pdfconverter="inkscape"
       ns1:text="$h$"
       ns1:preamble="/Users/hendrik/Library/Application Support/org.inkscape.Inkscape/config/inkscape/extensions/textext/default_packages.tex"
       ns1:scale="1.0000000283464388"
       ns1:alignment="middle center"
       ns1:stroke-to-path="0"
       ns1:inkscapeversion="1.2.2"
       ns1:jacobian_sqrt="0.352778"
       id="g1911">
      <defs
         id="id-1b9e3eb0-39e6-43b6-aeaa-e0da850adcca">
        <g
           id="id-306088c1-41f2-4f0f-8e31-453758bf411a">
          <g
             id="id-1c5b71e6-cd43-4ff6-a3cb-d6669fbb8bba" />
          <g
             id="id-fd0078c6-69f5-427e-b8fc-0f9eb49fa974">
            <path
               d="m 2.859375,-6.8125 c 0,0 0,-0.109375 -0.125,-0.109375 -0.234375,0 -0.953125,0.078125 -1.21875,0.109375 -0.078125,0 -0.1875,0.015625 -0.1875,0.1875 0,0.125 0.09375,0.125 0.234375,0.125 0.484375,0 0.5,0.0625 0.5,0.171875 L 2.03125,-6.125 0.59375,-0.390625 c -0.046875,0.140625 -0.046875,0.15625 -0.046875,0.21875 0,0.234375 0.203125,0.28125 0.296875,0.28125 0.15625,0 0.3125,-0.125 0.359375,-0.265625 l 0.1875,-0.75 0.21875,-0.890625 C 1.671875,-2.03125 1.734375,-2.25 1.78125,-2.46875 1.796875,-2.53125 1.890625,-2.859375 1.890625,-2.921875 1.921875,-3.015625 2.234375,-3.5625 2.578125,-3.84375 2.796875,-4 3.09375,-4.1875 3.53125,-4.1875 c 0.421875,0 0.53125,0.34375 0.53125,0.703125 0,0.53125 -0.375,1.625 -0.609375,2.234375 C 3.375,-1.03125 3.3125,-0.90625 3.3125,-0.703125 c 0,0.46875 0.359375,0.8125 0.828125,0.8125 0.9375,0 1.296875,-1.453125 1.296875,-1.53125 0,-0.109375 -0.078125,-0.109375 -0.109375,-0.109375 -0.109375,0 -0.109375,0.03125 -0.15625,0.1875 -0.140625,0.53125 -0.46875,1.234375 -1.015625,1.234375 -0.171875,0 -0.234375,-0.09375 -0.234375,-0.328125 0,-0.25 0.078125,-0.484375 0.171875,-0.703125 0.15625,-0.4375 0.609375,-1.625 0.609375,-2.203125 0,-0.640625 -0.390625,-1.0625 -1.140625,-1.0625 -0.625,0 -1.109375,0.3125 -1.484375,0.765625 z m 0,0"
               id="id-281123f5-ae6f-427c-8260-5d2b47ed5e09" />
          </g>
        </g>
      </defs>
      <g
         fill="#000000"
         fill-opacity="1"
         id="id-60cf5020-8e26-4575-89d0-4fe7616e21b7"
         transform="translate(-149.259,-127.843)">
        <g
           transform="translate(148.712,134.765)"
           id="g1908">
          <path
             d="m 2.859375,-6.8125 c 0,0 0,-0.109375 -0.125,-0.109375 -0.234375,0 -0.953125,0.078125 -1.21875,0.109375 -0.078125,0 -0.1875,0.015625 -0.1875,0.1875 0,0.125 0.09375,0.125 0.234375,0.125 0.484375,0 0.5,0.0625 0.5,0.171875 L 2.03125,-6.125 0.59375,-0.390625 c -0.046875,0.140625 -0.046875,0.15625 -0.046875,0.21875 0,0.234375 0.203125,0.28125 0.296875,0.28125 0.15625,0 0.3125,-0.125 0.359375,-0.265625 l 0.1875,-0.75 0.21875,-0.890625 C 1.671875,-2.03125 1.734375,-2.25 1.78125,-2.46875 1.796875,-2.53125 1.890625,-2.859375 1.890625,-2.921875 1.921875,-3.015625 2.234375,-3.5625 2.578125,-3.84375 2.796875,-4 3.09375,-4.1875 3.53125,-4.1875 c 0.421875,0 0.53125,0.34375 0.53125,0.703125 0,0.53125 -0.375,1.625 -0.609375,2.234375 C 3.375,-1.03125 3.3125,-0.90625 3.3125,-0.703125 c 0,0.46875 0.359375,0.8125 0.828125,0.8125 0.9375,0 1.296875,-1.453125 1.296875,-1.53125 0,-0.109375 -0.078125,-0.109375 -0.109375,-0.109375 -0.109375,0 -0.109375,0.03125 -0.15625,0.1875 -0.140625,0.53125 -0.46875,1.234375 -1.015625,1.234375 -0.171875,0 -0.234375,-0.09375 -0.234375,-0.328125 0,-0.25 0.078125,-0.484375 0.171875,-0.703125 0.15625,-0.4375 0.609375,-1.625 0.609375,-2.203125 0,-0.640625 -0.390625,-1.0625 -1.140625,-1.0625 -0.625,0 -1.109375,0.3125 -1.484375,0.765625 z m 0,0"
             id="id-95441f88-5a5e-469a-8374-cfbb451ea14b" />
        </g>
      </g>
    </g>
    <g
       id="g2185"
       transform="translate(4.0137388,1.0456238)">
      <path
         style="fill:none;fill-opacity:0.711864;stroke:#000000;stroke-width:0.377953;stroke-dasharray:none;stroke-dashoffset:0"
         d="m 79.188614,72.5438 3.652553,0.978699"
         id="path1968"
         transform="matrix(0.26458333,0,0,0.26458333,81.1661,67.0322)" />
      <path
         style="fill:none;fill-opacity:0.711864;stroke:#000000;stroke-width:0.377953;stroke-dasharray:none;stroke-dashoffset:0"
         d="m 79.188614,72.5438 3.652553,0.978699"
         id="path1970"
         transform="matrix(0.26458333,0,0,0.26458333,81.1661,80.760686)" />
      <path
         style="fill:none;fill-opacity:0.711864;stroke:#000000;stroke-width:0.377953;stroke-dasharray:none;stroke-dashoffset:0"
         d="M 81.014889,124.92034 V 73.033149"
         id="path1974"
         transform="matrix(0.26458333,0,0,0.26458333,81.1661,67.0322)" />
    </g>
    <g
       transform="matrix(0.352778,0,0,0.352778,107.49901,92.586236)"
       ns1:version="1.8.2"
       ns1:texconverter="pdflatex"
       ns1:pdfconverter="inkscape"
       ns1:text="$L$"
       ns1:preamble="/Users/hendrik/Library/Application Support/org.inkscape.Inkscape/config/inkscape/extensions/textext/default_packages.tex"
       ns1:scale="1.0000000283464388"
       ns1:alignment="middle center"
       ns1:stroke-to-path="0"
       ns1:inkscapeversion="1.2.2"
       ns1:jacobian_sqrt="0.352778"
       id="g2101">
      <defs
         id="id-6644fd39-be0e-4129-a295-03de0b8004f5">
        <g
           id="id-abae7b47-a780-4a41-afc7-7f6bd11a3cd3">
          <g
             id="id-7bcfd00a-90ad-4a82-9e23-0bf9cf055c9f" />
          <g
             id="id-876864b4-bfd1-4cea-8b86-e501af3f2839">
            <path
               d="M 3.734375,-6.03125 C 3.8125,-6.390625 3.84375,-6.5 4.78125,-6.5 c 0.296875,0 0.375,0 0.375,-0.1875 0,-0.125 -0.109375,-0.125 -0.15625,-0.125 -0.328125,0 -1.140625,0.03125 -1.46875,0.03125 -0.296875,0 -1.03125,-0.03125 -1.328125,-0.03125 -0.0625,0 -0.1875,0 -0.1875,0.203125 0,0.109375 0.09375,0.109375 0.28125,0.109375 0.015625,0 0.203125,0 0.375,0.015625 0.171875,0.03125 0.265625,0.03125 0.265625,0.171875 0,0.03125 0,0.0625 -0.03125,0.1875 L 1.5625,-0.78125 c -0.09375,0.390625 -0.109375,0.46875 -0.90625,0.46875 -0.171875,0 -0.265625,0 -0.265625,0.203125 C 0.390625,0 0.484375,0 0.65625,0 h 4.625 C 5.515625,0 5.515625,0 5.578125,-0.171875 L 6.375,-2.328125 c 0.03125,-0.109375 0.03125,-0.125 0.03125,-0.140625 0,-0.03125 -0.03125,-0.109375 -0.109375,-0.109375 -0.09375,0 -0.109375,0.0625 -0.171875,0.21875 -0.34375,0.90625 -0.78125,2.046875 -2.5,2.046875 H 2.6875 c -0.140625,0 -0.171875,0 -0.21875,0 -0.109375,-0.015625 -0.140625,-0.03125 -0.140625,-0.109375 0,-0.03125 0,-0.046875 0.046875,-0.21875 z m 0,0"
               id="id-3c275f8a-0d35-4e6f-8ac4-c51923c00802" />
          </g>
        </g>
      </defs>
      <g
         fill="#000000"
         fill-opacity="1"
         id="id-b46b2e39-2923-4dfe-a811-13324707f57b"
         transform="translate(-149.103,-127.953)">
        <g
           transform="translate(148.712,134.765)"
           id="g2098">
          <path
             d="M 3.734375,-6.03125 C 3.8125,-6.390625 3.84375,-6.5 4.78125,-6.5 c 0.296875,0 0.375,0 0.375,-0.1875 0,-0.125 -0.109375,-0.125 -0.15625,-0.125 -0.328125,0 -1.140625,0.03125 -1.46875,0.03125 -0.296875,0 -1.03125,-0.03125 -1.328125,-0.03125 -0.0625,0 -0.1875,0 -0.1875,0.203125 0,0.109375 0.09375,0.109375 0.28125,0.109375 0.015625,0 0.203125,0 0.375,0.015625 0.171875,0.03125 0.265625,0.03125 0.265625,0.171875 0,0.03125 0,0.0625 -0.03125,0.1875 L 1.5625,-0.78125 c -0.09375,0.390625 -0.109375,0.46875 -0.90625,0.46875 -0.171875,0 -0.265625,0 -0.265625,0.203125 C 0.390625,0 0.484375,0 0.65625,0 h 4.625 C 5.515625,0 5.515625,0 5.578125,-0.171875 L 6.375,-2.328125 c 0.03125,-0.109375 0.03125,-0.125 0.03125,-0.140625 0,-0.03125 -0.03125,-0.109375 -0.109375,-0.109375 -0.09375,0 -0.109375,0.0625 -0.171875,0.21875 -0.34375,0.90625 -0.78125,2.046875 -2.5,2.046875 H 2.6875 c -0.140625,0 -0.171875,0 -0.21875,0 -0.109375,-0.015625 -0.140625,-0.03125 -0.140625,-0.109375 0,-0.03125 0,-0.046875 0.046875,-0.21875 z m 0,0"
             id="id-18cbea80-c004-4bf4-a38f-17da49f39ecf" />
        </g>
      </g>
    </g>
    <text
       xml:space="preserve"
       style="font-size:13.3333px;fill:#ff0000;fill-opacity:0.711864;stroke:none;stroke-width:0.377953;stroke-dasharray:none;stroke-dashoffset:0"
       x="78.921837"
       y="96.052155"
       id="text2312"
       transform="matrix(0.26458333,0,0,0.26458333,81.1661,67.0322)"><tspan
         sodipodi:role="line"
         id="tspan2310"
         x="78.921837"
         y="96.052155" /></text>
    <g
       id="g2794">
      <g
         id="g2788"
         transform="translate(-0.26235393)">
        <text
           xml:space="preserve"
           style="font-size:5.33333px;fill:#ff0000;fill-opacity:1;stroke:none;stroke-width:0.377953;stroke-dasharray:none;stroke-dashoffset:0"
           x="79.933144"
           y="88.095329"
           id="text2575"
           transform="matrix(0.26458333,0,0,0.26458333,81.413075,69.948227)"><tspan
             sodipodi:role="line"
             id="tspan2573"
             x="79.933144"
             y="88.095329"
             style="font-size:5.33333px;fill:#ff0000;fill-opacity:1;stroke:none">1</tspan></text>
        <circle
           style="fill:none;fill-opacity:0.711864;stroke:#ff0000;stroke-width:0.377953;stroke-dasharray:none;stroke-dashoffset:0"
           id="path2679"
           cx="82.64003"
           cy="97.171219"
           r="3.1207359"
           transform="matrix(0.26458333,0,0,0.26458333,81.1661,67.0322)" />
      </g>
    </g>
    <g
       id="g2906"
       transform="translate(-5.6139683,7.8558211)">
      <g
         id="g2904"
         transform="translate(-0.26235393)">
        <text
           xml:space="preserve"
           style="font-size:5.33333px;fill:#ff0000;fill-opacity:1;stroke:none;stroke-width:0.377953;stroke-dasharray:none;stroke-dashoffset:0"
           x="79.933144"
           y="88.095329"
           id="text2900"
           transform="matrix(0.26458333,0,0,0.26458333,81.413075,69.948227)"><tspan
             sodipodi:role="line"
             id="tspan2898"
             x="79.933144"
             y="88.095329"
             style="font-size:5.33333px;fill:#ff0000;fill-opacity:1;stroke:none">2</tspan></text>
        <circle
           style="fill:none;fill-opacity:0.711864;stroke:#ff0000;stroke-width:0.377953;stroke-dasharray:none;stroke-dashoffset:0"
           id="circle2902"
           cx="82.64003"
           cy="97.171219"
           r="3.1207359"
           transform="matrix(0.26458333,0,0,0.26458333,81.1661,67.0322)" />
      </g>
    </g>
    <g
       id="g3067"
       transform="translate(-5.7932184,-6.0596624)" />
    <path
       style="display:inline;fill:#5a5a5a;fill-opacity:0.718644;stroke:none;stroke-width:0.377953;stroke-dasharray:none;stroke-dashoffset:0"
       d="M 60.528395,34.931788 32.700573,62.75961 v 116.97982 l 27.827804,-27.8278 z"
       id="path3370"
       transform="matrix(0.26458333,0,0,0.26458333,81.1661,67.0322)"
       inkscape:label="wand vorne"
       sodipodi:insensitive="true" />
  </g>
</svg>
