<?xml version="1.0" encoding="UTF-8" standalone="no"?>
<!-- Created with Inkscape (http://www.inkscape.org/) -->

<svg
   width="26.492815mm"
   height="29.375219mm"
   viewBox="0 0 26.492816 29.37522"
   version="1.1"
   id="svg5"
   sodipodi:docname="stromdichte.svg"
   inkscape:version="1.2.2 (b0a8486, 2022-12-01)"
   xmlns:inkscape="http://www.inkscape.org/namespaces/inkscape"
   xmlns:sodipodi="http://sodipodi.sourceforge.net/DTD/sodipodi-0.dtd"
   xmlns="http://www.w3.org/2000/svg"
   xmlns:svg="http://www.w3.org/2000/svg"
   xmlns:ns3="http://www.iki.fi/pav/software/textext/">
  <sodipodi:namedview
     id="namedview7"
     pagecolor="#8a8a8a"
     bordercolor="#000000"
     borderopacity="0.25"
     inkscape:showpageshadow="2"
     inkscape:pageopacity="0"
     inkscape:pagecheckerboard="0"
     inkscape:deskcolor="#d1d1d1"
     inkscape:document-units="mm"
     showgrid="false"
     inkscape:zoom="5.9204414"
     inkscape:cx="28.207356"
     inkscape:cy="74.909955"
     inkscape:window-width="1440"
     inkscape:window-height="777"
     inkscape:window-x="0"
     inkscape:window-y="23"
     inkscape:window-maximized="0"
     inkscape:current-layer="svg5">
    <inkscape:grid
       type="xygrid"
       id="grid513" />
  </sodipodi:namedview>
  <defs
     id="defs2" />
  <path
     style="display:inline;fill:#ffff00;fill-opacity:0.505085;stroke:none;stroke-width:1.69677;stroke-linejoin:round;stroke-dasharray:none"
     d="m 264.61441,196.25002 21.73413,53.06631 -20.22217,20.22207 -21.73413,-53.06621 z"
     id="path949"
     transform="matrix(-0.11787129,0,0,-0.11787129,43.786663,35.32116)"
     sodipodi:nodetypes="ccccc"
     inkscape:label="gelbe Fläche oben hinten"
     inkscape:highlight-color="#fff155" />
  <path
     style="display:inline;fill:#0000ff;fill-opacity:0.505085;stroke:none;stroke-width:1.69677;stroke-linejoin:round;stroke-dasharray:none"
     d="m 287.8605,216.47218 4e-5,53.06628 -20.2222,20.22211 v -53.06622 z"
     id="path751"
     transform="matrix(-0.11787129,0,0,-0.11787129,46.526711,43.959756)"
     sodipodi:nodetypes="ccccc"
     inkscape:label="blaue Fläche hinten" />
  <path
     style="display:inline;fill:#ffff00;fill-opacity:0.505085;stroke:none;stroke-width:1.69677;stroke-linejoin:round;stroke-dasharray:none"
     d="m 264.61441,196.25002 21.73413,53.06631 -20.22217,20.22207 -21.73413,-53.06621 z"
     id="path2155"
     transform="matrix(-0.11787129,0,0,-0.11787129,46.348494,41.576142)"
     sodipodi:nodetypes="ccccc"
     inkscape:label="gelbe Fläche unten hinten"
     inkscape:highlight-color="#fff155" />
  <path
     style="display:inline;fill:#0000ff;fill-opacity:0.505085;stroke:none;stroke-width:1.69677;stroke-linejoin:round;stroke-dasharray:none"
     d="m 287.8605,216.47218 4e-5,53.06628 -20.2222,20.22211 v -53.06622 z"
     id="path1010"
     transform="matrix(-0.11787129,0,0,-0.11787129,46.526723,37.704781)"
     sodipodi:nodetypes="ccccc"
     inkscape:label="blaue Fläche hinten" />
  <g
     id="g1224"
     style="display:inline"
     transform="translate(-68.026738,-59.04738)">
    <path
       style="fill:#ffffff;stroke:#00ff00;stroke-width:0.755906"
       d="M 47.607754,46.068321 H 87.740452"
       id="path457"
       transform="matrix(0.26458333,0,0,0.26458333,68.026737,59.047379)" />
    <path
       style="fill:none;stroke:#00ff00;stroke-width:0.755906"
       d="m 95.795795,45.359557 h 3.777995 v 3.777995"
       id="path515"
       transform="matrix(0.18708867,0.18708867,-0.18708867,0.18708867,81.098529,44.120902)"
       inkscape:transform-center-x="0.35341024" />
  </g>
  <path
     style="display:inline;fill:none;stroke:#0000ff;stroke-width:0.755906;stroke-linejoin:round;stroke-dasharray:none"
     d="m 84.579103,78.732338 5e-6,23.640882"
     id="path1907"
     transform="matrix(0,0.26458333,-0.26458333,0,39.682476,-10.189312)"
     sodipodi:nodetypes="cc" />
  <path
     style="display:inline;fill:none;stroke:#0000ff;stroke-width:0.755906;stroke-linejoin:miter;stroke-dasharray:none"
     d="m 104.01389,32.190344 h 3.78253 v 3.76623"
     id="path2021"
     transform="matrix(0.18708872,0.18708861,-0.18708861,0.18708872,4.7061629,-14.001024)"
     inkscape:transform-center-x="0.35383463"
     inkscape:transform-center-y="-0.0015255526"
     inkscape:label="path2021" />
  <g
     inkscape:label="Pfeile"
     inkscape:groupmode="layer"
     id="layer1"
     transform="translate(-63.793399,-59.047379)"
     style="display:inline">
    <g
       id="g3134"
       transform="translate(5.3402807)">
      <path
         style="fill:none;stroke:#ff0000;stroke-width:0.755906;stroke-dasharray:none"
         d="m 232.21124,251.54726 h 50.48849"
         id="path1162"
         transform="matrix(0.26458333,0,0,0.26458333,3.5810959,0.40090544)" />
      <path
         style="fill:none;stroke:#ff0000;stroke-width:0.755906;stroke-dasharray:none"
         d="m 328.11617,259.4049 h 3.77316 v 3.77316"
         id="path1164"
         transform="matrix(0.18708867,0.18708867,-0.18708867,0.18708867,64.817718,-43.668331)"
         inkscape:transform-center-x="0.35295726"
         inkscape:transform-center-y="2.3003457e-06" />
    </g>
    <g
       id="g3140"
       transform="translate(5.34028,2.692671)">
      <path
         style="fill:none;stroke:#ff0000;stroke-width:0.755906;stroke-dasharray:none"
         d="m 232.21124,251.54726 h 50.48849"
         id="path3136"
         transform="matrix(0.26458333,0,0,0.26458333,3.5810959,0.40090544)" />
      <path
         style="fill:none;stroke:#ff0000;stroke-width:0.755906;stroke-dasharray:none"
         d="m 328.11617,259.4049 h 3.77316 v 3.77316"
         id="path3138"
         transform="matrix(0.18708867,0.18708867,-0.18708867,0.18708867,64.817718,-43.668331)"
         inkscape:transform-center-x="0.35295726"
         inkscape:transform-center-y="2.3003457e-06" />
    </g>
    <g
       id="g3152"
       transform="translate(5.3402785,8.5603393)">
      <path
         style="fill:none;stroke:#ff0000;stroke-width:0.755906;stroke-dasharray:none"
         d="m 232.21124,251.54726 h 50.48849"
         id="path3148"
         transform="matrix(0.26458333,0,0,0.26458333,3.5810959,0.40090544)" />
      <path
         style="fill:none;stroke:#ff0000;stroke-width:0.755906;stroke-dasharray:none"
         d="m 328.11617,259.4049 h 3.77316 v 3.77316"
         id="path3150"
         transform="matrix(0.18708867,0.18708867,-0.18708867,0.18708867,64.817718,-43.668331)"
         inkscape:transform-center-x="0.35295726"
         inkscape:transform-center-y="2.3003457e-06" />
    </g>
    <g
       id="g400"
       transform="translate(5.34028,5.8676712)">
      <path
         style="fill:none;stroke:#ff0000;stroke-width:0.755906;stroke-dasharray:none"
         d="m 232.21124,251.54726 h 50.48849"
         id="path396"
         transform="matrix(0.26458333,0,0,0.26458333,3.5810959,0.40090544)" />
      <path
         style="fill:none;stroke:#ff0000;stroke-width:0.755906;stroke-dasharray:none"
         d="m 328.11617,259.4049 h 3.77316 v 3.77316"
         id="path398"
         transform="matrix(0.18708867,0.18708867,-0.18708867,0.18708867,64.817718,-43.668331)"
         inkscape:transform-center-x="0.35295726"
         inkscape:transform-center-y="2.3003457e-06" />
    </g>
  </g>
  <path
     style="display:inline;fill:#0000ff;fill-opacity:0.505085;stroke:none;stroke-width:1.69677;stroke-linejoin:round;stroke-dasharray:none"
     d="m 287.8605,216.47218 4e-5,53.06628 -20.2222,20.22211 v -53.06622 z"
     id="path1014"
     transform="matrix(-0.11787129,0,0,-0.11787129,44.143097,46.343368)"
     sodipodi:nodetypes="ccccc"
     inkscape:label="blaue Fläche hinten" />
  <g
     inkscape:groupmode="layer"
     id="layer2"
     inkscape:label="e_I"
     transform="translate(-68.026737,-59.047379)"
     style="display:inline">
    <path
       style="display:inline;fill:none;stroke:#ff00ff;stroke-width:0.755906;stroke-dasharray:none"
       d="m 295.0342,269.23952 h 17.53752"
       id="path1158"
       transform="matrix(0.26458333,0,0,0.26458333,2.561834,-1.679545e-7)"
       sodipodi:nodetypes="cc" />
    <path
       style="display:inline;fill:none;stroke:#ff00ff;stroke-width:0.755906;stroke-dasharray:none"
       d="m 328.11617,259.4049 h 3.77316 v 3.77316"
       id="path1160"
       transform="matrix(0.18708867,0.18708867,-0.18708867,0.18708867,71.702087,-39.38816)"
       inkscape:transform-center-x="0.35295726"
       inkscape:transform-center-y="2.3003457e-06" />
    <g
       transform="matrix(0.35277801,0,0,0.35277801,83.549293,76.884741)"
       ns3:version="1.8.2"
       ns3:texconverter="pdflatex"
       ns3:pdfconverter="inkscape"
       ns3:text="$\\vec{e}_I$"
       ns3:preamble="/Users/hendrik/Library/Application Support/org.inkscape.Inkscape/config/inkscape/extensions/textext/default_packages.tex"
       ns3:scale="1.0000000566928784"
       ns3:alignment="middle center"
       ns3:stroke-to-path="0"
       ns3:inkscapeversion="1.2.2"
       ns3:jacobian_sqrt="0.352778"
       id="g2171"
       inkscape:label="e_I"
       style="fill:#ff00ff">
      <defs
         id="id-9bbef578-05f8-4800-b1b7-309ec53870db">
        <g
           id="id-2f67e1ad-6ff6-4448-a2fd-afa9cbe91ef8">
          <g
             id="id-57819840-5d36-45fe-ad17-39e3c6ed0292" />
          <g
             id="id-debd6ded-84e6-4c93-a5bd-f13990166296">
            <path
               d="m 5.359375,-5.9375 c -0.140625,0.140625 -0.46875,0.421875 -0.46875,0.59375 0,0.09375 0.09375,0.203125 0.1875,0.203125 0.09375,0 0.140625,-0.078125 0.203125,-0.140625 C 5.390625,-5.421875 5.625,-5.703125 6.0625,-5.921875 6.125,-5.96875 6.234375,-6.015625 6.234375,-6.125 6.234375,-6.234375 6.15625,-6.28125 6.09375,-6.328125 5.875,-6.484375 5.765625,-6.65625 5.6875,-6.890625 5.65625,-6.984375 5.625,-7.125 5.484375,-7.125 c -0.140625,0 -0.203125,0.140625 -0.203125,0.21875 0,0.046875 0.078125,0.359375 0.234375,0.578125 H 2.15625 c -0.15625,0 -0.34375,0 -0.34375,0.203125 0,0.1875 0.1875,0.1875 0.34375,0.1875 z m 0,0"
               id="id-e7337e31-b801-4357-8625-a8aa93f21f4b" />
          </g>
          <g
             id="id-7eb6c9b4-9759-45e4-b028-18c39eb0b8d0">
            <path
               d="m 1.859375,-2.296875 c 0.296875,0 1.03125,-0.03125 1.53125,-0.234375 0.703125,-0.296875 0.75,-0.890625 0.75,-1.03125 0,-0.4375 -0.375,-0.84375 -1.0625,-0.84375 -1.109375,0 -2.625,0.96875 -2.625,2.71875 0,1.015625 0.59375,1.796875 1.578125,1.796875 1.421875,0 2.25,-1.0625 2.25,-1.171875 0,-0.0625 -0.046875,-0.140625 -0.109375,-0.140625 -0.0625,0 -0.078125,0.03125 -0.140625,0.109375 -0.78125,0.984375 -1.875,0.984375 -1.984375,0.984375 -0.78125,0 -0.875,-0.84375 -0.875,-1.15625 0,-0.125 0.015625,-0.421875 0.15625,-1.03125 z m -0.46875,-0.21875 C 1.78125,-4.03125 2.8125,-4.1875 3.078125,-4.1875 c 0.453125,0 0.734375,0.296875 0.734375,0.625 0,1.046875 -1.59375,1.046875 -2.015625,1.046875 z m 0,0"
               id="id-bdf5fbfc-a283-4959-8156-14cc80dbc5d5" />
          </g>
          <g
             id="id-6135fa40-8620-4d19-820b-1a25108783e2" />
          <g
             id="id-9d7cb61b-6fd9-4dd4-bdbc-1e8b75de49be">
            <path
               d="m 2.875,-4.203125 c 0.0625,-0.25 0.078125,-0.3125 0.609375,-0.3125 0.171875,0 0.25,0 0.25,-0.140625 0,-0.0625 -0.046875,-0.109375 -0.109375,-0.109375 -0.140625,0 -0.328125,0.03125 -0.46875,0.03125 -0.15625,0 -0.3125,0 -0.46875,0 0,0 -0.484375,0 -0.484375,0 -0.15625,0 -0.328125,-0.03125 -0.484375,-0.03125 -0.046875,0 -0.140625,0 -0.140625,0.15625 0,0.09375 0.078125,0.09375 0.234375,0.09375 0,0 0.140625,0 0.25,0.015625 0.140625,0.015625 0.203125,0.03125 0.203125,0.109375 0,0.03125 -0.015625,0.078125 -0.03125,0.140625 l -0.9375,3.703125 C 1.25,-0.328125 1.21875,-0.25 0.703125,-0.25 c -0.1875,0 -0.25,0 -0.25,0.15625 0,0 0,0.09375 0.109375,0.09375 C 0.765625,0 1.296875,-0.03125 1.5,-0.03125 l 0.484375,0.015625 C 2.125,-0.015625 2.3125,0 2.453125,0 2.5,0 2.609375,0 2.609375,-0.15625 2.609375,-0.25 2.515625,-0.25 2.390625,-0.25 2.375,-0.25 2.21875,-0.25 2.078125,-0.265625 1.921875,-0.28125 1.921875,-0.3125 1.921875,-0.375 c 0,0 0,-0.046875 0.03125,-0.140625 z m 0,0"
               id="id-b3784137-05ce-4e11-bc4b-baba723c7a80" />
          </g>
        </g>
      </defs>
      <g
         fill="#000000"
         fill-opacity="1"
         id="id-d536b181-5c1c-440b-8f23-4a21aa1a1b91"
         transform="translate(-149.17,-127.64)"
         style="fill:#ff00ff">
        <g
           transform="translate(148.328,134.765)"
           id="g2160"
           style="fill:#ff00ff">
          <path
             d="m 5.359375,-5.9375 c -0.140625,0.140625 -0.46875,0.421875 -0.46875,0.59375 0,0.09375 0.09375,0.203125 0.1875,0.203125 0.09375,0 0.140625,-0.078125 0.203125,-0.140625 C 5.390625,-5.421875 5.625,-5.703125 6.0625,-5.921875 6.125,-5.96875 6.234375,-6.015625 6.234375,-6.125 6.234375,-6.234375 6.15625,-6.28125 6.09375,-6.328125 5.875,-6.484375 5.765625,-6.65625 5.6875,-6.890625 5.65625,-6.984375 5.625,-7.125 5.484375,-7.125 c -0.140625,0 -0.203125,0.140625 -0.203125,0.21875 0,0.046875 0.078125,0.359375 0.234375,0.578125 H 2.15625 c -0.15625,0 -0.34375,0 -0.34375,0.203125 0,0.1875 0.1875,0.1875 0.34375,0.1875 z m 0,0"
             id="id-e4d2f662-2aca-44f6-a7a7-399523ec99c7"
             style="fill:#ff00ff" />
        </g>
      </g>
      <g
         fill="#000000"
         fill-opacity="1"
         id="id-9006111b-834d-4a1e-b331-9dfda275ae7d"
         transform="translate(-149.17,-127.64)"
         style="fill:#ff00ff">
        <g
           transform="translate(148.717,134.765)"
           id="g2164"
           style="fill:#ff00ff">
          <path
             d="m 1.859375,-2.296875 c 0.296875,0 1.03125,-0.03125 1.53125,-0.234375 0.703125,-0.296875 0.75,-0.890625 0.75,-1.03125 0,-0.4375 -0.375,-0.84375 -1.0625,-0.84375 -1.109375,0 -2.625,0.96875 -2.625,2.71875 0,1.015625 0.59375,1.796875 1.578125,1.796875 1.421875,0 2.25,-1.0625 2.25,-1.171875 0,-0.0625 -0.046875,-0.140625 -0.109375,-0.140625 -0.0625,0 -0.078125,0.03125 -0.140625,0.109375 -0.78125,0.984375 -1.875,0.984375 -1.984375,0.984375 -0.78125,0 -0.875,-0.84375 -0.875,-1.15625 0,-0.125 0.015625,-0.421875 0.15625,-1.03125 z m -0.46875,-0.21875 C 1.78125,-4.03125 2.8125,-4.1875 3.078125,-4.1875 c 0.453125,0 0.734375,0.296875 0.734375,0.625 0,1.046875 -1.59375,1.046875 -2.015625,1.046875 z m 0,0"
             id="id-75ecb4b3-f512-47ec-90f9-701563748781"
             style="fill:#ff00ff" />
        </g>
      </g>
      <g
         fill="#000000"
         fill-opacity="1"
         id="id-ae858a0e-abf5-4540-8100-5cdbf2e92dc6"
         transform="translate(-149.17,-127.64)"
         style="fill:#ff00ff">
        <g
           transform="translate(153.351,136.259)"
           id="g2168"
           style="fill:#ff00ff">
          <path
             d="m 2.875,-4.203125 c 0.0625,-0.25 0.078125,-0.3125 0.609375,-0.3125 0.171875,0 0.25,0 0.25,-0.140625 0,-0.0625 -0.046875,-0.109375 -0.109375,-0.109375 -0.140625,0 -0.328125,0.03125 -0.46875,0.03125 -0.15625,0 -0.3125,0 -0.46875,0 0,0 -0.484375,0 -0.484375,0 -0.15625,0 -0.328125,-0.03125 -0.484375,-0.03125 -0.046875,0 -0.140625,0 -0.140625,0.15625 0,0.09375 0.078125,0.09375 0.234375,0.09375 0,0 0.140625,0 0.25,0.015625 0.140625,0.015625 0.203125,0.03125 0.203125,0.109375 0,0.03125 -0.015625,0.078125 -0.03125,0.140625 l -0.9375,3.703125 C 1.25,-0.328125 1.21875,-0.25 0.703125,-0.25 c -0.1875,0 -0.25,0 -0.25,0.15625 0,0 0,0.09375 0.109375,0.09375 C 0.765625,0 1.296875,-0.03125 1.5,-0.03125 l 0.484375,0.015625 C 2.125,-0.015625 2.3125,0 2.453125,0 2.5,0 2.609375,0 2.609375,-0.15625 2.609375,-0.25 2.515625,-0.25 2.390625,-0.25 2.375,-0.25 2.21875,-0.25 2.078125,-0.265625 1.921875,-0.28125 1.921875,-0.3125 1.921875,-0.375 c 0,0 0,-0.046875 0.03125,-0.140625 z m 0,0"
             id="id-7d79b340-15ba-40b5-9a66-7150adaed744"
             style="fill:#ff00ff" />
        </g>
      </g>
    </g>
    <g
       transform="matrix(0.352778,0,0,0.352778,89.895456,72.719496)"
       ns3:version="1.8.2"
       ns3:texconverter="pdflatex"
       ns3:pdfconverter="inkscape"
       ns3:text="$\\vec{j}$"
       ns3:preamble="/Users/hendrik/Library/Application Support/org.inkscape.Inkscape/config/inkscape/extensions/textext/default_packages.tex"
       ns3:scale="1.0000000850393187"
       ns3:alignment="middle center"
       ns3:stroke-to-path="0"
       ns3:inkscapeversion="1.2.2"
       ns3:jacobian_sqrt="0.352778"
       style="fill:#00ff00;stroke-width:0"
       id="g1271">
      <defs
         id="id-d5034f6e-5be4-46ad-b970-4b93866dc1b6"
         style="fill:#00ff00;stroke-width:0">
        <g
           id="id-449ef31a-1060-40b9-bbe2-67a7e5d29f67"
           style="fill:#00ff00;stroke-width:0">
          <g
             id="id-4da2cc77-0f9d-4576-8e29-c343bc92e74c"
             style="fill:#00ff00;stroke-width:0" />
          <g
             id="id-1f51def8-eb43-4520-81c2-9706599818f3"
             style="fill:#00ff00;stroke-width:0">
            <path
               d="m 5.359375,-5.9375 c -0.140625,0.140625 -0.46875,0.421875 -0.46875,0.59375 0,0.09375 0.09375,0.203125 0.1875,0.203125 0.09375,0 0.140625,-0.078125 0.203125,-0.140625 C 5.390625,-5.421875 5.625,-5.703125 6.0625,-5.921875 6.125,-5.96875 6.234375,-6.015625 6.234375,-6.125 6.234375,-6.234375 6.15625,-6.28125 6.09375,-6.328125 5.875,-6.484375 5.765625,-6.65625 5.6875,-6.890625 5.65625,-6.984375 5.625,-7.125 5.484375,-7.125 c -0.140625,0 -0.203125,0.140625 -0.203125,0.21875 0,0.046875 0.078125,0.359375 0.234375,0.578125 H 2.15625 c -0.15625,0 -0.34375,0 -0.34375,0.203125 0,0.1875 0.1875,0.1875 0.34375,0.1875 z m 0,0"
               id="id-89fbfe84-6c0e-4883-afe6-c655d4249229"
               style="fill:#00ff00;stroke-width:0" />
          </g>
          <g
             id="id-4b6f7fd9-3311-4587-b61b-e6fa77cf0e51"
             style="fill:#00ff00;stroke-width:0">
            <path
               d="m 3.953125,-6.234375 c 0,-0.1875 -0.140625,-0.359375 -0.375,-0.359375 -0.234375,0 -0.53125,0.234375 -0.53125,0.53125 0,0.203125 0.140625,0.359375 0.375,0.359375 0.265625,0 0.53125,-0.265625 0.53125,-0.53125 z m -2,6.734375 c -0.1875,0.75 -0.671875,1.328125 -1.21875,1.328125 -0.0625,0 -0.21875,0 -0.390625,-0.09375 0.296875,-0.0625 0.4375,-0.328125 0.4375,-0.53125 0,-0.15625 -0.109375,-0.34375 -0.375,-0.34375 -0.25,0 -0.53125,0.203125 -0.53125,0.5625 0,0.40625 0.390625,0.625 0.875,0.625 0.703125,0 1.625,-0.53125 1.875,-1.515625 L 3.53125,-3.125 c 0.0625,-0.1875 0.0625,-0.328125 0.0625,-0.359375 0,-0.578125 -0.421875,-0.921875 -0.921875,-0.921875 -1.015625,0 -1.578125,1.453125 -1.578125,1.53125 0,0.109375 0.09375,0.109375 0.109375,0.109375 0.09375,0 0.109375,-0.015625 0.1875,-0.203125 0.25,-0.609375 0.703125,-1.21875 1.25,-1.21875 0.140625,0 0.3125,0.046875 0.3125,0.453125 0,0.234375 -0.015625,0.34375 -0.0625,0.515625 z m 0,0"
               id="id-6e40de6f-a9ac-457a-b40d-f08a5b257a4e"
               style="fill:#00ff00;stroke-width:0" />
          </g>
        </g>
      </defs>
      <g
         fill-opacity="1"
         id="id-e8a1a855-51f6-4b68-91fb-cfb2dcf502d7"
         transform="translate(-148.587,-125.358)"
         style="fill:#00ff00;stroke-width:0">
        <g
           transform="translate(147.792,132.483)"
           style="fill:#00ff00;stroke-width:0"
           id="g1473">
          <path
             d="m 5.359375,-5.9375 c -0.140625,0.140625 -0.46875,0.421875 -0.46875,0.59375 0,0.09375 0.09375,0.203125 0.1875,0.203125 0.09375,0 0.140625,-0.078125 0.203125,-0.140625 C 5.390625,-5.421875 5.625,-5.703125 6.0625,-5.921875 6.125,-5.96875 6.234375,-6.015625 6.234375,-6.125 6.234375,-6.234375 6.15625,-6.28125 6.09375,-6.328125 5.875,-6.484375 5.765625,-6.65625 5.6875,-6.890625 5.65625,-6.984375 5.625,-7.125 5.484375,-7.125 c -0.140625,0 -0.203125,0.140625 -0.203125,0.21875 0,0.046875 0.078125,0.359375 0.234375,0.578125 H 2.15625 c -0.15625,0 -0.34375,0 -0.34375,0.203125 0,0.1875 0.1875,0.1875 0.34375,0.1875 z m 0,0"
             id="id-58eee395-b881-428c-a3d6-3ea699df3475"
             style="fill:#00ff00;stroke-width:0" />
        </g>
      </g>
      <g
         fill-opacity="1"
         id="id-7d893d52-94b6-4e34-9569-8b49c4b6fe40"
         transform="translate(-148.587,-125.358)"
         style="fill:#00ff00;stroke-width:0">
        <g
           transform="translate(148.712,134.765)"
           style="fill:#00ff00;stroke-width:0"
           id="g1477">
          <path
             d="m 3.953125,-6.234375 c 0,-0.1875 -0.140625,-0.359375 -0.375,-0.359375 -0.234375,0 -0.53125,0.234375 -0.53125,0.53125 0,0.203125 0.140625,0.359375 0.375,0.359375 0.265625,0 0.53125,-0.265625 0.53125,-0.53125 z m -2,6.734375 c -0.1875,0.75 -0.671875,1.328125 -1.21875,1.328125 -0.0625,0 -0.21875,0 -0.390625,-0.09375 0.296875,-0.0625 0.4375,-0.328125 0.4375,-0.53125 0,-0.15625 -0.109375,-0.34375 -0.375,-0.34375 -0.25,0 -0.53125,0.203125 -0.53125,0.5625 0,0.40625 0.390625,0.625 0.875,0.625 0.703125,0 1.625,-0.53125 1.875,-1.515625 L 3.53125,-3.125 c 0.0625,-0.1875 0.0625,-0.328125 0.0625,-0.359375 0,-0.578125 -0.421875,-0.921875 -0.921875,-0.921875 -1.015625,0 -1.578125,1.453125 -1.578125,1.53125 0,0.109375 0.09375,0.109375 0.109375,0.109375 0.09375,0 0.109375,-0.015625 0.1875,-0.203125 0.25,-0.609375 0.703125,-1.21875 1.25,-1.21875 0.140625,0 0.3125,0.046875 0.3125,0.453125 0,0.234375 -0.015625,0.34375 -0.0625,0.515625 z m 0,0"
             id="id-782eeec2-2d8c-4a61-a64e-1886a8176bbf"
             style="fill:#00ff00;stroke-width:0" />
        </g>
      </g>
    </g>
  </g>
  <g
     id="g1769"
     transform="translate(-2.1038544,-2.387826)"
     style="display:inline;stroke:#000000">
    <path
       style="display:inline;fill:#ff0000;fill-opacity:0.505085;stroke:#000000;stroke-width:0.377953;stroke-dasharray:none"
       d="m 245.74609,308.73717 h 50.48848"
       id="path3125"
       transform="matrix(0.26458333,0,0,0.26458333,-56.349262,-57.102643)"
       sodipodi:nodetypes="cc" />
    <path
       style="display:inline;fill:#ff0000;fill-opacity:0.505085;stroke:#000000;stroke-width:0.377953;stroke-dasharray:none"
       d="m 246.35618,303.31119 v 3.76684"
       id="path3127"
       transform="matrix(0.26458333,0,0,0.26458333,-56.460682,-56.165341)" />
    <path
       style="display:inline;fill:#ff0000;fill-opacity:0.505085;stroke:#000000;stroke-width:0.377953;stroke-dasharray:none"
       d="m 246.35618,303.31119 v 3.76684"
       id="path3129"
       transform="matrix(0.26458333,0,0,0.26458333,-43.202272,-56.165341)" />
  </g>
  <g
     transform="matrix(0.352778,0,0,0.352778,3.640387,1.6087328)"
     ns3:version="1.8.2"
     ns3:texconverter="pdflatex"
     ns3:pdfconverter="inkscape"
     ns3:text="$\\text{d}\\vec{A}$"
     ns3:preamble="/Users/hendrik/Library/Application Support/org.inkscape.Inkscape/config/inkscape/extensions/textext/default_packages.tex"
     ns3:scale="1.0000000566928784"
     ns3:alignment="middle center"
     ns3:stroke-to-path="0"
     ns3:inkscapeversion="1.2.2"
     ns3:jacobian_sqrt="0.352778"
     id="g1465"
     style="display:inline;fill:#ffff00"
     inkscape:label="dA">
    <defs
       id="id-9445b737-e8d6-46c5-8938-bce0d61a9d80">
      <g
         id="id-4054facc-7b51-4d3e-a50f-6cee5ac93b83">
        <g
           id="id-cbc105fe-698f-434a-a292-89eaf5f2108c" />
        <g
           id="id-b6bb39d2-235f-4f2f-81f6-624fe0fce036">
          <path
             d="m 3.78125,-0.546875 v 0.65625 L 5.25,0 v -0.3125 c -0.6875,0 -0.78125,-0.0625 -0.78125,-0.5625 V -6.921875 L 3.046875,-6.8125 V -6.5 c 0.6875,0 0.765625,0.0625 0.765625,0.5625 v 2.15625 c -0.28125,-0.359375 -0.71875,-0.625 -1.25,-0.625 -1.171875,0 -2.21875,0.984375 -2.21875,2.265625 0,1.265625 0.96875,2.25 2.109375,2.25 0.640625,0 1.078125,-0.34375 1.328125,-0.65625 z m 0,-2.671875 v 2.046875 c 0,0.171875 0,0.1875 -0.109375,0.359375 C 3.375,-0.328125 2.9375,-0.109375 2.5,-0.109375 2.046875,-0.109375 1.6875,-0.375 1.453125,-0.75 1.203125,-1.15625 1.171875,-1.71875 1.171875,-2.140625 1.171875,-2.5 1.1875,-3.09375 1.46875,-3.546875 1.6875,-3.859375 2.0625,-4.1875 2.609375,-4.1875 c 0.34375,0 0.765625,0.15625 1.0625,0.59375 0.109375,0.171875 0.109375,0.1875 0.109375,0.375 z m 0,0"
             id="id-64a6f3f5-db5a-4bfd-a09f-6d6d42d387b2" />
        </g>
        <g
           id="id-84eea8ce-16ae-4d23-9ff7-4c13667af48e" />
        <g
           id="id-88bd3c07-f58a-4df9-bcd4-597901270b12">
          <path
             d="m 5.359375,-5.9375 c -0.140625,0.140625 -0.46875,0.421875 -0.46875,0.59375 0,0.09375 0.09375,0.203125 0.1875,0.203125 0.09375,0 0.140625,-0.078125 0.203125,-0.140625 C 5.390625,-5.421875 5.625,-5.703125 6.0625,-5.921875 6.125,-5.96875 6.234375,-6.015625 6.234375,-6.125 6.234375,-6.234375 6.15625,-6.28125 6.09375,-6.328125 5.875,-6.484375 5.765625,-6.65625 5.6875,-6.890625 5.65625,-6.984375 5.625,-7.125 5.484375,-7.125 c -0.140625,0 -0.203125,0.140625 -0.203125,0.21875 0,0.046875 0.078125,0.359375 0.234375,0.578125 H 2.15625 c -0.15625,0 -0.34375,0 -0.34375,0.203125 0,0.1875 0.1875,0.1875 0.34375,0.1875 z m 0,0"
             id="id-667e67d3-6457-4f79-a4c2-742abfe1341f" />
        </g>
        <g
           id="id-10c9b7a5-19ff-4e3d-aa86-e4fe39563843">
          <path
             d="M 1.78125,-1.140625 C 1.390625,-0.484375 1,-0.34375 0.5625,-0.3125 0.4375,-0.296875 0.34375,-0.296875 0.34375,-0.109375 0.34375,-0.046875 0.40625,0 0.484375,0 0.75,0 1.0625,-0.03125 1.328125,-0.03125 c 0.34375,0 0.6875,0.03125 1,0.03125 0.0625,0 0.1875,0 0.1875,-0.1875 0,-0.109375 -0.078125,-0.125 -0.15625,-0.125 -0.21875,-0.015625 -0.46875,-0.09375 -0.46875,-0.34375 0,-0.125 0.0625,-0.234375 0.140625,-0.375 l 0.765625,-1.265625 h 2.5 c 0.015625,0.203125 0.15625,1.5625 0.15625,1.65625 0,0.296875 -0.515625,0.328125 -0.71875,0.328125 C 4.59375,-0.3125 4.5,-0.3125 4.5,-0.109375 4.5,0 4.609375,0 4.640625,0 5.046875,0 5.46875,-0.03125 5.875,-0.03125 6.125,-0.03125 6.765625,0 7.015625,0 7.0625,0 7.1875,0 7.1875,-0.203125 7.1875,-0.3125 7.09375,-0.3125 6.953125,-0.3125 6.34375,-0.3125 6.34375,-0.375 6.3125,-0.671875 l -0.609375,-6.21875 c -0.015625,-0.203125 -0.015625,-0.25 -0.1875,-0.25 -0.15625,0 -0.203125,0.078125 -0.265625,0.171875 z M 2.984375,-2.609375 4.9375,-5.90625 5.265625,-2.609375 Z m 0,0"
             id="id-bd905f8e-4017-4b68-8d30-3b6e93177258" />
        </g>
      </g>
    </defs>
    <g
       fill="#000000"
       fill-opacity="1"
       id="id-b7659110-01da-4c67-8e5f-8f3476874d39"
       transform="translate(-149.056,-125.121)"
       style="fill:#ffff00">
      <g
         transform="translate(148.712,134.765)"
         id="g1454"
         style="fill:#ffff00">
        <path
           d="m 3.78125,-0.546875 v 0.65625 L 5.25,0 v -0.3125 c -0.6875,0 -0.78125,-0.0625 -0.78125,-0.5625 V -6.921875 L 3.046875,-6.8125 V -6.5 c 0.6875,0 0.765625,0.0625 0.765625,0.5625 v 2.15625 c -0.28125,-0.359375 -0.71875,-0.625 -1.25,-0.625 -1.171875,0 -2.21875,0.984375 -2.21875,2.265625 0,1.265625 0.96875,2.25 2.109375,2.25 0.640625,0 1.078125,-0.34375 1.328125,-0.65625 z m 0,-2.671875 v 2.046875 c 0,0.171875 0,0.1875 -0.109375,0.359375 C 3.375,-0.328125 2.9375,-0.109375 2.5,-0.109375 2.046875,-0.109375 1.6875,-0.375 1.453125,-0.75 1.203125,-1.15625 1.171875,-1.71875 1.171875,-2.140625 1.171875,-2.5 1.1875,-3.09375 1.46875,-3.546875 1.6875,-3.859375 2.0625,-4.1875 2.609375,-4.1875 c 0.34375,0 0.765625,0.15625 1.0625,0.59375 0.109375,0.171875 0.109375,0.1875 0.109375,0.375 z m 0,0"
           id="id-6d9e8988-fa36-4f94-9f0c-9fd3191608e1"
           style="fill:#ffff00" />
      </g>
    </g>
    <g
       fill="#000000"
       fill-opacity="1"
       id="id-d9c3bded-28d4-432f-aefd-024fd97b31ab"
       transform="translate(-149.056,-125.121)"
       style="fill:#ffff00">
      <g
         transform="translate(156.11,132.246)"
         id="g1458"
         style="fill:#ffff00">
        <path
           d="m 5.359375,-5.9375 c -0.140625,0.140625 -0.46875,0.421875 -0.46875,0.59375 0,0.09375 0.09375,0.203125 0.1875,0.203125 0.09375,0 0.140625,-0.078125 0.203125,-0.140625 C 5.390625,-5.421875 5.625,-5.703125 6.0625,-5.921875 6.125,-5.96875 6.234375,-6.015625 6.234375,-6.125 6.234375,-6.234375 6.15625,-6.28125 6.09375,-6.328125 5.875,-6.484375 5.765625,-6.65625 5.6875,-6.890625 5.65625,-6.984375 5.625,-7.125 5.484375,-7.125 c -0.140625,0 -0.203125,0.140625 -0.203125,0.21875 0,0.046875 0.078125,0.359375 0.234375,0.578125 H 2.15625 c -0.15625,0 -0.34375,0 -0.34375,0.203125 0,0.1875 0.1875,0.1875 0.34375,0.1875 z m 0,0"
           id="id-76e98279-02d9-4299-9d77-fcbd49db1aa4"
           style="fill:#ffff00" />
      </g>
    </g>
    <g
       fill="#000000"
       fill-opacity="1"
       id="id-815832e4-c1e3-4435-9d2d-45c17fb7e509"
       transform="translate(-149.056,-125.121)"
       style="fill:#ffff00">
      <g
         transform="translate(154.247,134.765)"
         id="g1462"
         style="fill:#ffff00">
        <path
           d="M 1.78125,-1.140625 C 1.390625,-0.484375 1,-0.34375 0.5625,-0.3125 0.4375,-0.296875 0.34375,-0.296875 0.34375,-0.109375 0.34375,-0.046875 0.40625,0 0.484375,0 0.75,0 1.0625,-0.03125 1.328125,-0.03125 c 0.34375,0 0.6875,0.03125 1,0.03125 0.0625,0 0.1875,0 0.1875,-0.1875 0,-0.109375 -0.078125,-0.125 -0.15625,-0.125 -0.21875,-0.015625 -0.46875,-0.09375 -0.46875,-0.34375 0,-0.125 0.0625,-0.234375 0.140625,-0.375 l 0.765625,-1.265625 h 2.5 c 0.015625,0.203125 0.15625,1.5625 0.15625,1.65625 0,0.296875 -0.515625,0.328125 -0.71875,0.328125 C 4.59375,-0.3125 4.5,-0.3125 4.5,-0.109375 4.5,0 4.609375,0 4.640625,0 5.046875,0 5.46875,-0.03125 5.875,-0.03125 6.125,-0.03125 6.765625,0 7.015625,0 7.0625,0 7.1875,0 7.1875,-0.203125 7.1875,-0.3125 7.09375,-0.3125 6.953125,-0.3125 6.34375,-0.3125 6.34375,-0.375 6.3125,-0.671875 l -0.609375,-6.21875 c -0.015625,-0.203125 -0.015625,-0.25 -0.1875,-0.25 -0.15625,0 -0.203125,0.078125 -0.265625,0.171875 z M 2.984375,-2.609375 4.9375,-5.90625 5.265625,-2.609375 Z m 0,0"
           id="id-de2492a7-a3f5-40e2-845f-b7e23c6de403"
           style="fill:#ffff00" />
      </g>
    </g>
  </g>
  <path
     style="display:inline;fill:#ffff00;fill-opacity:0.505085;stroke:none;stroke-width:1.69677;stroke-linejoin:round;stroke-dasharray:none"
     d="m 264.61441,196.25002 21.73413,53.06631 -20.22217,20.22207 -21.73413,-53.06621 z"
     id="path951"
     transform="matrix(-0.11787129,0,0,-0.11787129,41.403051,37.704762)"
     sodipodi:nodetypes="ccccc"
     inkscape:label="gelbe Fläche oben vorne"
     inkscape:highlight-color="#fff155" />
  <path
     style="display:inline;fill:#ffff00;fill-opacity:0.505085;stroke:none;stroke-width:1.69677;stroke-linejoin:round;stroke-dasharray:none"
     d="m 264.61441,196.25002 21.73409,53.06613 -20.22215,20.22221 -21.73411,-53.06617 z"
     id="path379"
     transform="matrix(-0.11787129,0,0,-0.11787129,43.964883,43.959751)"
     sodipodi:nodetypes="ccccc"
     inkscape:label="gelbe Fläche unten vorne"
     inkscape:highlight-color="#f8ff55" />
  <path
     style="display:inline;fill:none;stroke:#ffff00;stroke-width:0.755906;stroke-linejoin:round;stroke-dasharray:none"
     d="m 74.896601,78.732338 9.682507,23.640882"
     id="path1725"
     transform="matrix(0,0.26458333,-0.26458333,0,39.682469,-10.189305)" />
  <path
     style="display:inline;fill:none;stroke:#ffff00;stroke-width:0.755906;stroke-linejoin:miter;stroke-dasharray:none"
     d="m 104.01389,32.190344 h 3.78253 v 3.76623"
     id="path1785"
     transform="matrix(0.2440389,0.10222209,-0.10222209,0.2440389,-4.164747,-9.2477896)"
     inkscape:transform-center-x="0.46154221"
     inkscape:transform-center-y="0.26622483" />
  <g
     transform="matrix(0.352778,0,0,0.352778,17.215248,1.6087328)"
     ns3:version="1.8.2"
     ns3:texconverter="pdflatex"
     ns3:pdfconverter="inkscape"
     ns3:text="$\\text{d}\\vec{A}_\\perp$"
     ns3:preamble="/Users/hendrik/Library/Application Support/org.inkscape.Inkscape/config/inkscape/extensions/textext/default_packages.tex"
     ns3:scale="1.0000000566928784"
     ns3:alignment="middle center"
     ns3:stroke-to-path="0"
     ns3:inkscapeversion="1.2.2"
     ns3:jacobian_sqrt="0.352778"
     style="display:inline;fill:#0000ff;stroke-width:0"
     id="g1236"
     inkscape:label="dA perp">
    <defs
       id="id-68c0e5a7-1912-4483-b056-3c69a44f4f9d"
       style="fill:#0000ff;stroke-width:0">
      <g
         id="id-edccbc88-4dd5-489b-995c-f1db46b6d5e4"
         style="fill:#0000ff;stroke-width:0">
        <g
           id="id-bc34912f-360a-48f7-a7a1-1d7b3e4ce688"
           style="fill:#0000ff;stroke-width:0" />
        <g
           id="id-8e100777-dac2-451c-b7ce-7b02e61264d6"
           style="fill:#0000ff;stroke-width:0">
          <path
             d="m 3.78125,-0.546875 v 0.65625 L 5.25,0 v -0.3125 c -0.6875,0 -0.78125,-0.0625 -0.78125,-0.5625 V -6.921875 L 3.046875,-6.8125 V -6.5 c 0.6875,0 0.765625,0.0625 0.765625,0.5625 v 2.15625 c -0.28125,-0.359375 -0.71875,-0.625 -1.25,-0.625 -1.171875,0 -2.21875,0.984375 -2.21875,2.265625 0,1.265625 0.96875,2.25 2.109375,2.25 0.640625,0 1.078125,-0.34375 1.328125,-0.65625 z m 0,-2.671875 v 2.046875 c 0,0.171875 0,0.1875 -0.109375,0.359375 C 3.375,-0.328125 2.9375,-0.109375 2.5,-0.109375 2.046875,-0.109375 1.6875,-0.375 1.453125,-0.75 1.203125,-1.15625 1.171875,-1.71875 1.171875,-2.140625 1.171875,-2.5 1.1875,-3.09375 1.46875,-3.546875 1.6875,-3.859375 2.0625,-4.1875 2.609375,-4.1875 c 0.34375,0 0.765625,0.15625 1.0625,0.59375 0.109375,0.171875 0.109375,0.1875 0.109375,0.375 z m 0,0"
             id="id-17773dc5-5888-45ed-bc56-e20167e6ad40"
             style="fill:#0000ff;stroke-width:0" />
        </g>
        <g
           id="id-795115e9-4704-4607-8112-56060939d622"
           style="fill:#0000ff;stroke-width:0" />
        <g
           id="id-7aec4ae6-5897-42b2-9b91-ee5fe004bb85"
           style="fill:#0000ff;stroke-width:0">
          <path
             d="m 5.359375,-5.9375 c -0.140625,0.140625 -0.46875,0.421875 -0.46875,0.59375 0,0.09375 0.09375,0.203125 0.1875,0.203125 0.09375,0 0.140625,-0.078125 0.203125,-0.140625 C 5.390625,-5.421875 5.625,-5.703125 6.0625,-5.921875 6.125,-5.96875 6.234375,-6.015625 6.234375,-6.125 6.234375,-6.234375 6.15625,-6.28125 6.09375,-6.328125 5.875,-6.484375 5.765625,-6.65625 5.6875,-6.890625 5.65625,-6.984375 5.625,-7.125 5.484375,-7.125 c -0.140625,0 -0.203125,0.140625 -0.203125,0.21875 0,0.046875 0.078125,0.359375 0.234375,0.578125 H 2.15625 c -0.15625,0 -0.34375,0 -0.34375,0.203125 0,0.1875 0.1875,0.1875 0.34375,0.1875 z m 0,0"
             id="id-da44b070-94c3-4bb4-a27d-4a1afd642dc0"
             style="fill:#0000ff;stroke-width:0" />
        </g>
        <g
           id="id-d74ab800-9962-47cc-8756-413da50ccbc2"
           style="fill:#0000ff;stroke-width:0">
          <path
             d="M 1.78125,-1.140625 C 1.390625,-0.484375 1,-0.34375 0.5625,-0.3125 0.4375,-0.296875 0.34375,-0.296875 0.34375,-0.109375 0.34375,-0.046875 0.40625,0 0.484375,0 0.75,0 1.0625,-0.03125 1.328125,-0.03125 c 0.34375,0 0.6875,0.03125 1,0.03125 0.0625,0 0.1875,0 0.1875,-0.1875 0,-0.109375 -0.078125,-0.125 -0.15625,-0.125 -0.21875,-0.015625 -0.46875,-0.09375 -0.46875,-0.34375 0,-0.125 0.0625,-0.234375 0.140625,-0.375 l 0.765625,-1.265625 h 2.5 c 0.015625,0.203125 0.15625,1.5625 0.15625,1.65625 0,0.296875 -0.515625,0.328125 -0.71875,0.328125 C 4.59375,-0.3125 4.5,-0.3125 4.5,-0.109375 4.5,0 4.609375,0 4.640625,0 5.046875,0 5.46875,-0.03125 5.875,-0.03125 6.125,-0.03125 6.765625,0 7.015625,0 7.0625,0 7.1875,0 7.1875,-0.203125 7.1875,-0.3125 7.09375,-0.3125 6.953125,-0.3125 6.34375,-0.3125 6.34375,-0.375 6.3125,-0.671875 l -0.609375,-6.21875 c -0.015625,-0.203125 -0.015625,-0.25 -0.1875,-0.25 -0.15625,0 -0.203125,0.078125 -0.265625,0.171875 z M 2.984375,-2.609375 4.9375,-5.90625 5.265625,-2.609375 Z m 0,0"
             id="id-ab3221ff-0a3f-4d91-b0d0-89700a074c96"
             style="fill:#0000ff;stroke-width:0" />
        </g>
        <g
           id="id-97c51845-a13c-41f4-a8d2-2a0bc323931a"
           style="fill:#0000ff;stroke-width:0" />
        <g
           id="id-3e069bcb-a785-42b6-96e2-acd9ec7f6c5e"
           style="fill:#0000ff;stroke-width:0">
          <path
             d="m 3.28125,-4.5625 c 0,-0.109375 0,-0.28125 -0.171875,-0.28125 -0.171875,0 -0.171875,0.171875 -0.171875,0.28125 v 4.21875 h -2.125 c -0.109375,0 -0.28125,0 -0.28125,0.171875 C 0.53125,0 0.703125,0 0.8125,0 H 5.40625 C 5.515625,0 5.6875,0 5.6875,-0.171875 5.6875,-0.34375 5.53125,-0.34375 5.40625,-0.34375 h -2.125 z m 0,0"
             id="id-acf7bf09-1313-42ba-84f6-f141d1107373"
             style="fill:#0000ff;stroke-width:0" />
        </g>
      </g>
    </defs>
    <g
       fill-opacity="1"
       id="id-fdc7783e-9e73-4499-9a76-27696f8d8d99"
       transform="translate(-149.056,-125.121)"
       style="fill:#0000ff;stroke-width:0">
      <g
         transform="translate(148.712,134.765)"
         style="fill:#0000ff;stroke-width:0"
         id="g2395">
        <path
           d="m 3.78125,-0.546875 v 0.65625 L 5.25,0 v -0.3125 c -0.6875,0 -0.78125,-0.0625 -0.78125,-0.5625 V -6.921875 L 3.046875,-6.8125 V -6.5 c 0.6875,0 0.765625,0.0625 0.765625,0.5625 v 2.15625 c -0.28125,-0.359375 -0.71875,-0.625 -1.25,-0.625 -1.171875,0 -2.21875,0.984375 -2.21875,2.265625 0,1.265625 0.96875,2.25 2.109375,2.25 0.640625,0 1.078125,-0.34375 1.328125,-0.65625 z m 0,-2.671875 v 2.046875 c 0,0.171875 0,0.1875 -0.109375,0.359375 C 3.375,-0.328125 2.9375,-0.109375 2.5,-0.109375 2.046875,-0.109375 1.6875,-0.375 1.453125,-0.75 1.203125,-1.15625 1.171875,-1.71875 1.171875,-2.140625 1.171875,-2.5 1.1875,-3.09375 1.46875,-3.546875 1.6875,-3.859375 2.0625,-4.1875 2.609375,-4.1875 c 0.34375,0 0.765625,0.15625 1.0625,0.59375 0.109375,0.171875 0.109375,0.1875 0.109375,0.375 z m 0,0"
           id="id-b6224210-4f3a-46fe-ae1c-d394c348b228"
           style="fill:#0000ff;stroke-width:0" />
      </g>
    </g>
    <g
       fill-opacity="1"
       id="id-bd50fc71-4d5f-4a1f-99e4-6a8ee03ed5d5"
       transform="translate(-149.056,-125.121)"
       style="fill:#0000ff;stroke-width:0">
      <g
         transform="translate(156.11,132.246)"
         style="fill:#0000ff;stroke-width:0"
         id="g2399">
        <path
           d="m 5.359375,-5.9375 c -0.140625,0.140625 -0.46875,0.421875 -0.46875,0.59375 0,0.09375 0.09375,0.203125 0.1875,0.203125 0.09375,0 0.140625,-0.078125 0.203125,-0.140625 C 5.390625,-5.421875 5.625,-5.703125 6.0625,-5.921875 6.125,-5.96875 6.234375,-6.015625 6.234375,-6.125 6.234375,-6.234375 6.15625,-6.28125 6.09375,-6.328125 5.875,-6.484375 5.765625,-6.65625 5.6875,-6.890625 5.65625,-6.984375 5.625,-7.125 5.484375,-7.125 c -0.140625,0 -0.203125,0.140625 -0.203125,0.21875 0,0.046875 0.078125,0.359375 0.234375,0.578125 H 2.15625 c -0.15625,0 -0.34375,0 -0.34375,0.203125 0,0.1875 0.1875,0.1875 0.34375,0.1875 z m 0,0"
           id="id-42ca6c00-c928-456a-b587-f3749af540fd"
           style="fill:#0000ff;stroke-width:0" />
      </g>
    </g>
    <g
       fill-opacity="1"
       id="id-271ed72b-405e-4eab-9c1f-fd998d0f9193"
       transform="translate(-149.056,-125.121)"
       style="fill:#0000ff;stroke-width:0">
      <g
         transform="translate(154.247,134.765)"
         style="fill:#0000ff;stroke-width:0"
         id="g2403">
        <path
           d="M 1.78125,-1.140625 C 1.390625,-0.484375 1,-0.34375 0.5625,-0.3125 0.4375,-0.296875 0.34375,-0.296875 0.34375,-0.109375 0.34375,-0.046875 0.40625,0 0.484375,0 0.75,0 1.0625,-0.03125 1.328125,-0.03125 c 0.34375,0 0.6875,0.03125 1,0.03125 0.0625,0 0.1875,0 0.1875,-0.1875 0,-0.109375 -0.078125,-0.125 -0.15625,-0.125 -0.21875,-0.015625 -0.46875,-0.09375 -0.46875,-0.34375 0,-0.125 0.0625,-0.234375 0.140625,-0.375 l 0.765625,-1.265625 h 2.5 c 0.015625,0.203125 0.15625,1.5625 0.15625,1.65625 0,0.296875 -0.515625,0.328125 -0.71875,0.328125 C 4.59375,-0.3125 4.5,-0.3125 4.5,-0.109375 4.5,0 4.609375,0 4.640625,0 5.046875,0 5.46875,-0.03125 5.875,-0.03125 6.125,-0.03125 6.765625,0 7.015625,0 7.0625,0 7.1875,0 7.1875,-0.203125 7.1875,-0.3125 7.09375,-0.3125 6.953125,-0.3125 6.34375,-0.3125 6.34375,-0.375 6.3125,-0.671875 l -0.609375,-6.21875 c -0.015625,-0.203125 -0.015625,-0.25 -0.1875,-0.25 -0.15625,0 -0.203125,0.078125 -0.265625,0.171875 z M 2.984375,-2.609375 4.9375,-5.90625 5.265625,-2.609375 Z m 0,0"
           id="id-747fa022-5598-41f2-aa66-deb0a9f48181"
           style="fill:#0000ff;stroke-width:0" />
      </g>
    </g>
    <g
       fill-opacity="1"
       id="id-80040061-b94f-46f4-a823-ab186e4c684d"
       transform="translate(-149.056,-125.121)"
       style="fill:#0000ff;stroke-width:0">
      <g
         transform="translate(161.719,136.259)"
         style="fill:#0000ff;stroke-width:0"
         id="g2407">
        <path
           d="m 3.28125,-4.5625 c 0,-0.109375 0,-0.28125 -0.171875,-0.28125 -0.171875,0 -0.171875,0.171875 -0.171875,0.28125 v 4.21875 h -2.125 c -0.109375,0 -0.28125,0 -0.28125,0.171875 C 0.53125,0 0.703125,0 0.8125,0 H 5.40625 C 5.515625,0 5.6875,0 5.6875,-0.171875 5.6875,-0.34375 5.53125,-0.34375 5.40625,-0.34375 h -2.125 z m 0,0"
           id="id-169f8326-4122-429f-94f3-73f26d008653"
           style="fill:#0000ff;stroke-width:0" />
      </g>
    </g>
  </g>
  <g
     transform="matrix(0.352778,0,0,0.352778,1.2053223,10.526169)"
     ns3:version="1.8.2"
     ns3:texconverter="pdflatex"
     ns3:pdfconverter="inkscape"
     ns3:text="$\\text{d}q$"
     ns3:preamble="/Users/hendrik/Library/Application Support/org.inkscape.Inkscape/config/inkscape/extensions/textext/default_packages.tex"
     ns3:scale="1.0000000566928784"
     ns3:alignment="middle center"
     ns3:stroke-to-path="0"
     ns3:inkscapeversion="1.2.2"
     ns3:jacobian_sqrt="0.352778"
     style="display:inline;fill:#ff0000;stroke-width:0"
     id="g3049">
    <defs
       id="id-e7684343-6cf2-4dac-b0d7-f65af6201ab5"
       style="fill:#ff0000;stroke-width:0">
      <g
         id="id-2c69500a-f83d-4e8d-9f01-834eea7182c7"
         style="fill:#ff0000;stroke-width:0">
        <g
           id="id-26e6be1d-a2c9-4151-84bf-be6528c83c35"
           style="fill:#ff0000;stroke-width:0" />
        <g
           id="id-19003dfd-6048-4700-a182-333f896ad049"
           style="fill:#ff0000;stroke-width:0">
          <path
             d="m 3.78125,-0.546875 v 0.65625 L 5.25,0 v -0.3125 c -0.6875,0 -0.78125,-0.0625 -0.78125,-0.5625 V -6.921875 L 3.046875,-6.8125 V -6.5 c 0.6875,0 0.765625,0.0625 0.765625,0.5625 v 2.15625 c -0.28125,-0.359375 -0.71875,-0.625 -1.25,-0.625 -1.171875,0 -2.21875,0.984375 -2.21875,2.265625 0,1.265625 0.96875,2.25 2.109375,2.25 0.640625,0 1.078125,-0.34375 1.328125,-0.65625 z m 0,-2.671875 v 2.046875 c 0,0.171875 0,0.1875 -0.109375,0.359375 C 3.375,-0.328125 2.9375,-0.109375 2.5,-0.109375 2.046875,-0.109375 1.6875,-0.375 1.453125,-0.75 1.203125,-1.15625 1.171875,-1.71875 1.171875,-2.140625 1.171875,-2.5 1.1875,-3.09375 1.46875,-3.546875 1.6875,-3.859375 2.0625,-4.1875 2.609375,-4.1875 c 0.34375,0 0.765625,0.15625 1.0625,0.59375 0.109375,0.171875 0.109375,0.1875 0.109375,0.375 z m 0,0"
             id="id-d2e4a57c-f434-44e9-94bc-08c6126a2231"
             style="fill:#ff0000;stroke-width:0" />
        </g>
        <g
           id="id-e70eec57-c5d5-4fe8-a579-bc83db648429"
           style="fill:#ff0000;stroke-width:0" />
        <g
           id="id-079dba2d-25eb-4232-a642-a0647e2bb946"
           style="fill:#ff0000;stroke-width:0">
          <path
             d="m 4.5,-4.296875 c 0,-0.046875 -0.03125,-0.09375 -0.09375,-0.09375 -0.109375,0 -0.515625,0.390625 -0.671875,0.6875 C 3.515625,-4.25 3.125,-4.40625 2.796875,-4.40625 c -1.171875,0 -2.390625,1.46875 -2.390625,2.921875 0,0.96875 0.578125,1.59375 1.3125,1.59375 0.421875,0 0.8125,-0.234375 1.171875,-0.59375 -0.09375,0.34375 -0.421875,1.6875 -0.453125,1.78125 -0.078125,0.28125 -0.15625,0.3125 -0.71875,0.328125 -0.125,0 -0.21875,0 -0.21875,0.203125 0,0 0,0.109375 0.125,0.109375 0.3125,0 0.671875,-0.03125 1,-0.03125 0.328125,0 0.6875,0.03125 1.03125,0.03125 0.046875,0 0.171875,0 0.171875,-0.203125 C 3.828125,1.625 3.734375,1.625 3.5625,1.625 3.09375,1.625 3.09375,1.5625 3.09375,1.46875 3.09375,1.390625 3.109375,1.328125 3.125,1.25 Z m -2.75,4.1875 c -0.609375,0 -0.640625,-0.765625 -0.640625,-0.9375 0,-0.484375 0.28125,-1.5625 0.453125,-1.984375 0.3125,-0.734375 0.828125,-1.15625 1.234375,-1.15625 0.65625,0 0.796875,0.8125 0.796875,0.875 0,0.0625 -0.546875,2.25 -0.578125,2.28125 C 2.859375,-0.75 2.296875,-0.109375 1.75,-0.109375 Z m 0,0"
             id="id-0686df61-d994-424e-99d1-68068ff7ab95"
             style="fill:#ff0000;stroke-width:0" />
        </g>
      </g>
    </defs>
    <g
       fill-opacity="1"
       id="id-fa88993a-f443-401b-8930-b9612f935314"
       transform="translate(-149.056,-127.843)"
       style="display:inline;fill:#ff0000;stroke-width:0">
      <g
         transform="translate(148.712,134.765)"
         style="fill:#ff0000;stroke-width:0"
         id="g660">
        <path
           d="m 3.78125,-0.546875 v 0.65625 L 5.25,0 v -0.3125 c -0.6875,0 -0.78125,-0.0625 -0.78125,-0.5625 V -6.921875 L 3.046875,-6.8125 V -6.5 c 0.6875,0 0.765625,0.0625 0.765625,0.5625 v 2.15625 c -0.28125,-0.359375 -0.71875,-0.625 -1.25,-0.625 -1.171875,0 -2.21875,0.984375 -2.21875,2.265625 0,1.265625 0.96875,2.25 2.109375,2.25 0.640625,0 1.078125,-0.34375 1.328125,-0.65625 z m 0,-2.671875 v 2.046875 c 0,0.171875 0,0.1875 -0.109375,0.359375 C 3.375,-0.328125 2.9375,-0.109375 2.5,-0.109375 2.046875,-0.109375 1.6875,-0.375 1.453125,-0.75 1.203125,-1.15625 1.171875,-1.71875 1.171875,-2.140625 1.171875,-2.5 1.1875,-3.09375 1.46875,-3.546875 1.6875,-3.859375 2.0625,-4.1875 2.609375,-4.1875 c 0.34375,0 0.765625,0.15625 1.0625,0.59375 0.109375,0.171875 0.109375,0.1875 0.109375,0.375 z m 0,0"
           id="id-b007d5af-3172-4387-8b10-5c688bb24400"
           style="fill:#ff0000;stroke-width:0" />
      </g>
    </g>
    <g
       fill-opacity="1"
       id="id-811b7d65-ee9a-40a3-bc72-9d9428c32124"
       transform="translate(-149.056,-127.843)"
       style="display:inline;fill:#ff0000;stroke-width:0">
      <g
         transform="translate(154.247,134.765)"
         style="fill:#ff0000;stroke-width:0"
         id="g664">
        <path
           d="m 4.5,-4.296875 c 0,-0.046875 -0.03125,-0.09375 -0.09375,-0.09375 -0.109375,0 -0.515625,0.390625 -0.671875,0.6875 C 3.515625,-4.25 3.125,-4.40625 2.796875,-4.40625 c -1.171875,0 -2.390625,1.46875 -2.390625,2.921875 0,0.96875 0.578125,1.59375 1.3125,1.59375 0.421875,0 0.8125,-0.234375 1.171875,-0.59375 -0.09375,0.34375 -0.421875,1.6875 -0.453125,1.78125 -0.078125,0.28125 -0.15625,0.3125 -0.71875,0.328125 -0.125,0 -0.21875,0 -0.21875,0.203125 0,0 0,0.109375 0.125,0.109375 0.3125,0 0.671875,-0.03125 1,-0.03125 0.328125,0 0.6875,0.03125 1.03125,0.03125 0.046875,0 0.171875,0 0.171875,-0.203125 C 3.828125,1.625 3.734375,1.625 3.5625,1.625 3.09375,1.625 3.09375,1.5625 3.09375,1.46875 3.09375,1.390625 3.109375,1.328125 3.125,1.25 Z m -2.75,4.1875 c -0.609375,0 -0.640625,-0.765625 -0.640625,-0.9375 0,-0.484375 0.28125,-1.5625 0.453125,-1.984375 0.3125,-0.734375 0.828125,-1.15625 1.234375,-1.15625 0.65625,0 0.796875,0.8125 0.796875,0.875 0,0.0625 -0.546875,2.25 -0.578125,2.28125 C 2.859375,-0.75 2.296875,-0.109375 1.75,-0.109375 Z m 0,0"
           id="id-53a4936d-2d25-43db-b062-12a82aabb126"
           style="fill:#ff0000;stroke-width:0" />
      </g>
    </g>
  </g>
  <text
     xml:space="preserve"
     style="font-size:8px;display:inline;fill:#000000;stroke:#000000;stroke-width:0.755906"
     x="18.295673"
     y="12.015069"
     id="text1131"
     transform="matrix(0.26458333,0,0,0.26458333,2.2851208,21.581057)"
     inkscape:label="text1131"><tspan
       sodipodi:role="line"
       id="tspan1129"
       x="18.295673"
       y="12.015069"
       style="fill:#000000;stroke:none">Bewegung </tspan><tspan
       sodipodi:role="line"
       x="18.295673"
       y="22.015068"
       style="fill:#000000;stroke:none"
       id="tspan1483">während d<tspan
   style="font-style:italic;fill:#000000"
   id="tspan2765">t</tspan></tspan></text>
  <path
     style="display:inline;fill:#0000ff;fill-opacity:0.505085;stroke:none;stroke-width:1.69677;stroke-linejoin:round;stroke-dasharray:none"
     d="m 287.8605,216.47218 4e-5,53.06628 -20.2222,20.22211 v -53.06622 z"
     id="path1012"
     transform="matrix(-0.11787129,0,0,-0.11787129,44.143109,40.08839)"
     sodipodi:nodetypes="ccccc"
     inkscape:label="blaue Fläche hinten" />
</svg>
