<?xml version="1.0" encoding="UTF-8" standalone="no"?>
<!-- Created with Inkscape (http://www.inkscape.org/) -->

<svg
   width="41.435226mm"
   height="28.552896mm"
   viewBox="0 0 41.435226 28.552896"
   version="1.1"
   id="svg5"
   inkscape:version="1.2.2 (b0a8486, 2022-12-01)"
   sodipodi:docname="verschiebungsstrom.svg"
   xmlns:inkscape="http://www.inkscape.org/namespaces/inkscape"
   xmlns:sodipodi="http://sodipodi.sourceforge.net/DTD/sodipodi-0.dtd"
   xmlns="http://www.w3.org/2000/svg"
   xmlns:svg="http://www.w3.org/2000/svg"
   xmlns:ns2="http://www.iki.fi/pav/software/textext/">
  <sodipodi:namedview
     id="namedview7"
     pagecolor="#ffffff"
     bordercolor="#000000"
     borderopacity="0.25"
     inkscape:showpageshadow="2"
     inkscape:pageopacity="0.0"
     inkscape:pagecheckerboard="0"
     inkscape:deskcolor="#d1d1d1"
     inkscape:document-units="mm"
     showgrid="false"
     inkscape:zoom="4.4979241"
     inkscape:cx="88.929913"
     inkscape:cy="49.244939"
     inkscape:window-width="1440"
     inkscape:window-height="777"
     inkscape:window-x="0"
     inkscape:window-y="23"
     inkscape:window-maximized="0"
     inkscape:current-layer="layer1" />
  <defs
     id="defs2" />
  <g
     inkscape:label="Layer 1"
     inkscape:groupmode="layer"
     id="layer1"
     transform="translate(-59.323179,-29.387288)">
    <path
       style="opacity:1;fill:none;stroke:#ff0000;stroke-width:0.755906;stroke-dasharray:none;stroke-dashoffset:0"
       id="path2279"
       transform="matrix(-0.26458333,0,0,0.26458333,165.90252,0)"
       sodipodi:type="arc"
       sodipodi:cx="302.51639"
       sodipodi:cy="165.40625"
       sodipodi:rx="13.293859"
       sodipodi:ry="29.547064"
       sodipodi:start="1.5707963"
       sodipodi:end="4.712389"
       sodipodi:arc-type="arc"
       d="m 302.51639,194.95331 a 13.293859,29.547064 0 0 1 -11.51282,-14.77353 13.293859,29.547064 0 0 1 0,-29.54706 13.293859,29.547064 0 0 1 11.51282,-14.77353"
       sodipodi:open="true" />
    <path
       style="opacity:1;fill:none;stroke:#ff0000;stroke-width:0.755906;stroke-dasharray:none;stroke-dashoffset:0"
       id="path1993"
       transform="matrix(-0.26458333,0,0,0.26458333,150.02742,0)"
       sodipodi:type="arc"
       sodipodi:cx="302.51639"
       sodipodi:cy="165.40625"
       sodipodi:rx="13.293859"
       sodipodi:ry="29.547064"
       sodipodi:start="1.5707963"
       sodipodi:end="4.712389"
       sodipodi:arc-type="arc"
       d="m 302.51639,194.95331 a 13.293859,29.547064 0 0 1 -11.51282,-14.77353 13.293859,29.547064 0 0 1 0,-29.54706 13.293859,29.547064 0 0 1 11.51282,-14.77353"
       sodipodi:open="true" />
    <g
       id="g910"
       transform="translate(11.238207)">
      <path
         style="opacity:1;fill:none;stroke:#000000;stroke-width:0.755906;stroke-dashoffset:0.982676"
         d="m 315.98474,119.64471 -10e-6,64.93537 -26.58772,26.58771 10e-6,-64.93537 z"
         id="path908"
         transform="matrix(-0.26458333,0,0,-0.26458333,160.17392,87.527473)"
         sodipodi:nodetypes="ccccc" />
    </g>
    <path
       style="opacity:1;fill:none;stroke:#000000;stroke-width:0.755906;stroke-dashoffset:0.982676"
       d="m 345.16599,165.40625 h 57.79424"
       id="path1008"
       transform="scale(0.26458333)" />
    <g
       id="g1012"
       transform="translate(-0.04616851)">
      <path
         style="opacity:1;fill:none;stroke:#000000;stroke-width:0.755906;stroke-dashoffset:0.982676"
         d="m 315.98474,119.64471 -10e-6,64.93537 -26.58772,26.58771 10e-6,-64.93537 z"
         id="path1010"
         transform="matrix(-0.26458333,0,0,-0.26458333,160.17392,87.527473)"
         sodipodi:nodetypes="ccccc" />
    </g>
    <path
       style="opacity:1;fill:none;stroke:#000000;stroke-width:0.755906;stroke-dashoffset:0.982676"
       d="m 345.16599,165.40625 h 44.50038"
       id="path1014"
       transform="matrix(0.26458333,0,0,0.26458333,-26.575767,0)"
       sodipodi:nodetypes="cc" />
    <path
       style="opacity:1;fill:none;stroke:#000000;stroke-width:0.755906;stroke-dasharray:0.755906, 0.755906;stroke-dashoffset:0"
       d="M 302.51638,165.40625 H 289.22252"
       id="path1016"
       transform="scale(0.26458333)" />
    <path
       style="opacity:1;fill:none;stroke:#ff0000;stroke-width:0.755906;stroke-dasharray:none;stroke-dashoffset:0"
       id="path1883"
       transform="matrix(0.26458333,0,0,0.26458333,-10.054167,0)"
       sodipodi:type="arc"
       sodipodi:cx="302.51639"
       sodipodi:cy="165.40625"
       sodipodi:rx="13.293859"
       sodipodi:ry="29.547064"
       sodipodi:start="1.5707963"
       sodipodi:end="4.712389"
       sodipodi:arc-type="arc"
       d="m 302.51639,194.95331 a 13.293859,29.547064 0 0 1 -11.51282,-14.77353 13.293859,29.547064 0 0 1 0,-29.54706 13.293859,29.547064 0 0 1 11.51282,-14.77353"
       sodipodi:open="true" />
    <path
       style="opacity:1;fill:none;stroke:#ff0000;stroke-width:0.755906;stroke-dasharray:none;stroke-dashoffset:0"
       d="m 228.02881,154.81906 v 3.77025 h 3.77025"
       id="path1995"
       transform="matrix(0.20860736,-0.16274922,0.16274922,0.20860736,-6.8378285,46.222757)"
       inkscape:transform-center-x="-0.086475208"
       inkscape:transform-center-y="-0.39320864" />
    <g
       transform="matrix(0.352778,0,0,0.352778,61.772454,38.932308)"
       ns2:version="1.8.2"
       ns2:texconverter="pdflatex"
       ns2:pdfconverter="inkscape"
       ns2:text="$\\vec{B}$"
       ns2:preamble="/Users/hendrik/Library/Application Support/org.inkscape.Inkscape/config/inkscape/extensions/textext/default_packages.tex"
       ns2:scale="1.0000000850393187"
       ns2:alignment="middle center"
       ns2:stroke-to-path="0"
       ns2:inkscapeversion="1.2.2"
       ns2:jacobian_sqrt="0.352778"
       id="g2052"
       style="fill:#ff0000">
      <defs
         id="id-2c85a647-f03d-4e07-83bd-2eb707a9e7d1">
        <g
           id="id-349991f9-857a-473a-b232-890d331e5396">
          <g
             id="id-5a24fdde-e1c9-4afe-bdd9-b87659e0687a" />
          <g
             id="id-37bb1791-96c5-43d8-acf0-792b56062b58">
            <path
               d="m 5.359375,-5.9375 c -0.140625,0.140625 -0.46875,0.421875 -0.46875,0.59375 0,0.09375 0.09375,0.203125 0.1875,0.203125 0.09375,0 0.140625,-0.078125 0.203125,-0.140625 C 5.390625,-5.421875 5.625,-5.703125 6.0625,-5.921875 6.125,-5.96875 6.234375,-6.015625 6.234375,-6.125 6.234375,-6.234375 6.15625,-6.28125 6.09375,-6.328125 5.875,-6.484375 5.765625,-6.65625 5.6875,-6.890625 5.65625,-6.984375 5.625,-7.125 5.484375,-7.125 c -0.140625,0 -0.203125,0.140625 -0.203125,0.21875 0,0.046875 0.078125,0.359375 0.234375,0.578125 H 2.15625 c -0.15625,0 -0.34375,0 -0.34375,0.203125 0,0.1875 0.1875,0.1875 0.34375,0.1875 z m 0,0"
               id="id-d7100174-1940-4d09-9561-2e921feab818" />
          </g>
          <g
             id="id-2865df09-c120-4b2d-a404-f57be708b501">
            <path
               d="M 1.59375,-0.78125 C 1.5,-0.390625 1.46875,-0.3125 0.6875,-0.3125 c -0.171875,0 -0.265625,0 -0.265625,0.203125 C 0.421875,0 0.515625,0 0.6875,0 H 4.25 C 5.828125,0 7,-1.171875 7,-2.15625 7,-2.875 6.421875,-3.453125 5.453125,-3.5625 6.484375,-3.75 7.53125,-4.484375 7.53125,-5.4375 c 0,-0.734375 -0.65625,-1.375 -1.84375,-1.375 H 2.328125 c -0.1875,0 -0.28125,0 -0.28125,0.203125 0,0.109375 0.09375,0.109375 0.28125,0.109375 0.015625,0 0.203125,0 0.375,0.015625 0.171875,0.03125 0.265625,0.03125 0.265625,0.171875 0,0.03125 -0.015625,0.0625 -0.03125,0.1875 z m 1.5,-2.875 0.625,-2.46875 C 3.8125,-6.46875 3.828125,-6.5 4.25,-6.5 h 1.296875 c 0.875,0 1.078125,0.59375 1.078125,1.03125 0,0.875 -0.859375,1.8125 -2.0625,1.8125 z m -0.4375,3.34375 c -0.140625,0 -0.15625,0 -0.21875,0 -0.109375,-0.015625 -0.140625,-0.03125 -0.140625,-0.109375 0,-0.03125 0,-0.046875 0.0625,-0.21875 l 0.6875,-2.78125 h 1.875 c 0.953125,0 1.15625,0.734375 1.15625,1.15625 C 6.078125,-1.28125 5.1875,-0.3125 4,-0.3125 Z m 0,0"
               id="id-dc0d3b8e-f898-4fca-bc1a-9587416f9072" />
          </g>
        </g>
      </defs>
      <g
         fill="#000000"
         fill-opacity="1"
         id="id-367caeb2-e767-42c7-88d4-b44b1d4d2c77"
         transform="translate(-149.134,-125.121)"
         style="fill:#ff0000">
        <g
           transform="translate(150.314,132.246)"
           id="g2045"
           style="fill:#ff0000">
          <path
             d="m 5.359375,-5.9375 c -0.140625,0.140625 -0.46875,0.421875 -0.46875,0.59375 0,0.09375 0.09375,0.203125 0.1875,0.203125 0.09375,0 0.140625,-0.078125 0.203125,-0.140625 C 5.390625,-5.421875 5.625,-5.703125 6.0625,-5.921875 6.125,-5.96875 6.234375,-6.015625 6.234375,-6.125 6.234375,-6.234375 6.15625,-6.28125 6.09375,-6.328125 5.875,-6.484375 5.765625,-6.65625 5.6875,-6.890625 5.65625,-6.984375 5.625,-7.125 5.484375,-7.125 c -0.140625,0 -0.203125,0.140625 -0.203125,0.21875 0,0.046875 0.078125,0.359375 0.234375,0.578125 H 2.15625 c -0.15625,0 -0.34375,0 -0.34375,0.203125 0,0.1875 0.1875,0.1875 0.34375,0.1875 z m 0,0"
             id="id-b2f0e0d3-c691-4350-9eaa-6eddd6acf758"
             style="fill:#ff0000" />
        </g>
      </g>
      <g
         fill="#000000"
         fill-opacity="1"
         id="id-b51a523c-053d-46e7-8931-581947344663"
         transform="translate(-149.134,-125.121)"
         style="fill:#ff0000">
        <g
           transform="translate(148.712,134.765)"
           id="g2049"
           style="fill:#ff0000">
          <path
             d="M 1.59375,-0.78125 C 1.5,-0.390625 1.46875,-0.3125 0.6875,-0.3125 c -0.171875,0 -0.265625,0 -0.265625,0.203125 C 0.421875,0 0.515625,0 0.6875,0 H 4.25 C 5.828125,0 7,-1.171875 7,-2.15625 7,-2.875 6.421875,-3.453125 5.453125,-3.5625 6.484375,-3.75 7.53125,-4.484375 7.53125,-5.4375 c 0,-0.734375 -0.65625,-1.375 -1.84375,-1.375 H 2.328125 c -0.1875,0 -0.28125,0 -0.28125,0.203125 0,0.109375 0.09375,0.109375 0.28125,0.109375 0.015625,0 0.203125,0 0.375,0.015625 0.171875,0.03125 0.265625,0.03125 0.265625,0.171875 0,0.03125 -0.015625,0.0625 -0.03125,0.1875 z m 1.5,-2.875 0.625,-2.46875 C 3.8125,-6.46875 3.828125,-6.5 4.25,-6.5 h 1.296875 c 0.875,0 1.078125,0.59375 1.078125,1.03125 0,0.875 -0.859375,1.8125 -2.0625,1.8125 z m -0.4375,3.34375 c -0.140625,0 -0.15625,0 -0.21875,0 -0.109375,-0.015625 -0.140625,-0.03125 -0.140625,-0.109375 0,-0.03125 0,-0.046875 0.0625,-0.21875 l 0.6875,-2.78125 h 1.875 c 0.953125,0 1.15625,0.734375 1.15625,1.15625 C 6.078125,-1.28125 5.1875,-0.3125 4,-0.3125 Z m 0,0"
             id="id-f36fc6be-8460-4259-8784-2f97641edc2d"
             style="fill:#ff0000" />
        </g>
      </g>
    </g>
    <g
       transform="matrix(0.352778,0,0,0.352778,69.506185,39.569773)"
       ns2:version="1.8.2"
       ns2:texconverter="pdflatex"
       ns2:pdfconverter="inkscape"
       ns2:text="$I$"
       ns2:preamble="/Users/hendrik/Library/Application Support/org.inkscape.Inkscape/config/inkscape/extensions/textext/default_packages.tex"
       ns2:scale="1.0000000850393187"
       ns2:alignment="middle center"
       ns2:stroke-to-path="0"
       ns2:inkscapeversion="1.2.2"
       ns2:jacobian_sqrt="0.352778"
       id="g2166"
       style="fill:#0000ff">
      <defs
         id="id-c2462e03-f0e1-4740-be33-21c8f9ea62ec">
        <g
           id="id-fa7a5890-4b80-45cd-a8ca-3d5c60db0f25">
          <g
             id="id-d913ff07-708c-4a82-915f-3aa26d3f1f72" />
          <g
             id="id-06c0d432-8b85-4cdc-8afa-d3ee7543b9c8">
            <path
               d="M 3.734375,-6.046875 C 3.8125,-6.40625 3.84375,-6.5 4.640625,-6.5 c 0.234375,0 0.3125,0 0.3125,-0.1875 0,-0.125 -0.109375,-0.125 -0.140625,-0.125 -0.296875,0 -1.03125,0.03125 -1.328125,0.03125 -0.296875,0 -1.015625,-0.03125 -1.328125,-0.03125 -0.0625,0 -0.1875,0 -0.1875,0.203125 C 1.96875,-6.5 2.046875,-6.5 2.25,-6.5 c 0.40625,0 0.6875,0 0.6875,0.1875 0,0.046875 0,0.078125 -0.03125,0.15625 l -1.34375,5.375 c -0.09375,0.375 -0.109375,0.46875 -0.90625,0.46875 -0.234375,0 -0.3125,0 -0.3125,0.203125 C 0.34375,0 0.453125,0 0.484375,0 0.78125,0 1.5,-0.03125 1.796875,-0.03125 2.09375,-0.03125 2.828125,0 3.125,0 c 0.078125,0 0.203125,0 0.203125,-0.1875 0,-0.125 -0.078125,-0.125 -0.296875,-0.125 -0.1875,0 -0.234375,0 -0.421875,-0.015625 -0.21875,-0.015625 -0.25,-0.0625 -0.25,-0.171875 0,-0.078125 0.015625,-0.15625 0.03125,-0.234375 z m 0,0"
               id="id-a6c3c8d8-f522-4456-a49d-76a93a3a6a0e" />
          </g>
        </g>
      </defs>
      <g
         fill="#000000"
         fill-opacity="1"
         id="id-27ceb5b5-caa2-4e66-9a88-f987473136bb"
         transform="translate(-149.056,-127.953)"
         style="fill:#0000ff">
        <g
           transform="translate(148.712,134.765)"
           id="g2163"
           style="fill:#0000ff">
          <path
             d="M 3.734375,-6.046875 C 3.8125,-6.40625 3.84375,-6.5 4.640625,-6.5 c 0.234375,0 0.3125,0 0.3125,-0.1875 0,-0.125 -0.109375,-0.125 -0.140625,-0.125 -0.296875,0 -1.03125,0.03125 -1.328125,0.03125 -0.296875,0 -1.015625,-0.03125 -1.328125,-0.03125 -0.0625,0 -0.1875,0 -0.1875,0.203125 C 1.96875,-6.5 2.046875,-6.5 2.25,-6.5 c 0.40625,0 0.6875,0 0.6875,0.1875 0,0.046875 0,0.078125 -0.03125,0.15625 l -1.34375,5.375 c -0.09375,0.375 -0.109375,0.46875 -0.90625,0.46875 -0.234375,0 -0.3125,0 -0.3125,0.203125 C 0.34375,0 0.453125,0 0.484375,0 0.78125,0 1.5,-0.03125 1.796875,-0.03125 2.09375,-0.03125 2.828125,0 3.125,0 c 0.078125,0 0.203125,0 0.203125,-0.1875 0,-0.125 -0.078125,-0.125 -0.296875,-0.125 -0.1875,0 -0.234375,0 -0.421875,-0.015625 -0.21875,-0.015625 -0.25,-0.0625 -0.25,-0.171875 0,-0.078125 0.015625,-0.15625 0.03125,-0.234375 z m 0,0"
             id="id-d2ab7816-b449-42c1-a761-1a77980b8b90"
             style="fill:#0000ff" />
        </g>
      </g>
    </g>
    <g
       id="g2237"
       transform="translate(0.36435314,3.4148213e-5)">
      <path
         style="opacity:1;fill:none;stroke:#0000ff;stroke-width:0.755906;stroke-dasharray:none;stroke-dashoffset:0"
         d="m 228.02881,154.81906 v 3.77025 h 3.77025"
         id="path2070"
         transform="matrix(-0.18708747,-0.18708987,0.18708987,-0.18708747,83.627352,116.09566)"
         inkscape:transform-center-x="0.35264504"
         inkscape:transform-center-y="-3.1730019e-05" />
      <path
         style="opacity:1;fill:#0000ff;stroke:#0000ff;stroke-width:0.755906;stroke-dasharray:none;stroke-dashoffset:0"
         d="m 266.97238,165.40625 h -7.66627"
         id="path2233"
         transform="scale(0.26458333)"
         sodipodi:nodetypes="cc" />
    </g>
    <path
       style="opacity:1;fill:none;stroke:#ff0000;stroke-width:0.755906;stroke-dasharray:none;stroke-dashoffset:0"
       id="path2281"
       transform="matrix(0.26458333,0,0,0.26458333,5.8208336,0)"
       sodipodi:type="arc"
       sodipodi:cx="302.51639"
       sodipodi:cy="165.40625"
       sodipodi:rx="13.293859"
       sodipodi:ry="29.547064"
       sodipodi:start="1.5707963"
       sodipodi:end="4.712389"
       sodipodi:arc-type="arc"
       d="m 302.51639,194.95331 a 13.293859,29.547064 0 0 1 -11.51282,-14.77353 13.293859,29.547064 0 0 1 0,-29.54706 13.293859,29.547064 0 0 1 11.51282,-14.77353"
       sodipodi:open="true" />
    <path
       style="opacity:1;fill:none;stroke:#ff0000;stroke-width:0.755906;stroke-dasharray:none;stroke-dashoffset:0"
       d="m 228.02881,154.81906 v 3.77025 h 3.77025"
       id="path2283"
       transform="matrix(0.20860736,-0.16274922,0.16274922,0.20860736,9.0371724,46.222757)"
       inkscape:transform-center-x="-0.086475208"
       inkscape:transform-center-y="-0.39320864" />
    <g
       transform="matrix(0.352778,0,0,0.352778,84.553935,31.696877)"
       ns2:version="1.8.2"
       ns2:texconverter="pdflatex"
       ns2:pdfconverter="inkscape"
       ns2:text="$\\vec{B}$"
       ns2:preamble="/Users/hendrik/Library/Application Support/org.inkscape.Inkscape/config/inkscape/extensions/textext/default_packages.tex"
       ns2:scale="1.0000000850393187"
       ns2:alignment="middle center"
       ns2:stroke-to-path="0"
       ns2:inkscapeversion="1.2.2"
       ns2:jacobian_sqrt="0.352778"
       id="g2311"
       style="fill:#ff0000">
      <defs
         id="defs2297">
        <g
           id="g2295">
          <g
             id="g2285" />
          <g
             id="g2289">
            <path
               d="m 5.359375,-5.9375 c -0.140625,0.140625 -0.46875,0.421875 -0.46875,0.59375 0,0.09375 0.09375,0.203125 0.1875,0.203125 0.09375,0 0.140625,-0.078125 0.203125,-0.140625 C 5.390625,-5.421875 5.625,-5.703125 6.0625,-5.921875 6.125,-5.96875 6.234375,-6.015625 6.234375,-6.125 6.234375,-6.234375 6.15625,-6.28125 6.09375,-6.328125 5.875,-6.484375 5.765625,-6.65625 5.6875,-6.890625 5.65625,-6.984375 5.625,-7.125 5.484375,-7.125 c -0.140625,0 -0.203125,0.140625 -0.203125,0.21875 0,0.046875 0.078125,0.359375 0.234375,0.578125 H 2.15625 c -0.15625,0 -0.34375,0 -0.34375,0.203125 0,0.1875 0.1875,0.1875 0.34375,0.1875 z m 0,0"
               id="path2287" />
          </g>
          <g
             id="g2293">
            <path
               d="M 1.59375,-0.78125 C 1.5,-0.390625 1.46875,-0.3125 0.6875,-0.3125 c -0.171875,0 -0.265625,0 -0.265625,0.203125 C 0.421875,0 0.515625,0 0.6875,0 H 4.25 C 5.828125,0 7,-1.171875 7,-2.15625 7,-2.875 6.421875,-3.453125 5.453125,-3.5625 6.484375,-3.75 7.53125,-4.484375 7.53125,-5.4375 c 0,-0.734375 -0.65625,-1.375 -1.84375,-1.375 H 2.328125 c -0.1875,0 -0.28125,0 -0.28125,0.203125 0,0.109375 0.09375,0.109375 0.28125,0.109375 0.015625,0 0.203125,0 0.375,0.015625 0.171875,0.03125 0.265625,0.03125 0.265625,0.171875 0,0.03125 -0.015625,0.0625 -0.03125,0.1875 z m 1.5,-2.875 0.625,-2.46875 C 3.8125,-6.46875 3.828125,-6.5 4.25,-6.5 h 1.296875 c 0.875,0 1.078125,0.59375 1.078125,1.03125 0,0.875 -0.859375,1.8125 -2.0625,1.8125 z m -0.4375,3.34375 c -0.140625,0 -0.15625,0 -0.21875,0 -0.109375,-0.015625 -0.140625,-0.03125 -0.140625,-0.109375 0,-0.03125 0,-0.046875 0.0625,-0.21875 l 0.6875,-2.78125 h 1.875 c 0.953125,0 1.15625,0.734375 1.15625,1.15625 C 6.078125,-1.28125 5.1875,-0.3125 4,-0.3125 Z m 0,0"
               id="path2291" />
          </g>
        </g>
      </defs>
      <g
         fill="#000000"
         fill-opacity="1"
         id="g2303"
         transform="translate(-149.134,-125.121)"
         style="fill:#ff0000">
        <g
           transform="translate(150.314,132.246)"
           id="g2301"
           style="fill:#ff0000">
          <path
             d="m 5.359375,-5.9375 c -0.140625,0.140625 -0.46875,0.421875 -0.46875,0.59375 0,0.09375 0.09375,0.203125 0.1875,0.203125 0.09375,0 0.140625,-0.078125 0.203125,-0.140625 C 5.390625,-5.421875 5.625,-5.703125 6.0625,-5.921875 6.125,-5.96875 6.234375,-6.015625 6.234375,-6.125 6.234375,-6.234375 6.15625,-6.28125 6.09375,-6.328125 5.875,-6.484375 5.765625,-6.65625 5.6875,-6.890625 5.65625,-6.984375 5.625,-7.125 5.484375,-7.125 c -0.140625,0 -0.203125,0.140625 -0.203125,0.21875 0,0.046875 0.078125,0.359375 0.234375,0.578125 H 2.15625 c -0.15625,0 -0.34375,0 -0.34375,0.203125 0,0.1875 0.1875,0.1875 0.34375,0.1875 z m 0,0"
             id="path2299"
             style="fill:#ff0000" />
        </g>
      </g>
      <g
         fill="#000000"
         fill-opacity="1"
         id="g2309"
         transform="translate(-149.134,-125.121)"
         style="fill:#ff0000">
        <g
           transform="translate(148.712,134.765)"
           id="g2307"
           style="fill:#ff0000">
          <path
             d="M 1.59375,-0.78125 C 1.5,-0.390625 1.46875,-0.3125 0.6875,-0.3125 c -0.171875,0 -0.265625,0 -0.265625,0.203125 C 0.421875,0 0.515625,0 0.6875,0 H 4.25 C 5.828125,0 7,-1.171875 7,-2.15625 7,-2.875 6.421875,-3.453125 5.453125,-3.5625 6.484375,-3.75 7.53125,-4.484375 7.53125,-5.4375 c 0,-0.734375 -0.65625,-1.375 -1.84375,-1.375 H 2.328125 c -0.1875,0 -0.28125,0 -0.28125,0.203125 0,0.109375 0.09375,0.109375 0.28125,0.109375 0.015625,0 0.203125,0 0.375,0.015625 0.171875,0.03125 0.265625,0.03125 0.265625,0.171875 0,0.03125 -0.015625,0.0625 -0.03125,0.1875 z m 1.5,-2.875 0.625,-2.46875 C 3.8125,-6.46875 3.828125,-6.5 4.25,-6.5 h 1.296875 c 0.875,0 1.078125,0.59375 1.078125,1.03125 0,0.875 -0.859375,1.8125 -2.0625,1.8125 z m -0.4375,3.34375 c -0.140625,0 -0.15625,0 -0.21875,0 -0.109375,-0.015625 -0.140625,-0.03125 -0.140625,-0.109375 0,-0.03125 0,-0.046875 0.0625,-0.21875 l 0.6875,-2.78125 h 1.875 c 0.953125,0 1.15625,0.734375 1.15625,1.15625 C 6.078125,-1.28125 5.1875,-0.3125 4,-0.3125 Z m 0,0"
             id="path2305"
             style="fill:#ff0000" />
        </g>
      </g>
    </g>
  </g>
</svg>
