<?xml version="1.0" encoding="utf-8" standalone="no"?>
<!DOCTYPE svg PUBLIC "-//W3C//DTD SVG 1.1//EN"
  "http://www.w3.org/Graphics/SVG/1.1/DTD/svg11.dtd">
<svg xmlns:xlink="http://www.w3.org/1999/xlink" width="360pt" height="648pt" viewBox="0 0 360 648" xmlns="http://www.w3.org/2000/svg" version="1.1">
 <metadata>
  <rdf:RDF xmlns:dc="http://purl.org/dc/elements/1.1/" xmlns:cc="http://creativecommons.org/ns#" xmlns:rdf="http://www.w3.org/1999/02/22-rdf-syntax-ns#">
   <cc:Work>
    <dc:type rdf:resource="http://purl.org/dc/dcmitype/StillImage"/>
    <dc:date>2023-05-19T14:25:56.180730</dc:date>
    <dc:format>image/svg+xml</dc:format>
    <dc:creator>
     <cc:Agent>
      <dc:title>Matplotlib v3.5.1, https://matplotlib.org/</dc:title>
     </cc:Agent>
    </dc:creator>
   </cc:Work>
  </rdf:RDF>
 </metadata>
 <defs>
  <style type="text/css">*{stroke-linejoin: round; stroke-linecap: butt}</style>
 </defs>
 <g id="figure_1">
  <g id="patch_1">
   <path d="M 0 648 
L 360 648 
L 360 0 
L 0 0 
L 0 648 
z
" style="fill: none"/>
  </g>
  <g id="axes_1">
   <g id="patch_2">
    <path d="M 56.175 146.15 
L 349.2 146.15 
L 349.2 38.6 
L 56.175 38.6 
z
" style="fill: #ffffff"/>
   </g>
   <g id="line2d_1">
    <path d="M 56.175 92.375 
L 349.2 92.375 
" clip-path="url(#p4feefeff55)" style="fill: none; stroke-dasharray: 0.5,0.825; stroke-dashoffset: 0; stroke: #000000; stroke-width: 0.5"/>
   </g>
   <g id="line2d_2">
    <path d="M 202.6875 146.15 
L 202.6875 38.6 
" clip-path="url(#p4feefeff55)" style="fill: none; stroke-dasharray: 0.5,0.825; stroke-dashoffset: 0; stroke: #000000; stroke-width: 0.5"/>
   </g>
   <g id="matplotlib.axis_1">
    <g id="xtick_1">
     <g id="line2d_3">
      <defs>
       <path id="m3113cf85e5" d="M 0 0 
L 0 3.5 
" style="stroke: #000000; stroke-width: 0.8"/>
      </defs>
      <g>
       <use xlink:href="#m3113cf85e5" x="72.454167" y="146.15" style="stroke: #000000; stroke-width: 0.8"/>
      </g>
     </g>
     <g id="text_1">
      <!-- 0 -->
      <g transform="translate(69.272917 160.748437)scale(0.1 -0.1)">
       <defs>
        <path id="DejaVuSans-30" d="M 2034 4250 
Q 1547 4250 1301 3770 
Q 1056 3291 1056 2328 
Q 1056 1369 1301 889 
Q 1547 409 2034 409 
Q 2525 409 2770 889 
Q 3016 1369 3016 2328 
Q 3016 3291 2770 3770 
Q 2525 4250 2034 4250 
z
M 2034 4750 
Q 2819 4750 3233 4129 
Q 3647 3509 3647 2328 
Q 3647 1150 3233 529 
Q 2819 -91 2034 -91 
Q 1250 -91 836 529 
Q 422 1150 422 2328 
Q 422 3509 836 4129 
Q 1250 4750 2034 4750 
z
" transform="scale(0.015625)"/>
       </defs>
       <use xlink:href="#DejaVuSans-30"/>
      </g>
     </g>
    </g>
    <g id="xtick_2">
     <g id="line2d_4">
      <g>
       <use xlink:href="#m3113cf85e5" x="105.0125" y="146.15" style="stroke: #000000; stroke-width: 0.8"/>
      </g>
     </g>
     <g id="text_2">
      <!-- 2 -->
      <g transform="translate(101.83125 160.748437)scale(0.1 -0.1)">
       <defs>
        <path id="DejaVuSans-32" d="M 1228 531 
L 3431 531 
L 3431 0 
L 469 0 
L 469 531 
Q 828 903 1448 1529 
Q 2069 2156 2228 2338 
Q 2531 2678 2651 2914 
Q 2772 3150 2772 3378 
Q 2772 3750 2511 3984 
Q 2250 4219 1831 4219 
Q 1534 4219 1204 4116 
Q 875 4013 500 3803 
L 500 4441 
Q 881 4594 1212 4672 
Q 1544 4750 1819 4750 
Q 2544 4750 2975 4387 
Q 3406 4025 3406 3419 
Q 3406 3131 3298 2873 
Q 3191 2616 2906 2266 
Q 2828 2175 2409 1742 
Q 1991 1309 1228 531 
z
" transform="scale(0.015625)"/>
       </defs>
       <use xlink:href="#DejaVuSans-32"/>
      </g>
     </g>
    </g>
    <g id="xtick_3">
     <g id="line2d_5">
      <g>
       <use xlink:href="#m3113cf85e5" x="137.570833" y="146.15" style="stroke: #000000; stroke-width: 0.8"/>
      </g>
     </g>
     <g id="text_3">
      <!-- 4 -->
      <g transform="translate(134.389583 160.748437)scale(0.1 -0.1)">
       <defs>
        <path id="DejaVuSans-34" d="M 2419 4116 
L 825 1625 
L 2419 1625 
L 2419 4116 
z
M 2253 4666 
L 3047 4666 
L 3047 1625 
L 3713 1625 
L 3713 1100 
L 3047 1100 
L 3047 0 
L 2419 0 
L 2419 1100 
L 313 1100 
L 313 1709 
L 2253 4666 
z
" transform="scale(0.015625)"/>
       </defs>
       <use xlink:href="#DejaVuSans-34"/>
      </g>
     </g>
    </g>
    <g id="xtick_4">
     <g id="line2d_6">
      <g>
       <use xlink:href="#m3113cf85e5" x="170.129167" y="146.15" style="stroke: #000000; stroke-width: 0.8"/>
      </g>
     </g>
     <g id="text_4">
      <!-- 6 -->
      <g transform="translate(166.947917 160.748437)scale(0.1 -0.1)">
       <defs>
        <path id="DejaVuSans-36" d="M 2113 2584 
Q 1688 2584 1439 2293 
Q 1191 2003 1191 1497 
Q 1191 994 1439 701 
Q 1688 409 2113 409 
Q 2538 409 2786 701 
Q 3034 994 3034 1497 
Q 3034 2003 2786 2293 
Q 2538 2584 2113 2584 
z
M 3366 4563 
L 3366 3988 
Q 3128 4100 2886 4159 
Q 2644 4219 2406 4219 
Q 1781 4219 1451 3797 
Q 1122 3375 1075 2522 
Q 1259 2794 1537 2939 
Q 1816 3084 2150 3084 
Q 2853 3084 3261 2657 
Q 3669 2231 3669 1497 
Q 3669 778 3244 343 
Q 2819 -91 2113 -91 
Q 1303 -91 875 529 
Q 447 1150 447 2328 
Q 447 3434 972 4092 
Q 1497 4750 2381 4750 
Q 2619 4750 2861 4703 
Q 3103 4656 3366 4563 
z
" transform="scale(0.015625)"/>
       </defs>
       <use xlink:href="#DejaVuSans-36"/>
      </g>
     </g>
    </g>
    <g id="xtick_5">
     <g id="line2d_7">
      <g>
       <use xlink:href="#m3113cf85e5" x="202.6875" y="146.15" style="stroke: #000000; stroke-width: 0.8"/>
      </g>
     </g>
     <g id="text_5">
      <!-- 8 -->
      <g transform="translate(199.50625 160.748437)scale(0.1 -0.1)">
       <defs>
        <path id="DejaVuSans-38" d="M 2034 2216 
Q 1584 2216 1326 1975 
Q 1069 1734 1069 1313 
Q 1069 891 1326 650 
Q 1584 409 2034 409 
Q 2484 409 2743 651 
Q 3003 894 3003 1313 
Q 3003 1734 2745 1975 
Q 2488 2216 2034 2216 
z
M 1403 2484 
Q 997 2584 770 2862 
Q 544 3141 544 3541 
Q 544 4100 942 4425 
Q 1341 4750 2034 4750 
Q 2731 4750 3128 4425 
Q 3525 4100 3525 3541 
Q 3525 3141 3298 2862 
Q 3072 2584 2669 2484 
Q 3125 2378 3379 2068 
Q 3634 1759 3634 1313 
Q 3634 634 3220 271 
Q 2806 -91 2034 -91 
Q 1263 -91 848 271 
Q 434 634 434 1313 
Q 434 1759 690 2068 
Q 947 2378 1403 2484 
z
M 1172 3481 
Q 1172 3119 1398 2916 
Q 1625 2713 2034 2713 
Q 2441 2713 2670 2916 
Q 2900 3119 2900 3481 
Q 2900 3844 2670 4047 
Q 2441 4250 2034 4250 
Q 1625 4250 1398 4047 
Q 1172 3844 1172 3481 
z
" transform="scale(0.015625)"/>
       </defs>
       <use xlink:href="#DejaVuSans-38"/>
      </g>
     </g>
    </g>
    <g id="xtick_6">
     <g id="line2d_8">
      <g>
       <use xlink:href="#m3113cf85e5" x="235.245833" y="146.15" style="stroke: #000000; stroke-width: 0.8"/>
      </g>
     </g>
     <g id="text_6">
      <!-- 10 -->
      <g transform="translate(228.883333 160.748437)scale(0.1 -0.1)">
       <defs>
        <path id="DejaVuSans-31" d="M 794 531 
L 1825 531 
L 1825 4091 
L 703 3866 
L 703 4441 
L 1819 4666 
L 2450 4666 
L 2450 531 
L 3481 531 
L 3481 0 
L 794 0 
L 794 531 
z
" transform="scale(0.015625)"/>
       </defs>
       <use xlink:href="#DejaVuSans-31"/>
       <use xlink:href="#DejaVuSans-30" x="63.623047"/>
      </g>
     </g>
    </g>
    <g id="xtick_7">
     <g id="line2d_9">
      <g>
       <use xlink:href="#m3113cf85e5" x="267.804167" y="146.15" style="stroke: #000000; stroke-width: 0.8"/>
      </g>
     </g>
     <g id="text_7">
      <!-- 12 -->
      <g transform="translate(261.441667 160.748437)scale(0.1 -0.1)">
       <use xlink:href="#DejaVuSans-31"/>
       <use xlink:href="#DejaVuSans-32" x="63.623047"/>
      </g>
     </g>
    </g>
    <g id="xtick_8">
     <g id="line2d_10">
      <g>
       <use xlink:href="#m3113cf85e5" x="300.3625" y="146.15" style="stroke: #000000; stroke-width: 0.8"/>
      </g>
     </g>
     <g id="text_8">
      <!-- 14 -->
      <g transform="translate(294 160.748437)scale(0.1 -0.1)">
       <use xlink:href="#DejaVuSans-31"/>
       <use xlink:href="#DejaVuSans-34" x="63.623047"/>
      </g>
     </g>
    </g>
    <g id="xtick_9">
     <g id="line2d_11">
      <g>
       <use xlink:href="#m3113cf85e5" x="332.920833" y="146.15" style="stroke: #000000; stroke-width: 0.8"/>
      </g>
     </g>
     <g id="text_9">
      <!-- 16 -->
      <g transform="translate(326.558333 160.748437)scale(0.1 -0.1)">
       <use xlink:href="#DejaVuSans-31"/>
       <use xlink:href="#DejaVuSans-36" x="63.623047"/>
      </g>
     </g>
    </g>
    <g id="text_10">
     <!-- x -->
     <g transform="translate(199.728125 174.426562)scale(0.1 -0.1)">
      <defs>
       <path id="DejaVuSans-78" d="M 3513 3500 
L 2247 1797 
L 3578 0 
L 2900 0 
L 1881 1375 
L 863 0 
L 184 0 
L 1544 1831 
L 300 3500 
L 978 3500 
L 1906 2253 
L 2834 3500 
L 3513 3500 
z
" transform="scale(0.015625)"/>
      </defs>
      <use xlink:href="#DejaVuSans-78"/>
     </g>
    </g>
   </g>
   <g id="matplotlib.axis_2">
    <g id="ytick_1">
     <g id="line2d_12">
      <defs>
       <path id="m567839f104" d="M 0 0 
L -3.5 0 
" style="stroke: #000000; stroke-width: 0.8"/>
      </defs>
      <g>
       <use xlink:href="#m567839f104" x="56.175" y="146.15" style="stroke: #000000; stroke-width: 0.8"/>
      </g>
     </g>
     <g id="text_11">
      <!-- −0.4 -->
      <g transform="translate(24.892187 149.949219)scale(0.1 -0.1)">
       <defs>
        <path id="DejaVuSans-2212" d="M 678 2272 
L 4684 2272 
L 4684 1741 
L 678 1741 
L 678 2272 
z
" transform="scale(0.015625)"/>
        <path id="DejaVuSans-2e" d="M 684 794 
L 1344 794 
L 1344 0 
L 684 0 
L 684 794 
z
" transform="scale(0.015625)"/>
       </defs>
       <use xlink:href="#DejaVuSans-2212"/>
       <use xlink:href="#DejaVuSans-30" x="83.789062"/>
       <use xlink:href="#DejaVuSans-2e" x="147.412109"/>
       <use xlink:href="#DejaVuSans-34" x="179.199219"/>
      </g>
     </g>
    </g>
    <g id="ytick_2">
     <g id="line2d_13">
      <g>
       <use xlink:href="#m567839f104" x="56.175" y="119.2625" style="stroke: #000000; stroke-width: 0.8"/>
      </g>
     </g>
     <g id="text_12">
      <!-- −0.2 -->
      <g transform="translate(24.892187 123.061719)scale(0.1 -0.1)">
       <use xlink:href="#DejaVuSans-2212"/>
       <use xlink:href="#DejaVuSans-30" x="83.789062"/>
       <use xlink:href="#DejaVuSans-2e" x="147.412109"/>
       <use xlink:href="#DejaVuSans-32" x="179.199219"/>
      </g>
     </g>
    </g>
    <g id="ytick_3">
     <g id="line2d_14">
      <g>
       <use xlink:href="#m567839f104" x="56.175" y="92.375" style="stroke: #000000; stroke-width: 0.8"/>
      </g>
     </g>
     <g id="text_13">
      <!-- 0.0 -->
      <g transform="translate(33.271875 96.174219)scale(0.1 -0.1)">
       <use xlink:href="#DejaVuSans-30"/>
       <use xlink:href="#DejaVuSans-2e" x="63.623047"/>
       <use xlink:href="#DejaVuSans-30" x="95.410156"/>
      </g>
     </g>
    </g>
    <g id="ytick_4">
     <g id="line2d_15">
      <g>
       <use xlink:href="#m567839f104" x="56.175" y="65.4875" style="stroke: #000000; stroke-width: 0.8"/>
      </g>
     </g>
     <g id="text_14">
      <!-- 0.2 -->
      <g transform="translate(33.271875 69.286719)scale(0.1 -0.1)">
       <use xlink:href="#DejaVuSans-30"/>
       <use xlink:href="#DejaVuSans-2e" x="63.623047"/>
       <use xlink:href="#DejaVuSans-32" x="95.410156"/>
      </g>
     </g>
    </g>
    <g id="ytick_5">
     <g id="line2d_16">
      <g>
       <use xlink:href="#m567839f104" x="56.175" y="38.6" style="stroke: #000000; stroke-width: 0.8"/>
      </g>
     </g>
     <g id="text_15">
      <!-- 0.4 -->
      <g transform="translate(33.271875 42.399219)scale(0.1 -0.1)">
       <use xlink:href="#DejaVuSans-30"/>
       <use xlink:href="#DejaVuSans-2e" x="63.623047"/>
       <use xlink:href="#DejaVuSans-34" x="95.410156"/>
      </g>
     </g>
    </g>
    <g id="text_16">
     <!-- f(x) -->
     <g transform="translate(18.8125 100.996094)rotate(-90)scale(0.1 -0.1)">
      <defs>
       <path id="DejaVuSans-66" d="M 2375 4863 
L 2375 4384 
L 1825 4384 
Q 1516 4384 1395 4259 
Q 1275 4134 1275 3809 
L 1275 3500 
L 2222 3500 
L 2222 3053 
L 1275 3053 
L 1275 0 
L 697 0 
L 697 3053 
L 147 3053 
L 147 3500 
L 697 3500 
L 697 3744 
Q 697 4328 969 4595 
Q 1241 4863 1831 4863 
L 2375 4863 
z
" transform="scale(0.015625)"/>
       <path id="DejaVuSans-28" d="M 1984 4856 
Q 1566 4138 1362 3434 
Q 1159 2731 1159 2009 
Q 1159 1288 1364 580 
Q 1569 -128 1984 -844 
L 1484 -844 
Q 1016 -109 783 600 
Q 550 1309 550 2009 
Q 550 2706 781 3412 
Q 1013 4119 1484 4856 
L 1984 4856 
z
" transform="scale(0.015625)"/>
       <path id="DejaVuSans-29" d="M 513 4856 
L 1013 4856 
Q 1481 4119 1714 3412 
Q 1947 2706 1947 2009 
Q 1947 1309 1714 600 
Q 1481 -109 1013 -844 
L 513 -844 
Q 928 -128 1133 580 
Q 1338 1288 1338 2009 
Q 1338 2731 1133 3434 
Q 928 4138 513 4856 
z
" transform="scale(0.015625)"/>
      </defs>
      <use xlink:href="#DejaVuSans-66"/>
      <use xlink:href="#DejaVuSans-28" x="35.205078"/>
      <use xlink:href="#DejaVuSans-78" x="74.21875"/>
      <use xlink:href="#DejaVuSans-29" x="133.398438"/>
     </g>
    </g>
   </g>
   <g id="line2d_17">
    <path d="M 72.454167 92.375 
L 93.312358 80.542981 
L 104.523636 74.444978 
L 113.909822 69.586952 
L 122.253099 65.511782 
L 130.074921 61.937422 
L 137.375288 58.844988 
L 144.414927 56.108791 
L 150.933112 53.807855 
L 157.451297 51.745173 
L 163.708755 50.000992 
L 169.705485 48.555759 
L 175.702215 47.339666 
L 181.438217 46.396735 
L 187.17422 45.673789 
L 192.910223 45.174287 
L 198.646225 44.90062 
L 204.382228 44.854096 
L 210.118231 45.034937 
L 215.854233 45.44228 
L 221.590236 46.074175 
L 227.326239 46.927598 
L 233.062241 47.998466 
L 239.058971 49.344932 
L 245.055702 50.916411 
L 251.313159 52.787213 
L 257.831344 54.975473 
L 264.610256 57.496146 
L 271.649896 60.360182 
L 278.950263 63.57365 
L 286.772085 67.263596 
L 295.376089 71.579166 
L 304.762275 76.540588 
L 315.973553 82.726837 
L 332.399379 92.076058 
L 332.920833 92.375 
L 332.920833 92.375 
" clip-path="url(#p4feefeff55)" style="fill: none; stroke: #1f77b4; stroke-width: 1.5; stroke-linecap: square"/>
   </g>
   <g id="line2d_18">
    <path d="M 72.454167 92.375 
L 79.233079 92.262907 
L 86.011991 91.929619 
L 93.051631 91.358985 
L 100.351998 90.54305 
L 108.17382 89.444095 
L 117.038551 87.966225 
L 127.989102 85.897512 
L 161.622935 79.366537 
L 170.226939 78.017306 
L 178.048761 77.011233 
L 185.349128 76.294585 
L 192.388768 75.828276 
L 199.16768 75.600582 
L 205.946592 75.596266 
L 212.725505 75.815443 
L 219.504417 76.252266 
L 226.544057 76.9237 
L 234.105151 77.870087 
L 242.448428 79.14786 
L 252.095341 80.864321 
L 265.392438 83.484103 
L 285.989902 87.541591 
L 295.636816 89.199619 
L 303.980093 90.409225 
L 311.541187 91.282103 
L 318.580827 91.877275 
L 325.359739 92.235623 
L 332.138651 92.373504 
L 332.920833 92.375 
L 332.920833 92.375 
" clip-path="url(#p4feefeff55)" style="fill: none; stroke: #ff7f0e; stroke-width: 1.5; stroke-linecap: square"/>
   </g>
   <g id="line2d_19">
    <path d="M 72.454167 146.15 
L 72.454167 38.6 
" clip-path="url(#p4feefeff55)" style="fill: none; stroke: #000000; stroke-width: 1.5; stroke-linecap: square"/>
   </g>
   <g id="line2d_20">
    <path d="M 332.920833 146.15 
L 332.920833 38.6 
" clip-path="url(#p4feefeff55)" style="fill: none; stroke: #000000; stroke-width: 1.5; stroke-linecap: square"/>
   </g>
   <g id="patch_3">
    <path d="M 56.175 146.15 
L 56.175 38.6 
" style="fill: none; stroke: #000000; stroke-width: 0.8; stroke-linejoin: miter; stroke-linecap: square"/>
   </g>
   <g id="patch_4">
    <path d="M 349.2 146.15 
L 349.2 38.6 
" style="fill: none; stroke: #000000; stroke-width: 0.8; stroke-linejoin: miter; stroke-linecap: square"/>
   </g>
   <g id="patch_5">
    <path d="M 56.175 146.15 
L 349.2 146.15 
" style="fill: none; stroke: #000000; stroke-width: 0.8; stroke-linejoin: miter; stroke-linecap: square"/>
   </g>
   <g id="patch_6">
    <path d="M 56.175 38.6 
L 349.2 38.6 
" style="fill: none; stroke: #000000; stroke-width: 0.8; stroke-linejoin: miter; stroke-linecap: square"/>
   </g>
   <g id="legend_1">
    <g id="patch_7">
     <path d="M 63.175 141.15 
L 133.175 141.15 
Q 135.175 141.15 135.175 139.15 
L 135.175 108.95 
Q 135.175 106.95 133.175 106.95 
L 63.175 106.95 
Q 61.175 106.95 61.175 108.95 
L 61.175 139.15 
Q 61.175 141.15 63.175 141.15 
z
" style="fill: #ffffff; opacity: 0.8; stroke: #cccccc; stroke-linejoin: miter"/>
    </g>
    <g id="line2d_21">
     <path d="M 65.175 115.05 
L 75.175 115.05 
L 85.175 115.05 
" style="fill: none; stroke: #1f77b4; stroke-width: 1.5; stroke-linecap: square"/>
    </g>
    <g id="text_17">
     <!-- $\phi_1(x)$ -->
     <g transform="translate(93.175 118.55)scale(0.1 -0.1)">
      <defs>
       <path id="DejaVuSans-Oblique-3d5" d="M 2991 4863 
L 2738 3572 
Q 3363 3572 3684 3094 
Q 4016 2606 3850 1747 
Q 3681 888 3159 400 
Q 2653 -78 2028 -78 
L 1784 -1331 
L 1213 -1331 
L 1456 -78 
Q 834 -78 509 400 
Q 178 888 347 1747 
Q 513 2606 1034 3094 
Q 1544 3572 2166 3572 
L 2419 4863 
L 2991 4863 
z
M 2128 434 
Q 2481 434 2784 756 
Q 3116 1116 3244 1747 
Q 3369 2372 3169 2738 
Q 2991 3059 2638 3059 
L 2128 434 
z
M 1556 434 
L 2066 3059 
Q 1716 3059 1413 2738 
Q 1072 2372 953 1747 
Q 834 1116 1028 756 
Q 1203 434 1556 434 
z
" transform="scale(0.015625)"/>
       <path id="DejaVuSans-Oblique-78" d="M 3841 3500 
L 2234 1784 
L 3219 0 
L 2559 0 
L 1819 1388 
L 531 0 
L -166 0 
L 1556 1844 
L 641 3500 
L 1300 3500 
L 1972 2234 
L 3144 3500 
L 3841 3500 
z
" transform="scale(0.015625)"/>
      </defs>
      <use xlink:href="#DejaVuSans-Oblique-3d5" transform="translate(0 0.015625)"/>
      <use xlink:href="#DejaVuSans-31" transform="translate(65.966797 -16.390625)scale(0.7)"/>
      <use xlink:href="#DejaVuSans-28" transform="translate(113.237305 0.015625)"/>
      <use xlink:href="#DejaVuSans-Oblique-78" transform="translate(152.250977 0.015625)"/>
      <use xlink:href="#DejaVuSans-29" transform="translate(211.430664 0.015625)"/>
     </g>
    </g>
    <g id="line2d_22">
     <path d="M 65.175 131.25 
L 75.175 131.25 
L 85.175 131.25 
" style="fill: none; stroke: #ff7f0e; stroke-width: 1.5; stroke-linecap: square"/>
    </g>
    <g id="text_18">
     <!-- $|\Psi_1(x)|^2$ -->
     <g transform="translate(93.175 134.75)scale(0.1 -0.1)">
      <defs>
       <path id="DejaVuSans-7c" d="M 1344 4891 
L 1344 -1509 
L 813 -1509 
L 813 4891 
L 1344 4891 
z
" transform="scale(0.015625)"/>
       <path id="DejaVuSans-3a8" d="M 2206 0 
Q 2209 419 2206 969 
Q 1538 969 950 1625 
Q 375 2263 359 3388 
L 359 4666 
L 1025 4666 
L 1025 3388 
Q 1025 2506 1431 1994 
Q 1775 1556 2206 1513 
L 2206 4666 
L 2838 4666 
L 2838 1513 
Q 3269 1556 3613 1994 
Q 4019 2506 4019 3388 
L 4019 4666 
L 4684 4666 
L 4684 3388 
Q 4669 2263 4094 1625 
Q 3506 969 2838 969 
Q 2834 744 2838 0 
L 2206 0 
z
" transform="scale(0.015625)"/>
      </defs>
      <use xlink:href="#DejaVuSans-7c" transform="translate(0 0.765625)"/>
      <use xlink:href="#DejaVuSans-3a8" transform="translate(33.691406 0.765625)"/>
      <use xlink:href="#DejaVuSans-31" transform="translate(113.359375 -15.640625)scale(0.7)"/>
      <use xlink:href="#DejaVuSans-28" transform="translate(160.629883 0.765625)"/>
      <use xlink:href="#DejaVuSans-Oblique-78" transform="translate(199.643555 0.765625)"/>
      <use xlink:href="#DejaVuSans-29" transform="translate(258.823242 0.765625)"/>
      <use xlink:href="#DejaVuSans-7c" transform="translate(297.836914 0.765625)"/>
      <use xlink:href="#DejaVuSans-32" transform="translate(332.485352 39.046875)scale(0.7)"/>
     </g>
    </g>
   </g>
  </g>
  <g id="axes_2">
   <g id="patch_8">
    <path d="M 56.175 299.5 
L 349.2 299.5 
L 349.2 191.95 
L 56.175 191.95 
z
" style="fill: #ffffff"/>
   </g>
   <g id="line2d_23">
    <path d="M 56.175 245.725 
L 349.2 245.725 
" clip-path="url(#p5e7165bdb7)" style="fill: none; stroke-dasharray: 0.5,0.825; stroke-dashoffset: 0; stroke: #000000; stroke-width: 0.5"/>
   </g>
   <g id="line2d_24">
    <path d="M 202.6875 299.5 
L 202.6875 191.95 
" clip-path="url(#p5e7165bdb7)" style="fill: none; stroke-dasharray: 0.5,0.825; stroke-dashoffset: 0; stroke: #000000; stroke-width: 0.5"/>
   </g>
   <g id="matplotlib.axis_3">
    <g id="xtick_10">
     <g id="line2d_25">
      <g>
       <use xlink:href="#m3113cf85e5" x="72.454167" y="299.5" style="stroke: #000000; stroke-width: 0.8"/>
      </g>
     </g>
     <g id="text_19">
      <!-- 0 -->
      <g transform="translate(69.272917 314.098437)scale(0.1 -0.1)">
       <use xlink:href="#DejaVuSans-30"/>
      </g>
     </g>
    </g>
    <g id="xtick_11">
     <g id="line2d_26">
      <g>
       <use xlink:href="#m3113cf85e5" x="105.0125" y="299.5" style="stroke: #000000; stroke-width: 0.8"/>
      </g>
     </g>
     <g id="text_20">
      <!-- 2 -->
      <g transform="translate(101.83125 314.098437)scale(0.1 -0.1)">
       <use xlink:href="#DejaVuSans-32"/>
      </g>
     </g>
    </g>
    <g id="xtick_12">
     <g id="line2d_27">
      <g>
       <use xlink:href="#m3113cf85e5" x="137.570833" y="299.5" style="stroke: #000000; stroke-width: 0.8"/>
      </g>
     </g>
     <g id="text_21">
      <!-- 4 -->
      <g transform="translate(134.389583 314.098437)scale(0.1 -0.1)">
       <use xlink:href="#DejaVuSans-34"/>
      </g>
     </g>
    </g>
    <g id="xtick_13">
     <g id="line2d_28">
      <g>
       <use xlink:href="#m3113cf85e5" x="170.129167" y="299.5" style="stroke: #000000; stroke-width: 0.8"/>
      </g>
     </g>
     <g id="text_22">
      <!-- 6 -->
      <g transform="translate(166.947917 314.098437)scale(0.1 -0.1)">
       <use xlink:href="#DejaVuSans-36"/>
      </g>
     </g>
    </g>
    <g id="xtick_14">
     <g id="line2d_29">
      <g>
       <use xlink:href="#m3113cf85e5" x="202.6875" y="299.5" style="stroke: #000000; stroke-width: 0.8"/>
      </g>
     </g>
     <g id="text_23">
      <!-- 8 -->
      <g transform="translate(199.50625 314.098437)scale(0.1 -0.1)">
       <use xlink:href="#DejaVuSans-38"/>
      </g>
     </g>
    </g>
    <g id="xtick_15">
     <g id="line2d_30">
      <g>
       <use xlink:href="#m3113cf85e5" x="235.245833" y="299.5" style="stroke: #000000; stroke-width: 0.8"/>
      </g>
     </g>
     <g id="text_24">
      <!-- 10 -->
      <g transform="translate(228.883333 314.098437)scale(0.1 -0.1)">
       <use xlink:href="#DejaVuSans-31"/>
       <use xlink:href="#DejaVuSans-30" x="63.623047"/>
      </g>
     </g>
    </g>
    <g id="xtick_16">
     <g id="line2d_31">
      <g>
       <use xlink:href="#m3113cf85e5" x="267.804167" y="299.5" style="stroke: #000000; stroke-width: 0.8"/>
      </g>
     </g>
     <g id="text_25">
      <!-- 12 -->
      <g transform="translate(261.441667 314.098437)scale(0.1 -0.1)">
       <use xlink:href="#DejaVuSans-31"/>
       <use xlink:href="#DejaVuSans-32" x="63.623047"/>
      </g>
     </g>
    </g>
    <g id="xtick_17">
     <g id="line2d_32">
      <g>
       <use xlink:href="#m3113cf85e5" x="300.3625" y="299.5" style="stroke: #000000; stroke-width: 0.8"/>
      </g>
     </g>
     <g id="text_26">
      <!-- 14 -->
      <g transform="translate(294 314.098437)scale(0.1 -0.1)">
       <use xlink:href="#DejaVuSans-31"/>
       <use xlink:href="#DejaVuSans-34" x="63.623047"/>
      </g>
     </g>
    </g>
    <g id="xtick_18">
     <g id="line2d_33">
      <g>
       <use xlink:href="#m3113cf85e5" x="332.920833" y="299.5" style="stroke: #000000; stroke-width: 0.8"/>
      </g>
     </g>
     <g id="text_27">
      <!-- 16 -->
      <g transform="translate(326.558333 314.098437)scale(0.1 -0.1)">
       <use xlink:href="#DejaVuSans-31"/>
       <use xlink:href="#DejaVuSans-36" x="63.623047"/>
      </g>
     </g>
    </g>
    <g id="text_28">
     <!-- x -->
     <g transform="translate(199.728125 327.776562)scale(0.1 -0.1)">
      <use xlink:href="#DejaVuSans-78"/>
     </g>
    </g>
   </g>
   <g id="matplotlib.axis_4">
    <g id="ytick_6">
     <g id="line2d_34">
      <g>
       <use xlink:href="#m567839f104" x="56.175" y="299.5" style="stroke: #000000; stroke-width: 0.8"/>
      </g>
     </g>
     <g id="text_29">
      <!-- −0.4 -->
      <g transform="translate(24.892187 303.299219)scale(0.1 -0.1)">
       <use xlink:href="#DejaVuSans-2212"/>
       <use xlink:href="#DejaVuSans-30" x="83.789062"/>
       <use xlink:href="#DejaVuSans-2e" x="147.412109"/>
       <use xlink:href="#DejaVuSans-34" x="179.199219"/>
      </g>
     </g>
    </g>
    <g id="ytick_7">
     <g id="line2d_35">
      <g>
       <use xlink:href="#m567839f104" x="56.175" y="272.6125" style="stroke: #000000; stroke-width: 0.8"/>
      </g>
     </g>
     <g id="text_30">
      <!-- −0.2 -->
      <g transform="translate(24.892187 276.411719)scale(0.1 -0.1)">
       <use xlink:href="#DejaVuSans-2212"/>
       <use xlink:href="#DejaVuSans-30" x="83.789062"/>
       <use xlink:href="#DejaVuSans-2e" x="147.412109"/>
       <use xlink:href="#DejaVuSans-32" x="179.199219"/>
      </g>
     </g>
    </g>
    <g id="ytick_8">
     <g id="line2d_36">
      <g>
       <use xlink:href="#m567839f104" x="56.175" y="245.725" style="stroke: #000000; stroke-width: 0.8"/>
      </g>
     </g>
     <g id="text_31">
      <!-- 0.0 -->
      <g transform="translate(33.271875 249.524219)scale(0.1 -0.1)">
       <use xlink:href="#DejaVuSans-30"/>
       <use xlink:href="#DejaVuSans-2e" x="63.623047"/>
       <use xlink:href="#DejaVuSans-30" x="95.410156"/>
      </g>
     </g>
    </g>
    <g id="ytick_9">
     <g id="line2d_37">
      <g>
       <use xlink:href="#m567839f104" x="56.175" y="218.8375" style="stroke: #000000; stroke-width: 0.8"/>
      </g>
     </g>
     <g id="text_32">
      <!-- 0.2 -->
      <g transform="translate(33.271875 222.636719)scale(0.1 -0.1)">
       <use xlink:href="#DejaVuSans-30"/>
       <use xlink:href="#DejaVuSans-2e" x="63.623047"/>
       <use xlink:href="#DejaVuSans-32" x="95.410156"/>
      </g>
     </g>
    </g>
    <g id="ytick_10">
     <g id="line2d_38">
      <g>
       <use xlink:href="#m567839f104" x="56.175" y="191.95" style="stroke: #000000; stroke-width: 0.8"/>
      </g>
     </g>
     <g id="text_33">
      <!-- 0.4 -->
      <g transform="translate(33.271875 195.749219)scale(0.1 -0.1)">
       <use xlink:href="#DejaVuSans-30"/>
       <use xlink:href="#DejaVuSans-2e" x="63.623047"/>
       <use xlink:href="#DejaVuSans-34" x="95.410156"/>
      </g>
     </g>
    </g>
    <g id="text_34">
     <!-- f(x) -->
     <g transform="translate(18.8125 254.346094)rotate(-90)scale(0.1 -0.1)">
      <use xlink:href="#DejaVuSans-66"/>
      <use xlink:href="#DejaVuSans-28" x="35.205078"/>
      <use xlink:href="#DejaVuSans-78" x="74.21875"/>
      <use xlink:href="#DejaVuSans-29" x="133.398438"/>
     </g>
    </g>
   </g>
   <g id="line2d_39">
    <path d="M 72.454167 245.725 
L 83.926172 232.738713 
L 89.922902 226.28329 
L 95.13745 220.995434 
L 99.569816 216.804887 
L 103.741454 213.161764 
L 107.652365 210.044919 
L 111.302548 207.421654 
L 114.692005 205.25111 
L 118.081461 203.350992 
L 121.210189 201.84807 
L 124.338918 200.594966 
L 127.206919 199.671862 
L 130.074921 198.969103 
L 132.942922 198.490049 
L 135.810923 198.236993 
L 138.678925 198.211146 
L 141.546926 198.412631 
L 144.414927 198.840484 
L 147.282929 199.492658 
L 150.15093 200.366034 
L 153.279659 201.566147 
L 156.408388 203.017683 
L 159.537116 204.712375 
L 162.926572 206.811466 
L 166.316029 209.170556 
L 169.966212 211.983769 
L 173.877123 215.287422 
L 178.048761 219.108931 
L 182.741854 223.728 
L 187.956402 229.187905 
L 194.21386 236.076837 
L 204.121501 247.368864 
L 214.289869 258.855007 
L 220.286599 265.30301 
L 225.24042 270.326796 
L 229.672785 274.52635 
L 233.844424 278.179192 
L 237.755335 281.306152 
L 241.405518 283.939654 
L 244.794974 286.120321 
L 248.18443 288.031086 
L 251.313159 289.544241 
L 254.441888 290.807907 
L 257.309889 291.740929 
L 260.17789 292.453785 
L 263.045892 292.943065 
L 265.913893 293.206428 
L 268.781894 293.242614 
L 271.649896 293.05145 
L 274.517897 292.63385 
L 277.385898 291.991812 
L 280.2539 291.128409 
L 283.121901 290.047771 
L 286.25063 288.62724 
L 289.379359 286.962442 
L 292.768815 284.894288 
L 296.158271 282.564425 
L 299.808454 279.780554 
L 303.719365 276.50563 
L 307.891004 272.711396 
L 312.323369 268.381763 
L 317.537917 262.960689 
L 323.795375 256.103741 
L 332.920833 245.725 
L 332.920833 245.725 
" clip-path="url(#p5e7165bdb7)" style="fill: none; stroke: #1f77b4; stroke-width: 1.5; stroke-linecap: square"/>
   </g>
   <g id="line2d_40">
    <path d="M 72.454167 245.725 
L 75.843623 245.612907 
L 79.233079 245.279619 
L 82.883262 244.683649 
L 86.533446 243.85998 
L 90.444357 242.75388 
L 94.876723 241.269651 
L 100.612725 239.092856 
L 116.517096 232.894768 
L 120.949462 231.480198 
L 124.860373 230.451245 
L 128.510556 229.710341 
L 132.16074 229.204908 
L 135.550196 228.960208 
L 138.939652 228.938628 
L 142.329108 229.140746 
L 145.718564 229.561167 
L 149.368748 230.245078 
L 153.279659 231.220087 
L 157.451297 232.49786 
L 162.405118 234.26348 
L 169.444757 237.045263 
L 179.091671 240.843678 
L 184.045491 242.549619 
L 188.21713 243.759225 
L 192.128041 244.658021 
L 195.778224 245.262485 
L 199.16768 245.60414 
L 202.557136 245.724834 
L 205.946592 245.621346 
L 209.336049 245.296439 
L 212.725505 244.75878 
L 216.375688 243.958408 
L 220.286599 242.873872 
L 224.718965 241.408898 
L 230.19424 239.350239 
L 247.662975 232.58477 
L 252.095341 231.220087 
L 256.006252 230.245078 
L 259.656436 229.561167 
L 263.045892 229.140746 
L 266.435348 228.938628 
L 269.824804 228.960208 
L 273.21426 229.204908 
L 276.603716 229.666201 
L 280.2539 230.390963 
L 284.164811 231.404703 
L 288.336449 232.716537 
L 293.290269 234.511048 
L 300.851364 237.520812 
L 309.455368 240.891591 
L 314.409188 242.590891 
L 318.580827 243.793066 
L 322.491738 244.683649 
L 326.141921 245.279619 
L 329.531377 245.612907 
L 332.920833 245.725 
L 332.920833 245.725 
" clip-path="url(#p5e7165bdb7)" style="fill: none; stroke: #ff7f0e; stroke-width: 1.5; stroke-linecap: square"/>
   </g>
   <g id="line2d_41">
    <path d="M 72.454167 299.5 
L 72.454167 191.95 
" clip-path="url(#p5e7165bdb7)" style="fill: none; stroke: #000000; stroke-width: 1.5; stroke-linecap: square"/>
   </g>
   <g id="line2d_42">
    <path d="M 332.920833 299.5 
L 332.920833 191.95 
" clip-path="url(#p5e7165bdb7)" style="fill: none; stroke: #000000; stroke-width: 1.5; stroke-linecap: square"/>
   </g>
   <g id="patch_9">
    <path d="M 56.175 299.5 
L 56.175 191.95 
" style="fill: none; stroke: #000000; stroke-width: 0.8; stroke-linejoin: miter; stroke-linecap: square"/>
   </g>
   <g id="patch_10">
    <path d="M 349.2 299.5 
L 349.2 191.95 
" style="fill: none; stroke: #000000; stroke-width: 0.8; stroke-linejoin: miter; stroke-linecap: square"/>
   </g>
   <g id="patch_11">
    <path d="M 56.175 299.5 
L 349.2 299.5 
" style="fill: none; stroke: #000000; stroke-width: 0.8; stroke-linejoin: miter; stroke-linecap: square"/>
   </g>
   <g id="patch_12">
    <path d="M 56.175 191.95 
L 349.2 191.95 
" style="fill: none; stroke: #000000; stroke-width: 0.8; stroke-linejoin: miter; stroke-linecap: square"/>
   </g>
   <g id="legend_2">
    <g id="patch_13">
     <path d="M 63.175 294.5 
L 133.175 294.5 
Q 135.175 294.5 135.175 292.5 
L 135.175 262.3 
Q 135.175 260.3 133.175 260.3 
L 63.175 260.3 
Q 61.175 260.3 61.175 262.3 
L 61.175 292.5 
Q 61.175 294.5 63.175 294.5 
z
" style="fill: #ffffff; opacity: 0.8; stroke: #cccccc; stroke-linejoin: miter"/>
    </g>
    <g id="line2d_43">
     <path d="M 65.175 268.4 
L 75.175 268.4 
L 85.175 268.4 
" style="fill: none; stroke: #1f77b4; stroke-width: 1.5; stroke-linecap: square"/>
    </g>
    <g id="text_35">
     <!-- $\phi_2(x)$ -->
     <g transform="translate(93.175 271.9)scale(0.1 -0.1)">
      <use xlink:href="#DejaVuSans-Oblique-3d5" transform="translate(0 0.015625)"/>
      <use xlink:href="#DejaVuSans-32" transform="translate(65.966797 -16.390625)scale(0.7)"/>
      <use xlink:href="#DejaVuSans-28" transform="translate(113.237305 0.015625)"/>
      <use xlink:href="#DejaVuSans-Oblique-78" transform="translate(152.250977 0.015625)"/>
      <use xlink:href="#DejaVuSans-29" transform="translate(211.430664 0.015625)"/>
     </g>
    </g>
    <g id="line2d_44">
     <path d="M 65.175 284.6 
L 75.175 284.6 
L 85.175 284.6 
" style="fill: none; stroke: #ff7f0e; stroke-width: 1.5; stroke-linecap: square"/>
    </g>
    <g id="text_36">
     <!-- $|\Psi_2(x)|^2$ -->
     <g transform="translate(93.175 288.1)scale(0.1 -0.1)">
      <use xlink:href="#DejaVuSans-7c" transform="translate(0 0.765625)"/>
      <use xlink:href="#DejaVuSans-3a8" transform="translate(33.691406 0.765625)"/>
      <use xlink:href="#DejaVuSans-32" transform="translate(113.359375 -15.640625)scale(0.7)"/>
      <use xlink:href="#DejaVuSans-28" transform="translate(160.629883 0.765625)"/>
      <use xlink:href="#DejaVuSans-Oblique-78" transform="translate(199.643555 0.765625)"/>
      <use xlink:href="#DejaVuSans-29" transform="translate(258.823242 0.765625)"/>
      <use xlink:href="#DejaVuSans-7c" transform="translate(297.836914 0.765625)"/>
      <use xlink:href="#DejaVuSans-32" transform="translate(332.485352 39.046875)scale(0.7)"/>
     </g>
    </g>
   </g>
  </g>
  <g id="axes_3">
   <g id="patch_14">
    <path d="M 56.175 452.85 
L 349.2 452.85 
L 349.2 345.3 
L 56.175 345.3 
z
" style="fill: #ffffff"/>
   </g>
   <g id="line2d_45">
    <path d="M 56.175 399.075 
L 349.2 399.075 
" clip-path="url(#pfbd31e4174)" style="fill: none; stroke-dasharray: 0.5,0.825; stroke-dashoffset: 0; stroke: #000000; stroke-width: 0.5"/>
   </g>
   <g id="line2d_46">
    <path d="M 202.6875 452.85 
L 202.6875 345.3 
" clip-path="url(#pfbd31e4174)" style="fill: none; stroke-dasharray: 0.5,0.825; stroke-dashoffset: 0; stroke: #000000; stroke-width: 0.5"/>
   </g>
   <g id="matplotlib.axis_5">
    <g id="xtick_19">
     <g id="line2d_47">
      <g>
       <use xlink:href="#m3113cf85e5" x="72.454167" y="452.85" style="stroke: #000000; stroke-width: 0.8"/>
      </g>
     </g>
     <g id="text_37">
      <!-- 0 -->
      <g transform="translate(69.272917 467.448437)scale(0.1 -0.1)">
       <use xlink:href="#DejaVuSans-30"/>
      </g>
     </g>
    </g>
    <g id="xtick_20">
     <g id="line2d_48">
      <g>
       <use xlink:href="#m3113cf85e5" x="105.0125" y="452.85" style="stroke: #000000; stroke-width: 0.8"/>
      </g>
     </g>
     <g id="text_38">
      <!-- 2 -->
      <g transform="translate(101.83125 467.448437)scale(0.1 -0.1)">
       <use xlink:href="#DejaVuSans-32"/>
      </g>
     </g>
    </g>
    <g id="xtick_21">
     <g id="line2d_49">
      <g>
       <use xlink:href="#m3113cf85e5" x="137.570833" y="452.85" style="stroke: #000000; stroke-width: 0.8"/>
      </g>
     </g>
     <g id="text_39">
      <!-- 4 -->
      <g transform="translate(134.389583 467.448437)scale(0.1 -0.1)">
       <use xlink:href="#DejaVuSans-34"/>
      </g>
     </g>
    </g>
    <g id="xtick_22">
     <g id="line2d_50">
      <g>
       <use xlink:href="#m3113cf85e5" x="170.129167" y="452.85" style="stroke: #000000; stroke-width: 0.8"/>
      </g>
     </g>
     <g id="text_40">
      <!-- 6 -->
      <g transform="translate(166.947917 467.448437)scale(0.1 -0.1)">
       <use xlink:href="#DejaVuSans-36"/>
      </g>
     </g>
    </g>
    <g id="xtick_23">
     <g id="line2d_51">
      <g>
       <use xlink:href="#m3113cf85e5" x="202.6875" y="452.85" style="stroke: #000000; stroke-width: 0.8"/>
      </g>
     </g>
     <g id="text_41">
      <!-- 8 -->
      <g transform="translate(199.50625 467.448437)scale(0.1 -0.1)">
       <use xlink:href="#DejaVuSans-38"/>
      </g>
     </g>
    </g>
    <g id="xtick_24">
     <g id="line2d_52">
      <g>
       <use xlink:href="#m3113cf85e5" x="235.245833" y="452.85" style="stroke: #000000; stroke-width: 0.8"/>
      </g>
     </g>
     <g id="text_42">
      <!-- 10 -->
      <g transform="translate(228.883333 467.448437)scale(0.1 -0.1)">
       <use xlink:href="#DejaVuSans-31"/>
       <use xlink:href="#DejaVuSans-30" x="63.623047"/>
      </g>
     </g>
    </g>
    <g id="xtick_25">
     <g id="line2d_53">
      <g>
       <use xlink:href="#m3113cf85e5" x="267.804167" y="452.85" style="stroke: #000000; stroke-width: 0.8"/>
      </g>
     </g>
     <g id="text_43">
      <!-- 12 -->
      <g transform="translate(261.441667 467.448437)scale(0.1 -0.1)">
       <use xlink:href="#DejaVuSans-31"/>
       <use xlink:href="#DejaVuSans-32" x="63.623047"/>
      </g>
     </g>
    </g>
    <g id="xtick_26">
     <g id="line2d_54">
      <g>
       <use xlink:href="#m3113cf85e5" x="300.3625" y="452.85" style="stroke: #000000; stroke-width: 0.8"/>
      </g>
     </g>
     <g id="text_44">
      <!-- 14 -->
      <g transform="translate(294 467.448437)scale(0.1 -0.1)">
       <use xlink:href="#DejaVuSans-31"/>
       <use xlink:href="#DejaVuSans-34" x="63.623047"/>
      </g>
     </g>
    </g>
    <g id="xtick_27">
     <g id="line2d_55">
      <g>
       <use xlink:href="#m3113cf85e5" x="332.920833" y="452.85" style="stroke: #000000; stroke-width: 0.8"/>
      </g>
     </g>
     <g id="text_45">
      <!-- 16 -->
      <g transform="translate(326.558333 467.448437)scale(0.1 -0.1)">
       <use xlink:href="#DejaVuSans-31"/>
       <use xlink:href="#DejaVuSans-36" x="63.623047"/>
      </g>
     </g>
    </g>
    <g id="text_46">
     <!-- x -->
     <g transform="translate(199.728125 481.126562)scale(0.1 -0.1)">
      <use xlink:href="#DejaVuSans-78"/>
     </g>
    </g>
   </g>
   <g id="matplotlib.axis_6">
    <g id="ytick_11">
     <g id="line2d_56">
      <g>
       <use xlink:href="#m567839f104" x="56.175" y="452.85" style="stroke: #000000; stroke-width: 0.8"/>
      </g>
     </g>
     <g id="text_47">
      <!-- −0.4 -->
      <g transform="translate(24.892187 456.649219)scale(0.1 -0.1)">
       <use xlink:href="#DejaVuSans-2212"/>
       <use xlink:href="#DejaVuSans-30" x="83.789062"/>
       <use xlink:href="#DejaVuSans-2e" x="147.412109"/>
       <use xlink:href="#DejaVuSans-34" x="179.199219"/>
      </g>
     </g>
    </g>
    <g id="ytick_12">
     <g id="line2d_57">
      <g>
       <use xlink:href="#m567839f104" x="56.175" y="425.9625" style="stroke: #000000; stroke-width: 0.8"/>
      </g>
     </g>
     <g id="text_48">
      <!-- −0.2 -->
      <g transform="translate(24.892187 429.761719)scale(0.1 -0.1)">
       <use xlink:href="#DejaVuSans-2212"/>
       <use xlink:href="#DejaVuSans-30" x="83.789062"/>
       <use xlink:href="#DejaVuSans-2e" x="147.412109"/>
       <use xlink:href="#DejaVuSans-32" x="179.199219"/>
      </g>
     </g>
    </g>
    <g id="ytick_13">
     <g id="line2d_58">
      <g>
       <use xlink:href="#m567839f104" x="56.175" y="399.075" style="stroke: #000000; stroke-width: 0.8"/>
      </g>
     </g>
     <g id="text_49">
      <!-- 0.0 -->
      <g transform="translate(33.271875 402.874219)scale(0.1 -0.1)">
       <use xlink:href="#DejaVuSans-30"/>
       <use xlink:href="#DejaVuSans-2e" x="63.623047"/>
       <use xlink:href="#DejaVuSans-30" x="95.410156"/>
      </g>
     </g>
    </g>
    <g id="ytick_14">
     <g id="line2d_59">
      <g>
       <use xlink:href="#m567839f104" x="56.175" y="372.1875" style="stroke: #000000; stroke-width: 0.8"/>
      </g>
     </g>
     <g id="text_50">
      <!-- 0.2 -->
      <g transform="translate(33.271875 375.986719)scale(0.1 -0.1)">
       <use xlink:href="#DejaVuSans-30"/>
       <use xlink:href="#DejaVuSans-2e" x="63.623047"/>
       <use xlink:href="#DejaVuSans-32" x="95.410156"/>
      </g>
     </g>
    </g>
    <g id="ytick_15">
     <g id="line2d_60">
      <g>
       <use xlink:href="#m567839f104" x="56.175" y="345.3" style="stroke: #000000; stroke-width: 0.8"/>
      </g>
     </g>
     <g id="text_51">
      <!-- 0.4 -->
      <g transform="translate(33.271875 349.099219)scale(0.1 -0.1)">
       <use xlink:href="#DejaVuSans-30"/>
       <use xlink:href="#DejaVuSans-2e" x="63.623047"/>
       <use xlink:href="#DejaVuSans-34" x="95.410156"/>
      </g>
     </g>
    </g>
    <g id="text_52">
     <!-- f(x) -->
     <g transform="translate(18.8125 407.696094)rotate(-90)scale(0.1 -0.1)">
      <use xlink:href="#DejaVuSans-66"/>
      <use xlink:href="#DejaVuSans-28" x="35.205078"/>
      <use xlink:href="#DejaVuSans-78" x="74.21875"/>
      <use xlink:href="#DejaVuSans-29" x="133.398438"/>
     </g>
    </g>
   </g>
   <g id="line2d_61">
    <path d="M 72.454167 399.075 
L 80.797443 384.942665 
L 85.229809 377.876879 
L 88.879992 372.458931 
L 92.008721 368.180627 
L 94.876723 364.605069 
L 97.483996 361.675473 
L 100.09127 359.078502 
L 102.437817 357.044777 
L 104.784364 355.313881 
L 106.870183 354.039666 
L 108.956002 353.021862 
L 111.041821 352.266266 
L 112.866913 351.82363 
L 114.692005 351.586993 
L 116.517096 351.557386 
L 118.342188 351.734937 
L 120.16728 352.118874 
L 121.992372 352.707523 
L 124.078191 353.627598 
L 126.16401 354.806431 
L 128.249829 356.237311 
L 130.596376 358.138127 
L 132.942922 360.333894 
L 135.550196 363.100254 
L 138.15747 366.186569 
L 141.025471 369.918221 
L 144.1542 374.345434 
L 147.804384 379.906465 
L 152.236749 387.098273 
L 158.494207 397.729932 
L 167.619665 413.207335 
L 172.052031 420.273121 
L 175.702215 425.691069 
L 178.830943 429.969373 
L 181.698945 433.544931 
L 184.306219 436.474527 
L 186.913493 439.071498 
L 189.260039 441.105223 
L 191.606586 442.836119 
L 193.692405 444.110334 
L 195.778224 445.128138 
L 197.864043 445.883734 
L 199.689135 446.32637 
L 201.514227 446.563007 
L 203.339318 446.592614 
L 205.16441 446.415063 
L 206.989502 446.031126 
L 208.814594 445.442477 
L 210.900413 444.522402 
L 212.986232 443.343569 
L 215.072051 441.912689 
L 217.418598 440.011873 
L 219.765144 437.816106 
L 222.372418 435.049746 
L 224.979692 431.963431 
L 227.847694 428.231779 
L 230.976422 423.804566 
L 234.626606 418.243535 
L 239.058971 411.051727 
L 245.316429 400.420068 
L 254.441888 384.942665 
L 258.874253 377.876879 
L 262.524437 372.458931 
L 265.653166 368.180627 
L 268.521167 364.605069 
L 271.128441 361.675473 
L 273.735715 359.078502 
L 276.082261 357.044777 
L 278.428808 355.313881 
L 280.514627 354.039666 
L 282.600446 353.021862 
L 284.686265 352.266266 
L 286.511357 351.82363 
L 288.336449 351.586993 
L 290.161541 351.557386 
L 291.986632 351.734937 
L 293.811724 352.118874 
L 295.636816 352.707523 
L 297.722635 353.627598 
L 299.808454 354.806431 
L 301.894273 356.237311 
L 304.24082 358.138127 
L 306.587367 360.333894 
L 309.19464 363.100254 
L 311.801914 366.186569 
L 314.669916 369.918221 
L 317.798644 374.345434 
L 321.448828 379.906465 
L 325.881194 387.098273 
L 332.138651 397.729932 
L 332.920833 399.075 
L 332.920833 399.075 
" clip-path="url(#pfbd31e4174)" style="fill: none; stroke: #1f77b4; stroke-width: 1.5; stroke-linecap: square"/>
   </g>
   <g id="line2d_62">
    <path d="M 72.454167 399.075 
L 74.800713 398.95414 
L 77.14726 398.595037 
L 79.493806 398.008021 
L 82.10108 397.109225 
L 84.969082 395.858139 
L 88.09781 394.241591 
L 92.269449 391.818482 
L 100.873453 386.749008 
L 104.002181 385.181192 
L 106.870183 383.988574 
L 109.477457 383.152226 
L 111.824003 382.627098 
L 114.17055 382.333426 
L 116.517096 382.279659 
L 118.863643 382.467343 
L 121.210189 382.891078 
L 123.556736 383.538676 
L 126.16401 384.49792 
L 129.032011 385.804691 
L 132.421467 387.61348 
L 137.375288 390.553756 
L 143.632745 394.241591 
L 147.022201 395.981955 
L 149.890203 397.20998 
L 152.497477 398.084029 
L 154.844023 398.646439 
L 157.19057 398.979457 
L 159.537116 399.073504 
L 161.883663 398.925874 
L 164.230209 398.540814 
L 166.576756 397.929401 
L 169.18403 397.006178 
L 172.052031 395.732478 
L 175.441487 393.952065 
L 180.13458 391.187585 
L 187.17422 387.032118 
L 190.563676 385.302156 
L 193.431678 384.085825 
L 196.038951 383.224267 
L 198.385498 382.674236 
L 200.732045 382.354305 
L 203.078591 382.273678 
L 205.425138 382.434674 
L 207.771684 382.832662 
L 210.118231 383.456192 
L 212.725505 384.391505 
L 215.593506 385.676344 
L 218.982962 387.466375 
L 223.676055 390.23687 
L 230.715695 394.384474 
L 234.105151 396.10388 
L 236.973152 397.308408 
L 239.580426 398.157399 
L 241.926973 398.695003 
L 244.273519 399.001818 
L 246.620066 399.069018 
L 248.966612 398.89467 
L 251.313159 398.48379 
L 253.659706 397.848198 
L 256.266979 396.900877 
L 259.134981 395.605015 
L 262.524437 393.805525 
L 267.21753 391.029262 
L 273.996442 387.032118 
L 277.385898 385.302156 
L 280.2539 384.085825 
L 282.861174 383.224267 
L 285.20772 382.674236 
L 287.554267 382.354305 
L 289.900813 382.273678 
L 292.24736 382.434674 
L 294.593906 382.832662 
L 296.940453 383.456192 
L 299.547727 384.391505 
L 302.415728 385.676344 
L 305.805184 387.466375 
L 310.498277 390.23687 
L 317.537917 394.384474 
L 320.927373 396.10388 
L 323.795375 397.308408 
L 326.402648 398.157399 
L 328.749195 398.695003 
L 331.095742 399.001818 
L 332.920833 399.075 
L 332.920833 399.075 
" clip-path="url(#pfbd31e4174)" style="fill: none; stroke: #ff7f0e; stroke-width: 1.5; stroke-linecap: square"/>
   </g>
   <g id="line2d_63">
    <path d="M 72.454167 452.85 
L 72.454167 345.3 
" clip-path="url(#pfbd31e4174)" style="fill: none; stroke: #000000; stroke-width: 1.5; stroke-linecap: square"/>
   </g>
   <g id="line2d_64">
    <path d="M 332.920833 452.85 
L 332.920833 345.3 
" clip-path="url(#pfbd31e4174)" style="fill: none; stroke: #000000; stroke-width: 1.5; stroke-linecap: square"/>
   </g>
   <g id="patch_15">
    <path d="M 56.175 452.85 
L 56.175 345.3 
" style="fill: none; stroke: #000000; stroke-width: 0.8; stroke-linejoin: miter; stroke-linecap: square"/>
   </g>
   <g id="patch_16">
    <path d="M 349.2 452.85 
L 349.2 345.3 
" style="fill: none; stroke: #000000; stroke-width: 0.8; stroke-linejoin: miter; stroke-linecap: square"/>
   </g>
   <g id="patch_17">
    <path d="M 56.175 452.85 
L 349.2 452.85 
" style="fill: none; stroke: #000000; stroke-width: 0.8; stroke-linejoin: miter; stroke-linecap: square"/>
   </g>
   <g id="patch_18">
    <path d="M 56.175 345.3 
L 349.2 345.3 
" style="fill: none; stroke: #000000; stroke-width: 0.8; stroke-linejoin: miter; stroke-linecap: square"/>
   </g>
   <g id="legend_3">
    <g id="patch_19">
     <path d="M 63.175 447.85 
L 133.175 447.85 
Q 135.175 447.85 135.175 445.85 
L 135.175 415.65 
Q 135.175 413.65 133.175 413.65 
L 63.175 413.65 
Q 61.175 413.65 61.175 415.65 
L 61.175 445.85 
Q 61.175 447.85 63.175 447.85 
z
" style="fill: #ffffff; opacity: 0.8; stroke: #cccccc; stroke-linejoin: miter"/>
    </g>
    <g id="line2d_65">
     <path d="M 65.175 421.75 
L 75.175 421.75 
L 85.175 421.75 
" style="fill: none; stroke: #1f77b4; stroke-width: 1.5; stroke-linecap: square"/>
    </g>
    <g id="text_53">
     <!-- $\phi_3(x)$ -->
     <g transform="translate(93.175 425.25)scale(0.1 -0.1)">
      <defs>
       <path id="DejaVuSans-33" d="M 2597 2516 
Q 3050 2419 3304 2112 
Q 3559 1806 3559 1356 
Q 3559 666 3084 287 
Q 2609 -91 1734 -91 
Q 1441 -91 1130 -33 
Q 819 25 488 141 
L 488 750 
Q 750 597 1062 519 
Q 1375 441 1716 441 
Q 2309 441 2620 675 
Q 2931 909 2931 1356 
Q 2931 1769 2642 2001 
Q 2353 2234 1838 2234 
L 1294 2234 
L 1294 2753 
L 1863 2753 
Q 2328 2753 2575 2939 
Q 2822 3125 2822 3475 
Q 2822 3834 2567 4026 
Q 2313 4219 1838 4219 
Q 1578 4219 1281 4162 
Q 984 4106 628 3988 
L 628 4550 
Q 988 4650 1302 4700 
Q 1616 4750 1894 4750 
Q 2613 4750 3031 4423 
Q 3450 4097 3450 3541 
Q 3450 3153 3228 2886 
Q 3006 2619 2597 2516 
z
" transform="scale(0.015625)"/>
      </defs>
      <use xlink:href="#DejaVuSans-Oblique-3d5" transform="translate(0 0.015625)"/>
      <use xlink:href="#DejaVuSans-33" transform="translate(65.966797 -16.390625)scale(0.7)"/>
      <use xlink:href="#DejaVuSans-28" transform="translate(113.237305 0.015625)"/>
      <use xlink:href="#DejaVuSans-Oblique-78" transform="translate(152.250977 0.015625)"/>
      <use xlink:href="#DejaVuSans-29" transform="translate(211.430664 0.015625)"/>
     </g>
    </g>
    <g id="line2d_66">
     <path d="M 65.175 437.95 
L 75.175 437.95 
L 85.175 437.95 
" style="fill: none; stroke: #ff7f0e; stroke-width: 1.5; stroke-linecap: square"/>
    </g>
    <g id="text_54">
     <!-- $|\Psi_3(x)|^2$ -->
     <g transform="translate(93.175 441.45)scale(0.1 -0.1)">
      <use xlink:href="#DejaVuSans-7c" transform="translate(0 0.765625)"/>
      <use xlink:href="#DejaVuSans-3a8" transform="translate(33.691406 0.765625)"/>
      <use xlink:href="#DejaVuSans-33" transform="translate(113.359375 -15.640625)scale(0.7)"/>
      <use xlink:href="#DejaVuSans-28" transform="translate(160.629883 0.765625)"/>
      <use xlink:href="#DejaVuSans-Oblique-78" transform="translate(199.643555 0.765625)"/>
      <use xlink:href="#DejaVuSans-29" transform="translate(258.823242 0.765625)"/>
      <use xlink:href="#DejaVuSans-7c" transform="translate(297.836914 0.765625)"/>
      <use xlink:href="#DejaVuSans-32" transform="translate(332.485352 39.046875)scale(0.7)"/>
     </g>
    </g>
   </g>
  </g>
  <g id="axes_4">
   <g id="patch_20">
    <path d="M 56.175 606.2 
L 349.2 606.2 
L 349.2 498.65 
L 56.175 498.65 
z
" style="fill: #ffffff"/>
   </g>
   <g id="line2d_67">
    <path d="M 56.175 552.425 
L 349.2 552.425 
" clip-path="url(#p386ae07cf6)" style="fill: none; stroke-dasharray: 0.5,0.825; stroke-dashoffset: 0; stroke: #000000; stroke-width: 0.5"/>
   </g>
   <g id="line2d_68">
    <path d="M 202.6875 606.2 
L 202.6875 498.65 
" clip-path="url(#p386ae07cf6)" style="fill: none; stroke-dasharray: 0.5,0.825; stroke-dashoffset: 0; stroke: #000000; stroke-width: 0.5"/>
   </g>
   <g id="matplotlib.axis_7">
    <g id="xtick_28">
     <g id="line2d_69">
      <g>
       <use xlink:href="#m3113cf85e5" x="72.454167" y="606.2" style="stroke: #000000; stroke-width: 0.8"/>
      </g>
     </g>
     <g id="text_55">
      <!-- 0 -->
      <g transform="translate(69.272917 620.798437)scale(0.1 -0.1)">
       <use xlink:href="#DejaVuSans-30"/>
      </g>
     </g>
    </g>
    <g id="xtick_29">
     <g id="line2d_70">
      <g>
       <use xlink:href="#m3113cf85e5" x="105.0125" y="606.2" style="stroke: #000000; stroke-width: 0.8"/>
      </g>
     </g>
     <g id="text_56">
      <!-- 2 -->
      <g transform="translate(101.83125 620.798437)scale(0.1 -0.1)">
       <use xlink:href="#DejaVuSans-32"/>
      </g>
     </g>
    </g>
    <g id="xtick_30">
     <g id="line2d_71">
      <g>
       <use xlink:href="#m3113cf85e5" x="137.570833" y="606.2" style="stroke: #000000; stroke-width: 0.8"/>
      </g>
     </g>
     <g id="text_57">
      <!-- 4 -->
      <g transform="translate(134.389583 620.798437)scale(0.1 -0.1)">
       <use xlink:href="#DejaVuSans-34"/>
      </g>
     </g>
    </g>
    <g id="xtick_31">
     <g id="line2d_72">
      <g>
       <use xlink:href="#m3113cf85e5" x="170.129167" y="606.2" style="stroke: #000000; stroke-width: 0.8"/>
      </g>
     </g>
     <g id="text_58">
      <!-- 6 -->
      <g transform="translate(166.947917 620.798437)scale(0.1 -0.1)">
       <use xlink:href="#DejaVuSans-36"/>
      </g>
     </g>
    </g>
    <g id="xtick_32">
     <g id="line2d_73">
      <g>
       <use xlink:href="#m3113cf85e5" x="202.6875" y="606.2" style="stroke: #000000; stroke-width: 0.8"/>
      </g>
     </g>
     <g id="text_59">
      <!-- 8 -->
      <g transform="translate(199.50625 620.798437)scale(0.1 -0.1)">
       <use xlink:href="#DejaVuSans-38"/>
      </g>
     </g>
    </g>
    <g id="xtick_33">
     <g id="line2d_74">
      <g>
       <use xlink:href="#m3113cf85e5" x="235.245833" y="606.2" style="stroke: #000000; stroke-width: 0.8"/>
      </g>
     </g>
     <g id="text_60">
      <!-- 10 -->
      <g transform="translate(228.883333 620.798437)scale(0.1 -0.1)">
       <use xlink:href="#DejaVuSans-31"/>
       <use xlink:href="#DejaVuSans-30" x="63.623047"/>
      </g>
     </g>
    </g>
    <g id="xtick_34">
     <g id="line2d_75">
      <g>
       <use xlink:href="#m3113cf85e5" x="267.804167" y="606.2" style="stroke: #000000; stroke-width: 0.8"/>
      </g>
     </g>
     <g id="text_61">
      <!-- 12 -->
      <g transform="translate(261.441667 620.798437)scale(0.1 -0.1)">
       <use xlink:href="#DejaVuSans-31"/>
       <use xlink:href="#DejaVuSans-32" x="63.623047"/>
      </g>
     </g>
    </g>
    <g id="xtick_35">
     <g id="line2d_76">
      <g>
       <use xlink:href="#m3113cf85e5" x="300.3625" y="606.2" style="stroke: #000000; stroke-width: 0.8"/>
      </g>
     </g>
     <g id="text_62">
      <!-- 14 -->
      <g transform="translate(294 620.798437)scale(0.1 -0.1)">
       <use xlink:href="#DejaVuSans-31"/>
       <use xlink:href="#DejaVuSans-34" x="63.623047"/>
      </g>
     </g>
    </g>
    <g id="xtick_36">
     <g id="line2d_77">
      <g>
       <use xlink:href="#m3113cf85e5" x="332.920833" y="606.2" style="stroke: #000000; stroke-width: 0.8"/>
      </g>
     </g>
     <g id="text_63">
      <!-- 16 -->
      <g transform="translate(326.558333 620.798437)scale(0.1 -0.1)">
       <use xlink:href="#DejaVuSans-31"/>
       <use xlink:href="#DejaVuSans-36" x="63.623047"/>
      </g>
     </g>
    </g>
    <g id="text_64">
     <!-- x -->
     <g transform="translate(199.728125 634.476562)scale(0.1 -0.1)">
      <use xlink:href="#DejaVuSans-78"/>
     </g>
    </g>
   </g>
   <g id="matplotlib.axis_8">
    <g id="ytick_16">
     <g id="line2d_78">
      <g>
       <use xlink:href="#m567839f104" x="56.175" y="606.2" style="stroke: #000000; stroke-width: 0.8"/>
      </g>
     </g>
     <g id="text_65">
      <!-- −0.4 -->
      <g transform="translate(24.892187 609.999219)scale(0.1 -0.1)">
       <use xlink:href="#DejaVuSans-2212"/>
       <use xlink:href="#DejaVuSans-30" x="83.789062"/>
       <use xlink:href="#DejaVuSans-2e" x="147.412109"/>
       <use xlink:href="#DejaVuSans-34" x="179.199219"/>
      </g>
     </g>
    </g>
    <g id="ytick_17">
     <g id="line2d_79">
      <g>
       <use xlink:href="#m567839f104" x="56.175" y="579.3125" style="stroke: #000000; stroke-width: 0.8"/>
      </g>
     </g>
     <g id="text_66">
      <!-- −0.2 -->
      <g transform="translate(24.892187 583.111719)scale(0.1 -0.1)">
       <use xlink:href="#DejaVuSans-2212"/>
       <use xlink:href="#DejaVuSans-30" x="83.789062"/>
       <use xlink:href="#DejaVuSans-2e" x="147.412109"/>
       <use xlink:href="#DejaVuSans-32" x="179.199219"/>
      </g>
     </g>
    </g>
    <g id="ytick_18">
     <g id="line2d_80">
      <g>
       <use xlink:href="#m567839f104" x="56.175" y="552.425" style="stroke: #000000; stroke-width: 0.8"/>
      </g>
     </g>
     <g id="text_67">
      <!-- 0.0 -->
      <g transform="translate(33.271875 556.224219)scale(0.1 -0.1)">
       <use xlink:href="#DejaVuSans-30"/>
       <use xlink:href="#DejaVuSans-2e" x="63.623047"/>
       <use xlink:href="#DejaVuSans-30" x="95.410156"/>
      </g>
     </g>
    </g>
    <g id="ytick_19">
     <g id="line2d_81">
      <g>
       <use xlink:href="#m567839f104" x="56.175" y="525.5375" style="stroke: #000000; stroke-width: 0.8"/>
      </g>
     </g>
     <g id="text_68">
      <!-- 0.2 -->
      <g transform="translate(33.271875 529.336719)scale(0.1 -0.1)">
       <use xlink:href="#DejaVuSans-30"/>
       <use xlink:href="#DejaVuSans-2e" x="63.623047"/>
       <use xlink:href="#DejaVuSans-32" x="95.410156"/>
      </g>
     </g>
    </g>
    <g id="ytick_20">
     <g id="line2d_82">
      <g>
       <use xlink:href="#m567839f104" x="56.175" y="498.65" style="stroke: #000000; stroke-width: 0.8"/>
      </g>
     </g>
     <g id="text_69">
      <!-- 0.4 -->
      <g transform="translate(33.271875 502.449219)scale(0.1 -0.1)">
       <use xlink:href="#DejaVuSans-30"/>
       <use xlink:href="#DejaVuSans-2e" x="63.623047"/>
       <use xlink:href="#DejaVuSans-34" x="95.410156"/>
      </g>
     </g>
    </g>
    <g id="text_70">
     <!-- f(x) -->
     <g transform="translate(18.8125 561.046094)rotate(-90)scale(0.1 -0.1)">
      <use xlink:href="#DejaVuSans-66"/>
      <use xlink:href="#DejaVuSans-28" x="35.205078"/>
      <use xlink:href="#DejaVuSans-78" x="74.21875"/>
      <use xlink:href="#DejaVuSans-29" x="133.398438"/>
     </g>
    </g>
   </g>
   <g id="line2d_83">
    <path d="M 72.454167 552.425 
L 79.233079 537.155561 
L 82.883262 529.505892 
L 85.751264 523.981642 
L 88.358538 519.428819 
L 90.705084 515.7752 
L 92.790903 512.920133 
L 94.615995 510.748954 
L 96.441087 508.900691 
L 98.266179 507.389666 
L 99.830543 506.371862 
L 101.394907 505.616266 
L 102.959272 505.127179 
L 104.523636 504.907386 
L 105.827273 504.930884 
L 107.13091 505.142195 
L 108.695274 505.642453 
L 110.259639 506.409071 
L 111.824003 507.437684 
L 113.388368 508.722436 
L 115.213459 510.535206 
L 117.038551 512.672549 
L 119.12437 515.491308 
L 121.210189 518.683769 
L 123.556736 522.681622 
L 126.16401 527.567908 
L 129.292739 533.942696 
L 133.203649 542.48431 
L 147.543656 574.422 
L 150.411657 580.023253 
L 153.018931 584.660142 
L 155.365478 588.399746 
L 157.451297 591.338534 
L 159.537116 593.883589 
L 161.362208 595.76718 
L 163.1873 597.314945 
L 164.751664 598.365147 
L 166.316029 599.153785 
L 167.880393 599.67637 
L 169.444757 599.929925 
L 170.748394 599.934625 
L 172.052031 599.75145 
L 173.616396 599.284719 
L 175.18076 598.551188 
L 176.745124 597.555034 
L 178.309489 596.30193 
L 180.13458 594.524814 
L 181.959672 592.421498 
L 184.045491 589.639296 
L 186.13131 586.480554 
L 188.477857 582.516817 
L 191.085131 577.663188 
L 194.21386 571.319602 
L 197.864043 563.386365 
L 204.121501 549.139239 
L 209.596776 536.872767 
L 213.246959 529.244453 
L 216.114961 523.742697 
L 218.722235 519.2143 
L 221.068781 515.585575 
L 223.1546 512.754685 
L 224.979692 510.606042 
L 226.804784 508.781423 
L 228.629876 507.294966 
L 230.19424 506.298812 
L 231.758604 505.565281 
L 233.322969 505.09855 
L 234.887333 504.901275 
L 236.19097 504.943572 
L 237.494607 505.17363 
L 239.058971 505.696215 
L 240.623336 506.484853 
L 242.1877 507.535055 
L 243.752065 508.840841 
L 245.577156 510.677291 
L 247.402248 512.837213 
L 249.488067 515.680205 
L 251.573886 518.894988 
L 253.920433 522.915387 
L 256.527707 527.823204 
L 259.656436 534.218477 
L 263.567347 542.776837 
L 277.385898 573.623121 
L 280.514627 579.779321 
L 283.121901 584.439818 
L 285.468448 588.203656 
L 287.554267 591.166106 
L 289.640086 593.736567 
L 291.465178 595.643617 
L 293.290269 597.215798 
L 294.854634 598.287548 
L 296.418998 599.098175 
L 297.983363 599.643065 
L 299.547727 599.919116 
L 300.851364 599.942614 
L 302.155001 599.778207 
L 303.719365 599.33385 
L 305.28373 598.622414 
L 306.848094 597.647949 
L 308.412458 596.416005 
L 310.23755 594.662746 
L 312.062642 592.582219 
L 314.148461 589.824527 
L 316.23428 586.68842 
L 318.580827 582.747624 
L 321.188101 577.916007 
L 324.056102 572.139116 
L 327.706285 564.257019 
L 332.920833 552.425 
L 332.920833 552.425 
" clip-path="url(#p386ae07cf6)" style="fill: none; stroke: #1f77b4; stroke-width: 1.5; stroke-linecap: square"/>
   </g>
   <g id="line2d_84">
    <path d="M 72.454167 552.425 
L 74.018531 552.329457 
L 75.843623 551.979619 
L 77.668715 551.383649 
L 79.493806 550.55998 
L 81.579625 549.372809 
L 83.926172 547.78181 
L 87.054901 545.377508 
L 94.09454 539.867333 
L 96.441087 538.33395 
L 98.526906 537.212614 
L 100.351998 536.455685 
L 102.17709 535.932825 
L 104.002181 535.660208 
L 105.566546 535.632317 
L 107.391637 535.840746 
L 109.216729 536.302266 
L 111.041821 537.0026 
L 113.12764 538.067306 
L 115.474187 539.549943 
L 118.342188 541.66351 
L 127.989102 549.082478 
L 130.335648 550.459225 
L 132.421467 551.408985 
L 134.246559 551.996439 
L 136.071651 552.33724 
L 137.896743 552.420846 
L 139.721834 552.24467 
L 141.546926 551.814163 
L 143.372018 551.142641 
L 145.457837 550.107033 
L 147.804384 548.650852 
L 150.411657 546.759441 
L 155.104751 543.007848 
L 159.015661 540.00586 
L 161.622935 538.295171 
L 163.708755 537.181794 
L 165.533846 536.432863 
L 167.358938 535.918706 
L 169.18403 535.655229 
L 170.748394 535.635306 
L 172.573486 535.852933 
L 174.398578 536.323273 
L 176.22367 537.031779 
L 178.309489 538.104703 
L 180.656035 539.594768 
L 183.524037 541.714277 
L 193.17095 549.124567 
L 195.517497 550.493066 
L 197.603316 551.434029 
L 199.428408 552.012943 
L 201.253499 552.344693 
L 203.078591 552.419018 
L 204.903683 552.233618 
L 206.728775 551.794228 
L 208.553866 551.11444 
L 210.639686 550.070466 
L 212.986232 548.606654 
L 215.854233 546.508307 
L 226.022602 538.733863 
L 228.108421 537.535421 
L 230.19424 536.598871 
L 232.019332 536.024236 
L 233.844424 535.697016 
L 235.669515 535.627333 
L 237.494607 535.817343 
L 239.319699 536.261167 
L 241.144791 536.945078 
L 243.23061 537.993219 
L 245.577156 539.460826 
L 248.445158 541.562259 
L 258.352799 549.166455 
L 260.699345 550.526652 
L 262.785164 551.45878 
L 264.610256 552.029131 
L 266.435348 552.351818 
L 268.26044 552.416858 
L 270.085531 552.222241 
L 271.910623 551.773985 
L 273.735715 551.085958 
L 275.821534 550.033661 
L 278.168081 548.562275 
L 281.036082 546.457777 
L 290.943723 538.85799 
L 293.290269 537.501964 
L 295.376089 536.574267 
L 297.20118 536.008206 
L 299.026272 535.690056 
L 300.851364 535.629659 
L 302.676456 535.828882 
L 304.501547 536.281563 
L 306.326639 536.9737 
L 308.412458 538.030144 
L 310.759005 539.505295 
L 313.627006 541.612837 
L 323.534647 549.208139 
L 325.881194 550.55998 
L 327.967013 551.483237 
L 329.792105 552.045003 
L 331.617196 552.358612 
L 332.920833 552.425 
L 332.920833 552.425 
" clip-path="url(#p386ae07cf6)" style="fill: none; stroke: #ff7f0e; stroke-width: 1.5; stroke-linecap: square"/>
   </g>
   <g id="line2d_85">
    <path d="M 72.454167 606.2 
L 72.454167 498.65 
" clip-path="url(#p386ae07cf6)" style="fill: none; stroke: #000000; stroke-width: 1.5; stroke-linecap: square"/>
   </g>
   <g id="line2d_86">
    <path d="M 332.920833 606.2 
L 332.920833 498.65 
" clip-path="url(#p386ae07cf6)" style="fill: none; stroke: #000000; stroke-width: 1.5; stroke-linecap: square"/>
   </g>
   <g id="patch_21">
    <path d="M 56.175 606.2 
L 56.175 498.65 
" style="fill: none; stroke: #000000; stroke-width: 0.8; stroke-linejoin: miter; stroke-linecap: square"/>
   </g>
   <g id="patch_22">
    <path d="M 349.2 606.2 
L 349.2 498.65 
" style="fill: none; stroke: #000000; stroke-width: 0.8; stroke-linejoin: miter; stroke-linecap: square"/>
   </g>
   <g id="patch_23">
    <path d="M 56.175 606.2 
L 349.2 606.2 
" style="fill: none; stroke: #000000; stroke-width: 0.8; stroke-linejoin: miter; stroke-linecap: square"/>
   </g>
   <g id="patch_24">
    <path d="M 56.175 498.65 
L 349.2 498.65 
" style="fill: none; stroke: #000000; stroke-width: 0.8; stroke-linejoin: miter; stroke-linecap: square"/>
   </g>
   <g id="legend_4">
    <g id="patch_25">
     <path d="M 63.175 601.2 
L 133.175 601.2 
Q 135.175 601.2 135.175 599.2 
L 135.175 569 
Q 135.175 567 133.175 567 
L 63.175 567 
Q 61.175 567 61.175 569 
L 61.175 599.2 
Q 61.175 601.2 63.175 601.2 
z
" style="fill: #ffffff; opacity: 0.8; stroke: #cccccc; stroke-linejoin: miter"/>
    </g>
    <g id="line2d_87">
     <path d="M 65.175 575.1 
L 75.175 575.1 
L 85.175 575.1 
" style="fill: none; stroke: #1f77b4; stroke-width: 1.5; stroke-linecap: square"/>
    </g>
    <g id="text_71">
     <!-- $\phi_4(x)$ -->
     <g transform="translate(93.175 578.6)scale(0.1 -0.1)">
      <use xlink:href="#DejaVuSans-Oblique-3d5" transform="translate(0 0.015625)"/>
      <use xlink:href="#DejaVuSans-34" transform="translate(65.966797 -16.390625)scale(0.7)"/>
      <use xlink:href="#DejaVuSans-28" transform="translate(113.237305 0.015625)"/>
      <use xlink:href="#DejaVuSans-Oblique-78" transform="translate(152.250977 0.015625)"/>
      <use xlink:href="#DejaVuSans-29" transform="translate(211.430664 0.015625)"/>
     </g>
    </g>
    <g id="line2d_88">
     <path d="M 65.175 591.3 
L 75.175 591.3 
L 85.175 591.3 
" style="fill: none; stroke: #ff7f0e; stroke-width: 1.5; stroke-linecap: square"/>
    </g>
    <g id="text_72">
     <!-- $|\Psi_4(x)|^2$ -->
     <g transform="translate(93.175 594.8)scale(0.1 -0.1)">
      <use xlink:href="#DejaVuSans-7c" transform="translate(0 0.765625)"/>
      <use xlink:href="#DejaVuSans-3a8" transform="translate(33.691406 0.765625)"/>
      <use xlink:href="#DejaVuSans-34" transform="translate(113.359375 -15.640625)scale(0.7)"/>
      <use xlink:href="#DejaVuSans-28" transform="translate(160.629883 0.765625)"/>
      <use xlink:href="#DejaVuSans-Oblique-78" transform="translate(199.643555 0.765625)"/>
      <use xlink:href="#DejaVuSans-29" transform="translate(258.823242 0.765625)"/>
      <use xlink:href="#DejaVuSans-7c" transform="translate(297.836914 0.765625)"/>
      <use xlink:href="#DejaVuSans-32" transform="translate(332.485352 39.046875)scale(0.7)"/>
     </g>
    </g>
   </g>
  </g>
  <g id="text_73">
   <!-- Teilchen im Kastenpotential für L=16 -->
   <g transform="translate(69.039375 22.078125)scale(0.12 -0.12)">
    <defs>
     <path id="DejaVuSans-54" d="M -19 4666 
L 3928 4666 
L 3928 4134 
L 2272 4134 
L 2272 0 
L 1638 0 
L 1638 4134 
L -19 4134 
L -19 4666 
z
" transform="scale(0.015625)"/>
     <path id="DejaVuSans-65" d="M 3597 1894 
L 3597 1613 
L 953 1613 
Q 991 1019 1311 708 
Q 1631 397 2203 397 
Q 2534 397 2845 478 
Q 3156 559 3463 722 
L 3463 178 
Q 3153 47 2828 -22 
Q 2503 -91 2169 -91 
Q 1331 -91 842 396 
Q 353 884 353 1716 
Q 353 2575 817 3079 
Q 1281 3584 2069 3584 
Q 2775 3584 3186 3129 
Q 3597 2675 3597 1894 
z
M 3022 2063 
Q 3016 2534 2758 2815 
Q 2500 3097 2075 3097 
Q 1594 3097 1305 2825 
Q 1016 2553 972 2059 
L 3022 2063 
z
" transform="scale(0.015625)"/>
     <path id="DejaVuSans-69" d="M 603 3500 
L 1178 3500 
L 1178 0 
L 603 0 
L 603 3500 
z
M 603 4863 
L 1178 4863 
L 1178 4134 
L 603 4134 
L 603 4863 
z
" transform="scale(0.015625)"/>
     <path id="DejaVuSans-6c" d="M 603 4863 
L 1178 4863 
L 1178 0 
L 603 0 
L 603 4863 
z
" transform="scale(0.015625)"/>
     <path id="DejaVuSans-63" d="M 3122 3366 
L 3122 2828 
Q 2878 2963 2633 3030 
Q 2388 3097 2138 3097 
Q 1578 3097 1268 2742 
Q 959 2388 959 1747 
Q 959 1106 1268 751 
Q 1578 397 2138 397 
Q 2388 397 2633 464 
Q 2878 531 3122 666 
L 3122 134 
Q 2881 22 2623 -34 
Q 2366 -91 2075 -91 
Q 1284 -91 818 406 
Q 353 903 353 1747 
Q 353 2603 823 3093 
Q 1294 3584 2113 3584 
Q 2378 3584 2631 3529 
Q 2884 3475 3122 3366 
z
" transform="scale(0.015625)"/>
     <path id="DejaVuSans-68" d="M 3513 2113 
L 3513 0 
L 2938 0 
L 2938 2094 
Q 2938 2591 2744 2837 
Q 2550 3084 2163 3084 
Q 1697 3084 1428 2787 
Q 1159 2491 1159 1978 
L 1159 0 
L 581 0 
L 581 4863 
L 1159 4863 
L 1159 2956 
Q 1366 3272 1645 3428 
Q 1925 3584 2291 3584 
Q 2894 3584 3203 3211 
Q 3513 2838 3513 2113 
z
" transform="scale(0.015625)"/>
     <path id="DejaVuSans-6e" d="M 3513 2113 
L 3513 0 
L 2938 0 
L 2938 2094 
Q 2938 2591 2744 2837 
Q 2550 3084 2163 3084 
Q 1697 3084 1428 2787 
Q 1159 2491 1159 1978 
L 1159 0 
L 581 0 
L 581 3500 
L 1159 3500 
L 1159 2956 
Q 1366 3272 1645 3428 
Q 1925 3584 2291 3584 
Q 2894 3584 3203 3211 
Q 3513 2838 3513 2113 
z
" transform="scale(0.015625)"/>
     <path id="DejaVuSans-20" transform="scale(0.015625)"/>
     <path id="DejaVuSans-6d" d="M 3328 2828 
Q 3544 3216 3844 3400 
Q 4144 3584 4550 3584 
Q 5097 3584 5394 3201 
Q 5691 2819 5691 2113 
L 5691 0 
L 5113 0 
L 5113 2094 
Q 5113 2597 4934 2840 
Q 4756 3084 4391 3084 
Q 3944 3084 3684 2787 
Q 3425 2491 3425 1978 
L 3425 0 
L 2847 0 
L 2847 2094 
Q 2847 2600 2669 2842 
Q 2491 3084 2119 3084 
Q 1678 3084 1418 2786 
Q 1159 2488 1159 1978 
L 1159 0 
L 581 0 
L 581 3500 
L 1159 3500 
L 1159 2956 
Q 1356 3278 1631 3431 
Q 1906 3584 2284 3584 
Q 2666 3584 2933 3390 
Q 3200 3197 3328 2828 
z
" transform="scale(0.015625)"/>
     <path id="DejaVuSans-4b" d="M 628 4666 
L 1259 4666 
L 1259 2694 
L 3353 4666 
L 4166 4666 
L 1850 2491 
L 4331 0 
L 3500 0 
L 1259 2247 
L 1259 0 
L 628 0 
L 628 4666 
z
" transform="scale(0.015625)"/>
     <path id="DejaVuSans-61" d="M 2194 1759 
Q 1497 1759 1228 1600 
Q 959 1441 959 1056 
Q 959 750 1161 570 
Q 1363 391 1709 391 
Q 2188 391 2477 730 
Q 2766 1069 2766 1631 
L 2766 1759 
L 2194 1759 
z
M 3341 1997 
L 3341 0 
L 2766 0 
L 2766 531 
Q 2569 213 2275 61 
Q 1981 -91 1556 -91 
Q 1019 -91 701 211 
Q 384 513 384 1019 
Q 384 1609 779 1909 
Q 1175 2209 1959 2209 
L 2766 2209 
L 2766 2266 
Q 2766 2663 2505 2880 
Q 2244 3097 1772 3097 
Q 1472 3097 1187 3025 
Q 903 2953 641 2809 
L 641 3341 
Q 956 3463 1253 3523 
Q 1550 3584 1831 3584 
Q 2591 3584 2966 3190 
Q 3341 2797 3341 1997 
z
" transform="scale(0.015625)"/>
     <path id="DejaVuSans-73" d="M 2834 3397 
L 2834 2853 
Q 2591 2978 2328 3040 
Q 2066 3103 1784 3103 
Q 1356 3103 1142 2972 
Q 928 2841 928 2578 
Q 928 2378 1081 2264 
Q 1234 2150 1697 2047 
L 1894 2003 
Q 2506 1872 2764 1633 
Q 3022 1394 3022 966 
Q 3022 478 2636 193 
Q 2250 -91 1575 -91 
Q 1294 -91 989 -36 
Q 684 19 347 128 
L 347 722 
Q 666 556 975 473 
Q 1284 391 1588 391 
Q 1994 391 2212 530 
Q 2431 669 2431 922 
Q 2431 1156 2273 1281 
Q 2116 1406 1581 1522 
L 1381 1569 
Q 847 1681 609 1914 
Q 372 2147 372 2553 
Q 372 3047 722 3315 
Q 1072 3584 1716 3584 
Q 2034 3584 2315 3537 
Q 2597 3491 2834 3397 
z
" transform="scale(0.015625)"/>
     <path id="DejaVuSans-74" d="M 1172 4494 
L 1172 3500 
L 2356 3500 
L 2356 3053 
L 1172 3053 
L 1172 1153 
Q 1172 725 1289 603 
Q 1406 481 1766 481 
L 2356 481 
L 2356 0 
L 1766 0 
Q 1100 0 847 248 
Q 594 497 594 1153 
L 594 3053 
L 172 3053 
L 172 3500 
L 594 3500 
L 594 4494 
L 1172 4494 
z
" transform="scale(0.015625)"/>
     <path id="DejaVuSans-70" d="M 1159 525 
L 1159 -1331 
L 581 -1331 
L 581 3500 
L 1159 3500 
L 1159 2969 
Q 1341 3281 1617 3432 
Q 1894 3584 2278 3584 
Q 2916 3584 3314 3078 
Q 3713 2572 3713 1747 
Q 3713 922 3314 415 
Q 2916 -91 2278 -91 
Q 1894 -91 1617 61 
Q 1341 213 1159 525 
z
M 3116 1747 
Q 3116 2381 2855 2742 
Q 2594 3103 2138 3103 
Q 1681 3103 1420 2742 
Q 1159 2381 1159 1747 
Q 1159 1113 1420 752 
Q 1681 391 2138 391 
Q 2594 391 2855 752 
Q 3116 1113 3116 1747 
z
" transform="scale(0.015625)"/>
     <path id="DejaVuSans-6f" d="M 1959 3097 
Q 1497 3097 1228 2736 
Q 959 2375 959 1747 
Q 959 1119 1226 758 
Q 1494 397 1959 397 
Q 2419 397 2687 759 
Q 2956 1122 2956 1747 
Q 2956 2369 2687 2733 
Q 2419 3097 1959 3097 
z
M 1959 3584 
Q 2709 3584 3137 3096 
Q 3566 2609 3566 1747 
Q 3566 888 3137 398 
Q 2709 -91 1959 -91 
Q 1206 -91 779 398 
Q 353 888 353 1747 
Q 353 2609 779 3096 
Q 1206 3584 1959 3584 
z
" transform="scale(0.015625)"/>
     <path id="DejaVuSans-fc" d="M 544 1381 
L 544 3500 
L 1119 3500 
L 1119 1403 
Q 1119 906 1312 657 
Q 1506 409 1894 409 
Q 2359 409 2629 706 
Q 2900 1003 2900 1516 
L 2900 3500 
L 3475 3500 
L 3475 0 
L 2900 0 
L 2900 538 
Q 2691 219 2414 64 
Q 2138 -91 1772 -91 
Q 1169 -91 856 284 
Q 544 659 544 1381 
z
M 1991 3584 
L 1991 3584 
z
M 2278 4850 
L 2913 4850 
L 2913 4219 
L 2278 4219 
L 2278 4850 
z
M 1056 4850 
L 1691 4850 
L 1691 4219 
L 1056 4219 
L 1056 4850 
z
" transform="scale(0.015625)"/>
     <path id="DejaVuSans-72" d="M 2631 2963 
Q 2534 3019 2420 3045 
Q 2306 3072 2169 3072 
Q 1681 3072 1420 2755 
Q 1159 2438 1159 1844 
L 1159 0 
L 581 0 
L 581 3500 
L 1159 3500 
L 1159 2956 
Q 1341 3275 1631 3429 
Q 1922 3584 2338 3584 
Q 2397 3584 2469 3576 
Q 2541 3569 2628 3553 
L 2631 2963 
z
" transform="scale(0.015625)"/>
     <path id="DejaVuSans-4c" d="M 628 4666 
L 1259 4666 
L 1259 531 
L 3531 531 
L 3531 0 
L 628 0 
L 628 4666 
z
" transform="scale(0.015625)"/>
     <path id="DejaVuSans-3d" d="M 678 2906 
L 4684 2906 
L 4684 2381 
L 678 2381 
L 678 2906 
z
M 678 1631 
L 4684 1631 
L 4684 1100 
L 678 1100 
L 678 1631 
z
" transform="scale(0.015625)"/>
    </defs>
    <use xlink:href="#DejaVuSans-54"/>
    <use xlink:href="#DejaVuSans-65" x="44.083984"/>
    <use xlink:href="#DejaVuSans-69" x="105.607422"/>
    <use xlink:href="#DejaVuSans-6c" x="133.390625"/>
    <use xlink:href="#DejaVuSans-63" x="161.173828"/>
    <use xlink:href="#DejaVuSans-68" x="216.154297"/>
    <use xlink:href="#DejaVuSans-65" x="279.533203"/>
    <use xlink:href="#DejaVuSans-6e" x="341.056641"/>
    <use xlink:href="#DejaVuSans-20" x="404.435547"/>
    <use xlink:href="#DejaVuSans-69" x="436.222656"/>
    <use xlink:href="#DejaVuSans-6d" x="464.005859"/>
    <use xlink:href="#DejaVuSans-20" x="561.417969"/>
    <use xlink:href="#DejaVuSans-4b" x="593.205078"/>
    <use xlink:href="#DejaVuSans-61" x="657.03125"/>
    <use xlink:href="#DejaVuSans-73" x="718.310547"/>
    <use xlink:href="#DejaVuSans-74" x="770.410156"/>
    <use xlink:href="#DejaVuSans-65" x="809.619141"/>
    <use xlink:href="#DejaVuSans-6e" x="871.142578"/>
    <use xlink:href="#DejaVuSans-70" x="934.521484"/>
    <use xlink:href="#DejaVuSans-6f" x="997.998047"/>
    <use xlink:href="#DejaVuSans-74" x="1059.179688"/>
    <use xlink:href="#DejaVuSans-65" x="1098.388672"/>
    <use xlink:href="#DejaVuSans-6e" x="1159.912109"/>
    <use xlink:href="#DejaVuSans-74" x="1223.291016"/>
    <use xlink:href="#DejaVuSans-69" x="1262.5"/>
    <use xlink:href="#DejaVuSans-61" x="1290.283203"/>
    <use xlink:href="#DejaVuSans-6c" x="1351.5625"/>
    <use xlink:href="#DejaVuSans-20" x="1379.345703"/>
    <use xlink:href="#DejaVuSans-66" x="1411.132812"/>
    <use xlink:href="#DejaVuSans-fc" x="1446.337891"/>
    <use xlink:href="#DejaVuSans-72" x="1509.716797"/>
    <use xlink:href="#DejaVuSans-20" x="1550.830078"/>
    <use xlink:href="#DejaVuSans-4c" x="1582.617188"/>
    <use xlink:href="#DejaVuSans-3d" x="1638.330078"/>
    <use xlink:href="#DejaVuSans-31" x="1722.119141"/>
    <use xlink:href="#DejaVuSans-36" x="1785.742188"/>
   </g>
  </g>
 </g>
 <defs>
  <clipPath id="p4feefeff55">
   <rect x="56.175" y="38.6" width="293.025" height="107.55"/>
  </clipPath>
  <clipPath id="p5e7165bdb7">
   <rect x="56.175" y="191.95" width="293.025" height="107.55"/>
  </clipPath>
  <clipPath id="pfbd31e4174">
   <rect x="56.175" y="345.3" width="293.025" height="107.55"/>
  </clipPath>
  <clipPath id="p386ae07cf6">
   <rect x="56.175" y="498.65" width="293.025" height="107.55"/>
  </clipPath>
 </defs>
</svg>
