<?xml version="1.0" encoding="utf-8" standalone="no"?>
<!DOCTYPE svg PUBLIC "-//W3C//DTD SVG 1.1//EN"
  "http://www.w3.org/Graphics/SVG/1.1/DTD/svg11.dtd">
<svg xmlns:xlink="http://www.w3.org/1999/xlink" width="432pt" height="288pt" viewBox="0 0 432 288" xmlns="http://www.w3.org/2000/svg" version="1.1">
 <metadata>
  <rdf:RDF xmlns:dc="http://purl.org/dc/elements/1.1/" xmlns:cc="http://creativecommons.org/ns#" xmlns:rdf="http://www.w3.org/1999/02/22-rdf-syntax-ns#">
   <cc:Work>
    <dc:type rdf:resource="http://purl.org/dc/dcmitype/StillImage"/>
    <dc:date>2023-05-19T17:41:42.412017</dc:date>
    <dc:format>image/svg+xml</dc:format>
    <dc:creator>
     <cc:Agent>
      <dc:title>Matplotlib v3.5.1, https://matplotlib.org/</dc:title>
     </cc:Agent>
    </dc:creator>
   </cc:Work>
  </rdf:RDF>
 </metadata>
 <defs>
  <style type="text/css">*{stroke-linejoin: round; stroke-linecap: butt}</style>
 </defs>
 <g id="figure_1">
  <g id="patch_1">
   <path d="M 0 288 
L 432 288 
L 432 0 
L 0 0 
L 0 288 
z
" style="fill: none"/>
  </g>
  <g id="axes_1">
   <g id="patch_2">
    <path d="M 54 252 
L 388.8 252 
L 388.8 34.56 
L 54 34.56 
z
" style="fill: #ffffff"/>
   </g>
   <g id="matplotlib.axis_1">
    <g id="xtick_1">
     <g id="line2d_1">
      <path d="M 69.218182 252 
L 69.218182 34.56 
" clip-path="url(#p46f928ee18)" style="fill: none; stroke: #b0b0b0; stroke-width: 0.8; stroke-linecap: square"/>
     </g>
     <g id="line2d_2">
      <defs>
       <path id="m94c65639a6" d="M 0 0 
L 0 3.5 
" style="stroke: #000000; stroke-width: 0.8"/>
      </defs>
      <g>
       <use xlink:href="#m94c65639a6" x="69.218182" y="252" style="stroke: #000000; stroke-width: 0.8"/>
      </g>
     </g>
     <g id="text_1">
      <!-- −20 -->
      <g transform="translate(58.665838 266.598437)scale(0.1 -0.1)">
       <defs>
        <path id="DejaVuSans-2212" d="M 678 2272 
L 4684 2272 
L 4684 1741 
L 678 1741 
L 678 2272 
z
" transform="scale(0.015625)"/>
        <path id="DejaVuSans-32" d="M 1228 531 
L 3431 531 
L 3431 0 
L 469 0 
L 469 531 
Q 828 903 1448 1529 
Q 2069 2156 2228 2338 
Q 2531 2678 2651 2914 
Q 2772 3150 2772 3378 
Q 2772 3750 2511 3984 
Q 2250 4219 1831 4219 
Q 1534 4219 1204 4116 
Q 875 4013 500 3803 
L 500 4441 
Q 881 4594 1212 4672 
Q 1544 4750 1819 4750 
Q 2544 4750 2975 4387 
Q 3406 4025 3406 3419 
Q 3406 3131 3298 2873 
Q 3191 2616 2906 2266 
Q 2828 2175 2409 1742 
Q 1991 1309 1228 531 
z
" transform="scale(0.015625)"/>
        <path id="DejaVuSans-30" d="M 2034 4250 
Q 1547 4250 1301 3770 
Q 1056 3291 1056 2328 
Q 1056 1369 1301 889 
Q 1547 409 2034 409 
Q 2525 409 2770 889 
Q 3016 1369 3016 2328 
Q 3016 3291 2770 3770 
Q 2525 4250 2034 4250 
z
M 2034 4750 
Q 2819 4750 3233 4129 
Q 3647 3509 3647 2328 
Q 3647 1150 3233 529 
Q 2819 -91 2034 -91 
Q 1250 -91 836 529 
Q 422 1150 422 2328 
Q 422 3509 836 4129 
Q 1250 4750 2034 4750 
z
" transform="scale(0.015625)"/>
       </defs>
       <use xlink:href="#DejaVuSans-2212"/>
       <use xlink:href="#DejaVuSans-32" x="83.789062"/>
       <use xlink:href="#DejaVuSans-30" x="147.412109"/>
      </g>
     </g>
    </g>
    <g id="xtick_2">
     <g id="line2d_3">
      <path d="M 107.263636 252 
L 107.263636 34.56 
" clip-path="url(#p46f928ee18)" style="fill: none; stroke: #b0b0b0; stroke-width: 0.8; stroke-linecap: square"/>
     </g>
     <g id="line2d_4">
      <g>
       <use xlink:href="#m94c65639a6" x="107.263636" y="252" style="stroke: #000000; stroke-width: 0.8"/>
      </g>
     </g>
     <g id="text_2">
      <!-- −15 -->
      <g transform="translate(96.711293 266.598437)scale(0.1 -0.1)">
       <defs>
        <path id="DejaVuSans-31" d="M 794 531 
L 1825 531 
L 1825 4091 
L 703 3866 
L 703 4441 
L 1819 4666 
L 2450 4666 
L 2450 531 
L 3481 531 
L 3481 0 
L 794 0 
L 794 531 
z
" transform="scale(0.015625)"/>
        <path id="DejaVuSans-35" d="M 691 4666 
L 3169 4666 
L 3169 4134 
L 1269 4134 
L 1269 2991 
Q 1406 3038 1543 3061 
Q 1681 3084 1819 3084 
Q 2600 3084 3056 2656 
Q 3513 2228 3513 1497 
Q 3513 744 3044 326 
Q 2575 -91 1722 -91 
Q 1428 -91 1123 -41 
Q 819 9 494 109 
L 494 744 
Q 775 591 1075 516 
Q 1375 441 1709 441 
Q 2250 441 2565 725 
Q 2881 1009 2881 1497 
Q 2881 1984 2565 2268 
Q 2250 2553 1709 2553 
Q 1456 2553 1204 2497 
Q 953 2441 691 2322 
L 691 4666 
z
" transform="scale(0.015625)"/>
       </defs>
       <use xlink:href="#DejaVuSans-2212"/>
       <use xlink:href="#DejaVuSans-31" x="83.789062"/>
       <use xlink:href="#DejaVuSans-35" x="147.412109"/>
      </g>
     </g>
    </g>
    <g id="xtick_3">
     <g id="line2d_5">
      <path d="M 145.309091 252 
L 145.309091 34.56 
" clip-path="url(#p46f928ee18)" style="fill: none; stroke: #b0b0b0; stroke-width: 0.8; stroke-linecap: square"/>
     </g>
     <g id="line2d_6">
      <g>
       <use xlink:href="#m94c65639a6" x="145.309091" y="252" style="stroke: #000000; stroke-width: 0.8"/>
      </g>
     </g>
     <g id="text_3">
      <!-- −10 -->
      <g transform="translate(134.756747 266.598437)scale(0.1 -0.1)">
       <use xlink:href="#DejaVuSans-2212"/>
       <use xlink:href="#DejaVuSans-31" x="83.789062"/>
       <use xlink:href="#DejaVuSans-30" x="147.412109"/>
      </g>
     </g>
    </g>
    <g id="xtick_4">
     <g id="line2d_7">
      <path d="M 183.354545 252 
L 183.354545 34.56 
" clip-path="url(#p46f928ee18)" style="fill: none; stroke: #b0b0b0; stroke-width: 0.8; stroke-linecap: square"/>
     </g>
     <g id="line2d_8">
      <g>
       <use xlink:href="#m94c65639a6" x="183.354545" y="252" style="stroke: #000000; stroke-width: 0.8"/>
      </g>
     </g>
     <g id="text_4">
      <!-- −5 -->
      <g transform="translate(175.983452 266.598437)scale(0.1 -0.1)">
       <use xlink:href="#DejaVuSans-2212"/>
       <use xlink:href="#DejaVuSans-35" x="83.789062"/>
      </g>
     </g>
    </g>
    <g id="xtick_5">
     <g id="line2d_9">
      <path d="M 221.4 252 
L 221.4 34.56 
" clip-path="url(#p46f928ee18)" style="fill: none; stroke: #b0b0b0; stroke-width: 0.8; stroke-linecap: square"/>
     </g>
     <g id="line2d_10">
      <g>
       <use xlink:href="#m94c65639a6" x="221.4" y="252" style="stroke: #000000; stroke-width: 0.8"/>
      </g>
     </g>
     <g id="text_5">
      <!-- 0 -->
      <g transform="translate(218.21875 266.598437)scale(0.1 -0.1)">
       <use xlink:href="#DejaVuSans-30"/>
      </g>
     </g>
    </g>
    <g id="xtick_6">
     <g id="line2d_11">
      <path d="M 259.445455 252 
L 259.445455 34.56 
" clip-path="url(#p46f928ee18)" style="fill: none; stroke: #b0b0b0; stroke-width: 0.8; stroke-linecap: square"/>
     </g>
     <g id="line2d_12">
      <g>
       <use xlink:href="#m94c65639a6" x="259.445455" y="252" style="stroke: #000000; stroke-width: 0.8"/>
      </g>
     </g>
     <g id="text_6">
      <!-- 5 -->
      <g transform="translate(256.264205 266.598437)scale(0.1 -0.1)">
       <use xlink:href="#DejaVuSans-35"/>
      </g>
     </g>
    </g>
    <g id="xtick_7">
     <g id="line2d_13">
      <path d="M 297.490909 252 
L 297.490909 34.56 
" clip-path="url(#p46f928ee18)" style="fill: none; stroke: #b0b0b0; stroke-width: 0.8; stroke-linecap: square"/>
     </g>
     <g id="line2d_14">
      <g>
       <use xlink:href="#m94c65639a6" x="297.490909" y="252" style="stroke: #000000; stroke-width: 0.8"/>
      </g>
     </g>
     <g id="text_7">
      <!-- 10 -->
      <g transform="translate(291.128409 266.598437)scale(0.1 -0.1)">
       <use xlink:href="#DejaVuSans-31"/>
       <use xlink:href="#DejaVuSans-30" x="63.623047"/>
      </g>
     </g>
    </g>
    <g id="xtick_8">
     <g id="line2d_15">
      <path d="M 335.536364 252 
L 335.536364 34.56 
" clip-path="url(#p46f928ee18)" style="fill: none; stroke: #b0b0b0; stroke-width: 0.8; stroke-linecap: square"/>
     </g>
     <g id="line2d_16">
      <g>
       <use xlink:href="#m94c65639a6" x="335.536364" y="252" style="stroke: #000000; stroke-width: 0.8"/>
      </g>
     </g>
     <g id="text_8">
      <!-- 15 -->
      <g transform="translate(329.173864 266.598437)scale(0.1 -0.1)">
       <use xlink:href="#DejaVuSans-31"/>
       <use xlink:href="#DejaVuSans-35" x="63.623047"/>
      </g>
     </g>
    </g>
    <g id="xtick_9">
     <g id="line2d_17">
      <path d="M 373.581818 252 
L 373.581818 34.56 
" clip-path="url(#p46f928ee18)" style="fill: none; stroke: #b0b0b0; stroke-width: 0.8; stroke-linecap: square"/>
     </g>
     <g id="line2d_18">
      <g>
       <use xlink:href="#m94c65639a6" x="373.581818" y="252" style="stroke: #000000; stroke-width: 0.8"/>
      </g>
     </g>
     <g id="text_9">
      <!-- 20 -->
      <g transform="translate(367.219318 266.598437)scale(0.1 -0.1)">
       <use xlink:href="#DejaVuSans-32"/>
       <use xlink:href="#DejaVuSans-30" x="63.623047"/>
      </g>
     </g>
    </g>
    <g id="text_10">
     <!-- x -->
     <g transform="translate(218.440625 280.276563)scale(0.1 -0.1)">
      <defs>
       <path id="DejaVuSans-78" d="M 3513 3500 
L 2247 1797 
L 3578 0 
L 2900 0 
L 1881 1375 
L 863 0 
L 184 0 
L 1544 1831 
L 300 3500 
L 978 3500 
L 1906 2253 
L 2834 3500 
L 3513 3500 
z
" transform="scale(0.015625)"/>
      </defs>
      <use xlink:href="#DejaVuSans-78"/>
     </g>
    </g>
   </g>
   <g id="matplotlib.axis_2">
    <g id="ytick_1">
     <g id="line2d_19">
      <path d="M 54 242.116364 
L 388.8 242.116364 
" clip-path="url(#p46f928ee18)" style="fill: none; stroke: #b0b0b0; stroke-width: 0.8; stroke-linecap: square"/>
     </g>
     <g id="line2d_20">
      <defs>
       <path id="m76ee1367e6" d="M 0 0 
L -3.5 0 
" style="stroke: #000000; stroke-width: 0.8"/>
      </defs>
      <g>
       <use xlink:href="#m76ee1367e6" x="54" y="242.116364" style="stroke: #000000; stroke-width: 0.8"/>
      </g>
     </g>
     <g id="text_11">
      <!-- 0.00 -->
      <g transform="translate(24.734375 245.915582)scale(0.1 -0.1)">
       <defs>
        <path id="DejaVuSans-2e" d="M 684 794 
L 1344 794 
L 1344 0 
L 684 0 
L 684 794 
z
" transform="scale(0.015625)"/>
       </defs>
       <use xlink:href="#DejaVuSans-30"/>
       <use xlink:href="#DejaVuSans-2e" x="63.623047"/>
       <use xlink:href="#DejaVuSans-30" x="95.410156"/>
       <use xlink:href="#DejaVuSans-30" x="159.033203"/>
      </g>
     </g>
    </g>
    <g id="ytick_2">
     <g id="line2d_21">
      <path d="M 54 202.941138 
L 388.8 202.941138 
" clip-path="url(#p46f928ee18)" style="fill: none; stroke: #b0b0b0; stroke-width: 0.8; stroke-linecap: square"/>
     </g>
     <g id="line2d_22">
      <g>
       <use xlink:href="#m76ee1367e6" x="54" y="202.941138" style="stroke: #000000; stroke-width: 0.8"/>
      </g>
     </g>
     <g id="text_12">
      <!-- 0.05 -->
      <g transform="translate(24.734375 206.740356)scale(0.1 -0.1)">
       <use xlink:href="#DejaVuSans-30"/>
       <use xlink:href="#DejaVuSans-2e" x="63.623047"/>
       <use xlink:href="#DejaVuSans-30" x="95.410156"/>
       <use xlink:href="#DejaVuSans-35" x="159.033203"/>
      </g>
     </g>
    </g>
    <g id="ytick_3">
     <g id="line2d_23">
      <path d="M 54 163.765912 
L 388.8 163.765912 
" clip-path="url(#p46f928ee18)" style="fill: none; stroke: #b0b0b0; stroke-width: 0.8; stroke-linecap: square"/>
     </g>
     <g id="line2d_24">
      <g>
       <use xlink:href="#m76ee1367e6" x="54" y="163.765912" style="stroke: #000000; stroke-width: 0.8"/>
      </g>
     </g>
     <g id="text_13">
      <!-- 0.10 -->
      <g transform="translate(24.734375 167.56513)scale(0.1 -0.1)">
       <use xlink:href="#DejaVuSans-30"/>
       <use xlink:href="#DejaVuSans-2e" x="63.623047"/>
       <use xlink:href="#DejaVuSans-31" x="95.410156"/>
       <use xlink:href="#DejaVuSans-30" x="159.033203"/>
      </g>
     </g>
    </g>
    <g id="ytick_4">
     <g id="line2d_25">
      <path d="M 54 124.590686 
L 388.8 124.590686 
" clip-path="url(#p46f928ee18)" style="fill: none; stroke: #b0b0b0; stroke-width: 0.8; stroke-linecap: square"/>
     </g>
     <g id="line2d_26">
      <g>
       <use xlink:href="#m76ee1367e6" x="54" y="124.590686" style="stroke: #000000; stroke-width: 0.8"/>
      </g>
     </g>
     <g id="text_14">
      <!-- 0.15 -->
      <g transform="translate(24.734375 128.389904)scale(0.1 -0.1)">
       <use xlink:href="#DejaVuSans-30"/>
       <use xlink:href="#DejaVuSans-2e" x="63.623047"/>
       <use xlink:href="#DejaVuSans-31" x="95.410156"/>
       <use xlink:href="#DejaVuSans-35" x="159.033203"/>
      </g>
     </g>
    </g>
    <g id="ytick_5">
     <g id="line2d_27">
      <path d="M 54 85.41546 
L 388.8 85.41546 
" clip-path="url(#p46f928ee18)" style="fill: none; stroke: #b0b0b0; stroke-width: 0.8; stroke-linecap: square"/>
     </g>
     <g id="line2d_28">
      <g>
       <use xlink:href="#m76ee1367e6" x="54" y="85.41546" style="stroke: #000000; stroke-width: 0.8"/>
      </g>
     </g>
     <g id="text_15">
      <!-- 0.20 -->
      <g transform="translate(24.734375 89.214679)scale(0.1 -0.1)">
       <use xlink:href="#DejaVuSans-30"/>
       <use xlink:href="#DejaVuSans-2e" x="63.623047"/>
       <use xlink:href="#DejaVuSans-32" x="95.410156"/>
       <use xlink:href="#DejaVuSans-30" x="159.033203"/>
      </g>
     </g>
    </g>
    <g id="ytick_6">
     <g id="line2d_29">
      <path d="M 54 46.240234 
L 388.8 46.240234 
" clip-path="url(#p46f928ee18)" style="fill: none; stroke: #b0b0b0; stroke-width: 0.8; stroke-linecap: square"/>
     </g>
     <g id="line2d_30">
      <g>
       <use xlink:href="#m76ee1367e6" x="54" y="46.240234" style="stroke: #000000; stroke-width: 0.8"/>
      </g>
     </g>
     <g id="text_16">
      <!-- 0.25 -->
      <g transform="translate(24.734375 50.039453)scale(0.1 -0.1)">
       <use xlink:href="#DejaVuSans-30"/>
       <use xlink:href="#DejaVuSans-2e" x="63.623047"/>
       <use xlink:href="#DejaVuSans-32" x="95.410156"/>
       <use xlink:href="#DejaVuSans-35" x="159.033203"/>
      </g>
     </g>
    </g>
    <g id="text_17">
     <!-- $\rho(x)$ -->
     <g transform="translate(18.634375 153.33)rotate(-90)scale(0.1 -0.1)">
      <defs>
       <path id="DejaVuSans-Oblique-3c1" d="M 1203 2875 
Q 1453 3194 1981 3475 
Q 2188 3584 2756 3584 
Q 3394 3584 3694 3078 
Q 3994 2572 3834 1747 
Q 3672 922 3175 415 
Q 2678 -91 2041 -91 
Q 1656 -91 1409 63 
Q 1163 213 1044 525 
L 681 -1331 
L 103 -1331 
L 697 1716 
Q 838 2438 1203 2875 
z
M 3238 1747 
Q 3359 2381 3169 2744 
Q 2978 3103 2522 3103 
Q 2066 3103 1734 2744 
Q 1403 2381 1281 1747 
Q 1156 1113 1347 750 
Q 1538 391 1994 391 
Q 2450 391 2781 750 
Q 3113 1113 3238 1747 
z
" transform="scale(0.015625)"/>
       <path id="DejaVuSans-28" d="M 1984 4856 
Q 1566 4138 1362 3434 
Q 1159 2731 1159 2009 
Q 1159 1288 1364 580 
Q 1569 -128 1984 -844 
L 1484 -844 
Q 1016 -109 783 600 
Q 550 1309 550 2009 
Q 550 2706 781 3412 
Q 1013 4119 1484 4856 
L 1984 4856 
z
" transform="scale(0.015625)"/>
       <path id="DejaVuSans-Oblique-78" d="M 3841 3500 
L 2234 1784 
L 3219 0 
L 2559 0 
L 1819 1388 
L 531 0 
L -166 0 
L 1556 1844 
L 641 3500 
L 1300 3500 
L 1972 2234 
L 3144 3500 
L 3841 3500 
z
" transform="scale(0.015625)"/>
       <path id="DejaVuSans-29" d="M 513 4856 
L 1013 4856 
Q 1481 4119 1714 3412 
Q 1947 2706 1947 2009 
Q 1947 1309 1714 600 
Q 1481 -109 1013 -844 
L 513 -844 
Q 928 -128 1133 580 
Q 1338 1288 1338 2009 
Q 1338 2731 1133 3434 
Q 928 4138 513 4856 
z
" transform="scale(0.015625)"/>
      </defs>
      <use xlink:href="#DejaVuSans-Oblique-3c1" transform="translate(0 0.125)"/>
      <use xlink:href="#DejaVuSans-28" transform="translate(63.476562 0.125)"/>
      <use xlink:href="#DejaVuSans-Oblique-78" transform="translate(102.490234 0.125)"/>
      <use xlink:href="#DejaVuSans-29" transform="translate(161.669922 0.125)"/>
     </g>
    </g>
   </g>
   <g id="line2d_31">
    <path d="M 69.218182 242.116364 
L 174.633415 242.012879 
L 178.594103 241.763911 
L 181.03145 241.406413 
L 182.859459 240.947869 
L 184.382801 240.377362 
L 185.906143 239.569472 
L 187.124816 238.699986 
L 188.343489 237.580446 
L 189.562162 236.155511 
L 190.780835 234.362905 
L 191.999509 232.134157 
L 193.218182 229.395942 
L 194.436855 226.072078 
L 195.655528 222.08626 
L 196.874201 217.365526 
L 198.092875 211.844404 
L 199.616216 203.737911 
L 201.139558 194.234422 
L 202.662899 183.327723 
L 204.490909 168.48739 
L 206.623587 149.128849 
L 209.974939 116.17813 
L 213.021622 86.994938 
L 214.849631 71.660458 
L 216.372973 60.953137 
L 217.591646 54.088008 
L 218.505651 50.066492 
L 219.419656 47.087835 
L 220.028993 45.70722 
L 220.638329 44.823563 
L 221.247666 44.443636 
L 221.552334 44.443636 
L 221.857002 44.57036 
L 222.466339 45.202759 
L 223.075676 46.33598 
L 223.685012 47.961351 
L 224.599017 51.294133 
L 225.513022 55.649021 
L 226.731695 62.917414 
L 227.950369 71.660458 
L 229.47371 84.285683 
L 231.606388 104.171563 
L 238.004423 165.844118 
L 239.832432 180.982445 
L 241.660442 194.234422 
L 243.183784 203.737911 
L 244.707125 211.844404 
L 246.230467 218.618359 
L 247.44914 223.148857 
L 248.667813 226.962149 
L 249.886486 230.132399 
L 251.10516 232.736176 
L 252.323833 234.849174 
L 253.542506 236.543668 
L 254.761179 237.886678 
L 255.979853 238.938796 
L 257.503194 239.92577 
L 259.026536 240.630202 
L 260.854545 241.202922 
L 262.987224 241.613567 
L 265.729238 241.893536 
L 269.689926 242.053609 
L 278.220639 242.113529 
L 373.581818 242.116364 
L 373.581818 242.116364 
" clip-path="url(#p46f928ee18)" style="fill: none; stroke: #1f77b4; stroke-width: 1.5; stroke-linecap: square"/>
   </g>
   <g id="line2d_32">
    <path d="M 69.218182 242.095392 
L 91.1543 241.938104 
L 102.427027 241.645912 
L 110.348403 241.233552 
L 116.746437 240.694333 
L 122.230467 240.024195 
L 127.10516 239.218503 
L 131.675184 238.241644 
L 135.940541 237.100582 
L 139.901229 235.813438 
L 143.861916 234.281364 
L 147.517936 232.63023 
L 151.173956 230.736711 
L 154.829975 228.590708 
L 158.485995 226.18778 
L 162.142015 223.530382 
L 166.102703 220.376733 
L 170.368059 216.689606 
L 175.242752 212.168523 
L 181.640786 205.906165 
L 192.304177 195.452605 
L 196.569533 191.593669 
L 200.225553 188.571344 
L 203.576904 186.09859 
L 206.623587 184.14335 
L 209.365602 182.652287 
L 211.802948 181.559381 
L 214.240295 180.698976 
L 216.677641 180.081473 
L 219.114988 179.714398 
L 221.247666 179.602249 
L 223.380344 179.686379 
L 225.81769 180.021771 
L 228.255037 180.608321 
L 230.692383 181.438875 
L 233.12973 182.503381 
L 235.871744 183.964626 
L 238.613759 185.683946 
L 241.660442 187.866258 
L 245.011794 190.552794 
L 248.972482 194.040156 
L 253.847174 198.66156 
L 264.205897 208.919775 
L 270.299263 214.747083 
L 274.869287 218.831158 
L 279.134644 222.350218 
L 283.095332 225.329913 
L 286.751351 227.818312 
L 290.407371 230.049778 
L 294.063391 232.026589 
L 297.71941 233.7571 
L 301.37543 235.254468 
L 305.336118 236.632952 
L 309.296806 237.781745 
L 313.562162 238.791811 
L 318.132187 239.649027 
L 323.311548 240.387022 
L 329.100246 240.97913 
L 335.802948 241.436352 
L 344.028993 241.769625 
L 355.30172 241.988668 
L 373.581818 242.095392 
L 373.581818 242.095392 
" clip-path="url(#p46f928ee18)" style="fill: none; stroke: #ff7f0e; stroke-width: 1.5; stroke-linecap: square"/>
   </g>
   <g id="patch_3">
    <path d="M 54 252 
L 54 34.56 
" style="fill: none; stroke: #000000; stroke-width: 0.8; stroke-linejoin: miter; stroke-linecap: square"/>
   </g>
   <g id="patch_4">
    <path d="M 388.8 252 
L 388.8 34.56 
" style="fill: none; stroke: #000000; stroke-width: 0.8; stroke-linejoin: miter; stroke-linecap: square"/>
   </g>
   <g id="patch_5">
    <path d="M 54 252 
L 388.8 252 
" style="fill: none; stroke: #000000; stroke-width: 0.8; stroke-linejoin: miter; stroke-linecap: square"/>
   </g>
   <g id="patch_6">
    <path d="M 54 34.56 
L 388.8 34.56 
" style="fill: none; stroke: #000000; stroke-width: 0.8; stroke-linejoin: miter; stroke-linecap: square"/>
   </g>
   <g id="legend_1">
    <g id="patch_7">
     <path d="M 247.5 71.96 
L 381.8 71.96 
Q 383.8 71.96 383.8 69.96 
L 383.8 41.56 
Q 383.8 39.56 381.8 39.56 
L 247.5 39.56 
Q 245.5 39.56 245.5 41.56 
L 245.5 69.96 
Q 245.5 71.96 247.5 71.96 
z
" style="fill: #ffffff; opacity: 0.8; stroke: #cccccc; stroke-linejoin: miter"/>
    </g>
    <g id="line2d_33">
     <path d="M 249.5 47.66 
L 259.5 47.66 
L 269.5 47.66 
" style="fill: none; stroke: #1f77b4; stroke-width: 1.5; stroke-linecap: square"/>
    </g>
    <g id="text_18">
     <!-- $\rho_1(x)$ ~ e^(-x^2/5) -->
     <g transform="translate(277.5 51.16)scale(0.1 -0.1)">
      <defs>
       <path id="DejaVuSans-20" transform="scale(0.015625)"/>
       <path id="DejaVuSans-7e" d="M 4684 2553 
L 4684 1997 
Q 4356 1750 4076 1644 
Q 3797 1538 3494 1538 
Q 3150 1538 2694 1722 
Q 2659 1734 2644 1741 
Q 2622 1750 2575 1766 
Q 2091 1959 1797 1959 
Q 1522 1959 1253 1839 
Q 984 1719 678 1459 
L 678 2016 
Q 1006 2263 1286 2370 
Q 1566 2478 1869 2478 
Q 2213 2478 2672 2291 
Q 2703 2278 2719 2272 
Q 2744 2263 2788 2247 
Q 3272 2053 3566 2053 
Q 3834 2053 4098 2172 
Q 4363 2291 4684 2553 
z
" transform="scale(0.015625)"/>
       <path id="DejaVuSans-65" d="M 3597 1894 
L 3597 1613 
L 953 1613 
Q 991 1019 1311 708 
Q 1631 397 2203 397 
Q 2534 397 2845 478 
Q 3156 559 3463 722 
L 3463 178 
Q 3153 47 2828 -22 
Q 2503 -91 2169 -91 
Q 1331 -91 842 396 
Q 353 884 353 1716 
Q 353 2575 817 3079 
Q 1281 3584 2069 3584 
Q 2775 3584 3186 3129 
Q 3597 2675 3597 1894 
z
M 3022 2063 
Q 3016 2534 2758 2815 
Q 2500 3097 2075 3097 
Q 1594 3097 1305 2825 
Q 1016 2553 972 2059 
L 3022 2063 
z
" transform="scale(0.015625)"/>
       <path id="DejaVuSans-5e" d="M 2988 4666 
L 4684 2925 
L 4056 2925 
L 2681 4159 
L 1306 2925 
L 678 2925 
L 2375 4666 
L 2988 4666 
z
" transform="scale(0.015625)"/>
       <path id="DejaVuSans-2d" d="M 313 2009 
L 1997 2009 
L 1997 1497 
L 313 1497 
L 313 2009 
z
" transform="scale(0.015625)"/>
       <path id="DejaVuSans-2f" d="M 1625 4666 
L 2156 4666 
L 531 -594 
L 0 -594 
L 1625 4666 
z
" transform="scale(0.015625)"/>
      </defs>
      <use xlink:href="#DejaVuSans-Oblique-3c1" transform="translate(0 0.125)"/>
      <use xlink:href="#DejaVuSans-31" transform="translate(63.476562 -16.28125)scale(0.7)"/>
      <use xlink:href="#DejaVuSans-28" transform="translate(110.74707 0.125)"/>
      <use xlink:href="#DejaVuSans-Oblique-78" transform="translate(149.760742 0.125)"/>
      <use xlink:href="#DejaVuSans-29" transform="translate(208.94043 0.125)"/>
      <use xlink:href="#DejaVuSans-20" transform="translate(247.954102 0.125)"/>
      <use xlink:href="#DejaVuSans-7e" transform="translate(279.741211 0.125)"/>
      <use xlink:href="#DejaVuSans-20" transform="translate(363.530273 0.125)"/>
      <use xlink:href="#DejaVuSans-65" transform="translate(395.317383 0.125)"/>
      <use xlink:href="#DejaVuSans-5e" transform="translate(456.84082 0.125)"/>
      <use xlink:href="#DejaVuSans-28" transform="translate(540.629883 0.125)"/>
      <use xlink:href="#DejaVuSans-2d" transform="translate(579.643555 0.125)"/>
      <use xlink:href="#DejaVuSans-78" transform="translate(615.727539 0.125)"/>
      <use xlink:href="#DejaVuSans-5e" transform="translate(674.907227 0.125)"/>
      <use xlink:href="#DejaVuSans-32" transform="translate(758.696289 0.125)"/>
      <use xlink:href="#DejaVuSans-2f" transform="translate(822.319336 0.125)"/>
      <use xlink:href="#DejaVuSans-35" transform="translate(856.010742 0.125)"/>
      <use xlink:href="#DejaVuSans-29" transform="translate(919.633789 0.125)"/>
     </g>
    </g>
    <g id="line2d_34">
     <path d="M 249.5 62.36 
L 259.5 62.36 
L 269.5 62.36 
" style="fill: none; stroke: #ff7f0e; stroke-width: 1.5; stroke-linecap: square"/>
    </g>
    <g id="text_19">
     <!-- $\rho_2(x)$ ~ e^(-x^2/50) -->
     <g transform="translate(277.5 65.86)scale(0.1 -0.1)">
      <use xlink:href="#DejaVuSans-Oblique-3c1" transform="translate(0 0.125)"/>
      <use xlink:href="#DejaVuSans-32" transform="translate(63.476562 -16.28125)scale(0.7)"/>
      <use xlink:href="#DejaVuSans-28" transform="translate(110.74707 0.125)"/>
      <use xlink:href="#DejaVuSans-Oblique-78" transform="translate(149.760742 0.125)"/>
      <use xlink:href="#DejaVuSans-29" transform="translate(208.94043 0.125)"/>
      <use xlink:href="#DejaVuSans-20" transform="translate(247.954102 0.125)"/>
      <use xlink:href="#DejaVuSans-7e" transform="translate(279.741211 0.125)"/>
      <use xlink:href="#DejaVuSans-20" transform="translate(363.530273 0.125)"/>
      <use xlink:href="#DejaVuSans-65" transform="translate(395.317383 0.125)"/>
      <use xlink:href="#DejaVuSans-5e" transform="translate(456.84082 0.125)"/>
      <use xlink:href="#DejaVuSans-28" transform="translate(540.629883 0.125)"/>
      <use xlink:href="#DejaVuSans-2d" transform="translate(579.643555 0.125)"/>
      <use xlink:href="#DejaVuSans-78" transform="translate(615.727539 0.125)"/>
      <use xlink:href="#DejaVuSans-5e" transform="translate(674.907227 0.125)"/>
      <use xlink:href="#DejaVuSans-32" transform="translate(758.696289 0.125)"/>
      <use xlink:href="#DejaVuSans-2f" transform="translate(822.319336 0.125)"/>
      <use xlink:href="#DejaVuSans-35" transform="translate(856.010742 0.125)"/>
      <use xlink:href="#DejaVuSans-30" transform="translate(919.633789 0.125)"/>
      <use xlink:href="#DejaVuSans-29" transform="translate(983.256836 0.125)"/>
     </g>
    </g>
   </g>
  </g>
 </g>
 <defs>
  <clipPath id="p46f928ee18">
   <rect x="54" y="34.56" width="334.8" height="217.44"/>
  </clipPath>
 </defs>
</svg>
