<?xml version="1.0" encoding="UTF-8" standalone="no"?>
<!-- Created with Inkscape (http://www.inkscape.org/) -->

<svg
   width="34.607445mm"
   height="34.607445mm"
   viewBox="0 0 34.607445 34.607445"
   version="1.1"
   id="svg5"
   sodipodi:docname="kugel_dark.svg"
   inkscape:version="1.2.2 (b0a8486, 2022-12-01)"
   xmlns:inkscape="http://www.inkscape.org/namespaces/inkscape"
   xmlns:sodipodi="http://sodipodi.sourceforge.net/DTD/sodipodi-0.dtd"
   xmlns="http://www.w3.org/2000/svg"
   xmlns:svg="http://www.w3.org/2000/svg"
   xmlns:ns1="http://www.iki.fi/pav/software/textext/">
  <sodipodi:namedview
     id="namedview7"
     pagecolor="#b3b3b3"
     bordercolor="#000000"
     borderopacity="0.25"
     inkscape:showpageshadow="2"
     inkscape:pageopacity="0"
     inkscape:pagecheckerboard="0"
     inkscape:deskcolor="#d1d1d1"
     inkscape:document-units="mm"
     showgrid="false"
     inkscape:zoom="8.136224"
     inkscape:cx="62.68264"
     inkscape:cy="67.967647"
     inkscape:window-width="1440"
     inkscape:window-height="780"
     inkscape:window-x="0"
     inkscape:window-y="23"
     inkscape:window-maximized="0"
     inkscape:current-layer="layer1" />
  <defs
     id="defs2" />
  <g
     inkscape:label="Layer 1"
     inkscape:groupmode="layer"
     id="layer1"
     transform="translate(-78.0964, -47.8742)">
    <circle
       style="fill:none;stroke:#ffffff;stroke-width:2.51377;stroke-dasharray:none"
       id="path236"
       transform="matrix(0.07956166,0,0,0.07956166,66.712751,45.578556)"
       cx="360.56723"
       cy="246.34172"
       r="174.09067" />
    <ellipse
       style="fill:#000000;stroke:none;stroke-width:0.755906;stroke-dasharray:none"
       id="path1801"
       cx="295.6561"
       cy="152.49434"
       transform="matrix(0.07956166,0,0,0.07956166,66.712751,45.578556)"
       rx="2.2737368e-13"
       ry="5.6843419e-14" />
    <path
       style="fill:none;stroke:#ffffff;stroke-width:2.51377;stroke-dasharray:none"
       d="M 186.47656,246.34172 H 534.65789"
       id="path7672"
       transform="matrix(0.07956166,0,0,0.07956166,66.712751,45.578556)" />
    <path
       style="fill:none;stroke:#ffffff;stroke-width:2.51377;stroke-dasharray:none"
       d="m 360.56723,72.251052 v 174.090668 0"
       id="path9858"
       transform="matrix(0.07956166,0,0,0.07956166,66.712751,45.578556)"
       sodipodi:nodetypes="ccc" />
    <path
       style="fill:none;stroke:#ffffff;stroke-width:2.51377;stroke-dasharray:none"
       d="M 360.56723,246.34172 290.0959,316.81304"
       id="path9860"
       transform="matrix(0.07956166,0,0,0.07956166,66.712751,45.578556)" />
    <path
       style="fill:none;stroke:#ffffff;stroke-width:2.51377;stroke-dasharray:none"
       id="circle1008"
       transform="matrix(0.07956166,0,0,0.07956166,66.712751,45.578556)"
       sodipodi:type="arc"
       sodipodi:cx="360.56723"
       sodipodi:cy="246.34172"
       sodipodi:rx="174.09067"
       sodipodi:ry="77.06781"
       sodipodi:start="0"
       sodipodi:end="3.1415927"
       sodipodi:arc-type="arc"
       d="m 534.6579,246.34172 a 174.09067,77.06781 0 0 1 -87.04534,66.74268 174.09067,77.06781 0 0 1 -174.09067,0 174.09067,77.06781 0 0 1 -87.04533,-66.74268"
       sodipodi:open="true" />
    <path
       style="fill:none;stroke:#ffffff;stroke-width:2.51377;stroke-dasharray:2.5137701, 2.5137701;stroke-dashoffset:3.26790113"
       id="path9862"
       transform="matrix(0.07956166,0,0,-0.07956166,66.712751,84.77727)"
       sodipodi:type="arc"
       sodipodi:cx="360.56723"
       sodipodi:cy="246.34172"
       sodipodi:rx="174.09067"
       sodipodi:ry="77.06781"
       sodipodi:start="0"
       sodipodi:end="3.1415927"
       sodipodi:arc-type="arc"
       d="m 534.6579,246.34172 a 174.09067,77.06781 0 0 1 -87.04534,66.74268 174.09067,77.06781 0 0 1 -174.09067,0 174.09067,77.06781 0 0 1 -87.04533,-66.74268"
       sodipodi:open="true" />
    <path
       style="fill:none;stroke:#ff0000;stroke-width:2.51377;stroke-dasharray:none;stroke-dashoffset:0"
       d="m 360.56723,246.34172 -70.47134,70.47132"
       id="path9866"
       transform="matrix(0.07956166,0,0,0.07956166,66.712751,45.578556)" />
    <path
       style="fill:none;stroke:#00ff00;stroke-width:2.51377;stroke-dasharray:none;stroke-dashoffset:0"
       id="path9980"
       transform="matrix(0.07956166,0,0,0.07956166,66.712751,45.578556)"
       sodipodi:type="arc"
       sodipodi:cx="360.56723"
       sodipodi:cy="246.34172"
       sodipodi:rx="174.09067"
       sodipodi:ry="77.06781"
       sodipodi:start="1.1529928"
       sodipodi:end="1.9887148"
       sodipodi:arc-type="arc"
       d="m 431.2052,316.78034 a 174.09067,77.06781 0 0 1 -141.29423,-0.004"
       sodipodi:open="true" />
    <g
       transform="matrix(0.352778,0,0,0.352778,90.856381,66.097521)"
       ns1:version="1.8.2"
       ns1:texconverter="pdflatex"
       ns1:pdfconverter="inkscape"
       ns1:text="$r$"
       ns1:preamble="/Users/hendrik/Library/Application Support/org.inkscape.Inkscape/config/inkscape/extensions/textext/default_packages.tex"
       ns1:scale="1.0000000850393187"
       ns1:alignment="middle center"
       ns1:stroke-to-path="0"
       ns1:jacobian_sqrt="0.352778"
       id="g10071"
       style="fill:#ff0000">
      <defs
         id="id-551c4c4c-f399-45e4-af05-92bf83445c1e">
        <g
           id="id-9027e6ed-9443-44d9-9187-e0e75a550742">
          <g
             id="id-f94aa50d-daa5-47d8-a142-0c7ed4ef2686" />
          <g
             id="id-361e552a-bd5d-484a-94c2-0906f0bc40cc">
            <path
               d="m 0.875,-0.59375 c -0.03125,0.15625 -0.09375,0.390625 -0.09375,0.4375 0,0.171875 0.140625,0.265625 0.296875,0.265625 0.125,0 0.296875,-0.078125 0.375,-0.28125 C 1.46875,-0.203125 1.796875,-1.5625 1.84375,-1.75 c 0.078125,-0.328125 0.265625,-1.015625 0.3125,-1.296875 0.046875,-0.125 0.328125,-0.59375 0.5625,-0.8125 0.078125,-0.0625 0.375,-0.328125 0.796875,-0.328125 0.265625,0 0.40625,0.125 0.421875,0.125 -0.296875,0.046875 -0.515625,0.28125 -0.515625,0.546875 0,0.15625 0.109375,0.34375 0.375,0.34375 0.265625,0 0.546875,-0.234375 0.546875,-0.59375 0,-0.34375 -0.3125,-0.640625 -0.828125,-0.640625 C 2.875,-4.40625 2.4375,-3.921875 2.25,-3.640625 2.15625,-4.09375 1.796875,-4.40625 1.328125,-4.40625 0.875,-4.40625 0.6875,-4.015625 0.59375,-3.84375 0.421875,-3.5 0.296875,-2.90625 0.296875,-2.875 c 0,0.109375 0.09375,0.109375 0.109375,0.109375 0.109375,0 0.109375,-0.015625 0.171875,-0.234375 0.171875,-0.703125 0.375,-1.1875 0.734375,-1.1875 0.15625,0 0.296875,0.078125 0.296875,0.453125 0,0.21875 -0.03125,0.328125 -0.15625,0.84375 z m 0,0"
               id="id-72363d7e-a5e1-40f8-8567-ed10a1ccf949" />
          </g>
        </g>
      </defs>
      <g
         fill="#000000"
         fill-opacity="1"
         id="id-1101cd83-22de-4f3f-9b4e-e4a3d9a6c219"
         transform="translate(-149.009,-130.359)"
         style="fill:#ff0000">
        <g
           transform="translate(148.712,134.765)"
           id="g10068"
           style="fill:#ff0000">
          <path
             d="m 0.875,-0.59375 c -0.03125,0.15625 -0.09375,0.390625 -0.09375,0.4375 0,0.171875 0.140625,0.265625 0.296875,0.265625 0.125,0 0.296875,-0.078125 0.375,-0.28125 C 1.46875,-0.203125 1.796875,-1.5625 1.84375,-1.75 c 0.078125,-0.328125 0.265625,-1.015625 0.3125,-1.296875 0.046875,-0.125 0.328125,-0.59375 0.5625,-0.8125 0.078125,-0.0625 0.375,-0.328125 0.796875,-0.328125 0.265625,0 0.40625,0.125 0.421875,0.125 -0.296875,0.046875 -0.515625,0.28125 -0.515625,0.546875 0,0.15625 0.109375,0.34375 0.375,0.34375 0.265625,0 0.546875,-0.234375 0.546875,-0.59375 0,-0.34375 -0.3125,-0.640625 -0.828125,-0.640625 C 2.875,-4.40625 2.4375,-3.921875 2.25,-3.640625 2.15625,-4.09375 1.796875,-4.40625 1.328125,-4.40625 0.875,-4.40625 0.6875,-4.015625 0.59375,-3.84375 0.421875,-3.5 0.296875,-2.90625 0.296875,-2.875 c 0,0.109375 0.09375,0.109375 0.109375,0.109375 0.109375,0 0.109375,-0.015625 0.171875,-0.234375 0.171875,-0.703125 0.375,-1.1875 0.734375,-1.1875 0.15625,0 0.296875,0.078125 0.296875,0.453125 0,0.21875 -0.03125,0.328125 -0.15625,0.84375 z m 0,0"
             id="id-a3cd70df-2395-43fe-8181-1377b6929d01"
             style="fill:#ff0000" />
        </g>
      </g>
    </g>
    <g
       transform="matrix(0.352778,0,0,0.352778,94.986667,68.172164)"
       ns1:version="1.8.2"
       ns1:texconverter="pdflatex"
       ns1:pdfconverter="inkscape"
       ns1:text="$\\varphi$"
       ns1:preamble="/Users/hendrik/Library/Application Support/org.inkscape.Inkscape/config/inkscape/extensions/textext/default_packages.tex"
       ns1:scale="1.0000000850393187"
       ns1:alignment="middle center"
       ns1:stroke-to-path="0"
       ns1:inkscapeversion="1.2.2"
       ns1:jacobian_sqrt="0.352778"
       id="g10929"
       style="fill:#00ff00;stroke:none">
      <defs
         id="id-8ca6b055-7d9f-49be-b4f7-7b0947862895">
        <g
           id="id-7bed9977-4799-4368-9cbc-c062280b6ad3">
          <g
             id="id-4a3d2eb1-db6c-4ebb-b132-20d00e45c73f" />
          <g
             id="id-a9ee8960-4e8c-4fde-8580-e3e5135af93f">
            <path
               d="M 1.6875,1.6875 C 1.65625,1.828125 1.640625,1.84375 1.640625,1.890625 c 0,0.21875 0.1875,0.28125 0.296875,0.28125 0.046875,0 0.265625,-0.03125 0.359375,-0.265625 C 2.328125,1.828125 2.375,1.5 2.65625,0.09375 c 0.078125,0 0.15625,0.015625 0.328125,0.015625 1.65625,0 3.1875,-1.5625 3.1875,-3.140625 0,-0.78125 -0.390625,-1.375 -1.140625,-1.375 -1.4375,0 -2.046875,1.9375 -2.640625,3.875 C 1.3125,-0.734375 0.75,-1.28125 0.75,-2 c 0,-0.28125 0.234375,-1.375 0.828125,-2.0625 0.09375,-0.09375 0.09375,-0.109375 0.09375,-0.140625 0,-0.03125 -0.03125,-0.09375 -0.125,-0.09375 -0.28125,0 -1.046875,1.453125 -1.046875,2.40625 0,0.9375 0.65625,1.65625 1.71875,1.90625 z m 1.390625,-2.15625 c -0.09375,0 -0.109375,0 -0.1875,-0.015625 -0.125,0 -0.125,0 -0.125,-0.03125 0,-0.015625 0.171875,-0.9375 0.1875,-1.078125 0.3125,-1.28125 1.09375,-2.234375 1.984375,-2.234375 0.6875,0 0.953125,0.53125 0.953125,1.015625 0,1.125 -1.28125,2.34375 -2.8125,2.34375 z m 0,0"
               id="id-378b0fc2-10ce-4749-a47a-2a04b1c51085" />
          </g>
        </g>
      </defs>
      <g
         fill="#000000"
         fill-opacity="1"
         id="id-c5381cb2-b5dc-45ea-9839-bddfeeb258da"
         transform="translate(-149.212,-130.359)"
         style="fill:#00ff00;stroke:none">
        <g
           transform="translate(148.712,134.765)"
           id="g10926"
           style="fill:#00ff00;stroke:none">
          <path
             d="M 1.6875,1.6875 C 1.65625,1.828125 1.640625,1.84375 1.640625,1.890625 c 0,0.21875 0.1875,0.28125 0.296875,0.28125 0.046875,0 0.265625,-0.03125 0.359375,-0.265625 C 2.328125,1.828125 2.375,1.5 2.65625,0.09375 c 0.078125,0 0.15625,0.015625 0.328125,0.015625 1.65625,0 3.1875,-1.5625 3.1875,-3.140625 0,-0.78125 -0.390625,-1.375 -1.140625,-1.375 -1.4375,0 -2.046875,1.9375 -2.640625,3.875 C 1.3125,-0.734375 0.75,-1.28125 0.75,-2 c 0,-0.28125 0.234375,-1.375 0.828125,-2.0625 0.09375,-0.09375 0.09375,-0.109375 0.09375,-0.140625 0,-0.03125 -0.03125,-0.09375 -0.125,-0.09375 -0.28125,0 -1.046875,1.453125 -1.046875,2.40625 0,0.9375 0.65625,1.65625 1.71875,1.90625 z m 1.390625,-2.15625 c -0.09375,0 -0.109375,0 -0.1875,-0.015625 -0.125,0 -0.125,0 -0.125,-0.03125 0,-0.015625 0.171875,-0.9375 0.1875,-1.078125 0.3125,-1.28125 1.09375,-2.234375 1.984375,-2.234375 0.6875,0 0.953125,0.53125 0.953125,1.015625 0,1.125 -1.28125,2.34375 -2.8125,2.34375 z m 0,0"
             id="id-0b0439f8-a523-4c57-818a-7b0de3b86657"
             style="fill:#00ff00;stroke:none" />
        </g>
      </g>
    </g>
    <g
       transform="matrix(0.352778,0,0,0.352778,96.961432,60.345366)"
       ns1:version="1.8.2"
       ns1:texconverter="pdflatex"
       ns1:pdfconverter="inkscape"
       ns1:text="$\\theta$"
       ns1:preamble="/Users/hendrik/Library/Application Support/org.inkscape.Inkscape/config/inkscape/extensions/textext/default_packages.tex"
       ns1:scale="1.0000000850393187"
       ns1:alignment="middle center"
       ns1:stroke-to-path="0"
       ns1:inkscapeversion="1.2.2"
       ns1:jacobian_sqrt="0.352778"
       id="g11106"
       style="fill:#0000ff">
      <defs
         id="id-8f2861df-18c8-402b-aecb-81206d28bc22">
        <g
           id="id-5fd92103-9d7a-4155-9b8d-72003713f9ad">
          <g
             id="id-cc4aea82-2b10-4137-b686-e969079ca3b8" />
          <g
             id="id-973ba31d-28d2-4104-b655-ecc7e71df8bf">
            <path
               d="m 4.53125,-4.984375 c 0,-0.65625 -0.171875,-2.046875 -1.1875,-2.046875 -1.390625,0 -2.921875,2.8125 -2.921875,5.09375 0,0.9375 0.28125,2.046875 1.1875,2.046875 1.40625,0 2.921875,-2.859375 2.921875,-5.09375 z M 1.46875,-3.625 C 1.640625,-4.25 1.84375,-5.046875 2.25,-5.765625 2.515625,-6.25 2.875,-6.8125 3.328125,-6.8125 c 0.484375,0 0.546875,0.640625 0.546875,1.203125 0,0.5 -0.078125,1 -0.3125,1.984375 z m 2,0.328125 C 3.359375,-2.84375 3.15625,-2 2.765625,-1.28125 c -0.34375,0.6875 -0.71875,1.171875 -1.15625,1.171875 -0.328125,0 -0.53125,-0.296875 -0.53125,-1.21875 0,-0.421875 0.0625,-1 0.3125,-1.96875 z m 0,0"
               id="id-0ba22982-7d7f-4c17-b1d6-be4b952da8b5" />
          </g>
        </g>
      </defs>
      <g
         fill="#000000"
         fill-opacity="1"
         id="id-2e1f8d22-ba37-4790-b534-40533fb6cfe1"
         transform="translate(-149.134,-127.734)"
         style="fill:#0000ff">
        <g
           transform="translate(148.712,134.765)"
           id="g11103"
           style="fill:#0000ff">
          <path
             d="m 4.53125,-4.984375 c 0,-0.65625 -0.171875,-2.046875 -1.1875,-2.046875 -1.390625,0 -2.921875,2.8125 -2.921875,5.09375 0,0.9375 0.28125,2.046875 1.1875,2.046875 1.40625,0 2.921875,-2.859375 2.921875,-5.09375 z M 1.46875,-3.625 C 1.640625,-4.25 1.84375,-5.046875 2.25,-5.765625 2.515625,-6.25 2.875,-6.8125 3.328125,-6.8125 c 0.484375,0 0.546875,0.640625 0.546875,1.203125 0,0.5 -0.078125,1 -0.3125,1.984375 z m 2,0.328125 C 3.359375,-2.84375 3.15625,-2 2.765625,-1.28125 c -0.34375,0.6875 -0.71875,1.171875 -1.15625,1.171875 -0.328125,0 -0.53125,-0.296875 -0.53125,-1.21875 0,-0.421875 0.0625,-1 0.3125,-1.96875 z m 0,0"
             id="id-bb862b2b-67dc-4b25-b2e8-e4b4964ccc6f"
             style="fill:#0000ff" />
        </g>
      </g>
    </g>
    <path
       style="fill:none;stroke:#0000ff;stroke-width:2.51377;stroke-dasharray:none;stroke-dashoffset:0"
       id="path18256"
       transform="matrix(0,0.07956166,0.07956166,0,75.800721,36.490586)"
       sodipodi:type="arc"
       sodipodi:cx="360.56723"
       sodipodi:cy="246.34172"
       sodipodi:rx="174.09067"
       sodipodi:ry="77.06781"
       sodipodi:start="1.8325957"
       sodipodi:end="3.1415927"
       sodipodi:arc-type="arc"
       d="M 315.50925,320.78351 A 174.09067,77.06781 0 0 1 186.47656,246.34172"
       sodipodi:open="true" />
    <circle
       style="fill:#ffffff;stroke:none;stroke-width:1.3419;stroke-dasharray:none"
       id="path2535"
       cx="425.47705"
       cy="152.48981"
       r="3.7475789"
       transform="matrix(0.07956166,0,0,0.07956166,67.471129,49.460682)" />
    <g
       transform="matrix(0.352778,0,0,0.352778,102.15433,61.295037)"
       ns1:version="1.8.2"
       ns1:texconverter="pdflatex"
       ns1:pdfconverter="inkscape"
       ns1:text="$P$"
       ns1:preamble="/Users/hendrik/Library/Application Support/org.inkscape.Inkscape/config/inkscape/extensions/textext/default_packages.tex"
       ns1:scale="1.0000000850393187"
       ns1:alignment="middle center"
       ns1:stroke-to-path="0"
       ns1:inkscapeversion="1.2.2"
       ns1:jacobian_sqrt="0.352778"
       id="g18448"
       style="fill:#ffffff">
      <defs
         id="id-4c73e8ea-8bfc-4bd0-95d7-60c736b540f6">
        <g
           id="id-bead0dac-76d5-44df-bb1b-a3066c507a55">
          <g
             id="id-e62c87d5-624e-4895-b0f4-2498fc9d6704" />
          <g
             id="id-5c24746d-ec14-44cc-ba16-7c1fd76caabd">
            <path
               d="M 3.015625,-3.15625 H 4.71875 c 1.40625,0 2.796875,-1.03125 2.796875,-2.140625 0,-0.78125 -0.65625,-1.515625 -1.96875,-1.515625 h -3.21875 c -0.1875,0 -0.296875,0 -0.296875,0.1875 0,0.125 0.078125,0.125 0.28125,0.125 0.125,0 0.3125,0.015625 0.421875,0.015625 0.171875,0.03125 0.21875,0.046875 0.21875,0.171875 0,0.03125 0,0.0625 -0.03125,0.1875 l -1.34375,5.34375 c -0.09375,0.390625 -0.109375,0.46875 -0.90625,0.46875 -0.15625,0 -0.265625,0 -0.265625,0.1875 C 0.40625,0 0.515625,0 0.546875,0 0.828125,0 1.53125,-0.03125 1.8125,-0.03125 c 0.21875,0 0.4375,0.015625 0.640625,0.015625 0.21875,0 0.4375,0.015625 0.640625,0.015625 0.078125,0 0.203125,0 0.203125,-0.203125 0,-0.109375 -0.09375,-0.109375 -0.28125,-0.109375 -0.359375,0 -0.640625,0 -0.640625,-0.171875 0,-0.0625 0.015625,-0.109375 0.03125,-0.171875 z M 3.734375,-6.125 C 3.828125,-6.46875 3.84375,-6.5 4.28125,-6.5 h 0.953125 c 0.828125,0 1.359375,0.265625 1.359375,0.953125 0,0.390625 -0.203125,1.25 -0.59375,1.609375 -0.5,0.453125 -1.09375,0.53125 -1.53125,0.53125 H 3.0625 Z m 0,0"
               id="id-616a7743-011d-4da7-8ac4-c0d55b7ab315" />
          </g>
        </g>
      </defs>
      <g
         fill="#000000"
         fill-opacity="1"
         id="id-a545051e-db71-474c-b7e4-0c174667ffb5"
         transform="translate(-149.118,-127.953)"
         style="fill:#ffffff">
        <g
           transform="translate(148.712,134.765)"
           id="g18445"
           style="fill:#ffffff">
          <path
             d="M 3.015625,-3.15625 H 4.71875 c 1.40625,0 2.796875,-1.03125 2.796875,-2.140625 0,-0.78125 -0.65625,-1.515625 -1.96875,-1.515625 h -3.21875 c -0.1875,0 -0.296875,0 -0.296875,0.1875 0,0.125 0.078125,0.125 0.28125,0.125 0.125,0 0.3125,0.015625 0.421875,0.015625 0.171875,0.03125 0.21875,0.046875 0.21875,0.171875 0,0.03125 0,0.0625 -0.03125,0.1875 l -1.34375,5.34375 c -0.09375,0.390625 -0.109375,0.46875 -0.90625,0.46875 -0.15625,0 -0.265625,0 -0.265625,0.1875 C 0.40625,0 0.515625,0 0.546875,0 0.828125,0 1.53125,-0.03125 1.8125,-0.03125 c 0.21875,0 0.4375,0.015625 0.640625,0.015625 0.21875,0 0.4375,0.015625 0.640625,0.015625 0.078125,0 0.203125,0 0.203125,-0.203125 0,-0.109375 -0.09375,-0.109375 -0.28125,-0.109375 -0.359375,0 -0.640625,0 -0.640625,-0.171875 0,-0.0625 0.015625,-0.109375 0.03125,-0.171875 z M 3.734375,-6.125 C 3.828125,-6.46875 3.84375,-6.5 4.28125,-6.5 h 0.953125 c 0.828125,0 1.359375,0.265625 1.359375,0.953125 0,0.390625 -0.203125,1.25 -0.59375,1.609375 -0.5,0.453125 -1.09375,0.53125 -1.53125,0.53125 H 3.0625 Z m 0,0"
             id="id-61784d11-980e-4ec9-9393-422befaec7d0"
             style="fill:#ffffff" />
        </g>
      </g>
    </g>
  </g>
</svg>
