<?xml version="1.0" encoding="UTF-8" standalone="no"?>
<!-- Created with Inkscape (http://www.inkscape.org/) -->

<svg
   width="59.802719mm"
   height="23.008514mm"
   viewBox="0 0 59.802719 23.008514"
   version="1.1"
   id="svg5"
   sodipodi:docname="zylindervolumen_dark.svg"
   inkscape:version="1.2.2 (b0a8486, 2022-12-01)"
   xmlns:inkscape="http://www.inkscape.org/namespaces/inkscape"
   xmlns:sodipodi="http://sodipodi.sourceforge.net/DTD/sodipodi-0.dtd"
   xmlns="http://www.w3.org/2000/svg"
   xmlns:svg="http://www.w3.org/2000/svg"
   xmlns:ns2="http://www.iki.fi/pav/software/textext/">
  <sodipodi:namedview
     id="namedview7"
     pagecolor="#ffffff"
     bordercolor="#000000"
     borderopacity="0.25"
     inkscape:showpageshadow="2"
     inkscape:pageopacity="0.0"
     inkscape:pagecheckerboard="0"
     inkscape:deskcolor="#d1d1d1"
     inkscape:document-units="mm"
     showgrid="false"
     inkscape:zoom="3.6163226"
     inkscape:cx="113.92789"
     inkscape:cy="35.94812"
     inkscape:window-width="1440"
     inkscape:window-height="780"
     inkscape:window-x="0"
     inkscape:window-y="23"
     inkscape:window-maximized="0"
     inkscape:current-layer="layer1" />
  <defs
     id="defs2">
    <inkscape:perspective
       sodipodi:type="inkscape:persp3d"
       inkscape:vp_x="0 : -125.49149 : 1"
       inkscape:vp_y="0 : 999.99999 : 0"
       inkscape:vp_z="210 : -125.49149 : 1"
       inkscape:persp3d-origin="105 : -174.99149 : 1"
       id="perspective10841" />
  </defs>
  <g
     inkscape:label="Layer 1"
     inkscape:groupmode="layer"
     id="layer1"
     transform="translate(-112.13011,-28.63929)">
    <path
       style="opacity:1;fill:#ff00ff;stroke:#000000;stroke-width:0;stroke-dasharray:0.755906, 0.755906;stroke-dashoffset:0"
       d="m 580.56005,141.72759 0.25123,12.82873 2.73269,5.80138 20.72511,-1.75524 -0.0155,-13.91272 -3.39328,-7.36298 z"
       id="path3396"
       transform="scale(0.26458333)" />
    <path
       style="opacity:1;fill:#800080;stroke:none;stroke-width:0.377953;stroke-dasharray:none;stroke-dashoffset:0"
       d="m 580.56005,154.11822 2.95882,6.17071 20.59861,-2.08171 -3.25714,-6.7302 z"
       id="path13531"
       transform="scale(0.26458333)" />
    <path
       style="fill:none;stroke:#000000;stroke-width:1.09875;stroke-dasharray:1.09875, 1.09875;stroke-dashoffset:0"
       id="path398"
       transform="matrix(0.25556787,-0.03241106,0.0684792,0.12095974,-13.40244,28.873273)"
       sodipodi:type="arc"
       sodipodi:cx="436.85654"
       sodipodi:cy="256.1488"
       sodipodi:rx="148.2505"
       sodipodi:ry="148.2505"
       sodipodi:start="0"
       sodipodi:end="0.083740881"
       sodipodi:arc-type="arc"
       d="m 585.10704,256.1488 a 148.2505,148.2505 0 0 1 -0.5195,12.40013"
       sodipodi:open="true" />
    <path
       style="fill:none;stroke:#000000;stroke-width:0.755906;stroke-dasharray:0.755906, 0.755906;stroke-dashoffset:0"
       d="M 596.57803,145.14466 V 130.9944"
       id="path1762"
       transform="matrix(0.26458333,0,0,0.26458333,1.1330282,1.6754372)"
       sodipodi:nodetypes="cc" />
    <path
       style="fill:none;stroke:#000000;stroke-width:0.755906"
       d="M 596.57803,145.14466 V 131.10252"
       id="path1764"
       transform="matrix(0.26458333,0,0,0.26458333,2.0349245,3.5607132)"
       sodipodi:nodetypes="cc" />
    <path
       style="fill:none;stroke:#000000;stroke-width:0.480471;stroke-dasharray:none"
       d="m 557.43495,146.74081 12.90333,-2.79727"
       transform="matrix(0.41625793,0,0,0.41625793,-78.430203,-23.583269)"
       id="path11581" />
    <path
       style="fill:none;stroke:#999999;stroke-width:0.480471;stroke-dasharray:none"
       d="m 466.57399,166.43827 90.86096,-19.69746"
       transform="matrix(0.41625793,0,0,0.41625793,-78.430203,-23.583269)"
       id="path1784" />
    <path
       style="fill:none;stroke:#000000;stroke-width:0.463554;stroke-dasharray:none"
       d="m 558.72867,162.45933 12.70896,-1.07634"
       transform="matrix(0.43144902,0,0,0.43144902,-86.66668,-27.664964)"
       id="path11573" />
    <path
       style="fill:none;stroke:#999999;stroke-width:0.463554;stroke-dasharray:none"
       d="m 469.23649,170.03849 89.49218,-7.57916"
       transform="matrix(0.43144902,0,0,0.43144902,-86.66668,-27.664964)"
       id="path1888" />
    <path
       style="fill:none;stroke:#000000;stroke-width:0.755906;stroke-dasharray:none"
       d="M 583.54491,160.35762 V 148.06165"
       id="path1890"
       transform="scale(0.26458333)" />
    <path
       style="fill:none;stroke:#000000;stroke-width:0.755906;stroke-dasharray:0.755906, 0.755906;stroke-dashoffset:0"
       d="M 580.56006,154.11823 V 141.72759"
       id="path1892"
       transform="scale(0.26458333)" />
    <path
       style="fill:none;stroke:#000000;stroke-width:1.09875;stroke-dasharray:1.09875, 1.09875;stroke-dashoffset:0"
       id="circle1896"
       transform="matrix(0.25556787,-0.03241106,0.0684792,0.12095974,-13.40244,28.873273)"
       sodipodi:type="arc"
       sodipodi:cx="436.85654"
       sodipodi:cy="256.1488"
       sodipodi:rx="169.30383"
       sodipodi:ry="169.30383"
       sodipodi:start="6.271275"
       sodipodi:end="0.07972226"
       sodipodi:arc-type="arc"
       d="m 606.14836,254.13239 a 169.30383,169.30383 0 0 1 -0.52572,15.49941"
       sodipodi:open="true" />
    <path
       style="fill:none;stroke:#000000;stroke-width:0.755906"
       id="circle1900"
       transform="matrix(0.25556787,-0.03241106,0.0684792,0.12095974,-13.468911,25.479004)"
       sodipodi:type="arc"
       sodipodi:cx="436.85654"
       sodipodi:cy="256.1488"
       sodipodi:rx="148.2505"
       sodipodi:ry="148.2505"
       sodipodi:start="0"
       sodipodi:end="0.093253595"
       sodipodi:arc-type="arc"
       d="m 585.10704,256.1488 a 148.2505,148.2505 0 0 1 -0.64414,13.80487"
       sodipodi:open="true" />
    <path
       style="fill:none;stroke:#000000;stroke-width:0.755906"
       id="circle1902"
       transform="matrix(0.25556787,-0.03241106,0.0684792,0.12095974,-13.47835,24.996979)"
       sodipodi:type="arc"
       sodipodi:cx="436.85654"
       sodipodi:cy="256.1488"
       sodipodi:rx="169.30383"
       sodipodi:ry="169.30383"
       sodipodi:start="6.2802158"
       sodipodi:end="0.094081835"
       sodipodi:arc-type="arc"
       d="m 606.15962,255.64606 a 169.30383,169.30383 0 0 1 -0.74798,16.40767"
       sodipodi:open="true" />
    <path
       style="fill:none;stroke:#000000;stroke-width:0.483688;stroke-dasharray:0.483688, 0.483688;stroke-dashoffset:0"
       d="m 558.47613,156.99151 12.98973,-1.69005"
       transform="matrix(0.41348946,0,0,0.41348946,-77.317479,-24.137221)"
       id="path11577" />
    <path
       style="fill:none;stroke:#999999;stroke-width:0.483688;stroke-dasharray:0.483688, 0.483688;stroke-dashoffset:0"
       d="m 467.00691,168.89232 91.46922,-11.90081"
       transform="matrix(0.41348946,0,0,0.41348946,-77.317479,-24.137221)"
       id="path2630" />
    <path
       style="fill:none;stroke:#000000;stroke-width:0.521868;stroke-dasharray:none"
       d="m 564.15953,151.43307 14.29702,-2.40459"
       transform="matrix(0.38323843,0,0,0.38323843,-61.811356,-18.830949)"
       id="path11587" />
    <path
       style="fill:none;stroke:#999999;stroke-width:0.521868;stroke-dasharray:none"
       d="M 463.40945,168.37801 564.15953,151.43307"
       transform="matrix(0.38323843,0,0,0.38323843,-61.811356,-18.830949)"
       id="path2632" />
    <g
       transform="matrix(0.352778,0,0,0.352778,157.15871,32.220284)"
       ns2:version="1.8.2"
       ns2:texconverter="pdflatex"
       ns2:pdfconverter="inkscape"
       ns2:text="$\\text{d}V$"
       ns2:preamble="/Users/hendrik/Library/Application Support/org.inkscape.Inkscape/config/inkscape/extensions/textext/default_packages.tex"
       ns2:scale="1.0000000850393187"
       ns2:alignment="middle center"
       ns2:stroke-to-path="0"
       ns2:inkscapeversion="1.2.2"
       ns2:jacobian_sqrt="0.352778"
       id="g3504"
       style="fill:#ff00ff">
      <defs
         id="id-ef5d0e04-320a-46b1-a215-252fc89faa4b">
        <g
           id="id-41c0cf4d-e1aa-470d-b3a4-b3dd193f8325">
          <g
             id="id-2efffcbe-e82d-4b5f-918b-e13e4f6a18f6" />
          <g
             id="id-6a4f71a9-25a6-4440-97e5-079431fc55c3">
            <path
               d="m 3.78125,-0.546875 v 0.65625 L 5.25,0 v -0.3125 c -0.6875,0 -0.78125,-0.0625 -0.78125,-0.5625 V -6.921875 L 3.046875,-6.8125 V -6.5 c 0.6875,0 0.765625,0.0625 0.765625,0.5625 v 2.15625 c -0.28125,-0.359375 -0.71875,-0.625 -1.25,-0.625 -1.171875,0 -2.21875,0.984375 -2.21875,2.265625 0,1.265625 0.96875,2.25 2.109375,2.25 0.640625,0 1.078125,-0.34375 1.328125,-0.65625 z m 0,-2.671875 v 2.046875 c 0,0.171875 0,0.1875 -0.109375,0.359375 C 3.375,-0.328125 2.9375,-0.109375 2.5,-0.109375 2.046875,-0.109375 1.6875,-0.375 1.453125,-0.75 1.203125,-1.15625 1.171875,-1.71875 1.171875,-2.140625 1.171875,-2.5 1.1875,-3.09375 1.46875,-3.546875 1.6875,-3.859375 2.0625,-4.1875 2.609375,-4.1875 c 0.34375,0 0.765625,0.15625 1.0625,0.59375 0.109375,0.171875 0.109375,0.1875 0.109375,0.375 z m 0,0"
               id="id-73c2ed04-a1c5-44d2-9ae0-409e5bf158b7" />
          </g>
          <g
             id="id-685292a9-4a34-4ce4-978e-6564a33e2cd5" />
          <g
             id="id-ea52aba5-262e-49a4-aeeb-d5cb1c9c3a5f">
            <path
               d="M 6.265625,-5.671875 C 6.75,-6.453125 7.171875,-6.484375 7.53125,-6.5 c 0.125,-0.015625 0.140625,-0.171875 0.140625,-0.1875 0,-0.078125 -0.0625,-0.125 -0.140625,-0.125 -0.25,0 -0.546875,0.03125 -0.8125,0.03125 -0.328125,0 -0.671875,-0.03125 -0.984375,-0.03125 -0.0625,0 -0.1875,0 -0.1875,0.1875 0,0.109375 0.078125,0.125 0.15625,0.125 0.265625,0.015625 0.453125,0.125 0.453125,0.328125 0,0.15625 -0.140625,0.375 -0.140625,0.375 l -3.0625,4.875 -0.6875,-5.28125 C 2.265625,-6.375 2.5,-6.5 2.953125,-6.5 c 0.140625,0 0.25,0 0.25,-0.203125 0,-0.078125 -0.078125,-0.109375 -0.125,-0.109375 -0.40625,0 -0.828125,0.03125 -1.25,0.03125 -0.171875,0 -0.359375,0 -0.546875,0 -0.171875,0 -0.359375,-0.03125 -0.53125,-0.03125 -0.078125,0 -0.1875,0 -0.1875,0.1875 0,0.125 0.078125,0.125 0.25,0.125 0.546875,0 0.5625,0.09375 0.59375,0.34375 L 2.1875,-0.015625 C 2.21875,0.1875 2.265625,0.21875 2.390625,0.21875 c 0.15625,0 0.203125,-0.046875 0.28125,-0.171875 z m 0,0"
               id="id-faeda6ea-e697-46a4-b3f7-c8f9306013af" />
          </g>
        </g>
      </defs>
      <g
         fill="#000000"
         fill-opacity="1"
         id="id-91c23c7a-766a-4edf-97a3-06f798624657"
         transform="translate(-149.056,-127.843)"
         style="fill:#ff00ff">
        <g
           transform="translate(148.712,134.765)"
           id="g3497"
           style="fill:#ff00ff">
          <path
             d="m 3.78125,-0.546875 v 0.65625 L 5.25,0 v -0.3125 c -0.6875,0 -0.78125,-0.0625 -0.78125,-0.5625 V -6.921875 L 3.046875,-6.8125 V -6.5 c 0.6875,0 0.765625,0.0625 0.765625,0.5625 v 2.15625 c -0.28125,-0.359375 -0.71875,-0.625 -1.25,-0.625 -1.171875,0 -2.21875,0.984375 -2.21875,2.265625 0,1.265625 0.96875,2.25 2.109375,2.25 0.640625,0 1.078125,-0.34375 1.328125,-0.65625 z m 0,-2.671875 v 2.046875 c 0,0.171875 0,0.1875 -0.109375,0.359375 C 3.375,-0.328125 2.9375,-0.109375 2.5,-0.109375 2.046875,-0.109375 1.6875,-0.375 1.453125,-0.75 1.203125,-1.15625 1.171875,-1.71875 1.171875,-2.140625 1.171875,-2.5 1.1875,-3.09375 1.46875,-3.546875 1.6875,-3.859375 2.0625,-4.1875 2.609375,-4.1875 c 0.34375,0 0.765625,0.15625 1.0625,0.59375 0.109375,0.171875 0.109375,0.1875 0.109375,0.375 z m 0,0"
             id="id-54d61a6f-ccc6-4c6f-bd57-807d76314f8d"
             style="fill:#ff00ff" />
        </g>
      </g>
      <g
         fill="#000000"
         fill-opacity="1"
         id="id-76060c46-8bf6-45e6-80fe-522a83f73baf"
         transform="translate(-149.056,-127.843)"
         style="fill:#ff00ff">
        <g
           transform="translate(154.247,134.765)"
           id="g3501"
           style="fill:#ff00ff">
          <path
             d="M 6.265625,-5.671875 C 6.75,-6.453125 7.171875,-6.484375 7.53125,-6.5 c 0.125,-0.015625 0.140625,-0.171875 0.140625,-0.1875 0,-0.078125 -0.0625,-0.125 -0.140625,-0.125 -0.25,0 -0.546875,0.03125 -0.8125,0.03125 -0.328125,0 -0.671875,-0.03125 -0.984375,-0.03125 -0.0625,0 -0.1875,0 -0.1875,0.1875 0,0.109375 0.078125,0.125 0.15625,0.125 0.265625,0.015625 0.453125,0.125 0.453125,0.328125 0,0.15625 -0.140625,0.375 -0.140625,0.375 l -3.0625,4.875 -0.6875,-5.28125 C 2.265625,-6.375 2.5,-6.5 2.953125,-6.5 c 0.140625,0 0.25,0 0.25,-0.203125 0,-0.078125 -0.078125,-0.109375 -0.125,-0.109375 -0.40625,0 -0.828125,0.03125 -1.25,0.03125 -0.171875,0 -0.359375,0 -0.546875,0 -0.171875,0 -0.359375,-0.03125 -0.53125,-0.03125 -0.078125,0 -0.1875,0 -0.1875,0.1875 0,0.125 0.078125,0.125 0.25,0.125 0.546875,0 0.5625,0.09375 0.59375,0.34375 L 2.1875,-0.015625 C 2.21875,0.1875 2.265625,0.21875 2.390625,0.21875 c 0.15625,0 0.203125,-0.046875 0.28125,-0.171875 z m 0,0"
             id="id-0e480472-9533-4f21-9b25-fac1b1c3636f"
             style="fill:#ff00ff" />
        </g>
      </g>
    </g>
    <path
       style="opacity:1;fill:#ff00ff;stroke:#ff0000;stroke-width:0.371693;stroke-dasharray:none;stroke-dashoffset:0"
       d="M 438.82085,172.61442 583.34731,160.37435"
       id="path5853"
       transform="matrix(0.26903899,0,0,0.26903899,-2.0923694,0.8825605)"
       sodipodi:nodetypes="cc" />
    <path
       style="opacity:1;fill:none;stroke:#ff0000;stroke-width:0.377953;stroke-dasharray:none;stroke-dashoffset:0"
       d="m 442.69028,182.72347 h 3.7649 v 3.76491"
       id="path5855"
       transform="matrix(-0.20220949,-0.17063312,0.17063312,-0.20220949,175.02874,160.53779)"
       inkscape:transform-center-x="-0.38065211"
       inkscape:transform-center-y="-0.05944184" />
    <path
       style="fill:none;stroke:#ff0000;stroke-width:0.377953;stroke-dasharray:none;stroke-dashoffset:0"
       d="m 442.69028,182.72347 h 3.7649 v 3.76491"
       id="path5855-3"
       transform="matrix(0.20220897,0.17063374,-0.17063374,0.20220897,95.752348,-69.099128)"
       inkscape:transform-center-x="0.38064892"
       inkscape:transform-center-y="0.059439663" />
    <g
       transform="matrix(0.352778,0,0,0.352778,135.39807,46.662734)"
       ns2:version="1.8.2"
       ns2:texconverter="pdflatex"
       ns2:pdfconverter="inkscape"
       ns2:text="$r$"
       ns2:preamble="/Users/hendrik/Library/Application Support/org.inkscape.Inkscape/config/inkscape/extensions/textext/default_packages.tex"
       ns2:scale="1.0000000850393187"
       ns2:alignment="middle center"
       ns2:stroke-to-path="0"
       ns2:inkscapeversion="1.2.2"
       ns2:jacobian_sqrt="0.352778"
       id="g5960"
       style="fill:#ff0000">
      <defs
         id="id-e5b49664-a325-46da-b1e9-a37842854637">
        <g
           id="id-104d2802-4512-41b2-bd79-09818da12edf">
          <g
             id="id-dcf6ae01-ff8d-4acf-ac25-451caa43b48c" />
          <g
             id="id-bd38755c-c7ed-43cc-ba09-7cc43d47ce78">
            <path
               d="m 0.875,-0.59375 c -0.03125,0.15625 -0.09375,0.390625 -0.09375,0.4375 0,0.171875 0.140625,0.265625 0.296875,0.265625 0.125,0 0.296875,-0.078125 0.375,-0.28125 C 1.46875,-0.203125 1.796875,-1.5625 1.84375,-1.75 c 0.078125,-0.328125 0.265625,-1.015625 0.3125,-1.296875 0.046875,-0.125 0.328125,-0.59375 0.5625,-0.8125 0.078125,-0.0625 0.375,-0.328125 0.796875,-0.328125 0.265625,0 0.40625,0.125 0.421875,0.125 -0.296875,0.046875 -0.515625,0.28125 -0.515625,0.546875 0,0.15625 0.109375,0.34375 0.375,0.34375 0.265625,0 0.546875,-0.234375 0.546875,-0.59375 0,-0.34375 -0.3125,-0.640625 -0.828125,-0.640625 C 2.875,-4.40625 2.4375,-3.921875 2.25,-3.640625 2.15625,-4.09375 1.796875,-4.40625 1.328125,-4.40625 0.875,-4.40625 0.6875,-4.015625 0.59375,-3.84375 0.421875,-3.5 0.296875,-2.90625 0.296875,-2.875 c 0,0.109375 0.09375,0.109375 0.109375,0.109375 0.109375,0 0.109375,-0.015625 0.171875,-0.234375 0.171875,-0.703125 0.375,-1.1875 0.734375,-1.1875 0.15625,0 0.296875,0.078125 0.296875,0.453125 0,0.21875 -0.03125,0.328125 -0.15625,0.84375 z m 0,0"
               id="id-7ed74fa3-2432-4384-ba59-ffbbc7393087" />
          </g>
        </g>
      </defs>
      <g
         fill="#000000"
         fill-opacity="1"
         id="id-c6a469a9-53cf-4f87-b486-8bb4f1694620"
         transform="translate(-149.009,-130.359)"
         style="fill:#ff0000">
        <g
           transform="translate(148.712,134.765)"
           id="g5957"
           style="fill:#ff0000">
          <path
             d="m 0.875,-0.59375 c -0.03125,0.15625 -0.09375,0.390625 -0.09375,0.4375 0,0.171875 0.140625,0.265625 0.296875,0.265625 0.125,0 0.296875,-0.078125 0.375,-0.28125 C 1.46875,-0.203125 1.796875,-1.5625 1.84375,-1.75 c 0.078125,-0.328125 0.265625,-1.015625 0.3125,-1.296875 0.046875,-0.125 0.328125,-0.59375 0.5625,-0.8125 0.078125,-0.0625 0.375,-0.328125 0.796875,-0.328125 0.265625,0 0.40625,0.125 0.421875,0.125 -0.296875,0.046875 -0.515625,0.28125 -0.515625,0.546875 0,0.15625 0.109375,0.34375 0.375,0.34375 0.265625,0 0.546875,-0.234375 0.546875,-0.59375 0,-0.34375 -0.3125,-0.640625 -0.828125,-0.640625 C 2.875,-4.40625 2.4375,-3.921875 2.25,-3.640625 2.15625,-4.09375 1.796875,-4.40625 1.328125,-4.40625 0.875,-4.40625 0.6875,-4.015625 0.59375,-3.84375 0.421875,-3.5 0.296875,-2.90625 0.296875,-2.875 c 0,0.109375 0.09375,0.109375 0.109375,0.109375 0.109375,0 0.109375,-0.015625 0.171875,-0.234375 0.171875,-0.703125 0.375,-1.1875 0.734375,-1.1875 0.15625,0 0.296875,0.078125 0.296875,0.453125 0,0.21875 -0.03125,0.328125 -0.15625,0.84375 z m 0,0"
             id="id-e5e4c8d8-32cc-4d4e-9852-20c67dce75d6"
             style="fill:#ff0000" />
        </g>
      </g>
    </g>
    <path
       style="opacity:1;fill:#ff0000;stroke:#800000;stroke-width:0.377953;stroke-dasharray:none;stroke-dashoffset:0"
       d="m 583.54396,160.3577 20.72512,-1.75523"
       id="path6027"
       transform="matrix(0.26458333,0,0,0.26458333,0.45479754,1.6015394)" />
    <path
       style="fill:none;stroke:#800000;stroke-width:0.377953;stroke-dasharray:none;stroke-dashoffset:0"
       d="m 442.69028,182.72347 h 3.7649 v 3.76491"
       id="path6029"
       transform="matrix(-0.20220937,-0.17063327,0.17063327,-0.20220937,213.94952,157.15802)"
       inkscape:transform-center-x="-0.38065087"
       inkscape:transform-center-y="-0.059443374" />
    <path
       style="fill:none;stroke:#800000;stroke-width:0.377953;stroke-dasharray:none;stroke-dashoffset:0"
       d="m 442.69028,182.72347 h 3.7649 v 3.76491"
       id="path6031"
       transform="matrix(0.20220948,0.17063313,-0.17063313,0.20220948,101.23553,-69.563354)"
       inkscape:transform-center-x="0.38064772"
       inkscape:transform-center-y="0.059441624" />
    <g
       transform="matrix(0.352778,0,0,0.352778,156.34225,44.556311)"
       ns2:version="1.8.2"
       ns2:texconverter="pdflatex"
       ns2:pdfconverter="inkscape"
       ns2:text="$\\text{d}r$"
       ns2:preamble="/Users/hendrik/Library/Application Support/org.inkscape.Inkscape/config/inkscape/extensions/textext/default_packages.tex"
       ns2:scale="1.0000000850393187"
       ns2:alignment="middle center"
       ns2:stroke-to-path="0"
       ns2:inkscapeversion="1.2.2"
       ns2:jacobian_sqrt="0.352778"
       id="g6194"
       style="fill:#800000">
      <defs
         id="id-62e6add2-8e4a-48ff-9c08-2355e73e774d">
        <g
           id="id-0427924f-2e90-436a-9876-eae311237d7e">
          <g
             id="id-747ca3a8-6c4d-467c-a41f-c0af891faf73" />
          <g
             id="id-933079cf-1b83-436d-bd25-51414c2e95d1">
            <path
               d="m 3.78125,-0.546875 v 0.65625 L 5.25,0 v -0.3125 c -0.6875,0 -0.78125,-0.0625 -0.78125,-0.5625 V -6.921875 L 3.046875,-6.8125 V -6.5 c 0.6875,0 0.765625,0.0625 0.765625,0.5625 v 2.15625 c -0.28125,-0.359375 -0.71875,-0.625 -1.25,-0.625 -1.171875,0 -2.21875,0.984375 -2.21875,2.265625 0,1.265625 0.96875,2.25 2.109375,2.25 0.640625,0 1.078125,-0.34375 1.328125,-0.65625 z m 0,-2.671875 v 2.046875 c 0,0.171875 0,0.1875 -0.109375,0.359375 C 3.375,-0.328125 2.9375,-0.109375 2.5,-0.109375 2.046875,-0.109375 1.6875,-0.375 1.453125,-0.75 1.203125,-1.15625 1.171875,-1.71875 1.171875,-2.140625 1.171875,-2.5 1.1875,-3.09375 1.46875,-3.546875 1.6875,-3.859375 2.0625,-4.1875 2.609375,-4.1875 c 0.34375,0 0.765625,0.15625 1.0625,0.59375 0.109375,0.171875 0.109375,0.1875 0.109375,0.375 z m 0,0"
               id="id-27d93cd5-4636-42cf-a786-95e2b119b0ba" />
          </g>
          <g
             id="id-2045e1dd-9a47-414d-a48e-b35e311529f2" />
          <g
             id="id-79ced4d7-8d3e-4211-9908-0087cfec4db5">
            <path
               d="m 0.875,-0.59375 c -0.03125,0.15625 -0.09375,0.390625 -0.09375,0.4375 0,0.171875 0.140625,0.265625 0.296875,0.265625 0.125,0 0.296875,-0.078125 0.375,-0.28125 C 1.46875,-0.203125 1.796875,-1.5625 1.84375,-1.75 c 0.078125,-0.328125 0.265625,-1.015625 0.3125,-1.296875 0.046875,-0.125 0.328125,-0.59375 0.5625,-0.8125 0.078125,-0.0625 0.375,-0.328125 0.796875,-0.328125 0.265625,0 0.40625,0.125 0.421875,0.125 -0.296875,0.046875 -0.515625,0.28125 -0.515625,0.546875 0,0.15625 0.109375,0.34375 0.375,0.34375 0.265625,0 0.546875,-0.234375 0.546875,-0.59375 0,-0.34375 -0.3125,-0.640625 -0.828125,-0.640625 C 2.875,-4.40625 2.4375,-3.921875 2.25,-3.640625 2.15625,-4.09375 1.796875,-4.40625 1.328125,-4.40625 0.875,-4.40625 0.6875,-4.015625 0.59375,-3.84375 0.421875,-3.5 0.296875,-2.90625 0.296875,-2.875 c 0,0.109375 0.09375,0.109375 0.109375,0.109375 0.109375,0 0.109375,-0.015625 0.171875,-0.234375 0.171875,-0.703125 0.375,-1.1875 0.734375,-1.1875 0.15625,0 0.296875,0.078125 0.296875,0.453125 0,0.21875 -0.03125,0.328125 -0.15625,0.84375 z m 0,0"
               id="id-f7140b99-f783-4859-8160-1956979e4645" />
          </g>
        </g>
      </defs>
      <g
         fill="#000000"
         fill-opacity="1"
         id="id-62e5bfb8-7067-4d6e-822a-21c478818a38"
         transform="translate(-149.056,-127.843)"
         style="fill:#800000">
        <g
           transform="translate(148.712,134.765)"
           id="g6187"
           style="fill:#800000">
          <path
             d="m 3.78125,-0.546875 v 0.65625 L 5.25,0 v -0.3125 c -0.6875,0 -0.78125,-0.0625 -0.78125,-0.5625 V -6.921875 L 3.046875,-6.8125 V -6.5 c 0.6875,0 0.765625,0.0625 0.765625,0.5625 v 2.15625 c -0.28125,-0.359375 -0.71875,-0.625 -1.25,-0.625 -1.171875,0 -2.21875,0.984375 -2.21875,2.265625 0,1.265625 0.96875,2.25 2.109375,2.25 0.640625,0 1.078125,-0.34375 1.328125,-0.65625 z m 0,-2.671875 v 2.046875 c 0,0.171875 0,0.1875 -0.109375,0.359375 C 3.375,-0.328125 2.9375,-0.109375 2.5,-0.109375 2.046875,-0.109375 1.6875,-0.375 1.453125,-0.75 1.203125,-1.15625 1.171875,-1.71875 1.171875,-2.140625 1.171875,-2.5 1.1875,-3.09375 1.46875,-3.546875 1.6875,-3.859375 2.0625,-4.1875 2.609375,-4.1875 c 0.34375,0 0.765625,0.15625 1.0625,0.59375 0.109375,0.171875 0.109375,0.1875 0.109375,0.375 z m 0,0"
             id="id-3da7d477-d624-4c1f-ae91-e0cfd26a5534"
             style="fill:#800000" />
        </g>
      </g>
      <g
         fill="#000000"
         fill-opacity="1"
         id="id-5b347692-c4f4-4eb2-9a2d-e0c8a7bf4baa"
         transform="translate(-149.056,-127.843)"
         style="fill:#800000">
        <g
           transform="translate(154.247,134.765)"
           id="g6191"
           style="fill:#800000">
          <path
             d="m 0.875,-0.59375 c -0.03125,0.15625 -0.09375,0.390625 -0.09375,0.4375 0,0.171875 0.140625,0.265625 0.296875,0.265625 0.125,0 0.296875,-0.078125 0.375,-0.28125 C 1.46875,-0.203125 1.796875,-1.5625 1.84375,-1.75 c 0.078125,-0.328125 0.265625,-1.015625 0.3125,-1.296875 0.046875,-0.125 0.328125,-0.59375 0.5625,-0.8125 0.078125,-0.0625 0.375,-0.328125 0.796875,-0.328125 0.265625,0 0.40625,0.125 0.421875,0.125 -0.296875,0.046875 -0.515625,0.28125 -0.515625,0.546875 0,0.15625 0.109375,0.34375 0.375,0.34375 0.265625,0 0.546875,-0.234375 0.546875,-0.59375 0,-0.34375 -0.3125,-0.640625 -0.828125,-0.640625 C 2.875,-4.40625 2.4375,-3.921875 2.25,-3.640625 2.15625,-4.09375 1.796875,-4.40625 1.328125,-4.40625 0.875,-4.40625 0.6875,-4.015625 0.59375,-3.84375 0.421875,-3.5 0.296875,-2.90625 0.296875,-2.875 c 0,0.109375 0.09375,0.109375 0.109375,0.109375 0.109375,0 0.109375,-0.015625 0.171875,-0.234375 0.171875,-0.703125 0.375,-1.1875 0.734375,-1.1875 0.15625,0 0.296875,0.078125 0.296875,0.453125 0,0.21875 -0.03125,0.328125 -0.15625,0.84375 z m 0,0"
             id="id-b9617a46-3823-46c2-8055-d8502d988e79"
             style="fill:#800000" />
        </g>
      </g>
    </g>
    <path
       style="fill:none;stroke:#00ff00;stroke-width:0.755906"
       id="circle6329"
       transform="matrix(0.16195655,-0.02053929,0.04339612,0.0766537,33.917276,35.035954)"
       sodipodi:type="arc"
       sodipodi:cx="436.85654"
       sodipodi:cy="256.1488"
       sodipodi:rx="148.2505"
       sodipodi:ry="148.2505"
       sodipodi:start="6.2741588"
       sodipodi:end="0.082030916"
       sodipodi:arc-type="arc"
       d="m 585.101,254.81064 a 148.2505,148.2505 0 0 1 -0.49247,13.48565"
       sodipodi:open="true" />
    <g
       transform="matrix(0.352778,0,0,0.352778,134.107,37.5127)"
       ns2:version="1.8.2"
       ns2:texconverter="pdflatex"
       ns2:pdfconverter="inkscape"
       ns2:text="$\\text{d}\\varphi$"
       ns2:preamble="/Users/hendrik/Library/Application Support/org.inkscape.Inkscape/config/inkscape/extensions/textext/default_packages.tex"
       ns2:scale="1.0000000850393187"
       ns2:alignment="middle center"
       ns2:stroke-to-path="0"
       ns2:inkscapeversion="1.2.2"
       ns2:jacobian_sqrt="0.352778"
       style="fill:#00ff00;stroke-width:0"
       id="g6399">
      <defs
         id="id-722129df-7405-494e-b46b-0d8a3e934639"
         style="fill:#ff0000;stroke-width:0">
        <g
           id="id-951d7d6a-c4b9-4ade-9174-e687769d261a"
           style="fill:#ff0000;stroke-width:0">
          <g
             id="id-df5561f4-6a4f-40df-9a91-01bbe935d7ab"
             style="fill:#ff0000;stroke-width:0" />
          <g
             id="id-34442215-277b-4964-b53f-13f87c2e0de4"
             style="fill:#ff0000;stroke-width:0">
            <path
               d="m 3.78125,-0.546875 v 0.65625 L 5.25,0 v -0.3125 c -0.6875,0 -0.78125,-0.0625 -0.78125,-0.5625 V -6.921875 L 3.046875,-6.8125 V -6.5 c 0.6875,0 0.765625,0.0625 0.765625,0.5625 v 2.15625 c -0.28125,-0.359375 -0.71875,-0.625 -1.25,-0.625 -1.171875,0 -2.21875,0.984375 -2.21875,2.265625 0,1.265625 0.96875,2.25 2.109375,2.25 0.640625,0 1.078125,-0.34375 1.328125,-0.65625 z m 0,-2.671875 v 2.046875 c 0,0.171875 0,0.1875 -0.109375,0.359375 C 3.375,-0.328125 2.9375,-0.109375 2.5,-0.109375 2.046875,-0.109375 1.6875,-0.375 1.453125,-0.75 1.203125,-1.15625 1.171875,-1.71875 1.171875,-2.140625 1.171875,-2.5 1.1875,-3.09375 1.46875,-3.546875 1.6875,-3.859375 2.0625,-4.1875 2.609375,-4.1875 c 0.34375,0 0.765625,0.15625 1.0625,0.59375 0.109375,0.171875 0.109375,0.1875 0.109375,0.375 z m 0,0"
               id="id-275666f5-ac5e-49a4-824c-e13cacda68d1"
               style="fill:#ff0000;stroke-width:0" />
          </g>
          <g
             id="id-445cde4e-0c81-4d29-8c42-6ebff5606d19"
             style="fill:#ff0000;stroke-width:0" />
          <g
             id="id-92501f16-577e-4057-99c6-6741fdeb6fd5"
             style="fill:#ff0000;stroke-width:0">
            <path
               d="M 1.6875,1.6875 C 1.65625,1.828125 1.640625,1.84375 1.640625,1.890625 c 0,0.21875 0.1875,0.28125 0.296875,0.28125 0.046875,0 0.265625,-0.03125 0.359375,-0.265625 C 2.328125,1.828125 2.375,1.5 2.65625,0.09375 c 0.078125,0 0.15625,0.015625 0.328125,0.015625 1.65625,0 3.1875,-1.5625 3.1875,-3.140625 0,-0.78125 -0.390625,-1.375 -1.140625,-1.375 -1.4375,0 -2.046875,1.9375 -2.640625,3.875 C 1.3125,-0.734375 0.75,-1.28125 0.75,-2 c 0,-0.28125 0.234375,-1.375 0.828125,-2.0625 0.09375,-0.09375 0.09375,-0.109375 0.09375,-0.140625 0,-0.03125 -0.03125,-0.09375 -0.125,-0.09375 -0.28125,0 -1.046875,1.453125 -1.046875,2.40625 0,0.9375 0.65625,1.65625 1.71875,1.90625 z m 1.390625,-2.15625 c -0.09375,0 -0.109375,0 -0.1875,-0.015625 -0.125,0 -0.125,0 -0.125,-0.03125 0,-0.015625 0.171875,-0.9375 0.1875,-1.078125 0.3125,-1.28125 1.09375,-2.234375 1.984375,-2.234375 0.6875,0 0.953125,0.53125 0.953125,1.015625 0,1.125 -1.28125,2.34375 -2.8125,2.34375 z m 0,0"
               id="id-a7232c05-90e3-4a63-893f-8964c915aa8d"
               style="fill:#ff0000;stroke-width:0" />
          </g>
        </g>
      </defs>
      <g
         fill-opacity="1"
         id="id-d148d0e4-ffb5-42d5-81be-11a1ca2c3553"
         transform="translate(-149.056,-127.843)"
         style="fill:#00ff00;stroke-width:0">
        <g
           transform="translate(148.712,134.765)"
           style="fill:#00ff00;stroke-width:0"
           id="g6705">
          <path
             d="m 3.78125,-0.546875 v 0.65625 L 5.25,0 v -0.3125 c -0.6875,0 -0.78125,-0.0625 -0.78125,-0.5625 V -6.921875 L 3.046875,-6.8125 V -6.5 c 0.6875,0 0.765625,0.0625 0.765625,0.5625 v 2.15625 c -0.28125,-0.359375 -0.71875,-0.625 -1.25,-0.625 -1.171875,0 -2.21875,0.984375 -2.21875,2.265625 0,1.265625 0.96875,2.25 2.109375,2.25 0.640625,0 1.078125,-0.34375 1.328125,-0.65625 z m 0,-2.671875 v 2.046875 c 0,0.171875 0,0.1875 -0.109375,0.359375 C 3.375,-0.328125 2.9375,-0.109375 2.5,-0.109375 2.046875,-0.109375 1.6875,-0.375 1.453125,-0.75 1.203125,-1.15625 1.171875,-1.71875 1.171875,-2.140625 1.171875,-2.5 1.1875,-3.09375 1.46875,-3.546875 1.6875,-3.859375 2.0625,-4.1875 2.609375,-4.1875 c 0.34375,0 0.765625,0.15625 1.0625,0.59375 0.109375,0.171875 0.109375,0.1875 0.109375,0.375 z m 0,0"
             id="id-22f66814-1d9d-40b5-b329-2d57bec403f2"
             style="fill:#00ff00;stroke-width:0" />
        </g>
      </g>
      <g
         fill-opacity="1"
         id="id-887358f7-5f9a-4d3e-999a-5af70b365f5c"
         transform="translate(-149.056,-127.843)"
         style="fill:#00ff00;stroke-width:0">
        <g
           transform="translate(154.247,134.765)"
           style="fill:#00ff00;stroke-width:0"
           id="g6709">
          <path
             d="M 1.6875,1.6875 C 1.65625,1.828125 1.640625,1.84375 1.640625,1.890625 c 0,0.21875 0.1875,0.28125 0.296875,0.28125 0.046875,0 0.265625,-0.03125 0.359375,-0.265625 C 2.328125,1.828125 2.375,1.5 2.65625,0.09375 c 0.078125,0 0.15625,0.015625 0.328125,0.015625 1.65625,0 3.1875,-1.5625 3.1875,-3.140625 0,-0.78125 -0.390625,-1.375 -1.140625,-1.375 -1.4375,0 -2.046875,1.9375 -2.640625,3.875 C 1.3125,-0.734375 0.75,-1.28125 0.75,-2 c 0,-0.28125 0.234375,-1.375 0.828125,-2.0625 0.09375,-0.09375 0.09375,-0.109375 0.09375,-0.140625 0,-0.03125 -0.03125,-0.09375 -0.125,-0.09375 -0.28125,0 -1.046875,1.453125 -1.046875,2.40625 0,0.9375 0.65625,1.65625 1.71875,1.90625 z m 1.390625,-2.15625 c -0.09375,0 -0.109375,0 -0.1875,-0.015625 -0.125,0 -0.125,0 -0.125,-0.03125 0,-0.015625 0.171875,-0.9375 0.1875,-1.078125 0.3125,-1.28125 1.09375,-2.234375 1.984375,-2.234375 0.6875,0 0.953125,0.53125 0.953125,1.015625 0,1.125 -1.28125,2.34375 -2.8125,2.34375 z m 0,0"
             id="id-a2016f46-83ce-4eec-87ec-8de7e7e5ec00"
             style="fill:#00ff00;stroke-width:0" />
        </g>
      </g>
    </g>
    <g
       transform="matrix(0.352778,0,0,0.352778,162.79436,38.533809)"
       ns2:version="1.8.2"
       ns2:texconverter="pdflatex"
       ns2:pdfconverter="inkscape"
       ns2:text="$\\text{d}z$"
       ns2:preamble="/Users/hendrik/Library/Application Support/org.inkscape.Inkscape/config/inkscape/extensions/textext/default_packages.tex"
       ns2:scale="1.0000000850393187"
       ns2:alignment="middle center"
       ns2:stroke-to-path="0"
       ns2:inkscapeversion="1.2.2"
       ns2:jacobian_sqrt="0.352778"
       style="fill:#0000ff;stroke:none;stroke-width:0"
       id="g9068">
      <defs
         id="id-5bf63800-10cc-4639-9685-fba62349b911"
         style="fill:#800000;stroke-width:0">
        <g
           id="id-3e396a05-24d3-408b-9992-8e1d2a256fde"
           style="fill:#800000;stroke-width:0">
          <g
             id="id-7d4dc245-bbd5-46b6-9ec6-b94294f25ab9"
             style="fill:#800000;stroke-width:0" />
          <g
             id="id-8ba0900b-ed26-4580-bc85-d281ca8813cc"
             style="fill:#800000;stroke-width:0">
            <path
               d="m 3.78125,-0.546875 v 0.65625 L 5.25,0 v -0.3125 c -0.6875,0 -0.78125,-0.0625 -0.78125,-0.5625 V -6.921875 L 3.046875,-6.8125 V -6.5 c 0.6875,0 0.765625,0.0625 0.765625,0.5625 v 2.15625 c -0.28125,-0.359375 -0.71875,-0.625 -1.25,-0.625 -1.171875,0 -2.21875,0.984375 -2.21875,2.265625 0,1.265625 0.96875,2.25 2.109375,2.25 0.640625,0 1.078125,-0.34375 1.328125,-0.65625 z m 0,-2.671875 v 2.046875 c 0,0.171875 0,0.1875 -0.109375,0.359375 C 3.375,-0.328125 2.9375,-0.109375 2.5,-0.109375 2.046875,-0.109375 1.6875,-0.375 1.453125,-0.75 1.203125,-1.15625 1.171875,-1.71875 1.171875,-2.140625 1.171875,-2.5 1.1875,-3.09375 1.46875,-3.546875 1.6875,-3.859375 2.0625,-4.1875 2.609375,-4.1875 c 0.34375,0 0.765625,0.15625 1.0625,0.59375 0.109375,0.171875 0.109375,0.1875 0.109375,0.375 z m 0,0"
               id="id-f6b9244e-f5b8-4bf8-8589-4f1efcce7b25"
               style="fill:#800000;stroke-width:0" />
          </g>
          <g
             id="id-6dda57f2-53b6-490f-896e-02b948bcb584"
             style="fill:#800000;stroke-width:0" />
          <g
             id="id-925dcb55-e6ed-4bdd-b950-ac7becce1c97"
             style="fill:#800000;stroke-width:0">
            <path
               d="m 1.328125,-0.828125 c 0.53125,-0.578125 0.828125,-0.828125 1.1875,-1.140625 0,0 0.609375,-0.53125 0.96875,-0.890625 C 4.4375,-3.78125 4.65625,-4.265625 4.65625,-4.3125 c 0,-0.09375 -0.09375,-0.09375 -0.109375,-0.09375 -0.078125,0 -0.09375,0.015625 -0.15625,0.109375 -0.296875,0.484375 -0.5,0.640625 -0.734375,0.640625 -0.25,0 -0.359375,-0.15625 -0.515625,-0.328125 -0.1875,-0.21875 -0.359375,-0.421875 -0.6875,-0.421875 -0.75,0 -1.203125,0.921875 -1.203125,1.140625 0,0.046875 0.03125,0.109375 0.109375,0.109375 0.09375,0 0.109375,-0.046875 0.140625,-0.109375 0.1875,-0.46875 0.765625,-0.46875 0.84375,-0.46875 0.203125,0 0.390625,0.0625 0.625,0.140625 0.40625,0.15625 0.515625,0.15625 0.765625,0.15625 -0.359375,0.421875 -1.1875,1.140625 -1.375,1.296875 l -0.90625,0.84375 C 0.78125,-0.625 0.421875,-0.0625 0.421875,0.015625 c 0,0.09375 0.109375,0.09375 0.125,0.09375 0.078125,0 0.09375,-0.015625 0.15625,-0.125 0.234375,-0.359375 0.53125,-0.625 0.859375,-0.625 0.21875,0 0.328125,0.09375 0.578125,0.375 0.15625,0.21875 0.34375,0.375 0.625,0.375 1,0 1.578125,-1.265625 1.578125,-1.53125 0,-0.046875 -0.046875,-0.109375 -0.125,-0.109375 -0.09375,0 -0.109375,0.0625 -0.140625,0.140625 C 3.84375,-0.75 3.203125,-0.5625 2.875,-0.5625 c -0.1875,0 -0.375,-0.0625 -0.578125,-0.125 -0.34375,-0.125 -0.5,-0.171875 -0.703125,-0.171875 -0.015625,0 -0.171875,0 -0.265625,0.03125 z m 0,0"
               id="id-06887cb1-9478-442b-9428-9e2188e4f791"
               style="fill:#800000;stroke-width:0" />
          </g>
        </g>
      </defs>
      <g
         fill-opacity="1"
         id="id-aa682e2a-3f53-40e0-b425-b599d0481cf5"
         transform="translate(-149.056,-127.843)"
         style="fill:#0000ff;stroke:none;stroke-width:0">
        <g
           transform="translate(148.712,134.765)"
           style="fill:#0000ff;stroke:none;stroke-width:0"
           id="g9252">
          <path
             d="m 3.78125,-0.546875 v 0.65625 L 5.25,0 v -0.3125 c -0.6875,0 -0.78125,-0.0625 -0.78125,-0.5625 V -6.921875 L 3.046875,-6.8125 V -6.5 c 0.6875,0 0.765625,0.0625 0.765625,0.5625 v 2.15625 c -0.28125,-0.359375 -0.71875,-0.625 -1.25,-0.625 -1.171875,0 -2.21875,0.984375 -2.21875,2.265625 0,1.265625 0.96875,2.25 2.109375,2.25 0.640625,0 1.078125,-0.34375 1.328125,-0.65625 z m 0,-2.671875 v 2.046875 c 0,0.171875 0,0.1875 -0.109375,0.359375 C 3.375,-0.328125 2.9375,-0.109375 2.5,-0.109375 2.046875,-0.109375 1.6875,-0.375 1.453125,-0.75 1.203125,-1.15625 1.171875,-1.71875 1.171875,-2.140625 1.171875,-2.5 1.1875,-3.09375 1.46875,-3.546875 1.6875,-3.859375 2.0625,-4.1875 2.609375,-4.1875 c 0.34375,0 0.765625,0.15625 1.0625,0.59375 0.109375,0.171875 0.109375,0.1875 0.109375,0.375 z m 0,0"
             id="id-78bc50f9-595d-44eb-9dd8-1fe762d47909"
             style="fill:#0000ff;stroke:none;stroke-width:0" />
        </g>
      </g>
      <g
         fill-opacity="1"
         id="id-b19c2ae7-5ce7-4773-a769-4bc4f099bc83"
         transform="translate(-149.056,-127.843)"
         style="fill:#0000ff;stroke:none;stroke-width:0">
        <g
           transform="translate(154.247,134.765)"
           style="fill:#0000ff;stroke:none;stroke-width:0"
           id="g9256">
          <path
             d="m 1.328125,-0.828125 c 0.53125,-0.578125 0.828125,-0.828125 1.1875,-1.140625 0,0 0.609375,-0.53125 0.96875,-0.890625 C 4.4375,-3.78125 4.65625,-4.265625 4.65625,-4.3125 c 0,-0.09375 -0.09375,-0.09375 -0.109375,-0.09375 -0.078125,0 -0.09375,0.015625 -0.15625,0.109375 -0.296875,0.484375 -0.5,0.640625 -0.734375,0.640625 -0.25,0 -0.359375,-0.15625 -0.515625,-0.328125 -0.1875,-0.21875 -0.359375,-0.421875 -0.6875,-0.421875 -0.75,0 -1.203125,0.921875 -1.203125,1.140625 0,0.046875 0.03125,0.109375 0.109375,0.109375 0.09375,0 0.109375,-0.046875 0.140625,-0.109375 0.1875,-0.46875 0.765625,-0.46875 0.84375,-0.46875 0.203125,0 0.390625,0.0625 0.625,0.140625 0.40625,0.15625 0.515625,0.15625 0.765625,0.15625 -0.359375,0.421875 -1.1875,1.140625 -1.375,1.296875 l -0.90625,0.84375 C 0.78125,-0.625 0.421875,-0.0625 0.421875,0.015625 c 0,0.09375 0.109375,0.09375 0.125,0.09375 0.078125,0 0.09375,-0.015625 0.15625,-0.125 0.234375,-0.359375 0.53125,-0.625 0.859375,-0.625 0.21875,0 0.328125,0.09375 0.578125,0.375 0.15625,0.21875 0.34375,0.375 0.625,0.375 1,0 1.578125,-1.265625 1.578125,-1.53125 0,-0.046875 -0.046875,-0.109375 -0.125,-0.109375 -0.09375,0 -0.109375,0.0625 -0.140625,0.140625 C 3.84375,-0.75 3.203125,-0.5625 2.875,-0.5625 c -0.1875,0 -0.375,-0.0625 -0.578125,-0.125 -0.34375,-0.125 -0.5,-0.171875 -0.703125,-0.171875 -0.015625,0 -0.171875,0 -0.265625,0.03125 z m 0,0"
             id="id-e5c03272-f139-49fb-8b85-c632df001a6f"
             style="fill:#0000ff;stroke:none;stroke-width:0" />
        </g>
      </g>
    </g>
    <path
       style="opacity:1;fill:#0000ff;stroke:#0000ff;stroke-width:0.377953;stroke-dasharray:none;stroke-dashoffset:0"
       d="m 604.25361,144.68974 0.0155,13.91273"
       id="path11743"
       transform="matrix(0.26458333,0,0,0.26458333,1.5875,0)" />
    <path
       style="fill:none;stroke:#0000ff;stroke-width:0.377953;stroke-dasharray:none;stroke-dashoffset:0"
       d="m 442.69028,182.72347 h 3.7649 v 3.76491"
       id="path11745"
       transform="matrix(0.18688,-0.18729711,0.18729711,0.18688,43.805811,87.754896)"
       inkscape:transform-center-x="-0.00078836288"
       inkscape:transform-center-y="0.35257665" />
    <path
       style="fill:none;stroke:#0000ff;stroke-width:0.377953;stroke-dasharray:none;stroke-dashoffset:0"
       d="m 442.69028,182.72347 h 3.7649 v 3.76491"
       id="path11747"
       transform="matrix(0.18688,0.18729711,0.18729711,-0.18688,43.807863,-7.5087765)"
       inkscape:transform-center-x="-0.00078836288"
       inkscape:transform-center-y="-0.35257647" />
    <g
       transform="matrix(0.352778,0,0,0.352778,148.866,39.498162)"
       ns2:version="1.8.2"
       ns2:texconverter="pdflatex"
       ns2:pdfconverter="inkscape"
       ns2:text="$\\text{d}A$"
       ns2:preamble="/Users/hendrik/Library/Application Support/org.inkscape.Inkscape/config/inkscape/extensions/textext/default_packages.tex"
       ns2:scale="1.0000000850393187"
       ns2:alignment="middle center"
       ns2:stroke-to-path="0"
       ns2:inkscapeversion="1.2.2"
       ns2:jacobian_sqrt="0.352778"
       style="fill:#800080;stroke-width:0"
       id="g16885">
      <defs
         id="id-81e0ae8c-e2a3-4754-9a88-02d64b77e269"
         style="fill:#ff00ff;stroke-width:0">
        <g
           id="id-bb615a34-b737-4280-af82-9e0793a8a139"
           style="fill:#ff00ff;stroke-width:0">
          <g
             id="id-604e9692-0c63-4f2c-89d2-dc11712f4132"
             style="fill:#ff00ff;stroke-width:0" />
          <g
             id="id-ecb82abf-16aa-41c7-be00-70ae0c614dd9"
             style="fill:#ff00ff;stroke-width:0">
            <path
               d="m 3.78125,-0.546875 v 0.65625 L 5.25,0 v -0.3125 c -0.6875,0 -0.78125,-0.0625 -0.78125,-0.5625 V -6.921875 L 3.046875,-6.8125 V -6.5 c 0.6875,0 0.765625,0.0625 0.765625,0.5625 v 2.15625 c -0.28125,-0.359375 -0.71875,-0.625 -1.25,-0.625 -1.171875,0 -2.21875,0.984375 -2.21875,2.265625 0,1.265625 0.96875,2.25 2.109375,2.25 0.640625,0 1.078125,-0.34375 1.328125,-0.65625 z m 0,-2.671875 v 2.046875 c 0,0.171875 0,0.1875 -0.109375,0.359375 C 3.375,-0.328125 2.9375,-0.109375 2.5,-0.109375 2.046875,-0.109375 1.6875,-0.375 1.453125,-0.75 1.203125,-1.15625 1.171875,-1.71875 1.171875,-2.140625 1.171875,-2.5 1.1875,-3.09375 1.46875,-3.546875 1.6875,-3.859375 2.0625,-4.1875 2.609375,-4.1875 c 0.34375,0 0.765625,0.15625 1.0625,0.59375 0.109375,0.171875 0.109375,0.1875 0.109375,0.375 z m 0,0"
               id="id-edd13e77-895b-4f9a-a4ae-dccd7ba25e6d"
               style="fill:#ff00ff;stroke-width:0" />
          </g>
          <g
             id="id-8e45a771-fb94-4680-9cf9-6e0adb11b1e3"
             style="fill:#ff00ff;stroke-width:0" />
          <g
             id="id-8d04068b-9237-4977-b4ff-0ba68162bd4f"
             style="fill:#ff00ff;stroke-width:0">
            <path
               d="M 1.78125,-1.140625 C 1.390625,-0.484375 1,-0.34375 0.5625,-0.3125 0.4375,-0.296875 0.34375,-0.296875 0.34375,-0.109375 0.34375,-0.046875 0.40625,0 0.484375,0 0.75,0 1.0625,-0.03125 1.328125,-0.03125 c 0.34375,0 0.6875,0.03125 1,0.03125 0.0625,0 0.1875,0 0.1875,-0.1875 0,-0.109375 -0.078125,-0.125 -0.15625,-0.125 -0.21875,-0.015625 -0.46875,-0.09375 -0.46875,-0.34375 0,-0.125 0.0625,-0.234375 0.140625,-0.375 l 0.765625,-1.265625 h 2.5 c 0.015625,0.203125 0.15625,1.5625 0.15625,1.65625 0,0.296875 -0.515625,0.328125 -0.71875,0.328125 C 4.59375,-0.3125 4.5,-0.3125 4.5,-0.109375 4.5,0 4.609375,0 4.640625,0 5.046875,0 5.46875,-0.03125 5.875,-0.03125 6.125,-0.03125 6.765625,0 7.015625,0 7.0625,0 7.1875,0 7.1875,-0.203125 7.1875,-0.3125 7.09375,-0.3125 6.953125,-0.3125 6.34375,-0.3125 6.34375,-0.375 6.3125,-0.671875 l -0.609375,-6.21875 c -0.015625,-0.203125 -0.015625,-0.25 -0.1875,-0.25 -0.15625,0 -0.203125,0.078125 -0.265625,0.171875 z M 2.984375,-2.609375 4.9375,-5.90625 5.265625,-2.609375 Z m 0,0"
               id="id-548970b7-9a2c-4381-b5c9-1eb630bbcff6"
               style="fill:#ff00ff;stroke-width:0" />
          </g>
        </g>
      </defs>
      <g
         fill-opacity="1"
         id="id-81323c11-3196-4217-b596-5ac7de04e9fb"
         transform="translate(-149.056,-127.624)"
         style="fill:#800080;stroke-width:0">
        <g
           transform="translate(148.712,134.765)"
           style="fill:#800080;stroke-width:0"
           id="g17113">
          <path
             d="m 3.78125,-0.546875 v 0.65625 L 5.25,0 v -0.3125 c -0.6875,0 -0.78125,-0.0625 -0.78125,-0.5625 V -6.921875 L 3.046875,-6.8125 V -6.5 c 0.6875,0 0.765625,0.0625 0.765625,0.5625 v 2.15625 c -0.28125,-0.359375 -0.71875,-0.625 -1.25,-0.625 -1.171875,0 -2.21875,0.984375 -2.21875,2.265625 0,1.265625 0.96875,2.25 2.109375,2.25 0.640625,0 1.078125,-0.34375 1.328125,-0.65625 z m 0,-2.671875 v 2.046875 c 0,0.171875 0,0.1875 -0.109375,0.359375 C 3.375,-0.328125 2.9375,-0.109375 2.5,-0.109375 2.046875,-0.109375 1.6875,-0.375 1.453125,-0.75 1.203125,-1.15625 1.171875,-1.71875 1.171875,-2.140625 1.171875,-2.5 1.1875,-3.09375 1.46875,-3.546875 1.6875,-3.859375 2.0625,-4.1875 2.609375,-4.1875 c 0.34375,0 0.765625,0.15625 1.0625,0.59375 0.109375,0.171875 0.109375,0.1875 0.109375,0.375 z m 0,0"
             id="id-24a353ae-95f7-476a-ab9f-1a85aa1de7fd"
             style="fill:#800080;stroke-width:0" />
        </g>
      </g>
      <g
         fill-opacity="1"
         id="id-41c31133-968c-489a-bd3f-7e6809c69cb0"
         transform="translate(-149.056,-127.624)"
         style="fill:#800080;stroke-width:0">
        <g
           transform="translate(154.247,134.765)"
           style="fill:#800080;stroke-width:0"
           id="g17117">
          <path
             d="M 1.78125,-1.140625 C 1.390625,-0.484375 1,-0.34375 0.5625,-0.3125 0.4375,-0.296875 0.34375,-0.296875 0.34375,-0.109375 0.34375,-0.046875 0.40625,0 0.484375,0 0.75,0 1.0625,-0.03125 1.328125,-0.03125 c 0.34375,0 0.6875,0.03125 1,0.03125 0.0625,0 0.1875,0 0.1875,-0.1875 0,-0.109375 -0.078125,-0.125 -0.15625,-0.125 -0.21875,-0.015625 -0.46875,-0.09375 -0.46875,-0.34375 0,-0.125 0.0625,-0.234375 0.140625,-0.375 l 0.765625,-1.265625 h 2.5 c 0.015625,0.203125 0.15625,1.5625 0.15625,1.65625 0,0.296875 -0.515625,0.328125 -0.71875,0.328125 C 4.59375,-0.3125 4.5,-0.3125 4.5,-0.109375 4.5,0 4.609375,0 4.640625,0 5.046875,0 5.46875,-0.03125 5.875,-0.03125 6.125,-0.03125 6.765625,0 7.015625,0 7.0625,0 7.1875,0 7.1875,-0.203125 7.1875,-0.3125 7.09375,-0.3125 6.953125,-0.3125 6.34375,-0.3125 6.34375,-0.375 6.3125,-0.671875 l -0.609375,-6.21875 c -0.015625,-0.203125 -0.015625,-0.25 -0.1875,-0.25 -0.15625,0 -0.203125,0.078125 -0.265625,0.171875 z M 2.984375,-2.609375 4.9375,-5.90625 5.265625,-2.609375 Z m 0,0"
             id="id-9f9cf41c-1ba5-4ca3-b503-c460db3fb155"
             style="fill:#800080;stroke-width:0" />
        </g>
      </g>
    </g>
  </g>
</svg>
